<svg xmlns="http://www.w3.org/2000/svg" xmlns:xlink="http://www.w3.org/1999/xlink" viewBox="0 0 59 40" fill="#fff" fill-rule="evenodd" stroke="#000" stroke-linecap="round" stroke-linejoin="round"><use xlink:href="#A" x=".5" y=".5"/><symbol id="A" overflow="visible"><use xlink:href="#C" stroke="none" fill="#036897"/><use xlink:href="#C" stroke="#fff" stroke-linejoin="miter" fill="none" stroke-width=".787"/><use xlink:href="#D" stroke="none" fill="#036897"/><use xlink:href="#D" stroke="#fff" stroke-linejoin="miter" fill="none" stroke-width=".787"/><path d="M22.434 6.677l2.361 3.541-9.049 2.361 1.967-1.574L3.548 8.644 7.089 5.89 20.86 8.251l1.574-1.574zm12.591 8.656l-1.574-3.541 8.263-1.574-1.574 1.18 13.771 2.361-3.541 2.754-13.377-2.754-1.967 1.574zM30.697 4.71l9.05-2.361v3.935l-2.361-.393-4.328 3.541-4.328-.393 4.721-3.541-2.754-.787zm-3.934 14.164l-8.656 1.574-.393-3.934 2.361.393 4.721-3.935 4.328.787-5.115 4.328 2.754.787zM42.1 30.689c0 3.541-5.508 6.689-12.59 6.689s-12.591-3.148-12.591-6.689 5.508-6.295 12.591-6.295 12.59 2.754 12.59 6.295z" stroke="none"/><path d="M21.647 31.858l3.935-3.935-1.967-1.967 5.902-.393-.393 5.902-1.967-1.967-3.935 3.935-1.574-1.574zm7.082 3.148l3.934-3.935-1.967-1.967 5.902-.393-.393 5.902-1.967-1.967-3.934 3.935-1.574-1.574z" stroke="#fff" stroke-linejoin="miter" fill="#036897" stroke-width=".787"/></symbol><defs ><path id="C" d="M57.838 11.41c0 5.902-12.984 11.017-28.722 11.017C12.984 22.427 0 17.312 0 11.41v16.132c0 6.295 12.984 11.41 29.116 11.41 15.738 0 28.722-5.115 28.722-11.41z"/><path id="D" d="M29.116 22.427c15.738 0 28.722-5.115 28.722-11.017C57.838 5.115 44.854 0 29.116 0 12.984 0 0 5.115 0 11.41c0 5.902 12.984 11.017 29.116 11.017z"/></defs></svg>