<svg xmlns="http://www.w3.org/2000/svg" xmlns:xlink="http://www.w3.org/1999/xlink" viewBox="0 0 49 66" fill="#fff" fill-rule="evenodd" stroke="#000" stroke-linecap="round" stroke-linejoin="round"><use xlink:href="#A" x=".5" y=".5"/><symbol id="A" overflow="visible"><g stroke="#fff" stroke-linejoin="miter" stroke-width=".787"><path d="M47.211 27.54l-8.262 7.475H0l9.836-7.475h37.375z" fill="#007eba"/><path d="M38.949 64.915v-29.9H0v29.9h38.949z" fill="#6daed7"/><path d="M46.424 57.44V27.933l-7.475 7.082v29.9l7.475-7.475z" fill="#008fc5"/><g fill="#007eba"><path d="M47.211 0l-8.262 7.869H0L9.836 0h37.375z"/><path d="M38.949 35.409V7.869H0v27.54h38.949z"/><path d="M46.424 28.326V.393l-7.475 7.475v27.54l7.475-7.082z"/></g></g><path d="M15.737 20.852H9.836v-1.574l-1.967 2.361 1.967 2.361v-1.574h5.901v-1.574zm3.147 4.721v5.901h-1.18l1.967 2.361 2.361-2.361h-1.574v-5.901h-1.574zm0-7.868v-5.901h-1.18l1.967-1.967 2.361 1.967h-1.574v5.901h-1.574zm5.115 4.721h5.508v1.574l2.36-2.361-2.36-2.361v1.574h-5.508v1.574z" stroke="none"/><g stroke="#fff" stroke-linejoin="miter" fill="none" stroke-width=".393"><path d="M29.109 31.087c-.787 1.18-5.901-1.967-11.016-7.082s-8.655-10.229-7.475-11.409 6.295 1.967 11.409 7.082 8.262 10.229 7.081 11.409z"/><path d="M29.109 12.596c1.18 1.18-2.361 6.295-7.475 11.409s-9.835 8.262-11.016 7.082 1.967-5.901 7.082-11.409c5.114-5.114 10.229-8.262 11.409-7.082z"/></g><path d="M22.027 25.186c1.967-1.574 2.754-3.934 1.18-5.901-1.18-1.967-3.934-2.361-5.901-1.18s-2.361 3.934-1.18 5.901c1.574 1.967 4.328 2.361 5.901 1.18z" stroke="none" fill="#b5b5b5"/><g stroke="#fff" stroke-linejoin="miter"><path d="M18.098 45.243H8.262m13.376-3.147h11.016" stroke-linecap="square" fill="none" stroke-width="2.361"/><path d="M30.294 38.162v7.475l4.328-3.541-4.328-3.934zM9.442 48.784v-7.082l-4.721 3.541 4.721 3.541z" stroke-width=".393"/><path d="M18.098 58.226H8.262m13.376-3.147h11.016" stroke-linecap="square" fill="none" stroke-width="2.361"/><path d="M30.294 51.145v7.475l4.328-3.541-4.328-3.934zM9.442 61.768v-7.082l-4.721 3.541 4.721 3.541z" stroke-width=".393"/></g></symbol></svg>