<svg xmlns="http://www.w3.org/2000/svg" xmlns:xlink="http://www.w3.org/1999/xlink" viewBox="0 0 73 44" fill="#fff" fill-rule="evenodd" stroke="#000" stroke-linecap="round" stroke-linejoin="round"><use xlink:href="#A" x=".5" y=".5"/><symbol id="A" overflow="visible"><g stroke="#fff" stroke-linejoin="miter" fill="#036897" stroke-width=".787"><path d="M5.512 7.874h51.966l5.511 5.512v24.408l-5.511 4.724H5.512L0 37.794V13.386l5.512-5.512z"/><path d="M5.512 7.874h51.966L66.139 0H14.567L5.512 7.874z"/><path d="M57.084 7.874l5.905 5.512 8.661-7.874L66.139 0l-9.055 7.874z"/></g><path d="M2.362 22.046h59.052v6.299H2.362v-6.299z" stroke="none"/><g stroke="#fff" stroke-linejoin="miter"><g fill="none" stroke-width="1.968"><path d="M37.791 25.206c-8.661 0-15.353-6.299-15.353-14.172"/><path d="M37.791 24.419c-8.661 0-15.353-5.511-15.353-13.385M3.935 24.419c8.267 0 14.96-5.511 14.96-13.385"/><path d="M60.232 24.419c-8.661 0-14.96-5.511-14.96-13.385M26.375 24.419c8.267 0 14.96-5.511 14.96-13.385m-3.544 15.354c-8.661 0-15.353 5.118-15.353 12.991M3.935 26.388c8.267 0 14.96 5.118 14.96 12.991"/><path d="M60.232 26.388c-8.661 0-14.96 5.118-14.96 12.991M26.375 26.388c8.267 0 14.96 5.118 14.96 12.991"/></g><path d="M62.989 13.386v24.408l8.661-7.874V5.512l-8.661 7.874z" fill="#036897" stroke-width=".787"/></g></symbol></svg>