<svg xmlns="http://www.w3.org/2000/svg" xmlns:xlink="http://www.w3.org/1999/xlink" viewBox="0 0 59 51" fill="#fff" fill-rule="evenodd" stroke="#000" stroke-linecap="round" stroke-linejoin="round"><style><![CDATA[.B{stroke-width:.787}.C{fill:#036897}.D{stroke-linecap:square}.E{stroke-linejoin:miter}]]></style><use xlink:href="#A" x=".5" y=".5"/><symbol id="A" overflow="visible"><path d="M49.969 7.869H10.623v38.559h39.346z" stroke="none" class="C"/><g stroke="#fff" class="B E"><path d="M49.969 7.869H10.623v38.559h39.346" fill="none" class="D"/><path d="M49.969 46.428l7.476-7.869V0H7.869L0 7.869h49.969v38.559z" class="C"/></g><path d="M49.969 7.869L57.445 0z" stroke="none" fill="#000"/><g class="E"><g fill="none" class="B"><path d="M49.969 7.869L57.445 0M33.444 13.771h6.689m3.541 3.148V9.443h-31.87v7.476h31.87zm0 9.836V20.46h-4.722v6.295h4.722z" stroke="#fff" class="D"/><path d="M.787 45.641V8.263h9.836v37.378H.787z"/><path d="M2.754 10.23h6.295m-6.295 1.967h6.295m-6.295 1.967h6.295m-6.295 1.967h6.295m-6.295 1.967h6.295m-6.295 1.967h6.295m-6.295 1.967h6.295m-6.295 1.967h6.295m-6.295 1.967h6.295m-6.295 1.967h6.295m-6.295 1.967h6.295M2.754 31.87h6.295m-6.295 1.967h6.295m-6.295 1.967h6.295m-6.295 1.967h6.295m-6.295 1.967h6.295m-6.295 1.967h6.295m-6.295 1.967h6.295" class="D"/></g><g stroke="#fff" class="C"><path d="M7.475 46.428l-1.967 2.754h41.313l-1.18-2.754H7.475z" class="B"/><path d="M46.821 49.182l2.361-2.754h-3.541l1.18 2.754z" class="B"/></g></g></symbol></svg>