<svg xmlns="http://www.w3.org/2000/svg" xmlns:xlink="http://www.w3.org/1999/xlink" viewBox="0 0 49 49" fill="#fff" fill-rule="evenodd" stroke="#000" stroke-linecap="round" stroke-linejoin="round"><style><![CDATA[.B{fill:none}.C{stroke-linecap:square}.D{stroke-width:.787}.E{stroke:#fff}.F{stroke-linejoin:miter}.G{stroke-width:1.574}.H{stroke:none}.I{fill:#000}.J{fill:#036897}]]></style><use xlink:href="#A" x=".5" y=".5"/><symbol id="A" overflow="visible"><g class="E F"><path d="M42.096 47.998V5.508H0v42.49h42.096z" class="D J"/><g class="B G"><path d="M9.437 22.83c1.574 0 3.147-1.18 3.147-3.147 0-1.574-1.574-3.147-3.147-3.147-1.967 0-3.147 1.574-3.147 3.147 0 1.967 1.18 3.147 3.147 3.147z"/><path d="M9.442 16.524h5.508" class="C"/></g><path d="M14.95 14.557v3.934l2.36-1.967-2.36-1.967z" class="G"/><path d="M6.295 19.671v-5.508" class="B C G"/><path d="M3.934 14.164h4.328l-1.967-2.361-2.36 2.361z" class="G"/><path d="M12.59 19.671v5.508" class="B C G"/><path d="M14.557 25.179h-3.934l1.967 2.36 1.967-2.36z" class="G"/><path d="M9.442 22.819H3.934" class="B C G"/><path d="M3.934 25.179v-4.328L1.18 22.818l2.754 2.361z" class="G"/><g class="D"><path d="M41.703 5.508H0L6.688 0h40.523v42.49l-5.508 5.508V5.508z" class="J"/><path d="M41.703 5.508L47.211 0" class="B C"/></g></g><path d="M41.703 33.834H0z" class="H I"/><path d="M41.703 33.834H0" class="B C D E F"/><path d="M28.72 33.048V5.508z" class="H I"/><path d="M28.72 33.048V5.508" class="B C D E F"/><path d="M23.999 33.048V5.508z" class="H I"/><path d="M23.999 33.048V5.508" class="B C D E F"/><path d="M37.769 33.048V5.508z" class="H I"/><path d="M37.769 33.048V5.508" class="B C D E F"/><path d="M33.048 33.048V5.508z" class="H I"/><path d="M33.048 33.048V5.508" class="B C D E F"/><path d="M19.278 33.047v-.393z" class="H I"/><path d="M19.278 33.047v-.393" class="B C D E F"/><path d="M19.278 33.048V6.295z" class="H I"/><g class="D E F"><path d="M19.278 33.048V6.295" class="B C"/><path d="M15.737 37.769H3.541v-1.967h12.196v1.967zm11.409 3.541H14.95v-1.574h12.196v1.574zm11.409 3.541H26.36v-1.574h12.196v1.574z" class="J"/></g></symbol></svg>