<svg xmlns="http://www.w3.org/2000/svg" xmlns:xlink="http://www.w3.org/1999/xlink" viewBox="0 0 59 59" fill="#fff" fill-rule="evenodd" stroke="#000" stroke-linecap="round" stroke-linejoin="round"><use xlink:href="#A" x=".5" y=".5"/><symbol id="A" overflow="visible"><use xlink:href="#C" stroke="none" fill="#036897"/><use xlink:href="#C" stroke="#fff" stroke-linejoin="miter" fill="none" stroke-width=".787"/><use xlink:href="#D" stroke="none" fill="#036897"/><use xlink:href="#D" stroke="#fff" stroke-linejoin="miter" fill="none" stroke-width=".787"/><path d="M22.433 6.677l2.361 3.541-9.05 2.361 1.967-1.967L3.94 8.251 7.481 5.89l13.378 1.967 1.574-1.18zm12.591 8.656l-1.574-3.541 8.263-1.574-1.574 1.18 13.771 2.361-3.148 2.361-13.771-2.361-1.967 1.574zm-8.263 3.541l-8.656 1.574-.393-3.935 2.361.393 5.115-3.935 3.935.787-5.115 4.328 2.754.787z" stroke="none"/><path d="M53.516 21.235V47.99m-3.148-25.181v26.755m-3.148-25.575v26.755M43.286 25.17v26.755m-3.541-25.968v26.755M36.204 26.35v26.755m-3.935-25.968v26.755M3.547 21.235V47.99m3.148-25.181v26.755m3.148-25.575v26.755m3.935-25.575v26.755m3.541-25.968v26.755m3.541-26.362v26.755m3.935-25.968v26.755m3.935-26.755v26.755" stroke="#fff" stroke-linejoin="miter" stroke-linecap="square" fill="none" stroke-width=".787"/><path d="M29.909 4.71l9.443-2.754v3.935l-2.361-.394-4.328 3.935-4.328-.787 4.721-3.541-3.148-.393z" stroke="none"/></symbol><defs ><path id="C" d="M57.838 11.017c0 6.295-12.984 11.41-28.722 11.41C12.984 22.427 0 17.312 0 11.017v35.411c0 6.295 12.984 11.41 29.116 11.41 15.738 0 28.722-5.115 28.722-11.41z"/><path id="D" d="M29.116 22.427c15.738 0 28.722-5.115 28.722-11.41C57.838 5.115 44.854 0 29.116 0 12.984 0 0 5.115 0 11.017c0 6.295 12.984 11.41 29.116 11.41z"/></defs></svg>