<svg xmlns="http://www.w3.org/2000/svg" xmlns:xlink="http://www.w3.org/1999/xlink" viewBox="0 0 58 26" fill="#fff" fill-rule="evenodd" stroke="#000" stroke-linecap="round" stroke-linejoin="round"><style><![CDATA[.B{stroke-linejoin:miter}.C{fill:none}.D{stroke-width:.787}.E{stroke-width:1.574}]]></style><use xlink:href="#A" x=".5" y=".5"/><symbol id="A" overflow="visible"><g stroke="#fff" class="B"><g fill="#036897" stroke-width=".788"><path d="M0 9.064L12.201 0h44.081l-8.658 9.053H0zm47.624 15.35l8.658-9.053V.011l-8.658 9.053v15.35z"/><path d="M47.624 24.414V9.064H0v15.35h47.624z"/></g><g class="C"><use xlink:href="#C" class="D"/><use xlink:href="#D" class="E"/></g></g><use xlink:href="#E" class="B C D"/><use xlink:href="#F" class="B C E"/><g stroke="#fff"><use xlink:href="#C" class="B C D"/><use xlink:href="#D" class="B C E"/></g><use xlink:href="#E" class="B C D"/><use xlink:href="#F" class="B C E"/><g stroke="#fff"><use xlink:href="#C" class="B C D"/><use xlink:href="#D" class="B C E"/></g></symbol><defs ><path id="C" d="M43.68 16.947s-3.149 7.872-6.691 0-6.691 0-6.691 0-3.149 7.872-7.084 0c-3.542-7.872-6.691 0-6.691 0s-3.149 7.872-6.691 0-6.691 0-6.691 0"/><path id="D" d="M3.141 16.947s3.149 7.872 6.691 0 6.691 0 6.691 0 3.149 7.872 7.084 0c3.542-7.872 6.691 0 6.691 0s3.149 7.872 6.691 0 6.691 0 6.691 0"/><path id="E" d="M44.467 16.947s-3.149 7.872-6.691 0c-3.936-7.872-6.691 0-6.691 0s-3.149 7.872-7.084 0c-3.542-7.872-6.691 0-6.691 0s-3.149 7.872-6.691 0c-3.936-7.872-6.691 0-6.691 0"/><path id="F" d="M3.928 16.947s2.755 7.872 6.691 0c3.542-7.872 6.691 0 6.691 0s3.149 7.872 6.691 0c3.936-7.872 7.084 0 7.084 0s2.755 7.872 6.691 0c3.542-7.872 6.691 0 6.691 0"/></defs></svg>