<svg xmlns="http://www.w3.org/2000/svg" xmlns:xlink="http://www.w3.org/1999/xlink" viewBox="0 0 68 49" fill="#fff" fill-rule="evenodd" stroke="#000" stroke-linecap="round" stroke-linejoin="round"><use xlink:href="#A" x=".5" y=".5"/><symbol id="A" overflow="visible"><g stroke="#fff" stroke-linejoin="miter" fill="#046897" stroke-width=".787"><path d="M0 47.604h60.194V8.262H0v39.342z"/><path d="M66.882 37.769l-6.688 9.836V8.262L66.882 0v37.769z"/><path d="M10.622 0h56.26l-6.688 8.262H0L10.622 0z"/></g><g stroke="none"><path d="M51.932 28.72H41.703v-1.574h10.229v-2.754l5.901 3.541-5.901 3.147V28.72zm-40.129 0H1.574v-1.574h10.229v-2.754l5.901 3.541-5.901 3.147V28.72zm38.556-10.622l-8.655 5.508-.787-1.574 8.262-5.508-1.18-1.967 6.688-.393-3.147 5.901-1.18-1.967zm0 19.671l-8.655-5.508-.787 1.18 8.262 5.508-1.18 2.361 6.688.393-3.147-5.901-1.18 1.967z"/><use xlink:href="#C" fill="#046897"/></g><use xlink:href="#C" stroke="#fff" stroke-linejoin="miter" fill="none" stroke-width="1.18"/></symbol><defs ><path id="C" d="M39.731 27.546c0 5.508-4.328 9.836-9.835 9.836s-9.835-4.328-9.835-9.835 4.328-9.835 9.836-9.835 9.835 4.328 9.835 9.836z"/></defs></svg>