<svg xmlns="http://www.w3.org/2000/svg" xmlns:xlink="http://www.w3.org/1999/xlink" viewBox="0 0 58 41" fill="#fff" fill-rule="evenodd" stroke="#000" stroke-linecap="round" stroke-linejoin="round"><style><![CDATA[.B{fill:none}.C{stroke:none}.D{stroke-linejoin:miter}.E{fill:#007eba}.F{stroke-width:.393}]]></style><use xlink:href="#A" x=".5" y=".5"/><symbol id="A" overflow="visible"><g stroke="#fff" stroke-width=".787"><path d="M.393 4.721L6.687 0h49.568l-6.688 4.721H.393z" class="D E"/><path d="M49.568 39.733H.393" class="B"/><g class="D E"><path d="M49.962 4.721v35.013H0V4.721h49.962z"/><path d="M55.862 34.226V0l-6.294 4.721V39.34l6.294-5.114z"/></g></g><g class="C"><path d="M45.635 26.357h-6.688v-1.18L35.8 27.144l3.147 1.967v-.787h6.688v-1.967zM13.376 14.949H6.688v-.787l-3.147 1.967 3.147 1.967v-.787h6.688v-2.36zm23.604 2.36h6.294v.787l3.147-1.967-3.147-1.967v1.18H36.98v1.967zM3.934 28.324h6.294v1.18l3.147-1.967-3.147-2.36v1.18H3.934v1.967z"/><use xlink:href="#C"/></g><g class="D F"><use xlink:href="#C" class="B"/><path d="M12.589 37.373l-2.754-2.36 6.688-7.081 2.36 2.36-6.294 7.081z"/></g><use xlink:href="#D" class="C"/><use xlink:href="#D" class="B D F"/><use xlink:href="#E" class="C"/><use xlink:href="#E" class="B D F"/><g class="C"><path d="M11.015 36.193z" fill="#000"/><use xlink:href="#F" class="E"/></g><g stroke="#fff" class="F"><use xlink:href="#F" class="B"/><g class="E"><path d="M29.112 20.457l1.967-1.967h-9.442l-1.967 1.967h9.442z"/><path d="M31.079 25.178V18.49l-1.967 1.967v6.294l1.967-1.574z"/></g></g><use xlink:href="#G" class="C E"/><use xlink:href="#G" stroke="#fff" class="B F"/><g class="C"><path d="M24.386 24.397c.393 0 .787-.787.787-1.18s-.393-1.18-.787-1.18-.787.787-.787 1.18.393 1.18.787 1.18z"/><path d="M24.784 25.178v-1.967l-.393.393v1.967l.393-.393z"/></g></symbol><defs ><path id="C" d="M9.83 36.593c0-.787.393-1.574 1.18-1.574s1.18.787 1.18 1.18c0 .787-.393 1.18-1.18 1.18-.393.393-1.18-.393-1.18-.787z"/><path id="D" d="M14.551 18.89c-.393 6.294 3.934 11.802 9.835 12.589 6.294.787 11.802-3.934 12.589-9.835.393-6.294-3.934-11.802-9.835-12.589-6.294-.393-11.802 3.934-12.589 9.835zm1.574.393c.787-5.507 5.508-9.048 10.622-8.655 5.508.787 9.048 5.508 8.655 10.622-.787 5.507-5.508 9.048-10.622 8.655-5.507-.787-9.048-5.508-8.655-10.622z"/><path id="E" d="M13.371 19.676c-.787 5.901 3.541 11.409 9.835 12.195 5.901.787 11.408-3.541 12.195-9.835.787-5.901-3.54-11.408-9.835-12.195-5.901-.787-11.409 3.54-12.195 9.835zm1.574 0c.393-5.114 5.114-9.048 10.622-8.261 5.114.393 9.048 5.114 8.261 10.622-.394 5.114-5.114 9.048-10.622 8.261-5.114-.393-9.048-5.507-8.261-10.622z"/><path id="F" d="M28.713 26.757c.393 0 .393 0 .393-.393v-5.507c0-.393 0-.393-.393-.393h-8.655s-.393 0-.393.393v5.508c0 .393.393.393.393.393z"/><path id="G" d="M25.567 14.562c-1.574 0-2.754 1.18-2.754 2.36v2.36c.393 0 0 .393-.393.393 0 0-.393 0-.393-.393v-1.967c-.004-.94.367-1.843 1.032-2.508s1.568-1.037 2.508-1.032c1.574 0 3.147 1.574 3.147 3.541v2.36s0 .393-.393.393c-.393-.393-.393-.393-.393-.787v-2.36c0-1.18-1.18-2.36-2.36-2.36z"/></defs></svg>