<svg xmlns="http://www.w3.org/2000/svg" xmlns:xlink="http://www.w3.org/1999/xlink" viewBox="0 0 53 62" fill="#fff" fill-rule="evenodd" stroke="#000" stroke-linecap="round" stroke-linejoin="round"><style><![CDATA[.B{fill:#0a719f}.C{stroke:none}.D{stroke:#fff}.E{stroke-linejoin:miter}.F{stroke-width:.787}]]></style><use xlink:href="#A" x=".5" y=".5"/><symbol id="A" overflow="visible"><use xlink:href="#C" class="B C"/><g class="D E F"><use xlink:href="#C" fill="none"/><path d="M51.547 60.192H22.825v-30.69h28.722v30.69zM32.661 25.568H49.58v3.541H32.661v-3.541z" class="B"/></g><use xlink:href="#D" class="B C"/><use xlink:href="#D" fill="none" class="D E F"/><use xlink:href="#E" class="B C"/><use xlink:href="#E" fill="none" class="D E F"/><use xlink:href="#F" class="B C"/><use xlink:href="#F" fill="none" class="D E F"/><use xlink:href="#G" class="B C"/><use xlink:href="#G" fill="none" class="D E F"/></symbol><defs ><path id="C" d="M18.886 7.082a7.05 7.05 0 0 1-7.082 7.082c-3.934 0-6.689-3.148-6.689-7.082S7.869 0 11.804 0a7.05 7.05 0 0 1 7.082 7.082z"/><path id="D" d="M46.427 15.738v9.836H33.05V12.197l11.804 1.574s1.574 0 1.574 1.967z"/><path id="E" d="M20.853 56.264h-7.869v-9.443H9.049v9.443H1.18c-.787 0-1.18.393-1.18 1.18v1.18c0 .787.393 1.574 1.18 1.574h19.673c.787 0 1.18-.787 1.18-1.574v-1.18c0-.787-.393-1.18-1.18-1.18z"/><path id="F" d="M21.246 42.1H4.721V18.886c0-.787-.393-1.574-1.18-1.574H1.967c-.787 0-1.574.787-1.574 1.574v26.361c0 .787.787 1.18 1.574 1.18h19.279c.787 0 1.574-.393 1.574-1.18v-1.574c0-.787-.787-1.574-1.574-1.574z"/><path id="G" d="M17.312 15.738l12.591 9.049c.787.393 1.18 1.18 1.18 1.967 0 1.18-1.18 2.361-2.754 2.361-.393 0-.787 0-1.18-.393l-10.623-6.295v11.803h5.902v7.476H5.508V16.525s0-1.967 3.541-1.967h5.902s1.18 0 2.361 1.18z"/></defs></svg>