<svg xmlns="http://www.w3.org/2000/svg" xmlns:xlink="http://www.w3.org/1999/xlink" viewBox="0 0 46 51" fill="#fff" fill-rule="evenodd" stroke="#000" stroke-linecap="round" stroke-linejoin="round"><style><![CDATA[.B{stroke-width:.787}.C{fill:none}.D{stroke-linejoin:miter}.E{stroke:none}.F{stroke-width:.394}.G{stroke-linecap:square}]]></style><use xlink:href="#A" x=".5" y=".5"/><symbol id="A" overflow="visible"><path d="M0 34.635v14.956h37.39V34.635z" fill="#000" class="E"/><g stroke="#fff"><g class="B D"><path d="M0 34.635v14.956h37.39V34.635" class="C G"/><path d="M0 4.723L6.691 0h37.39L37.39 4.723H0z" fill="#046897"/></g><path d="M37.39 49.984l6.691-5.51V29.518l-6.691 5.117v15.349z" fill="#000" class="B"/><g class="C"><path d="M37.39 39.752H0m37.39 5.116H0m43.294-4.723l-5.51 4.723m-26.763 0v4.723" class="B"/><path d="M25.582 44.869v4.723m-7.084-9.84v4.723M4.329 39.752v4.723m28.731-4.723v4.723" class="B"/></g><g fill="#046897" class="D"><path d="M37.39 4.723v35.029H0V4.723h37.39z" class="B"/><path d="M43.687 34.241V0L37.39 4.723v34.635l6.297-5.117z" class="B"/></g><path d="M42.507 35.816v5.51M40.145 42.9v5.51" class="B C"/></g><g class="E"><path d="M12.988 46.049z" fill="#000"/><path d="M7.085 18.105h14.562v-1.181l3.149 1.968-3.149 1.968v-.787H7.085v-1.968zm22.434 5.117H17.318v-1.181l-3.542 1.968 3.542 1.968v-.787h12.201v-1.968z"/><use xlink:href="#C"/></g><g class="D F"><use xlink:href="#C" class="C"/><path d="M35.029 33.061l-2.361 2.362-7.478-5.904 2.361-2.361 7.478 5.904z"/></g><use xlink:href="#D" class="E"/><use xlink:href="#D" class="C D F"/><use xlink:href="#E" class="E"/><use xlink:href="#E" class="C D F"/><path d="M33.848 34.241z" fill="#000" class="E"/><path d="M29.519 24.402h5.904m-33.454-5.51h6.297" stroke="#fff" class="B C D G"/></symbol><defs ><path id="C" d="M34.236 35.429c-.787.394-1.574-.394-1.574-.787 0-.787.394-1.181 1.181-1.574.787 0 1.181.394 1.181 1.181.394.787-.394 1.181-.787 1.181z"/><path id="D" d="M8.26 19.685c-.787 6.297 3.542 11.807 9.839 12.594 5.904.787 11.414-3.936 12.201-9.839.787-6.297-3.936-11.807-9.839-12.594-6.297-.394-11.807 3.936-12.201 9.839zm1.574.394c.394-5.117 5.117-9.052 10.627-8.659 5.116.787 8.659 5.51 8.265 10.627-.787 5.51-5.51 9.052-10.626 8.659-5.116-.787-9.052-5.51-8.265-10.626z"/><path id="E" d="M6.686 20.473c-.787 5.904 3.936 11.414 9.839 12.201 6.297.787 11.807-3.542 12.201-9.839.787-5.904-3.542-11.414-9.839-12.201-5.904-.787-11.414 3.542-12.201 9.839zm1.574 0c.787-5.116 5.51-9.052 10.627-8.265 5.117.394 9.052 5.117 8.265 10.627-.394 5.116-5.116 9.052-10.233 8.265-5.51-.393-9.052-5.51-8.659-10.626z"/></defs></svg>