<svg xmlns="http://www.w3.org/2000/svg" xmlns:xlink="http://www.w3.org/1999/xlink" viewBox="0 0 45 63" fill="#fff" fill-rule="evenodd" stroke="#000" stroke-linecap="round" stroke-linejoin="round"><style><![CDATA[.B{fill:#000}.C{stroke-width:.787}.D{stroke:#fff}.E{stroke-linejoin:miter}.F{stroke:none}.G{stroke-linecap:square}.H{fill:none}]]></style><use xlink:href="#A" x=".5" y=".5"/><symbol id="A" overflow="visible"><g class="D E"><g class="B C"><use xlink:href="#C"/><path d="M0 24.008h37.783l5.51-5.51H5.51L0 24.008z"/><path d="M37.783 24.008l5.51-5.51v37.783l-5.51 5.117V24.008z"/></g><use xlink:href="#C" fill="#046897" class="C"/></g><path d="M0 24.008h37.783l5.51-5.51z" class="B F"/><path d="M0 24.008h37.783l5.51-5.51" class="C D E G H"/><path d="M37.783 24.008v37.39z" class="B F"/><g class="C D E"><path d="M37.783 24.008v37.389" class="G H"/><g class="B"><use xlink:href="#D"/><path d="M0 5.117h37.783L43.293 0H5.51L0 5.117z"/><path d="M37.783 5.117L43.293 0v18.498l-5.51 5.51V5.117z"/></g><use xlink:href="#D" fill="#046897"/><path d="M0 5.117h37.783L43.293 0" class="G H"/></g><path d="M37.783 5.117v18.892z" class="B F"/><path d="M37.783 5.117v18.892" class="C D E G H"/><path d="M2.755 7.872h10.627v5.51H2.755v-5.51z" class="F"/><path d="M5.51 29.518h26.763v26.763H5.51V29.518z" class="B C D E"/><g class="F"><path d="M10.627 34.635h16.53v16.136h-16.53V34.635zM24.402 7.872h10.627v5.51H24.402v-5.51zM2.755 16.137h10.627v5.116H2.755v-5.116zm21.647 0h10.627v5.116H24.402v-5.116z"/><path d="M13.382 10.627h11.02z" class="B"/></g><path d="M13.382 10.627h11.02" class="C D E G H"/><path d="M13.382 18.498h11.02z" class="B F"/><path d="M13.382 18.498h11.02" class="C D E G H"/><path d="M13.382 16.137l11.02-2.755z" class="B F"/><path d="M13.382 16.137l11.02-2.755" class="C D E G H"/><path d="M13.382 13.382l11.02 2.755z" class="B F"/><path d="M13.382 13.382l11.02 2.755" class="C D E G H"/></symbol><defs ><path id="C" d="M5.51 18.498L0 24.008v37.39h37.783l5.51-5.117V18.498H5.51z"/><path id="D" d="M5.51 0L0 5.117v18.892h37.783l5.51-5.51V0H5.51z"/></defs></svg>