<svg xmlns="http://www.w3.org/2000/svg" xmlns:xlink="http://www.w3.org/1999/xlink" viewBox="0 0 52 58" fill="#fff" fill-rule="evenodd" stroke="#000" stroke-linecap="round" stroke-linejoin="round"><style><![CDATA[.B{stroke:none}.C{stroke:#fff}.D{stroke-linejoin:miter}.E{stroke-linecap:square}.F{stroke-width:1.182}]]></style><use xlink:href="#A" x=".5" y=".5"/><symbol id="A" overflow="visible"><path d="M1.97 17.335l3.152-3.546z" fill="#000" class="B"/><g stroke-width=".788" class="C D"><path d="M1.97 17.335l3.152-3.546" fill="none" class="E"/><g fill="#046897"><path d="M44.123 31.122L0 5.909v50.427l44.123-25.213z"/><path d="M43.335 31.517L.394 7.091 7.485 0l42.941 24.425-7.091 7.091z"/></g></g><path d="M11.031 18.91l-5.909 4.727 7.091 3.152-1.182-7.879z" class="B"/><path d="M3.546 15.758l4.727 6.303" fill="none" class="C D E F"/><path d="M11.031 44.517l-5.909-4.334 7.091-3.152-1.182 7.485z" class="B"/><path d="M3.546 48.063l4.728-6.303" fill="none" class="C D E F"/><path d="M30.335 27.971v7.485l6.697-3.546-6.697-3.94z" class="B"/><path d="M23.244 31.911h7.879" fill="none" class="C D E F"/></symbol></svg>