<svg xmlns="http://www.w3.org/2000/svg" xmlns:xlink="http://www.w3.org/1999/xlink" viewBox="0 0 49 62" fill="#fff" fill-rule="evenodd" stroke="#000" stroke-linecap="round" stroke-linejoin="round"><style><![CDATA[.B{stroke-linejoin:miter}.C{stroke:none}.D{fill:#000}.E{stroke-linecap:square}.F{fill:none}.G{stroke:#fff}.H{stroke-width:.787}.I{stroke-width:2.361}]]></style><use xlink:href="#A" x=".5" y=".5"/><symbol id="A" overflow="visible"><g fill="#046897" class="B G H"><path d="M0 60.981V22.425h42.49v38.556H0z"/><path d="M47.604 55.473V17.311l-5.114 5.115v38.555l5.115-5.508zM7.868 0L0 5.508h42.49L47.604 0H7.868z"/><path d="M0 22.425V5.508h42.49v16.917H0z"/><path d="M47.605 17.311V0L42.49 5.508v16.917l5.115-5.115z"/></g><path d="M42.49 22.425H0z" class="C D"/><path d="M42.49 22.425H0" class="B E F G H"/><path d="M42.49 22.426l5.115-5.114z" class="C D"/><path d="M42.49 22.426l5.115-5.114" class="B E F G H"/><path d="M14.556 10.229V6.688H7.868v3.541h6.688zm15.737 0V6.688h6.688v3.541h-6.688zm-15.737 9.049v-3.541H7.868v3.541h6.688zm15.737 0v-3.541h6.688v3.541h-6.688z" class="C D"/><g class="B E F H"><path d="M12.59 9.049h20.851M12.59 17.704h20.851m-22.032 0l22.032-8.655"/><path d="M11.409 9.049l22.032 8.655"/></g><path d="M13.77 11.41V7.869H7.082v3.541h6.688zm15.737 0V7.869h6.688v3.541h-6.688zM13.77 20.065v-3.541H7.082v3.541h6.688zm15.737 0v-3.541h6.688v3.541h-6.688z" class="C"/><g class="B E F G H"><path d="M11.409 9.442h21.245m-21.245 9.049h21.245"/><path d="M10.229 18.491l22.425-9.049"/><path d="M10.229 9.442l22.425 9.049"/></g><path d="M9.836 51.539h7.868l10.229-21.245h7.082" class="B E F I"/><g class="C"><path d="M33.047 26.359v7.475l4.721-3.541-4.721-3.934zm-21.638 28.72v-7.475l-4.721 3.934 4.721 3.541z" class="D"/><path d="M10.229 55.866v-7.475l-4.328 3.541 4.328 3.934zM32.26 26.753v7.868l4.328-3.934-4.328-3.934z"/><path d="M11.409 33.834v-7.475l-4.721 3.934 4.721 3.541z" class="D"/><path d="M10.229 34.621v-7.475l-4.328 3.541 4.328 3.934z"/></g><g class="B E F I"><path d="M35.408 51.538h-7.475L17.311 29.9h-6.295"/><g class="G"><path d="M35.014 51.932h-7.869L16.523 30.687H8.655"/><path d="M8.655 51.932h7.475l10.622-21.245h8.262"/></g></g><g class="C"><path d="M33.048 47.604v7.475l4.721-3.541-4.721-3.934z" class="D"/><path d="M32.261 48.391v7.475l4.328-3.541-4.328-3.934z"/></g></symbol></svg>