<svg xmlns="http://www.w3.org/2000/svg" xmlns:xlink="http://www.w3.org/1999/xlink" viewBox="0 0 42 43" fill="#fff" fill-rule="evenodd" stroke="#000" stroke-linecap="round" stroke-linejoin="round"><use xlink:href="#A" x=".5" y=".5"/><symbol id="A" overflow="visible"><g stroke="#fff" stroke-linejoin="miter"><g fill="#046897" stroke-width=".788"><path d="M33.877 41.754V7.09H0v34.664h33.877z"/><path d="M33.877 7.09H0L8.666 0h32.301v34.664l-7.09 7.09V7.09z"/></g><g stroke-linecap="square" fill="none"><path d="M33.877 7.09L40.967 0" stroke-width=".788"/><g stroke-width="2.363"><path d="M29.544 34.664h-7.484L11.818 14.181H5.121"/><path d="M4.727 34.664h7.09l10.242-20.483h7.878"/></g></g><path d="M27.18 10.636v7.09l4.333-3.545-4.333-3.545zm0 20.09v7.484l4.333-3.545-4.333-3.939zM6.303 18.12v-7.484L1.97 14.181l4.333 3.939zm0 20.089v-7.09L1.97 34.665l4.333 3.545z" stroke-width=".394"/></g></symbol></svg>