<svg xmlns="http://www.w3.org/2000/svg" xmlns:xlink="http://www.w3.org/1999/xlink" viewBox="0 0 59 41" fill="#fff" fill-rule="evenodd" stroke="#000" stroke-linecap="round" stroke-linejoin="round"><use xlink:href="#A" x=".5" y=".5"/><symbol id="A" overflow="visible"><use xlink:href="#C" stroke="none" fill="#046897"/><use xlink:href="#C" stroke="#fff" stroke-linejoin="miter" fill="none" stroke-width=".787"/><use xlink:href="#D" stroke="none" fill="#046897"/><use xlink:href="#D" stroke="#fff" stroke-linejoin="miter" fill="none" stroke-width=".787"/><path d="M22.446 7.08l2.362 3.543-9.055 1.969 1.969-1.575-13.78-2.362 3.543-2.756 13.386 2.362 1.575-1.181zm12.599 8.662l-1.575-3.543 8.268-1.969-1.575 1.575 13.78 2.362-3.15 2.362-13.78-2.362-1.968 1.575zm-4.331-10.63l9.055-2.362.394 3.543-2.362-.394-4.724 3.937-3.937-.787 4.331-3.543-2.756-.394zm-3.937 14.173l-8.661 1.575-.394-4.331 2.756.787 4.725-4.331 3.937.787-5.118 4.724 2.756.787zm2.756 11.024l5.118 3.937h1.969v-1.181l5.512 1.969-5.512 1.968v-1.181h-2.756l-5.906-4.331-5.512 4.331H19.69v1.181l-5.512-1.968 5.512-1.969v1.181h1.969l5.118-3.937-5.118-3.937H19.69v1.181l-5.512-1.968 5.512-1.969v1.181h2.756l5.512 4.331 5.906-4.331h2.756v-1.181l5.512 1.969-5.512 1.968v-1.181h-1.969l-5.118 3.937z" stroke="none"/></symbol><defs ><path id="C" d="M57.875 11.417c0 6.299-12.992 11.417-28.74 11.417C12.992 22.834 0 17.716 0 11.417v16.536C0 34.252 12.992 39.37 29.134 39.37c15.748 0 28.74-5.118 28.74-11.417z"/><path id="D" d="M29.134 22.835c15.748 0 28.74-5.118 28.74-11.417S44.882 0 29.134 0C12.992 0 0 5.118 0 11.417s12.992 11.417 29.134 11.417z"/></defs></svg>