<svg xmlns="http://www.w3.org/2000/svg" xmlns:xlink="http://www.w3.org/1999/xlink" viewBox="0 0 49 49" fill="#fff" fill-rule="evenodd" stroke="#000" stroke-linecap="round" stroke-linejoin="round"><use xlink:href="#A" x=".5" y=".5"/><symbol id="A" overflow="visible"><g stroke-linejoin="miter"><path d="M35.816 47.23V10.627H.394V47.23h35.422z" stroke="#fff" fill="#046897" stroke-width=".787"/><path d="M6.691 38.964h7.478l10.233-21.253h7.478" stroke-linecap="square" fill="none" stroke-width="2.362"/></g><g stroke="none"><path d="M29.518 13.775v7.871l4.723-3.936-4.723-3.936zM7.871 42.9v-7.478l-4.329 3.542L7.871 42.9z" fill="#000"/><path d="M6.691 43.687v-7.478l-4.329 3.542 4.329 3.936zm22.04-29.125v7.478l4.723-3.542-4.723-3.936z"/><path d="M7.871 21.647v-7.478l-4.329 3.542 4.329 3.936z" fill="#000"/><path d="M6.691 22.434v-7.478l-4.329 3.542 4.329 3.936z"/></g><g stroke-linejoin="miter"><g stroke-linecap="square" fill="none" stroke-width="2.362"><path d="M31.88 38.964h-7.478L13.775 17.711H7.478"/><path d="M31.88 39.751h-7.872L13.382 18.498H5.117" stroke="#fff"/></g><path d="M47.229 0L35.816 10.627H0L12.988 0h34.241zm.394 33.061V0L35.816 10.627v36.209l11.807-13.775z" stroke="#fff" fill="#046897" stroke-width=".787"/><path d="M5.117 39.751h7.872l10.233-21.253h8.265" stroke="#fff" stroke-linecap="square" fill="none" stroke-width="2.362"/></g><g stroke="none"><path d="M29.518 35.422V42.9l4.723-3.542-4.723-3.936z" fill="#000"/><path d="M28.731 35.816v7.478l4.723-3.542-4.723-3.936z"/><path d="M35.815 1.968L37.389.787l4.723 1.574-8.265 1.968 1.968-1.968H27.55l.394-.394h7.872z" fill="#000"/><path d="M29.519 6.691l1.574-1.181 3.936 1.181-8.265 1.968 1.574-1.574h-8.265l1.181-.394h8.265zm-3.936-3.149l-.787.787h-6.691l-1.574.787-3.936-1.181 8.265-1.968-2.361 1.574h7.084zm-5.904 4.723l-1.181.787h-6.691l-1.181.787-3.936-1.574 8.265-1.574-2.361 1.574h7.084zm16.137-5.904l1.574-1.181 4.329 1.574-8.265 1.574 1.181-1.181h-7.872l.787-.787h8.265z"/></g></symbol></svg>