<svg xmlns="http://www.w3.org/2000/svg" xmlns:xlink="http://www.w3.org/1999/xlink" viewBox="0 0 68 49" fill="#fff" fill-rule="evenodd" stroke="#000" stroke-linecap="round" stroke-linejoin="round"><use xlink:href="#A" x=".5" y=".5"/><symbol id="A" overflow="visible"><g stroke="#fff" stroke-linejoin="miter" fill="#046897" stroke-width=".787"><path d="M0 47.604h60.194V8.262H0v39.342z"/><path d="M66.882 37.769l-6.688 9.836V8.262L66.882 0v37.769z"/><path d="M10.229 0h56.653l-6.688 8.262H0L10.229 0z"/></g><g stroke="none"><path d="M8.656 18.885H3.541v-1.967h5.115v-2.36l5.901 3.541-5.901 3.147v-2.36zm0 9.836H3.541v-1.574h5.115v-2.754l5.901 3.541-5.901 3.147V28.72zm0 9.835H3.541v-1.574h5.115v-2.361l5.901 3.147-5.901 3.541v-2.754zm44.85-9.835h-6.688v-1.574h6.688v-2.361l5.901 3.147-5.901 3.147v-2.36zm-34.233.005c0 6.295 5.114 11.409 11.803 11.409V28.726z"/><path d="M31.076 16.924c6.295 0 11.409 5.115 11.409 11.803H31.076z"/></g></symbol></svg>