<svg xmlns="http://www.w3.org/2000/svg" xmlns:xlink="http://www.w3.org/1999/xlink" viewBox="0 0 59 57" fill="#fff" fill-rule="evenodd" stroke="#000" stroke-linecap="round" stroke-linejoin="round"><use xlink:href="#A" x=".5" y=".5"/><symbol id="A" overflow="visible"><use xlink:href="#C" stroke="none" fill="gray"/><use xlink:href="#C" stroke="#fff" stroke-linejoin="miter" fill="none" stroke-width=".787"/><use xlink:href="#D" stroke="none" fill="#046897"/><use xlink:href="#D" stroke="#fff" stroke-linejoin="miter" fill="none" stroke-width=".787"/><use xlink:href="#E" stroke="none" fill="gray"/><use xlink:href="#E" stroke="#fff" stroke-linejoin="miter" fill="none" stroke-width=".787"/><g stroke="none"><path d="M22.438 6.684l2.361 3.542-9.052 2.362 1.968-1.574L3.94 8.652l3.149-2.755 13.775 2.361 1.574-1.574zm12.595 8.659l-1.574-3.542 8.265-1.574-1.574 1.181 13.775 2.361-3.542 2.755-13.382-2.755-1.968 1.574zM30.704 4.717l9.052-2.361v3.936l-1.968-.394-4.723 3.542-4.329-.394 4.723-3.936-2.755-.394zm-3.936 14.169l-8.659 1.574-.394-3.936 2.362.394 5.116-3.936 3.936.787-5.117 4.329 2.755.787z"/><path d="M.788 27.551c2.755 5.117 13.382 8.659 27.55 8.659 13.775 0 25.583-3.936 29.125-8.659v-3.149c0 5.51-13.775 10.233-29.125 10.233S1.181 29.912.394 24.796z" fill="#046897"/><path d="M26.375 32.661v1.181h-5.117l7.478 9.446 7.084-9.446h-4.723v-1.181h-4.723z" fill="gray"/><path d="M21.651 51.553l17.318-17.318-1.574-.787-17.318 17.318 1.574.787z"/><path d="M35.427 51.159L18.503 34.235l1.574-.787 16.924 16.924-1.574.787z"/><path d="M31.093 50.378v1.574c4.329-.394 11.414-.787 14.956-1.968l.394-1.574c-3.936 1.181-11.02 1.574-15.35 1.968zm-19.286-.394c3.936 1.181 9.839 1.574 14.562 1.968v-1.574c-4.723 0-11.02-1.181-14.562-1.968zm-.393-16.53c3.542.787 9.839 1.574 14.562 1.968v-1.574c-5.116-.394-11.414-1.181-14.562-1.968zm19.679.394v1.574c4.723 0 11.414-.787 15.35-1.968V31.88c-3.542 1.181-10.626 1.968-15.35 1.968zM14.961 46.436l-1.968-.394 3.149-8.265 2.361.394 3.149 9.446-2.361-.394-.394-1.968-3.542-.394-.394 1.574zm1.181-3.149l2.361.394-1.181-3.936-1.181 3.542zm23.216 3.943l-1.968.394v-9.052l3.936-.787c1.968 0 3.149.787 3.149 2.755 0 .787-.787 2.755-3.149 3.149l-1.968.394zm1.574-5.117c1.574 0 1.574-1.181 1.574-1.574 0-.787-.394-1.181-1.574-1.181l-1.574.394v2.755z"/></g></symbol><defs ><path id="C" d="M57.856 11.414c0 5.904-12.988 11.02-28.731 11.02C12.988 22.434 0 17.318 0 11.414v12.988c0 6.297 12.988 11.414 29.125 11.414 15.743 0 28.731-5.117 28.731-11.414z"/><path id="D" d="M57.856 24.008c0 6.297-12.988 11.414-28.731 11.414C12.988 35.422 0 30.305 0 24.008v20.073c0 6.297 12.988 11.02 29.125 11.02 15.743 0 28.731-4.723 28.731-11.02z"/><path id="E" d="M29.125 22.434c15.743 0 28.731-5.117 28.731-11.02C57.856 5.117 44.868 0 29.125 0 12.988 0 0 5.117 0 11.414c0 5.904 12.988 11.02 29.125 11.02z"/></defs></svg>