<svg xmlns="http://www.w3.org/2000/svg" xmlns:xlink="http://www.w3.org/1999/xlink" viewBox="0 0 77 32" fill="#fff" fill-rule="evenodd" stroke="#000" stroke-linecap="round" stroke-linejoin="round"><use xlink:href="#A" x=".5" y=".5"/><symbol id="A" overflow="visible"><g stroke="#fff" stroke-linejoin="miter" fill="#046897" stroke-width=".787"><path d="M56.249 30.288V18.094H.393v12.194h55.856z"/><path d="M0 18.094L22.815 0h52.316L56.25 18.094H0z"/><path d="M56.25 30.682l18.881-18.488V0L56.25 18.094v12.587z"/></g><path d="M36.582 4.721l1.18 3.934-8.654-.787 2.36-1.18-8.654-4.72 3.147-1.18 8.654 4.327 1.967-.393zm4.327 8.654l-1.573-3.934 8.654 1.18-1.573.393 9.441 4.72-3.54 1.18-9.44-4.327-1.967.787zM58.61 1.18l9.441.787-1.18 3.54-1.967-1.18-19.274 4.72-3.934-1.967 19.668-4.327L58.61 1.18zM17.701 16.915l-8.654-1.18.787-3.934 2.36 1.18 19.668-3.933 3.54 1.967-20.061 4.327 2.36 1.573zm-1.573 9.441H3.934v-4.72h12.194v4.72zm35.402 0H39.336v-4.72H51.53v4.72z" stroke="none"/></symbol></svg>