<svg xmlns="http://www.w3.org/2000/svg" xmlns:xlink="http://www.w3.org/1999/xlink" viewBox="0 0 40 58" fill="#fff" fill-rule="evenodd" stroke="#000" stroke-linecap="round" stroke-linejoin="round"><use xlink:href="#A" x=".5" y=".5"/><symbol id="A" overflow="visible"><g stroke="#fff" stroke-linejoin="miter"><g fill="#0a719f" stroke-width=".787"><path d="M38.553 43.667V0L27.931 10.622v45.634l10.622-12.589z"/><path d="M27.931 10.622H0v45.634h27.931V10.622z"/><path d="M27.931 10.622L38.553 0H13.376L0 10.622h27.931z"/></g><g stroke-linecap="square" fill="none" stroke-width=".393"><path d="M8.261 42.094v3.934h3.934"/><use xlink:href="#C"/><path d="M1.967 46.028h4.721m1.574-10.622v3.934h3.934"/><use xlink:href="#C" y="-6.688"/><path d="M1.967 39.34h4.721m1.574-11.802v3.934h3.934"/><use xlink:href="#C" y="-14.556"/><path d="M1.967 31.472h4.721m1.574-11.409v3.934h3.934"/><use xlink:href="#C" y="-22.031"/><path d="M1.967 23.997h4.721m1.574-11.802v3.934h3.934"/><use xlink:href="#C" y="-29.899"/><path d="M1.967 16.129h4.721m13.769 25.964v3.934h3.934"/><use xlink:href="#C" x="12.195"/><path d="M14.556 46.028h4.327m1.574-10.622v3.934h3.934"/><use xlink:href="#C" x="12.195" y="-6.688"/><path d="M14.556 39.34h4.327m1.574-11.802v3.934h3.934"/><use xlink:href="#C" x="12.195" y="-14.556"/><path d="M14.556 31.472h4.327m1.574-11.409v3.934h3.934"/><use xlink:href="#C" x="12.195" y="-22.031"/><path d="M14.556 23.997h4.327m1.574-11.802v3.934h3.934"/><use xlink:href="#C" x="12.195" y="-29.899"/><path d="M14.556 16.129h4.327"/></g></g></symbol><defs ><path id="C" d="M7.868 46.028h4.327m-9.442-3.934v3.934h3.934"/></defs></svg>