<svg xmlns="http://www.w3.org/2000/svg" xmlns:xlink="http://www.w3.org/1999/xlink" viewBox="0 0 34 57" fill="#fff" fill-rule="evenodd" stroke="#000" stroke-linecap="round" stroke-linejoin="round"><use xlink:href="#A" x=".5" y=".5"/><symbol id="A" overflow="visible"><g stroke="#fff" stroke-linejoin="miter" fill="#02709f" stroke-width=".787"><path d="M32.263 49.574l-5.902 5.902V5.902L32.263 0v49.574z"/><path d="M0 55.476h26.361V5.902H0v49.574z"/><path d="M5.902 0h26.361l-5.902 5.902H0L5.902 0z"/></g><g stroke="none"><path d="M18.492 18.099V11.41H7.082v6.689h11.41z"/><use xlink:href="#C"/><use xlink:href="#D"/><use xlink:href="#E"/><use xlink:href="#C" y="18.098"/><use xlink:href="#D" y="18.099"/></g><path d="M7.082 23.213h10.623M7.082 29.115h10.623M7.082 35.41h10.623M7.082 41.312h10.623M7.082 47.213h10.623" stroke="#fff" stroke-linejoin="miter" stroke-linecap="square" fill="none" stroke-width=".787"/><g stroke="none"><use xlink:href="#C" x="15.344"/><use xlink:href="#D" x="15.344"/><use xlink:href="#E" x="15.344"/><use xlink:href="#C" x="15.344" y="18.098"/><use xlink:href="#D" x="15.344" y="18.099"/></g></symbol><defs ><path id="C" d="M5.11 25.581c.787 0 1.574-.787 1.574-1.967 0-.787-.787-1.574-1.574-1.574-1.18 0-1.967.787-1.967 1.574 0 1.18.787 1.967 1.967 1.967z"/><path id="D" d="M5.11 31.482c.787 0 1.574-.787 1.574-1.574 0-1.18-.787-1.967-1.574-1.967-1.18 0-1.967.787-1.967 1.967 0 .787.787 1.574 1.967 1.574z"/><path id="E" d="M5.11 37.384c.787 0 1.574-.787 1.574-1.574s-.787-1.574-1.574-1.574c-1.18 0-1.967.787-1.967 1.574s.787 1.574 1.967 1.574z"/></defs></svg>