<svg xmlns="http://www.w3.org/2000/svg" xmlns:xlink="http://www.w3.org/1999/xlink" viewBox="0 0 59 60" fill="#fff" fill-rule="evenodd" stroke="#000" stroke-linecap="round" stroke-linejoin="round"><use xlink:href="#A" x=".5" y=".5"/><symbol id="A" overflow="visible"><use xlink:href="#C" stroke="none" fill="#046897"/><use xlink:href="#C" stroke="#fff" stroke-linejoin="miter" fill="none" stroke-width=".787"/><use xlink:href="#D" stroke="none" fill="#046897"/><use xlink:href="#D" stroke="#fff" stroke-linejoin="miter" fill="none" stroke-width=".787"/><path d="M25.588 28.331v21.647l25.189-10.233-25.189-11.414z" stroke="none"/><path d="M22.833 28.331v4.329h-7.872v-4.329h7.872zm0 5.904v4.329h-7.872v-4.329h7.872zm0 5.904v4.329h-7.872v-4.329h7.872zm0 5.904v4.329h-7.872v-4.329h7.872z" stroke-linejoin="miter" stroke-width=".787"/><path d="M22.438 6.29l2.755 3.936-9.052 1.968 1.968-1.574L3.94 8.258l3.542-2.755 13.382 2.361 1.574-1.574zm12.988 9.052l-1.574-3.936 7.872-1.574-1.181 1.181 13.382 2.361-3.149 2.755-13.382-2.755-1.968 1.968zm-4.723-11.02l9.446-2.361v3.936l-2.361-.393-4.329 3.542-4.329-.394 4.723-3.542-3.149-.787zm-3.542 14.169l-9.052 1.574V16.13l2.361.394 4.723-3.936 4.329.787-5.116 4.329 2.755.787z" stroke="none"/></symbol><defs ><path id="C" d="M57.856 11.414c0 5.904-12.988 11.02-29.125 11.02C12.988 22.434 0 17.318 0 11.414v35.422C0 53.133 12.988 58.25 28.731 58.25c16.137 0 29.125-5.117 29.125-11.414z"/><path id="D" d="M28.731 22.434c16.137 0 29.125-5.117 29.125-11.02C57.856 5.117 44.868 0 28.731 0 12.988 0 0 5.117 0 11.414c0 5.904 12.988 11.02 28.731 11.02z"/></defs></svg>