<svg xmlns="http://www.w3.org/2000/svg" xmlns:xlink="http://www.w3.org/1999/xlink" viewBox="0 0 38 57" fill="#fff" fill-rule="evenodd" stroke="#000" stroke-linecap="round" stroke-linejoin="round"><use xlink:href="#A" x=".5" y=".5"/><symbol id="A" overflow="visible"><g stroke="#fff" stroke-linejoin="miter" fill="#046897" stroke-width=".787"><path d="M0 55.87V5.902h29.115V55.87H0z"/><path d="M8.656 0L0 5.902h29.115L36.591 0H8.656zm27.935 46.82V0l-7.475 6.295V55.87l7.476-9.049z"/></g><g stroke="none"><path d="M14.951 6.689l-13.771 24h27.935l-14.164-24z"/><path d="M14.951 54.689l-13.771-24h27.935l-14.164 24z"/><g fill="#046897"><path d="M13.373 35.811l3.148-3.148c-3.148 0-4.721.393-7.082.393-.787 3.541-1.574 5.902-2.754 8.262l3.541-2.754c2.361 1.967 5.115 2.754 7.475 1.574 0 0 .393 0 .393-.393l3.934-3.541c-2.361 2.361-6.295 2.361-8.656-.393zm-3.148-5.116c-.787-3.148-.394-6.689 1.574-9.443l1.18-1.18-3.934 3.541-1.18 1.18c-1.967 2.754-2.361 6.295-1.574 9.443z"/><path d="M18.094 20.073c-1.574-.787-3.148-.787-4.721-.393l-.393.393-3.934 3.541c1.574-1.574 3.935-1.967 6.295-.787l-2.361 1.574h6.688l1.18-6.689zm5.115 2.36c2.754 5.115 1.574 10.23 0 12.59l-1.18 1.18-3.934 3.541c.393 0 .787-.393 1.18-1.18 3.148-4.721 1.18-9.443 0-12.59z"/></g></g></symbol></svg>