<svg xmlns="http://www.w3.org/2000/svg" xmlns:xlink="http://www.w3.org/1999/xlink" viewBox="0 0 53 29" fill="#fff" fill-rule="evenodd" stroke="#000" stroke-linecap="round" stroke-linejoin="round"><style><![CDATA[.B{stroke:#fff}.C{stroke-linejoin:miter}.D{stroke-width:.787}.E{stroke:none}.F{stroke-linecap:square}]]></style><use xlink:href="#A" x=".5" y=".5"/><symbol id="A" overflow="visible"><g fill="#0c719f" class="B C D"><path d="M51.525 24.779V0l-2.36 1.967v25.173l2.36-2.36z"/><path d="M49.165 27.14V1.967H0V27.14h49.165z"/><path d="M51.525 0H2.753L0 1.967h49.165L51.525 0z"/></g><path d="M51.525 0l-2.36 1.967z" fill="#000" class="E"/><path d="M51.525 0l-2.36 1.967M28.708 6.693l2.753-2.36c9.046 10.62 1.967 18.879 1.967 18.879h12.193M9.439 6.293l-2.753-2.36.787 19.273h-5.9" fill="none" class="B C D F"/><use xlink:href="#C" fill="#0c719f" class="E"/><use xlink:href="#C" fill="none" class="B C D"/><path d="M45.625 7.473H33.432z" fill="#000" class="E"/><path d="M45.625 7.473H33.432" fill="none" class="B C D F"/><path d="M7.473 7.473h-5.9z" fill="#000" class="E"/><path d="M7.473 7.473h-5.9" fill="none" class="B C D F"/></symbol><defs ><path id="C" d="M9.435 9.053c0-2.36 2.36-2.753 2.36-2.753h15.733c3.147 0 2.753 3.147 2.753 3.147v12.193c0 1.967-2.36 2.753-2.36 2.753H12.188c-1.967 0-2.753-2.36-2.753-2.36z"/></defs></svg>