<svg xmlns="http://www.w3.org/2000/svg" xmlns:xlink="http://www.w3.org/1999/xlink" viewBox="0 0 59 60" fill="#fff" fill-rule="evenodd" stroke="#000" stroke-linecap="round" stroke-linejoin="round"><use xlink:href="#A" x=".5" y=".5"/><symbol id="A" overflow="visible"><use xlink:href="#C" stroke="none" fill="#046897"/><use xlink:href="#C" stroke="#fff" stroke-linejoin="miter" fill="none" stroke-width=".788"/><g stroke="none"><path d="M0 11.425C0 17.728 13.001 22.85 29.153 22.85c15.758 0 28.759-5.121 28.759-11.425v35.85c0 6.303-13 11.425-28.759 11.425C13.001 58.7 0 53.578 0 47.275z"/><use xlink:href="#D" fill="#046897"/></g><use xlink:href="#D" stroke="#fff" stroke-linejoin="miter" fill="none" stroke-width=".788"/><path d="M22.854 6.691l2.364 3.546-9.061 1.97 1.97-1.576L3.944 8.266 7.49 5.509l13.789 2.364 1.576-1.182zm12.607 8.667l-1.576-3.546 8.273-1.97-1.576 1.576 13.789 2.364-3.546 2.364-13.395-2.364-1.97 1.576zM31.127 4.721l9.061-2.364v3.94l-1.97-.788-4.727 3.94-4.334-.788 4.727-3.546-2.758-.394zm-3.94 14.183l-8.667 1.576-.394-3.94 2.364.394 4.728-3.939 4.333.394-5.121 4.728 2.758.788z" stroke="none"/><g stroke-linejoin="miter"><path d="M33.885 44.117H23.248V33.086h10.637v11.031zM15.763 25.601v4.334H7.884v-4.334h7.879zm0 11.031v4.727H7.884v-4.727h7.879zm0 10.637v4.334H7.884v-4.334h7.879zm16.94 0v4.334H24.43v-4.334h8.273zm17.334-21.668v4.334h-8.273v-4.334h8.273zm-17.334 0v4.334H24.43v-4.334h8.273zm17.334 11.031v4.727h-8.273v-4.727h8.273zm0 10.637v4.334h-8.273v-4.334h8.273z" stroke-width=".788"/><g stroke="#fff" fill="none" stroke-linecap="square" stroke-width="1.182"><path d="M12.217 38.601h33.88"/><path d="M28.764 28.359v21.274"/><path d="M13.399 49.633l31.517-21.668"/><path d="M44.128 49.633L13.005 27.965"/></g></g></symbol><defs ><path id="C" d="M29.153 22.849c15.758 0 28.759-5.121 28.759-11.425S44.911 0 29.153 0C13.001 0 0 5.121 0 11.425s13.001 11.425 29.153 11.425z"/><path id="D" d="M57.911 11.425c0 6.303-13 11.425-28.759 11.425C13.001 22.85 0 17.728 0 11.425v35.85C0 53.578 13.001 58.7 29.153 58.7c15.758 0 28.759-5.121 28.759-11.425z"/></defs></svg>