<svg xmlns="http://www.w3.org/2000/svg" xmlns:xlink="http://www.w3.org/1999/xlink" viewBox="0 0 77 38" fill="#fff" fill-rule="evenodd" stroke="#000" stroke-linecap="round" stroke-linejoin="round"><use xlink:href="#A" x=".5" y=".5"/><symbol id="A" overflow="visible"><g stroke="#fff" stroke-linejoin="miter" fill="#046897" stroke-width=".788"><path d="M0 18.114L22.839 0h52.373L56.31 18.114H0z"/><path d="M56.31 36.622l18.902-20.476V0L56.31 18.114v18.508z"/><path d="M56.31 36.622V18.114H0v18.508h56.31z"/></g><use xlink:href="#C" stroke="none" fill="#046897"/><use xlink:href="#C" stroke="#fff" stroke-linejoin="miter" fill="none" stroke-width=".788"/><use xlink:href="#D" stroke="none" fill="#046897"/><use xlink:href="#D" stroke="#fff" stroke-linejoin="miter" fill="none" stroke-width=".788"/></symbol><defs ><path id="C" d="M48.036 2.763c-12.995-.394-27.958 1.969-33.471 5.907-5.119 3.938 1.181 7.482 14.176 7.875s28.352-1.969 33.471-5.907c5.513-3.938-.788-7.482-14.176-7.875z"/><path id="D" d="M45.674 5.519c-10.632-.394-22.839 1.181-26.777 3.544-4.332 2.363 1.181 4.332 12.207 4.725 10.632.394 22.839-1.181 26.777-3.544 4.331-2.363-1.181-4.331-12.207-4.725z"/></defs></svg>