<svg xmlns="http://www.w3.org/2000/svg" xmlns:xlink="http://www.w3.org/1999/xlink" viewBox="0 0 70 46" fill="#fff" fill-rule="evenodd" stroke="#000" stroke-linecap="round" stroke-linejoin="round"><use xlink:href="#A" x=".5" y=".5"/><symbol id="A" overflow="visible"><path d="M.394 15.747v28.345H52.36V15.747z" stroke="none" fill="#046897"/><path d="M.394 15.747v28.345H52.36V15.747" stroke="#fff" stroke-linejoin="miter" stroke-linecap="square" fill="none" stroke-width=".787"/><g stroke="none"><path d="M33.065 27.958c0 1.181-2.756 1.968-5.905 1.968s-5.905-.787-5.905-1.968v7.48c0 1.181 2.756 1.968 5.905 1.968s5.905-.787 5.905-1.968z"/><use xlink:href="#C" fill="#046897"/></g><use xlink:href="#C" stroke="#fff" stroke-linejoin="miter" fill="none" stroke-width="1.181"/><use xlink:href="#C" y="8.268" stroke="none"/><g stroke="#fff" stroke-linejoin="miter"><use xlink:href="#C" y="8.268" fill="none" stroke-width="1.181"/><path d="M0 15.747L19.291 0h49.211L52.36 15.747H0zm52.36.394v28.345l16.141-16.929V.394L52.36 16.141z" fill="#046897" stroke-width=".787"/></g><path d="M45.667 31.101h-9.448v-1.575h9.448v-2.362l5.512 3.149-5.512 3.15v-2.362zm-1.575-7.874l-8.267 5.512-.787-1.575 8.267-5.118-1.575-1.968 6.299-.394-2.756 5.905-1.181-2.362zm0 13.779l-8.267-5.118-.787 1.181 8.267 5.512-1.575 1.968 6.299.394-2.756-5.905-1.181 1.968zM7.48 31.101h9.448v-1.575H7.48v-2.362l-5.512 3.149 5.512 3.15v-2.362zm20.078-12.204v-3.149h-1.575v3.149h-2.362l3.149 5.905 3.149-5.905h-2.362zM9.054 23.227l7.874 5.512 1.181-1.575-8.267-5.118 1.181-1.968-6.299-.394 3.15 5.905 1.181-2.362zm0 13.779l7.874-5.118 1.181 1.181-8.267 5.512 1.181 1.968-6.299.394 3.15-5.905 1.181 1.968z" stroke="none"/></symbol><defs ><path id="C" d="M27.159 29.926c3.149 0 5.905-.787 5.905-1.968 0-.787-2.756-1.575-5.905-1.575s-5.905.787-5.905 1.575c0 1.181 2.756 1.968 5.905 1.968z"/></defs></svg>