<svg xmlns="http://www.w3.org/2000/svg" xmlns:xlink="http://www.w3.org/1999/xlink" viewBox="0 0 25 44" fill="#fff" fill-rule="evenodd" stroke="#000" stroke-linecap="round" stroke-linejoin="round"><style><![CDATA[.B{stroke:none}.C{stroke:#fff}.D{stroke-linejoin:miter}.E{fill:none}.F{stroke-width:.394}.G{fill:#000}.H{stroke-linecap:square}.I{fill:#0c719f}]]></style><use xlink:href="#A" x=".5" y=".5"/><symbol id="A" overflow="visible"><g class="B"><g class="I"><use xlink:href="#C"/><use xlink:href="#D"/><use xlink:href="#E"/><use xlink:href="#F"/><use xlink:href="#G"/><use xlink:href="#H"/><use xlink:href="#I"/><use xlink:href="#J"/><use xlink:href="#K"/><use xlink:href="#L"/><use xlink:href="#M"/><use xlink:href="#N"/><use xlink:href="#O"/><use xlink:href="#P"/><use xlink:href="#Q"/><use xlink:href="#R"/><use xlink:href="#S"/><use xlink:href="#T"/><use xlink:href="#U"/><use xlink:href="#C"/></g><use xlink:href="#D" class="G"/></g><use xlink:href="#D" class="C D E F H"/><use xlink:href="#E" class="B I"/><use xlink:href="#E" class="C D E F"/><use xlink:href="#F" class="B G"/><use xlink:href="#F" class="C D E F"/><use xlink:href="#G" class="B G"/><use xlink:href="#G" class="C D E F"/><use xlink:href="#H" class="B G"/><use xlink:href="#H" class="C D E F"/><use xlink:href="#I" class="B G"/><use xlink:href="#I" class="C D E F"/><use xlink:href="#J" class="B G"/><use xlink:href="#J" class="C D E F"/><use xlink:href="#K" class="B G"/><use xlink:href="#K" class="C D E F"/><use xlink:href="#L" class="B G"/><use xlink:href="#L" class="C D E F"/><use xlink:href="#M" class="B G"/><use xlink:href="#M" class="C D E F"/><use xlink:href="#N" class="B G"/><use xlink:href="#N" class="C D E F"/><use xlink:href="#O" class="B G"/><use xlink:href="#O" class="C D E F"/><use xlink:href="#P" class="B G"/><use xlink:href="#P" class="C D E F"/><use xlink:href="#Q" class="B G"/><use xlink:href="#Q" class="C D E F H"/><g class="B I"><use xlink:href="#R"/><use xlink:href="#S"/></g><use xlink:href="#S" class="C D E F"/><use xlink:href="#T" class="B G"/><use xlink:href="#T" class="C D E F"/><path d="M15.002 8.265l.788-3.545z" class="B G"/><path d="M15.002 8.265l.788-3.545" class="C D E F H"/><path d="M15.396 8.265l.788-3.151z" class="B G"/><g class="C D E F"><path d="M15.396 8.265l.788-3.151" class="H"/><use xlink:href="#C"/><use xlink:href="#D" class="H"/><use xlink:href="#E"/><use xlink:href="#F"/><use xlink:href="#G"/><use xlink:href="#H"/><use xlink:href="#I"/><use xlink:href="#J"/><use xlink:href="#K"/><use xlink:href="#L"/><use xlink:href="#M"/><use xlink:href="#N"/><use xlink:href="#O"/><use xlink:href="#P"/><g class="H"><use xlink:href="#Q"/><use xlink:href="#R"/></g><use xlink:href="#S"/><use xlink:href="#T"/><use xlink:href="#V" class="H"/></g><g class="B"><g class="I"><use xlink:href="#C"/><use xlink:href="#D"/><use xlink:href="#E"/><use xlink:href="#F"/><use xlink:href="#G"/><use xlink:href="#H"/><use xlink:href="#I"/><use xlink:href="#J"/><use xlink:href="#K"/><use xlink:href="#L"/><use xlink:href="#M"/><use xlink:href="#N"/><use xlink:href="#O"/><use xlink:href="#P"/><use xlink:href="#Q"/><use xlink:href="#R"/><use xlink:href="#S"/><use xlink:href="#T"/><use xlink:href="#U"/><use xlink:href="#C"/></g><use xlink:href="#D" class="G"/></g><use xlink:href="#D" class="C D E F H"/><use xlink:href="#E" class="B I"/><use xlink:href="#E" class="C D E F"/><use xlink:href="#F" class="B G"/><use xlink:href="#F" class="C D E F"/><use xlink:href="#G" class="B G"/><use xlink:href="#G" class="C D E F"/><use xlink:href="#H" class="B G"/><use xlink:href="#H" class="C D E F"/><use xlink:href="#I" class="B G"/><use xlink:href="#I" class="C D E F"/><use xlink:href="#J" class="B G"/><use xlink:href="#J" class="C D E F"/><use xlink:href="#K" class="B G"/><use xlink:href="#K" class="C D E F"/><use xlink:href="#L" class="B G"/><use xlink:href="#L" class="C D E F"/><use xlink:href="#M" class="B G"/><use xlink:href="#M" class="C D E F"/><use xlink:href="#N" class="B G"/><use xlink:href="#N" class="C D E F"/><use xlink:href="#O" class="B G"/><use xlink:href="#O" class="C D E F"/><use xlink:href="#P" class="B G"/><use xlink:href="#P" class="C D E F"/><use xlink:href="#Q" class="B G"/><use xlink:href="#Q" class="C D E F H"/><g class="B I"><use xlink:href="#R"/><use xlink:href="#S"/></g><use xlink:href="#S" class="C D E F"/><use xlink:href="#T" class="B G"/><use xlink:href="#T" class="C D E F"/><path d="M15.002 8.265l.788-3.545z" class="B G"/><path d="M15.002 8.265l.788-3.545" class="C D E F H"/><path d="M15.396 8.265l.788-3.151z" class="B G"/><g class="C D E F"><path d="M15.396 8.265l.788-3.151" class="H"/><use xlink:href="#C"/><use xlink:href="#D" class="H"/><use xlink:href="#E"/><use xlink:href="#F"/><use xlink:href="#G"/><use xlink:href="#H"/><use xlink:href="#I"/><use xlink:href="#J"/><use xlink:href="#K"/><use xlink:href="#L"/><use xlink:href="#M"/><use xlink:href="#N"/><use xlink:href="#O"/><use xlink:href="#P"/><g class="H"><use xlink:href="#Q"/><use xlink:href="#R"/></g><use xlink:href="#S"/><use xlink:href="#T"/><use xlink:href="#V" class="H"/></g></symbol><defs ><path id="C" d="M21.693 18.117c.394-1.182 1.969-7.877 1.969-8.665.394-1.181 0-2.363-.788-2.363l.394-.394-.394-.394s.394-1.575.394-2.363c.394-1.969.394-3.151.394-3.151s0-.394-.394-.394L22.086 0s-.394 0-.394.394c0 0-.394.788-1.182 2.757-.394.788-.394 2.363-.394 2.363-.788-.394-1.575-.394-2.363-.788l-5.12-1.181s-.394 0-.394.394c-.394 0-1.575.788-1.969 1.575s-2.363 7.483-2.757 8.665l-1.575 6.695c0 1.575-.394 4.332-1.575 8.271L2 36.627c0 .394-1.182 2.363.394 2.757l5.514 1.969c1.181 0 3.544.788 5.12 1.182 1.969 0 1.969-1.969 1.969-2.363l1.969-7.483c.788-3.938 2.363-6.695 2.757-8.271.788-1.575 1.575-4.726 1.969-6.301z"/><path id="D" d="M22.087.788h-1.181c-.394-.394-.788-.394-.788-.394"/><path id="E" d="M20.118 18.511c.394-1.181 1.969-7.877 1.969-9.058 0-.788-.394-1.969-.788-2.363v-.394h-.394l.788-2.757c.394-1.969.394-2.757.394-2.757 0-.394-.394-.788-.394-.788L20.511 0c-.394 0-.394.394-.788.394l-.788 2.757-.788 2.363c-.788-.394-1.182-.394-1.969-.788-1.969-.394-3.545-.788-5.514-.788l-.394.394c-.394 0-1.181.788-1.575 1.575s-2.757 7.089-3.151 8.665c-.394 1.181-.788 4.726-1.181 6.301s-.788 4.726-1.575 8.665L.425 36.627c0 .394-1.181 2.363.394 3.151 1.575.394 3.938 1.181 5.12 1.575s3.545.788 5.514 1.182c1.575.394 1.575-1.969 1.575-2.363l1.969-7.089c1.181-3.938 2.363-6.695 3.151-8.271.394-1.575 1.575-5.12 1.969-6.302z"/><path id="F" d="M7.515 27.963c-.394.394-.788.788-1.575.788-.788-.394-1.181-.788-.788-1.575 0-.788.788-1.181 1.575-.788.394 0 .788.788.788 1.575z"/><path id="G" d="M10.666 29.144c0 .788-.788 1.181-1.575.788-.788 0-1.181-.788-.788-1.575 0-.394.788-.788 1.575-.788.788.394 1.181.788.788 1.575z"/><path id="H" d="M14.21 29.538c0 .788-.788 1.182-1.575 1.182-.788-.394-1.182-1.182-.788-1.575 0-.788.788-1.181 1.575-1.181.394.394.788 1.181.788 1.575z"/><path id="I" d="M6.727 30.72c-.394.788-.788 1.181-1.575.788-.788 0-1.181-.788-.788-1.575 0-.788.788-1.181 1.575-.788.394 0 .788.788.788 1.575z"/><path id="J" d="M9.878 31.901c0 .788-.788 1.182-1.575 1.182-.788-.394-1.182-1.182-.788-1.575 0-.788.788-1.181 1.575-1.181.788.394 1.181 1.181.788 1.575z"/><path id="K" d="M13.423 32.689c0 .394-.788.788-1.575.788-.788-.394-1.181-.788-.788-1.575 0-.788.788-1.181 1.575-.788.394 0 .788.788.788 1.575z"/><path id="L" d="M5.94 33.477c-.394.788-.788 1.182-1.575.788-.788 0-1.182-.788-.788-1.575 0-.394.788-1.181 1.575-.788.394 0 .788.788.788 1.575z"/><path id="M" d="M9.09 34.658c0 .788-.788 1.181-1.575 1.181-.788-.394-1.181-1.181-.788-1.575 0-.788.788-1.181 1.575-1.181.788.394 1.181 1.181.788 1.575z"/><path id="N" d="M12.635 35.446c0 .394-.788.788-1.575.788s-1.182-.788-.788-1.575c0-.788.788-1.181 1.575-.788.394 0 1.181.788.788 1.575z"/><path id="O" d="M5.152 36.233c-.394.788-.788 1.181-1.575.788-.788 0-1.182-.788-.788-1.575 0-.394.788-.788 1.575-.788.394.394.788.788.788 1.575zm3.151 1.575c0 .394-.788.788-1.575.788-.788-.394-1.182-.788-.788-1.575 0-.788.788-1.182 1.575-.788.788 0 1.181.788.788 1.575z"/><path id="P" d="M11.847 38.203c0 .788-.788 1.181-1.575.788-.788 0-1.181-.788-.788-1.575 0-.788.788-1.181 1.575-.788.788 0 1.181.788.788 1.575z"/><path id="Q" d="M6.727 39.385c0 .394 0 .394-.394.394v-.394h.394zm-.394 0l-.394 1.575m.394-1.182l-.394 1.182m.788-1.575l-.394 1.575m.394-1.182l-.394 1.182M9.09 18.117v1.181m.394-.788l-.394.788m5.908.788v.788m0-1.181l-.394 1.181"/><path id="R" d="M20.905 6.695l.788-2.757c.394-1.969.394-2.757.394-2.757 0-.394-.394-.788-.394-.788L20.511 0c-.394 0-.394.394-.788.394l-.788 2.757-.788 2.363m-.394 14.572c0 .394-.394.394-.788.394L7.12 17.723l-.394-.394 1.969-6.302c0-.394.394-.394.394-.394l9.846 2.757c.394 0 .394.394.394.394zm3.545-14.178c-1.182-.394-1.969-.394-3.151-.788m-7.089-1.182S8.696 8.665 7.12 13.391c-1.575 5.908-1.575 7.877-1.575 10.634 0 .394.788 1.181 1.181 1.575h.788s.394 0 .788.394.788.394.788.394c.394.394.394.394.788.394.788.394.788.394 1.182.394 0 0 .394 0 .788-.394.394 0 .788.394 1.181.394h.394c.788.394 1.575 0 1.969-.394 1.575-2.363 2.363-3.939 3.938-9.846 1.182-5.12 1.575-10.24 1.575-10.24M9.483 6.302c1.969 0 3.938.788 5.908 1.181s3.938 1.182 5.514 1.969"/><path id="S" d="M13.816 24.024c-.394 1.575-1.969 2.363-3.545 1.969s-2.363-1.969-1.969-3.544 1.969-2.363 3.545-1.969 2.363 1.969 1.969 3.545zm-5.514-4.726c.394 0 .788.394 1.181.394v.394c-.394 0-.394 0-.788.394h-.394c-.394-.394-1.182-.788-1.182-1.182-.394 0 0 0 0 0 .394-.394.788 0 1.182 0zm-1.969 3.151c.394 0 .788.394 1.181.394 0 0 .394.394 0 .394 0 .394 0 1.181.394 1.575v.394c-.394 0-.788-.394-1.182-.394l-.394-.394v-1.969z"/><path id="T" d="M15.391 21.268c-.394-.394-.788-.394-1.181-.394v1.181h2.363v-.394c-.394 0-.788-.394-1.182-.394zm0 3.545h-.788c-.394 0-.788 0-.788.394 0 0-.394.788-.788.788-.394.394-.394.394 0 .394l.788.394c.394 0 .394 0 .788-.394.394 0 .788-.788.788-1.181v-.394z"/><path id="U" d="M15.002 8.265l.788-3.545zm.394 0l.788-3.151z"/><path id="V" d="M15.002 8.265l.788-3.545m-.394 3.545l.788-3.151"/></defs></svg>