<svg xmlns="http://www.w3.org/2000/svg" xmlns:xlink="http://www.w3.org/1999/xlink" viewBox="0 0 33 48" fill="#fff" fill-rule="evenodd" stroke="#000" stroke-linecap="round" stroke-linejoin="round"><style><![CDATA[.B{stroke:none}.C{fill:#046897}.D{stroke:#fff}.E{stroke-linejoin:miter}.F{stroke-width:.787}.G{stroke-linecap:square}]]></style><use xlink:href="#A" x=".5" y=".5"/><symbol id="A" overflow="visible"><path d="M23.995 7.867H0v38.549h23.995z" class="B C"/><g class="D E F"><path d="M23.995 7.867H0v38.549h23.995" fill="none" class="G"/><path d="M23.995 46.416l7.867-7.867V0H7.474L0 7.867h23.995v38.549z" class="C"/></g><path d="M23.995 7.867L31.862 0z" class="B C"/><path d="M23.995 7.867L31.862 0" fill="none" class="D E F G"/><path d="M.393 18.881h23.601z" class="B C"/><path d="M.393 18.881h23.601M5.9 13.767h6.687m2.753 2.36v-4.72H3.146v4.72H15.34z" fill="none" class="D E F G"/><path d="M4.72 36.976v-9.44l9.047 4.72-9.047 4.72zm12.981-.393v-8.654h-2.754v8.654h2.754z" class="B"/><path d="M11.403 42.096c5.507 0 10.227-4.327 10.227-9.834s-4.72-9.834-10.227-9.834-9.834 4.327-9.834 9.834 4.327 9.834 9.834 9.834z" fill="none" stroke-width="1.18" class="D E"/></symbol></svg>