<svg xmlns="http://www.w3.org/2000/svg" xmlns:xlink="http://www.w3.org/1999/xlink" viewBox="0 0 61 52" fill="#fff" fill-rule="evenodd" stroke="#000" stroke-linecap="round" stroke-linejoin="round"><style><![CDATA[.B{stroke:none}.C{stroke-linejoin:miter}.D{stroke-width:.787}.E{fill:#046897}.F{stroke-width:.394}.G{stroke-linecap:square}]]></style><use xlink:href="#A" x=".5" y=".5"/><symbol id="A" overflow="visible"><g stroke="#fff" class="C D"><path d="M48.789 28.722l-4.721 5.902H6.689l5.902-5.902h36.198z" fill="#000"/><g class="E"><path d="M6.689 41.706v-7.082h35.805v7.082H6.689zM6.295 6.295h36.198v27.149H6.295V6.295z"/><path d="M42.493 33.444l5.902-6.295V0l-5.902 6.295v27.149zm13.377 14.164l2.754-5.508h-6.295l-2.754 5.508h6.295z"/><path d="M49.576 47.608h6.295v1.574h-6.295v-1.574z"/><path d="M55.871 49.182v-1.574l2.754-5.508v3.541l-2.754 3.541zm-13.377-7.476v-6.689l6.295-6.295v6.689l-6.295 6.295z"/></g></g><use xlink:href="#C" class="B E"/><g stroke="#fff" class="C D"><use xlink:href="#C" fill="none"/><g class="E"><path d="M48.395 0H13.377L6.295 6.295h36.198L48.395 0zm-7.082 50.363v-2.361l4.721-6.295v3.935l-4.721 4.721z"/><path d="M41.313 48.002H0l4.722-6.295h41.313l-4.721 6.295z"/><path d="M41.313 48.002v2.361H0v-2.361h41.313z"/></g></g><path d="M57.046 42.106c4.721-2.361.787-12.197-8.656-7.476" stroke="#046897" fill="none" class="C D G"/><path d="M23.603 18.499h1.18l.393.393h1.18l1.18-1.18h1.18l.787 1.18h1.18l1.18-1.18h1.18l.787 1.18h1.18l.393-.787 3.148 1.967-2.361 1.574h-12.59v.393h-1.967c-.393 0-.787.393-1.18.787-.787 1.574-2.361 2.361-4.328 2.361-3.148 0-5.508-2.361-5.508-5.115 0-3.148 2.361-5.508 5.508-5.508 1.967 0 3.541 1.18 4.328 2.754.393.393.787.393 1.18.393h1.967v.787" class="B"/><path d="M37.373 20.86H23.602c-.394 0-1.18 0-1.967.393.787.393 1.574.393 1.967.393m14.165-1.967H24.39c-.787 0-1.967 0-2.361-.393" fill="none" class="F G"/><use xlink:href="#D" class="B"/><use xlink:href="#D" fill="none" class="F"/><use xlink:href="#E" class="B"/><use xlink:href="#E" fill="none" class="F"/></symbol><defs ><path id="C" d="M12.192 9.45h24.001c1.574 0 3.148 1.18 3.148 2.754v14.951c0 1.574-1.574 3.148-3.148 3.148H12.192c-1.574 0-2.754-1.574-2.754-3.148V12.204c0-1.574 1.18-2.754 2.754-2.754z"/><path id="D" d="M16.128 24.794c2.361 0 4.721-1.967 4.721-4.721s-2.361-4.721-4.721-4.721c-2.754 0-4.722 1.967-4.722 4.721s1.967 4.721 4.722 4.721z"/><path id="E" d="M13.373 21.253c.787 0 1.18-.393 1.18-1.18s-.393-1.18-1.18-1.18-1.18.393-1.18 1.18.393 1.18 1.18 1.18z"/></defs></svg>