<svg xmlns="http://www.w3.org/2000/svg" xmlns:xlink="http://www.w3.org/1999/xlink" viewBox="0 0 50 45" fill="#fff" fill-rule="evenodd" stroke="#000" stroke-linecap="round" stroke-linejoin="round"><use xlink:href="#A" x=".5" y=".5"/><symbol id="A" overflow="visible"><g fill="#046897"><path d="M0 43.342V5.124h43.34v38.218H0zM4.728 0L0 5.122h43.34L48.461 0H4.727zm43.734 38.218V0l-5.122 5.122V43.34l5.122-5.122zm-8.669-29.55H3.941v31.519h35.854V8.668z" stroke="#fff" stroke-linejoin="miter" stroke-width=".788"/><use xlink:href="#C" stroke="none"/></g><use xlink:href="#C" stroke="#fff" stroke-linejoin="miter" fill="none" stroke-width=".788"/><use xlink:href="#D" stroke="none" fill="#046897"/><use xlink:href="#D" stroke="#fff" stroke-linejoin="miter" fill="none" stroke-width=".788"/><path d="M18.518 17.73L19.7 19.7l-4.728 1.182.788-.788-7.486-1.182 1.97-1.576 7.092 1.182 1.182-.788zm6.698 4.728l-.788-1.97 4.334-.788-.788.788 7.486 1.182-1.576 1.576-7.486-1.576-1.182.788zm-2.364-5.516l5.122-1.576v2.364l-1.182-.394-2.364 1.97-2.364-.394 2.364-1.97h-1.576zm-1.97 7.486l-4.728.788-.394-1.97h1.576l2.364-1.97 2.364.394-2.758 2.364 1.576.394z" stroke="none"/></symbol><defs ><path id="C" d="M37.819 20.101c0 3.546-7.092 6.304-15.76 6.304s-15.76-2.758-15.76-6.304v9.062c0 3.546 7.092 6.304 15.76 6.304s15.76-2.758 15.76-6.304z"/><path id="D" d="M22.059 26.405c8.668 0 15.76-2.758 15.76-6.304 0-3.152-7.092-5.91-15.76-5.91s-15.76 2.758-15.76 5.91c0 3.546 7.092 6.304 15.76 6.304z"/></defs></svg>