<svg xmlns="http://www.w3.org/2000/svg" xmlns:xlink="http://www.w3.org/1999/xlink" viewBox="0 0 40 36" fill="#fff" fill-rule="evenodd" stroke="#000" stroke-linecap="round" stroke-linejoin="round"><use xlink:href="#A" x=".5" y=".5"/><symbol id="A" overflow="visible"><path d="M25.178 10.228l9.048 17.31z" stroke="none" fill="#595959"/><g fill="#046897"><path d="M29.898 0H13.769L9.048 3.147h16.129L29.898 0z" stroke="#fff" stroke-linejoin="miter" stroke-width=".787"/><path d="M34.226 27.538v7.081l4.721-2.754v-7.081L29.899 7.081V0l-4.721 3.147v7.081z" stroke="none"/></g><g stroke="#fff" stroke-linejoin="miter" stroke-width=".787"><path d="M34.226 27.538v7.081l4.721-2.754v-7.081L29.899 7.081V0l-4.721 3.147v7.081" stroke-linecap="square" fill="none"/><path d="M34.226 27.538l-9.048-17.309V3.147H9.048v7.081L0 27.538v7.081h34.226v-7.081z" fill="#046897"/></g><path d="M16.916 18.884h.787v6.688h4.721l-5.114 6.294-5.114-6.294h4.721v-6.688zm.787-.393h-.787v-6.688h-4.721l5.114-6.294 5.114 6.294h-4.721v6.688z" stroke="none"/></symbol></svg>