<svg xmlns="http://www.w3.org/2000/svg" xmlns:xlink="http://www.w3.org/1999/xlink" viewBox="0 0 59 53" fill="#fff" fill-rule="evenodd" stroke="#000" stroke-linecap="round" stroke-linejoin="round"><style><![CDATA[.B{fill:#046897}.C{stroke:#fff}.D{stroke-linejoin:miter}.E{stroke-width:.787}.F{stroke:none}.G{fill:none}.H{stroke-linecap:square}]]></style><use xlink:href="#A" x=".5" y=".5"/><symbol id="A" overflow="visible"><g class="B"><path d="M49.573 44.459v-9.443H0v9.443h49.573z" class="C D E"/><path d="M34.229 40.131h12.59z" class="F"/></g><path d="M34.229 40.131h12.59" class="C D E G H"/><path d="M34.229 39.737h12.59z" class="B F"/><g class="C D E"><path d="M34.229 39.737h12.59" class="G H"/><g class="B"><path d="M57.835 35.409v-8.262l-8.262 7.869v9.443l8.262-9.049zM40.524 51.933v-1.967l4.721-6.295v3.934l-4.721 4.328z"/><path d="M40.524 49.966v1.967H.787v-1.967h39.737z"/><path d="M40.524 49.966H1.18l4.328-6.295h39.737l-4.721 6.295zm17.311-22.819H8.262L0 35.016h49.573l8.262-7.869z"/><path d="M48.393 27.147H15.344l-5.508 5.508h33.049l5.508-5.508z"/><path d="M42.885 30.295V5.508H8.656v24.787h34.229z"/></g></g><use xlink:href="#C" class="B F"/><g class="C D E"><use xlink:href="#C" class="G"/><g class="B"><path d="M48.787 0H14.558L8.656 5.508h34.229L48.787 0z"/><path d="M48.787 25.18V0l-5.901 5.508v24.787l5.901-5.115z"/></g></g><path d="M31.082 12.197v11.41z" class="B F"/><path d="M31.082 12.197v11.41" class="C D E G H"/><path d="M20.065 23.606V10.623z" class="B F"/><path d="M20.065 23.606V10.623" class="C D E G H"/><use xlink:href="#D" class="B F"/><use xlink:href="#D" class="C D E G"/><path d="M22.819 16.918h5.902z" class="B F"/><path d="M22.819 16.918h5.901" class="C D E G H"/><path d="M22.819 18.098h5.902z" class="B F"/><path d="M22.819 18.098h5.901" class="C D E G H"/><path d="M22.819 20.065h5.902z" class="B F"/><path d="M22.819 20.065h5.901" class="C D E G H"/><path d="M22.819 21.246h5.902z" class="B F"/><path d="M22.819 21.246h5.901" class="C D E G H"/><use xlink:href="#E" class="B F"/><use xlink:href="#E" class="C D E G H"/><use xlink:href="#F" class="B F"/><use xlink:href="#F" class="C D E G H"/><path d="M22.819 13.77h5.902z" class="B F"/><path d="M22.819 13.77h5.901" class="C D E G H"/><path d="M22.819 12.59h5.902z" class="B F"/><path d="M22.819 12.59h5.901" class="C D E G H"/><path d="M20.459 23.607V11.41z" class="B F"/><path d="M20.459 23.607V11.41" class="C D E G H"/></symbol><defs ><path id="C" d="M11.799 11.023c0-2.754 2.361-3.148 2.361-3.148h22.426c3.541 0 3.148 3.148 3.148 3.148v14.164c0 1.574-2.361 2.361-2.361 2.361H14.553c-1.967 0-2.754-2.361-2.754-2.361z"/><path id="D" d="M20.061 23.613c2.361 5.508 4.328-.787 4.328-.787h10.623c-1.18 2.754-2.754 3.148-2.754 3.148h-9.442c-1.967-.393-2.754-2.361-2.754-2.361z"/><path id="E" d="M31.076 11.81l-.787-1.967H20.06s-1.574 0-1.967 2.754v2.361h1.967V11.81"/><path id="F" d="M20.061 9.843s-1.967 0-2.361 2.754v2.361"/></defs></svg>