<svg xmlns="http://www.w3.org/2000/svg" xmlns:xlink="http://www.w3.org/1999/xlink" viewBox="0 0 68 49" fill="#fff" fill-rule="evenodd" stroke="#000" stroke-linecap="round" stroke-linejoin="round"><style><![CDATA[.B{stroke:#fff}.C{stroke-linejoin:miter}.D{fill:#046897}.E{stroke-width:.787}]]></style><use xlink:href="#A" x=".5" y=".5"/><symbol id="A" overflow="visible"><g class="B C D E"><path d="M0 47.604h60.194V8.262H0v39.342z"/><path d="M66.882 37.375l-6.688 10.229V8.262L66.882 0v37.375z"/><path d="M10.229 0h56.653l-6.688 8.262H0L10.229 0z"/></g><g stroke="none"><path d="M8.656 18.491H3.541v-1.574h5.115v-2.36l5.901 3.147-5.901 3.541v-2.754zm0 10.229H3.541v-1.967h5.115v-2.36l5.901 3.541-5.901 3.147V28.72zm0 9.835H3.541v-1.574h5.115v-2.754l5.901 3.541-5.901 3.147v-2.361zm40.916-11.409h7.082v1.574h-7.082v2.754l-5.901-3.541 5.901-3.147v2.361z"/><path d="M53.505 28.72h-6.688v-1.574h6.688v-2.754l5.901 3.541-5.901 3.147v-2.36z"/><use xlink:href="#C" class="D"/></g><use xlink:href="#C" fill="none" class="B C E"/><use xlink:href="#D" stroke="none" class="D"/><use xlink:href="#D" fill="none" class="B C E"/><use xlink:href="#E" stroke="none" class="D"/><use xlink:href="#E" fill="none" class="B C E"/></symbol><defs ><path id="C" d="M20.06 31.48h22.031V18.89c0-.787-1.574-.787-1.574-.787H29.502v-2.36h-7.475v1.967H20.06z"/><path id="D" d="M18.486 33.447h22.032V20.857c0-.787-1.967-.787-1.967-.787H27.535V17.71h-7.082v1.967h-1.967z"/><path id="E" d="M16.126 35.414h22.031V23.218c0-1.18-1.574-.787-1.574-.787H25.568v-2.36h-7.475v1.574h-1.967z"/></defs></svg>