<svg xmlns="http://www.w3.org/2000/svg" xmlns:xlink="http://www.w3.org/1999/xlink" viewBox="0 0 64 52" fill="#fff" fill-rule="evenodd" stroke="#000" stroke-linecap="round" stroke-linejoin="round"><style><![CDATA[.B{stroke-width:.787}.C{stroke-linejoin:miter}.D{stroke:#fff}.E{stroke-linecap:square}.F{fill:none}.G{stroke:none}.H{fill:#046897}.I{stroke-linejoin:bevel}]]></style><use xlink:href="#A" x=".5" y=".5"/><symbol id="A" overflow="visible"><g class="H"><path d="M7.085 40.145v-6.691h36.209v6.691H7.085z" class="B C D"/><path d="M49.198 27.551v6.691l-5.904 5.904v-6.691H7.085z" class="G"/></g><path d="M49.198 27.551v6.691l-5.904 5.904v-6.691H7.085" class="B C D E F"/><path d="M7.085 27.551h42.113z" fill="#000" class="G"/><path d="M7.085 27.551h42.113" class="B D E F I"/><path d="M43.294 33.455l5.904-5.904z" fill="#000" class="G"/><g class="B D"><path d="M43.294 33.455l5.904-5.904" class="E F I"/><g class="C H"><path d="M41.326 45.262v-3.936H0l4.723-4.723h41.326v3.936l-4.723 4.723z"/><path d="M41.326 41.326v3.936H0v-3.936h41.326z"/></g></g><path d="M41.326 41.326l4.723-4.723z" fill="#000" class="G"/><g class="B D"><path d="M41.326 41.326l4.723-4.723" class="E F I"/><g class="C H"><path d="M43.294 33.454V6.297H7.085v27.157h36.209z"/><path d="M43.294 33.454l5.904-5.904V0H13.382L7.085 6.297h36.209v27.157zm-3.149-3.149V9.446H10.234v20.86h29.912z"/></g></g><path d="M43.294 6.297L49.198 0z" fill="#000" class="G"/><g class="B D"><path d="M43.294 6.297L49.198 0" class="E F I"/><path d="M62.579 46.443l-5.904-8.659-5.904 4.329 5.904 8.265 5.904-3.936z" class="C H"/></g><g class="F"><path d="M53.521 39.757c-.787-1.968-2.755-.787-2.361-3.542.394-3.149-1.574-5.116-5.51-3.542" stroke="#046897" class="B C E"/><g class="D"><path d="M18.888 18.504c1.956 0 3.542-1.586 3.542-3.542s-1.586-3.542-3.542-3.542c-1.574 0-3.149 1.574-3.149 3.542s1.574 3.542 3.149 3.542zm12.2 0c1.956 0 3.542-1.586 3.542-3.542s-1.586-3.542-3.542-3.542c-1.968 0-3.149 1.574-3.149 3.542s1.181 3.542 3.149 3.542zm-5.904 10.234c1.968 0 3.149-1.574 3.149-3.149 0-1.968-1.181-3.542-3.149-3.542-.941-.004-1.844.368-2.509 1.033a3.53 3.53 0 0 0-1.033 2.509c0 1.574 1.574 3.149 3.542 3.149z" class="B C"/><path d="M18.892 18.498l1.968 3.149.787-1.968 1.968 2.755m3.149.393l1.574-3.149 1.181 1.574 1.574-2.755m-3.149-3.542l-3.149.787.787-1.574-3.149.787" class="B C E"/></g></g></symbol></svg>