<svg xmlns="http://www.w3.org/2000/svg" xmlns:xlink="http://www.w3.org/1999/xlink" viewBox="0 0 59 51" fill="#fff" fill-rule="evenodd" stroke="#000" stroke-linecap="round" stroke-linejoin="round"><style><![CDATA[.B{stroke:none}.C{stroke-linejoin:miter}.D{stroke-width:.394}.E{stroke-width:.788}]]></style><use xlink:href="#A" x=".5" y=".5"/><symbol id="A" overflow="visible"><use xlink:href="#C" fill="#126a98" class="B"/><use xlink:href="#C" stroke="#fff" fill="none" class="C E"/><use xlink:href="#D" fill="#126a98" class="B"/><use xlink:href="#D" stroke="#fff" fill="none" class="C E"/><path d="M22.46 6.691l2.364 3.546-9.061 1.97 1.97-1.576L3.55 8.267l3.546-2.364 13.395 1.97 1.97-1.182zm12.608 8.669l-1.575-3.546 8.273-1.575-1.575 1.182 13.394 2.364-3.152 2.364-13.394-2.364-1.97 1.575zM30.735 4.723l9.062-2.364v3.939l-2.364-.393-4.334 3.546-4.334-.788 4.728-3.546-2.757-.394zm-3.94 14.183l-8.667 1.575-.394-3.939 2.364.393 4.728-3.939 4.334.393-5.121 4.727 2.757.788z" class="B"/><g class="C"><path d="M52.401 42.147v-9.849l-5.909 4.727 5.909 5.121zm-47.669 0v-9.849l5.909 4.727-5.909 5.121zm3.94-19.304v9.849l-5.909-4.727 5.909-5.122zm39.396 0v9.849l5.909-4.727-5.909-5.122z" class="D"/><path d="M49.249 27.571h-3.546m5.121 9.455h4.334m-48.851 0H1.58m5.122-9.061h4.334" stroke="#fff" stroke-linecap="square" fill="none" stroke-width="1.182"/><path d="M41.37 30.722v17.334H15.763l-.394-17.334H41.37z" class="D"/></g><use xlink:href="#E" class="B"/><g class="C D"><use xlink:href="#E" fill="none"/><path d="M39.795 31.51v3.152h-22.85V31.51h22.85z"/><path d="M39.795 36.238v10.637h-22.85V36.238h22.85z" stroke="#020202"/><path d="M38.219 46.087H18.521v-9.455h19.698v9.455z" stroke="#030303" fill="none"/><path d="M16.945 36.238l11.819 5.909 11.031-5.909h-22.85z" stroke="#020202"/></g></symbol><defs ><path id="C" d="M57.123 11.031c0 6.303-12.606 11.425-28.365 11.425C12.607 22.456 0 17.334 0 11.031v27.577c0 5.909 12.607 11.031 28.759 11.031 15.758 0 28.365-5.121 28.365-11.031z"/><path id="D" d="M28.759 22.455c15.758 0 28.365-5.121 28.365-11.425C57.123 5.121 44.517 0 28.759 0 12.607 0 0 5.121 0 11.031c0 6.303 12.607 11.425 28.759 11.425z"/><path id="E" d="M35.062 25.607s1.182 0 1.182.788l.394 3.546 6.697 1.182.788-1.576-1.576-3.94c-8.667-2.364-16.94-1.576-16.94-1.576s-2.758-.788-11.425 1.576l-1.576 3.94.394 1.576 6.697-1.182.394-3.546c.394-.788 1.182-.788 1.182-.788z"/></defs></svg>