<svg xmlns="http://www.w3.org/2000/svg" xmlns:xlink="http://www.w3.org/1999/xlink" viewBox="0 0 42 51" fill="#fff" fill-rule="evenodd" stroke="#000" stroke-linecap="round" stroke-linejoin="round"><style><![CDATA[.B{fill:none}.C{stroke-width:.787}.D{stroke-linejoin:miter}.E{stroke-linecap:square}.F{stroke:none}.G{stroke-width:1.181}]]></style><use xlink:href="#A" x=".5" y=".5"/><symbol id="A" overflow="visible"><g stroke="#fff" class="C D"><path d="M25.189 49.985V5.51H0v44.475h25.189z" fill="#046897"/><g class="B"><path d="M0 46.836h25.189" class="E"/><path d="M24.006 39.757c0 2.755-1.968 4.723-4.723 4.723s-5.116-1.968-5.116-4.723 2.362-5.117 5.117-5.117 4.723 2.361 4.723 5.117z"/></g></g><use xlink:href="#C" class="F"/><g stroke="#fff" class="D"><g class="B C"><use xlink:href="#C"/><path d="M11.018 39.757c0 2.755-2.361 4.723-5.116 4.723-2.361 0-4.723-1.968-4.723-4.723S3.54 34.64 5.902 34.64c2.755 0 5.116 2.361 5.116 5.117z"/></g><g class="G"><path d="M3.936 41.72l3.936-3.936" class="B"/><path d="M3.936 37.784l3.936 3.936" class="B"/></g><path d="M17.315 29.13c0 2.361-1.968 4.723-4.723 4.723s-5.117-2.361-5.117-4.723c0-2.755 2.362-5.116 5.117-5.116s4.723 2.361 4.723 5.116z" class="B C"/><path d="M11.414 31.093L9.84 29.519m5.51-1.968l-3.936 3.542" class="B G"/><g fill="#046897" class="C"><path d="M0 5.51L8.659 0h24.795l-8.265 5.51H0z"/><path d="M25.189 49.985l7.872-6.297V0l-7.872 5.51v44.475z"/></g><path d="M0 22.434h25.189" stroke-width=".394" class="B E"/><path d="M13.775 13.382V8.659H1.968v4.723h11.807z" fill="#1c467e" class="C"/></g><path d="M3.149 11.414h9.446z" fill="#000" class="F"/><path d="M3.149 11.414h9.446" stroke="#fff" class="B C D E"/><use xlink:href="#D" class="F"/><use xlink:href="#D" class="B C D E"/><use xlink:href="#E" class="F"/><use xlink:href="#E" class="B C D E"/></symbol><defs ><path id="C" d="M20.464 39.756c0 .787-.393 1.181-1.181 1.181s-1.574-.394-1.574-1.181.787-1.574 1.574-1.574 1.181.787 1.181 1.574z"/><path id="D" d="M33.058 20.471h.787c5.51 0 6.691 5.117 6.691 5.117v-5.51s-1.181-5.116-6.691-5.116h-.787"/><path id="E" d="M40.536 19.684v6.297c-.787 7.478-14.169 7.084-14.169 7.084v5.51l-8.659-8.659 8.659-8.659v5.51s13.775.394 14.169-7.084"/></defs></svg>