<svg xmlns="http://www.w3.org/2000/svg" xmlns:xlink="http://www.w3.org/1999/xlink" viewBox="0 0 52 68" fill="#fff" fill-rule="evenodd" stroke="#000" stroke-linecap="round" stroke-linejoin="round"><style><![CDATA[.B{stroke:#fff}.C{stroke-linejoin:miter}.D{stroke-width:.787}.E{stroke:none}.F{fill:#000}.G{stroke-linecap:square}.H{fill:none}]]></style><use xlink:href="#A" x=".5" y=".5"/><symbol id="A" overflow="visible"><g fill="#046897" class="B C D"><path d="M39.752 10.627L50.379 0H12.595L0 10.627h39.752z"/><path d="M39.752 66.516V10.627H0v55.889h39.752z"/></g><path d="M39.752 36.603H0z" class="E F"/><path d="M39.752 36.603H0" class="B C D G H"/><path d="M4.723 49.985h12.595z" class="E F"/><path d="M4.723 49.985h12.595" class="B C D G H"/><path d="M4.723 52.346h12.595z" class="E F"/><path d="M4.723 52.346h12.595" class="B C D G H"/><path d="M4.723 55.101h12.595z" class="E F"/><path d="M4.723 55.101h12.595" class="B C D G H"/><path d="M4.723 57.857h12.595z" class="E F"/><path d="M4.723 57.857h12.595" class="B C D G H"/><path d="M4.723 60.612h12.595z" class="E F"/><g class="B C D"><path d="M4.723 60.612h12.595" class="G H"/><path d="M50.772 54.708V0l-11.02 10.627v55.889l11.02-11.807z" fill="#046897"/></g><path d="M39.752 37.39H0z" class="E F"/><path d="M39.752 37.39H0" class="B C D G H"/></symbol></svg>