<svg xmlns="http://www.w3.org/2000/svg" xmlns:xlink="http://www.w3.org/1999/xlink" viewBox="0 0 131 76" fill="#fff" fill-rule="evenodd" stroke="#000" stroke-linecap="round" stroke-linejoin="round"><use xlink:href="#A" x=".5" y=".5"/><symbol id="A" overflow="visible"><use xlink:href="#C" stroke="none"/><use xlink:href="#C" stroke="#0f73a0" stroke-linejoin="miter" fill="none" stroke-width=".787"/></symbol><defs ><path id="C" d="M44.721 8.565C22.287 4.236 10.086 15.65 12.054 25.883v.394C-5.657 29.425-.934 50.285 7.725 50.285h.787C6.15 60.124 27.01 69.964 38.424 64.847l.787-.787c3.936 9.052 18.892 10.233 33.061 10.627 12.595.394 19.679-.394 25.189-5.904h.787c20.073 1.574 29.125-12.201 24.796-22.041l1.181-.394c6.691-1.574 7.478-17.318-4.329-19.679l.394-.787c5.117-10.233-7.084-19.679-23.615-18.105l-1.181-.394C83.686-3.636 49.444-1.668 45.508 8.959z"/></defs></svg>