<svg xmlns="http://www.w3.org/2000/svg" xmlns:xlink="http://www.w3.org/1999/xlink" viewBox="0 0 42 43" fill="#fff" fill-rule="evenodd" stroke="#000" stroke-linecap="round" stroke-linejoin="round"><style><![CDATA[.B{stroke-linecap:square}.C{stroke-width:2.364}.D{stroke-width:.394}.E{stroke-width:.788}]]></style><use xlink:href="#A" x=".5" y=".5"/><symbol id="A" overflow="visible"><g stroke="#fff" stroke-linejoin="miter"><path d="M33.876 41.755V7.091H0v34.664h33.876z" fill="#046897" class="E"/><g fill="none"><path d="M16.934 30.338c3.151 0 5.909-2.757 5.909-5.909 0-3.545-2.757-6.302-5.909-6.302s-5.909 2.757-5.909 6.302c0 3.151 2.757 5.909 5.909 5.909z" stroke-width="2.363"/><path d="M16.938 18.12h10.636" class="B C"/></g><path d="M27.574 14.181v7.878l4.333-3.939-4.333-3.939z" class="D"/><path d="M11.03 24.423V13.787" fill="none" class="B C"/><path d="M7.091 13.787h7.484L11.03 9.06l-3.939 4.727z" class="D"/><path d="M22.847 24.423v10.242" fill="none" class="B C"/><path d="M26.786 34.664h-7.484l3.545 4.727 3.939-4.727z" class="D"/><path d="M16.939 30.331H6.697" fill="none" class="B C"/><path d="M6.303 34.27v-7.484L1.97 30.331l4.333 3.939z" class="D"/><g class="E"><path d="M33.877 7.09H0L8.666 0h32.301v34.664l-7.09 7.09V7.09z" fill="#046897"/><path d="M33.877 7.09L40.968 0" fill="none" class="B"/></g></g></symbol></svg>