<svg xmlns="http://www.w3.org/2000/svg" xmlns:xlink="http://www.w3.org/1999/xlink" viewBox="0 0 66 50" fill="#fff" fill-rule="evenodd" stroke="#000" stroke-linecap="round" stroke-linejoin="round"><use xlink:href="#A" x=".5" y=".5"/><symbol id="A" overflow="visible"><g stroke="#fff" stroke-linejoin="miter" fill="#046897" stroke-width=".787"><path d="M59.037 48.016H16.924V5.51h42.113v42.506z"/><path d="M22.04 0h42.113l-5.116 5.51H16.53L22.04 0z"/><path d="M64.153 39.751l-5.116 7.871V5.117L64.153 0v39.751zm-47.229 8.265H0V5.51h16.924v42.506z"/><path d="M5.511 0h16.924l-5.116 5.51H.394L5.511 0z"/></g><path d="M16.924 5.51v42.506z" stroke="none" fill="#046897"/><path d="M16.924 5.51v42.506" stroke="#fff" stroke-linejoin="miter" stroke-linecap="square" fill="none" stroke-width=".787"/><path d="M17.318 20.86H.394z" stroke="none" fill="#000"/><path d="M17.318 20.86H.394" stroke="#fff" stroke-linejoin="miter" stroke-linecap="square" fill="none" stroke-width=".787"/><g stroke="none"><path d="M31.88 25.977h-9.052v-1.574l-3.542 2.361 3.542 1.968v-1.574h9.052v-1.181zm1.574 4.723l-6.691 6.297-1.181-1.181-.787 3.936 4.329-.787-1.181-.787 6.297-6.691-.787-.787zm3.936 2.361v9.052h-1.574l2.361 3.149 2.362-3.149h-1.574v-9.052H37.39zm4.723-1.574l6.691 6.691-1.181.787 3.936.787-.787-3.936-1.181 1.181-6.297-6.297-1.181.787zm2.362-4.329h9.052v1.574l3.542-1.968-3.542-2.361v1.574h-9.052v1.181zm-1.181-4.329l6.297-6.691 1.181 1.181.787-3.936-3.936.787 1.181 1.181-6.691 6.297 1.181 1.181zm-4.329-2.361v-9.446h1.574l-2.362-3.149-2.361 3.149h1.574v9.446h1.574zm-4.723 1.181l-6.297-6.297 1.181-1.181-4.329-.787.787 3.936 1.181-1.181 6.691 6.691.787-1.181z"/><path d="M46.044 20.866c-3.149-3.936-9.052-5.116-13.381-2.361-4.329 3.149-5.116 9.052-2.361 13.381 3.149 4.329 9.052 5.116 13.382 2.361 4.329-3.149 5.116-9.052 2.361-13.381zM6.691 13.382H4.33v-.787l-1.181.787 1.181.787v-.393h2.362v-.394zm.394 1.181l-1.574 1.968-.394-.394-.394 1.181h1.181l-.393-.394 1.968-1.968-.394-.394zm1.574.787v2.755h-.394l.394 1.181.787-1.181h-.394V15.35h-.393zm1.181-.394l1.968 1.968-.394.394h1.181v-1.181l-.394.394-1.968-1.968-.394.394zm.787-1.181h2.755v.393l1.181-.787-1.181-.787v.787h-2.755v.394zm-.393-1.574l1.968-1.968.394.393v-1.18l-1.181.394h.394L9.84 11.808l.394.394zm-1.181-.787V8.659h.394l-.787-.787-.394.787h.394v2.755h.393zm-1.574.394L5.511 9.84h.393l-1.181-.394.394 1.181.394-.393 1.574 1.968.394-.394z"/><path d="M11.015 11.814c-.787-1.181-2.755-1.574-3.936-.787s-1.574 2.755-.787 3.936c1.181 1.181 2.755 1.574 3.936.787 1.574-.787 1.574-2.755.787-3.936zM7.872 34.635v7.478H6.691l1.574 3.149 1.968-3.149H9.052v-7.478h-1.18zm1.968 0l2.755 7.084-1.181.394 2.755 1.968.787-3.149-1.181.394-2.755-7.084-1.181.394zm-2.755 0L4.329 41.72l1.181.394-2.755 1.968-.787-3.149 1.181.394 2.755-7.084 1.181.394zm.787-11.807v7.478H6.691l1.574 2.755 1.968-2.755H9.052v-7.478h-1.18z"/></g></symbol></svg>