<svg xmlns="http://www.w3.org/2000/svg" xmlns:xlink="http://www.w3.org/1999/xlink" viewBox="0 0 59 40" fill="#fff" fill-rule="evenodd" stroke="#000" stroke-linecap="round" stroke-linejoin="round"><use xlink:href="#A" x=".5" y=".5"/><symbol id="A" overflow="visible"><use xlink:href="#C" stroke="none" fill="#036c9b"/><use xlink:href="#C" stroke="#fff" stroke-linejoin="miter" fill="none" stroke-width=".788"/><use xlink:href="#D" stroke="none" fill="#036c9b"/><use xlink:href="#D" stroke="#fff" stroke-linejoin="miter" fill="none" stroke-width=".788"/><path d="M22.453 6.688l2.363 3.544-9.058 1.969 1.969-1.575L3.549 8.263l3.544-2.757 13.39 2.363 1.969-1.181zm12.602 8.664l-1.575-3.544 7.876-1.575-1.181 1.181 13.39 2.363-3.151 2.363-13.39-2.363-1.969 1.575zM30.329 4.719l9.452-2.363v3.938l-2.363-.788-4.332 3.938-4.332-.788 4.726-3.544-3.151-.394zm-3.544 14.178l-9.058 1.575v-3.938l2.363.394 4.726-3.938 4.332.394-5.12 4.726 2.757.788zm.788 11.815h8.27v1.181l3.151-1.969-3.151-1.969v1.181h-8.27v1.575zm-.394-2.363l7.876-3.151.788 1.575 1.969-3.151-3.544-.788.394 1.181-7.877 3.151.394 1.181zm0 3.151l7.876 2.757.788-1.181 1.969 3.151-3.544.788.394-1.181-7.877-3.151.394-1.181zm-12.996-.788h8.27v1.181l3.15-1.969-3.15-1.969v1.181h-8.27v1.575z" stroke="none"/></symbol><defs ><path id="C" d="M57.891 11.027c0 6.301-12.996 11.421-29.142 11.421C12.996 22.448 0 17.328 0 11.027v16.54c0 6.301 12.996 11.421 28.749 11.421 16.147 0 29.143-5.12 29.143-11.421z"/><path id="D" d="M28.749 22.448c16.147 0 29.143-5.12 29.143-11.421S44.895 0 28.749 0C12.996 0 0 4.726 0 11.027s12.996 11.421 28.749 11.421z"/></defs></svg>