<svg xmlns="http://www.w3.org/2000/svg" xmlns:xlink="http://www.w3.org/1999/xlink" viewBox="0 0 71 49" fill="#fff" fill-rule="evenodd" stroke="#000" stroke-linecap="round" stroke-linejoin="round"><use xlink:href="#A" x=".5" y=".5"/><symbol id="A" overflow="visible"><g stroke="#fff" stroke-linejoin="miter" fill="#046897" stroke-width=".787"><path d="M56.26 47.211V12.983H.001v34.228H56.26z"/><path d="M0 12.983L16.917 0h52.718L56.259 12.983H0z"/><path d="M56.261 47.604l12.983-14.951V0L56.261 12.983v34.621z"/></g><g stroke="none"><path d="M21.633 25.186c1.18-5.114-1.967-7.868-4.721-7.475h-.393c-.787-3.934-6.688-2.754-6.688-.787-2.754-.393-5.901 4.328-4.328 7.082h.393c-2.754 1.18-3.147 4.328-3.147 7.475s0 4.721 1.574 5.901v.394c-.393 4.328 3.541 6.688 6.295 5.508l.393.393c.393 1.574 4.721 1.574 5.508-1.18l.393.393c2.754 1.18 5.508-1.574 5.114-5.508v-.393c3.147-2.754 2.754-10.622-.393-11.409zm28.721 0c1.18-5.114-1.967-7.868-5.114-7.475-.787-3.934-7.081-2.754-7.081-.787-2.754-.393-5.508 4.328-3.934 7.082-2.361 1.18-2.754 4.328-3.147 7.475 0 3.147.393 4.721 1.967 5.901v.393c-.787 4.328 3.541 6.688 6.295 5.508v.393c.393 1.574 5.115 1.574 5.901-1.18v.393c3.147 1.18 5.901-1.574 5.115-5.508l.393-.393c3.147-2.754 2.361-10.622-.393-11.409z"/><path d="M14.95 25.966l-3.147-3.541-1.574 1.574-.393-4.721 4.721.393-1.574 1.574 3.147 3.147-1.18 1.574zm0 9.442l-3.147 3.147-1.574-1.574-.393 4.721h4.721l-1.574-1.967 3.147-3.147-1.18-1.18zm-3.147-3.934H7.082v2.361l-3.541-3.147 3.541-3.541v2.36h4.721v1.967zm29.113-5.508l3.148-3.541 1.967 1.574v-4.721l-4.721.393 1.574 1.574-3.147 3.147 1.18 1.574zm0 9.442l3.148 3.147 1.967-1.574v4.721H41.31l1.574-1.967-3.147-3.147 1.18-1.18zm2.754-3.934h4.721v2.361l3.541-3.147-3.541-3.541v2.36H43.67v1.967z" fill="#046897"/><path d="M23.212 29.901h9.049v1.574h-9.049v-1.574z"/><path d="M31.081 31.475h4.721v2.361l3.541-3.147-3.541-3.541v2.361h-4.721v1.967zm-7.082 0h-4.721v2.361l-3.541-3.147 3.541-3.541v2.361h4.721v1.967z" fill="#046897"/></g></symbol></svg>