<svg xmlns="http://www.w3.org/2000/svg" xmlns:xlink="http://www.w3.org/1999/xlink" viewBox="0 0 68 49" fill="#fff" fill-rule="evenodd" stroke="#000" stroke-linecap="round" stroke-linejoin="round"><use xlink:href="#A" x=".5" y=".5"/><symbol id="A" overflow="visible"><g stroke="#fff" stroke-linejoin="miter" fill="#046897" stroke-width=".787"><path d="M0 47.604h60.194V8.262H0v39.342z"/><path d="M66.882 37.769l-6.688 9.836V8.262L66.882 0v37.769z"/><path d="M10.229 0h56.653l-6.688 8.262H0L10.229 0z"/></g><g stroke="none"><path d="M13.377 18.491l-9.836.393v-1.967h9.836v-2.36l5.901 3.147-5.901 3.541v-2.754zm0 10.229H3.541v-1.574h9.836v-2.754l5.901 3.541-5.901 3.147v-2.36zm0 9.836H3.541v-1.574h9.836v-2.361l5.901 3.147-5.901 3.541v-2.754zM47.211 27.54l9.836-.393v1.967h-9.836v2.361l-5.901-3.147 5.901-3.541v2.754zm-8.267-5.109c0 1.18-3.541 2.36-7.868 2.36-4.721 0-8.262-1.18-8.262-2.36V32.66c0 1.18 3.541 2.361 8.262 2.361 4.328 0 7.868-1.18 7.868-2.361z"/><use xlink:href="#C" fill="#046897"/></g><use xlink:href="#C" stroke="#fff" stroke-linejoin="miter" fill="none" stroke-width="1.18"/><use xlink:href="#D" stroke="none"/><use xlink:href="#D" stroke="#fff" stroke-linejoin="miter" fill="none" stroke-width="1.18"/></symbol><defs ><path id="C" d="M31.076 24.792c4.328 0 7.868-1.18 7.868-2.361 0-1.574-3.541-2.36-7.868-2.36-4.721 0-8.262.787-8.262 2.36 0 1.18 3.541 2.361 8.262 2.361z"/><path id="D" d="M31.076 36.2c4.328 0 7.868-1.18 7.868-2.361 0-1.574-3.541-2.754-7.868-2.754-4.721 0-8.262 1.18-8.262 2.754 0 1.18 3.541 2.361 8.262 2.361z"/></defs></svg>