<svg xmlns="http://www.w3.org/2000/svg" xmlns:xlink="http://www.w3.org/1999/xlink" viewBox="0 0 73 49" fill="#fff" fill-rule="evenodd" stroke="#000" stroke-linecap="round" stroke-linejoin="round"><use xlink:href="#A" x=".5" y=".5"/><symbol id="A" overflow="visible"><g stroke="#fff" stroke-linejoin="miter" fill="#046897" stroke-width=".787"><path d="M0 47.997h64.128V8.655H0v39.342z"/><path d="M71.21 37.769l-7.082 10.229V8.655L71.21 0v37.769z"/><path d="M10.229 0H71.21l-7.082 8.655H0L10.229 0z"/></g><g stroke="none"><path d="M13.377 28.72H3.541v-1.574h9.836v-2.361l5.901 3.147-5.901 3.541V28.72zm38.555-9.836H41.703v-1.574h10.229v-2.754l5.508 3.541-5.508 3.147v-2.36zm4.721 9.836h-14.95v-1.574h14.95v-2.361l5.508 3.147-5.508 3.541V28.72zm-4.721 10.229H41.703v-1.967h10.229v-2.361l5.508 3.541-5.508 3.147v-2.361z"/><use xlink:href="#C" fill="#046897"/></g><use xlink:href="#C" stroke="#fff" stroke-linejoin="miter" fill="none" stroke-width=".787"/><use xlink:href="#D" stroke="none" fill="#046897"/><use xlink:href="#D" stroke="#fff" stroke-linejoin="miter" fill="none" stroke-width=".787"/></symbol><defs ><path id="C" d="M39.338 23.612c0 1.574-3.934 3.147-9.049 3.147-4.721 0-8.655-1.574-8.655-3.147v7.475c0 1.967 3.934 3.147 8.655 3.147 5.115 0 9.049-1.18 9.049-3.147z"/><path id="D" d="M30.289 26.759c5.115 0 9.049-1.574 9.049-3.147 0-1.967-3.934-3.147-9.049-3.147-4.721 0-8.655 1.18-8.655 3.147 0 1.574 3.934 3.147 8.655 3.147z"/></defs></svg>