<svg xmlns="http://www.w3.org/2000/svg" xmlns:xlink="http://www.w3.org/1999/xlink" viewBox="0 0 74 50" fill="#fff" fill-rule="evenodd" stroke="#000" stroke-linecap="round" stroke-linejoin="round"><style><![CDATA[.B{stroke-linejoin:miter}.C{stroke:none}.D{stroke-width:.394}]]></style><use xlink:href="#A" x=".5" y=".5"/><symbol id="A" overflow="visible"><g stroke="#fff" fill="#036c9b" stroke-width=".788" class="B"><path d="M67.352 48.055H0V5.911h67.352v42.144zM5.121.395h67.352l-5.12 5.515H.001L5.121.395z"/><path d="M72.474 40.175l-5.515 7.483V5.515L72.474 0v40.175z"/></g><use xlink:href="#C" class="C"/><use xlink:href="#C" fill="none" class="B D"/><use xlink:href="#D" class="C"/><use xlink:href="#D" fill="none" class="B D"/><use xlink:href="#E" class="C"/><use xlink:href="#E" fill="none" class="B D"/><use xlink:href="#F" class="C"/><use xlink:href="#F" fill="none" class="B D"/><path d="M12.605 29.147l-9.847-.394v-1.969h9.847v-2.757l5.908 3.939-5.908 3.939v-2.757zm43.326 0l9.847-.394v-1.969H55.93v-2.757l-5.908 3.939 5.908 3.939v-2.757z" class="C"/></symbol><defs ><path id="C" d="M31.112 34.274l4.726-3.545c-4.726 0-7.09 0-10.241.394-1.575 4.333-1.575 5.514-3.151 8.665l3.939-1.969c3.545 2.757 7.877 3.151 11.816 1.969v-.394l6.302-4.333c-3.939 2.757-9.453 2.363-13.391-.788z"/><path id="D" d="M26.779 27.972c-1.182-3.939-.788-8.271 1.969-11.422.788-.394 1.182-.788 1.575-1.576L24.416 19.7c-.394.394-1.181.788-1.575 1.182-2.757 3.151-3.151 7.483-1.969 11.422z"/><path id="E" d="M38.595 14.974c-2.363-.788-4.726-1.182-7.09-.394-.394 0-.788.394-1.182.394l-5.908 4.726c2.757-2.363 6.302-2.757 9.847-1.575l-3.545 2.363h10.24l.788-7.483z"/><path id="F" d="M46.472 18.125c3.545 5.908 2.363 12.21-.394 15.361-.394.788-1.181 1.182-1.575 1.575l-6.302 4.332c.788-.394 1.182-.788 1.969-1.575 4.726-5.908 1.969-11.422.394-15.361z"/></defs></svg>