<svg xmlns="http://www.w3.org/2000/svg" xmlns:xlink="http://www.w3.org/1999/xlink" viewBox="0 0 49 65" fill="#fff" fill-rule="evenodd" stroke="#000" stroke-linecap="round" stroke-linejoin="round"><use xlink:href="#A" x=".5" y=".5"/><symbol id="A" overflow="visible"><g stroke="#fff" stroke-linejoin="miter" fill="#046897" stroke-width=".788"><path d="M47.256 56.313V0L39.38 7.482v56.313l7.876-7.482z"/><path d="M47.256 0L39.38 7.482H0L10.239 0h37.017z"/><path d="M39.38 46.468V7.482H0v38.986h39.38zm0 17.327V46.862H0v16.933h39.38z"/></g><g stroke="none"><path d="M16.146 22.447l-5.907-6.301 1.181-.788-3.938-.788.788 3.544.788-.788 6.301 5.907.788-.788zm-1.969 3.544H5.513v-1.181l-3.15 1.969 3.15 2.363v-1.575h8.664v-1.575zm1.181 4.332l-6.301 6.301-.788-1.181-.788 3.938 3.938-.788-1.181-1.181 5.907-5.907-.788-1.181zm3.938 2.363v8.27h-1.575l1.969 3.15 2.363-3.15h-1.575v-8.27h-1.181zm0-11.42v-8.27h-1.575l1.969-3.15 2.363 3.15h-1.575v8.27h-1.181zm3.938 10.239l6.301 5.907-1.181 1.181 3.938.788-.788-3.938-1.181 1.181-5.907-6.301-1.181 1.181zm2.363-3.938h8.27v1.575l3.544-2.363-3.544-1.969v1.181h-8.27v1.575zm-1.181-4.332l5.907-5.907 1.181.788.788-3.544-3.938.788 1.181.788-6.301 6.301 1.181.788z"/><use xlink:href="#C"/></g><use xlink:href="#C" stroke-linejoin="miter" fill="none" stroke-width=".788"/><path d="M20.083 55.92h8.664v1.575l3.15-2.363-3.15-1.969v1.181h-8.664v1.575zm0-2.363l7.876-2.757.394 1.181 2.363-3.15-3.938-.788.788 1.181-7.876 3.15.394 1.181zm0 3.15l7.876 3.15.394-1.575 2.363 3.15-3.938.788.788-1.181-7.876-3.15.394-1.181zM7.088 55.92h8.27v1.575l3.15-2.363-3.15-1.969v1.181h-8.27v1.575z" stroke="none"/></symbol><defs ><path id="C" d="M24.805 33.874c4.332-2.757 5.119-8.27 2.363-12.208s-8.27-4.725-12.208-1.969-5.119 8.27-2.363 12.208 8.27 4.726 12.208 1.969z"/></defs></svg>