<svg xmlns="http://www.w3.org/2000/svg" xmlns:xlink="http://www.w3.org/1999/xlink" viewBox="0 0 57 38" fill="#fff" fill-rule="evenodd" stroke="#000" stroke-linecap="round" stroke-linejoin="round"><style><![CDATA[.B{stroke-linejoin:miter}.C{stroke-width:.787}.D{stroke:none}]]></style><use xlink:href="#A" x=".5" y=".5"/><symbol id="A" overflow="visible"><g stroke="#fff" fill="#046897" class="B C"><path d="M0 36.591h49.968V7.476H0v29.115z"/><path d="M55.87 27.935l-5.902 8.656V7.476L55.87 0v27.935z"/><path d="M9.049 0h46.82l-5.902 7.476H0L9.049 0z"/></g><g class="D"><path d="M23.607 16.131z" fill="#000"/><path d="M36.984 21.64h7.082v1.574l3.541-2.361-3.541-2.361v1.967h-7.082v1.18z"/><use xlink:href="#C"/></g><use xlink:href="#C" fill="none" class="B C"/><use xlink:href="#D" class="D"/><g class="B C"><use xlink:href="#D" fill="none"/><path d="M44.853 31.869l-2.361 3.541-10.623-6.689 2.361-3.934 10.623 7.082z"/></g><use xlink:href="#E" class="D"/><use xlink:href="#E" fill="none" class="B C"/><g class="D"><path d="M42.886 32.263z" fill="#000"/><path d="M11.803 20.459H8.262v1.574h3.935zm2.754 7.476l-5.115 3.541.787.787 5.115-3.148zm-.393-14.558l-4.328-2.754-.787 1.18 4.328 2.754z"/><use xlink:href="#F"/></g><use xlink:href="#F" fill="none" class="B C"/><g class="D"><path d="M20.066 13.377v15.738l9.443-6.689h4.328v-2.361h-4.328l-9.443-6.689z" fill="#0b0b0b"/><path d="M11.803 22.033h4.328v1.574l3.541-2.361-3.541-2.361v1.574h-4.328zm3.541 7.082l1.574-.787.787 1.18 1.574-3.934h-3.934l.787 1.574-1.574.787zM13.77 14.557l2.361 1.18-.787 1.574h3.935l-1.574-3.935-.787 1.574-2.361-1.574z" fill="#000"/></g></symbol><defs ><path id="C" d="M42.881 33.45c-.393 0-1.18-.393-1.18-1.18-.394-.394 0-1.18.787-1.18.787-.393 1.574 0 1.574.787s-.393 1.574-1.18 1.574z"/><path id="D" d="M45.242 33.45c0 .787-.787 1.967-1.967 1.967-.787 0-1.574-1.18-1.574-1.967 0-1.18.787-1.967 1.574-1.967 1.18 0 1.967.787 1.967 1.967z"/><path id="E" d="M21.242 9.45c-6.295 1.18-10.623 7.869-9.049 14.164s7.869 10.623 14.164 9.049c6.689-1.18 10.623-7.869 9.049-14.164-1.18-6.295-7.475-10.623-14.164-9.049z"/><path id="F" d="M25.963 31.089c-5.508 1.18-11.016-2.361-12.197-7.869s2.361-11.016 7.869-12.197 11.016 2.361 12.197 7.869-2.361 11.016-7.869 12.197z"/></defs></svg>