<svg xmlns="http://www.w3.org/2000/svg" xmlns:xlink="http://www.w3.org/1999/xlink" viewBox="0 0 49 65" fill="#fff" fill-rule="evenodd" stroke="#000" stroke-linecap="round" stroke-linejoin="round"><use xlink:href="#A" x=".5" y=".5"/><symbol id="A" overflow="visible"><g stroke="#fff" stroke-linejoin="miter" fill="#046897" stroke-width=".787"><path d="M47.604 56.26V0l-8.262 7.475v56.26l8.262-7.475z"/><path d="M47.604 0l-8.262 7.475H0L10.229 0h37.375z"/><path d="M39.342 46.424V7.475H0v38.949h39.342zm0 17.311V46.817H0v16.917h39.342z"/></g><g stroke="none"><path d="M16.131 22.426l-5.901-5.901 1.18-1.18-3.934-.787.787 3.934 1.18-1.18 5.901 5.901.787-.787zm-1.967 3.934H5.508v-1.574l-3.147 2.36 3.147 1.967V27.54h8.655v-1.18zm1.18 4.328l-5.901 5.901-1.18-1.18-.787 3.934 3.934-.787-1.18-1.18 5.901-5.901-.787-.787zm3.934 1.967v8.655h-1.574l2.361 3.147 1.967-3.147h-1.574v-8.655h-1.18zm0-11.409v-8.262h-1.574l2.361-3.147 1.967 3.147h-1.574v8.262h-1.18zm4.328 10.229l5.901 5.901-1.18 1.18 3.934.787-.787-3.934-1.18 1.18-5.901-5.901-.787.787zm1.967-3.934h8.655v1.574l3.148-1.967-3.148-2.36v1.574h-8.655v1.18zm-1.18-4.328l5.901-5.901 1.18 1.18.787-3.934-3.934.787 1.18 1.18-5.901 5.901.787.787z"/><path d="M25.174 34.234c3.934-2.754 4.721-8.262 1.967-12.196-2.754-4.328-8.262-5.114-12.196-2.36s-4.721 8.262-1.967 12.196 8.262 5.114 12.196 2.361zm.005 21.632h8.262v1.574l3.147-2.361-3.147-1.967v1.574h-8.262v1.18zm-.393-2.361l8.262-2.754.393 1.18 2.361-2.754-3.934-1.18.393 1.574-7.868 2.754.394 1.18zm0 3.541l8.262 2.754.393-1.574 2.361 3.147-3.934 1.18.393-1.574-7.868-2.754.394-1.18zm-12.59-1.18h7.868v1.574l3.147-2.361-3.147-1.967v1.574h-7.868v1.18z"/><use xlink:href="#C" fill="#046897"/></g><use xlink:href="#C" stroke="#fff" stroke-linejoin="miter" fill="none" stroke-width=".787"/><use xlink:href="#D" stroke="none" fill="#046897"/><use xlink:href="#D" stroke="#fff" stroke-linejoin="miter" fill="none" stroke-width=".787"/><path d="M9.442 53.112z" stroke="none" fill="#000"/></symbol><defs ><path id="C" d="M8.651 49.184c-1.967 0-3.147 1.18-3.147 2.754v2.361c0 .393 0 .393-.393.787-.393 0-.787-.394-.787-.394v-2.754c0-1.967 1.967-3.934 3.934-3.934 2.36 0 3.934 1.967 3.934 3.934v2.754c0 .394 0 .394-.393.394s-.393-.394-.393-.394v-2.754c0-1.574-1.18-2.754-2.754-2.754z"/><path id="D" d="M13.371 61.774c.393 0 .393-.393.393-.393v-6.688c0-.393 0-.393-.393-.393H3.142s-.393 0-.393.393v6.688l.393.393z"/></defs></svg>