<svg xmlns="http://www.w3.org/2000/svg" xmlns:xlink="http://www.w3.org/1999/xlink" viewBox="0 0 79 41" fill="#fff" fill-rule="evenodd" stroke="#000" stroke-linecap="round" stroke-linejoin="round"><style><![CDATA[.B{fill:none}.C{stroke-linecap:square}.D{stroke-width:2.361}.E{stroke-width:.393}.F{stroke-width:.787}.G{stroke-width:2.36}]]></style><use xlink:href="#A" x=".5" y=".5"/><symbol id="A" overflow="visible"><g stroke="#fff" stroke-linejoin="miter"><path d="M70.024 39.733V7.081H0v32.652h70.025z" fill="#007eba" class="F"/><g class="B"><path d="M53.497 31.478c3.147 0 5.901-2.754 5.901-6.294 0-3.147-2.754-5.901-5.901-5.901-3.541 0-6.294 2.754-6.294 5.901a6.21 6.21 0 0 0 6.294 6.294z" class="G"/><path d="M53.502 19.277H63.73" class="C D"/></g><path d="M63.73 15.343v7.475l4.721-3.541-4.721-3.934z" class="E"/><path d="M47.208 25.177V14.949" class="B C D"/><path d="M43.667 14.949h7.475l-3.541-4.721-3.934 4.721z" class="E"/><path d="M53.502 31.079H42.88" class="B C D"/><path d="M42.88 35.406v-7.868l-4.721 3.934 4.721 3.934z" class="E"/><g class="B"><path d="M16.518 31.478a6.21 6.21 0 0 1-6.294-6.294c0-3.147 2.754-5.901 6.294-5.901 3.147 0 5.901 2.754 5.901 5.901 0 3.541-2.754 6.294-5.901 6.294z" class="G"/><path d="M16.523 19.277H5.901" class="C D"/></g><path d="M5.901 15.343v7.475L1.18 19.277l4.721-3.934z" class="E"/><path d="M22.423 25.177V14.949" class="B C D"/><path d="M26.357 14.949h-7.868l3.934-4.721 3.934 4.721z" class="E"/><path d="M16.129 31.079h10.622" class="B C D"/><path d="M26.751 35.406v-7.868l4.721 3.934-4.721 3.934z" class="E"/><g class="F"><path d="M69.631 7.081H.393L8.654 0h68.058v32.652l-6.688 7.081V7.081h-.393z" fill="#007eba"/><path d="M70.025 7.081L77.106 0" class="B C"/></g><path d="M35.012 14.556v18.883" stroke-width="1.574" class="B C"/></g></symbol></svg>