<svg xmlns="http://www.w3.org/2000/svg" xmlns:xlink="http://www.w3.org/1999/xlink" viewBox="0 0 58 42" fill="#fff" fill-rule="evenodd" stroke="#000" stroke-linecap="round" stroke-linejoin="round"><style><![CDATA[.B{stroke-linejoin:miter}.C{stroke-width:.394}]]></style><use xlink:href="#A" x=".5" y=".5"/><symbol id="A" overflow="visible"><g stroke="#fff"><g fill="#046897" stroke-width=".787" class="B"><path d="M47.639 40.159V7.481H0v32.678h47.639z"/><path d="M47.639 7.481L56.694 0H12.205L0 7.481h47.639z"/><path d="M56.694 32.678V0l-9.055 7.481v32.678l9.055-7.48z"/></g><path d="M3.15 27.166h14.173l7.087-14.173 9.843 20.079 3.543-5.906h7.087" fill="none" stroke-width="1.575"/></g><use xlink:href="#C" stroke="none"/><g class="B C"><use xlink:href="#C" fill="none"/><path d="M6.299 35.434l3.15 3.15 8.268-8.661-3.15-2.756-8.268 8.268z"/></g><use xlink:href="#D" stroke="none"/><use xlink:href="#D" fill="none" class="B C"/><use xlink:href="#E" stroke="none"/><use xlink:href="#E" fill="none" class="B C"/></symbol><defs ><path id="C" d="M7.476 38.589c.787 0 1.575-.787 1.575-1.575s-.787-1.181-1.575-1.181-1.181.394-1.181 1.181.394 1.575 1.181 1.575z"/><path id="D" d="M13.381 20.872c0 6.299 5.118 11.024 11.417 11.024s11.024-4.724 11.024-11.024S31.098 9.455 24.798 9.455a11.43 11.43 0 0 0-11.417 11.417zm1.575 0c0-5.512 4.331-9.843 9.843-9.843 5.118 0 9.449 4.331 9.449 9.843 0 5.118-4.331 9.449-9.449 9.449-5.512 0-9.843-4.331-9.843-9.449z"/><path id="E" d="M12.2 21.267c0 6.299 5.118 11.417 11.024 11.417a11.43 11.43 0 0 0 11.417-11.417c0-5.905-5.118-11.024-11.417-11.024-5.906 0-11.024 5.118-11.024 11.024zm1.575 0c0-5.118 4.331-9.449 9.449-9.449 5.512 0 9.843 4.331 9.843 9.449 0 5.512-4.331 9.843-9.843 9.843-5.118 0-9.449-4.331-9.449-9.843z"/></defs></svg>