<svg xmlns="http://www.w3.org/2000/svg" xmlns:xlink="http://www.w3.org/1999/xlink" viewBox="0 0 55 46" fill="#fff" fill-rule="evenodd" stroke="#000" stroke-linecap="round" stroke-linejoin="round"><use xlink:href="#A" x=".5" y=".5"/><symbol id="A" overflow="visible"><path d="M47.245 44.096l5.906-4.331L28.741 0l-5.906 3.543z" stroke="none" fill="#036c9b"/><g stroke="#fff" stroke-linejoin="miter" stroke-width=".787"><path d="M47.245 44.096l5.906-4.331L28.741 0l-5.906 3.543" stroke-linecap="square" fill="none"/><path d="M0 43.702h47.246L22.442 3.937 0 43.702z" fill="#036c9b"/></g><path d="M22.83 31.503c1.575 0 3.15-1.575 3.15-3.543 0-1.575-1.575-3.15-3.15-3.15-1.969 0-3.543 1.575-3.543 3.15a3.53 3.53 0 0 0 3.543 3.543zm0-12.598c1.575 0 3.15-1.575 3.15-3.15 0-1.969-1.575-3.543-3.15-3.543a3.53 3.53 0 0 0-3.543 3.543c0 1.575 1.575 3.15 3.543 3.15zm9.056 21.654c1.968 0 3.543-1.181 3.543-3.15 0-1.957-1.587-3.543-3.543-3.543s-3.543 1.586-3.543 3.543c0 1.968 1.575 3.15 3.543 3.15zm-18.504 0c1.969 0 3.543-1.575 3.543-3.15a3.53 3.53 0 0 0-3.543-3.543c-1.575 0-3.15 1.575-3.15 3.543 0 1.575 1.575 3.15 3.15 3.15z" stroke="none"/><path d="M22.441 16.142v11.811l-9.055 9.449m9.055-9.056l8.662 8.662" stroke="#fff" stroke-linejoin="miter" stroke-linecap="square" fill="none" stroke-width="1.575"/></symbol></svg>