<svg xmlns="http://www.w3.org/2000/svg" xmlns:xlink="http://www.w3.org/1999/xlink" viewBox="0 0 39 53" fill="#fff" fill-rule="evenodd" stroke="#000" stroke-linecap="round" stroke-linejoin="round"><style><![CDATA[.B{stroke-width:.787}.C{stroke:#fff}.D{stroke-linejoin:miter}.E{stroke:none}.F{fill:#036c9b}]]></style><use xlink:href="#A" x=".5" y=".5"/><symbol id="A" overflow="visible"><g class="F"><path d="M37.784 0l-6.691 6.297H0L7.872 0h29.912z" class="B C D"/><use xlink:href="#C" class="E"/><use xlink:href="#C" class="B C D"/></g><use xlink:href="#C" fill="none" class="B C D"/><g class="F"><path d="M31.093 50.379V36.997H0v13.382h31.093z" class="B C D"/><use xlink:href="#D" class="E"/><use xlink:href="#D" class="B C D"/></g><use xlink:href="#D" fill="none" class="B C D"/><path d="M36.997 44.475V31.093l-5.904 5.904v13.382l5.904-5.904z" class="B C D F"/><path d="M11.02 20.86H4.329v-1.574l-2.755 2.361 2.755 2.755v-1.968h6.691V20.86zm3.936 5.51v6.691h-1.968l2.755 2.755 2.361-2.755H16.53V26.37h-1.574zm0-9.052v-6.691h-1.968l2.755-2.755 2.361 2.755H16.53v6.691h-1.574zm5.117 5.116h7.084v1.968l2.361-2.755-2.361-2.361v1.574h-7.084v1.574z" class="E"/><g class="C"><g fill="none" class="B D"><path d="M26.365 32.674c-1.181 1.181-7.084-2.362-12.988-8.265S3.932 12.602 5.112 11.421c1.181-1.574 7.084 2.361 12.988 7.871 5.904 5.904 9.446 11.807 8.265 13.382z"/><path d="M25.971 11.027c1.574 1.574-2.361 7.084-8.265 12.988-5.51 5.904-11.414 9.839-12.988 8.659-1.181-1.181 2.361-7.084 8.265-12.988s11.807-9.839 12.988-8.659z"/></g><path d="M0 7.478v43.687" fill="none" class="B"/></g><path d="M18.494 25.589c1.968-1.574 2.755-4.723 1.181-6.691-1.574-2.361-4.723-2.755-7.084-1.181-1.968 1.574-2.755 4.329-1.181 6.691s4.723 2.755 7.084 1.181z" fill="#b5b5b5" class="E"/></symbol><defs ><path id="C" d="M31.093 37.39V6.297H0V37.39h31.093z"/><path id="D" d="M36.997 31.487V.394l-5.904 5.904V37.39l5.904-5.904z"/></defs></svg>