<svg xmlns="http://www.w3.org/2000/svg" xmlns:xlink="http://www.w3.org/1999/xlink" viewBox="0 0 39 39" fill="#fff" fill-rule="evenodd" stroke="#000" stroke-linecap="round" stroke-linejoin="round"><style><![CDATA[.B{stroke:#fff}.C{stroke-linejoin:miter}.D{stroke-width:.788}.E{stroke-linecap:square}]]></style><use xlink:href="#A" x=".5" y=".5"/><symbol id="A" overflow="visible"><g fill="#0b719f"><path d="M37.8 0l-1.181.394H0L.788 0H37.8z" class="B C D"/><g stroke="none"><path d="M37.8 36.225V0l-1.181.394v36.619l1.181-.788z"/><path d="M1.575 37.013h35.044V.394H0v35.044l1.575 1.575z"/></g></g><g fill="none" class="B C D"><path d="M33.858.4v21.262c0 1.575-1.181 1.181-1.181 1.181H3.933s-1.181 0-1.181-1.181V.4" class="E"/><path d="M1.969 4.332V2.363H.394v1.969h1.575zm34.256 0V2.363H34.65v1.969h1.575z"/></g><use xlink:href="#C" stroke="none"/><g class="C D"><g fill="none"><use xlink:href="#C" stroke="#0b719f"/><path d="M33.858 37.018V26.387s0-1.181-1.181-1.181h-25.2s-1.575 0-1.575 1.181v10.237" class="B E"/></g><path d="M14.569 36.226V25.988h-4.331v10.237h4.331z" fill="#0f73a0" class="B"/><path d="M36.619.394L37.8 0" fill="none" class="B E"/></g></symbol><defs ><path id="C" d="M27.952 26.387v10.237H5.902V26.387c0-1.181 1.575-1.181 1.575-1.181h19.294c1.181 0 1.181 1.181 1.181 1.181z"/></defs></svg>