<svg xmlns="http://www.w3.org/2000/svg" xmlns:xlink="http://www.w3.org/1999/xlink" viewBox="0 0 69 49" fill="#fff" fill-rule="evenodd" stroke="#000" stroke-linecap="round" stroke-linejoin="round"><use xlink:href="#A" x=".5" y=".5"/><symbol id="A" overflow="visible"><g stroke="#fff" stroke-linejoin="miter" fill="#036c9b" stroke-width=".787"><path d="M0 47.997h60.194V8.655H0v39.342z"/><path d="M67.276 37.769l-7.082 10.229V8.655L67.276 0v37.769z"/><path d="M10.622 0h56.653l-7.082 8.655H0L10.622 0z"/></g><path d="M18.491 29.901H8.655v-1.574h9.836v-2.754l5.901 3.541-5.901 3.147v-2.361zm21.245 0H29.506v-1.574h10.229v-2.754l5.508 3.541-5.508 3.147v-2.361zm-1.967-8.262l-8.262 5.508-.787-1.18 8.262-5.508-1.574-1.967 6.688-.393-2.754 5.901-1.574-2.361zm0 14.557l-8.262-5.508-.787 1.574 8.262 5.115-1.574 2.361 6.688.393-2.754-5.901-1.574 1.967z" stroke="none"/><path d="M21.633 16.137c-9.836-1.967-14.95 3.147-14.163 7.082l.393.393c-7.868 1.18-5.901 10.229-1.967 10.229-.787 4.328 8.262 8.262 12.983 6.295l.393-.393c1.574 3.934 7.868 4.328 14.163 4.721 5.115 0 8.262-.393 10.622-2.754h.393c8.655.787 12.589-5.114 10.622-9.442h.393c3.147-.787 3.147-7.475-1.574-8.655 1.967-4.721-3.147-8.655-10.229-7.868l-.393-.393c-5.114-4.328-19.671-3.541-21.245.787z" stroke="#fff" stroke-linejoin="miter" fill="none" stroke-width=".787"/></symbol></svg>