<svg xmlns="http://www.w3.org/2000/svg" xmlns:xlink="http://www.w3.org/1999/xlink" viewBox="0 0 29 5" fill="#fff" fill-rule="evenodd" stroke="#000" stroke-linecap="round" stroke-linejoin="round"><use xlink:href="#A" x=".5" y=".5"/><symbol id="A" overflow="visible"><path d="M1.958 3.133C.783 3.133 0 2.35 0 1.567S.783 0 1.958 0c.783 0 1.567.783 1.567 1.567s-.783 1.567-1.566 1.567zm7.833 0c-.783 0-1.566-.783-1.566-1.566S9.007 0 9.791 0s1.566.783 1.566 1.567-.783 1.567-1.566 1.567zm7.833 0c-.783 0-1.567-.783-1.567-1.566S16.84 0 17.624 0c1.175 0 1.958.783 1.958 1.567s-.783 1.567-1.958 1.567zm8.615 0c-.783 0-1.567-.783-1.567-1.566S25.455 0 26.239 0s1.566.783 1.566 1.567-.783 1.567-1.566 1.567z" stroke="none" fill="#0f73a0"/></symbol></svg>