<svg xmlns="http://www.w3.org/2000/svg" xmlns:xlink="http://www.w3.org/1999/xlink" viewBox="0 0 36 40" fill="#fff" fill-rule="evenodd" stroke="#000" stroke-linecap="round" stroke-linejoin="round"><use xlink:href="#A" x=".5" y=".5"/><symbol id="A" overflow="visible"><g fill="#036c9b"><path d="M34.618 8.654v16.128l-2.754 5.114V13.768l2.754-5.114z" stroke="#fff" stroke-linejoin="miter" stroke-width=".787"/><path d="M7.081 4.327H0L2.754 0h7.081l17.702 8.654h7.081l-2.754 5.114h-7.081z" stroke="none"/></g><g stroke="#fff" stroke-linejoin="miter" stroke-width=".787"><path d="M7.081 4.327H0L2.754 0h7.081l17.702 8.654h7.081l-2.754 5.114h-7.081" stroke-linecap="square" fill="none"/><path d="M7.081 4.327l17.702 9.441h7.081v16.128h-7.081L7.081 38.551H0V4.327h7.081z" fill="#036c9b"/></g><path d="M23.209 21.243v-1.967l5.901 2.36-5.901 2.754v-2.36H9.047v-.787h14.162zM8.654 13.769v-.787h9.834l5.901 3.147 1.18-1.967 4.327 5.507-6.687-.787.787-1.967-5.507-3.147H8.654zm9.834 16.128l5.507-3.147-.787-1.967 6.687-.787-4.327 5.114-1.18-1.573-5.901 3.147H8.654v-.787h9.834z" stroke="none"/></symbol></svg>