<svg xmlns="http://www.w3.org/2000/svg" xmlns:xlink="http://www.w3.org/1999/xlink" viewBox="0 0 58 41" fill="#fff" fill-rule="evenodd" stroke="#000" stroke-linecap="round" stroke-linejoin="round"><style><![CDATA[.B{stroke-linejoin:miter}.C{fill:none}.D{stroke-width:.788}.E{stroke-width:1.576}.F{stroke:#fff}]]></style><use xlink:href="#A" x=".5" y=".5"/><symbol id="A" overflow="visible"><g class="B C F"><use xlink:href="#C" class="D"/><use xlink:href="#D" class="E"/></g><use xlink:href="#E" class="B C D"/><use xlink:href="#F" class="B C E"/><g class="F"><use xlink:href="#C" class="B C D"/><use xlink:href="#D" class="B C E"/><g class="D"><g fill="#0f73a0"><path d="M0 9.061L12.213 0h44.123l-8.667 9.061H0z" class="B"/><path d="M47.669 39.79l8.667-9.061V0l-8.667 9.061V39.79z" class="B"/><path d="M47.669 39.79V9.061H0V39.79h47.669z" class="B"/></g><use xlink:href="#G" class="B C"/></g><use xlink:href="#H" class="B C E"/></g><use xlink:href="#I" class="B C D"/><use xlink:href="#J" class="B C E"/><g class="F"><use xlink:href="#G" class="B C D"/><use xlink:href="#H" class="B C E"/></g><use xlink:href="#I" class="B C D"/><use xlink:href="#J" class="B C E"/><g class="F"><use xlink:href="#G" class="B C D"/><use xlink:href="#H" class="B C E"/></g><use xlink:href="#E" class="B C D"/><use xlink:href="#F" class="B C E"/><g class="F"><use xlink:href="#C" class="B C D"/><use xlink:href="#D" class="B C E"/></g></symbol><defs ><path id="C" d="M43.724 32.311s-3.152 7.879-6.697 0c-3.546-8.273-6.697 0-6.697 0s-3.152 7.879-6.697 0c-3.94-8.273-7.091 0-7.091 0s-2.758 7.879-6.697 0c-3.546-8.273-6.697 0-6.697 0"/><path id="D" d="M3.147 32.311s3.152 7.879 6.697 0c3.94-8.273 6.697 0 6.697 0s3.152 7.879 7.091 0c3.546-8.273 6.697 0 6.697 0s3.152 7.879 6.697 0c3.546-8.273 6.697 0 6.697 0"/><path id="E" d="M44.512 32.311s-3.152 7.879-6.697 0c-3.94-8.273-6.697 0-6.697 0s-3.152 7.879-7.091 0c-3.546-8.273-6.697 0-6.697 0s-3.152 7.879-6.697 0c-3.546-8.273-6.697 0-6.697 0"/><path id="F" d="M3.935 32.311s3.152 7.879 6.697 0c3.546-8.273 6.697 0 6.697 0s3.152 7.879 6.697 0c3.939-8.273 7.091 0 7.091 0s2.758 7.879 6.697 0c3.546-8.273 6.697 0 6.697 0"/><path id="G" d="M43.724 16.947s-3.152 7.879-6.697 0-6.697 0-6.697 0-3.152 7.879-6.697 0c-3.94-7.879-7.091 0-7.091 0s-2.758 7.879-6.697 0c-3.546-7.879-6.697 0-6.697 0"/><path id="H" d="M3.147 16.947s3.152 7.879 6.697 0c3.94-7.879 6.697 0 6.697 0s3.152 7.879 7.091 0c3.546-7.879 6.697 0 6.697 0s3.152 7.879 6.697 0 6.697 0 6.697 0"/><path id="I" d="M44.512 16.947s-3.152 7.879-6.697 0c-3.94-7.879-6.697 0-6.697 0s-3.152 7.879-7.091 0c-3.546-7.879-6.697 0-6.697 0s-3.152 7.879-6.697 0-6.697 0-6.697 0"/><path id="J" d="M3.935 16.947s3.152 7.879 6.697 0 6.697 0 6.697 0 3.152 7.879 6.697 0c3.939-7.879 7.091 0 7.091 0s2.758 7.879 6.697 0c3.546-7.879 6.697 0 6.697 0"/></defs></svg>