<svg xmlns="http://www.w3.org/2000/svg" xmlns:xlink="http://www.w3.org/1999/xlink" viewBox="0 0 39.879 54" fill="#fff" fill-rule="evenodd" stroke="#000" stroke-linecap="round" stroke-linejoin="round"><style><![CDATA[.B{fill:none}.C{stroke:#fff}.D{fill:#036c9b}.E{stroke-width:.788}.F{stroke-linecap:square}.G{stroke-linejoin:miter}.H{stroke:none}.I{stroke-width:.394}]]></style><use xlink:href="#A" x=".5" y=".5"/><symbol id="A" overflow="visible"><g class="C D E G"><path d="M15.758 14.97L7.879 2.364 9.849 0l8.667 12.606-2.758 2.364z"/><path d="M7.879 52.788l7.879-12.606V14.97L7.879 2.364v50.424z"/></g><path d="M15.758 40.182V14.97z" class="D H"/><path d="M15.758 40.182V14.97" class="B C E F G"/><path d="M15.758 40.182V14.97z" class="D H"/><g class="C E G"><path d="M15.758 40.182V14.97" class="B F"/><g class="D"><path d="M28.364 40.182V14.97l2.364-2.364v25.212l-2.364 2.364z"/><path d="M28.364 14.97H16.152l2.364-2.364h12.212l-2.364 2.364z"/><path d="M16.152 14.97v25.212h12.212V14.97H16.152z"/></g><path d="M28.364 14.97H16.152" class="B F"/></g><path d="M16.152 40.182h12.212z" fill="#000" class="H"/><path d="M16.152 40.182h12.212" class="B C I"/><path d="M28.364 40.182V14.97z" class="D H"/><path d="M28.364 40.182V14.97" class="B C E F G"/><path d="M28.364 14.97H16.152z" class="D H"/><g class="B C"><path d="M28.364 14.97H16.152" class="E F G"/><g class="I"><path d="M15.758 26L7.879 12.606M15.758 26l-7.879-5.121m7.879 5.515L7.879 39.788"/><path d="M15.758 26.394l-7.879 5.121M15.758 26H7.879"/></g></g><g stroke="#036c9b"><path d="M7.879 12.606H0m7.879 8.273H0m7.879 5.515H0m7.879 4.727H0m7.879 8.667H0" class="B E"/><path d="M37.819 26.394h-8.273" stroke-width="2.758" class="B F"/></g></symbol></svg>