<svg xmlns="http://www.w3.org/2000/svg" xmlns:xlink="http://www.w3.org/1999/xlink" viewBox="0 0 42 43" fill="#fff" fill-rule="evenodd" stroke="#000" stroke-linecap="round" stroke-linejoin="round"><style><![CDATA[.B{stroke-width:.787}.C{fill:none}.D{stroke-linecap:square}.E{stroke:#fff}.F{stroke-linejoin:miter}.G{stroke:none}.H{fill:#000}.I{stroke-width:1.574}.J{fill:#0f73a0}]]></style><use xlink:href="#A" x=".5" y=".5"/><symbol id="A" overflow="visible"><path d="M33.833 41.701V7.081H0v34.62h33.833z" class="B E F J"/><path d="M17.703 18.49h10.622z" class="G H"/><path d="M17.703 18.49h10.622" class="B C D E F"/><path d="M17.703 30.686h10.622z" class="G H"/><path d="M17.703 30.686h10.622" class="B C D E F"/><path d="M14.556 24.785V14.163z" class="G H"/><g class="C D E F"><path d="M14.556 24.785V14.163" class="B"/><path d="M23.998 24.391v10.622" class="I"/></g><path d="M11.802 24.391v10.622z" class="G H"/><path d="M11.802 24.391v10.622" class="B C D E F"/><path d="M18.097 18.49H7.475z" class="G H"/><g class="E F"><g class="B"><path d="M18.097 18.49H7.475" class="C D"/><g class="J"><path d="M40.914 0v34.62l-7.081 7.081V7.081L40.914 0z"/><path d="M33.833 7.081H0L8.655 0h32.26l-7.081 7.081z"/></g></g><path d="M17.31 18.097h11.015" class="C D I"/><path d="M28.325 14.95v6.294l3.541-3.147-3.541-3.147z" class="B"/><path d="M17.31 30.292h11.802" class="C D I"/><path d="M28.325 27.145v5.901l3.541-2.754-3.541-3.147z" class="B"/><path d="M14.163 24.392v-9.835m6.295 10.229V14.163" class="C D I"/></g><path d="M20.064 24.391v-9.835z" class="G H"/><path d="M20.064 24.391v-9.835" class="B C D E F"/><path d="M23.211 23.998v11.409z" class="G H"/><g class="E F"><g class="B"><path d="M23.211 23.998v11.409" class="C D"/><path d="M26.358 35.013h-5.901l2.754 3.541 3.147-3.541z"/></g><path d="M11.409 23.998v11.409" class="C D I"/><path d="M14.556 35.013H8.655l2.754 3.541 3.147-3.541z" class="B"/><path d="M17.31 30.292H6.295" class="C D I"/><path d="M6.688 33.44v-5.901l-3.541 2.754 3.541 3.147z" class="B"/><path d="M17.31 18.097H6.295" class="C D I"/><path d="M6.688 21.244v-5.901l-3.541 2.754 3.541 3.147z" class="B"/></g><use xlink:href="#C" class="G J"/><use xlink:href="#C" class="B C E F"/><use xlink:href="#D" class="G"/><g class="B E F"><use xlink:href="#D" class="C"/><path d="M14.95 21.638h-.787v-.787h.787v.787zm0 1.967h-.787v-.787h.787v.787zm0 1.967h-.787v-.787h.787v.787zm0 1.967h-.787v-.787h.787v.787zm1.967-5.901h-.787v-.787h.787v.787zm0 1.967h-.787v-.787h.787v.787zm0 1.967h-.787v-.787h.787v.787zm0 1.967h-.787v-.787h.787v.787zm1.967-5.901h-.787v-.787h.787v.787zm0 1.967h-.787v-.787h.787v.787zm0 1.967h-.787v-.787h.787v.787zm0 1.967h-.787v-.787h.787v.787zm1.967-5.901h-.787v-.787h.787v.787zm0 1.967h-.787v-.787h.787v.787zm0 1.967h-.787v-.787h.787v.787zm0 1.967h-.787v-.787h.787v.787z" class="H"/></g></symbol><defs ><path id="C" d="M17.305 31.479a7.05 7.05 0 0 0 7.081-7.081c0-3.934-3.147-7.475-7.081-7.475s-7.081 3.541-7.081 7.475a7.05 7.05 0 0 0 7.081 7.081z"/><path id="D" d="M27.14 14.169c.393 0 .393 0 .393-.393v-3.541c0-.393 0-.393-.393-.393H7.863s-.393 0-.393.393v3.541c0 .393.393.393.393.393h3.541v-1.18h11.409v1.18z"/></defs></svg>