<svg xmlns="http://www.w3.org/2000/svg" xmlns:xlink="http://www.w3.org/1999/xlink" viewBox="0 0 95 46" fill="#fff" fill-rule="evenodd" stroke="#000" stroke-linecap="round" stroke-linejoin="round"><style><![CDATA[.B{fill:#0f73a0}.C{stroke:#fff}.D{stroke-linejoin:miter}.E{stroke-width:.787}.F{stroke:none}.G{fill:none}.H{stroke-linecap:square}]]></style><use xlink:href="#A" x=".5" y=".5"/><symbol id="A" overflow="visible"><g class="B C D E"><path d="M0 44.455v-20.85h62.553v20.85H0z"/><path d="M0 23.606h62.553l9.835-9.835H12.195L0 23.606z"/><path d="M62.553 44.455l9.835-11.409V13.769l-9.835 9.835v20.85zM17.309 11.408l-.787 4.328h7.474l-.787-4.328h-5.901z"/><path d="M7.474 18.097l-.787 4.328h7.869l-.787-4.328H7.474zm10.622-1.572h4.721l-1.18-2.36-3.541 2.361z"/></g><use xlink:href="#C" class="B F"/><use xlink:href="#C" class="C D E G"/><use xlink:href="#D" class="B F"/><g class="C D E"><use xlink:href="#D" class="G"/><g class="B"><path d="M31.866 0l-9.835 10.229h1.18L33.046 0h-1.18z"/><path d="M41.701 13.769l-9.835 9.835-8.655-13.376L33.046 0l8.655 13.769z"/></g><path d="M30.293 23.605l-8.262-13.376h1.18l8.655 13.376h-1.574z" fill="#0b719f"/><g class="B"><path d="M93.631 16.917l-9.835 10.229-21.244 7.475 10.229-10.229 20.851-7.475z"/><path d="M93.631 18.491l-9.835 10.229v-1.574l9.835-10.229v1.574z"/><path d="M62.552 34.62v1.18l21.244-7.081v-1.574L62.552 34.62z"/></g></g><path d="M31.472 2.361l8.262 12.983z" class="B F"/><path d="M31.472 2.361l8.262 12.982" class="C D E G H"/><path d="M29.505 4.328l8.262 12.983z" class="B F"/><path d="M29.505 4.328l8.262 12.982" class="C D E G H"/><path d="M27.538 6.295l7.868 12.983z" class="B F"/><path d="M27.538 6.295l7.868 12.982" class="C D E G H"/><path d="M25.571 8.262l7.868 12.983z" class="B F"/><path d="M25.571 8.262l7.868 12.982" class="C D E G H"/></symbol><defs ><path id="C" d="M17.305 11.416c-5.114-.393-9.835 5.508-9.835 6.688h6.295c0-1.18 4.327-7.081 9.442-6.688z"/><path id="D" d="M23.993 15.743l-1.18.787-1.18-2.36-3.934 2.754-.393 3.541-2.754 1.967-.787-4.327c0-1.18 4.328-7.081 9.442-6.688z"/></defs></svg>