<svg xmlns="http://www.w3.org/2000/svg" xmlns:xlink="http://www.w3.org/1999/xlink" viewBox="0 0 58 34" fill="#fff" fill-rule="evenodd" stroke="#000" stroke-linecap="round" stroke-linejoin="round"><style><![CDATA[.B{fill:#036c9b}.C{stroke:#fff}.D{stroke-linejoin:miter}.E{stroke-width:.788}.F{stroke:none}.G{stroke-linecap:square}.H{fill:none}]]></style><use xlink:href="#A" x=".5" y=".5"/><symbol id="A" overflow="visible"><g class="B"><path d="M52.396 32.305V4.334H0v27.971h52.396z" class="C D E"/><path d="M52.396 32.305V4.334H0v27.971h52.396z" class="F"/></g><g class="C D E"><path d="M52.396 32.305V4.334H0v27.971h52.396" class="G H"/><path d="M0 4.334L4.334 0H56.73l-4.334 4.334H0z" class="B"/></g><path d="M0 4.334L4.334 0H56.73l-4.334 4.334H0z" class="B F"/><g class="C D E"><path d="M0 4.334L4.334 0H56.73l-4.334 4.334H0" class="G H"/><path d="M52.396 32.305l4.334-3.152V0l-4.334 4.334v27.971z" class="B"/></g><path d="M52.396 32.305l4.334-3.152V0l-4.334 4.334v27.971z" class="B F"/><g class="C D E"><path d="M52.396 32.305l4.334-3.152V0l-4.334 4.334v27.971" class="G H"/><use xlink:href="#C" class="B"/></g><use xlink:href="#C" class="B F"/><path d="M4.334 13.789v9.455l1.182 1.182h9.455l1.182-1.182v-9.455l-1.182-1.182H5.516l-1.182 1.182" class="C D E G H"/><path d="M4.334 13.789l1.182 1.182 5.122.788 4.334-.788 1.182-1.182z" class="B F"/><g class="C D E"><path d="M4.334 13.789l1.182 1.182 5.122.788 4.334-.788 1.182-1.182" class="G H"/><use xlink:href="#D" class="B"/></g><use xlink:href="#D" class="B F"/><path d="M20.486 13.789v9.455l.788 1.182h9.849l.788-1.182v-9.455l-.788-1.182h-9.849l-.788 1.182" class="C D E G H"/><path d="M20.486 13.789l.788 1.182 5.515.788 4.334-.788.788-1.182z" class="B F"/><g class="C D E"><path d="M20.486 13.789l.788 1.182 5.515.788 4.334-.788.788-1.182" class="G H"/><use xlink:href="#E" class="B"/></g><use xlink:href="#E" class="B F"/><path d="M36.244 14.971v8.273l1.182 1.182 5.121 1.182 4.334-1.182 1.182-1.182v-8.273l-1.182-1.182-4.334-1.182-5.121 1.182-1.182 1.182" class="C D E G H"/><path d="M36.244 14.97l1.182.788h9.455l1.182-.788z" class="B F"/><path d="M36.244 14.97l1.182.788h9.455l1.182-.788" class="C D E G H"/></symbol><defs ><path id="C" d="M4.334 13.789v9.455l1.182 1.182h9.455l1.182-1.182v-9.455l-1.182-1.182H5.516l-1.182 1.182z"/><path id="D" d="M20.486 13.789v9.455l.788 1.182h9.849l.788-1.182v-9.455l-.788-1.182h-9.849l-.788 1.182z"/><path id="E" d="M36.244 14.971v8.273l1.182 1.182 5.121 1.182 4.334-1.182 1.182-1.182v-8.273l-1.182-1.182-4.334-1.182-5.121 1.182-1.182 1.182z"/></defs></svg>