<svg xmlns="http://www.w3.org/2000/svg" xmlns:xlink="http://www.w3.org/1999/xlink" viewBox="0 0 33 48" fill="#fff" fill-rule="evenodd" stroke="#000" stroke-linecap="round" stroke-linejoin="round"><style><![CDATA[.B{stroke:none}.C{fill:none}.D{fill:#000}.E{stroke-width:.393}.F{stroke-width:.787}.G{stroke-linecap:square}.H{fill:#036c9b}.I{stroke-linejoin:miter}]]></style><use xlink:href="#A" x=".5" y=".5"/><symbol id="A" overflow="visible"><g class="B H"><use xlink:href="#C"/><use xlink:href="#D"/></g><g stroke="#fff"><g class="F I"><use xlink:href="#E" class="C G"/><use xlink:href="#C" class="H"/></g><g class="C"><use xlink:href="#F" class="F"/><g class="I"><use xlink:href="#E" class="F G"/><use xlink:href="#C" class="F"/><use xlink:href="#F" class="F G"/></g></g></g><g class="B H"><use xlink:href="#C"/><use xlink:href="#D"/></g><g stroke="#fff" class="F I"><use xlink:href="#E" class="C G"/><use xlink:href="#C" class="H"/></g><path d="M23.995 7.474L31.862 0z" class="B D"/><g stroke="#fff" class="C F"><use xlink:href="#F"/><g class="I"><use xlink:href="#E" class="G"/><use xlink:href="#C"/><use xlink:href="#F" class="G"/></g></g><use xlink:href="#G" class="B"/><use xlink:href="#G" class="C E"/><g class="B"><g class="D"><use xlink:href="#H"/><use xlink:href="#I"/></g><use xlink:href="#J"/></g><use xlink:href="#J" class="C E"/><g class="B"><g class="D"><use xlink:href="#K"/><use xlink:href="#H" y="-2.754"/></g><use xlink:href="#L"/></g><use xlink:href="#L" class="C E"/><g class="B"><use xlink:href="#I" y="-2.753" class="D"/><use xlink:href="#G" y="-7.474"/></g><use xlink:href="#G" y="-7.474" class="C E"/><g class="B"><g class="D"><use xlink:href="#H" y="-7.474"/><use xlink:href="#I" y="-7.473"/></g><use xlink:href="#G" y="-9.441"/></g><use xlink:href="#G" y="-9.441" class="C E"/><g class="B"><g class="D"><use xlink:href="#H" y="-9.441"/><use xlink:href="#I" y="-9.44"/></g><use xlink:href="#J" y="-9.44"/></g><use xlink:href="#J" y="-9.44" class="C E"/><g class="B"><use xlink:href="#K" y="-9.44" class="D"/><use xlink:href="#L" y="-11.407"/></g><use xlink:href="#L" y="-11.407" class="C E"/><g class="B"><g class="D"><use xlink:href="#I" y="-14.16"/><use xlink:href="#K" y="-14.16"/></g><use xlink:href="#G" y="-16.914"/></g><use xlink:href="#G" y="-16.914" class="C E"/><g class="B"><g class="D"><use xlink:href="#H" y="-16.914"/><use xlink:href="#I" y="-16.914"/></g><use xlink:href="#G" y="-18.881"/></g><use xlink:href="#G" y="-18.881" class="C E"/><g class="B"><use xlink:href="#H" y="-18.881" class="D"/><use xlink:href="#G" x="10.228"/></g><use xlink:href="#G" x="10.228" class="C E"/><g class="B"><g class="D"><use xlink:href="#H" x="10.227"/><use xlink:href="#I" x="10.227"/></g><use xlink:href="#J" x="10.228"/></g><use xlink:href="#J" x="10.228" class="C E"/><g class="B"><g class="D"><use xlink:href="#K" x="10.227"/><use xlink:href="#H" x="10.227" y="-2.754"/></g><use xlink:href="#L" x="10.228"/></g><use xlink:href="#L" x="10.228" class="C E"/><g class="B"><use xlink:href="#I" x="10.227" y="-2.753" class="D"/><use xlink:href="#G" x="10.228" y="-7.474"/></g><use xlink:href="#G" x="10.228" y="-7.474" class="C E"/><g class="B"><g class="D"><use xlink:href="#H" x="10.227" y="-7.474"/><use xlink:href="#I" x="10.227" y="-7.473"/></g><use xlink:href="#G" x="10.228" y="-9.441"/></g><use xlink:href="#G" x="10.228" y="-9.441" class="C E"/><g class="B"><g class="D"><use xlink:href="#H" x="10.227" y="-9.441"/><use xlink:href="#I" x="10.227" y="-9.44"/></g><use xlink:href="#J" x="10.228" y="-9.44"/></g><use xlink:href="#J" x="10.228" y="-9.44" class="C E"/><g class="B"><use xlink:href="#K" x="10.227" y="-9.44" class="D"/><use xlink:href="#L" x="10.228" y="-11.407"/></g><use xlink:href="#L" x="10.228" y="-11.407" class="C E"/><g class="B"><g class="D"><use xlink:href="#I" x="10.227" y="-14.16"/><use xlink:href="#K" x="10.227" y="-14.16"/></g><use xlink:href="#G" x="10.228" y="-16.914"/></g><use xlink:href="#G" x="10.228" y="-16.914" class="C E"/><g class="B"><g class="D"><use xlink:href="#H" x="10.227" y="-16.914"/><use xlink:href="#I" x="10.227" y="-16.914"/></g><use xlink:href="#G" x="10.228" y="-18.881"/></g><use xlink:href="#G" x="10.228" y="-18.881" class="C E"/><use xlink:href="#H" x="10.227" y="-18.881" class="B D"/></symbol><defs ><path id="C" d="M23.995 46.022l7.867-7.474V0H7.867L0 7.474h23.995v38.549z"/><path id="D" d="M23.995 7.474L31.862 0zm0 0H0v38.549h23.995z"/><path id="E" d="M23.995 7.474H0v38.549h23.995"/><path id="F" d="M23.995 7.474L31.862 0"/><path id="G" d="M11.402 36.982c0 .787-1.967 1.573-4.72 1.573-2.36 0-4.327-.787-4.327-1.573 0-1.18 1.967-1.967 4.327-1.967 2.753 0 4.72.787 4.72 1.967z"/><path id="H" d="M8.255 36.588c0 .393-.787.787-1.573.787s-1.18-.393-1.18-.787c0 0 .393-.393 1.18-.393s1.573.393 1.573.393z"/><path id="I" d="M8.255 35.801c0 .393-.787.393-1.573.393s-1.18 0-1.18-.393.393-.393 1.18-.393 1.573 0 1.573.393z"/><path id="J" d="M11.402 35.014c0 .787-1.967 1.573-4.72 1.573-2.36 0-4.327-.787-4.327-1.573 0-1.18 1.967-1.573 4.327-1.573 2.753 0 4.72.393 4.72 1.573z"/><path id="K" d="M8.255 35.015s-.787.393-1.573.393-1.18-.393-1.18-.393c0-.393.393-.787 1.18-.787s1.573.393 1.573.787z"/><path id="L" d="M11.402 33.048c0 1.18-1.967 1.967-4.72 1.967-2.36 0-4.327-.787-4.327-1.967 0-.787 1.967-1.573 4.327-1.573 2.753 0 4.72.787 4.72 1.573z"/></defs></svg>