<svg xmlns="http://www.w3.org/2000/svg" xmlns:xlink="http://www.w3.org/1999/xlink" viewBox="0 0 77 57" fill="#fff" fill-rule="evenodd" stroke="#000" stroke-linecap="round" stroke-linejoin="round"><use xlink:href="#A" x=".5" y=".5"/><symbol id="A" overflow="visible"><g stroke="#fff" stroke-linejoin="miter" fill="#036c9b" stroke-width=".787"><path d="M56.263 36.591V18.492H0v18.099h56.263z"/><path d="M0 18.492L22.82 0h52.329L56.263 18.492H0z"/><path d="M56.263 36.984l18.885-20.066V0L56.263 18.492v18.492z"/></g><path d="M33.049 13.77l-1.18.787H17.705l-1.18 1.18-3.934-1.574 7.869-1.967-1.574 1.574h14.164zm11.016-7.082l-1.18.787H28.721l-1.18 1.574-3.934-1.574 7.869-2.361-1.574 1.574h14.164zm-8.656 4.328l1.18-.787h13.771l1.574-1.18 3.935 1.574L48 12.59l1.574-1.574H35.41zm7.476-6.689l.787-.787h14.164l1.574-1.574 3.541 1.574-7.475 2.361 1.18-1.574H42.886z" stroke="none"/><g stroke="#fff" stroke-linejoin="miter" fill="#036c9b" stroke-width=".787"><path d="M56.263 54.296V36.197H0v18.099h56.263z"/><path d="M56.263 55.082l18.885-20.459V17.705L56.263 36.197v18.885z"/></g><path d="M21.64 26.754H11.017v-.787l-3.935 1.574 3.935 1.18v-.787H21.64v-1.18zm5.902 3.148v3.935h-2.754l3.935 1.18 4.328-1.18h-2.754v-3.934h-2.754zm0-5.115v-3.541h-2.754l3.935-1.574 4.328 1.574h-2.754v3.541h-2.754zm8.656 3.148h10.23v.787l4.328-1.18-4.328-1.574v.787h-10.23v1.18z" stroke="none"/><g stroke="#fff" stroke-linejoin="miter" stroke-width=".787" fill="none"><path d="M45.635 33.45c-1.967.787-11.016-1.18-20.066-4.721-9.443-3.148-14.951-6.295-12.984-7.082s11.017 1.18 20.066 4.721c9.049 3.148 14.951 6.295 12.984 7.082z"/><path d="M45.242 21.646c1.967.787-3.541 3.935-12.984 7.082-9.049 3.148-18.098 5.508-20.066 4.721-2.361-.787 3.541-3.934 12.59-7.082 9.443-3.541 18.492-5.508 20.459-4.721z"/></g><path d="M33.045 29.515c3.541-.787 4.328-2.361 1.967-3.541-2.361-1.574-7.082-1.574-10.623-.787s-4.328 2.361-1.967 3.541c2.361 1.574 7.082 1.574 10.623.787z" stroke="none" fill="#b5b5b5"/></symbol></svg>