<svg xmlns="http://www.w3.org/2000/svg" xmlns:xlink="http://www.w3.org/1999/xlink" viewBox="0 0 39 48" fill="#fff" fill-rule="evenodd" stroke="#000" stroke-linecap="round" stroke-linejoin="round"><style><![CDATA[.B{fill:#0f73a0}.C{stroke:none}.D{stroke:#fff}.E{stroke-linejoin:miter}.F{stroke-width:.787}.G{stroke-linecap:square}.H{fill:none}]]></style><use xlink:href="#A" x=".5" y=".5"/><symbol id="A" overflow="visible"><path d="M29.923 7.875H5.906v38.586h24.018z" class="B C"/><g class="D E F"><path d="M29.923 7.875H5.906v38.585h24.018" class="G H"/><path d="M29.923 46.46l7.875-7.875V0H13.387L5.906 7.875h24.018V46.46z" class="B"/></g><path d="M6.3 19.687h23.624z" class="B C"/><path d="M6.3 19.687h23.624" class="D E F G H"/><path d="M6.3 31.892h23.624z" class="B C"/><path d="M6.3 31.892h23.624" class="D E F G H"/><path d="M14.962 13.387h6.693z" class="B C"/><g class="D E F"><path d="M14.962 13.387h6.693" class="G H"/><path d="M24.412 15.749v-4.725H12.206v4.725h12.206z" class="B"/></g><path d="M14.962 38.192h6.693z" class="B C"/><g class="D E F"><path d="M14.962 38.192h6.693" class="G H"/><path d="M24.412 40.555v-5.118H12.206v5.118h12.206z" class="B"/></g><path d="M6.3 43.704h23.624z" class="B C"/><g class="D E F"><path d="M6.3 43.704h23.624" class="G H"/><path d="M24.411 37.01l5.512-5.118v-9.056H5.512L0 28.348h24.411v8.662z" class="B"/></g><path d="M24.411 28.348l5.512-5.512z" class="B C"/><g class="D E F"><path d="M24.411 28.348l5.512-5.512" class="G H"/><path d="M24.411 37.011H0V24.805h24.411v12.206z" class="B"/></g><path d="M9.45 31.105h6.693z" class="B C"/><g class="D E F"><path d="M9.45 31.105h6.693" class="G H"/><path d="M18.899 33.467v-4.725H6.693v4.725h12.206z" class="B"/></g></symbol></svg>