<svg xmlns="http://www.w3.org/2000/svg" xmlns:xlink="http://www.w3.org/1999/xlink" viewBox="0 0 40 64" fill="#fff" fill-rule="evenodd" stroke="#000" stroke-linecap="round" stroke-linejoin="round"><style><![CDATA[.B{stroke-width:.787}.C{stroke:#fff}.D{stroke:none}.E{fill:#036c9b}.F{stroke-linejoin:miter}]]></style><use xlink:href="#A" x=".5" y=".5"/><symbol id="A" overflow="visible"><g class="C"><g class="B E F"><path d="M38.56.394l-4.328 4.722H0L5.902.394H38.56z"/><path d="M0 18.886V5.115h34.232v13.771H0z"/><path d="M38.56 14.165V.394l-4.328 4.722v13.771l4.328-4.722z"/><path d="M34.232 18.493v27.543l4.328-4.721V14.165l-4.328 4.328z"/></g><path d="M34.231 9.443H.393m36.592-7.082H2.754m31.477 11.804H.393m38.56-9.837L34.625 9.05m4.328 0l-4.328 4.722" fill="none" class="B"/></g><path d="M10.23 5.115v4.328z" fill="#000" class="D"/><path d="M10.231 5.115v4.328m13.378-4.328v4.328m-13.378 4.722v4.328m13.378-4.328v4.328m-6.296-9.05v4.328M3.935 9.443v4.328m26.362-4.328v4.328M15.346 0l-5.115 4.722M28.33 0l-4.722 4.722" fill="none" class="B C"/><path d="M34.232 18.493v27.149H0V18.493z" class="D E"/><g class="B C F"><path d="M34.232 18.493v27.149H0V18.493" stroke-linecap="square" fill="none"/><g class="E"><path d="M0 62.561V45.642h34.232v16.919H0z"/><path d="M38.56 57.84V41.314l-4.328 4.328v16.919l4.328-4.722z"/></g></g><g class="D"><path d="M17.706 29.117v-5.902h1.18l-1.574-2.361-1.574 2.361h1.18v5.902h.787zm-2.754.787l-4.328-4.328.787-.393-2.754-.787.787 2.754.393-.787 4.328 4.328.787-.787zm-1.574 2.754H7.476v-1.18l-2.361 1.574 2.361 1.574v-1.18h5.902v-.787zm.787 3.148L9.837 39.74l-.393-.787-.787 2.754 2.754-.394-.787-.787 4.328-4.328-.787-.393zm2.754-.787v11.41h-1.18l1.574 2.361 1.574-2.361h-1.18v-11.41h-.787zm3.148 1.18l3.935 4.328-.787.787 2.754.394-.393-2.754-.787.787-4.328-3.935-.393.393zm1.18-2.754h6.295v1.18l1.967-1.574-1.967-1.574v1.18h-6.295v.787zm-.787-2.754l4.328-4.328.787.787.393-2.754-2.754.787.787.393-3.935 4.328.393.787z"/><path d="M20.849 38.173c2.754-1.967 3.541-5.902 1.574-8.656s-5.508-3.541-8.656-1.574c-2.754 1.967-3.148 5.902-1.18 8.656s5.508 3.541 8.263 1.574z"/></g><path d="M36.986 2.361v13.771" fill="none" class="B C"/><path d="M16.919 52.331h9.05v-.787l3.148 1.574-3.148 1.967v-.787h-9.05v-1.967zm0 5.509h9.05v-.787l3.148 1.574-3.148 1.967v-.787h-9.05V57.84zm.393-8.263h-9.05v-.787l-3.148 1.574 3.148 1.967v-.787h9.05v-1.967zm0 5.509h-9.05v-.787l-3.148 1.967 3.148 1.574v-.787h9.05v-1.967z" class="D"/><path d="M34.231 18.886H.393m38.56-5.115l-4.328 4.722m-.394 27.149H.393m38.166-4.328l-3.935 4.328" fill="none" class="B C"/></symbol></svg>