<svg xmlns="http://www.w3.org/2000/svg" xmlns:xlink="http://www.w3.org/1999/xlink" viewBox="0 0 24 52" fill="#fff" fill-rule="evenodd" stroke="#000" stroke-linecap="round" stroke-linejoin="round"><style><![CDATA[.B{stroke:#fff}.C{stroke-linejoin:miter}.D{fill:#036c9b}.E{stroke-width:.787}.F{stroke:none}.G{stroke-linecap:square}.H{fill:none}]]></style><use xlink:href="#A" x=".5" y=".5"/><symbol id="A" overflow="visible"><g class="B C D E"><path d="M0 50.378V8.659h12.595v41.719H0z"/><path d="M12.595 8.659H0L11.414 0H22.04l-9.446 8.659z"/><path d="M22.041 0v39.752l-9.446 10.627V8.659L22.041 0z"/></g><path d="M19.285 9.053V2.362z" class="D F"/><path d="M19.285 9.053V2.362" class="B C E G H"/><path d="M19.285 22.828v-6.691z" class="D F"/><path d="M19.285 22.828v-6.691" class="B C E G H"/><path d="M19.285 36.209v-6.691z" class="D F"/><path d="M19.285 36.209v-6.691" class="B C E G H"/><path d="M22.041 33.061l-9.446 10.627z" class="D F"/><path d="M22.041 33.061l-9.446 10.627" class="B C E G H"/><path d="M22.041 26.37l-9.446 10.233z" class="D F"/><path d="M22.041 26.37l-9.446 10.233" class="B C E G H"/><path d="M22.041 19.679l-9.446 9.839z" class="D F"/><path d="M22.041 19.679l-9.446 9.839" class="B C E G H"/><path d="M22.041 12.988l-9.446 9.84z" class="D F"/><path d="M22.041 12.988l-9.446 9.84" class="B C E G H"/><path d="M22.041 6.691l-9.446 9.052z" class="D F"/><path d="M22.041 6.691l-9.446 9.052" class="B C E G H"/><path d="M12.595 8.659L22.041 0z" class="D F"/><path d="M12.595 8.659L22.041 0" class="B C E G H"/><path d="M12.595 43.294H0z" class="D F"/><path d="M12.595 43.294H0" class="B C E G H"/><path d="M12.595 36.603H0z" class="D F"/><path d="M12.595 36.603H0" class="B C E G H"/><path d="M12.595 29.518H0z" class="D F"/><path d="M12.595 29.518H0" class="B C E G H"/><path d="M12.595 22.434H0z" class="D F"/><path d="M12.595 22.434H0" class="B C E G H"/><path d="M12.595 15.743H0z" class="D F"/><path d="M12.595 15.743H0" class="B C E G H"/><path d="M16.137 46.836v-7.084z" class="D F"/><path d="M16.137 46.836v-7.084" class="B C E G H"/><path d="M16.137 33.061V26.37z" class="D F"/><path d="M16.137 33.061V26.37" class="B C E G H"/><path d="M16.137 19.286v-6.691z" class="D F"/><path d="M16.137 19.286v-6.691" class="B C E G H"/></symbol></svg>