<svg xmlns="http://www.w3.org/2000/svg" xmlns:xlink="http://www.w3.org/1999/xlink" viewBox="0 0 33 40" fill="#fff" fill-rule="evenodd" stroke="#000" stroke-linecap="round" stroke-linejoin="round"><style><![CDATA[.B{fill:#036c9b}.C{stroke:none}.D{stroke:#fff}.E{stroke-linejoin:miter}.F{stroke-width:.787}.G{stroke-linecap:square}.H{fill:none}]]></style><use xlink:href="#A" x=".5" y=".5"/><symbol id="A" overflow="visible"><path d="M8.26 6.294H0v32.255h8.26z" class="B C"/><g class="D E F"><path d="M8.26 6.294H0v32.255h8.26" class="G H"/><path d="M8.26 38.549l6.294-6.294V0H5.9L0 6.294h8.26v32.255z" class="B"/></g><path d="M8.26 6.294L14.554 0z" class="B C"/><path d="M8.26 6.294L14.554 0" class="D E F G H"/><path d="M16.914 6.294H8.26v32.255h8.654z" class="B C"/><g class="D E F"><path d="M16.914 6.294H8.26v32.255h8.654" class="G H"/><path d="M16.914 38.549l5.9-6.294V0h-8.26L8.26 6.294h8.654v32.255z" class="B"/></g><path d="M16.914 6.294L22.814 0z" class="B C"/><path d="M16.914 6.294L22.814 0" class="D E F G H"/><path d="M25.174 6.294h-8.26v32.255h8.26z" class="B C"/><g class="D E F"><path d="M25.174 6.294h-8.26v32.255h8.26" class="G H"/><path d="M25.174 38.549l6.294-6.294V0h-8.654l-5.9 6.294h8.26v32.255z" class="B"/></g><path d="M25.175 6.294L31.469 0z" class="B C"/><g class="D E F"><path d="M25.175 6.294L31.469 0" class="G H"/><path d="M23.994 11.8V7.08h-5.9v4.72h5.9zm0 5.114v-4.327h-5.9v4.327h5.9zm0 18.094v-4.72h-5.9v4.72h5.9z" class="B"/></g></symbol></svg>