<svg xmlns="http://www.w3.org/2000/svg" xmlns:xlink="http://www.w3.org/1999/xlink" viewBox="0 0 61 44" fill="#fff" fill-rule="evenodd" stroke="#000" stroke-linecap="round" stroke-linejoin="round"><use xlink:href="#A" x=".5" y=".5"/><symbol id="A" overflow="visible"><use xlink:href="#C" stroke="none"/><g stroke="#0e6f9c" stroke-linejoin="miter"><g fill="none"><use xlink:href="#C" stroke-width=".787"/><g stroke-width="3.15"><path d="M25.252 11.434v26.771h25.197V11.434H25.252z"/><g stroke-linecap="square"><path d="M25.252 11.434l25.197 26.771"/><path d="M25.252 38.205l25.197-26.771"/></g></g></g><path d="M29.189 15.371V7.103h-7.874v8.268h7.874zm25.197 0V7.103h-7.874v8.268h7.874zM29.189 42.536v-8.268h-7.874v8.268h7.874zm25.197 0v-8.268h-7.874v8.268h7.874zM41.787 28.756v-8.268H33.52v8.268h8.268z" stroke-width=".787"/></g></symbol><defs ><path id="C" d="M20.523 3.961c-10.236-1.968-15.748 3.15-14.96 7.874v.394C-2.705 13.41-.343 23.252 3.594 23.252h.394c-1.181 4.331 8.267 9.055 13.779 6.693l.394-.394c1.968 3.937 8.661 4.724 15.354 5.118 5.512 0 9.055-.394 11.417-3.149l.394.394c9.055.787 13.386-5.905 11.417-10.236l.394-.394c3.149-.787 3.543-7.874-1.969-9.055l.394-.394c2.362-4.724-3.149-9.055-11.023-8.268l-.394-.394c-5.512-4.724-21.259-3.937-23.228.787z"/></defs></svg>