<svg xmlns="http://www.w3.org/2000/svg" xmlns:xlink="http://www.w3.org/1999/xlink" viewBox="0 0 68 102" fill="#fff" fill-rule="evenodd" stroke="#000" stroke-linecap="round" stroke-linejoin="round"><style><![CDATA[.B{stroke:none}.C{stroke:#fff}.D{stroke-linejoin:miter}.E{stroke-width:.787}.F{stroke-linecap:square}.G{fill:none}.H{fill:#0b719f}.I{fill:#0f73a0}]]></style><use xlink:href="#A" x=".5" y=".5"/><symbol id="A" overflow="visible"><path d="M13.384 60.624H0v39.76h13.384z" class="B I"/><g class="C D E"><path d="M13.384 60.624H0v39.76h13.384" class="F G"/><path d="M13.384 100.383l7.48-7.48v-39.76H7.48L0 60.624h13.384v39.76z" class="I"/></g><path d="M13.384 60.624l7.48-7.48z" class="B H"/><path d="M13.384 60.624l7.48-7.48" class="C D E F G"/><path d="M40.547 11.023H13.384v89.361h27.163z" class="B I"/><g class="C D E"><path d="M40.547 11.023H13.384v89.361h27.163" class="F G"/><path d="M40.547 100.383l11.023-11.022V0H24.406L13.384 11.023h27.163v89.361z" class="I"/></g><path d="M40.547 11.023L51.57 0z" class="B H"/><path d="M40.547 11.023L51.57 0" class="C D E F G"/><path d="M55.506 25.194H40.941v75.189h14.565z" class="B I"/><g class="C D E"><path d="M55.506 25.194H40.941v75.189h14.565" class="F G"/><path d="M55.506 100.383l11.023-10.629V14.565H51.57L40.941 25.194h14.565v75.189z" class="I"/></g><path d="M55.506 25.194l11.023-10.629z" class="B H"/><path d="M55.506 25.194l11.023-10.629" class="C D E F G"/><path d="M27.556 47.633v4.33h3.937z" class="B H"/><path d="M27.556 47.633v4.33h3.937" class="C D E F G"/><path d="M33.461 47.633v4.33h3.937z" class="B H"/><path d="M33.461 47.633v4.33h3.937" class="C D E F G"/><path d="M15.746 48.026v3.937h4.33z" class="B H"/><path d="M15.746 48.026v3.937h4.33" class="C D E F G"/><path d="M21.651 48.026v3.937h4.33z" class="B H"/><path d="M21.651 48.026v3.937h4.33" class="C D E F G"/><path d="M27.556 56.293v4.33h3.937z" class="B H"/><path d="M27.556 56.293v4.33h3.937" class="C D E F G"/><path d="M33.461 56.293v4.33h3.937z" class="B H"/><path d="M33.461 56.293v4.33h3.937" class="C D E F G"/><path d="M15.746 56.687v3.937h4.33z" class="B H"/><path d="M15.746 56.687v3.937h4.33" class="C D E F G"/><path d="M21.651 56.687v3.937h3.937z" class="B H"/><path d="M21.651 56.687v3.937h3.937" class="C D E F G"/><path d="M27.556 64.954v3.937h3.937z" class="B H"/><path d="M27.556 64.954v3.937h3.937" class="C D E F G"/><path d="M33.461 64.954v3.937h3.937z" class="B H"/><path d="M33.461 64.954v3.937h3.937" class="C D E F G"/><path d="M15.746 64.954v3.937h4.33z" class="B H"/><path d="M15.746 64.954v3.937h4.33" class="C D E F G"/><path d="M21.651 64.954v3.937h3.937z" class="B H"/><path d="M21.651 64.954v3.937h3.937" class="C D E F G"/><path d="M27.556 72.433v4.33h3.937z" class="B H"/><path d="M27.556 72.433v4.33h3.937" class="C D E F G"/><path d="M33.461 72.433v4.33h3.937z" class="B H"/><path d="M33.461 72.433v4.33h3.937" class="C D E F G"/><path d="M15.746 72.433v4.33h4.33z" class="B H"/><path d="M15.746 72.433v4.33h4.33" class="C D E F G"/><path d="M21.651 72.433v4.33h3.937z" class="B H"/><path d="M21.651 72.433v4.33h3.937" class="C D E F G"/><path d="M43.696 28.737v4.33h3.937z" class="B H"/><path d="M43.696 28.737v4.33h3.937" class="C D E F G"/><path d="M49.207 28.737v4.33h4.33z" class="B H"/><path d="M49.207 28.737v4.33h4.33" class="C D E F G"/><path d="M43.303 36.61v3.937h4.33z" class="B H"/><path d="M43.303 36.61v3.937h4.33" class="C D E F G"/><path d="M49.207 36.61v3.937h4.33z" class="B H"/><path d="M49.207 36.61v3.937h4.33" class="C D E F G"/><path d="M43.303 43.696v3.937h4.33z" class="B H"/><path d="M43.303 43.696v3.937h4.33" class="C D E F G"/><path d="M49.207 43.696v3.937h4.33z" class="B H"/><path d="M49.207 43.696v3.937h4.33" class="C D E F G"/><path d="M1.968 63.773v4.33h3.937z" class="B H"/><path d="M1.968 63.773v4.33h3.937" class="C D E F G"/><path d="M7.873 63.773v4.33h3.937z" class="B H"/><path d="M7.873 63.773v4.33h3.937" class="C D E F G"/><path d="M2.362 71.646v4.33h3.937z" class="B H"/><path d="M2.362 71.646v4.33h3.937" class="C D E F G"/><path d="M7.873 71.646v4.33h4.33z" class="B H"/><path d="M7.873 71.646v4.33h4.33" class="C D E F G"/><path d="M2.362 78.732v4.33h3.937z" class="B H"/><path d="M2.362 78.732v4.33h3.937" class="C D E F G"/><path d="M7.873 78.732v4.33h4.33z" class="B H"/><path d="M7.873 78.732v4.33h4.33" class="C D E F G"/><path d="M27.556 15.746v3.937h4.33z" class="B H"/><path d="M27.556 15.746v3.937h4.33" class="C D E F G"/><path d="M33.461 15.746v3.937h4.33z" class="B H"/><path d="M33.461 15.746v3.937h4.33" class="C D E F G"/><path d="M15.746 15.746v4.33h4.33z" class="B H"/><path d="M15.746 15.746v4.33h4.33" class="C D E F G"/><path d="M21.651 15.746v4.33h4.33z" class="B H"/><path d="M21.651 15.746v4.33h4.33" class="C D E F G"/><path d="M27.556 24.407v3.937h4.33z" class="B H"/><path d="M27.556 24.407v3.937h4.33" class="C D E F G"/><path d="M33.461 24.407v3.937h3.937z" class="B H"/><path d="M33.461 24.407v3.937h3.937" class="C D E F G"/><path d="M15.746 24.407v4.33h4.33z" class="B H"/><path d="M15.746 24.407v4.33h4.33" class="C D E F G"/><path d="M21.651 24.407v4.33h4.33z" class="B H"/><path d="M21.651 24.407v4.33h4.33" class="C D E F G"/><path d="M27.556 32.674v3.937h4.33z" class="B H"/><path d="M27.556 32.674v3.937h4.33" class="C D E F G"/><path d="M33.461 32.674v3.937h3.937z" class="B H"/><path d="M33.461 32.674v3.937h3.937" class="C D E F G"/><path d="M15.746 32.674v4.33h4.33z" class="B H"/><path d="M15.746 32.674v4.33h4.33" class="C D E F G"/><path d="M21.651 32.674v4.33h4.33z" class="B H"/><path d="M21.651 32.674v4.33h4.33" class="C D E F G"/><path d="M27.556 40.153v4.33h4.33z" class="B H"/><path d="M27.556 40.153v4.33h4.33" class="C D E F G"/><path d="M33.461 40.153v4.33h3.937z" class="B H"/><path d="M33.461 40.153v4.33h3.937" class="C D E F G"/><path d="M15.746 40.547v3.937h4.33z" class="B H"/><path d="M15.746 40.547v3.937h4.33" class="C D E F G"/><path d="M21.651 40.547v3.937h4.33z" class="B H"/><path d="M21.651 40.547v3.937h4.33" class="C D E F G"/><path d="M43.303 51.176v3.937z" class="B H"/><path d="M43.303 51.176v3.937" class="C D E F G"/><path d="M43.303 55.112h4.33z" class="B H"/><path d="M43.303 55.112h4.33" class="C D E F G"/><path d="M49.207 51.176v3.937h4.33z" class="B H"/><path d="M49.207 51.176v3.937h4.33" class="C D E F G"/><path d="M43.303 58.262v3.937z" class="B H"/><path d="M43.303 58.262v3.937" class="C D E F G"/><path d="M43.303 62.198h4.33z" class="B H"/><path d="M43.303 62.198h4.33" class="C D E F G"/><path d="M49.207 58.262v3.937h4.33z" class="B H"/><path d="M49.207 58.262v3.937h4.33" class="C D E F G"/></symbol></svg>