<svg xmlns="http://www.w3.org/2000/svg" xmlns:xlink="http://www.w3.org/1999/xlink" viewBox="0 0 45 63" fill="#fff" fill-rule="evenodd" stroke="#000" stroke-linecap="round" stroke-linejoin="round"><style><![CDATA[.B{stroke:#fff}.C{stroke-linejoin:miter}.D{stroke-width:.787}.E{stroke:none}.F{stroke-linecap:square}.G{fill:none}.H{fill:#036c9b}]]></style><use xlink:href="#A" x=".5" y=".5"/><symbol id="A" overflow="visible"><g class="B C D H"><path d="M0 24.008h37.783l5.51-5.51H5.51L0 24.008z"/><path d="M37.783 24.008l5.51-5.51v37.783l-5.51 5.117V24.008z"/><path d="M5.51 18.498L0 24.008v37.39h37.783l5.51-5.117V18.498H5.51z"/></g><path d="M0 24.008h37.783l5.51-5.51z" class="E H"/><path d="M0 24.008h37.783l5.51-5.51" class="B C D F G"/><path d="M37.783 24.008v37.39z" class="E H"/><g class="B C D"><path d="M37.783 24.008v37.389" class="F G"/><g class="H"><path d="M37.783 5.117L43.293 0v18.498l-5.51 5.51V5.117z"/><path d="M5.51 0L0 5.117v18.892h37.783l5.51-5.51V0H5.51z"/></g></g><path d="M37.783 24.009V5.117H0z" class="E H"/><path d="M37.783 24.009V5.117H0" class="B C D F G"/><path d="M2.755 7.872h10.627v5.51H2.755v-5.51z" class="E"/><path d="M5.51 29.518h26.763v26.763H5.51V29.518z" class="B C D"/><g class="E"><path d="M24.402 7.872h10.627v5.51H24.402v-5.51zM2.755 16.137h10.627v5.116H2.755v-5.116zm21.647 0h10.627v5.116H24.402v-5.116z"/><path d="M13.382 10.627h11.02z" fill="#000"/></g><path d="M13.382 10.627h11.02" class="B C D F G"/><path d="M13.382 18.498h11.02z" fill="#000" class="E"/><path d="M13.382 18.498h11.02" class="B C D F G"/><path d="M13.382 16.137l11.02-2.755z" fill="#000" class="E"/><path d="M13.382 16.137l11.02-2.755" class="B C D F G"/><path d="M13.382 13.382l11.02 2.755z" fill="#000" class="E"/><path d="M13.382 13.382l11.02 2.755" class="B C D F G"/><use xlink:href="#C" class="E H"/><use xlink:href="#C" class="B C D F G"/><use xlink:href="#D" class="E"/><use xlink:href="#D" class="B C D F G"/></symbol><defs ><path id="C" d="M18.886 34.641c4.329 0 8.265 3.542 8.265 8.265 0 4.329-3.936 7.871-8.265 7.871-4.723 0-7.871-3.542-7.871-7.871 0-4.723 3.149-8.265 7.871-8.265"/><path id="D" d="M18.887 40.151c1.574 0 2.755.787 2.755 2.755 0 1.181-1.181 2.361-2.755 2.361s-2.755-1.181-2.755-2.361c0-1.968 1.181-2.755 2.755-2.755"/></defs></svg>