<svg xmlns="http://www.w3.org/2000/svg" xmlns:xlink="http://www.w3.org/1999/xlink" viewBox="0 0 49 45" fill="#fff" fill-rule="evenodd" stroke="#000" stroke-linecap="round" stroke-linejoin="round"><use xlink:href="#A" x=".5" y=".5"/><symbol id="A" overflow="visible"><g stroke="#fff" stroke-linejoin="miter" fill="#036c9b" stroke-width=".788"><path d="M39.387 43.326l7.877-7.877V0l-7.877 7.877v35.448z"/><path d="M47.264 0l-7.877 7.877H0L10.241 0h37.024z"/><path d="M39.387 43.325V7.877H0v35.448h39.387z"/></g><path d="M18.906 11.816v25.602h-1.182l1.969 3.151 2.363-3.151h-1.575V11.816zm-10.634 0v25.602H6.696l1.969 3.151 2.363-3.151H9.453V11.816zm21.269 0v25.602h-1.576l2.363 3.151 1.969-3.151h-1.576V11.816z" stroke="none"/><path d="M35.449 21.269H4.333v-9.847h31.116v9.847z" stroke="#fff" stroke-linejoin="miter" fill="none" stroke-width="1.576"/></symbol></svg>