<svg xmlns="http://www.w3.org/2000/svg" xmlns:xlink="http://www.w3.org/1999/xlink" viewBox="0 0 51 57" fill="#fff" fill-rule="evenodd" stroke="#000" stroke-linecap="round" stroke-linejoin="round"><use xlink:href="#A" x=".5" y=".5"/><symbol id="A" overflow="visible"><use xlink:href="#C" stroke="none" fill="#036c9b"/><use xlink:href="#C" stroke="#fff" stroke-linejoin="miter" fill="none" stroke-width=".787"/><use xlink:href="#D" stroke="none" fill="#036c9b"/><use xlink:href="#D" stroke="#fff" stroke-linejoin="miter" fill="none" stroke-width=".787"/><g stroke="none"><path d="M18.896 5.897l2.361 3.149-7.872 1.574 1.574-1.181L3.153 7.078 6.302 5.11l11.414 1.968 1.181-1.181zm11.02 7.478l-1.574-3.149 7.084-1.574-1.181 1.181 11.414 1.968-2.755 1.968-11.414-1.968-1.574 1.574zm-3.936-9.052l7.872-2.361v3.542l-1.968-.393-3.542 3.149-3.936-.787 3.936-2.755-2.361-.394zM22.832 16.13l-7.478 1.181-.394-3.149 2.361.394 3.936-3.542 3.542.787-4.329 3.542 2.361.787zm2.362 15.743v-7.872h1.181l-1.968-2.755-1.968 2.755h1.181v7.872h1.574zm-3.936 1.181l-5.51-5.51.787-1.181-3.542-.787.787 3.542.787-.787 5.51 5.51 1.181-.787zm-2.361 3.542h-7.478v-1.574L8.27 36.99l3.149 1.968v-1.181h7.478v-1.181zm1.181 3.936l-5.51 5.51-.787-1.181-.787 3.542 3.542-.787-.787-.787 5.51-5.51-1.181-.787zm3.542 1.968v7.872h-1.181l1.968 2.755 1.968-2.755h-1.181V42.5h-1.574zm3.936-1.181l5.51 5.51-.787.787 3.542.787-.787-3.542-.787 1.181-5.51-5.51-1.181.787zm2.361-3.542h7.478v1.181l3.149-1.968-3.149-1.968v1.574h-7.478v1.181zm-1.181-3.936l5.51-5.51.787.787.787-3.542-3.542.787.787 1.181-5.51 5.51 1.181.787z"/><path d="M29.125 43.688c3.542-2.755 4.723-7.478 1.968-11.414-2.361-3.542-7.478-4.329-11.02-1.968-3.936 2.755-4.723 7.871-1.968 11.414 2.361 3.542 7.478 4.329 11.02 1.968z"/></g></symbol><defs ><path id="C" d="M49.197 9.446c0 5.51-11.02 9.84-24.402 9.84C11.02 19.286 0 14.956 0 9.446v36.209c0 5.116 11.02 9.446 24.795 9.446 13.382 0 24.402-4.329 24.402-9.446z"/><path id="D" d="M24.795 19.285c13.382 0 24.402-4.329 24.402-9.839C49.197 4.329 38.177 0 24.795 0 11.02 0 0 4.329 0 9.446c0 5.51 11.02 9.839 24.795 9.839z"/></defs></svg>