<svg xmlns="http://www.w3.org/2000/svg" xmlns:xlink="http://www.w3.org/1999/xlink" viewBox="0 0 59 60" fill="#fff" fill-rule="evenodd" stroke="#000" stroke-linecap="round" stroke-linejoin="round"><style><![CDATA[.B{stroke:none}.C{stroke-linejoin:miter}.D{stroke-width:.787}.E{stroke-linecap:square}.F{stroke-width:2.362}]]></style><use xlink:href="#A" x=".5" y=".5"/><symbol id="A" overflow="visible"><use xlink:href="#C" fill="#036c9b" class="B"/><use xlink:href="#C" stroke="#fff" fill="none" class="C D"/><use xlink:href="#D" fill="#036c9b" class="B"/><use xlink:href="#D" stroke="#fff" fill="none" class="C D"/><g class="B"><g fill="#000"><path d="M25.588 10.62l-2.361-3.936-1.181-.394-1.574 1.181L7.089 5.11 2.76 8.259l.787 1.181 3.542-2.755 13.382 2.361 1.968-1.181 2.361 3.542.787-.787zm7.872 2.361l7.872-1.574 1.181-1.574-1.181-.393-9.053 1.968 1.181 1.574z"/><path d="M54.319 13.376l-12.595-2.755-1.574.788v1.181l13.382 2.361.788-1.574zM31.098 5.897l9.053-2.755.393-.788-.788-.788-10.234 2.755 1.574 1.574zm-14.563 9.446v2.362l3.542.393 4.723-3.935 4.33.787 1.181-1.574-5.511-1.181-5.116 3.936-3.149-.788zm10.234 2.362l-2.755.393v1.181l2.755.788 1.181-1.181-1.181-1.181z"/></g><path d="M30.704 4.717l9.052-2.361v3.936l-2.361-.394-4.329 3.542-4.329-.787 4.723-3.542-2.755-.394zm4.329 10.627l-1.574-3.542 7.872-1.574-1.181 1.181 13.382 2.361-3.149 2.361-13.382-2.361-1.968 1.574zm-8.265 3.542l-9.052 1.574v-3.936l2.361.394 4.723-3.936 4.329.394-5.116 4.723 2.755.787zM22.439 6.684l2.361 3.542-9.052 1.968 1.968-1.574L3.547 8.259l3.542-2.755 13.382 2.361 1.968-1.181z"/></g><path d="M16.535 49.192H24.8l10.233-21.253h6.297" fill="none" class="C E F"/><g class="B"><g fill="#000"><path d="M39.363 24.002v7.478l4.723-3.542-4.723-3.936z"/><use xlink:href="#E"/></g><use xlink:href="#E" y="0.394"/><path d="M39.757 24.789v7.478l4.329-3.542-4.329-3.936z"/><use xlink:href="#E" y="-21.254" fill="#000"/><use xlink:href="#E" y="-20.86"/></g><g fill="none" class="C E F"><path d="M41.724 49.192H34.64L24.013 27.938h-6.691"/><g stroke="#fff"><path d="M42.512 49.978H34.64L24.014 28.331h-7.872"/><path d="M16.142 49.979h7.478l10.627-21.253h8.265"/></g></g><g class="B"><path d="M39.363 45.649v7.478l4.723-3.542-4.723-3.936z" fill="#000"/><path d="M39.757 46.043v7.478l4.329-3.542-4.329-3.936z"/></g></symbol><defs ><path id="C" d="M57.856 11.02c0 6.297-12.988 11.414-29.125 11.414C12.988 22.434 0 17.317 0 11.02v35.816C0 53.133 12.988 58.25 28.731 58.25c16.137 0 29.125-5.117 29.125-11.414z"/><path id="D" d="M28.731 22.434c16.137 0 29.125-5.117 29.125-11.414S44.868 0 28.731 0C12.988 0 0 4.723 0 11.02s12.988 11.414 28.731 11.414z"/><path id="E" d="M17.716 53.127v-7.478l-4.723 3.542 4.723 3.936z"/></defs></svg>