<svg xmlns="http://www.w3.org/2000/svg" xmlns:xlink="http://www.w3.org/1999/xlink" viewBox="0 0 81 59" fill="#fff" fill-rule="evenodd" stroke="#000" stroke-linecap="round" stroke-linejoin="round"><style><![CDATA[.B{stroke:#fff}.C{stroke-linejoin:miter}.D{stroke-width:.787}.E{fill:#0b719f}.F{stroke:none}.G{fill:#0f73a0}.H{stroke-linecap:square}]]></style><use xlink:href="#A" x=".5" y=".5"/><symbol id="A" overflow="visible"><g class="G"><path d="M57.451 27.545v-5.509H22.036v5.509h35.415z" class="B C D"/><use xlink:href="#C" class="F"/></g><use xlink:href="#C" fill="none" class="B C D"/><path d="M40.136 0v8.263z" class="E F"/><path d="M40.136 0v8.263" fill="none" class="B C D H"/><use xlink:href="#D" class="E F"/><g class="B C D"><use xlink:href="#D" fill="none"/><path d="M79.485 57.843V27.544H0v30.299h79.485z" class="G"/></g><use xlink:href="#E" class="E F"/><g class="B C D"><use xlink:href="#E" fill="none" class="H"/><path d="M8.656 36.594v-5.115H3.541v5.115h5.115zm0 8.657v-5.115H3.541v5.115h5.115zm0 8.657v-4.722H3.541v4.722h5.115zm7.87-17.314v-5.115h-5.509v5.115h5.509zm0 8.657v-5.115h-5.509v5.115h5.509zm0 8.657v-4.722h-5.509v4.722h5.509zm54.302-17.314v-5.115h5.115v5.115h-5.115zm0 8.657v-5.115h5.115v5.115h-5.115zm0 8.657v-4.722h5.115v4.722h-5.115zm-7.87-17.314v-5.115h5.509v5.115h-5.509zm0 8.657v-5.115h5.509v5.115h-5.509zm0 8.657v-4.722h5.509v4.722h-5.509z" class="E"/><path d="M58.63 36.989l-18.494-5.902-18.888 5.902H58.63zm1.968-12.592v-2.361H19.281v2.361h41.317z" class="G"/><path d="M26.758 57.843V36.988H23.61v20.855h3.148zm26.364 0V36.988h3.148v20.855h-3.148z" class="E"/></g></symbol><defs ><path id="C" d="M57.445 22.042c0-7.87-7.87-14.559-17.707-14.559s-17.707 6.689-17.707 14.559z"/><path id="D" d="M46.82 5.122c0 .393-3.148.393-3.541 0-.787-.787-2.754-.787-3.148 0V1.187C40.525.4 42.492.4 43.279.794c.394.393 3.541.393 3.541 0z"/><path id="E" d="M49.575 57.456v-9.837c0-4.722-4.328-8.263-9.837-8.263s-9.837 3.541-9.837 8.263v9.837"/></defs></svg>