<svg xmlns="http://www.w3.org/2000/svg" xmlns:xlink="http://www.w3.org/1999/xlink" viewBox="0 0 75 92" fill="#fff" fill-rule="evenodd" stroke="#000" stroke-linecap="round" stroke-linejoin="round"><style><![CDATA[.B{stroke:none}.C{fill:#036998}.D{stroke-linejoin:miter}.E{stroke-width:.787}]]></style><use xlink:href="#A" x=".5" y=".5"/><symbol id="A" overflow="visible"><g class="B"><path d="M32.282 38.587h10.629v14.172l-10.629 3.543V38.587z" class="C"/><use xlink:href="#C"/></g><use xlink:href="#C" fill="none" stroke-width=".394" class="D"/><g class="B"><path d="M37.006 39.769c20.471 0 36.612-15.353 36.612-19.29 0-3.543-16.534-6.693-37.006-6.693C16.535 13.786 0 16.935 0 20.479c0 3.937 16.535 19.29 37.006 19.29z" class="C"/><use xlink:href="#C"/></g><g fill="none" stroke="#036998" class="D E"><use xlink:href="#C"/><path d="M27.164 15.36c-5.905.394-11.023 1.181-14.96 1.968m15.353-.393c-5.512.394-10.629 1.181-14.172 1.968m14.566-.393c-5.512.394-10.236 1.181-13.779 2.362m14.566-.394c-5.118.394-9.842 1.181-12.991 2.362m13.385-.787c-5.118.394-9.448 1.575-12.204 2.756m12.992-.788c-3.937.394-7.48 1.181-9.842 2.362m10.235-.393c-1.968 0-3.149.394-4.724.787M.004 21.259L37.01 2.756l36.612 17.716" stroke-linecap="square"/></g><g class="B"><g class="C"><path d="M37.006 7.487c1.575 0 2.756-.394 2.756-1.181s-1.181-1.181-2.756-1.181c-1.181 0-2.362.394-2.362 1.181s1.181 1.181 2.362 1.181z"/><path d="M37.011 0l-.787 25.983h1.968L37.011 0zm8.661 48.423v-7.086H27.956v7.086h17.716z"/></g><path d="M35.83 46.061h-5.512v-1.575h5.512v1.575zm7.48 0h-5.511v-1.575h5.511v1.575z"/><use xlink:href="#D" class="C"/></g><use xlink:href="#D" stroke="#fff" fill="none" class="D E"/><use xlink:href="#E" class="B C"/><use xlink:href="#E" stroke="#fff" fill="none" class="D E"/><path d="M30.318 57.872l2.362 3.543-9.055 1.968 1.968-1.575-14.173-2.362 3.543-2.756 13.385 2.362 1.968-1.181zm12.598 8.661l-1.575-3.543 8.267-1.575-1.575 1.181 13.385 2.362-3.149 2.362-13.385-2.362-1.968 1.575zm-4.33-10.629l9.055-2.362v3.937l-2.362-.787-4.331 3.937-4.331-.787 4.724-3.543-2.756-.394zm-3.937 14.173l-8.661 1.575-.394-3.937 2.362.394 4.724-3.937 4.33.394-5.118 4.724 2.756.787z" class="B"/></symbol><defs ><path id="C" d="M36.612 27.565c20.471 0 37.006-3.149 37.006-7.086 0-3.543-16.534-6.693-37.006-6.693C16.535 13.786 0 16.935 0 20.479c0 3.937 16.535 7.086 36.612 7.086z"/><path id="D" d="M65.745 62.208c0 6.299-12.991 11.417-29.132 11.417-15.747 0-28.738-5.118-28.738-11.417v16.535c0 6.299 12.991 11.417 28.739 11.417 16.141 0 29.132-5.118 29.132-11.417z"/><path id="E" d="M36.613 73.625c16.141 0 29.132-5.118 29.132-11.417S52.753 51.185 36.613 51.185c-15.747 0-28.738 4.724-28.738 11.023s12.991 11.417 28.739 11.417z"/></defs></svg>