<svg xmlns="http://www.w3.org/2000/svg" xmlns:xlink="http://www.w3.org/1999/xlink" viewBox="0 0 67.091 42" fill="#fff" fill-rule="evenodd" stroke="#000" stroke-linecap="round" stroke-linejoin="round"><use xlink:href="#A" x=".591" y=".5"/><symbol id="A" overflow="visible"><g stroke="#fff" stroke-linejoin="miter"><g fill="#046897" stroke-width=".788"><path d="M56.313 40.561V7.482H9.057v33.079h47.256z"/><path d="M56.313 7.482L65.37 0H21.265L9.057 7.482h47.256z"/><path d="M65.37 33.079V0l-9.057 7.482v33.079l9.057-7.482z"/></g><path d="M54.344 17.721H9.451" stroke-linecap="square" fill="none" stroke-width="1.181"/></g><path d="M55.526 17.721l-6.695 3.15 1.575-3.15-1.575-2.757 6.695 2.757z" stroke="none"/><path d="M40.167 34.26l6.301-5.119H9.451" stroke="#d9d9d9" stroke-linecap="square" fill="none" stroke-width="1.181"/><path d="M36.23 37.411l3.15-6.301.788 3.15 2.757 1.181-6.695 1.969z" stroke="none" fill="#d9d9d9"/><g stroke-linejoin="miter" fill="none"><path d="M50.013 32.291V11.026l-5.907 4.726v21.265l5.907-4.726zm-30.323 0V11.026l-5.907 4.726v21.265l5.907-4.726zm14.964 0V11.026l-5.513 4.726v21.265l5.513-4.726z" stroke="#fff" stroke-width=".788"/><g stroke-linecap="square" stroke-width="1.181"><path d="M9.057 18.115H0"/><path d="M9.057 29.141H0" stroke="#d9d9d9"/><path d="M9.057 29.141H0" stroke="#8c8c8c"/></g></g></symbol></svg>