<svg xmlns="http://www.w3.org/2000/svg" xmlns:xlink="http://www.w3.org/1999/xlink" viewBox="0 0 40 39" fill="#fff" fill-rule="evenodd" stroke="#000" stroke-linecap="round" stroke-linejoin="round"><style><![CDATA[.B{fill:#0f73a0}.C{stroke:none}.D{stroke:#fff}.E{stroke-linejoin:miter}.F{stroke-linecap:square}.G{stroke-width:.787}]]></style><use xlink:href="#A" x=".5" y=".5"/><symbol id="A" overflow="visible"><path d="M.394 32.273h38.177z" class="B C"/><path d="M.394 32.273h38.177" fill="none" class="D E F G"/><path d="M33.061 37.783l5.51-5.51z" class="B C"/><g class="D E G"><path d="M33.061 37.783l5.51-5.51" fill="none" class="F"/><g class="B"><path d="M33.061 37.784V12.988H0v24.796h33.061z"/><path d="M33.061 37.784l5.51-5.51V7.478H5.51L0 12.988h33.061v24.796zm-3.149-2.755V15.743H2.755v19.285h27.157z"/></g></g><path d="M33.061 12.988l5.51-5.51z" class="B C"/><g class="D E G"><path d="M33.061 12.988l5.51-5.51" fill="none" class="F"/><g class="B"><path d="M21.254 12.594V4.329h-8.659v8.265h8.659z"/><path d="M21.254 12.595l5.117-4.723V0h-9.052l-4.723 4.329h8.659v8.265z"/></g></g><path d="M21.253 4.329L26.37 0z" class="B C"/><path d="M21.253 4.329L26.37 0" fill="none" class="D E F G"/></symbol></svg>