<svg xmlns="http://www.w3.org/2000/svg" xmlns:xlink="http://www.w3.org/1999/xlink" viewBox="0 0 52 29" fill="#fff" fill-rule="evenodd" stroke="#000" stroke-linecap="round" stroke-linejoin="round"><style><![CDATA[.B{fill:#0f73a0}.C{stroke:#fff}.D{stroke-linejoin:miter}.E{stroke:none}.F{stroke-width:.787}]]></style><use xlink:href="#A" x=".5" y=".5"/><symbol id="A" overflow="visible"><g class="B"><path d="M50.377 25.188V0l-2.754 2.361v24.795l2.755-1.968zm-2.756 1.968V2.361H0v24.795h47.622z" stroke-width=".788" class="C D"/><use xlink:href="#C" class="E"/></g><g class="C D F"><use xlink:href="#C" fill="none"/><path d="M50.376 0H2.755L0 2.361h47.622L50.376 0z" class="B"/></g><use xlink:href="#D" class="B E"/><use xlink:href="#D" fill="none" class="C D F"/><use xlink:href="#E" class="B E"/><use xlink:href="#E" fill="none" class="C D F"/><use xlink:href="#F" class="B E"/><use xlink:href="#F" fill="none" class="C D F"/><use xlink:href="#G" class="B E"/><use xlink:href="#G" fill="none" class="C D F"/></symbol><defs ><path id="C" d="M3.144 7.879c0-2.755 2.361-3.149 2.361-3.149h29.911c3.148 0 3.148 3.149 3.148 3.149v14.168c0 1.574-2.361 2.361-2.361 2.361H5.899c-1.968 0-2.755-2.361-2.755-2.361z"/><path id="D" d="M44.074 7.484c0 .394-.394.787-1.181.787s-1.181-.394-1.181-.787.394-.787 1.181-.787 1.181.394 1.181.787z"/><path id="E" d="M44.074 12.601c0 .394-.394.787-1.181.787s-1.181-.393-1.181-.787.394-.787 1.181-.787 1.181.393 1.181.787z"/><path id="F" d="M44.074 17.718c0 .393-.394.787-1.181.787s-1.181-.394-1.181-.787.394-.394 1.181-.394 1.181 0 1.181.394z"/><path id="G" d="M44.074 23.227c0 .394-.394.787-1.181.787s-1.181-.393-1.181-.787.394-.787 1.181-.787 1.181.394 1.181.787z"/></defs></svg>