<svg xmlns="http://www.w3.org/2000/svg" xmlns:xlink="http://www.w3.org/1999/xlink" viewBox="0 0 49 36" fill="#fff" fill-rule="evenodd" stroke="#000" stroke-linecap="round" stroke-linejoin="round"><style><![CDATA[.B{fill:#0f73a0}.C{stroke-linejoin:miter}.D{stroke-width:.788}]]></style><use xlink:href="#A" x=".5" y=".5"/><symbol id="A" overflow="visible"><g stroke="#fff" class="B C D"><path d="M0 34.647v-7.876h33.076v7.876H0zm33.076-7.877H0L15.75 4.325h31.501L33.075 26.77z"/><path d="M47.252 4.325v14.569l-14.176 15.75v-7.481L47.252 4.325z"/></g><use xlink:href="#C" stroke="none" class="B"/><g stroke="#fff" class="C D"><use xlink:href="#C" fill="none"/><path d="M4.726 20.469l-.788 5.513h7.088l-.394-5.513H4.726z" class="B"/></g><use xlink:href="#D" stroke="none" class="B"/><g stroke="#fff" class="C D"><use xlink:href="#D" fill="none"/><path d="M17.326 24.8h-2.363l1.181-1.181h1.969l-.788 1.181zm4.725 0h-2.363l1.181-1.181h1.969l-.788 1.181zm4.725 0h-2.363l1.181-1.181h1.969l-.788 1.181zm4.725 0h-2.362l1.181-1.181h1.969l-.788 1.181z" class="B"/></g></symbol><defs ><path id="C" d="M22.046 8.269c-1.969 2.363-4.331 5.119-5.906 7.875v2.363l-5.119 7.481-.394-5.513c.787-3.938 12.6-18.9 15.357-20.475l.788 4.725-4.331 5.906z"/><path id="D" d="M25.984 0c-2.756 1.575-14.569 16.538-15.357 20.476H4.721c.787-3.938 12.6-18.9 15.357-20.475z"/></defs></svg>