<svg xmlns="http://www.w3.org/2000/svg" xmlns:xlink="http://www.w3.org/1999/xlink" viewBox="0 0 39 42" fill="#fff" fill-rule="evenodd" stroke="#000" stroke-linecap="round" stroke-linejoin="round"><style><![CDATA[.B{stroke:#fff}.C{stroke-linejoin:miter}.D{fill:#0f73a0}.E{stroke-width:.788}.F{stroke:none}.G{stroke-linecap:square}.H{fill:none}]]></style><use xlink:href="#A" x=".5" y=".5"/><symbol id="A" overflow="visible"><g class="B C D E"><path d="M29.544 40.967V7.878H0v33.089h29.544z"/><path d="M29.544 40.967l7.878-7.878V0H7.484L0 7.878h29.544v33.089z"/></g><path d="M29.544 7.878L37.422 0z" class="D F"/><path d="M29.544 7.878L37.422 0" class="B C E G H"/><path d="M29.544 15.757H0z" class="D F"/><path d="M29.544 15.757H0" class="B C E G H"/><path d="M29.544 32.695H0z" class="D F"/><path d="M29.544 32.695H0" class="B C E G H"/><path d="M29.544 24.423H0z" class="D F"/><path d="M29.544 24.423H0" class="B C E G H"/><path d="M20.09 11.817h6.303z" class="D F"/><path d="M20.09 11.817h6.303" class="B C E G H"/><path d="M20.09 20.484h6.303z" class="D F"/><path d="M20.09 20.484h6.303" class="B C E G H"/><path d="M20.09 28.362h6.303z" class="D F"/><path d="M20.09 28.362h6.303" class="B C E G H"/><path d="M20.09 36.634h6.303z" class="D F"/><path d="M20.09 36.634h6.303" class="B C E G H"/></symbol></svg>