<svg xmlns="http://www.w3.org/2000/svg" xmlns:xlink="http://www.w3.org/1999/xlink" viewBox="0 0 33 58" fill="#fff" fill-rule="evenodd" stroke="#000" stroke-linecap="round" stroke-linejoin="round"><style><![CDATA[.B{stroke:#fff}.C{stroke-linejoin:miter}.D{stroke-width:.787}.E{stroke:none}.F{stroke-linecap:square}.G{fill:none}.H{fill:#000}]]></style><use xlink:href="#A" x=".5" y=".5"/><symbol id="A" overflow="visible"><g fill="#0f73a0" class="B C D"><path d="M25.975 54.706V4.329H2.361v50.377h23.614z"/><path d="M2.361 4.329L7.084 0h22.434l-3.542 4.329H2.361z"/><path d="M25.976 54.706l3.542-7.084V0l-3.542 4.329v50.377zm1.968 1.968l-1.968-1.968H2.361L0 56.674h27.944z"/><path d="M27.944 56.674l3.542-7.478-1.968-1.574-3.542 7.084 1.968 1.968z"/></g><path d="M25.975 54.706H2.361z" class="E H"/><path d="M25.975 54.706H2.361" class="B C D F G"/><path d="M29.518 47.622l-3.542 7.084z" class="E H"/><path d="M29.518 47.622l-3.542 7.084" class="B C D F G"/><path d="M2.361 6.691h23.614z" fill="#0b719f" class="E"/><path d="M2.361 6.691h23.614" class="B C D F G"/><path d="M2.361 7.084h23.614z" fill="#0b719f" class="E"/><path d="M2.361 7.084h23.614" class="B C D F G"/><use xlink:href="#C" class="E H"/><use xlink:href="#D" class="B C D F G"/><use xlink:href="#C" y="2.755" class="E H"/><use xlink:href="#D" y="2.755" class="B C D F G"/><use xlink:href="#C" y="5.903" class="E H"/><use xlink:href="#D" y="5.903" class="B C D F G"/><use xlink:href="#C" y="8.658" class="E H"/><use xlink:href="#D" y="8.658" class="B C D F G"/><use xlink:href="#C" y="11.807" class="E H"/><use xlink:href="#D" y="11.807" class="B C D F G"/><use xlink:href="#C" y="14.562" class="E H"/><use xlink:href="#D" y="14.562" class="B C D F G"/><use xlink:href="#C" y="17.317" class="E H"/><use xlink:href="#D" y="17.317" class="B C D F G"/><use xlink:href="#C" y="20.466" class="E H"/><use xlink:href="#D" y="20.466" class="B C D F G"/><use xlink:href="#C" y="23.221" class="E H"/><use xlink:href="#D" y="23.221" class="B C D F G"/><use xlink:href="#C" y="26.369" class="E H"/><use xlink:href="#D" y="26.369" class="B C D F G"/><use xlink:href="#C" y="29.124" class="E H"/><use xlink:href="#D" y="29.124" class="B C D F G"/><use xlink:href="#C" y="31.879" class="E H"/><use xlink:href="#D" y="31.879" class="B C D F G"/><use xlink:href="#C" y="35.028" class="E H"/><use xlink:href="#D" y="35.028" class="B C D F G"/><use xlink:href="#C" y="37.783" class="E H"/><use xlink:href="#D" y="37.783" class="B C D F G"/></symbol><defs ><path id="C" d="M21.253 12.988H3.936v1.574h3.149z"/><path id="D" d="M21.253 12.988H3.936v1.574h3.149"/></defs></svg>