<svg xmlns="http://www.w3.org/2000/svg" xmlns:xlink="http://www.w3.org/1999/xlink" viewBox="0 0 39 54" fill="#fff" fill-rule="evenodd" stroke="#000" stroke-linecap="round" stroke-linejoin="round"><style><![CDATA[.B{stroke:#fff}.C{stroke-linejoin:miter}.D{fill:#0f73a0}.E{stroke-width:.787}.F{stroke:none}.G{fill:none}.H{stroke-linecap:square}]]></style><use xlink:href="#A" x=".5" y=".5"/><symbol id="A" overflow="visible"><g class="B C D E"><path d="M28.746 8.662h-13.78v42.127h13.78V8.662z"/><path d="M16.934 14.567h9.843v9.449h-9.843v-9.449zM37.013 0l-8.268 8.662v42.127l8.268-9.843V0z"/></g><path d="M2.761 8.268h11.418z" class="D F"/><path d="M2.761 8.268h11.418" class="B C E G H"/><path d="M16.541 7.087l5.118-5.906z" class="D F"/><path d="M16.541 7.087l5.118-5.906" class="B C E G H"/><use xlink:href="#C" class="D F"/><use xlink:href="#C" class="B C E G H"/><use xlink:href="#D" class="D F"/><use xlink:href="#D" class="B C E G"/><path d="M2.761 8.268h11.418z" class="D F"/><path d="M2.761 8.268h11.418" class="B C E G H"/><path d="M17.722 6.693L24.021.787z" class="D F"/><path d="M17.722 6.693L24.021.787" class="B C E G H"/></symbol><defs ><path id="C" d="M14.174 9.062s0 2.756-5.118 2.756L.394 10.637V9.85L12.993.007h24.016l-8.268 8.662h-13.78"/><path id="D" d="M14.567 8.668s-3.937 2.362-8.662 1.969L0 10.243v41.733l5.906.394c5.906.394 9.055-1.575 9.055-1.575z"/></defs></svg>