<svg xmlns="http://www.w3.org/2000/svg" xmlns:xlink="http://www.w3.org/1999/xlink" viewBox="0 0 29 59" fill="#fff" fill-rule="evenodd" stroke="#000" stroke-linecap="round" stroke-linejoin="round"><style><![CDATA[.B{fill:#036c9b}.C{stroke:#fff}.D{stroke-linejoin:miter}.E{stroke-width:.787}.F{stroke:none}.G{fill:none}.H{stroke-linecap:square}]]></style><use xlink:href="#A" x=".5" y=".5"/><symbol id="A" overflow="visible"><g class="B C D E"><path d="M1.972 57.031l2.753.393h11.406l2.753-.393 1.573-1.18.393-.787V10.226H.005v45.625l1.967 1.18z"/><path d="M27.537 0l-6.686 6.293v48.772l6.686-7.867V0z"/></g><path d="M20.851 10.226l6.686-6.293z" class="B F"/><path d="M20.851 10.226l6.686-6.293" class="C D E G H"/><path d="M19.671 14.16v-.787z" class="B F"/><path d="M19.671 14.16v-.787" class="C D E G H"/><path d="M20.851 51.525l6.293-7.08z" class="B F"/><path d="M20.851 51.525l6.293-7.08" class="C D E G H"/><path d="M5.9.007h21.632L20.846 6.3S12.193 9.447 0 5.907z" class="B F"/><path d="M5.9.007h21.632L20.846 6.3S12.193 9.447 0 5.907z" class="C D E G"/><use xlink:href="#C" class="B F"/><use xlink:href="#C" class="C D E G"/><path d="M20.458 24.779H.005v.393z" class="B F"/><path d="M20.458 24.779H.005v.393" class="C D E G H"/><path d="M.398 20.453h20.059z" class="B F"/><path d="M.398 20.453h20.059" class="C D E G H"/><path d="M.398 17.306h20.059z" class="B F"/><path d="M.398 17.306h20.059" class="C D E G H"/><path d="M.398 26.746l1.573 1.573h2.753z" class="B F"/><g class="C D E"><path d="M.398 26.746l1.573 1.573h2.753" class="G H"/><path d="M19.671 15.733H1.578v-2.36h18.093v2.36z" class="B"/></g><use xlink:href="#D" class="B F"/><use xlink:href="#E" class="C D E G H"/><path d="M4.725 28.319h14.16l1.573-1.573z" class="B F"/><path d="M4.725 28.319h14.16l1.573-1.573" class="C D E G H"/><use xlink:href="#F" class="B F"/><use xlink:href="#G" class="C D E G H"/><use xlink:href="#F" y="6.687" class="B F"/><use xlink:href="#G" y="6.687" class="C D E G H"/><use xlink:href="#D" y="4.327" class="B F"/><use xlink:href="#E" y="4.327" class="C D E G H"/><use xlink:href="#D" y="6.687" class="B F"/><use xlink:href="#E" y="6.687" class="C D E G H"/><use xlink:href="#F" y="4.327" class="B F"/><use xlink:href="#G" y="4.327" class="C D E G H"/><use xlink:href="#F" y="11.013" class="B F"/><use xlink:href="#G" y="11.013" class="C D E G H"/><use xlink:href="#D" y="9.047" class="B F"/><use xlink:href="#E" y="9.047" class="C D E G H"/><use xlink:href="#D" y="11.013" class="B F"/><use xlink:href="#E" y="11.013" class="C D E G H"/><use xlink:href="#F" y="9.047" class="B F"/><use xlink:href="#G" y="9.047" class="C D E G H"/><path d="M.398 40.512l1.573 1.18h2.753z" class="B F"/><path d="M.398 40.512l1.573 1.18h2.753" class="C D E G H"/><use xlink:href="#D" y="13.373" class="B F"/><use xlink:href="#E" y="13.373" class="C D E G H"/><path d="M4.725 41.692h14.16l1.573-1.18z" class="B F"/><path d="M4.725 41.692h14.16l1.573-1.18" class="C D E G H"/><use xlink:href="#F" y="13.373" class="B F"/><use xlink:href="#G" y="13.373" class="C D E G H"/><use xlink:href="#F" y="20.06" class="B F"/><use xlink:href="#G" y="20.06" class="C D E G H"/><path d="M4.725 44.052h14.16l1.573-1.573z" class="B F"/><path d="M4.725 44.052h14.16l1.573-1.573" class="C D E G H"/><use xlink:href="#D" y="20.06" class="B F"/><use xlink:href="#E" y="20.06" class="C D E G H"/><path d="M.398 42.479l1.573 1.573h2.753z" class="B F"/><path d="M.398 42.479l1.573 1.573h2.753" class="C D E G H"/><use xlink:href="#F" y="24.386" class="B F"/><use xlink:href="#G" y="24.386" class="C D E G H"/><use xlink:href="#D" y="22.42" class="B F"/><use xlink:href="#E" y="22.42" class="C D E G H"/><use xlink:href="#D" y="24.386" class="B F"/><use xlink:href="#E" y="24.386" class="C D E G H"/><use xlink:href="#F" y="22.42" class="B F"/><use xlink:href="#G" y="22.42" class="C D E G H"/><use xlink:href="#F" y="29.106" class="B F"/><use xlink:href="#G" y="29.106" class="C D E G H"/><use xlink:href="#D" y="26.746" class="B F"/><use xlink:href="#E" y="26.746" class="C D E G H"/><use xlink:href="#D" y="29.106" class="B F"/><use xlink:href="#E" y="29.106" class="C D E G H"/><use xlink:href="#F" y="26.746" class="B F"/><use xlink:href="#G" y="26.746" class="C D E G H"/></symbol><defs ><path id="C" d="M0 5.906c12.193 3.54 20.846.393 20.846.393v3.933S12.193 13.379 0 9.839z"/><path id="D" d="M4.725 26.352h11.406l2.753-.393 1.573-1.18z"/><path id="E" d="M4.725 26.352h11.406l2.753-.393 1.573-1.18"/><path id="F" d="M.398 24.779l1.573 1.18 2.753.393z"/><path id="G" d="M.398 24.779l1.573 1.18 2.753.393"/></defs></svg>