<svg xmlns="http://www.w3.org/2000/svg" xmlns:xlink="http://www.w3.org/1999/xlink" viewBox="0 0 54.091 58" fill="#fff" fill-rule="evenodd" stroke="#000" stroke-linecap="round" stroke-linejoin="round"><style><![CDATA[.B{stroke:none}.C{stroke-linejoin:miter}.D{stroke-width:.788}.E{stroke:#fff}.F{stroke:#036c9b}.G{stroke-linecap:square}.H{stroke-width:1.182}]]></style><use xlink:href="#A" x=".591" y=".5"/><symbol id="A" overflow="visible"><g fill="#036c9b" class="C D E"><path d="M26.395 56.731L0 42.942V13.789l26.395 13.789v29.153z"/><path d="M26.395 56.731L52.79 42.942V13.789L26.395 27.578v29.153z"/><path d="M26.395 27.577L52.79 13.789 26.395 0 0 13.789l26.395 13.789z"/><path d="M52.79 42.942L26.395 56.731V27.578L52.79 13.789v29.153z"/></g><path d="M26.395 15.365l5.515 2.758h-3.152v5.515h-4.334v-5.515H20.88l5.515-2.758zm20.092-1.576l-5.515 2.758v-1.576H30.729v-2.364h10.243v-1.97l5.515 3.152zm-20.092-1.576L20.88 9.455h3.546V3.94h4.334v5.515h3.152l-5.515 2.758zM6.303 13.789l5.515-3.152v1.97h10.243v2.364H11.818v1.576l-5.515-2.758z" class="B"/><path d="M50.427 34.668v-16.94L29.941 28.365v16.94l20.486-10.637z" class="D F"/><use xlink:href="#C" class="B"/><g class="D F"><use xlink:href="#C" fill="none"/><path d="M45.699 39.002l-11.031 5.909v-1.97l11.031-5.909v1.97z"/><path d="M50.427 41.366L29.941 52.002v-4.727l20.486-10.637v4.727z"/><path d="M50.821 42.154L29.547 53.579v-1.97l21.274-11.425v1.97z"/></g><g class="B"><path d="M40.578 32.699l-2.364 3.94v-8.667l5.909 3.152-3.546 1.576z" fill="#036c9b"/><path d="M40.578 33.093l1.576 3.152.394-.394-1.576-3.152-.394.394z" fill="#5e5e5e"/></g><path d="M24.426 47.669v-6.303l-3.94 1.182 3.94 5.121zM2.364 36.244v-6.697l3.94 5.121-3.94 1.576zm2.364-11.819v6.697l-3.94-5.122 3.94-1.576zm16.94 9.061v6.303l3.94-1.182-3.94-5.121z" class="C E"/><g class="B"><path d="M22.456 37.032l-2.364-1.182z"/><path d="M19.698 36.638l2.364 1.182.788-1.182-2.758-1.182-.394 1.182zm3.546 7.091l3.152 1.576z"/></g><path d="M23.244 43.729l3.152 1.576" fill="none" class="C E G H"/><path d="M3.152 33.093L0 31.517z" class="B"/><path d="M3.152 33.093L0 31.517" fill="none" class="C E G H"/><g class="B"><path d="M3.546 27.183l2.758 1.576z"/><path d="M3.152 27.577l3.546 1.97v-1.182l-3.152-1.576-.394.788zm14.97 7.091v13.001l-9.455-4.728V29.547l9.455 5.121z"/></g><path d="M16.546 37.426l-6.303-3.152v-2.364l6.303 3.152v2.364zm0 8.273l-6.303-3.152v-5.909l6.303 3.152V45.7z" class="C D F"/><path d="M15.36 29.554s.394 0 .788.788v1.576l3.939 2.364.394-.788-1.182-2.758-4.333-2.758-1.182-.788-4.727-1.576-1.97.788v1.182l3.94 1.576v-1.182c.394-.788 1.182-.394 1.182-.394zm1.186 9.054l-6.303-3.152z" class="B"/><path d="M16.546 38.608l-6.303-3.152" fill="none" class="C D F G"/></symbol><defs ><path id="C" d="M33.088 28.766l14.182-7.485c.788-.394 1.576 0 1.576.788v9.849c0 1.182-.788 2.364-1.576 2.758L33.088 42.16c-1.182.394-1.576 0-1.576-.788v-9.849c0-1.182.394-2.364 1.576-2.758z"/></defs></svg>