<svg xmlns="http://www.w3.org/2000/svg" xmlns:xlink="http://www.w3.org/1999/xlink" viewBox="0 0 82 57" fill="#fff" fill-rule="evenodd" stroke="#000" stroke-linecap="round" stroke-linejoin="round"><style><![CDATA[.B{stroke-linejoin:miter}.C{stroke:none}.D{fill:none}.E{stroke:#fff}.F{stroke-width:.394}.G{stroke-width:.787}]]></style><use xlink:href="#A" x=".5" y=".5"/><symbol id="A" overflow="visible"><g fill="#036c9b" class="B E G"><path d="M0 6.295v48.788h74.755V6.295H0z"/><path d="M0 6.295L5.902 0h74.755l-5.902 6.295H0z"/><path d="M74.755 6.295L80.657 0v48.788l-5.902 6.295V6.295z"/></g><g class="C"><path d="M59.804 16.918v-2.754l7.082 4.721-7.082 4.721v-2.754h-9.049v-3.934h9.049zM22.427 29.115v-2.754l6.689 4.721-6.689 4.721V33.05H5.115v-3.934h17.312zm37.378 12.197v-2.754l7.082 4.721-7.082 4.721v-2.754h-9.049v-3.934h9.049z" fill="#060606"/><path d="M59.017 16.131v-2.754l6.689 4.328-6.689 5.115v-3.148h-9.049v-3.541h9.049zM21.246 28.328V25.18l7.082 5.115-7.082 4.721v-3.148H4.328v-3.541h16.918z"/><path d="M66.099 29.115v-2.754l6.689 4.721-6.689 4.721V33.05H50.361v-3.934h15.738z" fill="#060606"/><path d="M65.312 28.329v-3.148l6.689 5.115-6.689 4.721V31.87H49.574v-3.541h15.738zm-6.295 12.197v-2.754l6.689 4.721-6.689 4.721V44.46h-9.049v-3.934h9.049z"/><path d="M47.214 10.23v40.918H29.509V10.23h17.705z" fill="#156287"/></g><path d="M47.214 10.23v40.918H29.509V10.23h17.705z" stroke="#8ec9e0" stroke-width="1.18" class="B D"/><use xlink:href="#C" class="C"/><use xlink:href="#C" class="B D E F"/><use xlink:href="#D" class="C"/><use xlink:href="#D" class="B D E F"/><use xlink:href="#E" class="C"/><use xlink:href="#E" class="B D E F"/><use xlink:href="#D" y="-6.689" class="C"/><use xlink:href="#D" y="-6.689" class="B D E F"/><use xlink:href="#D" y="-9.836" class="C"/><use xlink:href="#D" y="-9.836" class="B D E F"/><use xlink:href="#D" y="-13.377" class="C"/><use xlink:href="#D" y="-13.377" class="B D E F"/><use xlink:href="#D" y="-16.525" class="C"/><use xlink:href="#D" y="-16.525" class="B D E F"/><use xlink:href="#E" y="-16.525" class="C"/><use xlink:href="#E" y="-16.525" class="B D E F"/><path d="M46.033 24v1.574h-1.18V24h1.18z" class="C"/><path d="M46.033 24v1.574h-1.18V24h1.18z" class="B D E F"/><use xlink:href="#D" y="-26.755" class="C"/><use xlink:href="#D" y="-26.755" class="B D E F"/><use xlink:href="#D" y="-29.902" class="C"/><use xlink:href="#D" y="-29.902" class="B D E F"/><use xlink:href="#F" class="C"/><use xlink:href="#F" class="B D E F"/><use xlink:href="#G" class="C"/><use xlink:href="#G" class="B D E F"/><use xlink:href="#H" class="C"/><use xlink:href="#H" class="B D E F"/><use xlink:href="#G" y="-6.689" class="C"/><use xlink:href="#G" y="-6.689" class="B D E F"/><use xlink:href="#G" y="-9.836" class="C"/><use xlink:href="#G" y="-9.836" class="B D E F"/><use xlink:href="#G" y="-13.377" class="C"/><use xlink:href="#G" y="-13.377" class="B D E F"/><use xlink:href="#G" y="-16.525" class="C"/><use xlink:href="#G" y="-16.525" class="B D E F"/><use xlink:href="#H" y="-16.525" class="C"/><use xlink:href="#H" y="-16.525" class="B D E F"/><path d="M32.656 24v1.574h-1.574V24h1.574z" class="C"/><path d="M32.656 24v1.574h-1.574V24h1.574z" class="B D E F"/><use xlink:href="#G" y="-26.755" class="C"/><use xlink:href="#G" y="-26.755" class="B D E F"/><use xlink:href="#G" y="-29.902" class="C"/><use xlink:href="#G" y="-29.902" class="B D E F"/><use xlink:href="#G" y="-33.05" class="C"/><use xlink:href="#G" y="-33.05" class="B D E F"/><use xlink:href="#C" y="-9.05" class="C"/><use xlink:href="#C" y="-9.05" class="B D E F"/><path d="M42.493 24v5.508h-7.476V24h7.476z" class="C"/><path d="M42.493 24v5.508h-7.476V24h7.476z" class="B D E F"/><use xlink:href="#I" class="C"/><use xlink:href="#I" class="B D E F"/><use xlink:href="#J" class="C"/><use xlink:href="#J" class="B D G"/></symbol><defs ><path id="C" d="M42.493 41.706v5.508h-7.476v-5.508h7.476z"/><path id="D" d="M46.033 47.214v1.574h-1.18v-1.574h1.18z"/><path id="E" d="M46.033 43.673v1.967h-1.18v-1.967h1.18z"/><path id="F" d="M46.033 14.164v1.18l-1.18.393v-1.574h1.18z"/><path id="G" d="M32.656 47.214v1.574h-1.574v-1.574h1.574z"/><path id="H" d="M32.656 43.673v1.967h-1.574v-1.967h1.574z"/><path id="I" d="M42.493 15.345v5.115h-7.476v-5.115h7.476z"/><path id="J" d="M11.012 10.24c-4.721-.787-7.082 1.574-6.689 3.541-3.541.787-2.361 5.115-.787 5.115-.393 1.967 3.934 3.935 6.295 2.754 1.18 1.967 3.935 1.967 7.082 2.361 2.361 0 3.934-.393 5.115-1.574v.393c4.328 0 5.902-2.754 5.115-4.721h.393c1.18-.393 1.574-3.541-1.18-3.934l.393-.393c.787-1.967-1.574-3.934-5.115-3.541v-.393c-2.361-1.967-9.443-1.574-10.23.393z"/></defs></svg>