<svg xmlns="http://www.w3.org/2000/svg" xmlns:xlink="http://www.w3.org/1999/xlink" viewBox="0 0 51 53" fill="#fff" fill-rule="evenodd" stroke="#000" stroke-linecap="round" stroke-linejoin="round"><use xlink:href="#A" x=".5" y=".5"/><symbol id="A" overflow="visible"><g stroke="#fff" stroke-linejoin="miter"><g stroke-width=".787"><path d="M0 24.804h37.009" stroke-linecap="square" fill="none"/><path d="M37.009 51.97V40.159H0V51.97h37.009z" fill="#046897"/></g><path d="M49.214 29.135L37.009 40.159H0l13.386-11.024h35.828z" fill="#000" stroke-width=".394"/><path d="M49.214 40.552V29.134L37.009 40.158V51.97l12.205-11.418zm-12.205-3.15V25.591H0v11.811h37.009z" fill="#046897" stroke-width=".787"/><path d="M49.214 14.174L37.009 25.198H0l13.386-11.024h35.828z" fill="#000" stroke-width=".394"/><g stroke-width=".787" fill="#046897"><path d="M49.214 27.166V14.961L37.009 25.985v11.811l12.205-10.63zm-12.205-4.331V11.024H0v11.811h37.009z"/><path d="M49.214 0L37.009 11.024H0L13.386 0h35.828z"/><path d="M49.214 11.811V0L37.009 11.024v11.811l12.205-11.024z"/></g></g><g stroke="none"><path d="M30.316 6.299l1.575-1.181 4.331 1.181-8.662 1.969 1.575-1.575h-8.268l1.181-.394h8.268zm-3.937-3.15l-.787.787h-7.087l-1.181.787-4.331-1.575 8.268-1.575-1.968 1.575h7.087zm-6.299 4.725l-.787.787h-7.087l-1.181.787-4.331-1.181 8.662-1.969-1.969 1.575h6.693zm16.93-5.906L38.584.787l4.331 1.181-8.662 1.969 1.575-1.181H27.56l1.181-.787h8.268z" fill="#000"/><path d="M30.316 6.693l1.575-1.181 4.331 1.181-8.662 1.969 1.575-1.575h-8.268l1.181-.394h8.268zm-3.937-3.15l-.788.787h-7.087l-1.181.787-4.331-1.575 8.268-1.575-1.969 1.575h7.087zm-6.3 4.725l-.787.787h-7.087l-1.181.787-4.331-1.181 8.662-1.969-1.969 1.575h6.693zm16.93-5.906l1.575-1.181 4.331 1.181-8.662 1.969 1.575-1.181H27.56l1.181-.788h8.268zM20.079 24.41v-8.268h1.181l-1.969-3.15-1.969 3.15h1.181v8.268h1.575zm-4.331 2.756L9.843 21.26l1.181-.787-3.543-.787.394 3.543 1.181-.787 5.906 5.512.787-.788zm-1.969 3.937H5.512v-1.575l-3.15 1.969 3.15 2.362v-1.575h8.268v-1.181zm1.181 3.937l-5.906 5.906-1.181-1.181-.394 3.937 3.543-.787-1.181-1.181 5.906-5.512-.787-1.181zm3.544 2.362v7.874h-1.181l1.969 3.15 1.969-3.15h-1.181v-7.874h-1.575zm4.331-1.181l5.906 5.512-1.181 1.181 3.544.787-.788-3.937-.787 1.181-5.906-5.906-.788 1.181zm1.969-3.937h8.268v1.575l3.15-2.362-3.15-1.969v1.575h-8.268v1.181zm-1.181-4.331l5.906-5.512.787.787.788-3.543-3.544.787 1.181.787-5.906 5.906.788.788z"/><use xlink:href="#C"/></g><g stroke-linejoin="miter" fill="none"><use xlink:href="#C" stroke-width=".394"/><path d="M47.24 26.778c-.394 7.48-2.756 13.386-5.118 13.386-1.968 0-3.543-6.693-2.756-14.173.394-7.874 2.756-13.78 5.118-13.78 1.968.394 3.543 6.693 2.756 14.567z" stroke="#fff" stroke-width="1.575"/></g></symbol><defs ><path id="C" d="M22.83 36.621c2.756-1.969 3.543-5.512 1.575-8.268s-5.906-3.543-8.268-1.575c-2.756 1.969-3.543 5.512-1.575 8.268s5.512 3.543 8.268 1.575z"/></defs></svg>