<svg xmlns="http://www.w3.org/2000/svg" xmlns:xlink="http://www.w3.org/1999/xlink" viewBox="0 0 31 50" fill="#fff" fill-rule="evenodd" stroke="#000" stroke-linecap="round" stroke-linejoin="round"><style><![CDATA[.B{stroke:#fff}.C{stroke-linejoin:miter}.D{fill:#036c9b}.E{stroke-width:.788}.F{stroke:none}.G{stroke-linecap:square}.H{fill:none}]]></style><use xlink:href="#A" x=".5" y=".5"/><symbol id="A" overflow="visible"><g class="B C D E"><path d="M25.597 48.436V20.871H0v27.565h25.597z"/><path d="M25.597 20.871V4.332H0v16.539h25.597z"/><path d="M0 4.332L4.726.394h24.809l-3.938 3.938H0zm25.597 44.105l3.938-4.725V16.933l-3.938 3.938v27.565z"/><path d="M25.597 20.871l3.938-4.332V.394l-3.938 3.938v16.539z"/></g><path d="M0 45.286h25.203z" class="D F"/><path d="M0 45.286h25.203" class="B C E G H"/><path d="M0 20.871h25.203z" class="D F"/><path d="M0 20.871h25.203" class="B C E G H"/><g class="F"><path d="M10.632 35.836v3.544H9.451l2.756 3.544 3.15-3.544h-1.575v-3.544h-3.15zm0-3.15v-3.544H9.451l2.756-3.544 3.15 3.544h-1.575v3.544h-3.15zm-7.088.394h3.544v-1.575l3.544 2.757-3.544 3.15v-1.575H3.544v-2.757zm17.721 0h-3.938v-1.575l-3.544 2.757 3.544 3.15v-1.575h3.938v-2.757z"/><path d="M25.597 9.845H0z" class="D"/></g><path d="M25.597 9.845H0" class="B C E G H"/><path d="M27.96 1.969H2.363z" class="D F"/><path d="M27.96 1.969H2.363" class="B C E G H"/><path d="M25.597 15.358H0z" class="D F"/><path d="M25.597 15.358H0" class="B C E G H"/><path d="M29.14 6.301l-3.15 3.544z" class="D F"/><path d="M29.14 6.301l-3.15 3.544" class="B C E G H"/><path d="M29.14 12.208l-3.15 3.544z" class="D F"/><path d="M29.14 12.208l-3.15 3.544" class="B C E G H"/><path d="M27.566 2.363v15.752z" class="D F"/><path d="M27.566 2.363v15.752" class="B C E G H"/><path d="M7.482 4.332v5.513z" class="D F"/><path d="M7.482 4.332v5.513" class="B C E G H"/><path d="M17.327 4.332v5.513z" class="D F"/><path d="M17.327 4.332v5.513" class="B C E G H"/><path d="M7.482 15.752v5.119z" class="D F"/><path d="M7.482 15.752v5.119" class="B C E G H"/><path d="M17.327 15.752v5.119z" class="D F"/><path d="M17.327 15.752v5.119" class="B C E G H"/><path d="M12.601 9.845v5.513z" class="D F"/><path d="M12.601 9.845v5.513" class="B C E G H"/><path d="M2.757 9.845v5.513z" class="D F"/><path d="M2.757 9.845v5.513" class="B C E G H"/><path d="M22.446 9.845v5.513z" class="D F"/><path d="M22.446 9.845v5.513" class="B C E G H"/><path d="M12.601 0L7.482 4.332z" class="D F"/><path d="M12.601 0L7.482 4.332" class="B C E G H"/><path d="M22.446 0l-5.119 4.332z" class="D F"/><path d="M22.446 0l-5.119 4.332m12.208 12.208l-4.332 4.726H0" class="B C E G H"/><path d="M29.535 40.954l-4.332 4.332z" class="D F"/><path d="M29.535 40.954l-4.332 4.332" class="B C E G H"/></symbol></svg>