<svg xmlns="http://www.w3.org/2000/svg" xmlns:xlink="http://www.w3.org/1999/xlink" viewBox="0 0 69 35" fill="#fff" fill-rule="evenodd" stroke="#000" stroke-linecap="round" stroke-linejoin="round"><use xlink:href="#A" x=".5" y=".5"/><symbol id="A" overflow="visible"><g stroke="#fff" stroke-linejoin="miter" fill="#046897" stroke-width=".788"><path d="M50.814 33.088V16.544H0v16.544h50.814z"/><path d="M0 16.544L20.483 0h47.269L50.814 16.544H0z"/><path d="M50.814 33.482l16.938-16.938V0L50.814 16.544v16.938z"/></g><path d="M29.937 12.212l-1.182.788H16.15l-1.182 1.182-3.545-1.182 7.09-1.969-1.576 1.182h12.999zm9.848-6.302l-1.182.788H25.998l-1.182 1.576-3.545-1.576 7.09-1.969-1.182 1.182h12.605zm-7.878 4.333l1.182-.788h12.605l1.182-1.576 3.545 1.576-7.09 1.97 1.182-1.182H31.906zm6.696-6.303l.788-.788h12.605l1.576-1.182 3.151 1.182-6.696 1.97 1.182-1.182H38.602zM25.604 25.604h9.06v1.576l3.545-2.363-3.545-1.97v1.576h-9.06v1.182zm-.394-2.363l8.666-2.757.394 1.182 2.757-3.151-4.333-.788.788 1.182-8.666 3.151.394 1.182zm0 3.151l8.666 3.151.394-1.576 2.757 3.151-4.333 1.182.788-1.576-8.666-2.757.394-1.576zm-13.787-.788h8.666v1.576l3.545-2.363-3.545-1.97v1.576h-8.666v1.182z" stroke="none"/></symbol></svg>