<svg xmlns="http://www.w3.org/2000/svg" xmlns:xlink="http://www.w3.org/1999/xlink" viewBox="0 0 100.287 56" fill="#fff" fill-rule="evenodd" stroke="#000" stroke-linecap="round" stroke-linejoin="round"><style><![CDATA[.B{stroke:none}.C{stroke:#fff}.D{stroke-linejoin:miter}.E{fill:#036c9b}.F{stroke-width:.787}.G{stroke-linecap:square}]]></style><use xlink:href="#A" x=".5" y=".5"/><symbol id="A" overflow="visible"><g stroke-width=".788" class="C D E"><path d="M60.218 28.731L65.729 0h-41.72l-6.297 28.731h42.507z"/><path d="M65.727.001l1.968 1.968-5.116 28.338-2.361-1.574L65.729.002z"/><path d="M17.711 28.731l1.968 1.574h42.9l-2.361-1.574H17.711z"/></g><use xlink:href="#C" class="B E"/><use xlink:href="#C" fill="none" class="C D F"/><path d="M0 44.476v4.723h46.049v-4.723H0z" class="B E"/><g class="C"><g class="D F"><path d="M0 44.476v4.723h46.049v-4.723H0" fill="none" class="G"/><path d="M18.105 31.094l42.507-.394-14.563 13.775H0l18.105-13.382zm38.571-5.117l4.723-22.434H27.157l-4.329 22.434h33.848z" class="E"/></g><g fill="none" class="G"><path d="M19.286 31.488L8.659 40.147m14.169-8.659l-11.02 8.659m14.169-8.659L15.35 40.147m14.169-8.659l-10.627 8.659m14.169-8.659l-10.627 8.659m14.169-8.659l-11.02 8.659m14.169-8.659l-10.627 8.659m14.169-8.659l-10.627 8.659m14.169-8.659L36.21 40.147m14.169-8.659l-11.02 8.659m14.169-8.659l-10.627 8.659m14.169-8.659l-10.627 8.659"/><path d="M9.84 39.36h38.177m-35.816-1.968h37.784m-35.029-1.968h37.39m-35.029-1.968h37.784"/></g></g><g class="B"><path d="M40.534 10.634h6.297c1.574.787 1.181 1.968 1.181 1.968 0 1.181-.787 1.181-.787 1.181H35.811c-1.968 0-1.181-1.574-1.181-1.574l4.723-5.51c.787-.787 2.361 0 2.361 0 1.181.787.787 1.968.787 1.968zm4.33 8.658H38.96c-1.574-.394-1.574-1.574-1.574-1.574 0-1.181 1.181-1.574 1.181-1.574h11.02c2.362.394 1.574 1.968 1.574 1.968l-4.723 5.51c-.787.787-2.755 0-2.755 0-.787-1.181-.394-1.968-.394-1.968z"/><use xlink:href="#D" fill="#000"/></g><g fill="none" class="G"><path d="M88.55 51.172c-5.117 1.968-14.956 2.361-23.221 1.181-5.117-1.181-8.265-2.361-9.052-3.936" class="F"/><path d="M68.085 42.513c1.181-3.149 3.149-5.904 6.297-8.265C81.86 27.951 91.7 26.77 96.423 31.1s2.362 12.594-4.723 18.892c-.787.394-1.574 1.181-2.361 1.574" stroke-width="1.574"/></g><use xlink:href="#E" fill="#000" class="B"/><use xlink:href="#E" fill="none" class="C D F"/><use xlink:href="#D" x="11.808" y="-5.904" fill="#000" class="B"/></symbol><defs ><path id="C" d="M60.606 30.706v4.329l-.787 1.181s-2.755.787-2.361 2.361L46.044 49.204v-4.723z"/><path id="D" d="M57.851 48.417c0 .787-.787 1.574-1.574 1.574-1.181 0-1.968-.787-1.968-1.574 0-1.181.787-1.968 1.968-1.968.787 0 1.574.787 1.574 1.968z"/><path id="E" d="M92.486 51.566c0 1.574-1.574 3.149-3.149 3.149s-3.149-1.574-3.149-3.149 1.574-3.149 3.149-3.149 3.149 1.574 3.149 3.149z"/></defs></svg>