<svg xmlns="http://www.w3.org/2000/svg" xmlns:xlink="http://www.w3.org/1999/xlink" viewBox="0 0 53 49" fill="#fff" fill-rule="evenodd" stroke="#000" stroke-linecap="round" stroke-linejoin="round"><style><![CDATA[.B{stroke:#fff}.C{stroke-width:.787}.D{stroke:none}.E{stroke-linejoin:miter}.F{stroke-linecap:square}]]></style><use xlink:href="#A" x=".5" y=".5"/><symbol id="A" overflow="visible"><g fill="#036c9b"><path d="M51.971 9.055v16.142L37.797 38.19V22.441L51.971 9.055z" class="B C E"/><path d="M12.993 12.993H0L14.568 0h12.599l17.717 9.055h7.087L37.797 22.442H30.71z" class="D"/></g><g class="B C E"><path d="M12.993 12.993H0L14.568 0h12.599l17.717 9.055h7.087L37.797 22.442H30.71" fill="none" class="F"/><path d="M12.993 12.993l17.717 9.449h7.087v15.749H30.71l-17.717 9.055H0V12.993h12.993z" fill="#036c9b"/></g><path d="M27.954 9.056l-6.693-3.15z" class="D"/><path d="M27.954 9.056l-6.693-3.15" fill="none" class="B C"/><g class="D"><path d="M30.709 14.568l4.725-3.937-5.512.394.787 3.543zm-7.874-4.725l4.725-3.937.787 3.937h-5.512z"/><path d="M37.01 14.174l-5.906-2.756z"/></g><path d="M37.01 14.174l-5.906-2.756" fill="none" class="B C"/><path d="M29.922 9.843l3.543-2.756z" class="D"/><path d="M29.922 9.843l3.543-2.756" fill="none" class="B C"/><g class="D"><path d="M23.623 11.418l5.118 2.756-5.512.787.394-3.543zm6.693-5.512l5.118 2.756-.394-3.15-4.725.394z"/><path d="M24.804 13.78l3.543-2.756z"/></g><g class="B"><g fill="none"><path d="M24.804 13.78l3.543-2.756" class="C"/><g stroke-width="2.362" class="E F"><path d="M23.229 36.616H18.11l-7.087-14.174H6.299"/><path d="M5.906 36.616h5.118l6.693-14.174h5.512"/></g></g><path d="M21.654 20.079v4.725l2.756-2.362-2.756-2.362zm0 14.174v4.725l2.756-2.362-2.756-2.362zM6.693 25.197v-5.118l-2.756 2.362 2.756 2.756zm0 14.174v-5.118l-2.756 2.362 2.756 2.756z" stroke-width=".394" class="E"/></g></symbol></svg>