<svg xmlns="http://www.w3.org/2000/svg" xmlns:xlink="http://www.w3.org/1999/xlink" viewBox="0 0 59 52" fill="#fff" fill-rule="evenodd" stroke="#000" stroke-linecap="round" stroke-linejoin="round"><style><![CDATA[.B{stroke-linejoin:miter}.C{stroke:none}.D{stroke-width:.787}.E{stroke-linecap:square}.F{stroke-width:.394}]]></style><use xlink:href="#A" x=".5" y=".5"/><symbol id="A" overflow="visible"><use xlink:href="#C" fill="#036c9b" class="C"/><use xlink:href="#C" stroke="#fff" fill="none" class="B D"/><use xlink:href="#D" fill="#036c9b" class="C"/><use xlink:href="#D" stroke="#fff" fill="none" class="B D"/><path d="M22.053 6.687l2.362 3.544-9.056 2.362 1.969-1.969-13.78-2.362L7.092 5.9l13.387 1.969 1.575-1.181zm12.993 8.662l-1.575-3.544 7.874-1.575-1.181 1.181 13.386 2.362-3.15 2.362-13.387-2.362-1.969 1.575zM30.321 4.718l9.449-2.362v3.937L37.408 5.9l-4.331 3.544-4.331-.787 4.725-3.543-3.15-.394zm-3.937 14.174l-8.662 1.575-.394-3.937 2.756.394 4.725-3.937 4.331.787-5.118 4.331 2.362.787z" class="C"/><g stroke="#fff" class="B"><path d="M43.314 42.516v-7.481l-4.331 3.544 4.331 3.937zm-30.71 0v-7.481l4.331 3.544-4.331 3.937zm2.756-14.568v7.481l-4.331-3.543 4.331-3.937zm24.804 0v7.481l4.331-3.543-4.331-3.937z"/><path d="M40.951 31.491h-2.362m3.544 7.087h3.15m-31.498 0h-3.543m3.544-6.693h3.544" fill="none" stroke-width="1.181" class="E"/></g><g stroke="#036c9b" class="F"><path d="M35.439 31.885v12.993H20.478V31.885h14.961z" class="B"/><path d="M33.865 35.822H22.053V33.46h11.812v2.362zm0 7.875H22.053v-5.906h11.812v5.906z" fill="none" class="B"/></g><path d="M31.104 27.167s.787 0 .787.787l.394 2.362 4.725.787.788-1.181-1.181-2.756c-6.693-1.575-9.056-1.181-9.056-1.181h.394s-2.362-.394-8.662 1.181l-1.181 2.756.394 1.181 5.118-.787v-2.362c.394-.787 1.181-.787 1.181-.787z" class="C"/><path d="M33.865 36.609H22.053" stroke="#036c9b" fill="none" class="B E F"/></symbol><defs ><path id="C" d="M57.876 11.024c0 6.3-12.993 11.418-29.135 11.418S0 17.324 0 11.024v28.348c0 6.299 12.599 11.418 28.741 11.418s29.135-5.118 29.135-11.418z"/><path id="D" d="M28.741 22.442c16.142 0 29.135-5.118 29.135-11.418C57.877 5.118 44.884 0 28.741 0S0 5.118 0 11.024c0 6.299 12.599 11.418 28.741 11.418z"/></defs></svg>