<svg xmlns="http://www.w3.org/2000/svg" xmlns:xlink="http://www.w3.org/1999/xlink" viewBox="0 0 49 55" fill="#fff" fill-rule="evenodd" stroke="#000" stroke-linecap="round" stroke-linejoin="round"><use xlink:href="#A" x=".5" y=".5"/><symbol id="A" overflow="visible"><g stroke="#fff" stroke-linejoin="miter" fill="#036c9b" stroke-width=".787"><path d="M39.358 53.92l7.871-7.478V0l-7.871 7.478V53.92z"/><path d="M47.229 0l-7.871 7.478H0L10.233 0h36.996z"/><path d="M39.358 53.92V7.478H0V53.92h39.358z"/></g><path d="M20.466 14.169h1.574l-2.362-3.149-1.968 3.149h1.574v33.848h-1.574l1.968 3.149 2.362-3.149h-1.574V14.169zm-11.02 0h1.574L9.053 11.02l-2.362 3.149h1.574v33.848H6.691l2.362 3.149 1.968-3.149H9.446V14.169zm21.647 0h1.181l-1.968-3.149-1.968 3.149h1.181v33.848h-1.181l1.968 3.149 1.968-3.149h-1.181V14.169z" stroke="none"/></symbol></svg>