<svg xmlns="http://www.w3.org/2000/svg" xmlns:xlink="http://www.w3.org/1999/xlink" viewBox="0 0 77 43" fill="#fff" fill-rule="evenodd" stroke="#000" stroke-linecap="round" stroke-linejoin="round"><use xlink:href="#A" x=".5" y=".5"/><symbol id="A" overflow="visible"><g stroke="#fff" stroke-linejoin="miter" fill="#036c9b" stroke-width=".788"><path d="M0 18.508L22.839 0h52.373L56.704 18.508H0z"/><path d="M56.704 41.741l18.508-18.901V0L56.704 18.508v23.233z"/><path d="M56.704 41.741V18.508H.394v23.233h56.31z"/></g><path d="M18.508 27.171v-4.332H9.845v4.332h8.663zm19.295 0v-4.332h8.663v4.332h-8.663zM18.508 38.196v-4.332H9.845v4.332h8.663zm19.295 0v-4.332h8.663v4.332h-8.663z" stroke="none"/><g stroke="#fff" stroke-linejoin="miter" stroke-width=".788" stroke-linecap="square" fill="none"><path d="M15.751 24.808H41.74M15.751 35.834H41.74"/><path d="M14.176 36.228l27.564-11.42"/><path d="M14.176 24.808l27.564 11.42"/></g><path d="M32.29 3.544l11.813-1.181-2.363 3.938-2.756-.788-17.72 6.694-3.15-.788L35.44 4.726l-3.15-1.181zm13.782 4.332l11.42-1.181-1.969 3.544-3.15-.394-17.326 6.694-3.15-.788 16.933-6.694-2.757-1.181z" stroke="none"/></symbol></svg>