<svg xmlns="http://www.w3.org/2000/svg" xmlns:xlink="http://www.w3.org/1999/xlink" viewBox="0 0 59 39" fill="#fff" fill-rule="evenodd" stroke="#000" stroke-linecap="round" stroke-linejoin="round"><use xlink:href="#A" x=".5" y=".5"/><symbol id="A" overflow="visible"><g stroke="#fff" stroke-linejoin="miter" fill="#036c9b" stroke-width=".787"><path d="M0 37.772V11.017h48.002v26.755H0z"/><path d="M48.002 37.772V11.017L57.838 0v27.149l-9.836 10.623z"/><path d="M48.002 11.016H0L11.804.393h46.035l-9.836 10.623z"/></g><path d="M10.23 20.854H1.574V19.28h8.656v-2.361l4.721 3.148-4.721 3.148v-2.361zm30.69 9.836h-8.656v-1.967h8.656v-2.361l5.115 3.148-5.115 3.541V30.69z" stroke="none"/><g stroke-linejoin="miter" stroke-width=".787"><path d="M23.214 25.575h-7.082V13.771h7.082v11.804z"/><path d="M27.542 30.297h-7.476V18.493h7.476v11.804z"/><path d="M31.476 35.411h-7.082V23.607h7.082v11.804z"/></g></symbol></svg>