<svg xmlns="http://www.w3.org/2000/svg" xmlns:xlink="http://www.w3.org/1999/xlink" viewBox="0 0 59 39" fill="#fff" fill-rule="evenodd" stroke="#000" stroke-linecap="round" stroke-linejoin="round"><use xlink:href="#A" x=".5" y=".5"/><symbol id="A" overflow="visible"><g stroke="#fff" stroke-linejoin="miter" fill="#036c9b" stroke-width=".787"><path d="M0 37.772V10.623h47.608v27.149H0z"/><path d="M47.608 37.772V10.623L57.444 0v26.755l-9.836 11.017z"/><path d="M47.608 10.623H0L11.804 0h45.641l-9.836 10.623z"/></g><path d="M9.836 20.853H1.18v-1.967h8.656v-2.361l5.115 3.148-5.115 3.541v-2.361zm31.083-4.328h-7.082v-1.574h7.082v-1.967l4.328 2.754-4.328 2.754v-1.967zm0 8.263h-7.082v-1.18h7.082v-2.361l4.328 3.148-4.328 2.754v-2.361zm0 8.656h-7.082V31.87h7.082v-1.967l4.328 2.754-4.328 2.754v-1.967zM28.329 15.345v10.23H16.131v-10.23h12.197z" stroke="none"/><g stroke-linejoin="miter"><path d="M31.477 16.919v4.328h-2.361v-4.328h2.361z" stroke-width=".394"/><g stroke="#fff" fill="none"><path d="M17.706 32.264l4.328-11.804 4.721 11.804" stroke-width="1.574"/><path d="M25.575 19.279h3.541" stroke-width="2.361"/></g></g></symbol></svg>