<svg xmlns="http://www.w3.org/2000/svg" xmlns:xlink="http://www.w3.org/1999/xlink" viewBox="0 0 77 58" fill="#fff" fill-rule="evenodd" stroke="#000" stroke-linecap="round" stroke-linejoin="round"><style><![CDATA[.B{stroke-width:.787}.C{stroke:none}.D{stroke:#fff}.E{stroke-linejoin:miter}.F{stroke-width:.394}]]></style><use xlink:href="#A" x=".5" y=".5"/><symbol id="A" overflow="visible"><g class="D E"><g fill="#036c9b" class="B"><path d="M56.694 36.615V18.111H.394v18.504h56.3z"/><path d="M0 18.111L22.835 0h52.363L56.694 18.111H0z"/><path d="M56.694 37.009l18.504-19.292V0L56.694 18.111v18.898z"/></g><g fill="#76acc8"><path d="M56.694 55.906V36.221H.394v19.685h56.3z" class="B"/><path d="M56.694 56.3l18.504-19.292V17.717L56.694 36.221V56.3z" class="B"/></g></g><g class="C"><path d="M40.552 7.874l3.543.787 9.449-2.756 3.543.788-1.575-2.362H44.095l5.118.787-8.662 2.756zM20.866 5.118l3.15-.787 9.843 2.362 3.15-.788-1.575 2.756H24.016l5.512-.787-8.662-2.756zM56.3 13.78l-3.543.787-8.662-2.362-4.331.787 1.575-2.756h11.418l-4.331.787L56.3 13.78zm-20.079-2.756l-3.543-.787-8.662 2.756-4.331-.787 1.968 2.362 11.024.394-5.118-1.181 8.662-2.756z"/><use xlink:href="#C"/></g><use xlink:href="#C" fill="none" class="F"/><use xlink:href="#D" class="C"/><use xlink:href="#D" fill="none" class="F"/><use xlink:href="#E" class="C"/><g fill="none"><use xlink:href="#E" class="F"/><path d="M.394 36.221h56.3" class="B D"/></g><path d="M22.048 45.67h-10.63v-1.181l-3.937 1.575 3.937 1.575v-1.181h10.63v-.788zm5.906 2.756v3.937h-2.756l3.937 1.575 3.937-1.575h-2.756v-3.937h-2.362zm0-4.724v-3.937h-2.756l3.937-1.181 3.937 1.181h-2.756v3.937h-2.362zm8.268 2.756h10.63v1.181l3.937-1.575-3.937-1.575v1.181h-10.63v.788z" class="C"/><g fill="none" class="B D E"><path d="M46.059 51.976c-1.969.787-11.024-1.181-20.473-4.331-9.055-3.543-14.961-6.693-12.992-7.48s11.024 1.575 20.473 4.724c9.055 3.15 14.961 6.299 12.992 7.087z"/><path d="M45.665 40.165c1.968.787-3.937 3.937-12.992 7.087-9.055 3.543-18.11 5.512-20.473 4.724-1.968-.787 3.937-3.937 12.992-7.087s18.11-5.512 20.473-4.724z"/></g><use xlink:href="#F" fill="#abcadc" class="C"/><use xlink:href="#F" fill="none" class="B D E"/></symbol><defs ><path id="C" d="M28.736 33.865c3.543 0 6.693-.787 6.693-1.969s-3.15-1.968-6.693-1.968c-3.937 0-7.087.787-7.087 1.968s3.15 1.969 7.087 1.969z"/><path id="D" d="M35.429 22.054c0 1.181-3.15 2.362-6.693 2.362-3.937 0-7.087-1.181-7.087-2.362v8.662c0 1.181 3.15 2.362 7.087 2.362 3.543 0 6.693-1.181 6.693-2.362z"/><path id="E" d="M28.736 24.417c3.543 0 6.693-1.181 6.693-2.362s-3.15-1.968-6.693-1.968c-3.937 0-7.087.787-7.087 1.968s3.15 2.362 7.087 2.362z"/><path id="F" d="M33.46 48.038c3.543-.787 4.331-2.362 1.968-3.543s-7.48-1.575-10.63-.787c-3.543.787-4.331 2.756-1.968 3.937s7.087 1.575 10.63.394z"/></defs></svg>