<svg xmlns="http://www.w3.org/2000/svg" xmlns:xlink="http://www.w3.org/1999/xlink" viewBox="0 0 24 48" fill="#fff" fill-rule="evenodd" stroke="#000" stroke-linecap="round" stroke-linejoin="round"><style><![CDATA[.B{stroke:none}.C{fill:none}.D{fill:#000}.E{stroke-width:.394}.F{stroke-width:.788}.G{stroke-linecap:square}.H{fill:#036c9b}.I{stroke-linejoin:miter}]]></style><use xlink:href="#A" x=".5" y=".5"/><symbol id="A" overflow="visible"><g class="B H"><use xlink:href="#C"/><use xlink:href="#D"/></g><g stroke="#fff"><g class="F I"><use xlink:href="#E" class="C G"/><use xlink:href="#C" class="H"/></g><g class="C"><use xlink:href="#F" class="F"/><g class="I"><use xlink:href="#E" class="F G"/><use xlink:href="#C" class="F"/><use xlink:href="#F" class="F G"/></g></g></g><g class="B H"><use xlink:href="#C"/><use xlink:href="#D"/></g><g stroke="#fff" class="F I"><use xlink:href="#E" class="C G"/><use xlink:href="#C" class="H"/></g><path d="M14.568 7.875L22.049 0z" class="B D"/><g stroke="#fff" class="C F"><use xlink:href="#F"/><g class="I"><use xlink:href="#E" class="G"/><use xlink:href="#C"/><use xlink:href="#F" class="G"/></g></g><use xlink:href="#G" class="B"/><use xlink:href="#G" class="C E"/><g class="B"><g class="D"><use xlink:href="#H"/><use xlink:href="#I"/></g><use xlink:href="#J"/></g><use xlink:href="#J" class="C E"/><g class="B"><g class="D"><path d="M8.657 35.049c0 .394-.394.787-1.181.787s-1.575-.394-1.575-.787c0 0 .787-.394 1.575-.394s1.181.394 1.181.394z"/><use xlink:href="#H" y="-2.756"/></g><use xlink:href="#K"/></g><use xlink:href="#K" class="C E"/><g class="B"><use xlink:href="#I" y="-2.756" class="D"/><use xlink:href="#G" y="-7.481"/></g><use xlink:href="#G" y="-7.481" class="C E"/><g class="B"><g class="D"><use xlink:href="#H" y="-7.481"/><use xlink:href="#I" y="-7.481"/></g><use xlink:href="#G" y="-9.449"/></g><use xlink:href="#G" y="-9.449" class="C E"/><g class="B"><g class="D"><use xlink:href="#H" y="-9.449"/><use xlink:href="#I" y="-9.449"/></g><use xlink:href="#J" y="-9.449"/></g><use xlink:href="#J" y="-9.449" class="C E"/><g class="B"><use xlink:href="#L" class="D"/><use xlink:href="#M"/></g><use xlink:href="#M" class="C E"/><g class="B"><g class="D"><use xlink:href="#I" y="-14.174"/><use xlink:href="#L" y="-4.725"/></g><use xlink:href="#G" y="-16.93"/></g><use xlink:href="#G" y="-16.93" class="C E"/><g class="B"><g class="D"><use xlink:href="#H" y="-16.93"/><use xlink:href="#I" y="-16.93"/></g><use xlink:href="#G" y="-18.899"/></g><use xlink:href="#G" y="-18.899" class="C E"/><use xlink:href="#H" y="-18.899" class="B D"/></symbol><defs ><path id="C" d="M14.568 46.46l7.481-7.875V0H7.875L0 7.875h14.568V46.46z"/><path id="D" d="M14.568 7.875L22.049 0zm0 0H0V46.46h14.568z"/><path id="E" d="M14.568 7.875H0v38.585h14.568"/><path id="F" d="M14.568 7.875L22.049 0"/><path id="G" d="M11.807 37.017c0 1.181-1.969 1.969-4.331 1.969-2.756 0-4.725-.787-4.725-1.969 0-.787 1.969-1.575 4.725-1.575 2.362 0 4.331.788 4.331 1.575z"/><path id="H" d="M8.657 37.017c0 .394-.394.394-1.181.394s-1.575 0-1.575-.394.787-.394 1.575-.394 1.181 0 1.181.394z"/><path id="I" d="M8.657 36.23s-.394.394-1.181.394-1.575-.394-1.575-.394c0-.394.787-.788 1.575-.788s1.181.394 1.181.788z"/><path id="J" d="M11.807 35.442c0 .788-1.969 1.575-4.331 1.575-2.756 0-4.725-.787-4.725-1.575 0-1.181 1.969-1.969 4.725-1.969 2.362 0 4.331.788 4.331 1.969z"/><path id="K" d="M11.807 33.474c0 .788-1.969 1.575-4.331 1.575-2.756 0-4.725-.787-4.725-1.575 0-1.181 1.969-1.969 4.725-1.969 2.362 0 4.331.787 4.331 1.969z"/><path id="L" d="M8.657 25.599c0 .394-.394.788-1.181.788s-1.575-.394-1.575-.788c0 0 .787-.394 1.575-.394s1.181.394 1.181.394z"/><path id="M" d="M11.807 22.055c0 .787-1.969 1.575-4.331 1.575-2.756 0-4.725-.787-4.725-1.575S4.72 20.48 7.476 20.48c2.362 0 4.331.787 4.331 1.575z"/></defs></svg>