<svg xmlns="http://www.w3.org/2000/svg" xmlns:xlink="http://www.w3.org/1999/xlink" viewBox="0 0 38.681 18.681" fill="#fff" fill-rule="evenodd" stroke="#000" stroke-linecap="round" stroke-linejoin="round"><style><![CDATA[.B{stroke-linejoin:miter}.C{stroke-width:2.361}.D{stroke-linecap:square}]]></style><use xlink:href="#A" x="1.181" y="1.181"/><symbol id="A" overflow="visible"><g stroke="#b2b2b2" fill="none" class="B C"><path d="M9.051 8.658c1.956 0 3.542-1.586 3.542-3.542s-1.586-3.542-3.542-3.542S5.509 3.16 5.509 5.116s1.586 3.542 3.542 3.542z"/><path d="M9.051 15.742c1.956 0 3.542-1.586 3.542-3.542s-1.586-3.542-3.542-3.542-3.542 1.586-3.542 3.542 1.586 3.542 3.542 3.542z"/><path d="M3.936 11.413c1.574 0 2.755-1.181 2.755-2.755S5.51 5.903 3.936 5.903 1.181 7.084 1.181 8.658s1.181 2.755 2.755 2.755z"/><path d="M12.593 3.148c0 1.181.394 2.361.787 3.542.393.787 1.574 1.574 2.361 1.968m-3.148 5.903c0-1.574.394-2.755.787-3.935.393-.787 1.574-1.574 2.361-1.968" class="D"/></g><g stroke="#0f73a0"><path d="M7.871 7.084c1.956 0 3.542-1.586 3.542-3.542S9.827 0 7.871 0 4.329 1.586 4.329 3.542s1.586 3.542 3.542 3.542z" fill="none" class="B C"/><path d="M7.871 14.168c1.956 0 3.542-1.586 3.542-3.542S9.827 7.084 7.871 7.084 4.329 8.67 4.329 10.626s1.586 3.542 3.542 3.542z" fill="none" class="B C"/><path d="M2.755 9.839c1.574 0 2.755-1.181 2.755-2.755S4.329 4.329 2.755 4.329 0 5.51 0 7.084s1.181 2.755 2.755 2.755z" fill="none" class="B C"/><path d="M11.413 1.574c0 1.181.393 2.361.787 3.542s1.574 1.968 2.361 2.361" fill="none" class="B C D"/></g><g stroke="none"><path d="M11.413 12.987c0-1.181.393-2.361.787-3.542s1.574-1.968 2.361-2.361" fill="#0f73a0"/><path d="M36.992 11.02V7.084H20.858c-.393-.787-.787-1.181-1.181-1.181s-.787.394-.787 1.181h-.393c-.394-.787-.787-1.574-1.181-1.574s-.787.787-1.181 1.574h-2.361v3.148h2.755c0 .787.393 1.181.787 1.181s.787-.393 1.181-1.181h.393c0 .787.394 1.574.787 1.574s.787-.787 1.181-1.574h11.806v5.903h3.935v-1.574h-1.574v-.787h1.574V12.2h-1.574V11.02z" fill="#b2b2b2"/><path d="M35.811 9.445V5.51H19.677c-.393-.787-.787-1.181-1.181-1.181s-.787.394-.787 1.181h-.394c-.393-.787-.787-1.181-1.181-1.181s-.787.394-.787 1.181h-2.755v3.148h2.755c0 .787.393 1.574.787 1.574s.787-.787 1.181-1.574h.394c0 .787.393 1.574.787 1.574s.787-.787 1.181-1.574h11.806v5.903h3.935v-1.574h-1.574V12.2h1.574v-1.574h-1.574V9.445z" fill="#0f73a0"/></g></symbol></svg>