<svg xmlns="http://www.w3.org/2000/svg" xmlns:xlink="http://www.w3.org/1999/xlink" viewBox="0 0 57 77" fill="#fff" fill-rule="evenodd" stroke="#000" stroke-linecap="round" stroke-linejoin="round"><use xlink:href="#A" x=".5" y=".5"/><symbol id="A" overflow="visible"><g stroke="none"><path d="M55.495 14.169v-2.755l-.394-1.574-.787-1.181-.394-1.181-1.574-2.362-1.968-1.968-2.361-1.574-2.361-.787-1.574-.394L42.9 0h-3.149l-1.181.394-1.574.394-2.361.787-2.361 1.574-1.968 1.968-1.574 2.362-.787 2.362-.787 1.574v5.51l.787 2.361-1.574-.787h-.394l-.394-.393h-1.181v.393l-6.691 7.084v.394l-.394.394.394.394v.393l.394 1.181.787 1.574.393 1.181-1.574 1.574v3.149l-.394.394-.394.787-3.542 3.542-1.181 1.574-5.116 5.117-1.181 1.574-1.574 1.574-1.181 1.574L0 55.101v.787l1.968 5.117.787.787h.394l6.691-.394h.787v-.394l1.574-1.574v-.393h.394v-2.755h2.361l2.361-2.362V52.74l-.787-.787v-.787l.787-.787h.787l.393.394h.787l.394.394.394-.394h.394l1.574-1.968v-.394h.394V47.23l-.394-.394v-.787l.787-.393h2.361v-.394l1.181-1.181h1.574l.787.787.394.787.393.393v4.329l-.787 17.318v4.723h.394v.394l4.723 2.361.394.394h.394l.394-.394h.394l5.116-5.117v-3.542h-.393v-.394h-.394l-.394-.787-.394-.394.394-.394.394-.787.394-.394h.393v-.393h.394v-3.149l-.787-.787h-.787l-.787-.787v-.787l.787-.787h.787l.787-.787v-.394l.394-2.361v-.394h-.394v-.394l-1.574-1.574.394-.787.787-.394.394-.394v-.394h.394v-2.361l1.968-1.968h.394v-.787l.394-2.362.787-.787.394-.787.787-1.181.787-.787.394-1.181v-1.181l.394-1.181v-3.936l-.394-1.574-.394-1.181 1.968-.787 1.574-1.181 1.574-1.574 1.181-1.574 1.181-1.968.787-1.968.394-1.968v-2.361zM3.542 58.25l.787-.787.787-1.181 2.362-2.362 1.181-1.574 3.149-3.149 1.181-1.574 4.329-4.329 1.181-1.574 1.181-.787.394-.787 1.181-1.181v.394h.394v.394h-.394l-.394.787-.787.787-.787 1.181-5.51 5.51-1.181 1.574-3.149 3.149-1.181 1.574-2.755 2.755-.787 1.181-.787.787-.394-.394v-.394zm20.466-14.956h-.394l-.394.394h-3.149v.787h-.394v.787l.394.787v1.574l-.787.787-.787-.394h-1.574l-.393.394h-.394l-.787.787-.787 1.181-.393.787v1.181l.787.787-.394.394h-.393v.394H11.02l-.787.787v3.542H9.84v.394l-.394.394H8.265l-.787.393H5.117l17.318-18.892 2.361 1.968-.787.787zm5.904-2.755l-.394.394h-.393v.394l-.394.394h-3.149l-2.361-1.968-2.361-2.361L2.755 57.069v-1.574l.787-.787.787-1.181 1.181-1.181 1.574-1.181 1.181-1.574 1.574-1.574 1.574-1.968 4.723-4.723 1.181-1.574 2.361-2.361v-.394h.394v-3.542l1.181-1.181v-.394h.394v-1.181l-.394-.394-.394-1.181-.393-1.574-.394-1.181.394-.394.787-.394.394-1.181 1.181-.787 2.755-2.755h.787l.787.787h.787l.787.787.787.393 1.574 1.574.787.393.394.787.394.394h.394v.394l.394.394v.393l.394.394h.394l.394.394h1.968l.394-.394v-.394l.787-.787v-1.574l-1.574-1.574h-1.181l-.394-.394h-.394l-.394-.393.394-.394h1.968l.394.394.787.393.394.394h.393l.394.787.394 1.181v1.181l-.787 1.968h-.393v1.181l.787 1.574.787.787.394 1.181 1.181 2.361-2.755 2.755-.787 1.181-1.968 1.968-.394-.394h-.394l-.787-.394h-.787l-.787-.394h-.787l-.394-.394h-.394l-.394.394h-.394v.394zm2.361-20.073l-.787-1.181-.787-3.149v-3.936l1.574-3.936 1.574-1.574 3.149-2.362 2.361-.787h4.329l1.968.787 3.149 2.362 1.574 1.574 1.574 3.936v3.936l-.394 1.574-1.574 3.149-2.362 2.361-1.181.787-1.574.787-1.968-1.968-5.51-2.755-1.181-.394h-1.574l-.787.394h-.787l-.787.394zm1.574 52.346v-.394h-.394l-.394-.394.394-5.904.394-8.265v-7.872l.394-3.936h.787l-.394 3.936v7.478l-.394 8.659-.394 6.691zm5.117-25.189l-2.361 2.362v1.181h.394v.394l.787.394.393.787.787.787v.394h-.394v.394l-.394.393h-.393l-.394.787-.787.787v.393l-.394.394v.394l.394 1.574.394.787.787.787.787.393v1.181l-.394.394-.787.394-1.181 1.181v.394h-.394v.394l.394.394v.394h.394l.394.787 1.181 1.181v1.574l-1.968 1.968-.787.394-.394.394 1.181-25.976 2.755.394v1.181zm6.691-14.562l-.394 1.181v1.181l-.787 1.181-.787 1.574-.787.787-.394.787-.787.394V42.9h-.394l-.394.787-.787.393-.394.787h-.394v.394l-3.149-.394h-3.149L31.88 71.632v-.394h-.787v-4.723l.787-17.318v-4.329h-.393v-.394l-1.181-1.181h.394V42.9l.394-.394h.787l.394.394h.787l.787.394h.787l.394.394h1.574l.394-.394 6.297-6.691.394-.394v-1.181l-.787-.787-.394-.787-.394-1.181-.787-.787-.394-1.181-.394-.787-.393-.394.787-1.181.394-1.181v-1.968l.787.787.787.394.787 1.181.787.787.787 2.362v1.181l.394 1.574zm.393-6.297v-.394l-.393-.394v-.394l1.574-.787 1.574-1.181 2.361-2.361 1.574-3.149.393-1.968v-4.329l-.787-2.361-1.181-1.968-3.149-3.149-1.968-1.181-4.723-.787-4.723.787-1.968 1.181-1.968 1.574-1.181 1.574-1.181 1.968-.787 2.361v4.329l.787 3.149.787 1.574 1.574 1.574.394.787h.394l.787.787h.394v.394h.394v.393h.787v.787l-.393.394h-.394l-.394-.394h-.394v-.394h-.394l-.787-.787h-.394l-1.574-1.574v-.393l-.787-.787-.394-.787v-.393l-.394-.394-.787-1.574-.394-1.181v-5.51l.787-2.755 1.181-1.968 1.574-1.968 1.968-1.574 2.361-1.574 2.361-.394 2.755-.393 2.755.393 2.361.394 1.968 1.574 2.361 1.574 1.574 1.968 1.181 1.968.787 2.755v4.723l-.394 1.574-.787 1.968-.787 1.574-2.755 2.755-1.574 1.181-1.968 1.181z" fill="#000"/><path d="M31.093 39.752l.394.394h.787l.787.394h.787l.787.394h.394l.394.394 1.968-1.968.787-1.181 2.755-2.755-1.181-2.361-.394-1.181-.787-.787-.787-1.574v-1.181h.394l.787-1.968v-1.181l-.394-1.181-.393-.787h-.394l-.394-.394-.787-.394-.394-.394h-1.968l-.394.394.394.394h.394l.394.394h1.181l1.574 1.574v1.574l-.787.787v.394l-.394.394h-1.968l-.394-.394h-.394l-.394-.394v-.394l-.394-.394v-.394h-.394l-.394-.394-.394-.787-.787-.394-1.574-1.574-.787-.394-.787-.787h-.787l-.787-.787h-.787l-2.755 2.755-1.181.787-.394 1.181-.787.394-.394.394.394 1.181.394 1.574.393 1.181.394.394v1.181h-.394v.394l-1.181 1.181v3.542h-.394v.394l-2.361 2.361-1.181 1.574-4.723 4.723-1.574 1.968-1.574 1.574-1.181 1.574-1.574 1.181-1.181 1.181-.787 1.181-.787.787v1.574L20.86 37.39l2.361 2.361 2.361 1.968h3.149l.394-.394v-.394h.394l.393-.394v-.394h.394l.394-.394h.394zM5.117 59.431h2.361l.787-.394h1.181l.394-.394v-.394h.394v-3.542l.787-.787h3.149v-.394h.394l.393-.394-.787-.787v-1.181l.394-.787.787-1.181.787-.787h.394l.394-.394h1.574l.787.394.787-.787v-1.574l-.394-.787v-.787h.394v-.787h3.149l.393-.394h.394l.787-.787-2.362-1.968L5.117 59.431z" fill="#c1daea"/><path d="M21.253 38.965l-1.181 1.181-.394.787-1.181.787-1.181 1.574-4.329 4.329-1.181 1.574-3.149 3.149-1.181 1.574-2.362 2.361-.787 1.181-.787.787v.394l.394.394.787-.787.787-1.181 2.755-2.755 1.181-1.574 3.149-3.149 1.181-1.574 5.51-5.51.787-1.181.787-.787.393-.787h.394v-.394h-.394v-.394z" fill="#3a99c5"/><path d="M35.029 72.025l.394-.394.787-.394 1.968-1.968v-1.574l-1.181-1.181-.394-.787h-.394v-.394l-.394-.394v-.394h.394v-.394l1.181-1.181.787-.394.394-.393v-1.181l-.787-.394-.787-.787-.394-.787-.394-1.574v-.394l.394-.394v-.394l.787-.787.394-.787h.394l.394-.394v-.394h.394v-.394l-.787-.787-.394-.787-.787-.394v-.394h-.394v-1.181l2.361-2.361v-1.181l-2.755-.394-1.181 25.976z" fill="#c1daea"/><path d="M41.326 1.181l-2.755.394-2.361.394-2.361 1.574-1.968 1.574-1.574 1.968-1.181 1.968-.787 2.755v5.51l.394 1.181.787 1.574.394.394v.394l.394.787.787.787v.394l1.574 1.574h.394l.787.787h.394v.394h.394l.394.393h.394l.394-.393v-.787h-.787v-.394h-.394v-.394h-.394l-.787-.787h-.394l-.394-.787-1.574-1.574-.787-1.574-.787-3.149v-4.329l.787-2.361 1.181-1.968 1.181-1.574 1.968-1.574 1.968-1.181 4.723-.787 4.723.787 1.968 1.181 3.149 3.149 1.181 1.968.787 2.361v4.329l-.394 1.968-1.574 3.149-2.361 2.361-1.574 1.181-1.574.787v.393l.393.394v.394l1.968-1.181 1.574-1.181 2.755-2.755.787-1.574.787-1.968.394-1.574v-4.723l-.787-2.755-1.181-1.968-1.574-1.968-2.361-1.574-1.968-1.574-2.362-.394-2.755-.394zm-8.265 70.845l.394.394h.394v.394l.394-6.691.394-8.659v-7.478l.394-3.936h-.787l-.394 3.936v7.872l-.394 8.265-.394 5.904z" fill="#3a99c5"/><path d="M41.326 24.796v1.968l-.394 1.181-.787 1.181.394.394.393.787.394 1.181.787.787.394 1.181.394.787.787.787v1.181l-.394.394-6.297 6.691-.394.394h-1.574l-.394-.394h-.787l-.787-.393h-.787l-.393-.394h-.787l-.394.394v.393h-.394l1.181 1.181v.394h.394v4.329l-.787 17.318v4.723h.787v.394l1.181-26.763h3.149l3.149.394v-.394h.394l.394-.787.787-.394.394-.787h.394v-2.755l.787-.394.394-.787.787-.787.787-1.574.787-1.181v-1.181l.394-1.181-.394-1.574v-1.181l-.787-2.362-.787-.787-.787-1.181-.787-.394-.787-.787z" fill="#c1daea"/><path d="M23.221 31.487l-1.574-4.723 5.117-5.51h-.394l-.394-.394h-.393l-2.755 2.755-1.181.787-.394 1.181-.787.394-.394.394.394 1.181.394 1.574.393 1.181.394.394v1.181h-.394v.394l-1.181 1.181v3.542h-.394v.394l-2.361 2.361-1.181 1.574-4.723 4.723-1.574 1.968-1.574 1.574-1.181 1.574-1.574 1.181-1.181 1.181-.787 1.181-.787.787v1.574L20.86 37.39v-3.542l2.361-2.361zm7.084 11.807l1.181 1.181v.394h.394v4.329l-.787 17.318v4.723h.787v.394l1.181-26.764-1.968-1.968h-.394v.394h-.394z"/></g></symbol></svg>