<svg xmlns="http://www.w3.org/2000/svg" xmlns:xlink="http://www.w3.org/1999/xlink" viewBox="0 0 47 47" fill="#fff" fill-rule="evenodd" stroke="#000" stroke-linecap="round" stroke-linejoin="round"><style><![CDATA[.B{stroke-linecap:square}.C{fill:none}.D{stroke-width:.788}.E{stroke-width:.394}.F{stroke-width:2.363}.G{stroke-width:1.182}.H{stroke-linejoin:miter}.I{fill:#0d6c9b}]]></style><use xlink:href="#A" x=".5" y=".5"/><symbol id="A" overflow="visible"><g stroke="#fff" class="H"><path d="M40.177 45.692V5.121H0v40.571h40.177z" class="E I"/><path d="M23.24 11.029h9.847" class="B C F"/><path d="M33.087 9.06v3.939l3.939-1.969-3.939-1.969z" class="D"/><path d="M23.24 28.754h9.847" class="B C F"/><path d="M33.087 26.391v3.939l3.939-1.576-3.939-2.363z" class="D"/><path d="M37.419 37.813h-9.453" class="B C F"/><path d="M27.572 39.783v-3.939l-3.939 1.97 3.939 1.969z" class="D"/><path d="M37.419 20.482h-9.453" class="B C F"/><path d="M27.572 22.452v-3.939l-3.939 1.969 3.939 1.97z" class="D"/><path d="M17.725 20.876H6.302" class="B C G"/><path d="M6.696 22.058v-2.363l-2.757 1.182 2.757 1.182z" class="D"/><path d="M17.725 37.813H6.302" class="B C G"/><path d="M6.696 38.995v-2.363l-2.757 1.182 2.757 1.182z" class="D"/><path d="M2.757 28.754H14.18" class="B C G"/><path d="M14.18 27.572v2.363l2.757-1.182-2.757-1.182z" class="D"/><path d="M2.757 11.817H14.18" class="B C G"/><path d="M14.18 10.241v2.363l2.757-1.182-2.757-1.182z" class="D"/><path d="M40.177 5.121H0L6.302 0h38.995v40.571l-5.121 5.121V5.121z" class="E I"/></g><path d="M40.177 5.121L45.298 0z" stroke="none" class="I"/><path d="M40.177 5.121L45.298 0" stroke="#fff" class="B C E H"/><path d="M20.482 45.692V5.121z" stroke="none" fill="#000"/><path d="M20.482 45.692V5.121" stroke="#fff" class="B C E H"/></symbol></svg>