<svg xmlns="http://www.w3.org/2000/svg" xmlns:xlink="http://www.w3.org/1999/xlink" viewBox="0 0 49 49" fill="#fff" fill-rule="evenodd" stroke="#000" stroke-linecap="round" stroke-linejoin="round"><style><![CDATA[.B{stroke-linejoin:miter}.C{fill:#036c9b}.D{stroke-width:.787}.E{stroke:#fff}.F{stroke:none}.G{stroke-linecap:square}]]></style><use xlink:href="#A" x=".5" y=".5"/><symbol id="A" overflow="visible"><g class="B C D E"><path d="M0 47.229V5.51h42.113v41.719H0z"/><path d="M47.623 42.113V0l-5.51 5.51v41.719l5.51-5.117zM7.478 0L0 5.117h42.113L47.623 0H7.478z"/></g><g class="F"><path d="M42.113 5.51H0z" class="C"/><path d="M42.113 5.51v41.719z" class="C"/></g><path d="M42.113 5.51v41.719" fill="none" class="B D E G"/><path d="M42.113 5.51H0z" class="C F"/><path d="M42.113 5.51H0" fill="none" class="B D E G"/><path d="M42.113 5.51L47.623 0z" class="C F"/><path d="M42.113 5.51L47.623 0" fill="none" class="B D E G"/><g class="F"><path d="M22.04 20.073v-9.052h1.574l-2.361-3.149-1.968 3.149h1.181v9.052h1.574zm-4.723 1.574l-6.297-6.691 1.181-.787-3.936-.787.787 3.936.787-1.181 6.691 6.297.787-.787zm-2.361 4.329H5.904v-1.574L2.755 26.37l3.149 2.361v-1.574h9.052v-1.181zm1.574 4.329l-6.691 6.691-.787-1.181-.787 3.936 3.936-.787-1.181-1.181 6.297-6.297-.787-1.181zm3.936 2.361v9.052h-1.181l1.968 3.542 2.361-3.542H22.04v-9.052h-1.574zm4.723-1.181l6.691 6.297-1.181 1.181 3.936.787-.787-3.936-1.181 1.181-6.297-6.691-1.181 1.181zm2.361-4.329h9.052v1.574l3.542-2.361-3.542-1.968v1.574H27.55v1.181zm-1.181-4.723l6.297-6.297 1.181 1.181.787-3.936-3.936.787 1.181.787-6.691 6.691 1.181.787z"/><use xlink:href="#C"/></g><use xlink:href="#C" stroke="#036c9b" fill="none" class="B D"/></symbol><defs ><path id="C" d="M26.759 34.248c4.329-3.149 5.51-9.052 2.361-13.382-2.755-4.329-8.659-5.116-12.988-2.361-4.329 3.149-5.51 9.052-2.361 13.382s9.052 5.51 12.988 2.361z"/></defs></svg>