<svg xmlns="http://www.w3.org/2000/svg" xmlns:xlink="http://www.w3.org/1999/xlink" viewBox="0 0 77 38" fill="#fff" fill-rule="evenodd" stroke="#000" stroke-linecap="round" stroke-linejoin="round"><style><![CDATA[.B{stroke:#fff}.C{stroke-linejoin:miter}.D{stroke:none}.E{fill:#046897}.F{stroke-width:.788}]]></style><use xlink:href="#A" x=".5" y=".5"/><symbol id="A" overflow="visible"><path d="M0 18.114L22.445 0h52.766L56.31 18.114H0z" class="B C E F"/><g class="D"><path d="M51.585 9.451l1.181-1.181 4.332 1.969-7.482 1.969 1.575-2.363H37.409l.394-.394h13.782zm-8.663-4.725l-.394.788H28.352L25.99 7.088l-3.544-1.969 8.269-2.363-1.969 1.969h14.176zm-7.876 7.876l-.394.788H20.477l-2.363 1.575-3.544-1.969 8.663-2.363-1.969 1.969h13.782zm24.414-9.844l1.575-1.181 4.332 1.969-7.876 1.969 1.969-1.969H45.285l.394-.788h13.782z" fill="#000"/><path d="M51.585 9.845l1.181-1.181 3.938 1.575-7.482 2.363 1.969-1.969H37.015l.394-.787h14.176zm-9.057-4.332l-.394.394H27.958l-1.181 1.181-3.938-1.575 7.482-1.969-1.969 1.969h14.176z"/></g><path d="M56.31 36.621l18.901-20.476V0L56.31 18.114v18.508z" class="B C E F"/><path d="M34.653 13.389l-.394.394H20.083l-1.181 1.181-3.938-1.575 7.482-1.969-1.969 1.969h14.176zm24.808-9.844l1.575-1.575 3.544 1.575-7.482 2.363 1.969-1.969H44.891l.394-.394h14.176z" class="D"/><g class="C"><path d="M58.673 3.938l-1.969 1.969m-6.694 5.119l-.788 1.181M37.409 9.844l-.394.394m8.663-7.088l-.788.788" fill="none" stroke-width=".394"/><path d="M56.31 36.622V18.114H0v18.508h56.31z" class="B E F"/></g><g class="D"><path d="M14.964 25.202v-3.544h.788l-1.181-1.575-.788 1.575h.394v3.544h.788zm-1.969.394l-2.363-2.363.394-.394-1.575-.394v1.575l.787-.394 2.363 2.363.394-.394zm-.788 1.575H8.663v-.394l-1.575.788 1.575 1.181v-.788h3.544v-.788zm.394 1.969l-2.363 2.757-.787-.394v1.575l1.575-.394-.394-.394 2.363-2.756-.394-.394zm1.575 1.181v3.544h-.394l.788 1.181 1.181-1.181h-.788v-3.544h-.788zm2.363-4.331l2.756-2.363.394.394.394-1.575-1.575.394.394.394-2.756 2.363.394.394z"/><path d="M16.928 30.721c1.575-1.181 1.969-3.544.788-5.119-1.181-1.969-3.544-2.363-5.119-1.181s-2.363 3.544-.788 5.513c1.181 1.575 3.544 1.969 5.119.788z"/><path d="M16.539 29.534l2.756 2.756-.394.394 1.575.394-.394-1.575-.394.394-2.756-2.756-.394.394z"/></g><path d="M16.933 27.565h24.02" stroke-linecap="square" fill="none" stroke-width="1.575" class="B C"/><g class="D"><path d="M42.528 29.139v2.756h-.394l.394.788.788-.788h-.394v-2.756h-.394zm1.181 0l1.969 1.575-.394.394h1.181l-.394-.788h-.394l-1.575-1.575-.394.394zm.788-1.575h2.363v.788l1.181-.788-1.181-.787v.394h-2.363v.394zm-.394-1.181l1.575-1.575h.394l.394-1.181-1.181.394.394.394-1.969 1.575.394.394zm-1.181-.394v-2.756h.394l-.788-.788-.394.788h.394v2.756h.394zm-1.575 2.756l-1.969 1.575h-.394v.788h1.181l-.394-.394 1.969-1.575-.394-.394z"/><path d="M40.949 25.602c-1.181.788-1.181 2.363-.394 3.544s2.363 1.575 3.544.787c1.181-1.181 1.575-2.756.788-3.938s-2.756-1.575-3.938-.394z"/><path d="M41.346 25.99l-1.969-1.575.394-.394-1.181-.394.394 1.181h.394l1.575 1.575.394-.394z"/></g></symbol></svg>