<svg xmlns="http://www.w3.org/2000/svg" xmlns:xlink="http://www.w3.org/1999/xlink" viewBox="0 0 60 40" fill="#fff" fill-rule="evenodd" stroke="#000" stroke-linecap="round" stroke-linejoin="round"><use xlink:href="#A" x=".5" y=".5"/><symbol id="A" overflow="visible"><g stroke="#fff" stroke-linejoin="miter" fill="#036c9b" stroke-width=".787"><path d="M0 38.16h52.322V7.475H0V38.16z"/><path d="M58.616 29.112l-6.294 9.048V7.475L58.616 0v29.112z"/><path d="M9.442 0h49.175l-6.294 7.475H0L9.442 0z"/></g><path d="M18.097 23.604H6.688v-1.967h11.409v-2.754l6.688 3.541-6.688 3.934v-2.754zm23.211 0H30.292v-1.967h11.015v-2.754l6.688 3.541-6.688 3.934v-2.754zm-1.574-9.048l-9.442 5.901-1.18-1.18 9.442-6.294-1.574-2.36 7.475-.393-3.541 6.688-1.18-2.36zm0 16.129l-9.442-6.294-1.18 1.574 9.442 6.294-1.574 2.36 7.475.394-3.541-6.688-1.18 2.36z" stroke="none"/></symbol></svg>