<svg xmlns="http://www.w3.org/2000/svg" xmlns:xlink="http://www.w3.org/1999/xlink" viewBox="0 0 41 47" fill="#fff" fill-rule="evenodd" stroke="#000" stroke-linecap="round" stroke-linejoin="round"><use xlink:href="#A" x=".5" y=".5"/><symbol id="A" overflow="visible"><use xlink:href="#C" stroke="none" fill="#0b719f"/><g stroke="#fff" stroke-linejoin="miter" stroke-width=".788"><use xlink:href="#C" fill="none"/><g fill="#0b719f"><path d="M33.092 23.233l6.302-6.302H6.307L.005 23.233h33.087z"/><path d="M39.393 39.383V16.931l-6.302 6.302v22.452l6.302-6.302z"/></g></g><use xlink:href="#D" stroke="none" fill="#0b719f"/><use xlink:href="#D" stroke="#fff" stroke-linejoin="miter" fill="none" stroke-width=".788"/><g stroke="none"><path d="M16.543 36.238c1.182 0 2.363-1.575 2.363-3.545s-1.182-3.545-2.363-3.545c-1.575 0-2.757 1.576-2.757 3.545s1.182 3.545 2.757 3.545z"/><path d="M17.336 39.776V33.08l-1.969 1.182v6.696l1.97-1.182z"/></g></symbol><defs ><path id="C" d="M31.511 45.691c.788 0 1.576-.788 1.576-1.575v-19.3c0-1.182-.788-1.576-1.576-1.576H1.576C.394 23.239 0 23.633 0 24.815v19.301c0 .788.394 1.575 1.576 1.575z"/><path id="D" d="M19.695 2.757c-4.727 0-8.666 3.939-8.666 8.666V19.3c0 .394-.394 1.182-1.182 1.182-1.182 0-1.969-.394-1.969-.788v-7.878C7.878 5.514 12.999 0 19.695 0c6.302 0 11.816 5.514 11.816 11.817v8.272c-.394.788-.788 1.182-1.969 1.182-.788 0-1.576-1.182-1.182-1.576v-8.272c0-4.727-3.939-8.666-8.665-8.666z"/></defs></svg>