<svg xmlns="http://www.w3.org/2000/svg" xmlns:xlink="http://www.w3.org/1999/xlink" viewBox="0 0 52 81" fill="#fff" fill-rule="evenodd" stroke="#000" stroke-linecap="round" stroke-linejoin="round"><style><![CDATA[.B{fill:#0f73a0}.C{stroke:none}.D{stroke:#fff}.E{stroke-linejoin:miter}.F{fill:none}.G{stroke-width:.787}.H{stroke-linecap:square}]]></style><use xlink:href="#A" x=".5" y=".5"/><symbol id="A" overflow="visible"><path d="M44.869 27.944c2.361-1.181 0-5.51-7.084-1.968" class="B C"/><path d="M44.869 27.944c2.361-1.181 0-5.51-7.084-1.968" class="D E F G H"/><path d="M39.364 27.15V11.407H18.11V27.15z" class="B C"/><g class="D E G"><path d="M39.364 27.15V11.407H18.11V27.15" class="F H"/><g class="B"><path d="M39.363 11.407v15.743l2.361-4.329V9.046l-2.361 2.361z"/><path d="M41.725 9.046h-15.35l-8.265 2.361h21.254l2.362-2.361zm-4.33 16.531V12.982H20.078v12.595h17.318z"/></g></g><path d="M35.821 29.118l1.181 1.968 2.361-2.361-.394-1.181z" class="B C"/><g class="D E G"><path d="M35.821 29.118l1.181 1.968 2.361-2.361-.394-1.181" class="F H"/><g class="B"><path d="M35.821 29.119l3.542-1.968H18.11l4.723 1.968h12.988z"/><path d="M37.002 31.087l-1.181-1.968H22.833l-1.181 1.968h15.35z"/></g></g><path d="M9.052 37.39v24.402H7.085v4.723H4.723V36.603" class="B C"/><path d="M9.052 37.39v24.402H7.085v4.723H4.723V36.603" class="D E F G H"/><use xlink:href="#C" class="B C"/><use xlink:href="#C" class="D E F G H"/><use xlink:href="#D" class="B C"/><g class="D E G"><use xlink:href="#D" class="F H"/><g class="B"><path d="M48.022 38.959v-4.723l-42.901-.394v4.33l42.901.787z"/><path d="M49.99 36.991v-4.723l-1.968 1.968v4.723l1.968-1.968zm0-6.691l-2.362 2.361-43.688-.394 9.446-2.361 36.604.394z"/><path d="M44.48 31.48v-.787l1.181-2.755v1.968L44.48 31.48z"/><path d="M44.48 30.693l1.181-2.755h-2.755l-1.574 2.755h3.149z"/><path d="M41.331 30.693h3.149v.787h-3.149v-.787zm-3.542 1.181v-1.181l1.968-2.755v1.574l-1.968 2.361z"/><path d="M37.789 30.693H18.11l2.362-2.755h19.286l-1.968 2.755z"/><path d="M37.789 30.693v1.181H18.11v-1.181h19.679z"/></g></g><use xlink:href="#E" class="B C"/><use xlink:href="#E" class="D E F G"/><use xlink:href="#F" class="B C"/><use xlink:href="#F" class="D E F G"/><use xlink:href="#G" class="B C"/><use xlink:href="#G" class="D E F G"/><use xlink:href="#H" class="B C"/><use xlink:href="#H" class="D E F G H"/><g class="B C"><path d="M16.53 66.909c-.787.787-1.181 1.181-1.574 1.968 1.181-1.181 1.968 0 1.968 0l3.542 1.574c3.149-.393 1.968-1.968 1.968-1.968-1.574-.787-1.968-1.181-1.968-1.574"/><path d="M15.349 58.25l-1.181 7.085-.394 1.968 5.51.787h.393c0-.394 1.181.394 1.968.394.787-.787 0-.394.787-.787 0 0-.394-2.755-.394-9.446"/></g><path d="M15.349 58.25l-1.181 7.085-.394 1.968 5.51.787h.394c0-.394 1.181.394 1.968.394.787-.787 0-.394.787-.787 0 0-.394-2.755-.394-9.446" class="D E F G H"/><g class="B C"><path d="M17.716 74.381l.787-5.51z"/><use xlink:href="#I"/></g><use xlink:href="#I" class="D E F G"/><use xlink:href="#J" class="B C"/><use xlink:href="#J" class="D E F G H"/><use xlink:href="#K" class="B C"/><use xlink:href="#K" class="D E F G"/><use xlink:href="#L" class="B C"/><use xlink:href="#L" class="D E F G"/><use xlink:href="#M" class="B C"/><use xlink:href="#M" class="D E F G H"/><use xlink:href="#N" class="B C"/><use xlink:href="#N" class="D E F G"/><use xlink:href="#O" class="B C"/><use xlink:href="#O" class="D E F G H"/><use xlink:href="#P" class="B C"/><use xlink:href="#P" class="D E F G"/><g class="B C"><path d="M22.434 71.632c-.394 0-1.181.394-1.968.394-1.574-.394.394-.394-2.361-.787-.787.787-.787 1.968-.787 2.755-.393.394-.393 0-.787 0-1.181-2.362-1.968-3.542-1.574-5.117 1.181-1.181 1.968 0 1.968 0l3.542 1.574c3.149-.787 1.968-1.968 1.968-1.968h1.574c.787.394-1.574 3.149-1.574 3.149z"/><use xlink:href="#Q"/></g><use xlink:href="#Q" stroke-width=".394" class="D E F H"/><use xlink:href="#R" class="B C"/><use xlink:href="#R" class="D E F G"/><use xlink:href="#S" class="B C"/><use xlink:href="#S" class="D E F G"/><use xlink:href="#T" class="B C"/><use xlink:href="#T" class="D E F G"/><path d="M13.387 52.734h3.542z" class="B C"/><path d="M13.387 52.734h3.542" class="D E F G H"/><use xlink:href="#U" class="B C"/><use xlink:href="#U" class="D E F G"/><use xlink:href="#V" class="B C"/><use xlink:href="#V" class="D E F G"/><use xlink:href="#W" class="B C"/><use xlink:href="#W" class="D E F G"/><use xlink:href="#X" class="B C"/><g class="D E G"><use xlink:href="#X" class="F"/><path d="M9.451 51.553l1.574.787H5.121l3.149-1.968 1.181 1.181z" class="B"/></g></symbol><defs ><path id="C" d="M48.804 35.816c0-3.149 1.181-3.542 1.574-3.936v-1.574H47.23l-33.848-.394c0 .394-5.51 1.574-5.51 1.574-1.574 0-2.362.787-3.936.787v.787c.394.394.787.394 1.181.787.394 1.181.394 1.574.394 2.361v1.968"/><path id="D" d="M48.804 36.997h-.394v24.008h-1.968c0 2.361 0 2.755.394 4.723h-2.361l-.394-29.912"/><path id="E" d="M32.274 65.728c-.394 1.968-.787 2.362 1.574 2.755v.394s.393-.787.393.394c0 0 .394 1.574-6.297 0 0 0-.394-1.574-1.181-.787v.394c.394-1.181 1.181-1.181.787-2.755z"/><path id="F" d="M36.21 31.487c.394-.394 0 0 .394-.787l1.968-1.968c.394-.394.394-1.181.787-1.574s1.181-.394 1.968 0c.394 0 .394 0 .787.394.394 0 .787.393.394.787.394 0 .394 0 .394.394.394.787 1.181 1.181.787 1.574-.394 0-.787-.394-1.181 0-.394 0-.394 0-.787.393 0 .394-.394.394-.787.394s-.787.394-1.181.394c0 0-.394.394-.787.394-.787.394-.394.394-1.181.787-.394 0-1.181-.787-1.574-1.181z"/><path id="G" d="M33.848 68.877c1.181 0 2.755-.394 2.361.394 0 1.574 0 1.574-.787 2.362-.394.394-.394 0-.787.394-1.968.394-5.116-1.574-5.51 0 0 0-.787 1.181-.787 1.574h-.787c-1.181-2.362-1.574-3.542-1.181-4.723.787-.787 1.574.394 1.574.394 7.478 1.574 6.297 0 6.297 0 0-1.181-.394-.394-.394-.394z"/><path id="H" d="M9.052 38.571c-1.181 4.723-1.181 9.052 0 13.382.394.394.787.394 1.181.787 2.755-.393 2.755-.393 5.904 0h3.542c.394.394.787 0 .787.394 1.574 1.968 9.84-1.181 10.233 1.181 0-.787-3.542.787-3.542 2.361.394 2.755 0 8.265-.393 10.627.787.394-.787.394.787 1.181 1.968.394 4.723-.787 4.723-.787.787-.394.787.394 1.574 0 .394-7.084 0-11.807.787-18.892 0-1.181-.394-1.181-.394-1.968s-.787-.787-1.181-1.574c-1.181-.394-3.149-.394-4.329-.394l-3.936-.787c.394-1.181.394-6.297.394-7.084.787-.394.787-3.936 1.181-4.329l.394-2.755c0 .394-.394 1.181.787 1.968.787 0 .394.394 1.181.394v.394h.787c.394.787 1.574.394 1.968 1.181 1.181 0 1.968.787 2.755.394.394 0 .787-.394 1.181 0 1.181-.787 1.968-.394 2.755-1.181 0-.394.787-.394 1.181-.394.394-.787.394 0 .394-.787h1.181s.787-1.574.787-1.968c0 0-.787-2.362-3.149-1.968l-2.361-.394c-1.574 0-3.149 0-4.329-1.574l-.394-.787v-1.181c.394-.787-.394-3.149-.787-3.936-1.181-1.181-.394-.394-1.968-1.574L9.84 16.924h-.393c-1.574 0-2.755-.394-4.329.394 0 .787-.787 2.361-.787 3.149.394 1.181-1.968 1.181-1.181 2.361.393.394 0 .787.393 1.181-.393 1.968 0 .394-.393 1.968h-.394C.787 31.487 0 36.997 0 36.997c0 .394.394.394.394.394 1.181 1.574 7.872 3.542 7.872 3.542"/><path id="I" d="M16.137 53.921a.85.85 0 0 0 .787-.787l-1.574-8.659c0-.394-.393-.787-.787-.394l-1.968.394a.85.85 0 0 0-.787.787l1.574 8.265a.85.85 0 0 0 .787.787z"/><path id="J" d="M16.53 66.515c-1.574.394-3.149.394-3.149 1.181-.394.787.394 1.181 1.181 1.181"/><path id="K" d="M31.88 53.92c.393-.394.393-.787.393-1.181V48.41a.85.85 0 0 0-.787-.787l-5.117 4.723a.85.85 0 0 0-.787.787v5.117a.85.85 0 0 0 .787.787z"/><path id="L" d="M6.297 34.635c0-1.181 1.181-3.936 1.181-4.723 0 1.181-.394 5.51 0 5.904z"/><path id="M" d="M5.51 44.082c.394-3.149-1.574-7.872 1.968-9.84 14.563 0 3.149.394 17.711.394l.787.787c1.968-.394 1.574 9.052 1.574 9.052l-1.181.787"/><path id="N" d="M3.936 44.869c.394-2.755-1.574-8.659 1.968-10.627h18.892c1.968 0 1.181 11.02 1.181 11.02z"/><path id="O" d="M25.583 9.052l.393.394c0 .394.394 1.181.394 1.574-.394.394-.787.787-.787 1.181-.394.394-1.181 0-1.574.394-.787.394-.787 1.181-1.574 1.181-.787.394-1.181.394-1.968.394l-1.181 1.181c-.394.394-1.181.394-1.968.394-.393-.394-.787-.394-1.181-.787-.787-.787-1.574-1.574-2.361-1.968-.394 0-1.181 0-1.968-.394-.394 0-.394-.394-1.181-.787 0-.394-.394-1.181-.394-1.968 0 0-.394 0-.394-.394 2.361-.787 1.181-2.361 1.574-3.936 1.181-.787 0-1.181.394-2.362C12.989 0 16.925.394 19.679 0c.787 0 1.574 0 1.968.787 0 .394.787.394.787.394.394.787.394.394 1.181 1.181.394.787.394 1.181.394 1.574.787.787 1.574 1.181 1.968 2.755 0 .394-.393 1.181-.787 1.181.394.787.787 0 .394 1.181"/><path id="P" d="M26.37 16.531v.394c-.787 0-.787 1.574-1.181 1.574s-.787-.394-1.181-.394c0 0-.394 0-.787.394s-.787.393-1.181.393c-1.968-.393-3.542.787-5.51 1.181-.394 0-1.181 0-1.574-.394-.787-.394-.787-1.574-1.574-1.968-1.181-.394-2.361-.394-3.542-.394-.394 0-.394-.394-.787-.394v-.787s-.394-.394 0-.394c0 0 0-.394-.394-.787-.394-.787.394-4.329 1.181-5.117-.394 0 .394-.394.394 0s0 1.181.394 1.968c.394 0 .787.393 1.181.787h1.968l2.362 2.361c.394 0 .787.394 1.181.394s1.181.394 1.968-.394c.394-.394.787-.394 1.181-.787s1.181-.394 1.968-.394c.394-.394.787-1.181 1.181-1.574.787 0 1.181 0 1.968-.393 0-.394.394-.787.394-.787 0-.787-.394-1.181-.394-1.968 0 0 0-.394-.394-.394h.394c2.755 2.361-.394 4.723 1.181 7.085z"/><path id="Q" d="M15.35 58.644v7.478s0 .394-.394.394c-1.574.394-3.149 0-3.149 1.181-.394.787.394 1.181 1.181 1.181-1.574 1.181-3.149 2.755-4.723 3.936-1.181 1.181-.394 2.361-.394 3.936.394.394.787 0 1.181 0 0-1.181.394-1.968.394-2.755l5.51-5.117h.394c-.394 2.755-1.574 7.085-1.181 9.446 0 .394 0 .787.394.787s1.181.394 1.181 0c.394-1.574-.394-3.149.787-5.117-.393 0-.393 0 0 0v2.361c.394 0 1.181.394 1.574-.394 0-1.574-.394-3.542-.394-5.904 0-.394-.394-.394 0-.787 1.968 1.181 3.542 3.149 5.51 4.723.787.394.393 3.149.393 3.149h1.574s.394-2.755-.787-4.329l-4.723-3.936c0-.394.787-.394 1.181-.394.787 0 .787-.787.393-1.574h-1.968c-.787 0-.787-.394-.787-1.574v-6.691"/><path id="R" d="M20.86 66.909c.394 0 .394.394.394.787v.394c0 .394 0 .394-.394.394h-.394s-3.936 1.181-7.872 0c-.394 0-.787 0-.787-.394v-.394a.85.85 0 0 1 .787-.787c3.542 1.181 8.265 0 8.265 0z"/><path id="S" d="M13.382 42.113c1.181 0 1.574-.787 1.574-1.968 0-.787-.394-1.574-1.574-1.574-.787 0-1.574.787-1.574 1.574 0 1.181.787 1.968 1.574 1.968z"/><path id="T" d="M12.988 42.113c.787 0 1.574-.787 1.574-1.968 0-.787-.787-1.574-1.574-1.574-1.181 0-1.574.787-1.574 1.574 0 1.181.394 1.968 1.574 1.968z"/><path id="U" d="M25.976 59.038c.394 0 .787-.394.394-.787v-5.117c.394-.394 0-.787-.394-.787H9.839l-.787-.394c-.394 0-4.723.394-4.723.787v5.51a.85.85 0 0 0 .787.787z"/><path id="V" d="M5.511 58.644s-.394 0-.394-.394v-4.723c0-.394.394-.787.394-.787h19.286c.394 0 .394.394.394.787v4.723c0 .394 0 .394-.394.394z"/><path id="W" d="M31.487 53.528c.394-.394.394-1.181.394-.394v-4.329c0-.394-.394-.394-.787-.394l-4.329 4.329c-.394 0-.394.394-.394.787v3.936c0 .394 0 .787.394.787z"/><path id="X" d="M5.117 44.475c.394-2.755-1.574-7.872 1.574-9.84h16.924l.394.394c1.574-.394 1.181 9.446 1.181 9.446z"/></defs></svg>