<svg xmlns="http://www.w3.org/2000/svg" xmlns:xlink="http://www.w3.org/1999/xlink" viewBox="0 0 69 49" fill="#fff" fill-rule="evenodd" stroke="#000" stroke-linecap="round" stroke-linejoin="round"><style><![CDATA[.B{stroke-linejoin:miter}.C{stroke-width:.787}.D{fill:none}.E{stroke:none}.F{stroke:#fff}.G{stroke-linecap:square}.H{fill:#0f73a0}.I{fill:#0b719f}]]></style><use xlink:href="#A" x=".5" y=".5"/><symbol id="A" overflow="visible"><path d="M14.563 2.362H1.181v38.571h12.595z" class="E H"/><g class="B C F"><path d="M14.563 2.362H1.181v38.571h12.595" class="D G"/><path d="M13.775 2.362v38.571l1.181-.787V2.362h-1.181zm3.936 0v38.177l5.904-5.117V0l-5.904 2.362z" class="H"/></g><path d="M12.595 4.723H1.968z" class="E I"/><path d="M12.595 4.723H1.968" class="B C D F G"/><path d="M11.807 8.659H2.755z" class="E I"/><path d="M11.807 8.659H2.755" class="B C D F G"/><path d="M17.711 2.362h-2.755v38.177h2.755z" class="E H"/><path d="M17.711 2.362h-2.755v38.177h2.755" class="B C D F G"/><path d="M.394 6.691h13.775z" class="E I"/><path d="M.394 6.691h13.775" class="B C D F G"/><path d="M.394 10.627h13.775z" class="E I"/><path d="M.394 10.627h13.775" class="B C D F G"/><use xlink:href="#C" class="E I"/><use xlink:href="#C" class="B C D F"/><use xlink:href="#D" class="E I"/><g class="B C F"><use xlink:href="#D" class="D"/><path d="M18.105 2.362L24.008 0H10.233L0 2.755h13.775l.787-.393h3.542z" class="H"/></g><path d="M58.249 31.88H22.04z" class="E I"/><path d="M58.249 31.88H22.04" class="B C D F G"/><path d="M57.856 31.88V4.723H22.04V31.88z" class="E H"/><g class="B C F"><path d="M57.856 31.88V4.723H22.04V31.88" class="D G"/><path d="M57.856 31.88l4.329-7.478V.394h-26.37L22.04 4.723h35.816V31.88zm-3.149-3.149V7.872H25.189v20.859h29.518z" class="H"/></g><path d="M57.856 4.723L62.185.394z" class="E H"/><g class="B C F"><path d="M57.856 4.723L62.185.394" class="D G"/><g class="H"><path d="M55.888 47.23v-3.936H14.169l7.084-4.723h39.358v3.542l-4.723 5.116z"/><path d="M55.888 43.294v3.936H14.169v-3.936h41.719z"/></g></g><path d="M55.888 43.294l4.723-4.723z" class="E I"/><path d="M55.888 43.294l4.723-4.723" class="B C D F G"/><path d="M58.25 45.261l-.394 1.968h6.691l-.394-1.968z" class="E H"/><g class="B C F"><path d="M58.25 45.261l-.394 1.968h6.691l-.394-1.968" class="D G"/><path d="M64.153 45.262V42.9h-3.149l-2.755 2.361h5.904z" class="H"/></g><path d="M52.346 35.028l1.574 3.542 3.936-4.723-.393-1.574z" class="E I"/><g class="B C F"><path d="M52.346 35.028l1.574 3.542 3.936-4.723-.393-1.574" class="D G"/><g class="H"><path d="M52.345 35.029l5.51-3.149H22.04l7.872 3.149h22.434z"/><path d="M53.92 38.57l-1.574-3.542H29.912l-1.968 3.542H53.92z"/></g></g><path d="M62.574 42.906c.787-.787-2.755-1.574 1.181-2.361 2.755-.394 10.233-4.723-7.478-5.116" stroke="#0b719f" class="B C D G"/></symbol><defs ><path id="C" d="M16.525 36.609s.394-.394.394-.787l-.394-.394c-.393 0-.787.394-.787.394a.85.85 0 0 0 .787.787z"/><path id="D" d="M16.525 39.364s.394 0 .394-.394l-.394-.394c-.393 0-.787.394-.787.394 0 .394.394.394.787.394z"/></defs></svg>