<svg xmlns="http://www.w3.org/2000/svg" xmlns:xlink="http://www.w3.org/1999/xlink" viewBox="0 0 80 116" fill="#fff" fill-rule="evenodd" stroke="#000" stroke-linecap="round" stroke-linejoin="round"><use xlink:href="#A" x=".5" y=".5"/><symbol id="A" overflow="visible"><g stroke="none"><g fill="#0f73a0"><path d="M47.241 101.568l-1.968 3.937s0 1.575 2.362.787l1.968-.787 1.968-2.362.394-.394v-1.968c.394-1.181 0-2.756.394-3.937.787-2.756 1.968-5.512 3.149-8.267.787-2.362-.394-4.724.394-7.086l-6.299-1.968c-.394 6.692-.394 12.991-.787 19.684-.394.787-1.181 1.575-1.968 2.362zm16.534-.394v.787l1.575 1.968 3.149 2.362h1.575c.787-1.181 1.181-1.575 1.181-1.575-1.181-1.181-2.362-1.968-3.149-3.543-.394-.787-.787-1.968-.787-2.756.394-6.299.787-12.598 1.575-18.503l-6.299 1.575c-.787 0-.394.787-.394 1.181-.394 1.575-.394 2.756 0 4.33 0 1.181.787 2.362.787 3.937.787 3.543 1.181 6.693.787 10.236zM17.716 3.937c0 .394 0 .787.394 1.181 0 1.181-.394 2.362-.787 3.543-.394.394-.394 1.181-.787 1.181-.394-.394-.787-1.181-1.181-1.181-.394-.394-1.181.394-1.575.787 1.181 1.181 2.362 2.756 1.575 4.33l-3.543-5.905c-.394-1.181-.394-2.756.394-3.543 1.181-1.575 2.756-2.756 4.33-3.149C18.897.394 21.259 0 24.015 0l-6.692 3.543c0 .394 0 .394.394.394zm8.266.394L24.014 7.48c.394-.394 0-.394 0-.394h-.787c-.394-.394-.394-.787 0-.787 0-.394.787 0 .787 0 1.181-1.968-1.181-3.149-1.575-4.724 1.575 0 2.756 1.181 4.33 1.181-.394.394-.787 1.181-.787 1.575zm-5.904 2.755c-.394 0-.787.394-.787 0-.394-1.575 1.575-.787 2.362-1.181 0 1.181-.787 1.575-1.575 1.181zm2.361 2.756h-.787l1.181-1.181c0 .394 0 .787.394 1.181h-.787zm0 1.968h-2.362c.394-.394.787-.394.787-.394.787-.394 1.968-.787 2.362.394h-.787zm-.394.394c.787.394 0 .394 0 .394-.394.394-.787 0-.787-.394h.787zm5.906 96.844l6.299 4.33c-.394.394-.394.787-.394.787h-5.118c-1.575-.394-2.756-1.181-4.33-1.968l-.394.787c-1.181.394-2.756 0-3.543-.787-.787-.394 0-1.968-.394-2.756z"/><path d="M20.077 109.441h-.394c-.394-14.172 0-28.345-.394-42.517l-7.086 41.729s-.787 0-.787.394H4.33c.394-.787 0-1.575 0-2.362.787-7.48 1.968-14.96 2.362-22.439 0-7.48.394-14.96.787-22.833 0-1.181.787-2.756.394-3.937 0-.394-.787-.787-1.181-.787.394-1.181.787-2.756 1.181-3.937-2.362-2.362-4.724-4.724-6.692-7.48C.394 44.485 0 42.91 0 41.729.394 35.43 1.968 28.738 1.968 22.046c3.149-1.968 7.086-2.362 10.629-3.937 1.181-.394 2.362-1.181 2.756-2.756 1.968 1.181 3.149 2.756 5.118 3.937.394 0 .394-.394.394-.787h.394c0-.394 0-.787.394-1.181v-.394c.394 0 .394-.787.787-.787 0 .394.787.787 1.181 1.181 2.756 1.181 5.511 1.968 8.267 3.149.787.394 1.968 1.181 2.362 1.968s0 1.575 0 2.756c-.394.787-.787 1.968-.787 3.149 0 4.33 1.181 9.055 1.575 13.778-1.968 2.362-3.543 5.118-5.118 7.874.394 2.362 1.181 4.33 1.181 6.692 0 0-1.181.394-1.181.787 0 2.362.394 5.118.394 7.873-.787 14.566-.787 29.132-2.362 43.698z"/><path d="M11.417 109.048c-.394.787.394 1.968 0 2.756-.787.787-1.968 1.181-3.149 1.968-.394 0 0 .787-.787.787-1.968.394-3.937.394-6.299.394.394-1.181 0-2.362.394-3.149.787-1.181 2.362-1.575 2.756-2.756zM9.055 40.154c0-1.968 0-3.543-.394-5.511-.787 1.575-1.181 3.543-1.181 5.511 0 .787 1.181 1.575 1.575 2.362.394-.787 0-1.575 0-2.362zm41.729-19.289c-.394-.394-1.181-.394-1.181-1.181.394 0 1.181 0 1.575-.394-1.181-.394-1.575-1.181-1.575-1.968 0-.394.394-.787.394-.787.394 0 .394.787.787.787 0 .394.394 0 .394 0 0-.394 0-.787-.394-1.575.787.394 1.575.394 1.575 0 0-.787-1.181-1.575-.394-2.362.394 0 .787.787 1.181.394 0-.787-.787-1.181-.787-1.968 0-.394.787-.394 1.181-.787 0-.787-.394-1.968-.394-2.362.787-1.968 1.968-3.937 2.756-5.511 2.362-.394 3.543-2.756 7.48-.394h-.394c0 .394 0 .394.394.394s1.181 0 1.575.394c0 .394-.394 1.181-.394 1.575.394.394 1.575.394 1.575.787 0 .787-1.181 1.968-.787 2.756 0 .787 1.181.787 1.575 1.575s0 1.575.394 2.362c.394-.394.787-.394 1.181-.787 0 .787.394 1.181.394 1.575.394-.394 1.181-.787 1.575-1.575.394.394 0 1.181 0 1.181-.787.787-1.575 1.575-2.362 1.575 0 .394 0 .394-.394.394l-.787-.787c-.394.394.787.787.394.787v.787c.394.787 1.181 0 1.968 0 .394 1.181-1.181 1.181-1.181 1.968-.394.394.394.394.787.394 0 .787-.787 1.181-1.181 1.575m3.541 85.03c1.181.787 1.968 2.362 2.756 3.149a.85.85 0 0 1-.787.787c-1.968 0-3.543.394-5.118-.394-1.181-.394-1.575-2.362-3.149-3.149-.787.394-.394 1.181-.787 1.968h-.394c-.394-1.968-1.968-4.33 0-5.905v.394l1.575 2.362 3.149 2.362h1.575c.787-1.575 1.181-1.575 1.181-1.575z"/><path d="M55.902 82.278c.394-.787 1.575-.787 2.756-.787.394 0 .394 1.181.787 1.181.787 0 1.575-1.181 2.362-1.181.394 0 .394.394.787.787l2.362-.787 2.362 1.181 1.181-1.968h.394c0-.394.394-.394.394-.394 1.181-7.48 1.181-14.96 2.362-22.833 0-.787-.394-1.968-.394-3.149.394 0 .787-.394 1.181 0 0-1.968-.787-3.543-.787-5.118 2.362-2.756 4.724-5.511 6.693-8.661.394-.394.394-1.575 0-2.362l-5.905-17.715c-1.575-.394-3.149-.394-4.724-.787l-7.086-.787-9.842 1.968c-1.968.787-4.331 1.575-6.299 2.756-.394 3.543 0 6.692-.394 10.236l-1.181 5.511c0 .787-.394 1.575 0 2.362.394 1.181.394 2.362.787 3.149 1.968 1.968 4.33 2.756 6.299 4.724 0 1.181-.394 2.362-.787 3.937-.394.394.394.394.394.394 0 .787-.787 1.968-.787 2.756-.787 7.874-.787 15.747-.394 23.621 0 0 1.181-.394 1.181 0l1.575 1.575 2.756-.787 1.968 1.575m9.841-66.141c-.394-.394-1.181-.787-1.575-1.181 0 .394-.394.394-.394.394 0 .787-.394 1.575.394 1.575.394 0 0-.787 0-1.181.394.394.394.787.787.787.394.394.394 0 .787-.394z"/></g><path d="M63.775 23.226h-.394v-.787h.787v.394c.394-1.181 0-2.362 0-3.149 0-.394-.787-.394-1.181-.787-.394-.787-.787-3.149 0-2.756 1.575 0 1.575-3.149 1.968-5.118.394-.787 0-1.181-.394-1.968v.394c-.394.394-1.181.394-1.181.394-.394-.394-.394-.787 0-.787 0-.394 1.575-.787 1.575-.394 0-1.181-.394-1.575-.787-2.362-.394.394-.787.394-1.181.394.394-.394.394-1.181 0-1.181-.787.394-.787 1.575-1.968 1.575V5.905c-.394.394-.787 1.181-1.575 1.181 0 0 0-1.181-.394-.787-.787.787.394 1.181 0 1.968-.394 1.575-.394 2.756-1.181 4.33v.787s.394.394.787.394c0 .394-.394 0-.787.394v.787c.394.394.787.394 1.575.394-.394.787-1.181 1.181-1.968.394-.394 1.181.394 1.968 1.181 2.362-.394.394-1.181 0-1.575.394s0 1.181 0 1.575h-.394c-.394.787 0 1.575.394 2.362 0-.394 0-.394.394-.394.394.394 0 .394 0 .787h-.394c-.394.394 0 .394 0 .787 1.575.787 3.15 1.181 4.724 1.181.394 0 1.181-.394 1.575-.787-.394-.394-1.181 0-.787-.787 0-.394.394 0 .787 0 0 0-.394.394 0 .787.394-.394 1.181-.394 1.181-.787 0 0 0-.394-.394-.394 0 0 0 .394-.394.394z"/><path d="M61.807 9.842c-.787 0-1.575 0-1.968-.787.787 0 1.968-.394 2.362 0s0 .394-.394.787zm2.362 1.969c-.394.787-.787 0-1.181.394a.85.85 0 0 1 .787-.787l.394.394zm-.787 1.574c-.394 0-.787.394-1.575 0 .787-.394 1.968 0 2.756-.394v.394h-1.181z" fill="#0f73a0"/><g fill="#0b719f"><path d="M61.807 24.408s-.787 0-.787-.787c.394 0 .394-.394.787 0 .394 0 .394.394 0 .787z"/><path d="M60.626 24.408c-.394 0-.394-.394-.394-.394s-.394-.394 0-.394.394-.394.787 0c0 .394 0 .394-.394.787zm-1.181-.394c-.394 0-.394 0-.787-.394 0 0 0-.394.394-.394s.787 0 .394.394v.394zm-1.181-.787h-.394c0-.394.394-.787.787-.394 0 0 0 .394-.394.394z"/></g><path d="M63.381 14.173c-.394 0-.394 0-.787-.394h1.575c0 .394-.394.394-.787.394z" fill="#0f73a0"/><path d="M13.779 17.715l2.362 7.086 5.118 11.81 2.362-12.204-.394-7.086-1.181-.787-1.575 2.756-5.118-3.543c0 .787-1.575 1.968-1.575 1.968z"/><path d="M20.082 19.677l.787.394.394-.787.394 1.181-.787.787 1.181 11.023-.787 4.724-2.362-5.118 1.181-10.629-.787-.787.787-.787z" fill="#0f73a0"/><path d="M57.083 23.621l.787 2.362 5.905 11.417 1.968-10.629-1.181-3.543c-2.756 3.149-7.48.394-7.48.394z"/><path d="M51.572 102.749l-1.968 2.362-1.968.787c-2.362.787-2.362-.787-2.362-.787l1.575-3.543-2.362 3.543c-.787 1.181-1.575 2.362-1.575 3.543 0 0 .787.394 1.181.394 1.181-.394 2.756-.394 3.937-1.181 1.181-.394 1.968-1.968 2.756-2.756.394.394 0 1.181.394 1.575.394-1.181.394-2.756.787-3.937z" fill="#0f73a0"/><path d="M72.042 31.888c-1.575-2.362-3.149-.394-3.149-.394-.787 1.575.394 2.362.394 2.362-.787-1.575.394-2.362.394-2.362 1.181 1.181 2.362.394 2.362.394z"/><path d="M71.648 28.738c0-.787-1.181-.394-1.181 0-.394 0 0-.394 0-.394 0-.394-.394-.394-.787-.394v.787c-.394-.394-1.181-.787-1.181.394-.394.394.394 0 .787.787-.394 0-.787-.394-.787 0 0 0-.394.394 0 .787.394 0 .787-.394 1.181-.394 0 .394-.394 1.181.394.787.394 0 .394-.787.394-1.181 0 .394.394.394.787.787 0-.394.394-.394.394-.787.394-.787-.394-.394-.787-.787.394.394.787 0 .787-.394z"/></g></symbol></svg>