<svg xmlns="http://www.w3.org/2000/svg" xmlns:xlink="http://www.w3.org/1999/xlink" viewBox="0 0 44 45" fill="#fff" fill-rule="evenodd" stroke="#000" stroke-linecap="round" stroke-linejoin="round"><style><![CDATA[.B{stroke:#fff}.C{stroke-linejoin:miter}.D{stroke:none}.E{stroke-linecap:square}.F{stroke-width:1.18}.G{stroke-width:.787}]]></style><use xlink:href="#A" x=".5" y=".5"/><symbol id="A" overflow="visible"><g fill="#036c9b" class="B C G"><path d="M35.8 43.668V7.081H0v36.587h35.8z"/><path d="M42.881 0L35.8 7.081H0L7.475 0h35.407z"/><path d="M42.881 34.62V0L35.8 7.081v36.194l7.081-8.655z"/></g><path d="M21.638 34.62l2.754-3.147-4.328-1.18 1.574 4.328z" class="D"/><path d="M22.031 31.866l5.114 5.508" fill="none" class="B C E F"/><path d="M5.115 18.883l3.147-2.754-4.721-1.574 1.574 4.327z" class="D"/><path d="M5.508 16.13l5.508 5.508" fill="none" class="B C E F"/><path d="M6.688 27.933v-4.328l-4.328 2.36 4.328 1.967z" class="D"/><path d="M4.721 25.572h7.868" fill="none" class="B C E F"/><path d="M21.638 17.31l2.754 3.147-4.328 1.18 1.574-4.328z" class="D"/><path d="M22.031 20.064l5.114-5.508" fill="none" class="B C E F"/><path d="M5.115 33.046L8.262 35.8l-4.721 1.574 1.574-4.328z" class="D"/><g class="B C"><path d="M5.508 35.8l5.508-5.508" fill="none" class="E F"/><path d="M11.015 21.245h8.262v9.048h-8.262v-9.048zm14.95 10.622h7.081v7.081h-7.081v-7.081zm0-18.883h7.081v7.081h-7.081v-7.081z" fill="#036c9b" class="G"/></g></symbol></svg>