<svg xmlns="http://www.w3.org/2000/svg" xmlns:xlink="http://www.w3.org/1999/xlink" viewBox="0 0 43 49" fill="#fff" fill-rule="evenodd" stroke="#000" stroke-linecap="round" stroke-linejoin="round"><style><![CDATA[.B{stroke:none}.C{stroke:#036e9d}.D{stroke-linejoin:miter}.E{stroke-linecap:square}.F{stroke-width:.787}]]></style><use xlink:href="#A" x=".5" y=".5"/><symbol id="A" overflow="visible"><path d="M6.295 11.409H0v5.114h6.295z" class="B"/><path d="M6.295 11.409H0v5.114h6.295" fill="none" class="C D E F"/><path d="M33.829 16.531h.787c5.901 0 6.688 5.114 6.688 5.114v-5.114s-.787-5.114-6.688-5.114h-1.18" class="B"/><g class="D F"><path d="M33.829 16.53h.787c5.901 0 6.688 5.115 6.688 5.115V16.53s-.787-5.114-6.688-5.114h-1.18" fill="none" class="C E"/><g stroke="#fff" fill="#036e9d"><path d="M30.687 47.997V3.934H5.508v44.063h25.179z"/><path d="M5.508 3.934L10.229 0h24.786l-4.328 3.934H5.508z"/><path d="M30.687 47.998l4.328-4.721V0l-4.328 3.934v44.064z"/></g></g><use xlink:href="#C" class="B"/><use xlink:href="#C" fill="none" class="C D E F"/><path d="M9.836 12.59l-1.574 1.18V7.082h6.688l-1.18 1.574-.393.393 9.836 9.836-3.147 3.147-9.836-9.836-.393.393zm0 27.933l-1.574-1.574v6.688h6.688l-1.18-1.574-.393-.393 9.836-9.836-3.147-3.147-9.836 9.836h-.393z" class="B"/></symbol><defs ><path id="C" d="M41.305 16.137v6.295c-.787 7.475-13.77 7.082-13.77 7.082v5.508l-8.655-8.655 8.655-8.655v5.508s13.376.393 13.77-7.082"/></defs></svg>