<svg xmlns="http://www.w3.org/2000/svg" xmlns:xlink="http://www.w3.org/1999/xlink" viewBox="0 0 50 61" fill="#fff" fill-rule="evenodd" stroke="#000" stroke-linecap="round" stroke-linejoin="round"><style><![CDATA[.B{stroke:#fff}.C{stroke-linejoin:miter}.D{stroke-width:.787}.E{stroke:none}.F{stroke-linecap:square}.G{fill:none}.H{fill:#0b719f}]]></style><use xlink:href="#A" x=".5" y=".5"/><symbol id="A" overflow="visible"><g fill="#0f73a0" class="B C D"><path d="M48.784 47.604V3.541L38.162 14.163v45.637l10.622-12.196z"/><path d="M38.162 14.163H0V59.8h38.162V14.163z"/><path d="M38.162 14.163L48.785 3.541 43.67 0H7.082L0 14.163h38.162z"/></g><path d="M8.262 31.474v3.934h3.934z" class="E H"/><path d="M8.262 31.474v3.934h3.934" class="B C D F G"/><path d="M7.475 35.408h4.721z" class="E H"/><path d="M7.475 35.408h4.721" class="B C D F G"/><path d="M2.361 31.474v3.934h3.934z" class="E H"/><path d="M2.361 31.474v3.934h3.934" class="B C D F G"/><path d="M1.967 35.408h4.328z" class="E H"/><path d="M1.967 35.408h4.328" class="B C D F G"/><path d="M2.361 23.605v3.934h3.934z" class="E H"/><path d="M2.361 23.605v3.934h3.934" class="B C D F G"/><path d="M1.967 27.54h4.328z" class="E H"/><path d="M1.967 27.54h4.328" class="B C D F G"/><path d="M8.262 16.13v3.934h3.934z" class="E H"/><path d="M8.262 16.13v3.934h3.934" class="B C D F G"/><path d="M7.475 20.065h4.721z" class="E H"/><path d="M7.475 20.065h4.721" class="B C D F G"/><path d="M2.361 16.13v3.934h3.934z" class="E H"/><path d="M2.361 16.13v3.934h3.934" class="B C D F G"/><path d="M1.967 20.065h4.328z" class="E H"/><path d="M1.967 20.065h4.328" class="B C D F G"/><path d="M14.557 31.474v3.934h3.934z" class="E H"/><path d="M14.557 31.474v3.934h3.934" class="B C D F G"/><path d="M14.163 35.408h4.328z" class="E H"/><path d="M14.163 35.408h4.328" class="B C D F G"/><path d="M14.557 23.605v3.934h3.934z" class="E H"/><path d="M14.557 23.605v3.934h3.934" class="B C D F G"/><path d="M14.163 27.54h4.328z" class="E H"/><path d="M14.163 27.54h4.328" class="B C D F G"/><path d="M14.557 16.13v3.934h3.934z" class="E H"/><path d="M14.557 16.13v3.934h3.934" class="B C D F G"/><path d="M14.163 20.065h4.328z" class="E H"/><path d="M14.163 20.065h4.328" class="B C D F G"/><path d="M26.359 31.474v3.934h3.934z" class="E H"/><path d="M26.359 31.474v3.934h3.934" class="B C D F G"/><path d="M25.573 35.408h4.721z" class="E H"/><path d="M25.573 35.408h4.721" class="B C D F G"/><path d="M20.458 31.474v3.934h3.934z" class="E H"/><path d="M20.458 31.474v3.934h3.934" class="B C D F G"/><path d="M20.065 35.408h4.328z" class="E H"/><path d="M20.065 35.408h4.328" class="B C D F G"/><path d="M20.458 23.605v3.934h3.934z" class="E H"/><path d="M20.458 23.605v3.934h3.934" class="B C D F G"/><path d="M20.065 27.54h4.328z" class="E H"/><path d="M20.065 27.54h4.328" class="B C D F G"/><path d="M26.359 16.13v3.934h3.934z" class="E H"/><path d="M26.359 16.13v3.934h3.934" class="B C D F G"/><path d="M25.573 20.065h4.721z" class="E H"/><path d="M25.573 20.065h4.721" class="B C D F G"/><path d="M20.458 16.13v3.934h3.934z" class="E H"/><path d="M20.458 16.13v3.934h3.934" class="B C D F G"/><path d="M20.065 20.065h4.328z" class="E H"/><path d="M20.065 20.065h4.328" class="B C D F G"/><path d="M32.654 31.474v3.934h3.934z" class="E H"/><path d="M32.654 31.474v3.934h3.934" class="B C D F G"/><path d="M32.261 35.408h4.328z" class="E H"/><path d="M32.261 35.408h4.328" class="B C D F G"/><path d="M32.654 23.605v3.934h3.934z" class="E H"/><path d="M32.654 23.605v3.934h3.934" class="B C D F G"/><path d="M32.261 27.54h4.328z" class="E H"/><path d="M32.261 27.54h4.328" class="B C D F G"/><path d="M32.654 16.13v3.934h3.934z" class="E H"/><path d="M32.654 16.13v3.934h3.934" class="B C D F G"/><path d="M32.261 20.065h4.328z" class="E H"/><path d="M32.261 20.065h4.328" class="B C D F G"/><path d="M46.818 9.442v4.328l-2.754 2.361z" class="E H"/><path d="M46.818 9.442v4.328l-2.754 2.361" class="B C D F G"/><path d="M46.818 25.179v4.328l-2.754 2.36z" class="E H"/><path d="M46.818 25.179v4.328l-2.754 2.36" class="B C D F G"/><path d="M42.49 28.72v4.721l-2.754 2.361z" class="E H"/><path d="M42.49 28.72v4.721l-2.754 2.361" class="B C D F G"/><path d="M42.49 12.983v4.721l-2.754 2.36z" class="E H"/><path d="M42.49 12.983v4.721l-2.754 2.36" class="B C D F G"/><path d="M44.063 0l-5.901 14.163z" fill="#0f73a0" class="E"/><path d="M44.063 0l-5.901 14.163" class="B C D F G"/></symbol></svg>