<svg xmlns="http://www.w3.org/2000/svg" xmlns:xlink="http://www.w3.org/1999/xlink" viewBox="0 0 69.09 37" fill="#fff" fill-rule="evenodd" stroke="#000" stroke-linecap="round" stroke-linejoin="round"><style><![CDATA[.B{stroke:#fff}.C{stroke-linejoin:miter}.D{stroke:none}.E{stroke-linecap:square}.F{stroke-width:1.18}.G{fill:#036c9b}.H{stroke-width:.787}]]></style><use xlink:href="#A" x=".59" y=".5"/><symbol id="A" overflow="visible"><g class="B C G H"><path d="M0 12.982L15.735 0h51.532L53.893 12.982H0zm53.893 22.423L67.267 22.03V.001L53.893 12.983v22.423z"/><path d="M53.893 35.796V12.98H0v22.816h53.893z"/></g><use xlink:href="#C" class="D G"/><use xlink:href="#C" fill="none" class="B C H"/><use xlink:href="#D" class="D G"/><g fill="none" class="B C"><use xlink:href="#D" class="H"/><path d="M12.588 17.307H0" class="E F"/></g><path d="M16.915 17.308l-7.474 3.147 1.573-3.147-1.573-2.754 7.474 2.754z" class="D"/><path d="M12.588 23.995H0" fill="none" class="B C E F"/><path d="M16.915 23.995l-7.474 3.147 1.573-3.147-1.573-3.147 7.474 3.147z" class="D"/><path d="M49.566 23.995h-5.901" fill="none" class="B C E F"/><path d="M53.107 23.995l-5.901 2.36 1.18-2.36-1.18-2.36 5.901 2.36z" class="D"/><path d="M12.588 30.682H0" fill="none" class="B C E F"/><path d="M16.915 30.683L9.441 33.83l1.573-3.147-1.573-3.147 7.474 3.147zm27.93-9.048l-1.18 2.36 1.18 2.36-5.901-2.36 5.901-2.36z" class="D"/></symbol><defs ><path id="C" d="M38.153 21.248c0 1.967-4.327 3.934-10.228 3.934-5.507 0-9.834-1.967-9.834-3.934v5.901c0 1.967 4.327 3.934 9.834 3.934 5.901 0 10.228-1.967 10.228-3.934z"/><path id="D" d="M27.925 25.182c5.901 0 10.228-1.967 10.228-3.934 0-2.36-4.327-3.934-10.228-3.934-5.507 0-9.834 1.573-9.834 3.934 0 1.967 4.327 3.934 9.834 3.934z"/></defs></svg>