<svg xmlns="http://www.w3.org/2000/svg" xmlns:xlink="http://www.w3.org/1999/xlink" viewBox="0 0 57 63" fill="#fff" fill-rule="evenodd" stroke="#000" stroke-linecap="round" stroke-linejoin="round"><style><![CDATA[.B{fill:#026c9b}.C{stroke:none}.D{stroke:#fff}.E{fill:none}.F{stroke-width:.393}.G{stroke-linejoin:miter}.H{stroke-width:.787}.I{stroke-linecap:square}]]></style><use xlink:href="#A" x=".5" y=".5"/><symbol id="A" overflow="visible"><g class="B D G H"><path d="M44.46 61.378V10.623H0v50.755h44.46z"/><path d="M44.46 10.623H0L13.377.393h41.706v50.755L44.46 61.377V10.623z"/></g><path d="M44.46 10.623L55.477 0z" class="B C"/><path d="M44.46 10.623L55.477 0" class="D E G H I"/><path d="M10.624 38.951H3.148v12.59h7.476z" class="B C"/><g class="D F"><path d="M10.624 38.951H3.148v12.59h7.476" class="E"/><path d="M10.624 51.542l4.328-2.361v-12.59H7.476l-4.328 2.361h7.476v12.59z" class="B"/></g><path d="M10.623 38.952l4.328-2.361z" class="B C"/><path d="M10.623 38.952l4.328-2.361" class="D E F"/><path d="M26.361 23.607H10.623v27.935h15.738z" class="B C"/><g class="D F"><path d="M26.361 23.607H10.623v27.935h15.738" class="E"/><path d="M26.361 51.542l6.295-3.541V20.066H16.918l-6.295 3.541h15.738v27.935z" class="B"/></g><path d="M26.361 23.607l6.295-3.541z" class="B C"/><path d="M26.361 23.607l6.295-3.541" class="D E F"/><path d="M34.623 27.935h-8.262v23.607h8.262z" class="B C"/><g class="D F"><path d="M34.623 27.935h-8.262v23.607h8.262" class="E"/><path d="M34.623 51.542l6.295-3.541V24.394h-8.262l-6.295 3.541h8.262v23.607z" class="B"/></g><path d="M34.623 27.935l6.295-3.541z" class="B C"/><path d="M34.623 27.935l6.295-3.541" class="D E F"/><path d="M18.886 35.017v1.18h2.361z" class="B C"/><path d="M18.886 35.017v1.18h2.361" class="D E F"/><path d="M22.033 35.017v1.18h2.361z" class="B C"/><path d="M22.033 35.017v1.18h2.361" class="D E F"/><path d="M12.197 35.017v1.18h2.361z" class="B C"/><path d="M12.197 35.017v1.18h2.361" class="D E F"/><path d="M15.345 35.017v1.18h2.361z" class="B C"/><path d="M15.345 35.017v1.18h2.361" class="D E F"/><path d="M18.886 37.771v1.18h2.361z" class="B C"/><path d="M18.886 37.771v1.18h2.361" class="D E F"/><path d="M22.033 37.771v1.18h2.361z" class="B C"/><path d="M22.033 37.771v1.18h2.361" class="D E F"/><path d="M12.197 37.771v1.18h2.361z" class="B C"/><path d="M12.197 37.771v1.18h2.361" class="D E F"/><path d="M15.345 37.771v1.18h2.361z" class="B C"/><path d="M15.345 37.771v1.18h2.361" class="D E F"/><path d="M18.886 40.525v1.18h2.361z" class="B C"/><path d="M18.886 40.525v1.18h2.361" class="D E F"/><path d="M22.033 40.525v1.18h2.361z" class="B C"/><path d="M22.033 40.525v1.18h2.361" class="D E F"/><path d="M12.197 40.525v1.18h2.361z" class="B C"/><path d="M12.197 40.525v1.18h2.361" class="D E F"/><path d="M15.345 40.525v1.18h2.361z" class="B C"/><path d="M15.345 40.525v1.18h2.361" class="D E F"/><path d="M18.886 42.886v1.18h2.361z" class="B C"/><path d="M18.886 42.886v1.18h2.361" class="D E F"/><path d="M22.033 42.886v1.18h2.361z" class="B C"/><path d="M22.033 42.886v1.18h2.361" class="D E F"/><path d="M12.197 42.886v1.18h2.361z" class="B C"/><path d="M12.197 42.886v1.18h2.361" class="D E F"/><path d="M15.345 42.886v1.18h2.361z" class="B C"/><path d="M15.345 42.886v1.18h2.361" class="D E F"/><path d="M27.935 29.115v1.18h2.361z" class="B C"/><path d="M27.935 29.115v1.18h2.361" class="D E F"/><path d="M31.082 29.115v1.18h2.361z" class="B C"/><path d="M31.082 29.115v1.18h2.361" class="D E F"/><path d="M27.935 31.476v1.18h2.361z" class="B C"/><path d="M27.935 31.476v1.18h2.361" class="D E F"/><path d="M31.082 31.476v1.18h2.361z" class="B C"/><path d="M31.082 31.476v1.18h2.361" class="D E F"/><path d="M27.935 33.837v1.18h2.361z" class="B C"/><path d="M27.935 33.837v1.18h2.361" class="D E F"/><path d="M31.082 33.837v1.18h2.361z" class="B C"/><path d="M31.082 33.837v1.18h2.361" class="D E F"/><path d="M4.328 40.132v1.18h2.361z" class="B C"/><path d="M4.328 40.132v1.18h2.361" class="D E F"/><path d="M7.476 40.132v1.18h2.361z" class="B C"/><path d="M7.476 40.132v1.18h2.361" class="D E F"/><path d="M4.328 42.492v1.18h2.361z" class="B C"/><path d="M4.328 42.492v1.18h2.361" class="D E F"/><path d="M7.869 42.492v1.18h2.361z" class="B C"/><path d="M7.869 42.492v1.18h2.361" class="D E F"/><path d="M4.328 44.853v1.18h2.361z" class="B C"/><path d="M4.328 44.853v1.18h2.361" class="D E F"/><path d="M7.869 44.853v1.18h2.361z" class="B C"/><path d="M7.869 44.853v1.18h2.361" class="D E F"/><path d="M18.886 24.787v1.574h2.361z" class="B C"/><path d="M18.886 24.787v1.574h2.361" class="D E F"/><path d="M22.033 24.787v1.574h2.361z" class="B C"/><path d="M22.033 24.787v1.574h2.361" class="D E F"/><path d="M12.197 24.787v1.574h2.361z" class="B C"/><path d="M12.197 24.787v1.574h2.361" class="D E F"/><path d="M15.345 24.787v1.574h2.754z" class="B C"/><path d="M15.345 24.787v1.574h2.754" class="D E F"/><path d="M18.886 27.541v1.574h2.361z" class="B C"/><path d="M18.886 27.541v1.574h2.361" class="D E F"/><path d="M22.033 27.541v1.574h2.361z" class="B C"/><path d="M22.033 27.541v1.574h2.361" class="D E F"/><path d="M12.197 27.541v1.574h2.361z" class="B C"/><path d="M12.197 27.541v1.574h2.361" class="D E F"/><path d="M15.345 27.541v1.574h2.361z" class="B C"/><path d="M15.345 27.541v1.574h2.361" class="D E F"/><path d="M18.886 30.295v1.18h2.361z" class="B C"/><path d="M18.886 30.295v1.18h2.361" class="D E F"/><path d="M22.033 30.295v1.18h2.361z" class="B C"/><path d="M22.033 30.295v1.18h2.361" class="D E F"/><path d="M12.197 30.295v1.18h2.361z" class="B C"/><path d="M12.197 30.295v1.18h2.361" class="D E F"/><path d="M15.345 30.295v1.18h2.361z" class="B C"/><path d="M15.345 30.295v1.18h2.361" class="D E F"/><path d="M18.886 32.656v1.18h2.361z" class="B C"/><path d="M18.886 32.656v1.18h2.361" class="D E F"/><path d="M22.033 32.656v1.18h2.361z" class="B C"/><path d="M22.033 32.656v1.18h2.361" class="D E F"/><path d="M12.197 32.656v1.18h2.361z" class="B C"/><path d="M12.197 32.656v1.18h2.361" class="D E F"/><path d="M15.345 32.656v1.18h2.361z" class="B C"/><path d="M15.345 32.656v1.18h2.361" class="D E F"/><path d="M27.935 36.197v1.18z" class="B C"/><path d="M27.935 36.197v1.18" class="D E F"/><path d="M27.935 37.378h2.361z" class="B C"/><path d="M27.935 37.378h2.361" class="D E F"/><path d="M31.082 36.197v1.18h2.361z" class="B C"/><path d="M31.082 36.197v1.18h2.361" class="D E F"/><path d="M27.935 38.164v1.574z" class="B C"/><path d="M27.935 38.164v1.574" class="D E F"/><path d="M27.935 39.738h2.361z" class="B C"/><path d="M27.935 39.738h2.361" class="D E F"/><path d="M31.082 38.164v1.574h2.361z" class="B C"/><path d="M31.082 38.164v1.574h2.361" class="D E F"/><g class="C"><path d="M24 22.427v-1.18l.393-.393v-1.18l.393-.393v-.393l.394-.394v-.393h.393v-.393h.393v-.393h.393l.393-.393h.393l.393-.393h.787-5.508v.393h-.787v.393h-.393l-1.18 1.18v.394h-.393v.787l-.393.393v2.754L24 22.427z"/><g fill="#141617"><path d="M24.394 22.033h-.787v.393h.787v-.787H24v.393h-.393.787z"/><path d="M28.328 16.524v-.393h-.787v.393h-.787v.393h-.787v.393h-.394v.393h-.393v.393h-.393v.787h-.393v.787H24v1.967h-.393v.393h.787v-1.574l.393-.393v-.787h.393v-.787h.393v-.394h.394v-.393h.393l.393-.393h.393v-.393h1.18v-.393h.393l-.393-.393.393.393v-.393h-.393v.393z"/><path d="M24 16.131v.393h4.328v-.393h-4.721v.393H24v-.393z"/><path d="M19.673 21.639v-.393h.393v-1.574h.393v-.787h.393v-.393h.394v-.394l.393-.393h.393v-.393h.393l.393-.393h.787v-.393H24v-.393h-1.18v.393h-.787v.393h-.393v.393h-.393l-.787.787v.394h-.393v.393l-.393.393v.787h-.393v1.967h.393v-.393z"/><path d="M19.673 23.214V21.64h-.393v1.18l.393.393-.393-.393v.393h.393v-.393.393z"/><path d="M24.393 22.427h-4.721v.787L24 22.82l.393-.393-.393.393h.393v-.393H24h.393z"/></g><path d="M23.607 22.033v.394h.787v-.394h-.787zM24 16.524h4.328v-.393H24v.393zm-4.328 6.295v-1.18h-.393v1.18h.393z" fill="#000"/><path d="M23.607 16.525h6.689l.393.393h.393l2.361 2.361v.393l.393.787v.393l.394.393v.787l.393.393v1.18l.393-.393v1.967h4.721l-7.475 7.082-7.082-7.082h4.721v-1.574 1.967l-.394-.787v-1.18l-.393-.787v-1.18l-.393-.393v-.393l-.393-.787v-.393l-1.18-1.18v-.393l-1.18-1.18-.787-.393h-1.574z"/><g fill="#141617"><path d="M29.115 16.131h-5.508v.393h5.508v-.393.393h.393v-.393h-.393z"/><path d="M35.017 24.787l.393.393v-1.574l-.393-.393v.393-1.18l-.393-.394v-.787l-.394-.393v-.787h-.393v-.787h-.394v-.787h-.393v-.394h-.393v-.393h-.393v-.393h-.393v-.393h-.393l-.393-.393h-.393l-.393-.393h-1.18v.393h.393l.393.393h.787v.393h.787v.393h.393v.393h.393v.394h.393v.393l.393.393v.393h.393v.787l.394.393v.787l.393.393v1.18l.394.393V24v-.393 1.967l.393-1.967v1.574h.393l-.393-.393z"/><path d="M35.411 25.18v-.393h-.394v.393h.787v-.393h-.393v.393z"/><path d="M40.131 25.18l-.394-.393H35.41v.393h4.721v-.393h-.394l.394.393z"/><path d="M32.263 32.656h.393l7.476-7.476-.393-.393-7.476 7.476v.393-.393.393z"/><path d="M25.181 24.787l-.393.393 7.476 7.476.393-.393-7.475-7.476h-.393v.393l.393-.393z"/><path d="M29.902 25.18v-.393h-4.721v.393h4.721v-.393.393z"/><path d="M23.607 16.131v.393h.787v.393h1.18v.393h.393v.393h.393l.393.393v.394h.393v.393h.393v.787h.393v.393l.393.393v.787l.393.393v1.18h.393V24l.394.393v.787h.393V24l-.393-.393v-1.574l-.394-.393v-.787l-.393-.393v-.787h-.393v-.393l-.393-.393v-.393l-1.574-1.574h-.393v-.393h-.787v-.393h-1.574v.393-.393h-.393v.393h.393v-.393z"/></g></g><path d="M18.885 54.689h-5.508l-.394-.393h-.393l-.787-.394h-.393l-1.967-1.967v-.393l-.393-.394-.394-.787v-.393l-.393-.394v-1.18l-.393-.393v-1.574l-.393-.787v-.393.787H2.754l7.476-7.476 7.476 7.476h-4.721v.393l.394.393v1.574l.393.787v.393l.393.394v.787l.393.393v.394l2.754 2.754h1.18l.393.393z" stroke="#231f20" class="G H"/><use xlink:href="#C" class="C"/><use xlink:href="#C" stroke="#231f20" class="E G H I"/></symbol><defs ><path id="C" d="M22.028 52.335c-.787 1.574-3.147 2.361-3.147 2.361-1.18 0-2.361-1.18-2.361-1.18l1.18-1.18"/></defs></svg>