<svg xmlns="http://www.w3.org/2000/svg" xmlns:xlink="http://www.w3.org/1999/xlink" viewBox="0 0 31 49" fill="#fff" fill-rule="evenodd" stroke="#000" stroke-linecap="round" stroke-linejoin="round"><use xlink:href="#A" x=".5" y=".5"/><symbol id="A" overflow="visible"><g stroke="#fff" stroke-linejoin="miter"><g fill="#046897" stroke-width=".787"><path d="M25.966 47.997V3.934H.393v44.063h25.573z"/><path d="M.393 3.934L5.114 0H29.9l-3.934 3.934H.393z"/><path d="M25.966 47.998l3.934-4.721V0l-3.934 3.934v44.064z"/></g><path d="M0 44.85h25.179M0 21.245h25.179" stroke-linecap="square" fill="none" stroke-width=".787"/></g><path d="M11.409 35.408v3.541H9.835l2.754 3.541 3.147-3.541h-1.574v-3.541h-2.754zm0-2.754V28.72H9.835l2.754-3.541 3.147 3.541h-1.574v3.934h-2.754zm-7.475 0h3.541V31.08l3.541 3.147-3.541 2.754v-1.574H3.934v-2.754zm17.704 0h-3.934V31.08l-3.541 3.147 3.541 2.754v-1.574h3.934v-2.754z" stroke="none"/><g stroke="#fff" stroke-linejoin="miter" stroke-width=".787"><path d="M14.164 11.803V7.082H2.361v4.721h11.803z" fill="#046897"/><path d="M3.541 9.442h9.836" stroke-linecap="square" fill="none"/></g></symbol></svg>