<svg xmlns="http://www.w3.org/2000/svg" xmlns:xlink="http://www.w3.org/1999/xlink" viewBox="0 0 77 43" fill="#fff" fill-rule="evenodd" stroke="#000" stroke-linecap="round" stroke-linejoin="round"><style><![CDATA[.B{stroke-linejoin:miter}.C{fill:none}.D{stroke-width:.788}.E{stroke-width:1.575}.F{stroke:#fff}.G{stroke-width:.394}]]></style><use xlink:href="#A" x=".5" y=".5"/><symbol id="A" overflow="visible"><g class="B F"><g fill="#036e9d" class="D"><path d="M.001 18.506L22.838 0h52.367L56.699 18.506H0zM56.7 41.736l18.506-18.9V0L56.7 18.506v23.23z"/><path d="M56.7 41.736v-23.23H.396v23.23H56.7z"/></g><g class="C"><use xlink:href="#C" class="D"/><use xlink:href="#D" class="E"/></g></g><use xlink:href="#E" class="B C D"/><use xlink:href="#F" class="B C E"/><g class="F"><use xlink:href="#C" class="B C D"/><use xlink:href="#D" class="B C E"/></g><use xlink:href="#E" class="B C D"/><use xlink:href="#F" class="B C E"/><g class="F"><use xlink:href="#C" class="B C D"/><use xlink:href="#D" class="B C E"/></g><path d="M74.018 13s-1.575 11.025-2.362 2.756c-1.181-8.662-2.756 2.756-2.756 2.756s-1.575 11.025-2.756 2.756c-.787-8.662-2.362 2.756-2.362 2.756s-1.575 11.025-2.756 2.756c-.787-8.662-2.362 2.756-2.362 2.756" class="B C G"/><path d="M58.662 29.536s.394 8.662 2.362-2.756c1.969-11.812 2.756-2.756 2.756-2.756s.787 8.662 2.362-3.15c1.969-11.418 2.756-2.362 2.756-2.362s.787 8.662 2.756-2.756C73.23 3.944 74.018 13 74.018 13" class="B C D"/><g class="F"><path d="M74.017 13s-1.969 11.418-2.756 2.756c-1.181-8.268-2.756 2.756-2.756 2.756s-1.575 11.418-2.362 2.756c-1.181-8.268-2.756 2.756-2.756 2.756s-1.575 11.418-2.756 2.756c-.788-8.268-2.362 2.756-2.362 2.756" class="B C G"/><path d="M58.268 29.537s.788 8.662 2.362-2.756c1.969-11.418 2.756-2.756 2.756-2.756s.787 8.662 2.756-2.756c1.575-11.418 2.362-2.756 2.362-2.756s.787 9.056 2.756-2.756C73.23 4.338 74.017 13 74.017 13" class="B C D"/></g><path d="M40.951 3.938l-1.969-.394 7.087-1.575 2.756 2.362-1.969-.394h-.394l-3.937 2.756h-5.119l3.937-2.756h-.394zm-5.119 10.237l1.969.394-7.087 1.575-2.756-2.362 1.969.394h.788l3.544-2.756h5.119l-3.937 2.756h.394zM25.202 9.056h-8.268l2.756-1.969h8.269l.788-1.181 3.937 2.756-9.45 2.756 1.969-2.362zm25.987-.787h8.269l-2.362 1.969h-8.268l-1.181 1.181-3.937-2.756L53.551 6.3l-2.362 1.969z" stroke="none"/></symbol><defs ><path id="C" d="M53.15 30.718s-3.544 9.843-7.875 0c-4.725-9.45-8.268 0-8.268 0s-3.937 9.843-8.268 0c-4.725-9.843-8.268 0-8.268 0s-3.937 9.843-8.268 0c-4.725-9.45-8.268 0-8.268 0"/><path id="D" d="M3.933 30.718s3.544 9.843 8.268 0c4.331-9.45 8.269 0 8.269 0s3.544 9.843 8.268 0c4.331-9.843 8.268 0 8.268 0s3.544 9.843 8.268 0c4.331-9.45 7.875 0 7.875 0"/><path id="E" d="M54.331 30.718s-3.937 9.843-8.268 0c-4.725-9.45-8.268 0-8.268 0s-3.937 9.843-8.268 0c-4.725-9.843-8.268 0-8.268 0s-3.937 9.843-8.268 0c-4.331-9.45-8.268 0-8.268 0"/><path id="F" d="M4.72 30.718s3.937 9.843 8.268 0c4.331-9.45 8.269 0 8.269 0s3.544 9.843 8.268 0c4.331-9.843 8.268 0 8.268 0s3.544 9.843 8.268 0c4.331-9.45 8.268 0 8.268 0"/></defs></svg>