<svg xmlns="http://www.w3.org/2000/svg" xmlns:xlink="http://www.w3.org/1999/xlink" viewBox="0 0 50 45" fill="#fff" fill-rule="evenodd" stroke="#000" stroke-linecap="round" stroke-linejoin="round"><style><![CDATA[.B{stroke-width:.787}.C{fill:#036c9b}.D{stroke-linejoin:miter}.E{stroke-linecap:square}]]></style><use xlink:href="#A" x=".5" y=".5"/><symbol id="A" overflow="visible"><g stroke="#fff" class="D"><g class="B C"><path d="M0 43.293V5.51h43.687v37.783H0z"/><path d="M5.117 0L0 5.51h43.687L48.803 0H5.117z"/><path d="M48.803 38.177V0l-5.117 5.51v37.783l5.117-5.117zM40.144 8.659H4.329v31.88h35.815V8.659z"/></g><path d="M18.498 21.647L5.904 25.976" fill="none" class="B E"/><path d="M24.402 18.498l15.743-5.904v3.542l-15.743 2.361z" class="B C"/></g><path d="M24.402 18.498l15.743-1.968v3.149l-15.743-1.181z" stroke="none" class="C"/><path d="M24.402 18.498l15.743-1.968v3.149l-15.743-1.181" stroke="#fff" fill="none" class="B D E"/><path d="M24.402 18.498l15.743 1.181v3.542l-15.743-4.723z" stroke="none" class="C"/><path d="M24.402 18.498l15.743 1.181v3.542l-15.743-4.723" stroke="#fff" fill="none" class="B D E"/><path d="M33.848 35.422H11.414l11.02-22.434 11.414 22.434z" stroke="none"/></symbol></svg>