<svg xmlns="http://www.w3.org/2000/svg" xmlns:xlink="http://www.w3.org/1999/xlink" viewBox="0 0 59 60" fill="#fff" fill-rule="evenodd" stroke="#000" stroke-linecap="round" stroke-linejoin="round"><style><![CDATA[.B{stroke:none}.C{stroke-linejoin:miter}.D{stroke-width:.788}.E{stroke-linecap:square}.F{stroke-width:2.363}]]></style><use xlink:href="#A" x=".5" y=".5"/><symbol id="A" overflow="visible"><use xlink:href="#C" fill="#046897" class="B"/><use xlink:href="#C" stroke="#fff" fill="none" class="C D"/><use xlink:href="#D" fill="#046897" class="B"/><use xlink:href="#D" stroke="#fff" fill="none" class="C D"/><g class="B"><g fill="#000"><path d="M25.603 10.627L23.24 7.082l-1.181-.394-1.575 1.181-13.39-2.363-3.938 3.151.394 1.181 3.544-2.757 13.784 2.363 1.575-1.575 2.363 3.938.788-1.181zm7.877 2.756l8.27-1.575.788-1.575-1.181-.788-9.058 2.363 1.181 1.575z"/><path d="M54.352 13.383L41.749 11.02l-1.575.788v1.181l13.784 2.363.393-1.969zM31.117 5.901l9.058-2.363.393-.788-.393-1.181L29.542 4.72l1.575 1.181zm-14.178 9.845v1.97l3.151.788 4.726-3.938 4.333.393 1.181-1.575-5.514-1.181-4.726 4.333-3.151-.788zm9.846 2.363h-2.756v1.575l2.756.788 1.575-1.575-1.575-.788z"/></g><path d="M30.723 5.113l9.058-2.757v3.938L37.418 5.9l-4.332 3.938-4.332-.788 4.726-3.544-2.757-.394zm4.332 10.633l-1.575-3.938 8.27-1.575-1.575 1.181 13.784 2.363-3.544 2.757-13.39-2.363-1.969 1.575zm-8.27 3.151l-8.664 1.575-.394-3.938 2.363.788 4.726-4.332 4.332.788-5.12 4.332 2.757.788zM22.453 7.082l2.363 3.544-9.058 1.969 1.969-1.575L3.549 8.657 7.093 5.9l13.784 2.363 1.575-1.181z"/></g><path d="M16.545 49.614h8.27l10.239-21.266h6.695" fill="none" class="C E F"/><g class="B"><path d="M39.387 24.41v7.483l4.726-3.544-4.726-3.938zm-21.66 29.143v-7.876l-4.332 3.938 4.332 3.938z" fill="#000"/><path d="M17.727 53.947v-7.483l-4.332 3.544 4.332 3.938zm22.054-29.143v7.483l4.332-3.544-4.332-3.938z"/><path d="M17.727 32.286V24.41l-4.332 3.938 4.332 3.938z" fill="#000"/><path d="M17.727 32.681v-7.483l-4.332 3.544 4.332 3.938z"/></g><g fill="none" class="C E F"><path d="M41.75 49.614h-7.089L24.028 28.348h-6.695"/><g stroke="#fff"><path d="M42.537 50.008h-7.483L24.421 28.742h-8.27"/><path d="M16.151 50.008h7.483l10.633-21.266h8.27"/></g></g><g class="B"><path d="M39.387 45.677v7.483l4.726-3.544-4.726-3.938z" fill="#000"/><path d="M39.781 46.07v7.876l4.332-3.938-4.332-3.938z"/></g></symbol><defs ><path id="C" d="M57.891 11.421c0 6.301-12.996 11.027-28.749 11.027C12.996 22.448 0 17.722 0 11.421v35.838c0 5.907 12.996 11.027 29.143 11.027 15.753 0 28.749-5.12 28.749-11.027z"/><path id="D" d="M29.143 22.448c15.753 0 28.749-4.726 28.749-11.027S44.895 0 29.143 0C12.996 0 0 5.12 0 11.421s12.996 11.027 29.143 11.027z"/></defs></svg>