<svg xmlns="http://www.w3.org/2000/svg" xmlns:xlink="http://www.w3.org/1999/xlink" viewBox="0 0 60 71" fill="#fff" fill-rule="evenodd" stroke="#000" stroke-linecap="round" stroke-linejoin="round"><style><![CDATA[.B{stroke-linejoin:miter}.C{fill:none}.D{stroke-width:.787}.E{stroke:none}.F{stroke:#fff}.G{fill:#0f73a0}.H{stroke-linecap:square}]]></style><use xlink:href="#A" x=".5" y=".5"/><symbol id="A" overflow="visible"><use xlink:href="#C" fill="#0b719f" class="E"/><use xlink:href="#C" class="B C D F H"/><use xlink:href="#C" class="E G"/><use xlink:href="#C" class="B C D F H"/><use xlink:href="#D" class="E G"/><use xlink:href="#D" class="B C D F"/><use xlink:href="#E" class="E G"/><use xlink:href="#E" class="B C D F"/><use xlink:href="#F" fill="#000" class="E"/><use xlink:href="#F" class="B C D F"/><use xlink:href="#F" class="E G"/><use xlink:href="#F" class="B C D F"/><use xlink:href="#G" class="E G"/><use xlink:href="#G" class="B C D F"/><use xlink:href="#H" class="E G"/><g class="B C F"><g class="D"><use xlink:href="#H"/><path d="M15.635 9.439c1.574 3.542 0 5.904-3.542 7.872-3.149 1.574-6.297 1.968-8.265-1.181" class="H"/></g><path d="M14.455 7.864c1.968 3.149 0 5.904-3.149 7.478-3.149 1.968-6.691 2.361-8.265-.787m10.627-7.871c1.574 3.149-.394 5.51-3.149 7.478-3.149 1.574-6.297 1.968-8.265-1.181M12.88 5.503c1.574 2.755-.393 5.117-3.542 7.084-3.149 1.574-6.297 1.968-7.872-1.181m10.627-7.478c1.574 2.755-.393 5.117-3.542 7.084-3.149 1.575-6.298 1.968-7.872-1.18m10.234-7.478c1.574 3.149 0 5.51-3.149 7.084-2.755 1.574-5.904 1.968-7.478-.787m9.446-7.084c1.181 2.755-.394 4.723-2.755 5.904C4.222 9.045 1.86 9.439.286 6.684M8.158.78c1.181 2.361 0 3.936-2.362 5.117C3.828 7.078 1.467 7.471.286 5.11" class="H" stroke-width=".394"/></g><path d="M25.868 40.138c1.181 5.51 1.181 13.775 7.084 16.137 1.574.787 3.542.394 5.51 1.181 3.936 1.181 5.51 5.51 9.052 8.265 3.149 2.361 7.084 2.361 10.627.787" stroke="#0b719f" class="B C D H"/></symbol><defs ><path id="C" d="M15.242 9.045L28.23 32.266c1.574 3.149.394 7.478-2.755 9.052-3.149 1.968-7.084.787-9.052-2.361L3.828 16.129"/><path id="D" d="M19.177 69.656c-9.839 0-17.711-2.361-17.711-5.51s7.872-5.51 17.711-5.51 17.711 2.361 17.711 5.51-7.872 5.51-17.711 5.51z"/><path id="E" d="M19.178 62.572c-4.723 0-8.659-1.181-8.659-2.755s3.936-2.755 8.659-2.755c5.117 0 9.052 1.181 9.052 2.755s-3.936 2.755-9.052 2.755z"/><path id="F" d="M15.242 9.439c1.968 3.149 0 5.904-3.149 7.478-3.149 1.968-6.691 2.361-8.265-.787L1.466 11.8l-.393-.787C-.895 7.864-.108 2.354 3.041.78c3.149-1.968 7.478 0 9.446 3.542l.394.394z"/><path id="G" d="M19.178 60.997c-1.181 0-1.968-.787-1.968-1.968V27.543c0-1.181.787-1.968 1.968-1.968s1.968.787 1.968 1.968v31.486c0 1.181-.787 1.968-1.968 1.968z"/><path id="H" d="M19.571 31.085c1.181 0 2.361-.787 2.361-1.968s-1.181-2.361-2.361-2.361-1.968 1.181-1.968 2.361.787 1.968 1.968 1.968z"/></defs></svg>