<svg xmlns="http://www.w3.org/2000/svg" xmlns:xlink="http://www.w3.org/1999/xlink" viewBox="0 0 59 40" fill="#fff" fill-rule="evenodd" stroke="#000" stroke-linecap="round" stroke-linejoin="round"><use xlink:href="#A" x=".5" y=".5"/><symbol id="A" overflow="visible"><use xlink:href="#C" stroke="none" fill="#0e6f9c"/><use xlink:href="#C" stroke="#fff" stroke-linejoin="miter" fill="none" stroke-width=".788"/><use xlink:href="#C" stroke="none" fill="#0e6f9c"/><use xlink:href="#C" stroke="#fff" stroke-linejoin="miter" fill="none" stroke-width=".788"/><use xlink:href="#D" stroke="none" fill="#0e6f9c"/><use xlink:href="#D" stroke="#fff" stroke-linejoin="miter" fill="none" stroke-width=".788"/><g stroke="none"><path d="M41.742 14.562l6.3 2.362-6.3 2.756v-1.969H10.636v-2.363h31.106v-.787z" fill="#0c6d9c"/><path d="M16.931 7.875h1.181c1.181 3.544 1.181 3.938 1.181 4.725 0-.394.394-1.181.787-4.725h1.575c.787 3.544.787 3.938.787 4.725.394-.394.394-1.181 1.181-4.725h1.181l-1.575 6.694H22.05L20.869 9.45c0 1.181-.394 1.575-.788 5.119h-1.575zm8.269 0h1.575c.788 3.544.788 3.938.788 4.725.394-.394.394-1.181 1.181-4.725h1.181l1.181 4.725c0-.394 0-1.181.787-4.725h1.575L31.5 14.569h-1.181L29.137 9.45c0 1.181 0 1.575-.788 5.119h-1.181z"/><path d="M33.468 7.875h1.575l1.181 4.725c0-.394 0-1.181.788-4.725h1.181l1.181 4.725c0-.394 0-1.181 1.181-4.725h1.181l-1.969 6.694h-1.181c-.787-3.15-.787-3.937-.787-5.119-.394 1.181-.394 1.575-1.181 5.119h-1.181z"/></g></symbol><defs ><path id="C" d="M57.487 11.025c0 6.3-12.994 11.025-28.743 11.025S0 17.325 0 11.025v16.537c0 5.906 12.994 11.025 28.744 11.025s28.743-5.119 28.743-11.025z"/><path id="D" d="M28.743 22.05c15.75 0 28.743-4.725 28.743-11.025C57.487 5.119 44.493 0 28.743 0S0 5.119 0 11.025c0 6.3 12.994 11.025 28.743 11.025z"/></defs></svg>