<svg xmlns="http://www.w3.org/2000/svg" xmlns:xlink="http://www.w3.org/1999/xlink" viewBox="0 0 68.377 61.574" fill="#fff" fill-rule="evenodd" stroke="#000" stroke-linecap="round" stroke-linejoin="round"><style><![CDATA[.B{fill:none}.C{stroke:#fff}.D{stroke:none}.E{stroke-linecap:square}.F{stroke-width:.393}.G{stroke-width:.394}.H{stroke-width:1.18}.I{stroke-linejoin:miter}]]></style><use xlink:href="#A" x=".59" y=".787"/><symbol id="A" overflow="visible"><g stroke="#0c719f" class="B H"><path d="M0 33.838h20.46M6.295 39.74h13.771m.394-14.164H9.05M3.935 30.69h16.132m32.657 28.722h-30.69l13.378-8.263h31.083l-13.771 8.263z"/><path d="M35.412 51.149l-13.378 8.263V7.869L35.412.393v50.756z"/><path d="M52.33 7.869H22.034L35.412.393 66.495 0 52.33 7.869z"/><path d="M52.724 59.412h-30.69V7.869H52.33l.393 51.543z"/></g><use xlink:href="#C" stroke-width="1.574" class="B"/><use xlink:href="#C" stroke="#0c719f" class="B H"/><path d="M49.57 10.63h-1.18c-.393-.393-1.18-.393-1.18-.393" class="B C E F"/><g fill="#0c719f" class="D"><path d="M49.177 30.303c.787-1.574 2.361-9.049 2.361-10.23s-.393-2.361-.787-2.754v-.393c0-.393-.393-.393-.393-.393s.393-1.574.787-2.754c.393-2.361.393-3.148.393-3.148 0-.393 0-.393-.393-.393l-1.18-.393c-.393-.393-.393 0-.787.393 0 0-.393.787-1.18 3.148-.393 1.18-.787 1.967-.787 1.967-.787 0-1.574-.393-2.361-.787l-6.295-1.18-.393.393c-.394 0-1.574 1.18-1.967 1.967s-2.754 8.656-3.148 9.836c-.787 1.574-1.574 5.508-1.967 7.476 0 1.967-.393 5.508-1.574 9.836-.787 2.754-1.967 6.689-2.754 8.263 0 .393-1.574 2.754.393 3.541s4.721 1.574 5.902 1.967c1.574.394 4.328 1.18 6.295 1.18 1.967.393 1.967-1.967 1.967-2.361.393-1.967 1.574-5.902 2.361-8.656 1.18-4.328 2.754-7.476 3.148-9.443.787-1.967 1.967-5.508 2.361-7.082z"/><use xlink:href="#D"/></g><g class="B C F"><use xlink:href="#D" class="I"/><path d="M37.766 58.238c1.967.393 1.967-2.361 1.967-2.754l1.967-8.262c1.18-4.722 2.754-7.869 3.541-9.443.394-1.967 1.967-5.902 2.361-7.082.393-1.574 1.967-9.443 2.361-10.623 0-.787-.394-2.361-1.18-2.361v-.787h-.393.393s.393-1.967.393-3.148c.393-1.967.787-2.754.787-2.754 0-.394-.394-.787-.394-.787l-1.574-.393" class="E"/></g><use xlink:href="#E" fill="#000" class="D"/><use xlink:href="#E" class="B C E F"/><g fill="#0c719f" class="D"><path d="M48.39 16.925s.394-1.967.394-3.148c.787-1.967.787-2.754.787-2.754 0-.394 0-.787-.394-.787l-1.18-.393c-.394 0-.787 0-.787.393l-1.18 3.148-.787 2.361m3.148.394c-.787-.394-1.967-.787-3.148-1.18m-8.656-1.18s-2.361 5.508-3.934 11.017c-1.967 6.689-2.361 9.049-1.967 12.197 0 .393.787 1.18 1.574 1.574h.394c.393 0 .787.394 1.18.787.394 0 .787.393.787.393.394 0 .394.393 1.18.393.787.393.787 0 1.18 0 0 .393.393 0 .787 0 .787 0 1.18.393 1.18.393h.787c.787.393 1.574 0 1.967-.787 1.967-2.361 2.754-4.328 4.721-11.017 1.574-5.902 1.967-11.804 1.967-11.804m-13.377-.393l7.082 1.18c1.967.787 4.328 1.574 6.295 2.361"/><use xlink:href="#F"/></g><use xlink:href="#F" class="B C G I"/><path d="M41.313 18.886l1.18-3.935z" fill="#000" class="D"/><path d="M41.313 18.886l1.18-3.935" class="B C E G"/><path d="M41.707 18.886l1.18-3.935z" fill="#000" class="D"/><path d="M41.707 18.886l1.18-3.935" class="B C E G"/><use xlink:href="#G" fill="#000" class="D"/><use xlink:href="#G" class="B C F"/><path d="M32.258 41.319c-.393.393-.787.787-1.574.787-.787-.393-1.18-.787-.787-1.574 0-.787.787-1.18 1.574-.787.393 0 .787.787.787 1.574zm-2.36 7.476c0 .787-.787 1.18-1.574.787-.393 0-.787-.787-.787-1.574 0-.393.787-.787 1.574-.787.787.394 1.18.787.787 1.574zM40.52 43.68c0 .393-.787.787-1.574.787-.787-.393-1.18-.787-.787-1.574 0-.787.787-1.18 1.574-.787.787 0 1.18.787.787 1.574zm-2.36 7.476c0 .787-.787 1.18-1.574.787-.393 0-.787-.787-.787-1.18.394-.787.787-1.18 1.574-1.18.787.393 1.18 1.18.787 1.574zm-1.968-7.869c-.393.787-.787 1.18-1.574.787-.787 0-1.18-.787-.787-1.574 0-.394.787-.787 1.574-.787.393.393.787.787.787 1.574zm-5.115 1.574c0 .787-.787 1.18-1.574 1.18-.787-.393-1.18-1.18-.787-1.574 0-.787.787-1.18 1.574-.787.787 0 1.18.787.787 1.18zm8.263 2.754c0 .393-.787.787-1.574.787-.393-.393-.787-.787-.787-1.574.394-.787.787-1.18 1.574-.787.787 0 1.18.787.787 1.574zm-4.328-.394c0 .787-.787.787-1.574.787s-1.18-.787-.787-1.574c0-.787.787-1.18 1.574-.787.787 0 1.18.787.787 1.574zm-1.18 3.935c0 .393-.787.787-1.574.787-.393-.393-.787-.787-.787-1.574s.787-1.18 1.574-.787c.787 0 1.18.787.787 1.574z" class="D"/></symbol><defs ><path id="C" d="M66.495 51.149l-13.771 8.263-.394-51.543L66.495 0v51.149z"/><path id="D" d="M47.209 30.696c.393-1.574 2.361-9.443 2.361-10.623 0-.787-.394-2.361-.787-2.361v-.787h-.393s.393-1.967.393-3.148c.787-1.967.787-2.754.787-2.754 0-.394 0-.787-.394-.787l-1.18-.393c-.393 0-.787 0-.787.393 0 0-.394 1.18-1.18 3.148l-.787 2.361c-.787-.393-1.574-.787-2.361-.787-2.361-.787-4.328-1.18-6.295-1.18l-.393.393c-.393 0-1.574.787-1.967 1.967-.787.787-3.148 8.263-3.541 9.836s-1.18 5.508-1.574 7.476-.787 5.115-1.967 9.836l-2.361 8.263c-.393.393-1.574 2.361.393 3.148s4.721 1.574 5.902 1.967c1.574.393 4.328 1.18 6.295 1.574s1.967-2.361 1.967-2.754c.393-1.574 1.574-5.902 1.967-8.262 1.574-4.722 2.754-7.869 3.541-9.443.787-1.967 1.967-5.902 2.361-7.082z"/><path id="E" d="M31.865 54.697h-.393.393zm-.393 0l-.393 1.574m.393-1.574l-.393 1.574m.787-1.574l-.393 1.574m.393-1.574l-.393 1.574m3.541-25.968l-.393 1.18m.393-1.18l-.393 1.18m7.082.787l-.393 1.18m0-1.18v1.18"/><path id="F" d="M40.128 35.811c-.393 1.967-1.967 2.754-3.934 2.361-1.574-.393-2.754-2.361-2.361-3.934.787-1.574 2.361-2.754 4.328-2.361 1.574.393 2.754 2.361 1.967 3.935z"/><path id="G" d="M44.848 31.09c0 .393 0 .393-.394.393l-11.41-3.148c-.394 0-.394-.393-.394-.787l1.967-7.082c0-.393.393-.393.787-.393l11.41 3.148s.393.393.393.787z"/></defs></svg>