<svg xmlns="http://www.w3.org/2000/svg" xmlns:xlink="http://www.w3.org/1999/xlink" viewBox="0 0 79 54" fill="#fff" fill-rule="evenodd" stroke="#000" stroke-linecap="round" stroke-linejoin="round"><style><![CDATA[.B{stroke:#fff}.C{stroke-linejoin:miter}.D{stroke:none}.E{fill:none}.F{stroke-width:.394}.G{stroke-width:.787}.H{fill:#0c719f}.I{stroke-linecap:square}]]></style><use xlink:href="#A" x=".5" y=".5"/><symbol id="A" overflow="visible"><g fill="#0f73a0" class="B C G"><path d="M0 5.906v46.852h71.656V5.906H0z"/><path d="M0 5.906L5.512 0h72.05l-5.906 5.906H0z"/><path d="M71.656 5.906L77.562 0v46.852l-5.906 5.906V5.906z"/></g><g class="D"><path d="M57.483 16.142v-2.756l6.693 4.725-6.693 4.331v-2.756h-8.662v-3.543h8.662zM21.655 39.371v-2.756l6.3 4.725-6.3 4.725v-2.756H4.725v-3.937h16.93zm35.828.394v-2.756l6.693 4.331-6.693 4.725v-2.756h-8.662v-3.543h8.662z" fill="#060606"/><path d="M56.695 15.355v-2.756l6.693 4.331-6.693 4.725v-2.756h-8.662v-3.543h8.662zM20.473 38.584v-2.756l6.693 4.725-6.693 4.331v-2.756H3.937v-3.544h16.536z"/><path d="M63.388 27.954v-2.756l6.693 4.331-6.693 4.724v-2.756H48.427v-3.543h14.961z" fill="#060606"/><path d="M62.6 26.773v-2.756l6.693 4.725-6.693 4.724V30.71H47.639v-3.937H62.6zm-5.906 11.811v-2.756l6.693 4.725-6.693 4.725v-2.756h-8.662v-3.937h8.662z"/><path d="M45.671 9.843v38.978H28.347V9.843h17.324z" fill="#156287"/><path d="M45.671 9.843v38.978H28.347V9.843h17.324z"/><path d="M40.947 39.765v5.512h-7.481v-5.512h7.481z"/></g><path d="M40.947 39.765v5.512h-7.481v-5.512h7.481z" class="B C E F"/><use xlink:href="#C" class="D"/><use xlink:href="#C" class="B C E F"/><use xlink:href="#C" y="-3.15" class="D"/><use xlink:href="#C" y="-3.15" class="B C E F"/><use xlink:href="#C" y="-6.693" class="D"/><use xlink:href="#C" y="-6.693" class="B C E F"/><use xlink:href="#D" class="D"/><use xlink:href="#D" class="B C E F"/><use xlink:href="#C" y="-12.992" class="D"/><use xlink:href="#C" y="-12.992" class="B C E F"/><use xlink:href="#C" y="-16.142" class="D"/><use xlink:href="#C" y="-16.142" class="B C E F"/><use xlink:href="#C" y="-19.292" class="D"/><use xlink:href="#C" y="-19.292" class="B C E F"/><use xlink:href="#C" y="-22.442" class="D"/><use xlink:href="#C" y="-22.442" class="B C E F"/><use xlink:href="#C" y="-25.591" class="D"/><use xlink:href="#C" y="-25.591" class="B C E F"/><use xlink:href="#C" y="-28.741" class="D"/><use xlink:href="#C" y="-28.741" class="B C E F"/><use xlink:href="#E" class="D"/><use xlink:href="#E" class="B C E F"/><use xlink:href="#C" x="-12.993" class="D"/><use xlink:href="#C" x="-12.993" class="B C E F"/><use xlink:href="#C" x="-12.993" y="-3.15" class="D"/><use xlink:href="#C" x="-12.993" y="-3.15" class="B C E F"/><use xlink:href="#C" x="-12.993" y="-6.693" class="D"/><use xlink:href="#C" x="-12.993" y="-6.693" class="B C E F"/><use xlink:href="#D" x="-12.993" class="D"/><use xlink:href="#D" x="-12.993" class="B C E F"/><use xlink:href="#C" x="-12.993" y="-12.992" class="D"/><use xlink:href="#C" x="-12.993" y="-12.992" class="B C E F"/><use xlink:href="#C" x="-12.993" y="-16.142" class="D"/><use xlink:href="#C" x="-12.993" y="-16.142" class="B C E F"/><use xlink:href="#C" x="-12.993" y="-19.292" class="D"/><use xlink:href="#C" x="-12.993" y="-19.292" class="B C E F"/><use xlink:href="#C" x="-12.993" y="-22.442" class="D"/><use xlink:href="#C" x="-12.993" y="-22.442" class="B C E F"/><use xlink:href="#C" x="-12.993" y="-25.591" class="D"/><use xlink:href="#C" x="-12.993" y="-25.591" class="B C E F"/><use xlink:href="#C" x="-12.993" y="-28.741" class="D"/><use xlink:href="#C" x="-12.993" y="-28.741" class="B C E F"/><use xlink:href="#C" x="-12.993" y="-31.891" class="D"/><use xlink:href="#C" x="-12.993" y="-31.891" class="B C E F"/><use xlink:href="#F" class="D"/><use xlink:href="#F" class="B C E F"/><use xlink:href="#F" y="-8.662" class="D"/><use xlink:href="#F" y="-8.662" class="B C E F"/><use xlink:href="#F" y="-16.93" class="D"/><use xlink:href="#F" y="-16.93" class="B C E F"/><g class="D H"><use xlink:href="#G"/><use xlink:href="#H"/><use xlink:href="#I"/><use xlink:href="#J"/><use xlink:href="#K"/><use xlink:href="#L"/><use xlink:href="#M"/><use xlink:href="#N"/><use xlink:href="#O"/><use xlink:href="#P"/><use xlink:href="#Q"/><use xlink:href="#R"/><use xlink:href="#S"/><use xlink:href="#T"/><use xlink:href="#U"/><use xlink:href="#V"/><use xlink:href="#W"/><use xlink:href="#X"/><path d="M16.93 14.173l.787-2.362zm.394 0l.394-1.969z"/><use xlink:href="#G"/><use xlink:href="#H"/></g><use xlink:href="#H" class="B C E G I"/><use xlink:href="#I" class="D H"/><use xlink:href="#I" class="B C E G"/><use xlink:href="#J" class="D H"/><use xlink:href="#J" class="B C E G"/><use xlink:href="#K" class="D H"/><use xlink:href="#K" class="B C E G"/><use xlink:href="#L" class="D H"/><use xlink:href="#L" class="B C E G"/><use xlink:href="#M" class="D H"/><use xlink:href="#M" class="B C E G"/><use xlink:href="#N" class="D H"/><use xlink:href="#N" class="B C E G"/><use xlink:href="#O" class="D H"/><use xlink:href="#O" class="B C E G"/><use xlink:href="#P" class="D H"/><use xlink:href="#P" class="B C E G"/><use xlink:href="#Q" class="D H"/><use xlink:href="#Q" class="B C E G"/><use xlink:href="#R" class="D H"/><use xlink:href="#R" class="B C E G"/><use xlink:href="#S" class="D H"/><use xlink:href="#S" class="B C E G"/><use xlink:href="#T" class="D H"/><use xlink:href="#T" class="B C E G"/><use xlink:href="#U" class="D H"/><use xlink:href="#U" class="B C E G I"/><g class="D H"><use xlink:href="#V"/><use xlink:href="#W"/></g><use xlink:href="#W" class="B C E G"/><use xlink:href="#X" class="D H"/><use xlink:href="#X" class="B C E G"/><path d="M16.93 14.173l.787-2.362z" class="D H"/><path d="M16.93 14.173l.787-2.362" class="B C E G I"/><path d="M17.324 14.174l.394-1.969z" class="D H"/><g class="B C E G"><path d="M17.324 14.174l.394-1.969" class="I"/><use xlink:href="#G"/><use xlink:href="#H" class="I"/><use xlink:href="#I"/><use xlink:href="#J"/><use xlink:href="#K"/><use xlink:href="#L"/><use xlink:href="#M"/><use xlink:href="#N"/><use xlink:href="#O"/><use xlink:href="#P"/><use xlink:href="#Q"/><use xlink:href="#R"/><use xlink:href="#S"/><use xlink:href="#T"/><g class="I"><use xlink:href="#U"/><use xlink:href="#V"/></g><use xlink:href="#W"/><use xlink:href="#X"/><path d="M16.93 14.173l.787-2.362m-.394 2.362l.394-1.969" class="I"/></g></symbol><defs ><path id="C" d="M44.49 45.277v1.575h-1.575v-1.575h1.575z"/><path id="D" d="M44.49 35.828v1.181h-1.575v-1.181h1.575z"/><path id="E" d="M44.49 13.386v1.181l-1.575.394v-1.575h1.575z"/><path id="F" d="M40.947 31.497v5.118h-7.481v-5.118h7.481z"/><path id="G" d="M21.256 20.089c.394-.787 1.181-4.724 1.181-5.512 0-.394 0-1.181-.394-1.181v-.394s0-1.181.394-1.575V9.065h-1.181s-.394.787-.787 1.969c0 .394-.394 1.181-.394 1.181-.394 0-.787 0-1.181-.394-1.181-.394-2.362-.394-3.15-.787l-.394.394c-.394 0-.788.394-1.181 1.181 0 .394-1.575 4.331-1.575 5.118-.394.787-.787 3.15-.787 3.937-.394 1.181-.394 2.756-1.181 5.512-.394 1.181-1.181 3.543-1.181 4.331-.394 0-.787 1.181 0 1.575 1.181.394 2.362 1.181 3.15 1.181.787.394 2.362.788 3.543.788.787 0 .787-1.181 1.181-1.575 0-.787.394-2.756.787-4.331l1.969-5.118c.394-.787 1.181-3.15 1.181-3.937z"/><path id="H" d="M21.256 9.459h-.394c-.394 0-.787-.394-.787-.394"/><path id="I" d="M20.075 20.483c.394-.787 1.181-5.118 1.575-5.512 0-.787-.394-1.575-.787-1.575v-.394s0-.787.394-1.575V9.459l-.787-.394s-.394 0-.394.394c0 0-.394.394-.788 1.575 0 .787-.394 1.181-.394 1.181-.394 0-.787 0-1.181-.394-1.181 0-1.969-.394-3.15-.394h-.394s-.787.787-.787 1.181c-.394.394-1.575 4.331-1.969 5.118-.394 1.181-.787 3.15-.787 3.937-.394 1.181-.394 3.15-1.181 5.512-.394 1.181-.787 3.543-1.181 4.331 0 .394-.787 1.575 0 1.968 1.181.394 2.756.787 3.543.787.394.394 1.969.788 3.15.788 1.181.394 1.181-1.181 1.181-1.181 0-1.181.787-3.15 1.181-4.724.394-2.362 1.181-3.937 1.575-5.118.394-.787 1.181-2.756 1.181-3.543z"/><path id="J" d="M12.595 25.995c-.394.394-.787.787-1.181.787-.394-.394-.394-.787-.394-1.181s.394-.787.787-.394a.85.85 0 0 1 .787.787z"/><path id="K" d="M14.563 26.782c0 .394-.787.787-1.181.787-.394-.394-.394-.787-.394-1.181s.394-.394.787-.394c.787 0 .787.394.787.787z"/><path id="L" d="M16.532 27.176a.85.85 0 0 1-.787.787c-.394-.394-.787-.787-.787-1.181.394-.394.787-.787 1.181-.394.394 0 .787.394.394.787z"/><path id="M" d="M12.201 27.963c-.394.394-.787.394-1.181.394s-.787-.394-.394-.787a.85.85 0 0 1 .787-.787c.394 0 .787.787.787 1.181z"/><path id="N" d="M14.169 28.751c-.394.394-.787.394-1.181.394s-.787-.394-.394-.787a.85.85 0 0 1 .787-.787c.394.394.787.787.787 1.181z"/><path id="O" d="M16.138 29.144c0 .394-.394.394-.787.394s-.787-.394-.787-1.181c.394-.394.787-.394 1.181-.394s.394.394.394 1.181z"/><path id="P" d="M11.414 29.539c0 .394-.394.787-.787.394a.85.85 0 0 1-.787-.787c.394-.394.787-.787 1.181-.394.394 0 .787.394.394.787z"/><path id="Q" d="M13.382 30.326a.85.85 0 0 1-.787.787c-.394-.394-.787-.787-.394-1.181 0-.394.394-.787.787-.394.394 0 .787.394.394.787z"/><path id="R" d="M15.744 30.719c0 .394-.787.787-1.181.394-.394 0-.394-.394-.394-.787a.85.85 0 0 1 .787-.787c.787.394.787.787.787 1.181z"/><path id="S" d="M11.02 31.113c0 .787-.394.787-.787.787s-.787-.787-.787-1.181c.394-.394.787-.394 1.181-.394s.394.394.394.787zm1.969 1.181c0 .394-.394.394-.787.394a.85.85 0 0 1-.787-.787c.394-.787.787-.787 1.181-.787s.394.787.394 1.181z"/><path id="T" d="M15.35 32.294c-.394.394-.787.787-1.181.787-.394-.394-.787-.787-.394-1.181 0-.394.394-.394.787-.394a.85.85 0 0 1 .787.787z"/><path id="U" d="M12.201 33.475h-.394v-.394c.394 0 .394 0 .394.394zm-.394-.394l-.394 1.181m.394-.788l-.394.788m.787-.788l-.394.788m0-.788v.788m1.969-14.174l-.394.787m.394-.787l-.394.787m3.937.394l-.394.394m.394-.394l-.394.394"/><path id="V" d="M20.863 13.002s0-.787.394-1.575V9.459l-.787-.394s-.394 0-.394.394c0 0-.394.394-.787 1.575 0 .787-.394 1.181-.394 1.181m0 9.055c0 .394-.394.394-.394.394l-6.299-1.575v-.394l1.181-3.937v-.394l6.299 1.968zm1.969-8.662c-.394 0-1.181-.394-1.575-.394m-4.725-.787s-1.575 2.756-2.362 5.906c-.787 3.543-1.181 4.725-.787 6.299a.85.85 0 0 0 .787.787c0 .394.394.394.394.394h.394l.394.394c.394 0 .394.394.787.394h1.969c.394.394.787 0 1.181-.394.787-1.181 1.575-2.362 2.362-5.906.787-3.15 1.181-6.299 1.181-6.299m-7.087 0c1.181 0 2.362.394 3.543.394l3.543 1.181"/><path id="W" d="M16.532 23.633c-.394 1.181-1.575 1.575-2.362 1.181-.787 0-1.575-1.181-1.181-1.969s1.181-1.575 1.969-1.181c1.181 0 1.575 1.181 1.575 1.969zm-3.543-2.756c.394 0 .394 0 .787.394 0 0-.394 0-.394.394h-.394c0-.394-.787-.787-.787-.787h.787zm-1.181 1.969h.787v1.181c.394.394.394.394 0 .394 0 0-.394 0-.394-.394h-.394v-1.181z"/><path id="X" d="M17.319 22.058h-.787v.394h1.575c-.394-.394-.788-.394-.788-.394zm0 2.362c0-.394-.394-.394-.394-.394-.394 0-.394.394-.394.394-.394 0-.394.394-.787.787h1.181s.394-.394.394-.787z"/></defs></svg>