<svg xmlns="http://www.w3.org/2000/svg" xmlns:xlink="http://www.w3.org/1999/xlink" viewBox="0 0 34 48" fill="#fff" fill-rule="evenodd" stroke="#000" stroke-linecap="round" stroke-linejoin="round"><use xlink:href="#A" x=".5" y=".5"/><symbol id="A" overflow="visible"><path d="M24.43 7.881H0v38.615h24.43z" stroke="none" fill="#0f73a0"/><g stroke="#fff" stroke-linejoin="miter" stroke-width=".788"><path d="M24.43 7.881H0v38.614h24.43" stroke-linecap="square" fill="none"/><g fill="#0f73a0"><path d="M32.31 0H7.881L0 7.881h24.43L32.31 0z"/><path d="M24.43 7.881v38.615l7.88-7.88V0l-7.88 7.881z"/></g></g><path d="M24.43 7.881L32.31 0z" stroke="none" fill="#0f73a0"/><path d="M24.429 7.881L32.31 0M.394 22.854h23.642M.394 40.585h23.642M5.91 13.791h7.092m2.364 2.364v-4.728H3.152v4.728h12.215z" stroke="#fff" stroke-linejoin="miter" stroke-linecap="square" fill="none" stroke-width=".788"/><g stroke="none"><path d="M8.275 39.797l-.394-18.125 13.003-4.728v20.095h-.788l-.788-11.427-10.245 3.546v10.245l-.788.394z"/><path d="M20.878 37.439c0 1.182-1.182 2.364-3.152 2.758-1.97 0-3.546-1.182-3.94-2.364 0-1.182 1.576-2.364 3.546-2.364s3.546.788 3.546 1.97zm-11.82 2.758c0 1.182-1.576 2.364-3.546 2.364-1.97.394-3.546-.788-3.546-1.97-.394-1.182 1.182-2.364 3.152-2.364s3.546.788 3.94 1.97z"/><path d="M19.308 23.641L9.063 27.187v-1.97l10.245-3.546v1.97z" fill="gray"/></g></symbol></svg>