<svg xmlns="http://www.w3.org/2000/svg" xmlns:xlink="http://www.w3.org/1999/xlink" viewBox="0 0 43 58" fill="#fff" fill-rule="evenodd" stroke="#000" stroke-linecap="round" stroke-linejoin="round"><style><![CDATA[.B{stroke:#fff}.C{stroke-linejoin:miter}.D{stroke-width:.787}.E{stroke:none}.F{fill:none}.G{stroke-linecap:square}.H{fill:#0f6998}.I{fill:#126a98}]]></style><use xlink:href="#A" x=".5" y=".5"/><symbol id="A" overflow="visible"><path d="M34.23 56.263V21.64H0v34.623h34.23z" class="B C D I"/><path d="M34.23 21.64l7.082-7.082z" class="E H"/><path d="M34.23 21.64l7.082-7.082" class="B C D F G"/><path d="M20.853 21.64v34.623z" class="E H"/><g class="B C D"><path d="M20.853 21.64v34.623" class="F G"/><g class="I"><path d="M34.23 41.705V7.082H0v34.623h34.23z"/><path d="M41.312 0v48.788L34.23 55.87V7.082L41.312 0z"/><path d="M34.23 7.082H.393L8.655 0h32.656L34.23 7.082z"/></g></g><path d="M34.23 7.082L41.312 0z" class="E I"/><path d="M34.23 7.082L41.312 0" class="B C D F G"/><path d="M34.23 42.099zm-34.23 0zm4.721-26.361h27.541z" class="E H"/><path d="M4.721 15.738h27.541" class="B C D F G"/><path d="M3.541 24.394h27.541z" class="E H"/><path d="M3.541 24.394h27.541" class="B C D F G"/><path d="M2.361 32.263h27.541z" class="E H"/><path d="M2.361 32.263h27.541" class="B C D F G"/><path d="M6.295 36.985l5.508-25.967z" class="E H"/><path d="M6.295 36.985l5.508-25.967" class="B C D F G"/><path d="M23.607 36.985l5.902-25.967z" class="E H"/><path d="M23.607 36.985l5.902-25.967" class="B C D F G"/><path d="M14.951 36.591l5.508-25.967z" class="E H"/><path d="M14.951 36.591l5.508-25.967" class="B C D F G"/><g class="E"><use xlink:href="#C"/><use xlink:href="#D"/><path d="M30.684 16.138c0 .787-1.18 1.18-2.361 1.18s-1.967-.393-1.967-1.18.787-1.574 1.967-1.574 2.361.787 2.361 1.574zM10.618 24.4c0 .787-.787 1.18-1.967 1.18s-1.967-.393-1.967-1.18.787-1.574 1.967-1.574 1.967.787 1.967 1.574z"/><use xlink:href="#D" x="-1.967" y="9.049"/><use xlink:href="#C" x="15.738" y="8.262"/><use xlink:href="#C" x="-3.934" y="16.525"/><use xlink:href="#C" x="5.115" y="16.525"/><use xlink:href="#D" x="5.115" y="16.918"/><use xlink:href="#E" class="I"/></g><use xlink:href="#E" class="B C D F"/><use xlink:href="#F" class="E I"/><use xlink:href="#F" class="B C D F"/><path d="M4.722 52.722h8.262v1.967l3.541-2.361-3.541-2.754v1.967H4.722zm11.41-7.082H7.869v-1.574l-3.541 2.361 3.541 2.754v-1.967h8.262z" class="E"/></symbol><defs ><path id="C" d="M12.979 15.744c0 .787-1.18 1.574-2.361 1.574s-1.967-.787-1.967-1.574.787-1.18 1.967-1.18 2.361.393 2.361 1.18z"/><path id="D" d="M21.635 15.351c0 .787-.787 1.574-1.967 1.574s-2.361-.787-2.361-1.574 1.18-1.18 2.361-1.18 1.967.393 1.967 1.18z"/><path id="E" d="M31.864 45.253c0 .787-1.967 1.574-4.328 1.574-1.967 0-3.934-.787-3.934-1.574v7.869c0 .787 1.967 1.18 3.935 1.18 2.361 0 4.328-.393 4.328-1.18z"/><path id="F" d="M27.536 46.827c2.361 0 4.328-.787 4.328-1.574s-1.967-1.574-4.328-1.574c-1.967 0-3.934.787-3.934 1.574s1.967 1.574 3.934 1.574z"/></defs></svg>