<svg xmlns="http://www.w3.org/2000/svg" xmlns:xlink="http://www.w3.org/1999/xlink" viewBox="0 0 49 66" fill="#fff" fill-rule="evenodd" stroke="#000" stroke-linecap="round" stroke-linejoin="round"><style><![CDATA[.B{stroke:#fff}.C{stroke-linejoin:miter}.D{stroke:none}.E{stroke-width:.788}.F{stroke-linecap:square}.G{fill:none}.H{fill:#000}.I{fill:#046897}]]></style><use xlink:href="#A" x=".5" y=".5"/><symbol id="A" overflow="visible"><g class="B C E I"><path d="M0 64.977v-42.53h42.137v42.53H0z"/><path d="M47.65 59.464V17.327l-5.513 5.119v42.53l5.513-5.513zM7.876 0L0 5.513h42.137L47.65 0H7.876z"/><path d="M0 22.446V5.513h42.137v16.933H0z"/><path d="M47.65 17.327V0l-5.513 5.513v16.933l5.513-5.119z"/></g><path d="M42.137 22.447H0z" class="D I"/><path d="M42.137 22.447H0" class="B C E F G"/><path d="M42.137 22.446l5.513-5.119z" class="D I"/><path d="M42.137 22.446l5.513-5.119" class="B C E F G"/><g class="D"><path d="M13.783 11.42V7.876H7.088v3.544h6.695z"/><path d="M10.239 9.451z" class="H"/><path d="M29.141 11.42V7.876h7.088v3.544h-7.088z"/><path d="M32.685 9.451z" class="H"/><path d="M13.783 20.084V16.54H7.088v3.544h6.695z"/><path d="M10.239 18.509z" class="H"/><path d="M29.141 20.084V16.54h7.088v3.544h-7.088z"/><path d="M32.685 18.508zM11.42 9.451h21.265z" class="H"/></g><path d="M11.42 9.451h21.265" class="B C E F G"/><path d="M11.42 18.509h21.265z" class="D H"/><path d="M11.42 18.509h21.265" class="B C E F G"/><path d="M10.239 18.508l22.447-9.057z" class="D H"/><path d="M10.239 18.508l22.447-9.057" class="B C E F G"/><path d="M10.239 9.451l22.447 9.057z" class="D H"/><path d="M10.239 9.451l22.447 9.057" class="B C E F G"/><g class="D"><path d="M23.234 34.261h3.15v.394l.788-.788-.788-.788v.394h-3.15v.788zm-.394-1.575l1.969-1.969.394.394.394-1.575-1.181.394.394.394-2.363 1.969.394.394zm-1.181-.788v-2.757h.394l-.788-1.181-.788 1.181h.788v2.757h.394zm-1.575.394l-1.969-1.969.394-.394-1.575-.394.394 1.575.394-.394 1.969 1.969.394-.394zm-.788 1.181h-2.757v-.394l-1.181.788 1.181.788v-.394h2.757v-.788zm3.15 1.969l2.363 1.969-.394.394 1.181.394-.394-1.181-.394.394-1.969-2.363-.394.394z"/><path d="M18.898 35.842c.788 1.181 2.757 1.575 4.332.788 1.181-1.181 1.575-3.15.394-4.332-.788-1.575-2.757-1.969-3.938-.788-1.575.788-1.969 2.757-.788 4.332z"/><path d="M19.69 35.442l-1.969 1.969-.394-.394-.394 1.575 1.575-.394-.394-.394 1.969-1.969-.394-.394z"/></g><path d="M21.265 35.442v19.296" stroke-width="1.181" class="B C F G"/><g class="D"><path d="M20.084 56.313h-1.969v-.394l-.788.394.788.394v-.394h1.969zm.394.788l-1.575 1.575-.394-.394v1.181l.788-.394-.394-.394 1.575-1.181v-.394zm.788.788v1.969h-.394l.394.788.788-.788h-.394v-1.969h-.394zm1.181-.394l1.181 1.181v.394l.788.394-.394-1.181v.394l-1.575-1.575v.394zm.394-1.181h1.969v.394l.788-.394-.788-.394v.394H22.84zm-2.363-1.181l-1.575-1.575h.394l-.788-.394v1.181l.394-.394 1.575 1.575v-.394z"/><path d="M23.23 55.138c-.788-1.181-1.969-1.181-3.15-.788-.788.788-1.181 2.363-.394 3.15s1.969 1.181 2.757.394c1.181-.394 1.181-1.969.788-2.757z"/><path d="M22.447 55.132l1.575-1.181.394-.788h-.788v.394l-1.181 1.575z"/></g></symbol></svg>