<svg xmlns="http://www.w3.org/2000/svg" xmlns:xlink="http://www.w3.org/1999/xlink" viewBox="0 0 77 49" fill="#fff" fill-rule="evenodd" stroke="#000" stroke-linecap="round" stroke-linejoin="round"><style><![CDATA[.B{stroke:#fff}.C{stroke-linejoin:miter}.D{stroke-width:.787}.E{stroke:none}.F{fill:#0e6f9c}]]></style><use xlink:href="#A" x=".5" y=".5"/><symbol id="A" overflow="visible"><path d="M0 18.098L22.425 0h52.719L56.26 18.098H0z" class="B C D F"/><path d="M41.703 6.295l-.393.394H25.573l-1.18 1.574-4.328-1.574 8.262-2.754-1.967 2.361h15.343z" class="E"/><path d="M56.26 47.998l18.884-18.884V0L56.26 18.098v29.9z" class="B C D F"/><path d="M59.407 3.541l1.574-1.574 4.328 1.574-8.655 2.754 2.361-2.361H43.277l.787-.393h15.344zM33.441 14.95l-.393.393H17.311l-1.18 1.574-4.328-1.574 8.262-2.754-1.967 2.361h15.343zm17.704-2.754l1.574-1.574 4.328 1.574-8.655 2.754 2.361-2.361H35.015l.787-.393h15.343z" class="E"/><path d="M56.26 47.998v-29.9H0v29.9h56.26z" class="B C D F"/><path d="M17.311 31.081v-4.328H9.049v4.328h8.262zm19.671 0v-4.328h8.262v4.328h-8.262zM17.311 42.097v-4.328H9.049v4.328h8.262zm19.671 0v-4.328h8.262v4.328h-8.262z" class="E"/><g stroke-linecap="square" fill="none" class="B C D"><path d="M14.557 28.72h26.359M14.557 39.736h26.359"/><path d="M13.376 39.736l27.54-11.016"/><path d="M13.376 28.72l27.54 11.016"/></g><g class="E"><path d="M65.308 22.032l1.967-10.229 1.967-2.361V7.082h3.541l-3.147 6.688v-3.147l-1.574 1.967-1.574 9.836-.787 2.361-2.361 11.409-1.967 2.361v2.361l-3.541.787 3.147-7.475v2.754l1.18-1.574 2.754-11.016.393-2.361z"/><path d="M60.587 20.065l1.574-1.18 2.361 4.721 1.18 1.574 2.361 4.721 2.361-1.574v2.754l3.147-6.295-3.147.394v1.967l-1.967 1.574-2.754-5.114-.787-1.574-2.754-4.721-1.574 1.574v-3.147l-3.147 7.082 3.147-.787v-1.967z"/></g></symbol></svg>