<svg xmlns="http://www.w3.org/2000/svg" xmlns:xlink="http://www.w3.org/1999/xlink" viewBox="0 0 54 41" fill="#fff" fill-rule="evenodd" stroke="#000" stroke-linecap="round" stroke-linejoin="round"><style><![CDATA[.B{stroke:#fff}.C{stroke-linejoin:miter}.D{stroke-width:.787}.E{stroke:none}.F{stroke-linecap:square}.G{fill:none}.H{fill:#0b719f}]]></style><use xlink:href="#A" x=".5" y=".5"/><symbol id="A" overflow="visible"><g fill="#0f73a0" class="B C D"><path d="M7.475 39.343V7.475H0v31.868h7.475z"/><path d="M14.95 39.343V7.475H7.475v31.868h7.475z"/><path d="M22.426 39.343V7.475h-7.475v31.868h7.475z"/><path d="M29.508 39.343V7.475h-7.082v31.868h7.082z"/><path d="M36.983 39.343V7.475h-7.475v31.868h7.475z"/><path d="M44.458 39.343V7.475h-7.475v31.868h7.475z"/><path d="M44.458 39.344l7.869-7.869V0H7.475L0 7.475h44.458v31.868z"/></g><path d="M44.458 7.475L52.327 0z" fill="#0f73a0" class="E"/><path d="M44.458 7.475L52.327 0" class="B C D F G"/><path d="M44.458 23.213H0z" class="E H"/><path d="M44.458 23.213H0" class="B C D F G"/><path d="M1.18 25.967h4.721z" class="E H"/><path d="M1.18 25.967h4.721" class="B C D F G"/><path d="M1.18 27.541h4.721z" class="E H"/><path d="M1.18 27.541h4.721" class="B C D F G"/><path d="M1.18 29.508h4.721z" class="E H"/><path d="M1.18 29.508h4.721" class="B C D F G"/><path d="M1.18 31.475h4.721z" class="E H"/><path d="M1.18 31.475h4.721" class="B C D F G"/><path d="M1.18 33.442h4.721z" class="E H"/><path d="M1.18 33.442h4.721" class="B C D F G"/><path d="M8.656 25.967h4.721z" class="E H"/><path d="M8.656 25.967h4.721" class="B C D F G"/><path d="M8.656 27.541h4.721z" class="E H"/><path d="M8.656 27.541h4.721" class="B C D F G"/><path d="M8.656 29.508h4.721z" class="E H"/><path d="M8.656 29.508h4.721" class="B C D F G"/><path d="M8.656 31.475h4.721z" class="E H"/><path d="M8.656 31.475h4.721" class="B C D F G"/><path d="M8.656 33.442h4.721z" class="E H"/><path d="M8.656 33.442h4.721" class="B C D F G"/></symbol></svg>