<svg xmlns="http://www.w3.org/2000/svg" xmlns:xlink="http://www.w3.org/1999/xlink" viewBox="0 0 66 51" fill="#fff" fill-rule="evenodd" stroke="#000" stroke-linecap="round" stroke-linejoin="round"><style><![CDATA[.B{stroke-linejoin:miter}.C{stroke-width:.788}.D{stroke:none}.E{fill:none}.F{stroke:#fff}.G{stroke-linecap:square}]]></style><use xlink:href="#A" x=".5" y=".5"/><symbol id="A" overflow="visible"><g fill="#046897" class="B C F"><path d="M59.482 48.058H16.939V5.909h42.543v42.149zM22.06.394h42.15l-5.121 5.121H16.545L22.06.394z"/><path d="M64.603 41.362l-5.515 7.878V5.515L64.603 0v41.362zm-47.664 6.697H0V5.909h16.939v42.15zM5.515.394h17.333l-5.515 5.121H.394L5.515.394z"/></g><path d="M16.939 5.909v42.15z" fill="#000" class="D"/><path d="M16.939 5.909v42.149" class="B C E F G"/><path d="M17.333 5.515L22.454.394z" fill="#b2b2b2" class="D"/><path d="M17.333 5.515L22.454.394" class="B C E F G"/><g class="D"><path d="M7.874 17.339v.394c-1.182 1.576-1.97 2.364-2.758 2.364s-1.576-.394-2.363-1.97h.394c.788 0 1.97-.394 3.151-1.97v-.394l-.394-.394c-.788-.788-1.576-1.97-1.576-2.757 0-.394.788-1.182 1.97-1.97 0 1.182.394 1.97 1.182 3.151l.394.394.394-.394c1.182-1.576 1.97-2.363 2.757-2.363s1.576.788 1.97 1.97h-.394c-.394 0-.788 0-1.182.394-.788.394-1.182 1.182-1.576 1.576l-.394.394.394.394c1.182.788 1.97 1.576 3.151 1.576-.394 1.182-1.182 1.97-1.97 1.97-.394 0-1.576-.788-2.757-1.576zm5.121 16.15c-1.182 1.182-2.363 2.364-3.545 4.333-1.182 1.576-1.97 3.151-2.757 4.333l-.788.788c-.394.394-1.182.788-1.182.788 0-.394-.394-.788-.788-1.576v-.788c-.394-.788-.788-1.576-1.182-1.97s-.788-.788-1.182-.788c.788-.788 1.182-1.182 1.97-1.182.394 0 1.182.788 1.576 1.97l.394.788c1.182-1.97 3.151-4.333 5.515-6.697l.788-.788 1.97-1.576c.394-.394.788-.394 1.576-.788v.394c0 .394-.394.788-1.182 1.182z"/><path d="M16.939 25.999H0z" fill="#046897"/></g><g class="C E F"><path d="M16.939 25.999H0" class="B G"/><path d="M59.089 36.241H16.939m42.15 5.909H16.939m46.877-7.091l-4.333 7.091m-29.938 0v5.515m16.151-5.515v5.515m-7.878-11.03v5.121m-16.151-5.121v5.121m32.302-5.121v5.121"/></g><path d="M59.088 36.241l5.121-7.484z" fill="#000" class="D"/><g class="C E F"><path d="M59.088 36.241l5.121-7.484" class="B G"/><path d="M61.452 39.392v6.303m1.182-14.181v6.303"/></g><g class="D"><path d="M31.514 43.331z" fill="#000"/><use xlink:href="#C"/></g><g class="B C"><use xlink:href="#C" class="E"/><path d="M27.574 31.514l2.758 2.757 7.485-7.878-2.758-2.363-7.485 7.485z"/></g><use xlink:href="#D" class="D"/><use xlink:href="#D" class="B C E"/><use xlink:href="#E" class="D"/><use xlink:href="#E" class="B C E"/><path d="M28.756 33.089z" fill="#000" class="D"/></symbol><defs ><path id="C" d="M28.752 34.277c.788 0 1.576-.394 1.576-1.182s-.788-1.576-1.576-1.576-1.182.788-1.182 1.576.394 1.182 1.182 1.182z"/><path id="D" d="M34.266 18.127c0 5.909 4.333 10.242 10.242 10.242 5.515 0 9.848-4.333 9.848-10.242 0-5.515-4.333-10.242-9.848-10.242-5.909 0-10.242 4.727-10.242 10.242zm1.182 0c0-4.727 3.939-8.666 9.06-8.666 4.727 0 8.666 3.939 8.666 8.666 0 5.121-3.939 8.666-8.666 8.666-5.121 0-9.06-3.545-9.06-8.666z"/><path id="E" d="M33.085 18.915c0 5.515 4.333 10.242 9.848 10.242 5.909 0 10.242-4.727 10.242-10.242S48.842 8.673 42.933 8.673c-5.515 0-9.848 4.727-9.848 10.242zm1.182 0c0-4.727 3.939-8.666 8.666-8.666 5.121 0 9.06 3.939 9.06 8.666s-3.939 8.666-9.06 8.666c-4.727 0-8.666-3.939-8.666-8.666z"/></defs></svg>