<svg xmlns="http://www.w3.org/2000/svg" xmlns:xlink="http://www.w3.org/1999/xlink" viewBox="0 0 60 41" fill="#fff" fill-rule="evenodd" stroke="#000" stroke-linecap="round" stroke-linejoin="round"><use xlink:href="#A" x=".5" y=".5"/><symbol id="A" overflow="visible"><use xlink:href="#C" stroke="none" fill="#026c9b"/><use xlink:href="#C" stroke="#fff" stroke-linejoin="miter" fill="none" stroke-width=".788"/><use xlink:href="#D" stroke="none" fill="#026c9b"/><use xlink:href="#D" stroke="#fff" stroke-linejoin="miter" fill="none" stroke-width=".788"/><g stroke="none"><path d="M22.448 7.081l2.363 3.544-9.056 1.969 1.969-1.575L3.942 8.656 7.486 5.9l13.388 2.362 1.575-1.181zm12.994 8.663L33.473 12.2l8.269-1.969-1.181 1.575 13.388 2.362-3.15 2.363-13.781-2.363-1.575 1.575zM30.717 5.113l9.056-2.362.394 3.544-2.363-.394-4.331 3.938-4.331-.787 4.331-3.544-2.756-.394zM26.78 19.288l-8.662 1.575-.394-4.331 2.756.787 4.725-4.331 4.331.787-5.119 4.725 2.362.788zm-8.662 6.3v1.575l-3.15-1.969 3.15-1.969V24.8h5.512v-1.575l3.15 1.969-3.15 1.969v-1.575h-5.512zm0 10.238V37.4l-3.15-1.969 3.15-1.969v1.575h5.512v-1.575l3.15 1.969-3.15 1.969v-1.575h-5.512zm0-4.725v1.181l-3.15-1.969 3.15-1.575v1.181h3.938v-1.181l3.15 1.575-3.15 1.969v-1.575h-3.937v.394zm25.194 3.549c-.394-.394-.787-1.969-.787-3.937 0-1.575.394-3.544.787-3.544h-3.937c-.787 0-1.181 1.575-1.181 3.544s.394 3.544 1.181 3.544z"/><use xlink:href="#E" fill="#026c9b"/></g><use xlink:href="#E" stroke="#fff" stroke-linejoin="miter" fill="none" stroke-width=".788"/><g stroke="none"><path d="M40.162 30.712c0 3.938-3.15 7.088-7.087 7.088-3.938-.394-7.087-3.544-6.694-7.088 0-3.937 3.15-7.087 6.694-7.087 3.938 0 7.087 3.15 7.087 7.087z"/><path d="M36.619 30.712a3.53 3.53 0 0 1-3.544 3.544c-1.575 0-3.15-1.575-3.15-3.544a3.53 3.53 0 0 1 3.544-3.544c1.575 0 3.15 1.575 3.15 3.544z" fill="#026c9b"/></g></symbol><defs ><path id="C" d="M58.274 11.419c0 6.3-12.994 11.419-29.137 11.419S0 17.719 0 11.419v16.537c0 6.3 12.994 11.419 29.137 11.419s29.137-5.119 29.137-11.419z"/><path id="D" d="M29.137 22.837c16.144 0 29.137-5.119 29.137-11.419S45.281 0 29.137 0 0 5.119 0 11.419s12.994 11.419 29.137 11.419z"/><path id="E" d="M42.525 30.712c0 1.969.394 3.544.788 3.544.788 0 1.181-1.575 1.181-3.15 0-1.969-.394-3.544-1.181-3.544-.394 0-.788 1.575-.788 3.15z"/></defs></svg>