<svg xmlns="http://www.w3.org/2000/svg" xmlns:xlink="http://www.w3.org/1999/xlink" viewBox="0 0 68 49" fill="#fff" fill-rule="evenodd" stroke="#000" stroke-linecap="round" stroke-linejoin="round"><use xlink:href="#A" x=".5" y=".5"/><symbol id="A" overflow="visible"><g stroke="#fff" stroke-linejoin="miter" fill="#026c9b" stroke-width=".787"><path d="M0 47.623h59.824V8.265H0v39.358z"/><path d="M66.909 37.39l-7.085 10.233V8.265L66.909 0v37.39z"/><path d="M10.233 0h56.676l-7.085 8.265H0L10.233 0z"/></g><g stroke="none"><path d="M10.233 19.679v2.361l-5.904-3.149 5.904-3.542v2.362h10.233V15.35l5.904 3.149-5.904 3.542v-2.755H10.233v.394zm0 18.105v2.755l-5.904-3.542 5.904-3.149v2.361h10.233v-2.755l5.904 3.542-5.904 3.149v-2.361H10.233zm0-9.052v2.755l-5.904-3.542 5.904-3.149v2.361h7.085v-2.361l5.904 3.149-5.904 3.542v-2.755h-7.084zm45.65 6.697c-1.181 0-1.968-3.149-1.574-6.691 0-3.542.787-6.297 1.574-6.297h-7.478c-.787 0-1.574 2.755-1.574 6.297s.394 6.297 1.574 6.297z"/><use xlink:href="#C" fill="#026c9b"/></g><use xlink:href="#C" stroke="#fff" stroke-linejoin="miter" fill="none" stroke-width=".787"/><g stroke="none"><path d="M49.98 28.345c0 7.084-5.51 12.595-12.595 12.595s-12.594-5.904-12.594-12.594c0-7.084 5.904-12.594 12.988-12.594 6.691 0 12.594 5.51 12.201 12.595z"/><path d="M43.683 28.738c0 3.149-2.755 5.904-6.297 5.904-3.149 0-5.904-2.755-5.904-6.297 0-3.149 2.755-5.904 6.297-5.904 3.149 0 5.904 2.755 5.904 6.297z" fill="#026c9b"/></g></symbol><defs ><path id="C" d="M54.309 28.738c-.394 3.542.394 6.297 1.574 6.297s1.968-2.755 1.968-6.297c0-3.149-.787-5.904-1.968-5.904-.787 0-1.574 2.755-1.574 5.904z"/></defs></svg>