<svg xmlns="http://www.w3.org/2000/svg" xmlns:xlink="http://www.w3.org/1999/xlink" viewBox="0 0 57 39" fill="#fff" fill-rule="evenodd" stroke="#000" stroke-linecap="round" stroke-linejoin="round"><use xlink:href="#A" x=".5" y=".5"/><symbol id="A" overflow="visible"><g stroke="#fff" stroke-linejoin="miter"><g fill="#0e6f9c" stroke-width=".788"><path d="M0 7.876L9.45 0h46.463l-7.481 7.876H0zM55.913.001l-7.481 7.875v29.925l7.481-10.238V.001z"/><path d="M0 7.876h48.432v29.925H0V7.876z"/></g><path d="M23.62 35.445c7.087 0 12.994-5.513 12.994-12.6s-5.906-12.6-12.994-12.6c-6.694 0-12.6 5.512-12.6 12.6s5.906 12.6 12.6 12.6z" fill="none" stroke-width="1.575"/></g><path d="M3.938 16.144h35.831v-1.575l3.15 2.362-3.15 2.363v-1.575H3.938zm38.588 13.781H6.694V31.5l-3.15-2.363 3.15-2.363v1.575h35.831z" stroke="none"/></symbol></svg>