<svg xmlns="http://www.w3.org/2000/svg" xmlns:xlink="http://www.w3.org/1999/xlink" viewBox="0 0 51 35" fill="#fff" fill-rule="evenodd" stroke="#000" stroke-linecap="round" stroke-linejoin="round"><use xlink:href="#A" x=".5" y=".5"/><symbol id="A" overflow="visible"><use xlink:href="#C" stroke="none" fill="#0e6f9c"/><use xlink:href="#C" stroke="#fff" stroke-linejoin="miter" fill="none" stroke-width=".788"/><use xlink:href="#D" stroke="none" fill="#0e6f9c"/><use xlink:href="#D" stroke="#fff" stroke-linejoin="miter" fill="none" stroke-width=".788"/><g stroke="none"><path d="M24.819 7.477l-3.545-5.12 1.575-.394L19.698.781 18.517 2.75l1.575-.394 3.151 5.514 1.575-.394zm-1.969.788L11.033 5.114l.788-.394H7.488l1.969 1.969.788-.788 11.816 3.151.788-.788zm-.788 1.182L8.67 11.022l-.394-.394-2.757 1.575 3.939.394-.394-.788 13.785-1.575-.788-.788zm.788 1.182l-7.09 5.12-1.182-.394v1.969l3.939-.788-1.182-.394 6.696-5.12-1.182-.394zM26 7.871l5.908-5.12h-1.182l3.545-1.182.394 1.969-1.182-.394-5.908 5.12L26 7.871zm-.788 3.151l3.545 5.908h-1.575l3.151 1.575 1.575-1.969h-1.575l-3.545-5.514h-1.575zm2.363-.394l11.816 2.757-.788.788h4.333l-1.969-1.969-.788.394L28.363 9.84l-.788.788zm.394-.788l13.392-1.969.394.788 2.757-1.182-3.939-.788.394.394-13.392 1.969.394.788z"/><use xlink:href="#E" fill="#0e6f9c"/></g><use xlink:href="#E" stroke="#fff" stroke-linejoin="miter" fill="none" stroke-width=".788"/></symbol><defs ><path id="C" d="M49.233 9.453c0 5.514-11.028 9.847-24.813 9.847C11.028 19.3 0 14.967 0 9.453v14.179c0 5.12 11.028 9.453 24.42 9.453 13.785 0 24.813-4.333 24.813-9.453z"/><path id="D" d="M24.42 19.299c13.785 0 24.813-4.332 24.813-9.847C49.233 4.333 38.205 0 24.42 0 11.028 0 0 4.333 0 9.453c0 5.514 11.028 9.847 24.42 9.847z"/><path id="E" d="M24.814 11.423c2.363 0 4.333-.788 4.333-1.969 0-.788-1.969-1.969-3.939-1.969-2.363 0-4.332.788-4.332 1.969 0 .788 1.969 1.575 3.939 1.969z"/></defs></svg>