<svg xmlns="http://www.w3.org/2000/svg" xmlns:xlink="http://www.w3.org/1999/xlink" viewBox="0 0 45 42" fill="#fff" fill-rule="evenodd" stroke="#000" stroke-linecap="round" stroke-linejoin="round"><style><![CDATA[.B{stroke-linejoin:miter}.C{stroke-width:.393}.D{stroke-linecap:square}]]></style><use xlink:href="#A" x=".5" y=".5"/><symbol id="A" overflow="visible"><g stroke="#fff" fill="#0e6f9c" stroke-width=".787" class="B"><path d="M34.62 40.127V7.08H0v33.047h34.62z"/><path d="M34.62 7.081L43.669 0H12.195L0 7.081h34.62z"/><path d="M43.668 32.653V0l-9.049 7.081v33.047l9.049-7.474z"/></g><use xlink:href="#C" stroke="none"/><g class="B C"><use xlink:href="#C" fill="none"/><path d="M2.359 35.407l2.754 3.147 8.262-8.655-2.754-2.754-8.262 8.262z"/></g><use xlink:href="#D" stroke="none"/><use xlink:href="#D" fill="none" class="B C D"/><use xlink:href="#E" stroke="none"/><g fill="none" class="B"><use xlink:href="#E" class="C D"/><path d="M23.997 25.178v-8.262h-8.655v8.262h8.655z" stroke="#fff" stroke-width="1.967"/></g></symbol><defs ><path id="C" d="M3.535 38.56c.787 0 1.574-.787 1.574-1.574s-.787-1.574-1.574-1.574-1.574.787-1.574 1.574.787 1.574 1.574 1.574z"/><path id="D" d="M9.436 20.857c0 6.294 5.114 11.015 11.015 11.015 6.294 0 11.409-4.721 11.409-11.015A11.42 11.42 0 0 0 20.451 9.448c-5.901 0-11.015 5.114-11.015 11.409m1.574 0c0-5.508 4.327-9.835 9.442-9.835 5.508 0 9.835 4.327 9.835 9.835 0 5.114-4.328 9.442-9.835 9.442-5.114 0-9.442-4.328-9.442-9.442z"/><path id="E" d="M7.862 21.25a11.42 11.42 0 0 0 11.409 11.409A11.42 11.42 0 0 0 30.679 21.25c0-5.901-5.114-11.015-11.409-11.015S7.862 15.349 7.862 21.25m1.574 0c0-5.114 4.327-9.442 9.835-9.442s9.835 4.327 9.835 9.442c0 5.508-4.327 9.835-9.835 9.835s-9.835-4.328-9.835-9.835z"/></defs></svg>