<svg xmlns="http://www.w3.org/2000/svg" xmlns:xlink="http://www.w3.org/1999/xlink" viewBox="0 0 77 38" fill="#fff" fill-rule="evenodd" stroke="#000" stroke-linecap="round" stroke-linejoin="round"><style><![CDATA[.B{stroke:#fff}.C{stroke-linejoin:miter}.D{stroke-width:.787}.E{stroke:none}.F{fill:#046897}]]></style><use xlink:href="#A" x=".5" y=".5"/><symbol id="A" overflow="visible"><path d="M0 18.494L22.822 0h52.334L56.269 18.494H0z" class="B C D F"/><g class="E"><path d="M51.547 9.837l1.574-1.574 4.328 1.967-7.87 2.361 1.967-2.361H37.381l.787-.394h13.378zm-8.263-4.722l-.393.393H28.331l-1.967 1.574-3.541-1.574 8.263-2.361-1.967 1.968h14.165zm-7.87 7.87l-.393.394H20.461l-1.967 1.574-3.935-1.574 8.657-2.361-1.968 1.967h14.166zM59.81 3.148l1.18-1.574 4.328 1.967-7.476 2.361 1.574-2.361H45.251l.787-.394H59.81z" fill="#000"/><path d="M51.546 10.23l1.574-1.574 3.935 1.967-7.87 1.968 1.967-1.968H36.988l.787-.393h13.772zM42.89 5.508l-.787.393H28.331l-1.574 1.574-3.935-1.574 7.87-2.361-1.967 1.967H42.89z"/></g><path d="M56.269 36.201l18.887-18.887V0L56.269 18.494v17.707z" class="B C D F"/><path d="M34.627 13.379l-.393.393H20.462l-1.574 1.574-3.935-1.574 7.87-2.361-1.967 1.967h13.772zM59.81 3.541l1.18-1.18 3.935 1.574-7.87 1.967 1.968-1.967H45.251l.393-.393H59.81z" class="E"/><path d="M58.63 4.328l-1.574 1.574m-6.296 5.115l-1.967 1.574M37.775 9.837l-.787.787m9.05-7.476l-.787.787" fill="none" stroke-width=".394"/><path d="M56.269 36.594v-18.1H0v18.1h56.269z" class="B C D F"/><path d="M20.855 27.544H10.624v-.787l-4.328 1.18 4.328 1.574v-.787h10.231v-1.18zm5.902 3.148v3.541h-2.754l4.328 1.574 3.935-1.574h-2.754v-3.541h-2.754zm0-5.115v-3.541h-2.754l4.328-1.574 3.935 1.574h-2.754v3.541h-2.754zm8.657 3.148h10.624v.787l3.935-1.574-3.935-1.18v.787H35.414v1.18z" class="E"/><g fill="none" class="B C D"><path d="M45.249 34.241c-1.967.787-11.017-1.574-20.461-4.722-9.05-3.148-14.952-6.296-12.985-7.083s11.018 1.18 20.068 4.328c9.444 3.541 15.346 6.689 13.378 7.476z"/><path d="M44.461 22.437c2.361.393-3.541 3.935-12.591 7.083s-18.494 5.115-20.461 4.722c-1.967-.787 3.541-3.935 12.985-7.476 9.05-3.148 18.1-5.115 20.067-4.328z"/></g><path d="M32.657 30.306c3.148-.787 4.328-2.754 1.574-3.935-2.361-1.18-7.083-1.574-10.624-.393-3.541.787-4.328 2.361-1.967 3.541 2.754 1.18 7.476 1.574 11.017.787z" fill="#b5b5b5" class="E"/></symbol></svg>