<svg xmlns="http://www.w3.org/2000/svg" xmlns:xlink="http://www.w3.org/1999/xlink" viewBox="0 0 77 39" fill="#fff" fill-rule="evenodd" stroke="#000" stroke-linecap="round" stroke-linejoin="round"><style><![CDATA[.B{stroke:#fff}.C{stroke-linejoin:miter}.D{stroke-width:.787}.E{stroke:none}.F{fill:#007eba}.G{fill:none}.H{stroke-linecap:square}]]></style><use xlink:href="#A" x=".5" y=".5"/><symbol id="A" overflow="visible"><g class="B C D F"><path d="M56.282 36.603V18.498H0v18.105h56.282z"/><path d="M0 18.498L22.434 0h52.74L56.282 18.498H0zM56.282 37.39L74.78 16.924V.394L56.282 18.498V37.39z"/></g><path d="M16.137 16.137L33.848 1.968z" class="E F"/><path d="M16.137 16.137L33.848 1.968" class="B C D G H"/><path d="M30.306 16.137L47.624 1.968z" class="E F"/><path d="M30.306 16.137L47.624 1.968" class="B C D G H"/><path d="M44.081 16.137L61.792 1.968z" class="E F"/><path d="M44.081 16.137L61.792 1.968" class="B C D G H"/><path d="M23.221 4.723H64.94z" class="E F"/><path d="M23.221 4.723H64.94" class="B C D G H"/><path d="M21.253 27.157H11.02v-1.181l-3.936 1.574 3.936 1.574v-1.181h10.233v-.787zm6.297 3.149v3.542h-2.755l3.936 1.574 3.936-1.574h-2.755v-3.542H27.55zm0-5.116v-3.936h-2.755l3.936-1.181 3.936 1.181h-2.755v3.936H27.55zm8.265 2.755h10.627v1.181l3.936-1.574-3.936-1.574v1.181H35.815v.787z" class="E"/><g class="B C D G"><path d="M45.651 33.46c-1.968.787-11.02-1.181-20.466-4.329-9.052-3.149-14.956-6.691-12.988-7.478 1.968-.394 11.02 1.574 20.466 4.723 9.052 3.149 14.956 6.297 12.988 7.084z"/><path d="M45.257 21.653c1.968.787-3.936 3.936-12.988 7.478-9.052 3.149-18.104 5.117-20.466 4.329-1.968-.394 3.936-3.936 12.988-7.084s18.105-5.116 20.466-4.723z"/></g><g class="E"><path d="M33.056 29.918c3.542-1.181 4.329-2.755 1.968-3.936-2.755-1.181-7.478-1.574-11.02-.787-3.149.787-4.329 2.755-1.574 3.936 2.361 1.181 7.084 1.574 10.627.787z" fill="#b5b5b5"/><use xlink:href="#C"/><path d="M47.619 4.729c-.394 1.181-5.904 1.181-5.904 0s5.904-1.574 5.904 0"/><use xlink:href="#C" x="27.944"/><path d="M18.105 9.052h41.326z" class="F"/></g><path d="M18.105 9.052h41.326" class="B C D G H"/><g class="E"><use xlink:href="#D"/><use xlink:href="#E"/><use xlink:href="#D" x="27.944"/><path d="M12.595 13.775h41.719z" class="F"/></g><path d="M12.595 13.775h41.719" class="B C D G H"/><g class="E"><use xlink:href="#E" x="-20.073" y="4.723"/><path d="M36.205 13.782c-.394 1.181-5.904 1.574-5.904 0 0-1.181 5.904-1.181 5.904 0"/><use xlink:href="#E" x="7.871" y="4.723"/></g></symbol><defs ><path id="C" d="M33.843 4.729c-.394 1.181-6.297 1.181-6.297 0s5.904-1.574 6.297 0"/><path id="D" d="M28.333 9.059c-.393 1.181-5.904 1.574-5.904 0 0-1.181 5.904-1.181 5.904 0"/><path id="E" d="M42.502 9.059c-.394 1.181-6.297 1.574-6.297 0 0-1.181 5.904-1.181 6.297 0"/></defs></svg>