<svg xmlns="http://www.w3.org/2000/svg" xmlns:xlink="http://www.w3.org/1999/xlink" viewBox="0 0 68 50" fill="#fff" fill-rule="evenodd" stroke="#000" stroke-linecap="round" stroke-linejoin="round"><use xlink:href="#A" x=".5" y=".5"/><symbol id="A" overflow="visible"><g stroke="#fff" stroke-linejoin="miter" fill="#007eba" stroke-width=".787"><path d="M0 48.017h59.824V8.265H0v39.752z"/><path d="M66.909 37.784l-7.085 10.233V8.265L66.909 0v37.784z"/><path d="M10.233 0h56.676l-7.085 8.265H0L10.233 0z"/></g><g stroke="none"><path d="M28.732 40.145v-5.116h1.574v5.116h2.755l-3.542 5.904-3.149-5.904h2.361zm-18.498-1.181l3.936-7.478-1.574-.787-3.936 7.085-2.755-1.574v8.265l6.691-3.936-2.361-1.574zm39.358 0l-4.329-7.478 1.968-.787 3.936 7.085 2.755-1.574v8.265l-7.085-3.936 2.755-1.574zm-10.233.787l-1.574-5.51 1.574-.394 1.574 5.51 2.362-.787-1.968 6.297-4.33-4.723 2.362-.393zm-19.285 0l1.574-5.51-1.574-.394-1.181 5.51-2.755-.787 1.968 6.297 4.723-4.723-2.755-.393zm-3.542-21.647v8.265h-1.968v-8.265h-2.755l3.936-7.085 3.936 7.085h-3.149zm27.551 0v8.265h-1.968v-8.265h-3.149l3.936-7.085 3.936 7.085h-2.755z"/><use xlink:href="#C" fill="#007eba"/></g><use xlink:href="#C" stroke="#fff" stroke-linejoin="miter" fill="none" stroke-width="1.181"/></symbol><defs ><path id="C" d="M36.992 26.376c0 3.936-3.542 7.084-7.478 7.084s-7.084-3.149-7.084-7.084c0-4.329 3.149-7.478 7.084-7.478s7.478 3.149 7.478 7.478z"/></defs></svg>