<svg xmlns="http://www.w3.org/2000/svg" xmlns:xlink="http://www.w3.org/1999/xlink" viewBox="0 0 40 53" fill="#fff" fill-rule="evenodd" stroke="#000" stroke-linecap="round" stroke-linejoin="round"><style><![CDATA[.B{stroke:#fff}.C{stroke-width:.787}.D{stroke-linejoin:miter}.E{stroke:none}.F{stroke-linecap:square}]]></style><use xlink:href="#A" x=".5" y=".5"/><symbol id="A" overflow="visible"><g class="B C"><path d="M38.163 14.557l-6.689 6.295H0l8.262-6.295h29.901z" fill="#000"/><g fill="#007eba" class="D"><path d="M31.475 51.54V20.852H0V51.54h31.475z"/><path d="M37.377 46.033V14.951l-5.901 5.901v30.688l5.901-5.508z"/></g></g><path d="M11.409 35.409H4.721v-1.967l-2.754 2.754 2.754 2.754v-1.967h6.688v-1.574zm3.541 5.508v6.688h-1.574l2.361 2.361 2.754-2.361h-1.574v-6.688H14.95zm0-9.049V25.18h-1.574l2.361-2.754 2.754 2.754h-1.574v6.688H14.95zm5.508 5.115h6.688v1.967l2.754-2.754-2.754-2.754v1.967h-6.688v1.574z" class="E"/><g fill="none" class="B C D"><path d="M26.749 47.218c-1.18 1.18-7.082-2.361-12.983-8.262S3.93 27.153 5.503 25.973c1.18-1.574 7.082 1.967 12.983 7.869s9.442 11.803 8.262 13.377z"/><path d="M26.356 25.579c1.574 1.18-2.361 7.082-8.262 12.983S6.684 48.399 5.11 47.218c-1.18-1.574 2.361-7.082 8.262-12.983s11.803-9.836 12.983-8.656z"/></g><path d="M18.88 40.137c1.967-1.574 2.754-4.721 1.18-6.688-1.574-2.361-4.721-2.754-7.082-1.574-1.967 1.574-2.754 4.721-1.18 7.082s4.721 2.754 7.082 1.18z" fill="#b5b5b5" class="E"/><g fill="#007eba" class="B C D"><path d="M38.163 0l-6.689 5.902H0L8.262 0h29.901z"/><path d="M31.475 20.853V5.902H0v14.951h31.475z"/><path d="M37.377 14.95V.393l-5.901 5.508v14.951l5.901-5.901z"/></g><g class="E"><path d="M9.05 11.41V8.262H3.148v3.148H9.05zm14.164 0V8.262h5.901v3.148h-5.901zM9.05 19.672v-3.541H3.148v3.541H9.05zm14.164 0v-3.541h5.901v3.541h-5.901z"/><path d="M7.082 9.836h18.885z" fill="#000"/></g><path d="M7.082 9.836h18.885" fill="none" class="B C D F"/><path d="M7.082 18.098h18.885z" fill="#000" class="E"/><path d="M7.082 18.098h18.885" fill="none" class="B C D F"/><path d="M5.902 18.098l20.065-8.262z" fill="#000" class="E"/><path d="M5.902 18.098l20.065-8.262" fill="none" class="B C D F"/><path d="M5.902 9.836l20.065 8.262z" fill="#000" class="E"/><path d="M5.902 9.836l20.065 8.262" fill="none" class="B C D F"/></symbol></svg>