<svg xmlns="http://www.w3.org/2000/svg" xmlns:xlink="http://www.w3.org/1999/xlink" viewBox="0 0 56 47" fill="#fff" fill-rule="evenodd" stroke="#000" stroke-linecap="round" stroke-linejoin="round"><use xlink:href="#A" x=".5" y=".5"/><symbol id="A" overflow="visible"><use xlink:href="#C" stroke="none" fill="#0b719f"/><use xlink:href="#C" stroke="#fff" stroke-linejoin="miter" fill="none" stroke-width=".787"/><g stroke="none" fill="#0f73a0"><path d="M35.435 35.434h5.512l3.543.787h5.512l1.575-.787 1.575-3.15-.787-2.362-4.725-4.331-3.15-3.937-3.543-3.543-2.362-3.15-2.362-3.937-1.969-2.756-2.362-3.937-.787-3.15L27.954 0h-2.362l-2.756 1.181-.787 2.362-1.575 3.15-2.362 3.15-1.575 2.756-4.331 6.299-3.15 3.543-7.481 7.481-.787 1.575v.787l1.575 3.15h1.575l1.575.787h2.756l3.15-.787h24.017z"/><use xlink:href="#D"/></g><use xlink:href="#D" stroke="#fff" stroke-linejoin="miter" fill="none" stroke-width=".787"/><path d="M27.954 5.118h.787V0h-.787v5.118zm-1.575 0h.788V0h-.788v5.118zm-1.575 0h.787V0h-.787v5.118zM1.575 35.434l.394.787 4.331-3.15-.394-.394-4.331 2.756zm-.787-1.181l.394.787 4.331-3.15-.394-.394-4.331 2.756zM0 33.072l.394.787 4.331-3.15-.394-.787L0 33.072zm52.364 2.362l-.394.787-4.331-3.15.394-.394 4.331 2.756zm1.181-1.181l-.787.787-3.937-3.15.394-.394 4.331 2.756zm.788-1.181l-.394.787-4.331-3.15.394-.787 4.331 3.15z" stroke="none"/><path d="M24.804 37.403h-2.362v-1.181h2.362v1.181zm3.15 0h-2.362v-1.181h2.362v1.181zm2.756 0h-2.362v-1.181h2.362v1.181zm-5.906 2.362h-2.362v-1.181h2.362v1.181zm3.15 0h-2.362v-1.181h2.362v1.181zm2.756 0h-2.362v-1.181h2.362v1.181zm-5.906 1.969h-2.362v-1.181h2.362v1.181zm3.15 0h-2.362v-1.181h2.362v1.181zm2.756 0h-2.362v-1.181h2.362v1.181z" stroke="#fff" stroke-linejoin="miter" fill="#000" stroke-width=".394"/></symbol><defs ><path id="C" d="M40.154 35.834c0-6.299-5.906-10.63-13.78-10.63-6.693 0-12.599 4.331-12.599 10.63 0 5.118 5.906 9.843 12.599 9.843 7.874 0 13.78-4.725 13.78-9.843z"/><path id="D" d="M40.941 22.448c0-5.906-6.693-10.63-14.567-10.63-7.48 0-13.386 4.725-13.386 10.63 0 6.299 5.906 10.63 13.386 10.63 7.874 0 14.567-4.331 14.567-10.63z"/></defs></svg>