<svg xmlns="http://www.w3.org/2000/svg" xmlns:xlink="http://www.w3.org/1999/xlink" viewBox="0 0 60 55" fill="#fff" fill-rule="evenodd" stroke="#000" stroke-linecap="round" stroke-linejoin="round"><style><![CDATA[.B{stroke-width:.787}.C{stroke:#fff}.D{stroke-linejoin:miter}.E{fill:#0c6d9c}.F{fill:#0e6f9c}.G{stroke-linecap:square}]]></style><use xlink:href="#A" x=".5" y=".5"/><symbol id="A" overflow="visible"><g class="C D"><g class="B F"><path d="M58.232 0l-9.836 9.05H0L11.804 0h46.428z"/><path d="M48.395 53.904V9.05H0v44.854h48.395z"/><path d="M57.052 44.854V0l-9.05 9.05v44.854l9.05-9.05zm-11.41-32.263H2.361v37.772h43.28V12.591z"/></g><path d="M20.067 29.509L4.722 34.624" fill="none" class="B G"/><path d="M27.149 25.575l18.493-6.689v3.935l-18.492 2.754z" class="B E"/></g><path d="M27.149 25.575l18.493-2.361v3.935l-18.492-1.574z" stroke="none" class="E"/><path d="M27.149 25.575l18.493-2.361v3.935l-18.492-1.574" fill="none" class="B C D G"/><path d="M27.149 25.575l18.493 1.574v4.328l-18.492-5.902z" stroke="none" class="E"/><path d="M27.149 25.575l18.492 1.574v4.328l-18.492-5.902" fill="none" class="B C D G"/><g stroke="none"><path d="M39.345 46.822H9.836l14.951-29.116 14.558 29.116z"/><path d="M22.821 34.624l-3.148-2.754.787-.393-1.967-.393.393 1.574.393-.394 3.148 2.754.393-.393zm-1.18 1.967h-3.935v-.787l-1.574 1.18 1.574.787v-.393h3.935v-.787zm.787 1.967l-3.148 3.148-.393-.787-.393 1.967 1.967-.393-.787-.393 3.148-3.148-.393-.394zm1.574 1.18v3.935h-.393l.787 1.574 1.18-1.574h-.787v-3.935h-.787zm0-5.508v-3.935h-.393l.787-1.574 1.18 1.574h-.787v3.935h-.787zm2.361 4.721l2.754 3.148-.394.393 1.574.393-.393-1.967-.393.787-2.754-3.148-.393.394z" class="F"/><path d="M27.149 37.379h4.328v.394l1.574-.787-1.574-1.18v.787h-4.328v.787z" class="E"/><g class="F"><path d="M26.755 35.018l2.754-2.754.393.393.393-1.574-1.574.393.393.393-2.754 2.754.393.394z"/><use xlink:href="#C"/></g></g><use xlink:href="#C" fill="none" class="B C D"/></symbol><defs ><path id="C" d="M27.144 40.532c1.574-1.574 2.361-4.328.787-5.902-1.18-1.967-3.935-2.754-5.902-1.18-1.967 1.18-2.361 3.935-1.18 5.902 1.574 1.967 4.328 2.361 6.295 1.18z"/></defs></svg>