<svg xmlns="http://www.w3.org/2000/svg" xmlns:xlink="http://www.w3.org/1999/xlink" viewBox="0 0 59 59" fill="#fff" fill-rule="evenodd" stroke="#000" stroke-linecap="round" stroke-linejoin="round"><use xlink:href="#A" x=".5" y=".5"/><symbol id="A" overflow="visible"><use xlink:href="#C" stroke="none" fill="#0e6f9c"/><use xlink:href="#C" stroke="#fff" stroke-linejoin="miter" fill="none" stroke-width=".788"/><use xlink:href="#D" stroke="none" fill="#0e6f9c"/><use xlink:href="#D" stroke="#fff" stroke-linejoin="miter" fill="none" stroke-width=".788"/><path d="M21.673 4.721l11.819-1.182-2.364 3.546-2.758-.394-17.728 6.697-3.152-1.182 17.334-6.303-3.152-1.182zm13.789 3.94l11.425-1.182-1.97 3.94-3.152-.788-17.334 6.697-3.152-.788 16.94-6.697-2.758-1.182zM16.945 53.572v-7.485l-4.727 3.546 4.727 3.94zm21.668-29.153v7.485l4.728-3.546-4.728-3.94zm-21.668 7.879v-7.485l-4.727 3.546 4.727 3.94z" stroke="none"/><g stroke="#fff" stroke-linejoin="miter" fill="none" stroke-linecap="square" stroke-width="2.364"><path d="M41.764 49.632h-7.879L23.248 28.358h-8.273"/><path d="M15.369 49.632h7.485l10.243-21.274h8.273"/></g><path d="M38.612 45.692v7.879l4.727-3.94-4.727-3.94z" stroke="none"/></symbol><defs ><path id="C" d="M57.123 11.031c0 6.303-13 11.031-28.759 11.031S0 17.334 0 11.031v35.456c0 6.303 12.607 11.031 28.365 11.031s28.759-4.727 28.759-11.031z"/><path id="D" d="M28.365 22.455c15.758 0 28.759-5.121 28.759-11.425C57.123 5.121 44.123 0 28.365 0S0 5.121 0 11.031c0 6.303 12.607 11.425 28.365 11.425z"/></defs></svg>