<svg xmlns="http://www.w3.org/2000/svg" xmlns:xlink="http://www.w3.org/1999/xlink" viewBox="0 0 56 49" fill="#fff" fill-rule="evenodd" stroke="#000" stroke-linecap="round" stroke-linejoin="round"><style><![CDATA[.B{stroke:none}.C{stroke-linecap:square}.D{fill:none}.E{stroke:#fff}.F{stroke-linejoin:miter}.G{stroke-width:1.575}]]></style><use xlink:href="#A" x=".5" y=".5"/><symbol id="A" overflow="visible"><path d="M54.335 10.237v26.774L41.342 47.641H13.781L0 37.011V10.237z" fill="#0e6f9c" class="B"/><g stroke-width=".788" class="E F"><path d="M54.335 10.237v26.774L41.342 47.641H13.781L0 37.011V10.237" class="C D"/><path d="M40.948 0H14.174L0 10.237l13.781 10.631h27.561l12.993-10.631L40.948 0z" fill="#0e6f9c"/><g class="C D"><path d="M13.387 47.247v-26.38m27.955 26.38v-26.38M27.561 2.756v15.356"/><path d="M42.129 10.237H14.174"/><path d="M14.174 3.544h6.693l14.568 14.568h5.906"/><path d="M41.341 3.544h-5.906L20.867 18.112h-6.693"/><path d="M27.561 2.756v16.143"/></g></g><path d="M29.53 36.223h-5.119v-4.725h5.119v4.725z" class="B"/><path d="M35.436 33.467h-7.087" class="C D E F G"/><path d="M39.372 33.467l-6.693 2.756 1.575-2.756-1.575-2.756 6.693 2.756z" class="B"/><path d="M18.899 33.467h5.906" class="C D E F G"/><path d="M21.655 30.711l-1.575 2.756 1.575 2.756-6.693-2.756 6.693-2.756z" class="B"/><path d="M27.167 25.986v7.087" class="C D E F G"/><path d="M27.167 22.443l2.756 6.693-2.756-1.575-2.756 1.575 2.756-6.693z" class="B"/><path d="M27.167 42.129v-6.693" class="C D E F G"/><path d="M24.411 39.373l2.756 1.575 2.362-1.575-2.362 6.693-2.756-6.693z" class="B"/></symbol></svg>