<svg xmlns="http://www.w3.org/2000/svg" xmlns:xlink="http://www.w3.org/1999/xlink" viewBox="0 0 45 45" fill="#fff" fill-rule="evenodd" stroke="#000" stroke-linecap="round" stroke-linejoin="round"><use xlink:href="#A" x=".5" y=".5"/><symbol id="A" overflow="visible"><path d="M35.8 43.275V7.081H0v36.194h35.8z" stroke="#fff" stroke-linejoin="miter" fill="#0f73a0" stroke-width=".787"/><path d="M29.899 20.064v7.868l4.721-3.934-4.721-3.934zm-14.556-6.688h7.868l-3.934-4.721-3.934 4.721zm7.868 22.818h-7.868l3.934 4.721 3.934-4.721zM7.475 28.719v-7.868l-4.721 3.934 4.721 3.934z" stroke="none" fill="#000"/><g stroke="#fff" stroke-linejoin="miter"><path d="M29.112 20.851v7.868l4.721-3.934-4.721-3.934zm-14.556-6.688h7.868L18.49 9.442l-3.934 4.721zm7.868 22.818h-7.868l3.934 5.114 3.934-5.114zM6.688 29.506v-7.868l-4.721 3.934 4.721 3.934z" stroke-width=".393"/><g fill="#0f73a0" stroke-width=".787"><path d="M35.8 7.081H.393L9.048 0h34.227L35.8 7.081z"/><path d="M43.275 36.194V0L35.8 7.081v36.193l7.475-7.081z"/></g></g><g stroke="none"><path d="M23.993 20.07v3.147h3.934V21.25c0-3.541-4.327-5.114-9.442-5.114S9.044 17.71 9.044 21.25v1.967h3.934V20.07c5.114-6.688 11.015 0 11.015 0zm-4.716-.793h3.147v3.541l3.934 3.147v7.475H10.622v-7.475l3.934-3.147v-3.541h4.721z" fill="#000"/><path d="M23.993 21.25v2.754h3.934v-1.967c0-3.541-4.327-5.114-9.442-5.114s-9.442 1.574-9.442 5.114v1.967h3.934V21.25c5.114-6.688 11.015 0 11.015 0z"/><path d="M19.277 20.064h3.147v3.934l3.934 3.147v7.081H10.622v-7.081l3.934-3.147v-3.934h4.721z"/></g></symbol></svg>