<svg xmlns="http://www.w3.org/2000/svg" xmlns:xlink="http://www.w3.org/1999/xlink" viewBox="0 0 49 65" fill="#fff" fill-rule="evenodd" stroke="#000" stroke-linecap="round" stroke-linejoin="round"><use xlink:href="#A" x=".5" y=".5"/><symbol id="A" overflow="visible"><g stroke="#fff" stroke-linejoin="miter" stroke-width=".787"><path d="M22.434 60.218V42.9l-3.936 3.936V63.76l3.936-3.542z" fill="#000"/><g fill="#0e6f9c"><path d="M18.498 63.76V46.836H0V63.76h18.498zm20.466 0V46.836H20.073V63.76h18.892z"/><path d="M47.229 38.571V0l-8.265 7.478v38.964l8.265-7.872zm0 17.711V38.964l-8.265 7.872V63.76l8.265-7.478z"/><path d="M47.23 0l-8.265 7.478H0L9.84 0h37.39z"/><path d="M38.964 46.442V7.478H0v38.964h38.964z"/></g></g><g stroke="none"><path d="M15.744 22.435L9.84 16.531l1.181-1.181-3.936-.787.787 3.936 1.181-1.181 5.904 5.904.787-.787zm-1.968 3.936H5.51v-1.574l-3.542 1.968 3.542 2.361v-1.574h8.265V26.37zm1.181 4.329l-5.904 5.904-1.181-1.181-.787 3.936 3.936-.787-1.181-1.181 5.904-5.904-.787-.787zm3.936 1.968v8.659h-1.574l2.361 3.149 1.968-3.149h-1.574v-8.659h-1.181zm0-11.414v-8.265h-1.574l2.361-3.149 1.968 3.149h-1.574v8.265h-1.181zm4.329 10.233l5.904 5.904-1.181 1.181 3.936.787-.787-3.936-1.181 1.181-5.904-5.904-.787.787zm1.968-3.936h8.659v1.574l3.149-2.361-3.149-1.968v1.574h-8.659v1.181zm-1.181-4.329l5.904-5.904 1.181 1.181.787-3.936-3.936.787 1.181 1.181-5.904 5.904.787.787zM3.543 51.166h1.181l-1.968-2.755-1.574 2.755h1.181v8.659H1.181l1.574 2.755 1.968-2.755H3.543v-8.659zm4.329 0h1.181l-1.968-2.755-1.574 2.755h1.181v8.659H5.51l1.574 2.755 1.968-2.755H7.872v-8.659zm3.936 0h1.574l-1.968-2.755-1.968 2.755h1.574v8.659H9.446l1.968 2.755 1.574-2.755h-1.181v-8.659z"/><use xlink:href="#C"/><use xlink:href="#C" x="7.478"/><use xlink:href="#C" x="11.807"/><path d="M32.274 51.165h1.181L31.88 48.41l-1.968 2.755h1.181v8.659h-1.181l1.968 2.755 1.574-2.755h-1.181v-8.659z"/><use xlink:href="#C" x="20.466"/></g></symbol><defs ><path id="C" d="M16.137 51.165h1.181l-1.574-2.755-1.968 2.755h1.181v8.659h-1.181l1.968 2.755 1.574-2.755h-1.181v-8.659z"/></defs></svg>