<svg xmlns="http://www.w3.org/2000/svg" xmlns:xlink="http://www.w3.org/1999/xlink" viewBox="0 0 78 110" fill="#fff" fill-rule="evenodd" stroke="#000" stroke-linecap="round" stroke-linejoin="round"><style><![CDATA[.B{stroke:none}.C{stroke:#fff}.D{stroke-linejoin:miter}.E{stroke-width:.788}.F{fill:none}.G{stroke-linecap:square}.H{fill:#0b719f}.I{fill:#0f73a0}]]></style><use xlink:href="#A" x=".5" y=".5"/><symbol id="A" overflow="visible"><path d="M74.424 38.904c2.756-3.544-3.938-5.513-3.938-5.513" class="B I"/><g class="C D E"><path d="M74.424 38.904c2.756-3.544-3.938-5.513-3.938-5.513" class="F G"/><g class="I"><path d="M70.491 7.789l-3.544 2.757H40.564l3.544-2.757h26.383zM66.947 31.81v-20.87H40.17v20.87h26.777z"/><path d="M70.491 29.447V7.789l-3.544 3.15v21.264l3.544-2.756z"/></g></g><use xlink:href="#C" class="B I"/><use xlink:href="#C" class="C D E F G"/><use xlink:href="#D" class="B I"/><use xlink:href="#D" class="C D E F"/><use xlink:href="#E" class="B I"/><use xlink:href="#E" class="C D E F G"/><use xlink:href="#F" class="B I"/><use xlink:href="#F" class="C D E F G"/><use xlink:href="#G" class="B I"/><use xlink:href="#G" class="C D E F G"/><g class="B I"><path d="M27.564 82.219v5.907l11.42-4.725c1.969-.394 2.363 1.969 2.363 1.969v1.575h-1.181v1.575c-.788 1.575-2.363 0-2.363 0v-1.969l-9.057 4.331 10.632 8.663c1.575 2.756.394 5.119.394 5.119 1.181 1.969-1.181 3.544-1.181 3.544-2.757 1.575-2.757-1.969-2.757-1.969-.394-1.969 1.969-1.969 1.969-1.969l.394-1.181-12.601-11.42-16.145 9.451-.788 1.575c1.575 2.756-.787 3.544-.787 3.544-3.544.788-1.969-2.363-1.969-2.363-.394-1.575 1.181-1.575 1.181-1.575l.788-1.181s.787.394 0-.394c-1.181-.788-.394-3.15-.394-3.15l15.357-7.482-5.119-4.725-1.575.788c0 2.756-1.969 1.969-1.969 1.969-1.969 0-.788-1.969-.788-1.969.788-.788 1.575-1.181 1.575-1.181l1.181-2.363 3.938 1.969 4.725 3.544v-5.119"/><use xlink:href="#H"/></g><g class="C D E"><use xlink:href="#H" x="0.001" class="F G"/><g class="I"><path d="M64.978 29.447V13.696H42.532v15.751h22.445zm2.363 7.482v-3.938H40.564v3.938H67.34zm-3.15 6.694v-1.575H34.263v1.575H64.19zm10.238-.788v-.788h-4.332v.788h4.332z"/><path d="M74.428 41.654l1.969-3.15h-4.332l-1.969 3.15h4.332zm1.969-.394v-2.757l-1.969 3.544v.788l1.969-1.575zm-7.876-1.969v-2.363l-4.332 5.119v1.575l4.332-4.332zm2.363-4.725v-4.725l-3.544 3.15v5.119l3.544-3.544z"/></g><g class="H"><path d="M67.34 32.991v-.788H41.351v.788H67.34z"/><path d="M70.491 30.235v-.394l-3.544 2.363v.788l3.544-2.756z"/></g><path d="M68.128 36.929l-3.938 5.513H34.657l4.725-5.513h28.746z" class="I"/></g><path d="M57.89 34.96h7.088z" class="B H"/><path d="M57.89 34.96h7.088" class="C D E F G"/><path d="M30.72 10.546l-.788 1.575 1.181-.394z" class="B I"/><path d="M30.72 10.546l-.788 1.575 1.181-.394" class="C D E F G"/><path d="M44.502 38.898h1.575z" class="B H"/><path d="M44.502 38.898h1.575" class="C D E F G"/><path d="M46.864 38.898h1.575z" class="B H"/><path d="M46.864 38.898h1.575" class="C D E F G"/><path d="M40.17 38.898h1.575z" class="B H"/><path d="M40.17 38.898h1.575" class="C D E F G"/><path d="M42.139 38.898h1.575z" class="B H"/><path d="M42.139 38.898h1.575" class="C D E F G"/><path d="M49.227 38.898h1.575z" class="B H"/><path d="M49.227 38.898h1.575" class="C D E F G"/><path d="M51.196 38.898h1.575z" class="B H"/><path d="M51.196 38.898h1.575" class="C D E F G"/><path d="M53.558 38.898h1.575z" class="B H"/><path d="M53.558 38.898h1.575" class="C D E F G"/><path d="M55.527 38.898h1.575z" class="B H"/><path d="M55.527 38.898h1.575" class="C D E F G"/><path d="M57.89 38.898h1.575z" class="B H"/><path d="M57.89 38.898h1.575" class="C D E F G"/><path d="M60.253 38.898h1.575z" class="B H"/><path d="M60.253 38.898h1.575" class="C D E F G"/><path d="M62.222 38.898h1.575z" class="B H"/><path d="M62.222 38.898h1.575" class="C D E F G"/><path d="M43.714 40.079h1.575z" class="B H"/><path d="M43.714 40.079h1.575" class="C D E F G"/><path d="M46.077 40.079h1.575z" class="B H"/><path d="M46.077 40.079h1.575" class="C D E F G"/><path d="M39.382 40.079h1.575z" class="B H"/><path d="M39.382 40.079h1.575" class="C D E F G"/><path d="M41.351 40.079h1.575z" class="B H"/><path d="M41.351 40.079h1.575" class="C D E F G"/><path d="M48.439 40.079h1.575z" class="B H"/><path d="M48.439 40.079h1.575" class="C D E F G"/><path d="M50.408 40.079h1.575z" class="B H"/><path d="M50.408 40.079h1.575" class="C D E F G"/><path d="M52.771 40.079h1.575z" class="B H"/><path d="M52.771 40.079h1.575" class="C D E F G"/><path d="M54.74 40.079h1.575z" class="B H"/><path d="M54.74 40.079h1.575" class="C D E F G"/><path d="M57.102 40.079h1.575z" class="B H"/><path d="M57.102 40.079h1.575" class="C D E F G"/><path d="M59.465 40.079h1.575z" class="B H"/><path d="M59.465 40.079h1.575" class="C D E F G"/><path d="M61.434 40.079h1.575z" class="B H"/><path d="M61.434 40.079h1.575" class="C D E F G"/><path d="M42.926 41.26h1.575z" class="B H"/><path d="M42.926 41.26h1.575" class="C D E F G"/><path d="M45.289 41.26h1.575z" class="B H"/><path d="M45.289 41.26h1.575" class="C D E F G"/><path d="M38.595 41.26h1.575z" class="B H"/><path d="M38.595 41.26h1.575" class="C D E F G"/><path d="M40.564 41.26h1.575z" class="B H"/><path d="M40.564 41.26h1.575" class="C D E F G"/><path d="M47.652 41.26h1.575z" class="B H"/><path d="M47.652 41.26h1.575" class="C D E F G"/><path d="M49.621 41.26h1.575z" class="B H"/><path d="M49.621 41.26h1.575" class="C D E F G"/><path d="M51.983 41.26h1.575z" class="B H"/><path d="M51.983 41.26h1.575" class="C D E F G"/><path d="M53.952 41.26h1.575z" class="B H"/><path d="M53.952 41.26h1.575" class="C D E F G"/><path d="M56.315 41.26h1.575z" class="B H"/><path d="M56.315 41.26h1.575" class="C D E F G"/><path d="M58.678 41.26h1.575z" class="B H"/><path d="M58.678 41.26h1.575" class="C D E F G"/><path d="M60.646 41.26h1.575z" class="B H"/><path d="M60.646 41.26h1.575" class="C D E F G"/><use xlink:href="#I" class="B I"/><use xlink:href="#I" class="C D E F G"/><use xlink:href="#J" class="B I"/><use xlink:href="#J" class="C D E F G"/><use xlink:href="#K" class="B I"/><use xlink:href="#K" class="C D E F G"/><use xlink:href="#L" class="B I"/><use xlink:href="#L" class="C D E F"/><use xlink:href="#M" class="B I"/><use xlink:href="#M" class="C D E F"/></symbol><defs ><path id="C" d="M31.503 5.827c0 2.363-1.575 3.938 1.181 7.482.394.394-.394 1.575-.788 1.969s-.394 1.575-.394 1.969c0 0-.394.787-.394 1.181-.394 1.181.394 1.969-.394 2.363-1.181.394-2.756.394-3.544 1.181-1.181.788-1.969 1.969-2.363 3.15h-1.181c-1.969-1.969-4.725-6.694-7.482-7.482-1.181-3.15.788-5.513 2.363-8.269s4.725-4.725 7.875-5.119"/><path id="D" d="M15.358 17.247c.394.394 1.181 0 1.969 0 1.181.788 2.756.788 3.544 0 1.181-.394 1.575-1.969 2.363-3.15 0-.394 0-.787.394-.787 1.181 0 3.15.394 3.544-.394 1.181-1.575-.394-4.331 1.575-5.513 1.575-.788 4.331-1.181 3.938-3.544C28.352 1.496 23.233-.867 18.508.314c-1.575.394-2.756 2.363-3.938 3.544-.394.394-.788.787-.788 1.181 0 3.15-.394 5.907.394 9.057 0 .788.394 2.756 1.181 3.15z"/><path id="E" d="M40.165 73.95v5.513c-1.575 1.181-1.181 3.15-1.181 4.725 1.575 1.181 3.938.788 5.907.788v-.788c1.969-.394 3.938-.394 5.907-.787.394-1.181.394-2.756.394-3.938-1.575-1.181-3.938-.788-4.725-2.757s-.788-3.938-.788-5.907"/><path id="F" d="M33.471 71.194c4.332.788 7.876-1.575 12.207-3.544.788-.394 2.363 0 3.938 0 0 4.725-.394 9.057-.394 13.388 2.363 0 4.331.394 6.694 0 1.181 0 2.363-.788 3.544-1.181 0-6.3.394-12.601-.394-18.901 0-.788-.787-1.575-1.181-2.363 0-.394-.788-.394-1.181-.788-5.119-1.181-5.907-.394-11.419-1.181-.394 0 1.181-2.756.788-3.15-.788-1.181-12.995-.394-14.57-.394"/><path id="G" d="M55.522 81.038c0 .788-.394 1.575 0 2.363 0 .394.788.394 1.181.788.394 0 .788.788 1.181.788.788.394 1.575.394 2.363.788 1.181 0 2.363-.394 3.544 0 0 .394.394.394.788.394.394.787.788 1.969.394 2.756-1.181 1.181-2.363 2.363-3.938 2.756-2.363.394-4.331 0-6.694.394-.394 0 0 0-.394.394 0 0 .394 1.181 0 1.181-1.969 0-4.725.394-6.3-1.575-.394-.788-.394-1.969-.394-2.756.788-.788.788-1.969 1.181-2.757.394-1.181 0-1.181.394-1.969.788-1.181.394-2.363.394-3.544"/><path id="H" d="M34.258 76.313l13.388-6.3c.788-1.181-.394-2.756-.394-2.756l-12.601 4.725"/><path id="I" d="M35.046 36.148c1.181 0 2.363 0 3.544-.394.788 0 1.181-.787 1.575-1.181 1.181 0 1.969-.394 2.756 0 0 .394.394.394.394.788 1.181 0 2.363 0 3.15.788.394.788 0 1.575 0 2.363 0 0-.394.394-.394 0-.394-.394-.394-1.181-1.181-1.575-.394 0-1.181-.394-1.969 0-.394 0 0 .788.394.788s1.575.394.788.787c-1.575 1.575-3.938 1.181-5.907.788-.788 0-1.575-.394-2.363-.394"/><path id="J" d="M52.766 47.961c.394 0 .788-.394 1.575-.394.394-.394.788 0 1.181-.394 1.181-.394 1.969-.787 2.756-1.181.394-1.575.394-3.15.788-4.725l1.969-.394v-1.181c-1.575-.394-4.332 0-5.907.394v-.394c-.788 0-1.969 0-2.363.394-1.181.394-.788 1.575-.788 2.756 0 .788-.788 1.181-1.181 1.181-.394.394-1.181.394-1.181.788"/><path id="K" d="M29.533 35.754c1.575 0 4.331-.394 5.513.394.394.788 1.181 3.15.394 3.938 0 .394-1.969.394-2.756.394"/><path id="L" d="M14.964 18.034c.788 0 2.363-.394 2.756 0 2.363 1.969 4.725 4.331 6.694 7.088 1.181 1.969 2.756 3.15 3.544 5.119.394 1.969.788 3.938 1.575 5.513 1.969 3.544 3.544 6.3 5.907 9.451.394.394 1.575.394 2.363.788l.788.788c1.575 0 2.756.394 3.938 0 2.363-1.181 4.725-1.575 6.694-2.363 1.181 2.363 3.938 3.15 3.938 5.513-2.363 1.575-5.119 2.756-7.482 3.938-1.969.788-3.544 2.363-5.513 2.363-1.181 0-6.3-2.363-6.694-1.575-.788 2.756 3.938 7.875 3.15 11.026-.788 3.544-1.181 6.694-1.969 10.238-.394 1.181-.787 1.969-.787 3.15-.394.788-.788 1.575-1.181 1.969-1.181.787-1.969 1.969-3.15 1.969-1.181.394-2.363 0-3.544.787-.788 0-1.575.394-2.363.394-1.181.787-2.756.394-2.756-.394-1.181-3.15-.394-7.088-1.575-10.238-2.363-6.694-4.331-12.601-8.663-20.083-1.181-1.575-4.332-.788-5.513-2.756-3.544-5.907-.788-15.751 1.575-24.02.394-2.363 2.363-5.119 4.332-5.907.788-.394 1.181-.788 1.969-1.181.788-.788.788-1.575 1.969-1.575z"/><path id="M" d="M10.632 80.251l11.026 3.938v-9.451c-8.269-20.87-9.451-20.87-9.451-20.87-2.756-1.575-3.544-1.575-3.544-1.575-3.938 0-5.907-4.332-5.907-4.332C1.181 46.78 0 48.355 0 48.355z"/></defs></svg>