<svg xmlns="http://www.w3.org/2000/svg" xmlns:xlink="http://www.w3.org/1999/xlink" viewBox="0 0 60 53" fill="#fff" fill-rule="evenodd" stroke="#000" stroke-linecap="round" stroke-linejoin="round"><style><![CDATA[.B{stroke:#fff}.C{stroke-linejoin:miter}.D{fill:#0e6f9c}.E{stroke-width:.787}.F{stroke:none}.G{stroke-linecap:square}]]></style><use xlink:href="#A" x=".5" y=".5"/><symbol id="A" overflow="visible"><path d="M49.573 44.065v-9.049H0v9.049h49.573z" class="B C D E"/><path d="M34.622 40.131h12.59z" fill="#000" class="F"/><path d="M34.622 40.131h12.59" fill="none" class="B C E G"/><path d="M34.622 39.737h12.59z" fill="#0c6d9c" class="F"/><g class="B C E"><path d="M34.622 39.737h12.59" fill="none" class="G"/><g class="D"><path d="M58.228 35.409v-8.262l-8.656 7.869v9.049l8.656-8.656zM40.917 51.933v-2.361l4.328-6.295v3.934l-4.328 4.721z"/><path d="M40.917 49.573v2.361H1.18v-2.361h39.737z"/><path d="M40.917 49.573H1.18l4.721-6.295h39.344l-4.328 6.295zm17.311-22.426H8.656L0 35.016h49.573l8.656-7.869z"/><path d="M43.278 30.295V5.115H9.049v25.18h34.229z"/></g></g><use xlink:href="#C" class="D F"/><g class="B C E"><use xlink:href="#C" fill="none"/><g class="D"><path d="M48.786 0H14.951L9.049 5.115h34.229L48.786 0z"/><path d="M48.786 24.787V0l-5.508 5.115v25.18l5.508-5.508z"/></g></g><g class="F"><path d="M25.574 18.098v4.721h-2.361l3.148 3.541 3.148-3.541h-2.361v-4.721h-1.574z" fill="#000"/><path d="M24.787 18.098v4.721h-2.361l3.148 3.541 3.541-3.541h-2.361v-4.721h-1.967z"/><path d="M25.574 16.918v-4.721h-2.361l3.148-3.541 3.148 3.541h-2.361v4.721h-1.574z" fill="#000"/><path d="M24.787 16.918V12.59h-2.361l3.148-3.934 3.541 3.934h-2.361v4.328h-1.967z"/><path d="M36.983 19.279h-4.721v2.361l-3.541-3.541 3.541-3.148v2.361h4.721v1.967z" fill="#000"/><path d="M36.196 18.492h-4.328v2.361l-3.934-3.148 3.934-3.541v2.754h4.328v1.574z"/><path d="M15.344 19.279h4.721v2.361l3.541-3.541-3.541-3.148v2.361h-4.721v1.967z" fill="#000"/><path d="M15.344 18.492h4.721v2.361l3.541-3.148-3.541-3.541v2.754h-4.721v1.574z"/></g></symbol><defs ><path id="C" d="M11.799 10.629c0-2.361 2.754-2.754 2.754-2.754h22.426c3.148 0 3.148 3.148 3.148 3.148v13.77c0 1.967-2.361 2.754-2.361 2.754H14.946c-2.361 0-3.147-2.361-3.147-2.361z"/></defs></svg>