<svg xmlns="http://www.w3.org/2000/svg" xmlns:xlink="http://www.w3.org/1999/xlink" viewBox="0 0 69 66" fill="#fff" fill-rule="evenodd" stroke="#000" stroke-linecap="round" stroke-linejoin="round"><style><![CDATA[.B{stroke:#fff}.C{stroke-linejoin:miter}.D{stroke-width:.788}.E{stroke:none}.F{fill:#0f73a0}.G{fill:none}.H{stroke-linecap:square}]]></style><use xlink:href="#A" x=".5" y=".5"/><symbol id="A" overflow="visible"><path d="M59.463 56.707v-9.451H9.845v9.451h49.618z" class="B C D F"/><path d="M44.105 52.375h12.602z" fill="#0b719f" class="E"/><path d="M44.105 52.375h12.601" class="B C D G H"/><path d="M44.105 51.981h12.602z" fill="#0b719f" class="E"/><g class="B C D"><path d="M44.105 51.981h12.601" class="G H"/><g class="F"><path d="M67.733 47.65v-8.27l-8.27 7.876v9.451l8.27-9.057zM50.8 64.189V62.22l4.332-6.301v3.544L50.8 64.189z"/><path d="M50.799 62.22v1.969H11.026V62.22h39.773z"/><path d="M50.8 62.22H11.026l4.332-6.301h39.773L50.8 62.22zm16.933-22.84H18.115l-8.27 7.876h49.618l8.27-7.876z"/><path d="M58.282 39.38H25.203l-5.513 5.119h33.079l5.513-5.119z"/><path d="M52.769 42.53V17.721H18.902V42.53h33.867z"/></g></g><use xlink:href="#C" class="E F"/><g class="B C D"><use xlink:href="#C" class="G"/><g class="F"><path d="M58.675 12.208h-34.26l-5.513 5.513h33.867l5.907-5.513z"/><path d="M58.676 37.411V12.208l-5.907 5.119V42.53l5.907-5.119z"/></g></g><path d="M31.504 0l-.788.394H0L.788 0h30.716z" fill="#000" class="E"/><g class="B C D F"><path d="M31.504 30.322V0l-.788.788V31.11l.788-.788z"/><path d="M1.181 31.11h29.535V.394H0v29.535l1.181 1.181z"/></g><use xlink:href="#D" class="E F"/><g class="B C D G"><use xlink:href="#D" class="H"/><path d="M1.575 3.544V2.363H.394v1.181h1.181zm28.353 0V2.363h-1.181v1.181h1.181z"/></g><use xlink:href="#E" class="E"/><g class="C D G"><use xlink:href="#E"/><path d="M28.349 31.117v-8.663s0-1.181-1.181-1.181H5.903s-.788 0-.788.788v8.663" class="B H"/></g><path d="M12.208 30.323v-8.27H8.664v8.27h3.544z" fill="#000" class="E"/><path d="M30.716.788L31.504 0" class="B C D G H"/></symbol><defs ><path id="C" d="M21.654 23.24c0-2.757 2.363-3.15 2.363-3.15h22.84c3.15 0 3.15 3.15 3.15 3.15v14.176c0 1.575-2.757 2.363-2.757 2.363h-22.84c-1.969 0-2.757-2.363-2.757-2.363z"/><path id="D" d="M28.348.401v17.721c0 1.575-1.181 1.181-1.181 1.181H3.146s-.788 0-.788-.788V.401"/><path id="E" d="M23.229 22.453v8.27H5.115V22.06c0-.788.788-.788.788-.788h16.539c.788 0 .788 1.181.788 1.181z"/></defs></svg>