<svg xmlns="http://www.w3.org/2000/svg" xmlns:xlink="http://www.w3.org/1999/xlink" viewBox="0 0 53 74" fill="#fff" fill-rule="evenodd" stroke="#000" stroke-linecap="round" stroke-linejoin="round"><style><![CDATA[.B{stroke-width:.787}.C{stroke-linejoin:miter}.D{stroke-linecap:square}]]></style><use xlink:href="#A" x=".5" y=".5"/><symbol id="A" overflow="visible"><g fill="none" class="B C D"><path d="M41.708 5.273l1.574-1.967c3.935-5.902 7.869-3.148 5.115 2.361-2.361 4.722-2.361 5.115-3.541 6.296-1.18 2.754-2.754 5.902-3.935 7.87m4.722-8.657c3.935-5.902 7.87-3.148 5.509 2.361l-3.541 6.296c-1.574 3.148-.787 2.361-1.967 4.722"/><path d="M37.774 12.356c.787-1.18.787-1.574 3.541-5.902 3.148-5.902-1.18-8.656-5.509-2.754-4.328 6.296-5.115 7.87-7.476 10.624s-7.083 13.378-9.837 16.526c-1.574 1.967.787-5.902.787-7.869-.787-4.722-.787-4.328-1.18-5.902-.787-1.967-3.935-4.722-4.722-2.361-.393 1.574-.393 1.574 0 3.148 0 .787-.393.394-.393 4.328.393 1.967-3.148 8.263-4.328 11.017-1.967 6.296.393 6.296-.393 11.411-1.18 5.509 0 4.328-.787 6.689C6.296 53.671.787 62.327 0 63.901M20.461 33.21c3.148 1.967 0 12.198 0 12.198"/><path d="M18.887 32.816c-.787-1.181-.787-1.967-.787-1.967"/></g><g stroke="#fff"><g fill="#036b9a"><path d="M9.055 40.68h24.789l16.133-29.511H25.975L9.055 40.68z" class="B"/><path d="M9.055 40.68v4.722h24.789V40.68H9.055z" class="B"/><path d="M49.977 11.169v4.722L33.844 45.402V40.68l16.133-29.511z" class="B"/></g><path d="M45.648 14.317L35.024 33.991h-19.28l11.411-19.674h18.494zM16.531 36.352l-1.18 2.361h-1.967l1.18-2.361h1.967zm17.313 0l-1.18 2.361h-1.967l1.181-2.361h1.967zm-4.328 0l-1.18 2.361h-1.967l1.18-2.361h1.967zm-4.328 0l-1.18 2.361h-2.361l1.18-2.361h2.361zm-4.328 0l-1.18 2.361h-2.361l1.181-2.361h2.361z" stroke-width=".394"/></g><use xlink:href="#C" stroke="none"/><use xlink:href="#C" fill="none" class="B C D"/></symbol><defs ><path id="C" d="M17.313 72.164c1.574-1.967 8.263-12.198 9.05-12.198 7.083-1.967 14.952-17.706 18.493-22.035 1.18-1.18 1.574-3.148 1.967-3.935.393-.393 1.967-3.935 2.754-5.509l1.574-6.296v-5.509s-2.361-5.509-3.541 1.574l-.787 4.328c-.394.787-1.967 2.754-2.361 3.935-.394.787-2.754 3.935-2.754 5.509"/></defs></svg>