<svg xmlns="http://www.w3.org/2000/svg" xmlns:xlink="http://www.w3.org/1999/xlink" viewBox="0 0 49 37" fill="#fff" fill-rule="evenodd" stroke="#000" stroke-linecap="round" stroke-linejoin="round"><style><![CDATA[.B{stroke:#fff}.C{stroke-linejoin:miter}.D{stroke-width:.788}.E{stroke:none}.F{fill:none}.G{fill:#0b719f}.H{stroke-linecap:square}.I{fill:#0f73a0}]]></style><use xlink:href="#A" x=".5" y=".5"/><symbol id="A" overflow="visible"><g class="B C D I"><path d="M.394 35.058v-7.88h33.094v7.88H.394z"/><path d="M33.488 27.177H0l15.759-22.85h31.912l-14.183 22.85z"/><path d="M47.671 4.327v14.577L33.488 35.057v-7.879l14.183-22.85z"/></g><path d="M33.488 27.177l14.183-22.85z" class="E G"/><path d="M33.488 27.177l14.183-22.85" class="B C D F H"/><use xlink:href="#C" class="E I"/><g class="B C D"><use xlink:href="#C" class="F"/><path d="M8.667 20.874l-.394 4.728h7.092l-.394-4.728H8.667z" class="I"/></g><use xlink:href="#D" class="E I"/><g class="B C D"><use xlink:href="#D" class="F"/><path d="M20.093 24.813l7.092-10.243h10.243l-5.91 10.243H20.093z" class="I"/></g><path d="M27.578 24.813l6.304-10.243z" class="E G"/><path d="M27.578 24.813l6.304-10.243" class="B C D F H"/><path d="M23.638 24.813L30.73 14.57z" class="E G"/><path d="M23.638 24.813L30.73 14.57" class="B C D F H"/><path d="M32.7 22.056H21.669z" class="E G"/><path d="M32.7 22.056H21.669" class="B C D F H"/><path d="M34.275 19.692H23.638z" class="E G"/><path d="M34.275 19.692H23.638" class="B C D F H"/><path d="M35.851 17.328H25.214z" class="E G"/><path d="M35.851 17.328H25.214" class="B C D F H"/></symbol><defs ><path id="C" d="M26.391 8.667l-6.304 7.485.394 1.97-5.122 7.485-.394-4.728C15.754 16.941 27.573 1.97 30.331 0l.394 5.122-4.334 5.122z"/><path id="D" d="M30.331 0c-2.758 1.97-14.577 16.941-15.365 20.88H8.663C9.845 16.941 21.664 1.97 24.422 0z"/></defs></svg>