<svg xmlns="http://www.w3.org/2000/svg" xmlns:xlink="http://www.w3.org/1999/xlink" viewBox="0 0 80 37" fill="#fff" fill-rule="evenodd" stroke="#000" stroke-linecap="round" stroke-linejoin="round"><style><![CDATA[.B{stroke:#fff}.C{stroke-linejoin:miter}.D{stroke-width:.787}.E{stroke:none}.F{fill:none}.G{stroke-linecap:square}.H{fill:#0b719f}.I{fill:#0f73a0}]]></style><use xlink:href="#A" x=".5" y=".5"/><symbol id="A" overflow="visible"><g class="B C D I"><path d="M0 35.014v-7.87h64.533v7.87H0z"/><path d="M64.533 27.145H0L15.74 4.322h62.959L64.533 27.145z"/><path d="M78.698 4.322v14.559L64.532 35.014v-7.87L78.698 4.322zM4.328 24.784l4.722-6.689h33.447l-4.722 6.689H4.328z"/></g><path d="M9.05 18.094l4.328-6.689z" class="E H"/><path d="M9.05 18.094l4.328-6.689" class="B C D F G"/><path d="M42.497 18.094l4.722-6.689z" class="E I"/><path d="M42.497 18.094l4.722-6.689" class="B C D F G"/><path d="M64.533 27.145L78.699 4.322z" class="E H"/><path d="M64.533 27.145L78.699 4.322" class="B C D F G"/><use xlink:href="#C" class="E I"/><g class="B C D"><use xlink:href="#C" class="F"/><path d="M40.137 20.849l-.394 4.722h7.083l-.787-4.722h-5.902z" class="I"/></g><use xlink:href="#D" class="E I"/><g class="B C D"><use xlink:href="#D" class="F"/><path d="M51.547 24.784l6.689-10.231h10.624l-6.296 10.231H51.547z" class="I"/></g><path d="M59.024 24.784l6.296-10.231z" class="E H"/><path d="M59.024 24.784l6.296-10.231" class="B C D F G"/><path d="M55.089 24.784l6.689-10.231z" class="E H"/><path d="M55.089 24.784l6.689-10.231" class="B C D F G"/><path d="M64.139 22.029H53.121z" class="E H"/><path d="M64.139 22.029H53.121" class="B C D F G"/><path d="M65.713 19.668H55.089z" class="E H"/><path d="M65.713 19.668H55.089" class="B C D F G"/><path d="M67.287 17.307H56.663z" class="E H"/><path d="M67.287 17.307H56.663" class="B C D F G"/></symbol><defs ><path id="C" d="M57.839 8.657l-6.296 7.476V18.1l-4.722 7.476-.787-4.722C47.215 16.92 59.019 1.967 61.774 0l.394 5.115-4.328 5.115z"/><path id="D" d="M61.773 0c-2.754 1.967-14.559 16.92-15.74 20.855h-5.902C41.312 16.92 53.116 1.967 55.871 0z"/></defs></svg>