<svg xmlns="http://www.w3.org/2000/svg" xmlns:xlink="http://www.w3.org/1999/xlink" viewBox="0 0 58 40" fill="#fff" fill-rule="evenodd" stroke="#000" stroke-linecap="round" stroke-linejoin="round"><use xlink:href="#A" x=".5" y=".5"/><symbol id="A" overflow="visible"><use xlink:href="#C" stroke="none" fill="#0e6f9c"/><use xlink:href="#C" stroke="#fff" stroke-linejoin="miter" fill="none" stroke-width=".787"/><use xlink:href="#C" stroke="none" fill="#0e6f9c"/><use xlink:href="#C" stroke="#fff" stroke-linejoin="miter" fill="none" stroke-width=".787"/><use xlink:href="#D" stroke="none" fill="#0e6f9c"/><use xlink:href="#D" stroke="#fff" stroke-linejoin="miter" fill="none" stroke-width=".787"/><path d="M20.077 17.31V2.748l13.382 7.084-13.382 7.478zm18.105-.787V3.535h-4.329v12.988h4.329z" stroke="none"/></symbol><defs ><path id="C" d="M56.675 11.02c0 6.297-12.594 11.02-28.337 11.02S0 17.317 0 11.02v16.137C0 33.454 12.594 38.57 28.337 38.57s28.337-5.116 28.337-11.414z"/><path id="D" d="M28.337 22.04c15.743 0 28.337-4.723 28.337-11.02C56.675 5.117 44.08 0 28.337 0S0 5.117 0 11.02c0 6.297 12.594 11.02 28.337 11.02z"/></defs></svg>