<svg xmlns="http://www.w3.org/2000/svg" xmlns:xlink="http://www.w3.org/1999/xlink" viewBox="0 0 92.074 58" fill="#fff" fill-rule="evenodd" stroke="#000" stroke-linecap="round" stroke-linejoin="round"><style><![CDATA[.B{stroke:none}.C{fill:none}.D{stroke:#fff}.E{stroke-linejoin:miter}.F{fill:#036c9b}.G{fill:#000}.H{stroke-width:.787}.I{stroke-linecap:square}.J{stroke-width:3.148}]]></style><use xlink:href="#A" x="1.574" y=".5"/><symbol id="A" overflow="visible"><g class="D E F H"><path d="M82.003 36.196l5.51-28.726H45.801l-6.296 28.726h42.499z"/><path d="M87.51 7.47l1.968 1.968-5.115 28.333-2.361-1.574 5.51-28.726z"/><path d="M39.503 36.196l1.968 1.574h42.892l-2.361-1.574H39.503z"/></g><use xlink:href="#C" class="B F"/><use xlink:href="#C" class="C D E H"/><path d="M21.795 51.936v4.722h46.04v-4.722h-46.04z" class="B F"/><g class="D"><g class="E H"><path d="M21.795 51.936v4.722h46.04v-4.722h-46.04" class="C I"/><path d="M39.896 38.557l42.499-.394-14.56 13.773h-46.04l18.101-13.379zm38.564-5.116l4.722-22.43H48.947l-4.329 22.43H78.46z" class="F"/></g><g class="C I"><path d="M41.077 38.951l-10.625 8.657m14.166-8.657L33.6 47.608m14.166-8.657l-10.625 8.657m14.166-8.657l-10.625 8.657m14.166-8.657l-10.625 8.657m14.166-8.657l-11.018 8.657m14.166-8.657l-10.625 8.657m14.166-8.657l-10.625 8.657m14.166-8.657l-10.625 8.657m14.166-8.657l-11.018 8.657m14.166-8.657l-10.625 8.657m14.166-8.657l-10.625 8.657"/><path d="M31.632 46.821h38.17m-35.809-1.968H71.77m-35.022-1.968h37.383m-35.022-1.968h37.777"/></g></g><g class="B"><path d="M66.256 16.527c2.755 2.361 5.903 6.296 6.296 8.657 0 1.968-1.181 2.755-1.968 3.542-1.18.787-3.148.787-3.148.787l-2.361-2.754s4.722-.394 3.935-3.148c-.787-2.361-5.509-9.444-2.755-7.083"/><path d="M67.048 23.604l1.968 8.264-5.116-2.754 3.148-5.509zm0 0zm-5.908 5.909c-3.148-2.361-6.296-6.296-6.296-8.657-.393-1.967.787-2.754 1.968-3.541.787-.787 2.755-.787 2.755-.787l2.361 2.755s-4.328.393-3.935 3.148c.787 2.361 5.902 9.444 3.148 7.083"/><path d="M60.358 22.424l-2.361-8.264 5.509 3.148-3.148 5.116zm0 0z"/><use xlink:href="#D" class="F"/></g><use xlink:href="#D" stroke-width=".394" class="C D E"/><g class="B"><path d="M60.353 8.657l.787-5.509a4.37 4.37 0 0 0 4.329 4.329c1.968 0 3.935-1.967 3.935-4.328l.787 5.509z" class="F"/><path d="M67.442 4.322V2.748h-4.329v1.574h4.329z"/><use xlink:href="#E" class="G"/></g><g class="C D J"><use xlink:href="#E" class="E"/><g class="I"><use xlink:href="#F"/><use xlink:href="#G"/></g></g><use xlink:href="#H" class="B G"/><use xlink:href="#H" class="C D E J"/><use xlink:href="#I" class="B G"/><use xlink:href="#I" class="C D E J"/><use xlink:href="#E" class="B G"/><g class="C I"><use xlink:href="#F" class="H"/><use xlink:href="#G" stroke-width="1.574"/></g><use xlink:href="#H" class="B G"/><use xlink:href="#H" class="C D E H"/><use xlink:href="#I" class="B G"/></symbol><defs ><path id="C" d="M82.39 38.17v4.328l-.787 1.181s-2.754.787-2.361 2.361L67.83 56.665v-4.722z"/><path id="D" d="M65.075 6.69c1.968 0 3.542-1.574 3.542-3.148.004-.941-.368-1.844-1.033-2.509S66.016-.004 65.075 0c-1.574 0-3.148 1.574-3.148 3.542 0 1.574 1.574 3.148 3.148 3.148z"/><path id="E" d="M3.689 46.039c.394.787 0 1.968-1.18 2.361-.787.394-1.967 0-2.361-.787-.393-1.181 0-1.968 1.181-2.361.787-.394 1.967 0 2.361.787z"/><path id="F" d="M32.809 36.202c-3.935 3.935-12.986 8.264-20.856 10.231-5.115 1.574-8.657 1.574-10.231.393"/><path id="G" d="M10.379 36.596c0-3.148.787-6.69 2.361-10.231 4.329-8.657 12.986-13.773 19.282-11.805 5.903 2.361 7.477 11.018 3.148 19.282-.787 1.181-1.181 1.968-1.574 2.361"/><path id="H" d="M36.35 35.021c.787 1.574 0 3.541-1.574 4.328-1.574.394-3.148-.393-3.935-1.574-.787-1.574 0-3.541 1.574-4.328 1.574-.394 3.148.393 3.935 1.574z"/><path id="I" d="M11.952 35.808c.393.787 0 1.968-.787 2.361-1.181.394-1.967 0-2.361-1.18-.394-.787 0-1.574.787-1.968s1.968 0 2.361.787z"/></defs></svg>