<svg xmlns="http://www.w3.org/2000/svg" xmlns:xlink="http://www.w3.org/1999/xlink" viewBox="0 0 42 43" fill="#fff" fill-rule="evenodd" stroke="#000" stroke-linecap="round" stroke-linejoin="round"><style><![CDATA[.B{fill:none}.C{stroke-linecap:square}.D{stroke-width:1.97}.E{stroke-width:.394}.F{fill:#0e6f9c}.G{stroke-width:.788}.H{stroke-linejoin:miter}]]></style><use xlink:href="#A" x=".5" y=".5"/><symbol id="A" overflow="visible"><g stroke="#fff" class="H"><path d="M33.877 41.754V7.09H0v34.664h33.877z" class="F G"/><path d="M16.938 18.12h10.636" class="B C D"/><path d="M27.968 14.969v6.303l3.545-3.151-3.545-3.151z" class="E"/><path d="M16.938 30.331h10.636" class="B C D"/><path d="M27.968 27.18v5.909l3.545-2.757-3.545-3.151z" class="E"/><path d="M11.03 24.423V13.787" class="B C D"/><path d="M7.878 13.393h5.909l-2.757-3.545-3.151 3.545z" class="E"/><path d="M22.847 24.423V13.787" class="B C D"/><path d="M19.696 13.393h6.303l-3.151-3.545-3.151 3.545z" class="E"/><path d="M22.847 24.423v10.242" class="B C D"/><path d="M25.999 35.058H20.09l2.757 3.545 3.151-3.545z" class="E"/><path d="M11.03 24.423v10.242" class="B C D"/><path d="M14.181 35.058H8.272l2.757 3.545 3.151-3.545z" class="E"/><path d="M16.939 30.331H6.697" class="B C D"/><path d="M6.302 33.483v-5.909l-3.545 2.757 3.545 3.151z" class="E"/><path d="M16.939 18.12H6.697" class="B C D"/><path d="M6.302 21.272v-5.909L2.757 18.12l3.545 3.151z" class="E"/><path d="M33.877 7.09H0L8.666 0h32.301v34.664l-7.09 7.09V7.09z" class="F G"/></g><path d="M33.877 7.09L40.967 0z" stroke="none" class="F"/><path d="M33.877 7.09L40.967 0" stroke="#fff" class="B C G H"/><use xlink:href="#C" stroke="none" class="F"/><use xlink:href="#C" stroke="#fff" class="B G H"/></symbol><defs ><path id="C" d="M16.933 31.52a7.06 7.06 0 0 0 7.09-7.09c0-3.939-3.151-7.484-7.09-7.484s-7.09 3.545-7.09 7.484a7.06 7.06 0 0 0 7.09 7.09z"/></defs></svg>