<svg xmlns="http://www.w3.org/2000/svg" xmlns:xlink="http://www.w3.org/1999/xlink" viewBox="0 0 38 57" fill="#fff" fill-rule="evenodd" stroke="#000" stroke-linecap="round" stroke-linejoin="round"><use xlink:href="#A" x=".5" y=".5"/><symbol id="A" overflow="visible"><g stroke="#fff" stroke-linejoin="miter" fill="#0e6f9c" stroke-width=".787"><path d="M0 55.87V5.902h29.115V55.87H0z"/><path d="M8.656 0L0 5.902h29.115L36.197 0H8.656z"/><path d="M36.197 46.82V0l-7.082 5.902V55.87l7.082-9.049z"/></g><path d="M22.033 17.312v17.312h-1.18V17.312h-2.361l2.754-3.541L24 17.312h-1.967zM7.476 31.083V13.771h-1.18v17.312H4.328l2.754 3.541 2.361-3.541H7.476zm12.585 14.17h-1.967l2.754-3.541 2.754 3.541h-1.967c-.787 3.148-4.328 5.508-7.476 5.508-3.541 0-7.475-3.148-7.475-7.475h1.18c0 3.541 3.148 5.902 6.295 5.902 2.361 0 5.115-1.574 5.902-3.934z" stroke="none"/></symbol></svg>