<svg xmlns="http://www.w3.org/2000/svg" xmlns:xlink="http://www.w3.org/1999/xlink" viewBox="0 0 49 62" fill="#fff" fill-rule="evenodd" stroke="#000" stroke-linecap="round" stroke-linejoin="round"><style><![CDATA[.B{stroke-linejoin:miter}.C{stroke-width:.788}.D{stroke:#fff}.E{stroke:none}.F{stroke-linecap:square}.G{fill:none}.H{fill:#0c6d9c}.I{fill:#0e6f9c}]]></style><use xlink:href="#A" x=".5" y=".5"/><symbol id="A" overflow="visible"><g class="B C D I"><path d="M0 60.647v-38.2h42.138v38.2H0z"/><path d="M47.257 55.527V16.934l-5.119 5.513v38.2l5.119-5.12zM7.482 0L0 5.12h42.138L47.257 0H7.482z"/><path d="M0 22.448V5.12h42.138v17.328H0z"/><path d="M47.258 16.934V0l-5.12 5.12v17.328l5.12-5.513z"/></g><path d="M42.138 22.447H0z" class="E I"/><path d="M42.138 22.447H0" class="B C D F G"/><path d="M42.138 22.447l5.12-5.513z" class="E I"/><path d="M42.138 22.447l5.12-5.513" class="B C D F G"/><path d="M14.571 10.239V6.695H7.482v3.544h7.089zm15.359 0V6.695h7.089v3.544h-7.089zm-15.359 8.664v-3.544H7.482v3.544h7.089zm15.359 0v-3.544h7.089v3.544h-7.089z" fill="#000" class="E"/><g class="B C F G"><path d="M12.208 8.664H33.08m-20.872 9.058H33.08"/><path d="M11.027 17.722L33.08 8.664"/><path d="M11.027 8.664l22.053 9.058"/></g><path d="M13.39 11.026V7.482H6.695v3.544h6.695zm15.752 0V7.482h6.695v3.544h-6.695zM13.39 19.69v-3.544H6.695v3.544h6.695zm15.752 0v-3.544h6.695v3.544h-6.695z" class="E"/><g class="B C D F G"><path d="M11.421 9.058h20.872m-20.872 9.058h20.872"/><path d="M10.239 18.116l22.053-9.058"/><path d="M10.239 9.058l22.053 9.058"/></g><path d="M21.66 35.443V26.78h1.575l-2.363-3.151-2.363 3.151h1.575v8.664h1.575zm-7.089 5.12H5.908v-1.575l-3.151 1.969 3.151 2.363v-1.575h8.664v-1.181zm5.513 6.301v8.27h-1.575l2.363 3.544 2.363-3.544H21.66v-8.27h-1.575zm6.695-5.119h9.058v1.575l3.151-2.363-3.151-1.969v1.575h-9.058v1.181z" class="E"/><path d="M29.142 49.62h-16.54V32.686h16.54V49.62z" class="B C D I"/><path d="M16.934 32.292V49.62z" class="E H"/><path d="M16.934 32.292V49.62" class="B C D F G"/><path d="M20.872 32.292V49.62z" class="E H"/><path d="M20.872 32.292V49.62" class="B C D F G"/><path d="M24.81 32.686V49.62z" class="E H"/><path d="M24.81 32.686V49.62" class="B C D F G"/><path d="M12.602 37.018h16.54z" class="E H"/><path d="M12.602 37.018h16.54" class="B C D F G"/><path d="M12.602 40.956h16.146z" class="E H"/><path d="M12.602 40.956h16.146" class="B C D F G"/><path d="M12.602 45.288h16.54z" class="E H"/><path d="M12.602 45.288h16.54" class="B C D F G"/></symbol></svg>