<svg xmlns="http://www.w3.org/2000/svg" xmlns:xlink="http://www.w3.org/1999/xlink" viewBox="0 0 29.181 76.181" fill="#fff" fill-rule="evenodd" stroke="#000" stroke-linecap="round" stroke-linejoin="round"><style><![CDATA[.B{stroke-linejoin:miter}.C{stroke-width:1.181}.D{stroke:none}.E{fill:none}.F{fill:#0b719f}.G{stroke:#0f73a0}]]></style><use xlink:href="#A" x=".59" y=".59"/><symbol id="A" overflow="visible"><path d="M16.53 39.75H6.691V4.329h9.839V39.75z" class="B C G"/><path d="M.394 74.778l6.297-35.421h9.839l5.904 35.421z" class="D"/><g stroke-linecap="square" class="B C E G"><path d="M.394 74.778l6.297-35.421h9.839l5.904 35.421"/><path d="M0 74.778l20.465-10.233-16.53-9.446 13.775-8.658L7.478 39.75l9.052-12.2-9.446-7.478 9.446-8.658-9.839-6.691"/><path d="M22.827 74.778L3.149 64.545l16.53-9.446-13.775-8.659 10.233-6.691L7.085 27.55l9.052-7.478-9.446-8.658 9.839-6.691m-.393-.394H7.085L9.446 0h4.329l2.361 4.329z"/></g><use xlink:href="#C" class="D F"/><use xlink:href="#C" class="B C E"/><use xlink:href="#D" class="D F"/><use xlink:href="#D" class="B C E"/><use xlink:href="#C" fill="#0f73a0" class="D"/><use xlink:href="#C" stroke="#0b719f" class="B C E"/><use xlink:href="#D" class="D F"/><use xlink:href="#D" class="B C E G"/><use xlink:href="#E" class="D F"/><use xlink:href="#E" class="B C E"/><use xlink:href="#F" class="D F"/><use xlink:href="#F" class="B C E"/><use xlink:href="#E" fill="#0f73a0" class="D"/><use xlink:href="#E" stroke="#0b719f" class="B C E"/><use xlink:href="#F" class="D F"/><use xlink:href="#F" class="B C E G"/></symbol><defs ><path id="C" d="M20.461 5.517l.787-1.181h.394v5.116h3.542l.394.393h.393l.394-.393c.394-.394.787.787.787.787v.394s-.393.787-.787.787l-.394-.787h-.393l-.394.394h-3.542v5.51h-.394l-.787-1.181z"/><path id="D" d="M20.46 15.356h-1.968c-.787-1.181-.787-3.149-.787-3.149h-1.574V8.666h1.574s0-2.361.787-3.148h1.968z"/><path id="E" d="M20.461 21.653l.787-1.181h.394v5.51h4.329l.394-.393c.394 0 .787.787.787.787v.394s-.393 1.181-.787.787l-.394-.394h-.393l-.394.394h-3.542v5.116h-.394l-.787-1.181z"/><path id="F" d="M20.46 31.492h-1.968c-.787-.787-.787-3.148-.787-3.148h-1.574v-3.542h1.574s0-1.968.787-3.148h1.968z"/></defs></svg>