<svg xmlns="http://www.w3.org/2000/svg" xmlns:xlink="http://www.w3.org/1999/xlink" viewBox="0 0 56 43" fill="#fff" fill-rule="evenodd" stroke="#000" stroke-linecap="round" stroke-linejoin="round"><style><![CDATA[.B{stroke:#fff}.C{stroke-linejoin:miter}.D{stroke-linecap:square}.E{fill:none}.F{stroke:none}.G{stroke-width:1.575}]]></style><use xlink:href="#A" x=".5" y=".5"/><symbol id="A" overflow="visible"><g class="B C"><g fill="#0e6f9c" stroke-width=".787"><path d="M46.458 7.481L53.939 0H7.874L0 7.481h46.458z"/><path d="M46.852 41.734V7.087H.394v34.647h46.458z"/><path d="M54.333 34.647V0l-7.481 7.087v34.647l7.481-7.087z"/></g><path d="M16.93 41.734V7.087m13.386 34.647V7.087" stroke-width=".394" class="D E"/></g><path d="M25.591 11.024h-7.874z" fill="#000" class="F"/><path d="M25.591 11.024h-7.874" class="B C D E G"/><g class="F"><use xlink:href="#C"/><path d="M25.591 17.717h-7.874z" fill="#000"/></g><path d="M25.591 17.717h-7.874" class="B C D E G"/><g class="F"><path d="M28.741 17.718l-4.331 1.575 1.181-1.575-1.181-1.969 4.331 1.969z"/><path d="M25.591 24.017h-7.874z" fill="#000"/></g><path d="M25.591 24.017h-7.874" class="B C D E G"/><g class="F"><path d="M28.741 24.017l-4.331 1.968 1.181-1.968-1.181-1.575 4.331 1.575z"/><path d="M25.591 30.71h-7.874z" fill="#000"/></g><path d="M25.591 30.71h-7.874" class="B C D E G"/><use xlink:href="#C" y="19.686" class="F"/><path d="M25.985 38.19h-8.268" class="B C D E G"/><path d="M28.741 38.191l-4.331 1.575 1.181-1.575-1.181-1.969 4.331 1.969zM.787 16.93h10.237l-.394 1.181 4.725-3.543-4.725-3.15.394 1.181H.787v4.331zm0 9.449h10.237l-.394 1.181 4.725-3.15-4.725-3.543.394 1.181H.787v4.331zm30.316-3.937H41.34v1.575l4.725-4.331-4.725-3.937v1.575H31.103v5.118zm0 12.599H41.34v1.575l4.725-4.331-4.725-4.331v1.575H31.103v5.512zm-30.316.787h10.237l-.394 1.181 4.725-3.15-4.725-3.15.394 1.181H.787v3.937z" class="F"/></symbol><defs ><path id="C" d="M28.741 11.024l-4.331 1.969 1.181-1.969-1.181-1.969 4.331 1.969z"/></defs></svg>