<svg xmlns="http://www.w3.org/2000/svg" xmlns:xlink="http://www.w3.org/1999/xlink" viewBox="0 0 61 33" fill="#fff" fill-rule="evenodd" stroke="#000" stroke-linecap="round" stroke-linejoin="round"><use xlink:href="#A" x=".5" y=".5"/><symbol id="A" overflow="visible"><g stroke="#fff" stroke-linejoin="miter" fill="#036998" stroke-width=".787"><path d="M0 20.46V9.05h46.821v11.41H0z"/><path d="M46.821 20.46V9.05H0L11.804 0h44.854v9.836L46.821 20.46z"/></g><path d="M47.608 8.657L55.871.394z" stroke="none" fill="#036998"/><path d="M47.608 8.657L55.871.394" stroke="#fff" stroke-linejoin="miter" stroke-linecap="square" fill="none" stroke-width=".787"/><path d="M12.198 16.132H4.722v-2.361h7.476v2.361zm9.836 0h-7.476v-2.361h7.476v2.361zm9.836 0h-7.476v-2.361h7.476v2.361zm9.837 0h-7.476v-2.361h7.476v2.361z" stroke="none"/><path d="M59.801 20.466c.393 2.361-.393 5.115-2.754 7.476-1.967 2.361-4.721 3.148-7.476 3.148m9.049-11.017c.393 2.361-.394 4.721-2.361 7.082-1.967 1.967-4.721 3.148-7.082 2.754m8.263-10.23c.393 2.361-.394 4.721-1.967 6.689-1.967 1.967-4.328 2.754-6.689 2.754m7.869-9.443c0 1.967-.393 3.935-1.967 5.902-1.967 1.574-4.328 2.754-6.295 2.361m7.082-8.656c.394 1.574-.393 3.935-1.967 5.508s-3.541 2.361-5.508 1.967m6.294-7.869c.394 1.574-.393 3.541-1.574 5.115-1.574 1.574-3.148 1.967-5.115 1.967m5.509-7.082c.393 1.18 0 2.754-1.18 4.328-1.18 1.18-3.148 1.967-4.721 1.574m5.114-6.295c0 1.18-.393 2.754-1.574 3.935-.787 1.18-2.361 1.574-3.541 1.574" stroke-width=".787" fill="none" stroke="#036998"/></symbol></svg>