<svg xmlns="http://www.w3.org/2000/svg" xmlns:xlink="http://www.w3.org/1999/xlink" viewBox="0 0 60 48" fill="#fff" fill-rule="evenodd" stroke="#000" stroke-linecap="round" stroke-linejoin="round"><style><![CDATA[.B{stroke:none}.C{stroke:#fff}.D{stroke-linejoin:miter}.E{fill:#0e6f9c}.F{stroke-width:.787}]]></style><use xlink:href="#A" x=".5" y=".5"/><symbol id="A" overflow="visible"><use xlink:href="#C" class="B E"/><use xlink:href="#C" fill="none" class="C D F"/><use xlink:href="#D" class="B E"/><use xlink:href="#D" fill="none" class="C D F"/><use xlink:href="#E" class="B E"/><use xlink:href="#E" fill="none" class="C D F"/><use xlink:href="#F" class="B E"/><use xlink:href="#F" fill="none" class="C D F"/><path d="M22.447 6.3l2.362 3.544-9.056 2.362 1.969-1.969L3.942 7.875l3.544-2.362 13.387 1.969L22.447 6.3zm12.993 8.662l-1.969-3.544 8.268-1.575-1.181 1.181 13.387 2.362-3.15 2.756-13.78-2.756-1.575 1.575zM30.716 4.331l9.056-2.362.394 3.937-2.362-.394-4.331 3.544-4.331-.394 4.331-3.937-2.756-.394zm-3.937 14.174l-8.662 1.575-.394-3.937 2.756.394 4.725-3.937 4.331.788-5.119 4.331 2.362.787z" class="B"/><g fill="none" stroke-linecap="square" stroke-width=".394" class="C D"><path d="M22.447 11.812l7.875.394M6.304 10.631l7.875.787M2.761 7.087l6.3.787m.787-.394l-7.875 6.693"/><path d="M17.722 8.268l-11.024 9.45m19.686-9.056L12.998 20.08"/><path d="M9.848 14.962l8.268.394m26.774.394l7.875.394m-24.017-1.181l7.875.394m-4.331-3.937L20.085 21.655"/><path d="M40.952 11.812L28.747 22.049m20.08-9.449l-11.024 9.449m20.08-10.631l-7.481 7.481m-34.254-1.181l7.875.787m8.662.394l7.875.394M16.935 1.181L9.454 7.875M27.566 0l-9.843 8.662m30.711-3.544l5.512.787"/><path d="M36.622.394L23.235 11.812M44.103 1.575L31.11 12.206m18.899-8.268L39.772 12.6m15.749-5.512l-7.087 6.3"/><path d="M19.691 7.481l8.268.394m8.268.394l7.875.787m8.268.394l4.725.394"/></g></symbol><defs ><path id="C" d="M58.271 18.512c0 6.3-12.993 11.418-29.136 11.418S0 24.812 0 18.512v16.537c0 6.3 12.993 11.418 29.136 11.418s29.136-5.118 29.136-11.418z"/><path id="D" d="M29.136 29.93c16.143 0 29.136-5.118 29.136-11.418 0-5.906-12.993-11.024-29.136-11.024S0 12.606 0 18.512c0 6.3 12.993 11.418 29.136 11.418z"/><path id="E" d="M29.136 22.449c15.749 0 28.742-5.118 28.742-11.024 0-6.3-12.993-11.418-28.742-11.418S.394 5.125.394 11.425c0 5.906 12.993 11.024 28.742 11.024z"/><path id="F" d="M57.878 11.425c0 5.906-12.993 11.024-28.742 11.024S.394 17.331.394 11.425V19.3c0 6.3 12.993 11.024 28.742 11.024S57.878 25.599 57.878 19.3z"/></defs></svg>