<svg xmlns="http://www.w3.org/2000/svg" xmlns:xlink="http://www.w3.org/1999/xlink" viewBox="0 0 49 66" fill="#fff" fill-rule="evenodd" stroke="#000" stroke-linecap="round" stroke-linejoin="round"><style><![CDATA[.B{stroke:#fff}.C{stroke-linejoin:miter}.D{stroke-width:.787}.E{stroke:none}.F{stroke-linecap:square}.G{fill:none}.H{fill:#0e6f9c}]]></style><use xlink:href="#A" x=".5" y=".5"/><symbol id="A" overflow="visible"><g class="B C D H"><path d="M0 64.521V22.425h42.096v42.096H0z"/><path d="M47.211 59.407v-42.49l-5.114 5.508v42.096l5.114-5.115zM7.475 0L0 5.115h42.096L47.211 0H7.475z"/><path d="M0 22.426V5.115h42.096v17.311H0z"/><path d="M47.21 16.917V0l-5.114 5.115v17.311l5.115-5.508z"/></g><path d="M42.096 22.425H0z" class="E H"/><path d="M42.096 22.425H0" class="B C D F G"/><path d="M42.096 22.425l5.115-5.508z" class="E H"/><path d="M42.096 22.425l5.115-5.508" class="B C D F G"/><g class="E"><path d="M13.376 11.016V7.475H6.688v3.541h6.688zm15.737 0V7.475h6.688v3.541h-6.688zm-15.737 9.049v-3.541H6.688v3.541h6.688zm15.737 0v-3.541h6.688v3.541h-6.688z"/><path d="M11.409 9.442H32.26z" fill="#000"/></g><path d="M11.409 9.442H32.26" class="B C D F G"/><path d="M11.409 18.098H32.26z" fill="#000" class="E"/><path d="M11.409 18.098H32.26" class="B C D F G"/><path d="M10.229 18.097l22.032-8.655z" fill="#000" class="E"/><path d="M10.229 18.097l22.032-8.655" class="B C D F G"/><path d="M10.229 9.442l22.032 8.655z" fill="#000" class="E"/><path d="M10.229 9.442l22.032 8.655" class="B C D F G"/><g class="E"><path d="M22.032 37.376v-9.049h1.18l-1.967-3.541-2.36 3.541h1.574v9.049h1.574zm-4.721 1.18l-6.688-6.295 1.18-1.18-3.934-.787.787 3.934 1.18-1.18 6.295 6.688 1.18-1.18zm-2.36 4.328H5.902V41.31l-3.541 2.36 3.541 2.361v-1.574h9.049v-1.574zm1.18 4.721l-6.295 6.295-1.18-1.18-.787 4.328 3.934-.787-1.18-1.18 6.688-6.688-1.18-.787zm4.328 2.36v9.049h-1.574l2.36 3.541 1.967-3.541h-1.18v-9.049h-1.574zm4.721-1.574l6.295 6.688-1.18 1.18 4.328.787-1.18-4.328-.787 1.18-6.688-6.295-.787.787zm2.36-3.934h9.049v1.574l3.541-2.361-3.541-2.36v1.574H27.54v1.574zm-1.574-4.721l6.688-6.688.787 1.18 1.18-3.934-4.328.787 1.18 1.18-6.295 6.295.787 1.18z"/><path d="M26.748 51.152c4.328-2.754 5.115-8.655 2.36-12.983-3.147-4.328-9.049-5.508-13.376-2.361s-5.115 8.655-2.36 12.983c3.147 4.328 9.049 5.508 13.376 2.361z"/></g></symbol></svg>