<svg xmlns="http://www.w3.org/2000/svg" xmlns:xlink="http://www.w3.org/1999/xlink" viewBox="0 0 69 104" fill="#fff" fill-rule="evenodd" stroke="#000" stroke-linecap="round" stroke-linejoin="round"><style><![CDATA[.B{stroke:none}.C{stroke-linejoin:miter}.D{stroke-width:.787}.E{fill:none}.F{stroke:#fff}.G{stroke-linecap:square}.H{fill:#0e6a98}.I{fill:#126d99}]]></style><use xlink:href="#A" x=".5" y=".5"/><symbol id="A" overflow="visible"><path d="M13.775 61.792H0v40.539h13.775z" class="B I"/><g class="C D F"><path d="M13.775 61.792H0v40.539h13.775" class="E G"/><path d="M13.775 102.331l7.478-7.478V54.314H7.478L0 61.792h13.775v40.539z" class="I"/></g><path d="M13.775 61.792l7.478-7.478z" class="B H"/><path d="M13.775 61.792l7.478-7.478" class="C D E F G"/><path d="M41.326 11.414H13.775v90.917h27.551z" class="B I"/><g class="C D F"><path d="M41.326 11.414H13.775v90.917h27.551" class="E G"/><path d="M41.326 102.331L52.74 90.917V0H24.795l-11.02 11.414h27.551v90.917z" class="I"/></g><path d="M41.326 11.414L52.74 0z" class="B H"/><path d="M41.326 11.414L52.74 0" class="C D E F G"/><path d="M27.944 48.804v3.936h4.329z" class="B H"/><path d="M27.944 48.804v3.936h4.329" class="C D E F G"/><path d="M33.848 48.804v3.936h4.329z" class="B H"/><path d="M33.848 48.804v3.936h4.329" class="C D E F G"/><path d="M16.137 48.804v4.329h4.329z" class="B H"/><path d="M16.137 48.804v4.329h4.329" class="C D E F G"/><path d="M22.041 48.804v4.329h4.329z" class="B H"/><path d="M22.041 48.804v4.329h4.329" class="C D E F G"/><path d="M27.944 57.463v4.329h4.329z" class="B H"/><path d="M27.944 57.463v4.329h4.329" class="C D E F G"/><path d="M33.848 57.463v4.329h4.329z" class="B H"/><path d="M33.848 57.463v4.329h4.329" class="C D E F G"/><path d="M16.137 57.463v4.329h4.329z" class="B H"/><path d="M16.137 57.463v4.329h4.329" class="C D E F G"/><path d="M22.041 57.463v4.329h4.329z" class="B H"/><path d="M22.041 57.463v4.329h4.329m1.574 4.329v3.936h4.329m1.574-3.936v3.936h4.329m-22.041-3.936v4.329h4.329m1.574-4.329v4.329h4.329m-24.402-5.51v4.329h4.329m1.574-4.329v4.329h4.329m-9.84 3.936v3.936h4.329m1.574-3.936v3.936h4.329M2.362 80.291v4.329h4.329m1.574-4.329v4.329h4.329" class="C D E F G"/><path d="M28.338 15.743v4.329h3.936z" class="B H"/><path d="M28.338 15.743v4.329h3.936" class="C D E F G"/><path d="M34.242 15.743v4.329h3.936z" class="B H"/><path d="M34.242 15.743v4.329h3.936" class="C D E F G"/><path d="M16.137 16.137v3.936h4.329z" class="B H"/><path d="M16.137 16.137v3.936h4.329" class="C D E F G"/><path d="M22.041 16.137v3.936h4.329z" class="B H"/><path d="M22.041 16.137v3.936h4.329" class="C D E F G"/><path d="M28.338 24.796v4.329h3.936z" class="B H"/><path d="M28.338 24.796v4.329h3.936" class="C D E F G"/><path d="M34.242 24.796v4.329h3.936z" class="B H"/><path d="M34.242 24.796v4.329h3.936" class="C D E F G"/><path d="M16.137 24.796v4.329h4.329z" class="B H"/><path d="M16.137 24.796v4.329h4.329" class="C D E F G"/><path d="M22.041 24.796v4.329h4.329z" class="B H"/><path d="M22.041 24.796v4.329h4.329" class="C D E F G"/><path d="M28.338 33.061v4.329h3.936z" class="B H"/><path d="M28.338 33.061v4.329h3.936" class="C D E F G"/><path d="M34.242 33.061v4.329h3.936z" class="B H"/><path d="M34.242 33.061v4.329h3.936" class="C D E F G"/><path d="M16.137 33.454v3.936h4.329z" class="B H"/><path d="M16.137 33.454v3.936h4.329" class="C D E F G"/><path d="M22.041 33.454v3.936h4.329z" class="B H"/><path d="M22.041 33.454v3.936h4.329" class="C D E F G"/><path d="M28.338 40.933v4.329h3.936z" class="B H"/><path d="M28.338 40.933v4.329h3.936" class="C D E F G"/><path d="M34.242 40.933v4.329h3.936z" class="B H"/><path d="M34.242 40.933v4.329h3.936" class="C D E F G"/><path d="M16.137 40.933v4.329h4.329z" class="B H"/><path d="M16.137 40.933v4.329h4.329" class="C D E F G"/><path d="M22.041 40.933v4.329h4.329z" class="B H"/><path d="M22.041 40.933v4.329h4.329" class="C D E F G"/><path d="M44.081 51.953v4.329z" class="B H"/><path d="M44.081 51.953v4.329" class="C D E F G"/><path d="M44.081 59.037v4.329z" class="B H"/><path d="M44.081 59.037v4.329" class="C D E F G"/><path d="M56.676 25.583h-15.35v76.748h15.35z" class="B I"/><g class="C D F"><path d="M56.676 25.583h-15.35v76.748h15.35" class="E G"/><path d="M56.676 102.332l11.02-11.02V14.563h-15.35l-11.02 11.02h15.35v76.748z" class="I"/></g><path d="M44.081 29.125v4.329h4.329z" class="B H"/><path d="M44.081 29.125v4.329h4.329" class="C D E F G"/><path d="M49.985 29.125v4.329h4.329z" class="B H"/><path d="M49.985 29.125v4.329h4.329" class="C D E F G"/><path d="M44.081 37.39v3.936h4.329z" class="B H"/><path d="M44.081 37.39v3.936h4.329" class="C D E F G"/><path d="M49.985 37.39v3.936h4.329z" class="B H"/><path d="M49.985 37.39v3.936h4.329" class="C D E F G"/><path d="M44.081 44.475v4.329h4.329z" class="B H"/><path d="M44.081 44.475v4.329h4.329" class="C D E F G"/><path d="M49.985 44.475v4.329h4.329z" class="B H"/><path d="M49.985 44.475v4.329h4.329" class="C D E F G"/><path d="M44.081 56.282h4.329z" class="B H"/><path d="M44.081 56.282h4.329" class="C D E F G"/><path d="M49.985 51.953v4.329h4.329z" class="B H"/><path d="M49.985 51.953v4.329h4.329m-10.233 7.084h4.329" class="C D E F G"/><path d="M49.985 59.037v4.329h4.329z" class="B H"/><path d="M49.985 59.037v4.329h4.329" class="C D E F G"/><use xlink:href="#C" class="B"/><use xlink:href="#C" stroke="#126d99" class="C D E"/><use xlink:href="#D" class="B"/><use xlink:href="#D" stroke="#126d99" class="C D E"/><g class="B"><path d="M29.912 80.29l1.574 1.181-3.936.787.787-.787-7.084-1.181.787-.393 7.084.787.787-.394zm9.84 3.149l-1.968-.787 3.936-.787-.787.787 7.084 1.181-.394.394-7.478-1.181-.394.394zm-2.361-5.117l3.542-1.574-.394 1.968h-1.181l-2.755 1.968h-.787l2.755-2.362H37.39zm-5.117 7.085l-3.542 1.574.394-1.574h1.181l2.755-2.362.787.394-2.361 1.968h.787z" class="I"/><path d="M56.676 25.583l11.02-11.02z" class="H"/></g><path d="M56.676 25.583l11.02-11.02" class="C D E F G"/></symbol><defs ><path id="C" d="M50.767 81.871c0 3.542-7.084 6.297-16.137 6.297-8.659 0-16.137-2.755-16.137-6.297v9.446c0 3.542 7.478 6.297 16.137 6.297 9.052 0 16.137-2.755 16.137-6.297z"/><path id="D" d="M34.631 88.169c9.052 0 16.137-2.755 16.137-6.297 0-3.149-7.084-5.904-16.137-5.904-8.659 0-16.137 2.755-16.137 5.904 0 3.542 7.478 6.297 16.137 6.297z"/></defs></svg>