<svg xmlns="http://www.w3.org/2000/svg" xmlns:xlink="http://www.w3.org/1999/xlink" viewBox="0 0 63 70" fill="#fff" fill-rule="evenodd" stroke="#000" stroke-linecap="round" stroke-linejoin="round"><use xlink:href="#A" x=".5" y=".5"/><symbol id="A" overflow="visible"><g stroke="none" fill="#126d99"><path d="M46.862 4.332l-3.938-1.575-5.119 3.938 3.15 3.15.394-.394.788.788h.788l.394-.788h.394v-.788l.394.394.394-.788.788.394.394-.394V6.301l.788-.394.394-1.575zm.394 29.141l1.575-1.969.788.394 2.757.788.788 2.363h-1.181l-.394 1.181-.788-.394-.788 1.181-.394-1.181h-.788l-.788-1.969-.788-.394zm-34.26-10.239l-1.575.788-.394.788-2.363 1.969.394.394 1.969-1.181-1.969 1.969.394.394 1.969-1.181-1.575 2.363.394.394 1.575-1.969-.394 1.969h.788l1.181-2.757h.394l.787 1.575h.788l-.788-2.363.394-1.969-1.969-1.181zM48.831 36.23h.394v.788l-.394 1.575-.788-.788v-.788l.788-.788z"/><path d="M53.162 33.866l1.181.788v1.181l-.788.394v-1.181l-.394-1.181zm4.726 1.181l-14.177 4.726 2.757 9.845 2.363 1.969 12.995-5.119-1.575-10.239-2.363-1.181zm-9.845 29.141l-1.575 1.575-2.363-.394-.394 1.969.394 1.575h3.15l.788-.394 1.969.394h3.938l1.181-.394-.394-1.181-3.938-.788-1.969-1.575-.788-.788zM6.301 56.313l-1.181-1.969.788-2.363-1.575-.788H2.363l-.788 3.15.394.788-1.181 1.575L0 60.644l.394 1.575 1.181-.394 1.575-3.544 1.969-1.969h1.181zm15.358-22.446l-1.969-1.575 3.938-6.694 1.575-9.845-3.938 2.363-3.544 6.301-4.332-2.363 4.332-8.663L27.96 7.088l8.27.394 4.726 3.544 3.938 5.513-1.575 1.575-.394 7.482 5.907 5.119-3.938 3.15-6.694-5.907v7.482z"/><path d="M38.198 35.441l6.301 10.633 5.513 15.752-6.694 1.969-5.119-14.177-7.876-11.42-4.332 12.208L9.845 57.1l-2.757-5.513 12.208-4.725.394-1.575h1.181l1.575-8.663-.788-2.757 16.539 1.575z"/><path d="M21.265 33.473l11.026 3.544 5.119-2.363zM46.862 4.332h1.181l-.788-1.969L43.711 0h-2.363L39.38 1.181l-1.575 5.513 1.575-1.575 1.969-.788.394.394 1.181.788.788-1.969 3.15.787z"/></g></symbol></svg>