<svg xmlns="http://www.w3.org/2000/svg" xmlns:xlink="http://www.w3.org/1999/xlink" viewBox="0 0 249 407" fill="#fff" fill-rule="evenodd" stroke="#000" stroke-linecap="round" stroke-linejoin="round"><style><![CDATA[.B{stroke:#fff}.C{stroke:none}.D{fill:none}.E{stroke-width:3}]]></style><use xlink:href="#C" x=".5" y=".5"/><defs><radialGradient id="A" cx="50%" cy="50%" r="50%" fx="29.6%" fy="26.0%"><stop offset="0%" stop-color="#fff"/><stop offset="100%"/></radialGradient><path id="B" d="M230 151.5c0-9.141 1.673-16.5 3.75-16.5s3.75 7.359 3.75 16.5-1.673 16.5-3.75 16.5-3.75-7.359-3.75-16.5z"/></defs><symbol id="C" overflow="visible"><g class="B"><path d="M0 25h220v110H0z" fill="#ce1530"/><g fill="#0f6b98"><path d="M179 135h41v25h-41z"/><path d="M145 135h35v25l-35 25z"/></g><g fill="#476398"><path d="M145 185l34-25h41v25z"/><path d="M0 185h220v220H0z"/></g></g><g class="C"><path d="M122.5 377.5L110 395l-12.5-17.5h7.5V215h-7.5l12.5-17.5 12.5 17.5H115v162.5z"/><path d="M28.75 308.75l-17.5-12.5 17.5-12.5v7.5h162.5v-7.5l17.5 12.5-17.5 12.5v-7.5H28.75z"/><path d="M61.45 362.56l-21.2 3.54 3.54-21.2 5.3 5.3 114.9-114.9-5.3-5.3 21.2-3.54-3.54 21.2-5.3-5.3-114.9 114.9z"/><path d="M43.77 247.66l-3.54-21.2 21.2 3.54-5.3 5.3 114.9 114.9 5.3-5.3 3.54 21.2-21.2-3.54 5.3-5.3-114.9-114.9z"/></g><path d="M60 296.25A51.14 51.14 0 0 1 111.25 245a51.14 51.14 0 1 1 0 102.5A51.14 51.14 0 0 1 60 296.25z" fill="url(#A)"/><g class="B"><path d="M220 185l27.5-25v220L220 405z" fill="#2b417c"/><g fill="#476398"><path d="M72.5 135H145v50H72.5zM0 135h15v15H0z"/><path d="M0 150h15v20H0z"/><path d="M0 170h15v15H0zm15-35h12.5v25H15z"/><path d="M15 160h12.5v25H15z"/><path d="M27.5 150h15v20h-15z"/><path d="M27.5 170h15v15h-15zm0-35h15v15h-15z"/><path d="M42.5 135h15v25h-15z"/><path d="M42.5 160h15v25h-15zm15-25h15v15h-15z"/><path d="M57.5 150h15v20h-15z"/><path d="M57.5 170h15v15h-15z"/></g><path d="M77.5 162.5h18.25" class="D E"/></g><path d="M102.505 162.5l-7.5 6v-12z" class="C"/><path d="M112.5 157.5l16.88-11.26" class="B D E"/><path d="M135 142.5l-2.913 9.152-6.656-9.985z" class="C"/><path d="M112.5 167.5l16.6 9.22" class="B D E"/><path d="M134.999 179.995l-9.47 1.603 5.827-10.49z" class="C"/><path d="M115 162.5h18.25" class="B D E"/><path d="M140.005 162.5l-7.5 6v-12z" class="C"/><g class="B"><path d="M220 135l27.5-25v50L220 185z" fill="#2b417c"/><g class="D"><use xlink:href="#B"/><use xlink:href="#B" x="-70"/><path d="M164 135h70m-70 33h70"/><path d="M164 146h57.5"/></g></g><path d="M226 146l-5 4v-8z" class="C"/><path d="M226 157h-57.5" class="B D"/><path d="M164 157l5-4v8z" class="C"/><g class="B"><path d="M114.95 79.02l41.3-16.52H200v-25h-50v23.08l-40 16.4-45-18.46V37.5H15v25h48.75l41.3 16.52L65 95.45V92.5H15v25h50V99l45-18 40 16v20.5h50v-25h-50v.9z"/><path d="M220 135l27.5-25V0L220 25z" fill="#790b15"/><path d="M220 25l27.5-25H30L0 25z" fill="#e43f5c"/></g></symbol></svg>