<svg xmlns="http://www.w3.org/2000/svg" xmlns:xlink="http://www.w3.org/1999/xlink" viewBox="0 0 75 56" fill="#fff" fill-rule="evenodd" stroke="#000" stroke-linecap="round" stroke-linejoin="round"><use xlink:href="#A" x=".5" y=".5"/><symbol id="A" overflow="visible"><use xlink:href="#C" stroke="none"/><use xlink:href="#C" stroke-linejoin="miter" fill="none" stroke-width=".394"/><g stroke="none"><path d="M37.009 39.772c20.473 0 36.615-15.355 36.615-19.292 0-3.543-16.536-6.693-36.615-6.693C16.536 13.787 0 16.937 0 20.48c0 3.937 16.93 19.292 37.009 19.292z" fill="#126d99"/><use xlink:href="#C"/></g><g stroke-linejoin="miter" fill="none" stroke-width=".787"><use xlink:href="#C" stroke="#126d99"/><path d="M27.166 15.362c-5.512.394-10.63 1.181-14.961 1.969m15.355-.395c-5.512.394-10.236 1.181-14.174 1.968m14.567-.393c-5.512.394-10.236 1.181-13.386 2.362m14.173-.393c-5.118.394-9.843 1.181-12.992 2.362m13.387-.787c-5.118.394-9.055 1.575-12.205 2.756m12.992-.788c-3.937.394-7.48 1.181-9.843 2.362m10.237-.393c-1.575 0-3.15.394-4.724.787" stroke="#0e6a98" stroke-linecap="square"/><path d="M.004 21.261L37.013 2.756l36.615 17.717" stroke="#126d99" stroke-linecap="square"/></g><g stroke="none"><path d="M37.403 7.487c1.181 0 2.362-.394 2.362-1.181s-1.181-1.181-2.362-1.181c-1.575 0-2.756.394-2.756 1.181s1.181 1.181 2.756 1.181z" fill="#0e6a98"/><g fill="#126d99"><path d="M37.407 0l-.787 25.985h1.575L37.407 0zm9.449 44.096v-3.937H29.139v3.937h17.717z"/><path d="M32.678 43.709h11.024v7.48l-11.024 3.543V43.709z"/></g></g></symbol><defs ><path id="C" d="M37.009 27.567c20.079 0 36.615-3.15 36.615-7.087 0-3.543-16.536-6.693-36.615-6.693C16.536 13.787 0 16.937 0 20.48c0 3.937 16.536 7.087 37.009 7.087z"/></defs></svg>