<svg xmlns="http://www.w3.org/2000/svg" xmlns:xlink="http://www.w3.org/1999/xlink" viewBox="0 0 102 35" fill="#fff" fill-rule="evenodd" stroke="#000" stroke-linecap="round" stroke-linejoin="round"><style><![CDATA[.B{stroke:none}.C{fill:#126d99}.D{stroke:#fff}.E{stroke-linejoin:miter}.F{fill:none}.G{stroke-width:.788}.H{stroke-linecap:square}]]></style><use xlink:href="#A" x=".5" y=".5"/><symbol id="A" overflow="visible"><path d="M100.046 2.757v1.969l-21.27 7.878-9.453-1.575-9.847-1.969V6.302z" class="B C"/><path d="M100.046 2.757v1.969l-21.27 7.878-9.453-1.575-9.847-1.969V6.302" class="D E F G H"/><use xlink:href="#C" class="B C"/><use xlink:href="#C" class="D E F G"/><path d="M69.717 8.272l9.059 1.576 21.27-7.09L81.533 0 59.476 6.302l6.302 1.182z" class="B C"/><path d="M69.717 8.272l9.059 1.576 21.27-7.09L81.533 0 59.476 6.302l6.302 1.182" class="D E F G H"/><use xlink:href="#D" class="B C"/><use xlink:href="#D" class="D E F G"/><use xlink:href="#E" class="B C"/><use xlink:href="#E" class="D E F G H"/><use xlink:href="#F" class="B C"/><use xlink:href="#F" class="D E F G"/><use xlink:href="#G" class="B C"/><use xlink:href="#G" class="D E F G H"/><path d="M41.751 21.27v2.363l-22.057 7.878L0 26.784v-2.757z" class="B C"/><path d="M41.751 21.27v2.363l-22.057 7.878L0 26.784v-2.757" class="D E F G H"/><path d="M34.662 20.088l7.09 1.182-22.057 7.09L0 24.027l23.239-6.696 5.121 1.182z" class="B C"/><path d="M34.662 20.088l7.09 1.182-22.057 7.09L0 24.027l23.239-6.696 5.121 1.182" class="D E F G H"/><use xlink:href="#H" class="B C"/><use xlink:href="#H" class="D E F G H"/><use xlink:href="#I" class="B C"/><use xlink:href="#I" class="D E F G H"/><path d="M33.869 20.094h-.394.394z" class="B C"/><path d="M33.869 20.094h-.394.394z" class="D E F G"/></symbol><defs ><path id="C" d="M50.412 33.486c2.757 0 5.12-.788 5.12-1.969s-2.363-2.363-5.12-2.363-4.727 1.182-4.727 2.363 1.969 1.969 4.727 1.969z"/><path id="D" d="M68.136 8.672c6.696-1.575 7.877-3.151 7.877-3.151-1.969-1.182-9.847 1.969-9.847 1.969l-1.576.394z"/><path id="E" d="M65.773 7.491l-6.302-1.182L81.528.007l18.512 2.757-21.269 7.09-9.059-1.182c5.12-1.575 6.302-3.151 6.302-3.151-1.969-1.182-9.059 1.576-9.059 1.576l-6.302 1.969v3.545l8.271-2.757.394-1.182"/><path id="F" d="M68.924 8.278c0 .394 0 0 0 0 0-.394 0 0 0 0z"/><path id="G" d="M40.565.401v26.39c0 2.363 4.333 4.333 9.847 4.333s10.241-1.969 10.241-4.333V.007"/><path id="H" d="M28.355 18.125c-4.727 1.575-6.696 3.939-6.696 3.939 7.484 0 12.604-1.969 12.604-1.969"/><path id="I" d="M27.961 18.519l16.149-4.726c2.363 0 2.363 1.969 2.363 1.969 0 1.182-1.969 1.576-1.969 1.576l-10.635 2.757"/></defs></svg>