<svg xmlns="http://www.w3.org/2000/svg" xmlns:xlink="http://www.w3.org/1999/xlink" viewBox="0 0 61 57" fill="#fff" fill-rule="evenodd" stroke="#000" stroke-linecap="round" stroke-linejoin="round"><use xlink:href="#A" x=".5" y=".5"/><symbol id="A" overflow="visible"><g stroke="#fff" stroke-linejoin="miter" fill="#126d99" stroke-width=".787"><path d="M19.279 22.034h32.264L56.264 0h-30.69l-6.295 22.034z"/><path d="M19.279 22.034l3.541 6.295h32.264l-3.541-6.295H19.279z"/><path d="M56.264 0l3.148 5.902-4.328 22.427-3.541-6.295L56.264 0zM0 49.576h24.788l23.214-27.149H24.788L0 49.576z"/><path d="M0 49.576l3.148 6.295h24.788l-3.148-6.295H0z"/><path d="M48.002 22.427l3.148 6.295-23.214 27.149-3.148-6.295 23.214-27.148z"/></g><g stroke="none"><path d="M24.001 25.181h2.361l-1.574 1.574h-2.361l1.574-1.574zm-3.935 5.902l3.148-.787-1.967 1.967-1.574-1.18zm8.263-5.902h2.754l-1.967 1.574h-2.361l1.574-1.574zm4.328 0h2.754l-1.574 1.574h-2.754l1.574-1.574zm4.721 0h2.361l-1.18 1.574h-2.754l1.574-1.574zM18.886 35.804h2.754l-1.967 1.967h-2.361l1.574-1.967zm4.721 0h2.361l-1.574 1.967H21.64l1.967-1.967zm4.328 0h2.361l-1.18 1.967h-2.754l1.574-1.967zm-13.771 5.115h2.361l-1.574 1.967H12.59l1.574-1.967zm4.328 0h2.361l-1.18 1.967h-2.754l1.574-1.967zm4.328 0h2.754L24 42.886h-2.361l1.18-1.967zM42.1 25.181h2.361l-1.574 1.574h-2.754l1.967-1.574zm-6.295 5.508l1.574.787-3.148.787 1.574-1.574zm-4.333.401c-.393.787-2.361 1.574-4.328 1.574-1.574 0-2.754-.787-2.361-1.574s2.361-1.574 4.328-1.574 2.754.787 2.361 1.574z"/><use xlink:href="#C" fill="#126d99"/></g><use xlink:href="#C" stroke="#fff" stroke-linejoin="miter" fill="none" stroke-width=".787"/></symbol><defs ><path id="C" d="M46.816 17.318c-.394.787-1.574 1.574-2.361 1.574H27.537c-1.18 0-1.574-.787-1.574-1.574l3.541-12.59c0-.787 1.18-1.574 2.361-1.574h16.918c.787 0 1.574.787 1.18 1.574z"/></defs></svg>