<svg xmlns="http://www.w3.org/2000/svg" xmlns:xlink="http://www.w3.org/1999/xlink" viewBox="0 0 43 42" fill="#fff" fill-rule="evenodd" stroke="#000" stroke-linecap="round" stroke-linejoin="round"><use xlink:href="#A" x=".5" y=".5"/><symbol id="A" overflow="visible"><path d="M36.634 3.545H0L4.333 0h36.634l-4.333 3.545z" stroke="none" fill="#00b4ff"/><g stroke="#fff" stroke-linejoin="miter" stroke-width=".788"><path d="M41.361 37.028l-4.727 3.545V3.545L41.361 0v37.028z" fill="#00476d"/><path d="M36.634 40.573H0V3.545h36.634v37.028z" fill="#0096d5"/></g><g stroke="none"><path d="M18.51 21.278l-.394.394h-5.121l-.394-.394v-5.121c0-.394.394-.394.394-.394h5.121s.394 0 .394.394zm6.696 0h-4.333v-3.939h4.333zm-8.273 5.908v.394h-3.939v-4.333h3.939v.394zm7.485 1.182h-4.727v-5.121h4.727v.394zm-10.63-18.126h-7.09v16.15h3.545V13.787h3.545v-3.545zm5.121 0v3.545h8.666v9.454h3.545V10.242H18.908zm8.666 17.726v3.151H6.697v3.545H31.12v-6.696h-3.545z" fill="#000"/><path d="M17.722 20.884h-5.515v-5.515h5.515zm6.696 0h-3.939v-3.939h3.939zm-7.878 5.908h-3.939v-3.939h3.939zm7.484.788v.394h-4.727s-.394 0-.394-.394v-4.333c0-.394.394-.394.394-.394h4.727v.394z"/><path d="M22.055 24.823v.394h-5.909s-.394 0-.394-.394v-5.515l.394-.394h5.909v.394z" fill="#000"/><use xlink:href="#C"/></g><use xlink:href="#C" stroke-linejoin="miter" fill="none" stroke-width=".394"/><path d="M13.394 9.848h-7.09v16.15h3.151V12.999h3.939V9.848zm4.727 0v3.151h9.06v9.848h3.545V9.848H18.12zm9.06 17.726v3.151H6.303v3.151h24.423v-6.303H27.18z" stroke="none"/></symbol><defs ><path id="C" d="M21.661 24.429s0 .394-.394.394h-5.515c-.394 0-.394-.394-.394-.394v-5.515c0-.394 0-.394.394-.394h5.515c.394 0 .394 0 .394.394z"/></defs></svg>