<svg xmlns="http://www.w3.org/2000/svg" xmlns:xlink="http://www.w3.org/1999/xlink" viewBox="0 0 43 43" fill="#fff" fill-rule="evenodd" stroke="#000" stroke-linecap="round" stroke-linejoin="round"><style><![CDATA[.B{stroke:#fff}.C{stroke-linejoin:miter}.D{stroke-width:.788}.E{stroke:none}.F{stroke-linecap:square}.G{fill:none}.H{fill:#0f6998}]]></style><use xlink:href="#A" x=".5" y=".5"/><symbol id="A" overflow="visible"><g fill="#126a98" class="B C D"><path d="M34.27 41.361V6.697H0v34.664h34.27z"/><path d="M34.271 6.697H.394L8.666 0h32.695v34.27l-7.09 7.09V6.697z"/></g><path d="M34.27 6.697L41.36 0z" fill="#126a98" class="E"/><path d="M34.27 6.697L41.36 0" class="B C D F G"/><path d="M4.727 15.757h27.574z" class="E H"/><path d="M4.727 15.757h27.574" class="B C D F G"/><path d="M3.545 24.029h27.574z" class="E H"/><path d="M3.545 24.029h27.574" class="B C D F G"/><path d="M2.364 32.301h27.574z" class="E H"/><path d="M2.364 32.301h27.574" class="B C D F G"/><path d="M6.303 36.634l5.515-25.998z" class="E H"/><path d="M6.303 36.634l5.515-25.998" class="B C D F G"/><path d="M23.635 36.634l5.909-25.998z" class="E H"/><path d="M23.635 36.634l5.909-25.998" class="B C D F G"/><path d="M14.969 36.634l5.515-25.998z" class="E H"/><path d="M14.969 36.634l5.515-25.998" class="B C D F G"/><g class="E"><use xlink:href="#C"/><use xlink:href="#D"/><use xlink:href="#C" x="17.726" y="0.394"/><path d="M10.631 24.035c0 .788-.788 1.576-1.969 1.576s-1.97-.788-1.97-1.576.788-1.182 1.97-1.182 1.97.394 1.97 1.182z"/><use xlink:href="#D" x="-1.969" y="9.06"/><use xlink:href="#E"/><use xlink:href="#E" x="-19.696" y="8.272"/><path d="M18.115 32.307c0 .788-1.182 1.576-2.363 1.576s-1.97-.788-1.97-1.576.788-1.576 1.97-1.576 2.363.788 2.363 1.576z"/><use xlink:href="#D" x="5.121" y="16.938"/></g></symbol><defs ><path id="C" d="M12.994 15.763c0 .788-1.182 1.182-2.363 1.182s-1.97-.394-1.97-1.182.788-1.576 1.97-1.576 2.363.788 2.363 1.576z"/><path id="D" d="M21.66 15.369c0 .788-.788 1.576-1.97 1.576s-2.363-.788-2.363-1.576 1.182-1.576 2.363-1.576 1.97.788 1.97 1.576z"/><path id="E" d="M28.751 24.035c0 .788-1.182 1.576-2.363 1.576s-1.969-.788-1.969-1.576.788-1.576 1.97-1.576 2.363.788 2.363 1.576z"/></defs></svg>