<svg xmlns="http://www.w3.org/2000/svg" xmlns:xlink="http://www.w3.org/1999/xlink" viewBox="0 0 40 50" fill="#fff" fill-rule="evenodd" stroke="#000" stroke-linecap="round" stroke-linejoin="round"><use xlink:href="#A" x=".5" y=".5"/><symbol id="A" overflow="visible"><g fill="#007eba"><path d="M38.588 0l-4.331 5.119H0L5.513 0h33.075zm-4.331 5.119V22.05l4.331-4.725V.394l-4.331 4.725z" stroke="#fff" stroke-linejoin="miter" stroke-width=".788"/><path d="M34.256 48.825V21.656H0v27.169z" stroke="none"/></g><g stroke="#fff" stroke-linejoin="miter" stroke-width=".788"><path d="M34.256 48.825V21.656H0v27.169" stroke-linecap="square" fill="none"/><path d="M0 5.119v16.538h34.256V5.119H0zm38.588 39.375V17.325l-4.331 4.725v26.775l4.331-4.331z" fill="#007eba"/></g><g stroke="none"><path d="M17.719 38.588v5.906h.788l-1.575 1.969-1.181-1.969h.788v-5.906h1.181zm-3.15-.788l-4.331 3.938.787.788-2.756.394.788-2.363.394.394 4.331-3.937.788.787zm-1.575-2.756H7.087v.788l-2.362-1.575 2.363-1.181v.787h5.906v1.181zm.787-3.15L9.45 27.563l-.394.787-.788-2.756 2.756.788-.787.787 4.331 3.937-.788.787zm2.756.394V20.869h-.788l1.181-1.969 1.575 1.969h-.788v11.419h-1.181zm3.15-1.181l3.938-3.937-.394-.787 2.362-.788-.394 2.756-.788-.787-4.331 4.331-.394-.787zm1.575 2.756h5.906v-.787l1.969 1.181-1.969 1.575v-.788h-5.906v-1.181zm-1.181 3.15l4.331 3.938.788-.394.394 2.363-2.362-.394.394-.788-3.937-3.937.394-.787z"/><path d="M20.47 29.538c3.15 1.969 3.544 5.512 1.575 8.269-1.969 3.15-5.512 3.544-8.269 1.575s-3.544-5.512-1.575-8.269 5.513-3.544 8.269-1.575zm-3.932-18.907h9.056V9.45l3.15 1.969-3.15 1.575v-.787h-9.056v-1.575zm0 5.512h9.056v-1.181l3.15 1.969-3.15 1.969v-1.181h-9.056v-1.575zm.394-8.269H7.875v-1.18L5.119 8.663l2.756 1.969V9.45h9.056V7.875zm0 5.513H7.875V12.6l-2.756 1.575 2.756 1.969v-.787h9.056v-1.969z"/></g><path d="M33.863 48.825H0M38.588.394l-4.331 4.725m-.394 16.537H0m38.194-3.937l-3.937 3.938" stroke="#fff" fill="none" stroke-width=".788"/></symbol></svg>