<svg xmlns="http://www.w3.org/2000/svg" xmlns:xlink="http://www.w3.org/1999/xlink" viewBox="0 0 56 38" fill="#fff" fill-rule="evenodd" stroke="#000" stroke-linecap="round" stroke-linejoin="round"><use xlink:href="#A" x=".5" y=".5"/><symbol id="A" overflow="visible"><g stroke="#fff" stroke-linejoin="miter" fill="#046897" stroke-width=".787"><path d="M47.992 36.191V6.294H0v29.897h47.992z"/><path d="M47.992 6.294H0L7.474 0h46.812v29.897l-6.294 5.901V6.294z"/></g><path d="M47.992 5.901L54.286 0z" stroke="none" fill="#000"/><path d="M47.992 5.901L54.286 0" stroke="#fff" stroke-linejoin="miter" stroke-linecap="square" fill="none" stroke-width=".787"/><g stroke="none"><path d="M12.195 19.276v3.54z"/><path d="M7.081 33.437h5.507l6.294-6.687h5.901l6.294 6.294h10.621v-4.327h-8.261l-6.294-6.294h-8.261l-5.901-6.294H7.081v-.787l-2.754 2.36 2.36 2.36v-.787h5.114v3.934h-4.72v-.787l-2.36 2.36 2.36 2.36v-.787h4.72v3.934h-4.72v-.787l-2.36 2.36 2.36 2.36v-.787zM40.518 8.654h-5.507l-6.294 6.294h-5.901l-5.901-6.294H5.901v4.327h8.261l6.294 6.294h8.261l6.294 6.294h5.901v.787l2.36-2.36-2.36-2.36v.787h-5.114l.393-3.934h4.327v.787l2.754-2.36-2.36-2.36v.787h-4.721v-3.934h4.327v.787l2.754-2.36-2.36-2.36v1.18z"/></g></symbol></svg>