<svg xmlns="http://www.w3.org/2000/svg" xmlns:xlink="http://www.w3.org/1999/xlink" viewBox="0 0 31 49" fill="#fff" fill-rule="evenodd" stroke="#000" stroke-linecap="round" stroke-linejoin="round"><use xlink:href="#A" x=".5" y=".5"/><symbol id="A" overflow="visible"><g stroke="#fff" stroke-linejoin="miter" fill="#0e6f9c" stroke-width=".787"><path d="M25.179 47.997V3.934H0v44.063h25.179z"/><path d="M0 3.934L4.721 0h24.392l-3.934 3.934H0z"/><path d="M25.179 47.998l3.934-4.721V0l-3.934 3.934v44.064z"/></g><path d="M0 21.245h25.179z" stroke="none" fill="#0c6d9c"/><g stroke="#fff" stroke-linejoin="miter" stroke-linecap="square" fill="none"><path d="M0 21.245h25.179" stroke-width=".787"/><path d="M0 45.244h25.179" stroke-width=".393"/></g><path d="M10.622 35.408v3.541H9.048l3.147 3.541 2.754-3.541h-1.18v-3.541h-3.147zm0-3.147V28.72H9.048l3.147-3.541 2.754 3.541h-1.18v3.541h-3.147zm-7.475.393h3.541V31.08l3.934 3.147-3.934 2.754v-1.574H3.147v-2.754zm17.704 0H17.31V31.08l-3.541 3.147 3.541 2.754v-1.574h3.541v-2.754z" stroke="none"/><g stroke="#fff" stroke-linejoin="miter" stroke-width=".787"><path d="M13.77 11.803V7.082H1.967v4.721H13.77z" fill="#0e6f9c"/><path d="M3.147 9.442h9.442" stroke-linecap="square" fill="none"/></g></symbol></svg>