<svg xmlns="http://www.w3.org/2000/svg" xmlns:xlink="http://www.w3.org/1999/xlink" viewBox="0 0 59 40" fill="#fff" fill-rule="evenodd" stroke="#000" stroke-linecap="round" stroke-linejoin="round"><style><![CDATA[.B{stroke:none}.C{stroke-linejoin:miter}.D{fill:none}.E{stroke:#fff}.F{stroke-width:.394}.G{fill:#036c9b}.H{stroke-width:.788}]]></style><use xlink:href="#A" x=".5" y=".5"/><symbol id="A" overflow="visible"><use xlink:href="#C" class="B G"/><use xlink:href="#C" class="C D E H"/><use xlink:href="#D" class="B G"/><use xlink:href="#D" class="C D E H"/><use xlink:href="#C" class="B G"/><use xlink:href="#C" class="C D E H"/><use xlink:href="#E" class="B G"/><use xlink:href="#E" class="C D E H"/><g class="B"><path d="M22.448 6.687l2.362 3.544-9.056 1.969 1.969-1.575L3.548 8.262l3.544-2.756 13.387 2.363 1.969-1.181zm12.6 8.662l-1.575-3.544 7.875-1.575-1.181 1.181 13.388 2.362-3.15 2.363-13.388-2.363-1.969 1.575zM30.323 4.719l9.45-2.362v3.938l-2.363-.787-4.331 3.938-4.331-.788 4.725-3.544-3.15-.394zm-3.544 14.175l-9.056 1.575v-3.937l2.363.394 4.725-3.937 4.331.394-5.119 4.725 2.756.788z"/><use xlink:href="#F" fill="#156287"/></g><use xlink:href="#F" stroke="#8ec9e0" stroke-width="1.181" class="C D"/><use xlink:href="#G" class="B"/><use xlink:href="#G" class="C D E F"/><use xlink:href="#H" class="B"/><use xlink:href="#H" class="C D E F"/><use xlink:href="#I" class="B"/><use xlink:href="#I" class="C D E F"/><use xlink:href="#I" x="-2.363" class="B"/><use xlink:href="#I" x="-2.363" class="C D E F"/><use xlink:href="#J" class="B"/><use xlink:href="#J" class="C D E F"/><use xlink:href="#K" class="B"/><use xlink:href="#K" class="C D E F"/><use xlink:href="#I" x="-8.663" class="B"/><use xlink:href="#I" x="-8.663" class="C D E F"/><use xlink:href="#L" class="B"/><use xlink:href="#L" class="C D E F"/><use xlink:href="#I" x="-12.994" class="B"/><use xlink:href="#I" x="-12.994" class="C D E F"/><use xlink:href="#I" x="-14.963" class="B"/><use xlink:href="#I" x="-14.963" class="C D E F"/><use xlink:href="#K" x="-10.631" class="B"/><use xlink:href="#K" x="-10.631" class="C D E F"/><use xlink:href="#I" x="-19.294" class="B"/><use xlink:href="#I" x="-19.294" class="C D E F"/><use xlink:href="#H" y="8.662" class="B"/><use xlink:href="#H" y="8.662" class="C D E F"/><use xlink:href="#I" y="8.662" class="B"/><use xlink:href="#I" y="8.662" class="C D E F"/><use xlink:href="#I" x="-2.363" y="8.662" class="B"/><use xlink:href="#I" x="-2.363" y="8.662" class="C D E F"/><use xlink:href="#J" y="8.662" class="B"/><use xlink:href="#J" y="8.662" class="C D E F"/><use xlink:href="#K" y="8.662" class="B"/><use xlink:href="#K" y="8.662" class="C D E F"/><use xlink:href="#I" x="-8.663" y="8.662" class="B"/><use xlink:href="#I" x="-8.663" y="8.662" class="C D E F"/><use xlink:href="#L" y="8.662" class="B"/><use xlink:href="#L" y="8.662" class="C D E F"/><use xlink:href="#I" x="-12.994" y="8.662" class="B"/><use xlink:href="#I" x="-12.994" y="8.662" class="C D E F"/><use xlink:href="#I" x="-14.963" y="8.662" class="B"/><use xlink:href="#I" x="-14.963" y="8.662" class="C D E F"/><use xlink:href="#K" x="-10.631" y="8.662" class="B"/><use xlink:href="#K" x="-10.631" y="8.662" class="C D E F"/><use xlink:href="#I" x="-19.294" y="8.662" class="B"/><use xlink:href="#I" x="-19.294" y="8.662" class="C D E F"/><use xlink:href="#G" x="-5.513" class="B"/><use xlink:href="#G" x="-5.513" class="C D E F"/><use xlink:href="#G" x="-11.419" class="B"/><use xlink:href="#G" x="-11.419" class="C D E F"/><use xlink:href="#G" x="-16.931" class="B"/><use xlink:href="#G" x="-16.931" class="C D E F"/></symbol><defs ><path id="C" d="M57.881 11.025c0 6.3-12.994 11.419-29.137 11.419C12.994 22.444 0 17.325 0 11.025v16.537c0 6.3 12.994 11.419 28.744 11.419 16.144 0 29.137-5.119 29.137-11.419z"/><path id="D" d="M28.744 22.444c16.144 0 29.137-5.119 29.137-11.419S44.887 0 28.744 0C12.994 0 0 4.725 0 11.025s12.994 11.419 28.744 11.419z"/><path id="E" d="M28.743 22.444c16.144 0 29.137-5.119 29.137-11.419S44.887 0 28.743 0C12.994 0 0 4.725 0 11.025s12.994 11.419 28.743 11.419z"/><path id="F" d="M16.148 24.406h25.988v11.813H16.148V24.406z"/><path id="G" d="M35.836 27.556h3.544v5.119h-3.544v-5.119z"/><path id="H" d="M39.38 25.194h1.181v1.181H39.38v-1.181z"/><path id="I" d="M37.411 25.194h1.181v1.181h-1.181v-1.181z"/><path id="J" d="M33.08 25.194h1.181v1.181H33.08v-1.181z"/><path id="K" d="M31.111 25.194h.788v1.181h-.788v-1.181z"/><path id="L" d="M26.78 25.194h1.181v1.181H26.78v-1.181z"/></defs></svg>