<svg xmlns="http://www.w3.org/2000/svg" xmlns:xlink="http://www.w3.org/1999/xlink" viewBox="0 0 86 33" fill="#fff" fill-rule="evenodd" stroke="#000" stroke-linecap="round" stroke-linejoin="round"><use xlink:href="#A" x=".5" y=".5"/><symbol id="A" overflow="visible"><g fill="#0084c0"><path d="M65.726 30.305V18.104H0v12.201h65.726z" stroke="none"/><g stroke="#fff" stroke-linejoin="miter" stroke-width=".787"><path d="M64.152 29.911v-9.839H1.181v9.839h62.971zM0 18.498L22.434 0h62.184L65.726 18.498H0z"/><path d="M65.726 31.092l18.891-18.891V0L65.726 18.104v12.988z"/></g></g><g stroke="none"><path d="M7.872 26.37H3.936v-3.148h3.936v3.148zm25.188 0h-3.936v-3.148h3.936v3.148zm29.518 0h-3.936v-3.148h3.936v3.148z"/><use xlink:href="#C" fill="#0084c0"/></g><use xlink:href="#C" stroke="#fff" stroke-linejoin="miter" stroke-linecap="square" fill="none" stroke-width=".394"/><use xlink:href="#D" stroke="none"/><use xlink:href="#D" stroke="#fff" stroke-linejoin="miter" fill="none" stroke-width=".394"/></symbol><defs ><path id="C" d="M49.192 19.685c2.361 1.181 3.936 2.755 3.936 4.723 0 3.149-3.936 5.904-8.658 5.904s-8.265-2.755-8.265-5.904 3.542-5.51 8.265-5.51a14.68 14.68 0 0 1 4.723.787"/><path id="D" d="M51.16 24.407c0 2.361-3.149 4.329-6.297 4.329-3.542 0-6.691-1.968-6.691-4.329s3.148-4.329 6.691-4.329c3.148 0 6.297 1.968 6.297 4.329z"/></defs></svg>