<svg xmlns="http://www.w3.org/2000/svg" xmlns:xlink="http://www.w3.org/1999/xlink" viewBox="0 0 43 67" fill="#fff" fill-rule="evenodd" stroke="#000" stroke-linecap="round" stroke-linejoin="round"><use xlink:href="#A" x=".5" y=".5"/><symbol id="A" overflow="visible"><g stroke="none" fill="#126d99"><path d="M11.02 7.478L.394 7.084 0 7.872l2.755 9.052 11.414-.393.393-.787-3.542-8.265zM24.796 0l4.329 3.149-.787 1.181.393 1.968.787 1.574 3.936 1.968.787-2.361-1.181-.787.394-1.574L31.093.394 24.796 0zm.394 1.574l-1.181 1.968-.394 1.968-1.181-2.755 2.755-1.181z"/><path d="M24.402 2.756l.787.787V2.362l.394.394.394.787.787.394v-.787l.394-.393.393.393.787.394v-.394h.787L25.976.394h-1.968l-.394.787.787 1.574zm.394 6.297h1.968zm-1.181-3.936v3.149h-.787l-.787-.787.787-1.574.394-1.574.393.787zm-8.659 11.414L3.542 17.711l-.787.394.394 1.574 5.117 1.968 11.414-1.181.394-1.574-5.116-2.361z"/><path d="M13.382 14.956l-9.052.393-2.361-7.084h8.659l2.755 6.691zm-.393 6.691l-.787-1.968-1.574-1.181v.394l-1.968-.787v.787l-1.181-.394.393.787-.787-.394.787 1.574 1.181.787 2.361 1.181 1.574-.787zm2.755 11.02l-4.723 1.181-.787 1.574v2.755l2.361 11.02v4.329l-1.574 2.361h3.542l1.968-1.181.787-.394v-1.968l-1.181-2.362-.394-1.968.394-5.117-.394-3.149v-7.084z"/><path d="M16.924 51.559h-.787l-1.181 1.181-1.574 1.968-1.574.394.787-.787-1.574 1.181-2.361 1.181v.394l2.755.394 1.968.394 1.181-.787 1.181-1.968.393 2.755h.394l1.181-3.149V52.74l-.787-1.181z"/><path d="M21.647 32.667l-5.51.787-.787 1.574-.394 1.574 3.936 11.02v4.329l-1.574 2.362h3.542l1.968-1.181.787-.394v-1.968l-1.181-2.361-.394-1.968v-5.117l-.394-3.149v-5.51z"/><path d="M23.221 49.985h-.787l-1.181 1.181-1.574 1.968-1.574.394.394-.787-1.181 1.181-2.361 1.181v.394l4.723.787 1.181-.787.787-1.574.787 2.361h.394l1.181-3.149v-1.968l-.787-1.181zm7.084-39.358l-4.329 1.181-3.936.393-3.149 1.181-1.181 1.181 1.181 5.51-1.181 1.968H16.53l-.394.787-1.968-1.574h-1.574l-1.574 1.181.394 2.362 4.723 3.149 3.542.394 1.574-1.181-1.968 4.723-3.542 1.181-1.574 3.149 1.574 4.329 7.872 1.574 4.329.394 3.936-.394 2.361-1.968.394-1.968.394-1.574.787-1.181-1.181-3.542-.394-3.936h1.181l1.968-.787 1.574-12.201-1.181-1.968-3.542-1.574-3.936-.787z"/><path d="M24.008 2.362l1.968-.394 3.542 1.181.787 5.51-.394 2.361-4.329 1.181-1.968-2.361-.394-3.149.787-4.329zm11.02 34.635l-1.574-.787-1.574 1.574-4.329.787-4.723-1.968-3.542-4.723-3.542 1.181-1.574 3.149 1.574 4.329 10.627 1.968 5.51-.393 2.362-1.968.787-3.149z"/><path d="M23.615 8.265l1.181 1.968.787.787h.787v1.968l-1.574.787h-.394l-2.361.394-1.181-.394-.787-1.181.787.394.394-.394-.787-.394-.394-.787v-.787l.787.394h.787l-.394-.394v-.393l.787-.394.394-.394v-.787l.393-1.181.787.787zm6.297 0v.787l-.394.394h-.787l.394.394h.787v.787l-.787.394-.787-.394.394.787h1.574v.394l-.394.787-.787.394.787.394h.787l-.393.394v1.181l.787-.394.394-.787.394.787.787.394 1.574.394h1.181l1.181-.394v-.787h-1.181l.787-.787.394-1.181-.394-.394-.787.787v-1.181h-1.181l.394-.787V9.052l-.787.787-.787-.394.394-.394v-.787l-.394-.394v.394h-.787v-.787H30.7l-.787.787z"/><path d="M29.907 13.782l-1.181 1.574-1.181-1.574s-.787 1.968-1.181 1.181l-.394-1.181-.787.787s-1.968.394-1.574 0 .394-1.181.394-1.181l3.149-3.149h3.936zM27.152 43.3l-.394 7.084-9.446 2.361c-1.574-.394-1.968 1.574-1.968 1.574V55.5h.787l-.394 1.181c.787 1.574 1.968.394 1.968.394l.393-1.574 7.478-2.755-6.691 5.117c-1.181 1.968-.394 3.936-.394 3.936-.787 1.574.787 3.149.787 3.149 1.968 1.181 1.968-1.574 1.968-1.574.394-1.574-1.181-1.574-1.181-1.574l-.394-1.181 8.265-7.084 9.839 6.691.394 1.181c-1.181 1.968.787 2.755.787 2.755 2.755.787 1.574-1.574 1.574-1.574.393-1.181-.787-1.574-.787-1.574l-.787-.787s-.394.394.393-.394c.787-.394 0-2.361 0-2.361l-9.052-5.117 6.691 1.574 1.181 1.181c0 1.968 1.574 1.574 1.574 1.574 1.574 0 .787-1.968.787-1.968-.787-.394-1.181-.787-1.181-.787l-.787-1.181-3.936-1.181-5.51-1.181v-6.297"/><path d="M24.791 45.268l-12.594-4.329c-.787-.787 0-2.361 0-2.361l12.595 3.936m9.051-.394l-8.659 3.542v-7.478c6.297-16.924 7.478-16.924 7.478-16.924 2.361-1.181 2.755-1.181 2.755-1.181 3.149 0 4.329-1.181 4.329-1.181.787-.787 1.968.394 1.968.394z"/></g></symbol></svg>