<svg xmlns="http://www.w3.org/2000/svg" xmlns:xlink="http://www.w3.org/1999/xlink" viewBox="0 0 68 35" fill="#fff" fill-rule="evenodd" stroke="#000" stroke-linecap="round" stroke-linejoin="round"><use xlink:href="#A" x=".5" y=".5"/><symbol id="A" overflow="visible"><g stroke="#fff" stroke-linejoin="miter" fill="#0e6f9c" stroke-width=".787"><path d="M58.61 15.734L66.477 0H12.194L0 15.734h58.61z"/><path d="M66.477 14.554V0L58.61 15.734v17.308l7.867-18.488z"/><path d="M58.61 33.042V15.734H0v17.307h58.61z"/><path d="M9.834 30.681v-3.54h-3.54v3.54h3.54zm5.114 0v-3.54h-3.54v3.54h3.54zm5.114 0v-3.54h-3.54v3.54h3.54zm5.114 0v-3.54h-3.54v3.54h3.54zm5.113 0v-3.54h-3.54v3.54h3.54zm5.114 0v-3.54h-3.54v3.54h3.54zm5.114 0v-3.54h-3.54v3.54h3.54zm5.113 0v-3.54h-3.54v3.54h3.54zm5.114 0v-3.54h-3.54v3.54h3.54z"/></g><g stroke="none"><path d="M49.169 7.081l1.967-1.967 3.934 2.36-7.867 1.967 1.573-1.573H33.435l.393-.787h15.341z"/><path d="M34.615 7.08l-.393.787H18.881L17.308 9.44l-4.327-1.967 8.654-2.753-2.36 2.36h15.341z"/></g></symbol></svg>