<svg xmlns="http://www.w3.org/2000/svg" xmlns:xlink="http://www.w3.org/1999/xlink" viewBox="0 0 74 42" fill="#fff" fill-rule="evenodd" stroke="#000" stroke-linecap="round" stroke-linejoin="round"><style><![CDATA[.B{fill:#126d99}.C{stroke-linejoin:miter}.D{stroke-width:.787}.E{stroke-linecap:square}]]></style><use xlink:href="#A" x=".5" y=".5"/><symbol id="A" overflow="visible"><g stroke="#fff" class="B C D"><path d="M69.646 36.594V0H2.754v36.594h66.892z"/><path d="M36.2 35.806V14.165h-6.689v21.641H36.2z"/><path d="M42.496 35.806V14.165h-6.296v21.641h6.296zm1.967 1.574v-1.574h-16.92v1.574h16.92z"/><path d="M45.644 38.955v-1.574H26.757v1.574h18.887z"/><path d="M46.431 40.528v-1.574H25.97v1.574h20.461z"/></g><path d="M32.659 23.609h1.967z" stroke="none" class="B"/><path d="M32.659 23.609h1.967" stroke="#fff" fill="none" class="C D E"/><path d="M39.348 23.609h-1.574z" stroke="none" class="B"/><g stroke="#fff" class="C D"><path d="M39.348 23.609h-1.574" fill="none" class="E"/><path d="M70.433 3.148l1.574 3.541H0l1.574-3.541h68.859zM22.428 27.937v-18.1H9.444v18.1h12.985zm40.135 0v-18.1H49.578v18.1h12.985z" class="B"/></g></symbol></svg>