<svg xmlns="http://www.w3.org/2000/svg" xmlns:xlink="http://www.w3.org/1999/xlink" viewBox="0 0 44 49" fill="#fff" fill-rule="evenodd" stroke="#000" stroke-linecap="round" stroke-linejoin="round"><style><![CDATA[.B{stroke:none}.C{stroke-linejoin:miter}.D{fill:none}.E{stroke-width:.787}.F{stroke:#0c6d9c}.G{stroke-linecap:square}]]></style><use xlink:href="#A" x=".5" y=".5"/><symbol id="A" overflow="visible"><use xlink:href="#C" class="B"/><use xlink:href="#C" class="C D E F G"/><g fill="#0e6f9c" class="B"><use xlink:href="#D"/><use xlink:href="#E"/><use xlink:href="#F"/></g><g stroke="#fff" class="C E"><g fill="#0c6d9c"><use xlink:href="#D"/><use xlink:href="#E"/><use xlink:href="#F"/></g><g class="D"><use xlink:href="#D"/><use xlink:href="#E"/><use xlink:href="#F"/></g></g><path d="M35.413 41.31h5.508v-5.508h-5.508z" class="B"/><path d="M35.413 41.31h5.508v-5.508h-5.508" class="C D E F G"/><path d="M7.48 11.409H.792v5.114h6.295z" class="B"/><path d="M7.48 11.409H.792v5.114h6.295" class="C D E F G"/><use xlink:href="#G" class="B"/><use xlink:href="#G" class="C D E F G"/><use xlink:href="#H" class="B"/><use xlink:href="#H" class="C D E F G"/><use xlink:href="#I" class="B"/><use xlink:href="#I" class="C D E F G"/></symbol><defs ><path id="C" d="M7.475 36.201h-1.18C.787 36.201 0 31.087 0 31.087v5.114s.787 5.114 6.295 5.114h1.18"/><path id="D" d="M31.872 47.997V3.934H6.299v44.063h25.573z"/><path id="E" d="M6.299 3.934L11.02 0h24.786l-3.934 3.934H6.299z"/><path id="F" d="M31.872 47.998l3.934-4.721V0l-3.934 3.934v44.064z"/><path id="G" d="M34.621 16.531h.787c5.901 0 6.688 5.114 6.688 5.114v-5.114s-.787-5.114-6.688-5.114h-1.18"/><path id="H" d="M42.096 16.137v6.295c-.787 7.475-13.77 7.082-13.77 7.082v5.508l-8.655-8.655 8.655-8.655v5.508s13.376.393 13.77-7.082"/><path id="I" d="M0 36.595V30.3c.393-7.475 9.442-7.081 9.442-7.081v-5.508l8.655 8.655-8.655 8.655v-5.508S.393 29.12 0 36.595"/></defs></svg>