<svg xmlns="http://www.w3.org/2000/svg" xmlns:xlink="http://www.w3.org/1999/xlink" viewBox="0 0 47 43" fill="#fff" fill-rule="evenodd" stroke="#000" stroke-linecap="round" stroke-linejoin="round"><style><![CDATA[.B{fill:#0e6a98}.C{stroke:#fff}.D{stroke-linejoin:miter}.E{stroke-width:.788}.F{stroke:none}.G{fill:none}.H{stroke-linecap:square}]]></style><use xlink:href="#A" x=".5" y=".5"/><symbol id="A" overflow="visible"><g class="B"><path d="M6.696 36.631v-5.908h32.693v5.908H6.696z" class="C D E"/><path d="M45.297 24.815v6.302l-5.908 5.515v-5.908H6.302z" class="F"/></g><path d="M45.297 24.815v6.302l-5.908 5.515v-5.908H6.302" class="C D E G H"/><path d="M6.696 24.815h38.601z" class="B F"/><path d="M6.696 24.815h38.601" class="C D E G H"/><path d="M39.389 30.723l5.908-5.908z" class="B F"/><g class="C D E"><path d="M39.389 30.723l5.908-5.908" class="G H"/><g class="B"><path d="M39.389 30.33V5.515H6.302V30.33h33.087z"/><path d="M39.389 30.33l5.908-5.514V0H12.21L6.302 5.515h33.087V30.33zm-2.757-2.757V8.272H9.453v19.301h27.178z"/></g></g><path d="M39.389 5.515L45.297 0z" class="B F"/><g class="C D E"><path d="M39.389 5.515L45.297 0" class="G H"/><g class="B"><path d="M37.813 41.359V37.42H0l4.333-4.333h37.813v3.939l-4.333 4.333z"/><path d="M37.813 37.42v3.939H0V37.42h37.813z"/></g></g><path d="M37.813 37.42l4.333-4.333z" class="B F"/><path d="M37.813 37.42l4.333-4.333" class="C D E G H"/><use xlink:href="#C" class="B F"/><use xlink:href="#C" class="C D E G"/><path d="M17.725 19.695l-6.302 3.545z" class="B F"/><path d="M17.725 19.695l-6.302 3.545" class="C D E G H"/><path d="M33.48 11.029l-6.302 3.545z" class="B F"/><path d="M33.48 11.029l-6.302 3.545" class="C D E G H"/></symbol><defs ><path id="C" d="M22.053 14.186s2.757-1.575 5.121-1.182l.394 1.576 1.576 2.363 5.908-3.151-1.575-2.757-1.969-.788s-5.12-.394-11.029 2.363l-.788.394c-5.12 3.151-7.878 7.878-7.878 7.878l-.394 1.969 1.576 2.757 5.908-3.151-2.363-3.545c.788-2.363 3.939-3.939 3.939-3.939z"/></defs></svg>