<svg xmlns="http://www.w3.org/2000/svg" xmlns:xlink="http://www.w3.org/1999/xlink" viewBox="0 0 51 59" fill="#fff" fill-rule="evenodd" stroke="#000" stroke-linecap="round" stroke-linejoin="round"><style><![CDATA[.B{stroke-width:.787}.C{stroke:none}.D{stroke-linejoin:miter}.E{stroke-linecap:square}.F{fill:none}.G{stroke:#fff}.H{fill:#126d99}.I{fill:#0e6a98}.J{stroke:#126d99}]]></style><use xlink:href="#A" x=".5" y=".5"/><symbol id="A" overflow="visible"><path d="M24.392 18.884H0V57.44h24.392z" class="C H"/><g class="B D G"><path d="M24.392 18.884H0V57.44h24.392" class="E F"/><path d="M24.392 57.44l7.475-7.868V11.016H7.869L0 18.885h24.392V57.44z" class="H"/></g><path d="M24.392 18.885l7.475-7.868z" fill="#000" class="C"/><path d="M24.392 18.885l7.475-7.868" class="B D E F G"/><path d="M.393 33.834h23.605z" class="C I"/><path d="M.393 33.834h23.605" class="B D E F G"/><path d="M.393 51.539h23.605z" class="C I"/><path d="M.393 51.539h23.605" class="B D E F G"/><path d="M5.901 24.786h7.082z" class="C I"/><g class="B D G"><path d="M5.901 24.786h7.082" class="E F"/><path d="M15.343 27.147v-5.114H3.147v5.115h12.196z" class="H"/></g><path d="M49.572 0l-.787.393H18.098L18.885 0h30.687zm0 30.294V0l-.787.787V31.08l.787-.787z" class="C I"/><g class="B D G"><path d="M19.278 31.08h29.507V.393H18.098V29.9l1.18 1.18z" class="H"/><g class="F"><path d="M46.419.4v17.704c0 1.574-1.18 1.18-1.18 1.18H21.24s-.787 0-.787-.787V.4" class="E"/><path d="M20.065 3.541v-1.18h-1.574v1.18h1.574zm28.327 0v-1.18h-1.574v1.18h1.574z"/></g></g><use xlink:href="#C" class="C"/><g class="D"><g class="B F"><use xlink:href="#C" stroke="#0e6a98"/><path d="M46.419 31.087v-8.655s0-1.18-1.18-1.18H24.387s-1.18 0-1.18.787v8.655" class="E G"/></g><path d="M30.294 30.294v-8.262h-3.541v8.262h3.541z" class="B G H"/></g><path d="M39.337 16.136c3.147-3.541 3.147-8.655 0-12.196-3.147-3.147-8.655-3.147-11.803 0-3.147 3.541-3.147 8.655 0 12.196 3.147 3.147 8.655 3.147 11.803 0z" class="C"/><g class="B D E F"><path d="M48.785.787L49.572 0" class="G"/><path d="M32.261 8.655l-3.934-3.934" class="J"/></g><path d="M34.228 13.376l2.361-2.754-2.754-.393.393 3.147zm-3.934-4.328l2.36-2.361.394 2.754-2.754-.393z" class="C H"/><path d="M38.949 15.344l-3.934-3.934m-.787-2.36l2.754-2.754" class="B D E F J"/><path d="M35.802 5.114l2.361 2.361.393-2.754-2.754.393zm-7.475 7.082l2.754 2.754-2.754.393v-3.147z" class="C H"/><path d="M29.507 13.769l3.147-3.147" class="B D E F J"/></symbol><defs ><path id="C" d="M41.304 22.431v8.655H23.207v-9.049c0-.787 1.18-.787 1.18-.787h16.13c1.18 0 .787 1.18.787 1.18z"/></defs></svg>