<svg xmlns="http://www.w3.org/2000/svg" xmlns:xlink="http://www.w3.org/1999/xlink" viewBox="0 0 101 54" fill="#fff" fill-rule="evenodd" stroke="#000" stroke-linecap="round" stroke-linejoin="round"><style><![CDATA[.B{fill:none}.C{stroke-width:.787}.D{stroke:none}.E{fill:#036998}.F{stroke:#fff}.G{stroke-linejoin:miter}.H{stroke-linecap:square}]]></style><use xlink:href="#A" x=".5" y=".5"/><symbol id="A" overflow="visible"><path d="M69.244 42.097c.394 2.361-.787 5.115-3.147 7.082-2.361 2.361-5.508 3.148-7.869 2.754m9.836-10.229c.394 2.361-.787 4.721-2.754 6.688-2.361 1.967-5.115 2.754-7.475 2.36m9.442-9.442c0 2.361-.787 4.721-2.754 6.295-1.967 1.967-4.721 2.754-6.688 1.967m8.262-8.655c0 1.967-.787 4.328-2.361 5.901-1.967 1.574-4.328 2.361-6.295 1.967m7.476-8.261c.394 1.967-.393 3.934-1.967 5.508-1.967 1.574-3.934 1.967-5.901 1.574m7.08-7.082c0 1.574-.787 3.148-2.361 4.328-1.18 1.574-3.147 1.967-5.115 1.574m6.296-6.296c0 1.18-.393 2.754-1.967 3.934-1.18 1.18-3.147 1.967-4.328 1.574m5.115-5.901c.393 1.18-.393 2.361-1.574 3.541s-2.754 1.574-3.934 1.18" stroke="#036998" class="B C"/><path d="M.004 30.682v-2.361l21.246-7.475 9.442 1.574 9.836 1.967v2.754z" class="D E"/><path d="M.004 30.682v-2.361l21.246-7.475 9.442 1.574 9.836 1.967v2.754" class="B C F G H"/><use xlink:href="#C" class="D E"/><use xlink:href="#C" class="B C F G"/><path d="M30.299 24.78L21.25 23.6.004 30.682l18.492 2.754 22.032-6.295-6.295-1.18z" class="D E"/><path d="M30.299 24.78L21.25 23.6.004 30.682l18.492 2.754 22.032-6.295-6.295-1.18" class="B C F G H"/><use xlink:href="#D" class="D E"/><use xlink:href="#D" class="B C F G"/><use xlink:href="#E" class="D E"/><use xlink:href="#E" class="B C F G H"/><path d="M31.081 24.786v.393-.393z" class="D E"/><path d="M31.081 24.786v.393-.393z" class="B C F G"/><use xlink:href="#F" class="D E"/><use xlink:href="#F" class="B C F G H"/><path d="M58.233 12.19V9.83l22.032-7.869 19.672 4.721v2.754z" class="D E"/><path d="M58.233 12.19V9.83l22.032-7.869 19.672 4.721v2.754" class="B C F G H"/><path d="M65.315 13.37l-7.082-1.18 22.032-7.082 19.672 4.328-23.213 6.688-5.508-1.18z" class="D E"/><path d="M65.315 13.37l-7.082-1.18 22.032-7.082 19.672 4.328-23.213 6.688-5.508-1.18" class="B C F G H"/><use xlink:href="#G" class="D E"/><use xlink:href="#G" class="B C F G H"/><use xlink:href="#H" class="D E"/><use xlink:href="#H" class="B C F G H"/><path d="M66.097 13.377z" class="D E"/><path d="M66.097 13.377z" class="B C F G"/><use xlink:href="#I" class="D E"/><use xlink:href="#I" class="B C F G"/><use xlink:href="#J" class="D E"/><use xlink:href="#J" class="B C F G"/><path d="M52.331 42.091l-1.18-1.574 3.541-.787-.787.787 5.508.787-1.18 1.18-5.508-1.18-.393.787zm-5.115-3.541l.393 1.574-3.148.393.787-.393-5.508-.787 1.18-1.18 5.508 1.18.787-.787zm1.574 4.328l-3.541.787v-1.574l.787.393 1.967-1.574 1.574.393-1.967 1.18 1.18.394zm1.574-5.508l3.541-.787v1.574l-.787-.393-1.967 1.574h-1.574l1.967-1.967h-1.18z" class="D"/></symbol><defs ><path id="C" d="M49.573 0c-2.754 0-5.115.787-5.115 1.967s2.361 2.361 5.115 2.361c2.361 0 4.721-1.18 4.721-2.36S51.933 0 49.573 0z"/><path id="D" d="M31.868 24.393c-6.688 1.967-7.869 3.541-7.869 3.541 1.967 1.18 9.836-1.967 9.836-1.967l1.574-.393z"/><path id="E" d="M34.229 25.967l6.295 1.18-22.032 6.295L0 30.688l21.245-7.082 9.049 1.18c-5.115 1.574-6.295 3.148-6.295 3.148 1.967 1.18 9.049-1.574 9.049-1.574l6.295-1.967v-3.541l-8.262 2.754-.393 1.18"/><path id="F" d="M59.408 33.049V6.689c0-2.36-4.328-4.328-9.836-4.328S39.343 4.328 39.343 6.689v26.36"/><path id="G" d="M71.605 14.951c4.721-1.18 6.688-3.541 6.688-3.541-7.475 0-12.59 1.967-12.59 1.967"/><path id="H" d="M71.998 14.951l-16.524 4.721c-1.967 0-1.967-1.967-1.967-1.967 0-1.18 1.967-1.574 1.967-1.574l10.623-2.754"/><path id="I" d="M38.163 40.13c0-2.361 5.115-4.328 11.41-4.328s11.41 1.967 11.41 4.328v-6.295c0-2.754-5.115-4.721-11.41-4.721s-11.41 1.967-11.41 4.721z"/><path id="J" d="M49.573 35.802c-6.295 0-11.41 1.967-11.41 4.328s5.115 4.721 11.41 4.721 11.41-2.36 11.41-4.721-5.115-4.328-11.41-4.328z"/></defs></svg>