<svg xmlns="http://www.w3.org/2000/svg" xmlns:xlink="http://www.w3.org/1999/xlink" viewBox="0 0 41 72" fill="#fff" fill-rule="evenodd" stroke="#000" stroke-linecap="round" stroke-linejoin="round"><style><![CDATA[.B{stroke:none}.C{fill:#126d99}.D{stroke:#fff}.E{stroke-linejoin:miter}.F{fill:none}.G{stroke-width:.788}.H{stroke-linecap:square}]]></style><use xlink:href="#A" x=".5" y=".5"/><symbol id="A" overflow="visible"><use xlink:href="#C" class="B C"/><use xlink:href="#C" class="D E F G H"/><use xlink:href="#D" class="B C"/><use xlink:href="#D" class="D E F G H"/><use xlink:href="#E" class="B C"/><use xlink:href="#E" class="D E F G"/><use xlink:href="#F" class="B C"/><use xlink:href="#F" class="D E F G"/><use xlink:href="#G" class="B C"/><use xlink:href="#G" class="D E F G H"/><use xlink:href="#H" class="B C"/><use xlink:href="#H" class="D E F G H"/><use xlink:href="#I" class="B C"/><use xlink:href="#I" class="D E F G H"/><use xlink:href="#J" class="B C"/><use xlink:href="#J" class="D E F G H"/></symbol><defs ><path id="C" d="M10.631 28.744C7.481 29.532 0 32.288 0 36.225s7.875 7.087 11.025 7.875"/><path id="D" d="M27.956.788c-2.756 0-13.387 9.844-16.144 20.869-1.575 5.119-.788 11.025-.788 15.75 0 3.937-.787 8.269.788 12.994 2.756 10.237 13.781 19.294 16.931 19.294"/><path id="E" d="M29.531 70.087c5.513 0 9.844-15.75 9.844-35.043S35.043 0 29.531 0s-9.844 15.75-9.844 35.043 4.331 35.043 9.844 35.043z"/><path id="F" d="M37.8 30.319c0-1.575-1.969-2.363-3.937-2.363-2.362 0-3.937-1.575-3.937.788v14.175c0 2.362 1.969.394 3.937.394 2.362 0 3.938-1.181 3.938-2.362z"/><path id="G" d="M23.231 59.849l6.3-10.631c1.181-1.969 1.969.394 3.938 1.575 2.362 1.181 3.15 3.15 2.362 4.725l-5.119 8.662c-.788 1.181-3.15 1.181-5.119 0-.394 0-.788-.394-1.181-.394"/><path id="H" d="M20.869 50.006c.787 1.181 1.181 1.969 2.362 1.969 2.756 0 5.512-7.087 5.512-15.75s-2.756-15.75-5.512-15.75c-1.181 0-1.969 1.181-3.15 3.15"/><path id="I" d="M20.081 44.1h2.363c4.331 0 4.331-3.544 4.331-7.875s0-7.875-4.331-7.875h-2.362"/><path id="J" d="M23.625 9.057l5.906 10.237c1.181 1.969 1.969-.394 3.937-1.969 2.362-1.181 3.15-3.15 2.362-4.331l-5.119-9.056c-.788-1.181-2.756-1.181-4.725 0"/></defs></svg>