<svg xmlns="http://www.w3.org/2000/svg" xmlns:xlink="http://www.w3.org/1999/xlink" viewBox="0 0 50 46" fill="#fff" fill-rule="evenodd" stroke="#000" stroke-linecap="round" stroke-linejoin="round"><style><![CDATA[.B{stroke:#fff}.C{stroke-linejoin:miter}.D{stroke-width:.787}.E{stroke:none}.F{stroke-linecap:square}.G{fill:none}.H{fill:#0e6a98}.I{fill:#126d99}.J{stroke-width:1.574}]]></style><use xlink:href="#A" x=".5" y=".5"/><symbol id="A" overflow="visible"><g class="B C D I"><path d="M0 44.08l11.807-5.51h36.209l-11.807 5.51H0z"/><path d="M0 5.51L11.807 0v38.57L0 44.08V5.51z"/><path d="M11.807 0h36.209v38.57H11.807V0z"/><path d="M0 5.51L11.807 0h36.209L36.209 5.51H0z"/></g><path d="M16.924 11.414h20.072z" class="E H"/><path d="M16.924 11.414h20.072" class="B C D F G"/><path d="M16.924 35.815h20.072z" class="E H"/><g class="B C D"><path d="M16.924 35.815h20.072" class="F G"/><path d="M26.763 21.647l7.872-2.361-7.872-2.361v4.723z"/><path d="M36.209 5.51L48.016 0v38.57l-11.807 5.51V5.51z" class="I"/></g><use xlink:href="#C" class="E I"/><use xlink:href="#C" class="B C D F G"/><use xlink:href="#D" class="E H"/><use xlink:href="#D" class="B C D F G"/><path d="M35.028 27.55h-8.265z" class="E H"/><path d="M35.028 27.55h-8.265" class="B C F G J"/><path d="M18.498 19.285h8.265z" class="E H"/><g class="B C"><path d="M18.498 19.285h8.265" class="F G J"/><path d="M27.157 25.189l-7.872 2.755 7.872 2.362v-5.117z" class="D"/></g></symbol><defs ><path id="C" d="M42.107 11.814c1.181 0 3.936 4.723 3.936 11.414 0 6.297-2.755 11.414-3.936 11.414-1.574 0-3.542-5.116-3.542-11.414 0-6.691 1.968-11.413 3.542-11.413"/><path id="D" d="M16.919 11.42c1.181 0 4.329 5.116 4.329 12.201 0 6.691-3.149 12.201-4.329 12.201s-3.936-5.51-3.936-12.201c0-7.084 2.755-12.201 3.936-12.201"/></defs></svg>