<svg xmlns="http://www.w3.org/2000/svg" xmlns:xlink="http://www.w3.org/1999/xlink" viewBox="0 0 34 48" fill="#fff" fill-rule="evenodd" stroke="#000" stroke-linecap="round" stroke-linejoin="round"><style><![CDATA[.B{fill:#0e6f9c}.C{stroke:none}.D{stroke:#fff}.E{stroke-linejoin:miter}.F{stroke-width:.787}.G{stroke-linecap:square}]]></style><use xlink:href="#A" x=".5" y=".5"/><symbol id="A" overflow="visible"><path d="M24.805 7.481H0V46.46h24.805z" class="B C"/><g class="D E F"><path d="M24.805 7.481H0V46.46h24.805" fill="none" class="G"/><path d="M24.805 46.46l7.875-7.875V0H9.843L0 7.481h24.805V46.46z" class="B"/></g><path d="M24.805 7.481L32.68 0z" class="B C"/><path d="M24.805 7.481L32.68 0" fill="none" class="D E F G"/><path d="M12.206 7.481V46.46z" class="B C"/><path d="M12.206 7.481V46.46" fill="none" class="D E F G"/><path d="M12.599 7.481L21.261 0z" class="B C"/><g class="D E F"><path d="M12.599 7.481L21.261 0" fill="none" class="G"/><path d="M10.631 16.142v-5.118H1.969v5.118h8.662zm11.812 0v-5.118h-8.268v5.118h8.268zM10.631 35.042v-5.118H1.969v5.118h8.662zm11.812 0v-5.118h-8.268v5.118h8.268zM10.631 43.31v-5.119H1.969v5.119h8.662zm11.812 0v-5.119h-8.268v5.119h8.268z" class="B"/></g></symbol></svg>