<svg xmlns="http://www.w3.org/2000/svg" xmlns:xlink="http://www.w3.org/1999/xlink" viewBox="0 0 19 48" fill="#fff" fill-rule="evenodd" stroke="#000" stroke-linecap="round" stroke-linejoin="round"><use xlink:href="#A" x=".5" y=".5"/><symbol id="A" overflow="visible"><g stroke="none"><path d="M0 26.367h3.935L0 46.831h5.51l3.148-14.954s1.968 11.806 2.755 14.954h5.509c-.393-1.574-3.148-18.889-3.542-20.464h3.935c0-.787-.787-5.509-.787-6.69s-.787-5.903-1.181-7.084-2.361-2.361-3.148-2.755c-1.181-.393-3.148-.393-4.329-.393s-2.361.393-3.542.787c-.787 0-1.968 1.574-2.361 2.361 0 .787-.394 3.542-.787 5.116-.394 1.181-.394 6.296-.787 7.084S0 26.367 0 26.367z" fill="#126d99"/><use xlink:href="#C"/></g><use xlink:href="#C" stroke="#fff" stroke-linejoin="miter" stroke-linecap="square" fill="none" stroke-width=".394"/><use xlink:href="#D" stroke="none"/><use xlink:href="#D" stroke="#126d99" stroke-linejoin="miter" fill="none" stroke-width=".787"/></symbol><defs ><path id="C" d="M11.019 9.445H7.084c-.394 0-1.574.393-1.574.393h-.394l2.755 9.445 3.935-9.445c0-.393-.394 0-.394-.393"/><path id="D" d="M8.657 9.445c2.361 0 4.722-2.361 4.722-4.722C13.38 1.968 11.019 0 8.657 0 5.903 0 3.935 1.968 3.935 4.722c0 2.361 1.968 4.722 4.722 4.722z"/></defs></svg>