<svg xmlns="http://www.w3.org/2000/svg" xmlns:xlink="http://www.w3.org/1999/xlink" viewBox="0 0 19 48" fill="#fff" fill-rule="evenodd" stroke="#000" stroke-linecap="round" stroke-linejoin="round"><style><![CDATA[.B{stroke:none}.C{fill:#036a99}.D{stroke:#036a99}.E{stroke-width:.787}]]></style><use xlink:href="#A" x=".5" y=".5"/><symbol id="A" overflow="visible"><g class="B"><path d="M0 25.186h3.935L1.181 35.812h3.148l-.394 11.019H5.51l2.361-11.019h1.574L12.2 46.831h1.574l-.394-11.019h2.755L13.38 25.186h3.935l-.787-5.509c0-1.181-.787-5.903-1.181-7.084-.393-.787-2.361-2.361-3.542-2.755-.787-.393-2.755-.393-3.935-.393s-2.361.393-3.542.787c-.787 0-1.968 1.574-2.361 2.361 0 1.181-.787 3.935-.787 5.116z" class="C"/><use xlink:href="#C"/></g><g stroke-linejoin="miter" fill="none"><use xlink:href="#C" stroke="#fff" stroke-linecap="square"/><path d="M8.657 9.445c2.361 0 4.329-2.361 4.329-4.722C12.986 1.968 11.019 0 8.657 0 5.903 0 3.935 1.968 3.935 4.722c0 2.361 1.968 4.722 4.722 4.722z" class="D E"/></g><g class="B C"><path d="M5.121 7.864z"/><use xlink:href="#D"/></g><use xlink:href="#D" fill="none" class="D E"/><use xlink:href="#E" class="B C"/><use xlink:href="#E" fill="none" class="D E"/><use xlink:href="#F" class="B C"/><use xlink:href="#F" fill="none" class="D E"/><use xlink:href="#G" class="B C"/><use xlink:href="#G" fill="none" class="D E"/></symbol><defs ><path id="C" d="M11.019 9.445H7.084c-.394.393-1.574.393-1.574.393h-.394l3.542 5.903 3.148-5.903c0-.393-.394 0-.394-.393"/><path id="D" d="M3.936 3.935S2.755 7.477 1.181 7.083c0 0 1.968 1.574 3.935.787"/><path id="E" d="M13.38 3.935s.787 3.542 2.755 3.148c0 0-2.361 1.574-4.329.787"/><path id="F" d="M11.806 1.574c-.787.787-1.968 1.181-3.542 1.181-1.181 0-2.361-.393-3.148-1.181"/><path id="G" d="M11.806 1.574C11.019.787 9.838 0 8.658 0 7.084 0 5.903.787 5.116 1.574c.787.787 1.968 1.181 3.148 1.181 1.574 0 2.755-.393 3.542-1.181z"/></defs></svg>