<svg xmlns="http://www.w3.org/2000/svg" xmlns:xlink="http://www.w3.org/1999/xlink" viewBox="0 0 66 29" fill="#fff" fill-rule="evenodd" stroke="#000" stroke-linecap="round" stroke-linejoin="round"><style><![CDATA[.B{stroke:none}.C{stroke:#fff}.D{stroke-linejoin:miter}.E{fill:none}.F{stroke-width:.787}.G{fill:#126d99}.H{fill:#0e6a98}]]></style><use xlink:href="#A" x=".5" y=".5"/><symbol id="A" overflow="visible"><use xlink:href="#C" class="B G"/><use xlink:href="#C" stroke-linecap="square" class="C D E F"/><use xlink:href="#D" class="B G"/><g class="C D F"><use xlink:href="#D" class="E"/><path d="M40.936 18.884H16.928v-7.871h24.008v7.871z" class="G"/></g><use xlink:href="#E" class="B H"/><use xlink:href="#E" class="C D E F"/><use xlink:href="#F" class="B H"/><use xlink:href="#F" class="C D E F"/><use xlink:href="#E" y="8.265" class="B H"/><use xlink:href="#E" y="8.265" class="C D E F"/><use xlink:href="#G" class="B G"/><use xlink:href="#G" class="C D E F"/></symbol><defs ><path id="C" d="M55.099 27.156l9.446-12.987V4.723C64.545 2.361 62.577 0 59.822 0H12.201C9.84 0 9.052 1.968 7.478 3.542L.394 11.02"/><path id="D" d="M56.673 23.613c0 2.361-1.968 4.329-4.723 4.329H4.329A4.37 4.37 0 0 1 0 23.613v-9.445c0-2.361 1.968-4.723 4.329-4.723H51.95c2.755 0 4.723 2.361 4.723 4.723z"/><path id="E" d="M46.44 14.168c0 .787-.787 1.574-1.574 1.574s-1.181-.787-1.181-1.574.394-1.574 1.181-1.574 1.574.787 1.574 1.574z"/><path id="F" d="M46.44 18.104c0 .787-.787 1.574-1.574 1.574s-1.181-.787-1.181-1.574.394-1.181 1.181-1.181 1.574.393 1.574 1.181z"/><path id="G" d="M36.602 23.614c0 1.181-3.148 2.361-7.084 2.361-3.542 0-6.691-1.181-6.691-2.361 0-.787 3.148-1.968 6.691-1.968 3.936 0 7.084 1.181 7.084 1.968z"/></defs></svg>