<svg xmlns="http://www.w3.org/2000/svg" xmlns:xlink="http://www.w3.org/1999/xlink" viewBox="0 0 42 63" fill="#fff" fill-rule="evenodd" stroke="#000" stroke-linecap="round" stroke-linejoin="round"><style><![CDATA[.B{fill:#0c6d9c}.C{stroke:none}.D{stroke:#fff}.E{stroke-linejoin:miter}.F{stroke-width:.788}.G{fill:none}.H{stroke-linecap:square}]]></style><use xlink:href="#A" x=".5" y=".5"/><symbol id="A" overflow="visible"><path d="M33.084 7.876H9.062v53.952h24.022z" class="B C"/><g class="D E F"><path d="M33.084 7.876H9.062v53.952h24.022" class="G H"/><path d="M33.084 61.828l7.876-7.876V0H16.544L9.062 7.876h24.022v53.952z" class="B"/></g><path d="M33.085 7.876L40.961 0z" class="B C"/><g class="D E F"><path d="M33.085 7.876L40.961 0" class="G H"/><g class="B"><use xlink:href="#C"/><use xlink:href="#C" y="3.545"/><path d="M23.239 39.775V38.2H11.031v1.575h12.208z"/><use xlink:href="#C" y="11.027"/><use xlink:href="#C" y="14.571"/><path d="M23.239 50.801v-1.575H11.031v1.575h12.208z"/><use xlink:href="#C" y="22.054"/><use xlink:href="#C" y="25.598"/></g></g><use xlink:href="#D" class="B C"/><use xlink:href="#D" class="D E F G"/><use xlink:href="#E" class="B C"/><use xlink:href="#E" class="D E F G"/><use xlink:href="#F" class="B C"/><use xlink:href="#F" class="D E F G"/><use xlink:href="#G" class="B C"/><use xlink:href="#G" class="D E F G"/></symbol><defs ><path id="C" d="M23.239 32.686v-1.969H11.031v1.969h12.208z"/><path id="D" d="M24.81 14.184c0 2.363-5.513 4.726-12.602 4.726C5.513 18.91 0 16.547 0 14.184v10.633c0 2.363 5.513 4.332 12.208 4.332 7.089 0 12.602-1.969 12.602-4.332z"/><path id="E" d="M12.208 18.909c7.089 0 12.602-2.363 12.602-4.726s-5.513-4.726-12.602-4.726C5.513 9.458 0 11.821 0 14.184s5.513 4.726 12.208 4.726z"/><path id="F" d="M37.805 23.635c0 2.363-5.513 4.726-12.208 4.726s-12.208-2.363-12.208-4.726v10.633c0 2.363 5.513 4.332 12.208 4.332s12.208-1.969 12.208-4.332z"/><path id="G" d="M25.597 28.361c6.695 0 12.208-2.363 12.208-4.726s-5.513-4.726-12.208-4.726-12.208 2.363-12.208 4.726 5.513 4.726 12.208 4.726z"/></defs></svg>