<svg xmlns="http://www.w3.org/2000/svg" xmlns:xlink="http://www.w3.org/1999/xlink" viewBox="0 0 53 40" fill="#fff" fill-rule="evenodd" stroke="#000" stroke-linecap="round" stroke-linejoin="round"><style><![CDATA[.B{fill:#0e6f9c}.C{stroke:none}.D{fill:none}.E{stroke:#fff}.F{stroke-width:.787}.G{stroke-linejoin:miter}.H{stroke-width:.394}]]></style><use xlink:href="#A" x=".5" y=".5"/><symbol id="A" overflow="visible"><g class="B C"><use xlink:href="#C"/><use xlink:href="#D"/><use xlink:href="#E"/><use xlink:href="#F"/><use xlink:href="#G"/></g><g class="E F G"><use xlink:href="#C" class="B"/><use xlink:href="#D" class="B"/><use xlink:href="#E" class="B"/><use xlink:href="#F" class="B"/><use xlink:href="#G" class="B"/><g class="D"><use xlink:href="#C"/><use xlink:href="#D"/><use xlink:href="#E"/><use xlink:href="#F"/><use xlink:href="#G"/></g></g><g class="B C"><use xlink:href="#C"/><use xlink:href="#D"/><use xlink:href="#E"/><use xlink:href="#F"/><use xlink:href="#G"/></g><g class="E F G"><use xlink:href="#C" class="B"/><use xlink:href="#D" class="B"/><use xlink:href="#E" class="B"/><use xlink:href="#F" class="B"/><use xlink:href="#G" class="B"/><g class="D"><use xlink:href="#C"/><use xlink:href="#D"/><use xlink:href="#E"/><use xlink:href="#F"/><use xlink:href="#G"/></g></g><g class="C"><path d="M27.551 5.511l2.361.394 6.691-1.574 2.361.393-1.181-1.574h-7.872l3.542.394-5.904 1.968zM14.169 3.543l2.361-.394 6.297 1.574 2.361-.393-1.181 1.574h-7.478l3.542-.394-5.904-1.968zm24.008 5.904l-2.361.787-5.904-1.968-2.755.787 1.181-1.968h7.478l-2.755.787 5.117 1.574zM24.796 7.872l-2.361-.787-5.904 1.968-3.149-.787 1.181 1.968h7.872l-3.542-.787 5.904-1.574z"/><use xlink:href="#H"/></g><use xlink:href="#H" class="D H"/><use xlink:href="#I" class="C"/><use xlink:href="#I" class="D H"/><use xlink:href="#J" class="C"/><g class="D"><use xlink:href="#J" class="H"/><path d="M0 24.796h38.571" class="E F"/></g><path d="M14.956 31.093H7.872v-.394l-2.755.787 2.755.787v-.394h7.084v-.787zm3.936 1.968v2.755h-1.968l2.755.787 2.755-.787h-1.968v-2.755h-1.574zm0-3.149v-2.755h-1.968l2.755-.787 2.755.787h-1.968v2.755h-1.574zm5.904 1.968h7.084v.394l2.755-.787-2.755-.787v.394h-7.084v.787z" class="C"/><g class="D E F G"><path d="M31.088 35.428c-1.181.787-7.478-.787-13.775-2.755-5.904-2.361-10.233-4.723-8.659-5.116 1.181-.394 7.478.787 13.775 3.149s10.233 4.329 8.659 4.723z"/><path d="M31.088 27.557c1.181.394-2.755 2.755-9.052 4.723-5.904 2.361-12.201 3.936-13.775 3.149-1.181-.394 2.755-2.361 8.659-4.723 6.297-2.361 12.594-3.542 14.169-3.149z"/></g><use xlink:href="#K" fill="#82b1c7" class="C"/><use xlink:href="#K" class="D E F G"/></symbol><defs ><path id="C" d="M38.571 24.796V12.595H0v12.201h38.571z"/><path id="D" d="M0 12.595L15.35 0h35.816L38.571 12.595H0z"/><path id="E" d="M38.571 25.189l12.594-12.988V0L38.571 12.595v12.595z"/><path id="F" d="M38.571 38.178V24.796H0v13.382h38.571z"/><path id="G" d="M38.571 38.571l12.594-12.988V12.201L38.571 24.796v13.775z"/><path id="H" d="M19.281 23.227c2.755 0 4.723-.787 4.723-1.574s-1.968-1.181-4.723-1.181c-2.361 0-4.723.394-4.723 1.181s2.361 1.574 4.723 1.574z"/><path id="I" d="M24.004 15.356c0 .787-1.968 1.181-4.723 1.181-2.361 0-4.723-.393-4.723-1.181v5.904c0 .787 2.361 1.181 4.723 1.181 2.755 0 4.723-.394 4.723-1.181z"/><path id="J" d="M19.281 16.537c2.755 0 4.723-.393 4.723-1.181s-1.968-1.574-4.723-1.574c-2.361 0-4.723.787-4.723 1.574s2.361 1.181 4.723 1.181z"/><path id="K" d="M22.822 33.067c2.362-.787 2.755-1.968 1.181-2.755s-5.116-.787-7.478-.394c-2.361.787-2.755 1.574-1.181 2.755 1.574.787 5.117.787 7.478.394z"/></defs></svg>