<svg xmlns="http://www.w3.org/2000/svg" xmlns:xlink="http://www.w3.org/1999/xlink" viewBox="0 0 70 49" fill="#fff" fill-rule="evenodd" stroke="#000" stroke-linecap="round" stroke-linejoin="round"><use xlink:href="#A" x=".5" y=".5"/><symbol id="A" overflow="visible"><g stroke="#fff" stroke-linejoin="miter" fill="#0d6e9c" stroke-width=".787"><path d="M0 47.998h60.194V8.262H0v39.736z"/><path d="M68.849 40.129l-8.655 7.869V8.262L68.849 0v40.129z"/><path d="M10.622 0h58.227l-8.655 8.262H0L10.622 0z"/></g><path d="M12.196 29.901H3.541v-1.574h8.655v-2.36l5.901 3.147-5.901 3.147v-2.361zm35.408-11.016h-5.901v-1.574h5.901v-2.754l5.901 3.541-5.901 3.147v-2.36zm4.721 9.836H41.703v-1.574h10.622v-2.361l5.901 3.147-5.901 3.147V28.72zm-4.721 9.835h-5.901v-1.574h5.901v-2.361l5.901 3.147-5.901 3.541v-2.754z" stroke="none"/><g stroke="#fff" stroke-linejoin="miter"><g fill="#000"><path d="M36.982 43.276H21.638v-29.9h15.344v29.9z" stroke-width="1.18"/><path d="M36.982 11.409V44.85H21.638V11.409h15.344z" stroke-width=".393"/></g><path d="M32.261 36.982v4.328h-6.688v-4.328h6.688zm3.541 4.721v1.18h-1.18v-1.18h1.18zm0-2.754v1.18h-1.18v-1.18h1.18zm0-2.754v1.18h-1.18v-1.18h1.18zm0-2.754v1.18h-1.18v-1.18h1.18zm0-2.754v1.18h-1.18v-1.18h1.18zm0-2.754v1.18h-1.18v-1.18h1.18zm0-2.754v1.18h-1.18v-1.18h1.18zm0-2.754v1.574h-1.18v-1.574h1.18zm0-2.754v1.574h-1.18v-1.574h1.18zm0-2.754v1.574h-1.18v-1.574h1.18zm0-2.754v1.574h-1.18v-1.574h1.18zm-12.196 27.54v1.18h-1.18v-1.18h1.18zm0-2.754v1.18h-1.18v-1.18h1.18zm0-2.754v1.18h-1.18v-1.18h1.18zm0-2.754v1.18h-1.18v-1.18h1.18zm0-2.754v1.18h-1.18v-1.18h1.18zm0-2.754v1.18h-1.18v-1.18h1.18zm0-2.754v1.18h-1.18v-1.18h1.18zm0-2.754v1.18h-1.18v-1.18h1.18zm0-2.754v1.18h-1.18v-1.18h1.18zm0-2.754v1.18h-1.18v-1.18h1.18zm0-2.754v1.574h-1.18v-1.574h1.18zM32.261 29.9v4.328h-6.688V29.9h6.688zm0-7.475v4.328h-6.688v-4.328h6.688zm0-7.082v4.328h-6.688v-4.328h6.688z"/></g></symbol></svg>