<svg xmlns="http://www.w3.org/2000/svg" xmlns:xlink="http://www.w3.org/1999/xlink" viewBox="0 0 64 52" fill="#fff" fill-rule="evenodd" stroke="#000" stroke-linecap="round" stroke-linejoin="round"><style><![CDATA[.B{fill:#126d99}.C{stroke-linejoin:miter}.D{stroke-width:.787}.E{stroke:#fff}.F{stroke-linecap:square}.G{fill:none}.H{stroke:none}]]></style><use xlink:href="#A" x=".5" y=".5"/><symbol id="A" overflow="visible"><g class="B"><path d="M7.086 40.157v-6.693h36.22v6.693H7.086z" class="C D E"/><path d="M49.211 27.165v7.087l-5.905 5.905v-6.693H7.086z" class="H"/></g><path d="M49.211 27.165v7.087l-5.905 5.905v-6.693H7.086" class="C D E F G"/><path d="M7.48 27.165h41.731z" class="B H"/><path d="M7.48 27.165h41.731" class="C D E F G"/><path d="M43.306 33.464l5.905-6.299z" class="B H"/><g class="C D E"><path d="M43.306 33.464l5.905-6.299" class="F G"/><g class="B"><path d="M41.338 45.274v-3.937H0l4.724-4.724h41.338v3.937l-4.724 4.724z"/><path d="M41.338 41.338v3.937H0v-3.937h41.338z"/></g></g><path d="M41.338 41.337l4.724-4.724z" class="B H"/><g class="C D E"><path d="M41.338 41.337l4.724-4.724" class="F G"/><g class="B"><path d="M42.912 33.464V6.299H7.086v27.165h35.826z"/><path d="M42.912 33.464l6.299-6.299V0H13.385L7.086 6.299h35.826v27.165zm-3.15-3.15V9.449H10.236v20.866h29.527z"/></g></g><path d="M42.913 6.299L49.212 0z" class="B H"/><g class="C D E"><path d="M42.913 6.299L49.212 0" class="F G"/><path d="M62.598 46.456l-6.299-8.661-5.905 3.937 6.299 8.661 5.905-3.937z" class="B"/></g><path d="M53.537 39.77c-1.181-1.968-2.756-.787-2.362-3.543.394-3.15-1.968-5.118-5.512-3.543" stroke="#0e6a98" class="C D F G"/></symbol></svg>