<svg xmlns="http://www.w3.org/2000/svg" xmlns:xlink="http://www.w3.org/1999/xlink" viewBox="0 0 63 75" fill="#fff" fill-rule="evenodd" stroke="#000" stroke-linecap="round" stroke-linejoin="round"><style><![CDATA[.B{stroke:none}.C{stroke:#fff}.D{fill:none}.E{stroke-width:.787}.F{stroke-linejoin:miter}.G{fill:#126d99}.H{stroke-linecap:square}]]></style><use xlink:href="#A" x=".5" y=".5"/><symbol id="A" overflow="visible"><use xlink:href="#C" class="B G"/><use xlink:href="#C" class="C D E F"/><use xlink:href="#D" class="B G"/><use xlink:href="#D" class="C D E F"/><use xlink:href="#E" class="B G"/><g class="C D E F H"><use xlink:href="#E"/><path d="M57.074 64.542V48.798l-8.265-5.51V9.44M14.174 67.297v-15.35l4.723-6.691V11.407M4.334 64.148v-15.35l7.872-5.904V9.046m18.499 3.149v33.848"/></g><path d="M41.331 45.255V11.407z" fill="#000" class="B"/><path d="M41.331 45.255V11.407" class="C D E F H"/><use xlink:href="#F" class="B G"/><use xlink:href="#F" class="C D E F"/><use xlink:href="#G" class="B G"/><use xlink:href="#G" class="C D E F"/><use xlink:href="#H" class="B G"/><g class="C D E F"><use xlink:href="#H"/><path d="M33.853 7.865v53.528" class="H"/></g><path d="M.398 43.681l8.659-3.149z" fill="#000" class="B"/><path d="M.398 43.681l8.659-3.149" class="C D E F H"/><path d="M61.404 43.287l-9.446-2.755z" fill="#000" class="B"/><path d="M61.404 43.287l-9.446-2.755" stroke-linejoin="bevel" class="C D E H"/><use xlink:href="#I" class="B G"/><g class="C E F"><use xlink:href="#I" class="D"/><path d="M35.821 13.375l.394 3.936v33.848l.787 7.084v15.35l-1.181-6.297V13.375z" class="G"/></g><use xlink:href="#J" class="B G"/><use xlink:href="#J" class="C D E F"/><use xlink:href="#K" class="B G"/><use xlink:href="#K" class="C D E F"/><use xlink:href="#L" class="B G"/><use xlink:href="#L" class="C D E F"/></symbol><defs ><path id="C" d="M31.093 52.74c16.924 0 30.699-3.936 30.699-8.659s-13.775-8.659-30.699-8.659S.394 39.358.394 44.081s13.775 8.659 30.699 8.659z"/><path id="D" d="M30.699 12.201c11.807 0 21.253-2.755 21.253-6.297C51.952 2.755 42.506 0 30.699 0S9.052 2.755 9.052 5.904c0 3.542 9.84 6.297 21.647 6.297z"/><path id="E" d="M30.699 39.358v6.691c-11.807 0-21.647-2.755-21.647-5.904V5.904c0 3.542 9.839 6.297 21.647 6.297s21.253-2.755 21.253-6.297v34.242c0 1.968-4.329 3.936-10.233 5.117"/><path id="F" d="M61.793 59.824c-.394 3.149-5.904 5.904-14.562 7.478V51.559c8.659-1.574 14.169-4.329 14.563-7.478z"/><path id="G" d="M0 59.431c0 5.51 14.563 9.052 31.487 9.052V52.74C14.169 53.134 0 49.198 0 43.688z"/><path id="H" d="M30.699 12.201V7.872h3.542l7.084 3.542v33.848l5.904 6.297v15.743l-13.382-5.904c-.394 0-2.362.394-2.362.394V52.74l-.787-6.691z"/><path id="I" d="M35.816 13.382l3.542-.394 7.478 3.149c-2.755.787-9.446 1.574-10.627 1.181z"/><path id="J" d="M36.21 17.318c1.968 0 9.052-.787 10.627-1.181v33.848c-2.755.394-8.265 1.181-10.627 1.181z"/><path id="K" d="M46.837 49.985l5.904 5.904c-3.149.787-13.775 1.968-15.743 1.968l-.787-6.691c1.181 0 10.233-.787 10.627-1.181z"/><path id="L" d="M52.74 55.889v15.743c-2.361.787-12.988 1.968-15.743 1.968v-15.35c1.968 0 11.807-1.181 15.743-2.361z"/></defs></svg>