<svg xmlns="http://www.w3.org/2000/svg" xmlns:xlink="http://www.w3.org/1999/xlink" viewBox="0 0 42 43" fill="#fff" fill-rule="evenodd" stroke="#000" stroke-linecap="round" stroke-linejoin="round"><style><![CDATA[.B{stroke-width:.788}.C{fill:none}.D{stroke-linecap:square}.E{stroke:#fff}.F{stroke-linejoin:miter}.G{stroke:none}.H{fill:#000}.I{stroke-width:1.575}]]></style><use xlink:href="#A" x=".5" y=".5"/><symbol id="A" overflow="visible"><path d="M33.862 41.736V7.087H0v34.649h33.862z" fill="#126d99" class="B E F"/><path d="M17.718 18.506h10.631z" class="G H"/><path d="M17.718 18.506h10.631" class="B C D E F"/><path d="M17.718 30.712h10.631z" class="G H"/><path d="M17.718 30.712h10.631" class="B C D E F"/><path d="M14.568 24.806V14.175z" class="G H"/><g class="C D E F"><path d="M14.568 24.806V14.175" class="B"/><path d="M23.624 24.412v10.631" class="I"/></g><path d="M11.812 24.412v10.631z" class="G H"/><path d="M11.812 24.412v10.631" class="B C D E F"/><path d="M18.112 18.506H7.481z" class="G H"/><g class="E F"><g class="B"><path d="M18.112 18.506H7.481" class="C D"/><g fill="#126d99"><path d="M40.949 0v34.649l-7.087 7.087V7.087L40.949 0z"/><path d="M33.862 7.087H0L8.662 0h32.286l-7.087 7.087z"/></g></g><path d="M17.325 18.112H28.35" class="C D I"/><path d="M27.956 14.962v6.3l3.937-3.15-3.937-3.15z" class="B"/><path d="M17.325 30.318h11.812" class="C D I"/><path d="M27.956 27.168v5.906l3.937-2.756-3.937-3.15z" class="B"/><path d="M14.175 24.412v-9.843m6.3 10.237V14.175" class="C D I"/></g><path d="M20.081 24.412v-9.843z" class="G H"/><path d="M20.081 24.412v-9.843" class="B C D E F"/><path d="M23.231 24.412v11.025z" class="G H"/><g class="E F"><g class="B"><path d="M23.231 24.412v11.025" class="C D"/><path d="M26.38 35.043h-5.906l2.756 3.544 3.15-3.544z"/></g><path d="M11.419 24.412v11.025" class="C D I"/><path d="M14.569 35.043h-6.3l3.15 3.544 3.15-3.544z" class="B"/><path d="M17.325 30.318H6.3" class="C D I"/><path d="M6.693 33.468v-5.906l-3.937 2.756 3.937 3.15z" class="B"/><path d="M17.325 18.112H6.3" class="C D I"/><path d="M6.693 21.262v-5.906l-3.937 2.756 3.937 3.15z" class="B"/></g><use xlink:href="#C" fill="#0e6a98" class="G"/><use xlink:href="#C" class="B C E F"/><use xlink:href="#D" class="G"/><g class="B E F"><use xlink:href="#D" class="C"/><path d="M14.962 22.049h-1.181v-1.181h1.181v1.181zm0 1.969h-1.181v-1.181h1.181v1.181zm0 1.969h-1.181v-1.181h1.181v1.181zm0 1.969h-1.181v-1.181h1.181v1.181zm1.969-5.906H15.75v-1.181h1.181v1.181zm0 1.969H15.75v-1.181h1.181v1.181zm0 1.969H15.75v-1.181h1.181v1.181zm0 1.969H15.75v-1.181h1.181v1.181zm1.969-5.906h-1.181v-1.181H18.9v1.181zm0 1.969h-1.181v-1.181H18.9v1.181zm0 1.969h-1.181v-1.181H18.9v1.181zm0 1.969h-1.181v-1.181H18.9v1.181zm1.969-5.906h-1.181v-1.181h1.181v1.181zm0 1.969h-1.181v-1.181h1.181v1.181zm0 1.969h-1.181v-1.181h1.181v1.181zm0 1.969h-1.181v-1.181h1.181v1.181z" class="H"/></g></symbol><defs ><path id="C" d="M17.32 31.505c3.937 0 7.087-3.15 7.087-7.087s-3.15-7.481-7.087-7.481-7.087 3.544-7.087 7.481 3.15 7.087 7.087 7.087z"/><path id="D" d="M27.163 14.181c.394 0 .394 0 .394-.394v-3.544c0-.394 0-.394-.394-.394H7.87c-.394 0-.394 0-.394.394v3.544c0 .394 0 .394.394.394h3.544V13h11.418v1.181z"/></defs></svg>