<svg xmlns="http://www.w3.org/2000/svg" xmlns:xlink="http://www.w3.org/1999/xlink" viewBox="0 0 47 44" fill="#fff" fill-rule="evenodd" stroke="#000" stroke-linecap="round" stroke-linejoin="round"><style><![CDATA[.B{stroke-linejoin:miter}.C{stroke-width:2.361}.D{stroke-linecap:square}]]></style><use xlink:href="#A" x=".5" y=".5"/><symbol id="A" overflow="visible"><g stroke="#fff" class="B"><path d="M33.847 42.901V8.266H0v34.634h33.847zm0-34.636L45.654 0H11.807L0 8.265h33.847zm11.807 26.371V.001L34.24 8.266v34.634l11.414-8.265z" fill="#0e6f9c" stroke-width=".788"/><g fill="none" class="C"><path d="M16.919 24.801c3.149 0 5.904-2.755 5.904-5.904 0-3.542-2.755-5.904-5.904-5.904-3.542 0-6.297 2.361-6.297 5.904 0 3.149 2.755 5.904 6.297 5.904z"/><path d="M16.924 26.763v9.052" class="D"/></g></g><path d="M20.86 35.815h-7.872l3.936 4.723 3.936-4.723z" stroke="none"/><path d="M12.594 25.582l-5.116 7.871" stroke="#fff" fill="none" class="B C D"/><path d="M11.02 35.422l-6.691-3.936.787 5.51 5.904-1.574z" stroke="none"/><path d="M20.86 25.582l5.116 7.871" stroke="#fff" fill="none" class="B C D"/><path d="M22.827 35.422l6.297-3.936-.787 5.51-5.51-1.574z" stroke="none"/></symbol></svg>