<svg xmlns="http://www.w3.org/2000/svg" xmlns:xlink="http://www.w3.org/1999/xlink" viewBox="0 0 69 39" fill="#fff" fill-rule="evenodd" stroke="#000" stroke-linecap="round" stroke-linejoin="round"><use xlink:href="#A" x=".5" y=".5"/><symbol id="A" overflow="visible"><g stroke="#fff" stroke-linejoin="miter" fill="#126d99" stroke-width=".788"><path d="M61.449 0l1.576 2.363-5.909 34.664-2.363-1.576L61.449 0z"/><path d="M0 35.451l1.97 1.576h55.147l-2.363-1.576H0z"/><path d="M54.753 35.451L61.449 0H7.09L0 35.451h54.753z"/><path d="M50.814 29.149L54.753 7.09H24.422l-3.939 22.059h30.331z"/></g><path d="M19.695 0l-7.09 35.451z" stroke="none" fill="#126d99"/><path d="M19.695 0l-7.09 35.451" stroke="#fff" stroke-linejoin="miter" stroke-linecap="square" fill="none" stroke-width=".788"/><use xlink:href="#C" stroke="none" fill="#126d99"/><g stroke="#fff" stroke-linejoin="miter" stroke-width=".788"><use xlink:href="#C" fill="none"/><path d="M35.058 3.939H25.21V2.757h9.848v1.182zm19.695 0h-9.848V2.757h9.848v1.182z" fill="#0e6a98"/></g><path d="M63.808 29.943a.85.85 0 0 1-.788.788c-.394-.394-.788-.788-.788-1.182l3.545-27.967a.85.85 0 0 1 .788-.788.85.85 0 0 1 .788.788z" stroke="none" fill="#126d99"/></symbol><defs ><path id="C" d="M5.116 28.368c3.545.788 7.484-4.333 9.454-11.029 1.576-7.09 0-13.393-3.151-14.18z"/></defs></svg>