<svg xmlns="http://www.w3.org/2000/svg" xmlns:xlink="http://www.w3.org/1999/xlink" viewBox="0 0 33 48" fill="#fff" fill-rule="evenodd" stroke="#000" stroke-linecap="round" stroke-linejoin="round"><style><![CDATA[.B{fill:none}.C{stroke-width:.787}.D{stroke:none}.E{stroke:#fff}.F{stroke-linecap:square}.G{fill:#000}.H{stroke-linejoin:miter}.I{fill:#0e6f9c}]]></style><use xlink:href="#A" x=".5" y=".5"/><symbol id="A" overflow="visible"><g fill="#0c6d9c" class="D"><path d="M24.388 7.474H0v38.942h24.388z"/><use xlink:href="#C"/><path d="M24.388 7.474L31.862 0z"/></g><g class="C E H"><use xlink:href="#D" class="B F"/><use xlink:href="#C" class="I"/><g class="B"><use xlink:href="#D" class="F"/><use xlink:href="#C"/><path d="M24.388 7.474L31.862 0" class="F"/></g></g><g class="D"><g fill="#0c6d9c"><path d="M24.388 7.474H0v38.942h24.388z"/><use xlink:href="#C"/><path d="M24.388 7.474L31.862 0z"/></g><path d="M24.388 7.474H0v38.942h24.388z" class="I"/></g><g class="C E H"><use xlink:href="#D" class="B F"/><use xlink:href="#C" class="I"/></g><path d="M24.388 7.474L31.862 0z" class="D"/><g class="E"><g class="B C H"><use xlink:href="#D" class="F"/><use xlink:href="#C"/><path d="M24.388 7.474L31.862 0" class="F"/></g><use xlink:href="#E" class="B C"/></g><use xlink:href="#F" class="D G"/><use xlink:href="#F" class="B C E"/><use xlink:href="#G" class="D G"/><g class="B C E"><use xlink:href="#G"/><use xlink:href="#E" y="11.801"/></g><use xlink:href="#F" y="11.8" class="D G"/><use xlink:href="#F" y="11.8" class="B C E"/><use xlink:href="#G" y="11.8" class="D G"/><g class="B C E"><use xlink:href="#G" y="11.8"/><use xlink:href="#E" y="23.601"/></g><use xlink:href="#F" y="23.601" class="D G"/><use xlink:href="#F" y="23.601" class="B C E"/><use xlink:href="#G" y="23.601" class="D G"/><g class="B C E"><use xlink:href="#G" y="23.601"/><path d="M8.654 13.767h7.474M8.654 25.568h7.474M8.654 37.368h7.474"/></g></symbol><defs ><path id="C" d="M24.388 46.416l7.474-7.867V0H7.867L0 7.474h24.388v38.942z"/><path id="D" d="M24.388 7.474H0v38.942h24.388"/><path id="E" d="M20.848 18.881v-6.687H4.327v6.687h16.521z"/><path id="F" d="M10.222 15.347c0 1.18-.787 1.967-1.573 1.967-1.18 0-1.967-.787-1.967-1.967 0-.787.787-1.573 1.967-1.573.787 0 1.573.787 1.573 1.573z"/><path id="G" d="M17.696 15.347c0 1.18-.787 1.967-1.573 1.967s-1.573-.787-1.573-1.967c0-.787.787-1.573 1.573-1.573s1.573.787 1.573 1.573z"/></defs></svg>