<svg xmlns="http://www.w3.org/2000/svg" xmlns:xlink="http://www.w3.org/1999/xlink" viewBox="0 0 78 67" fill="#fff" fill-rule="evenodd" stroke="#000" stroke-linecap="round" stroke-linejoin="round"><use xlink:href="#A" x=".5" y=".5"/><symbol id="A" overflow="visible"><g stroke="#fff" stroke-linejoin="miter" fill="#126d99" stroke-width=".788"><path d="M31.887 4.724L38.974 0h3.936l-.393 3.543-5.117 4.724-5.512-3.543zM5.511 38.187h49.997v27.164H5.511V38.187z"/><path d="M55.507 38.187l17.716-16.928v25.983L55.507 65.351V38.187z"/><path d="M64.563 59.842H61.02l-.393-24.407 3.15-1.181 1.574 1.574.393 20.864-1.181 3.15z"/><path d="M63.774 34.25l.788 25.588 6.693-7.48-2.755-23.621-4.724 5.512z"/><path d="M59.445 40.155L33.856 6.694 42.517.001l34.25 21.259-17.322 18.897z"/><path d="M63.383 25.983l3.937-3.936L65.35 6.3l-3.543 1.574v14.173l1.574 3.936z"/><path d="M57.477 20.472l5.905 5.512-.393-18.897-3.15-.393-2.362 13.779z"/><path d="M59.839 6.694l2.755 1.969 2.755-2.362-3.15-.788-2.362 1.181zm-23.621-1.97l23.621 35.431H0L31.888 4.724h4.331z"/></g><use xlink:href="#C" stroke="none" fill="#126d99"/><use xlink:href="#C" stroke="#fff" stroke-linejoin="miter" fill="none" stroke-width=".787"/><use xlink:href="#D" stroke="none" fill="#126d99"/><use xlink:href="#D" stroke="#fff" stroke-linejoin="miter" fill="none" stroke-width=".787"/><path d="M27.557 38.187l1.575 1.968-5.118 1.181 1.181-.787-7.874-1.181 1.968-1.575 7.48 1.181.787-.787zm7.086 5.118l-.787-2.362 4.33-.787-.787.787 7.48 1.181-1.575 1.575-7.48-1.575-1.181 1.181zM32.281 37.4l5.118-1.575v2.362l-1.181-.394-2.756 1.968-2.362-.394 2.756-1.968h-1.575zm-2.362 7.48l-4.724 1.181v-2.362l1.181.394 2.756-2.362 2.362.394-2.756 2.362 1.181.394z" stroke="none"/></symbol><defs ><path id="C" d="M47.235 40.949c0 3.149-7.086 5.905-15.747 5.905-9.054 0-16.141-2.756-16.141-5.905v9.055c0 3.149 7.086 5.905 16.141 5.905 8.661 0 15.747-2.756 15.747-5.905z"/><path id="D" d="M31.488 46.855c8.661 0 15.747-2.756 15.747-5.905 0-3.543-7.086-6.299-15.747-6.299-9.054 0-16.141 2.756-16.141 6.299 0 3.149 7.086 5.905 16.141 5.905z"/></defs></svg>