<svg xmlns="http://www.w3.org/2000/svg" xmlns:xlink="http://www.w3.org/1999/xlink" viewBox="0 0 78 67" fill="#fff" fill-rule="evenodd" stroke="#000" stroke-linecap="round" stroke-linejoin="round"><style><![CDATA[.B{fill:#126d99}.C{stroke:#fff}.D{stroke-linejoin:miter}.E{stroke-width:.787}.F{stroke-linecap:square}]]></style><use xlink:href="#A" x=".5" y=".5"/><symbol id="A" overflow="visible"><g class="B C D E"><path d="M31.888 4.724L38.975 0h3.937l-.394 3.543L37.4 8.267l-5.511-3.543zM5.512 38.187h49.997v27.164H5.512V38.187z"/><path d="M55.509 38.187l17.716-16.928v25.983L55.509 65.351V38.187z"/><path d="M64.564 59.839h-3.543l-.394-24.408 3.15-1.181 1.575 1.575.394 20.865-1.181 3.149z"/><path d="M63.776 34.251l.787 25.589 6.692-7.48L68.5 28.739l-4.724 5.512z"/><path d="M59.445 40.155L33.856 6.693 42.517 0l34.25 21.259-17.322 18.897z"/><path d="M63.383 25.983l3.937-3.937-1.968-15.747-3.543 1.575v14.172l1.575 3.937z"/><path d="M57.477 20.472l5.905 5.511-.394-18.897-3.149-.394-2.362 13.779z"/><path d="M59.839 6.692l2.756 1.968 2.756-2.362-3.15-.787-2.362 1.181zM36.218 4.724l23.621 35.431H0L31.888 4.724h4.33zm7.48 48.816v-5.118H15.747v5.118h27.951z"/></g><path d="M35.037 51.178h7.086z" stroke="none" class="B"/><path d="M35.037 51.178h7.086" fill="none" class="C D E F"/><path d="M35.037 51.178h7.086z" stroke="none" class="B"/><g class="C D E"><path d="M35.037 51.178h7.086" fill="none" class="F"/><g class="B"><path d="M48.422 48.422v-4.724l-4.724 4.724v5.118l4.724-5.118zm-9.448 9.448v-1.181l2.362-3.543v1.968l-2.362 2.756z"/><path d="M38.975 56.69v1.181h-22.44V56.69h22.44z"/><path d="M38.974 56.69h-22.44l2.362-3.543h22.44l-2.362 3.543zm9.448-12.598H20.471l-4.724 4.33h27.951l4.724-4.33z"/><path d="M43.305 44.092H24.408l-3.149 2.756h18.897l3.149-2.756z"/><path d="M20.865 31.494h19.29v14.172h-19.29V31.494z"/></g></g><use xlink:href="#C" stroke="none" class="B"/><g class="C D E"><use xlink:href="#C" fill="none"/><g class="B"><path d="M43.305 28.739h-19.29l-3.149 2.756h19.29l3.149-2.756z"/><path d="M43.304 42.911V28.739l-3.149 2.756v14.172l3.149-2.756z"/></g></g></symbol><defs ><path id="C" d="M22.435 34.65c0-1.181 1.575-1.575 1.575-1.575h12.598c1.968 0 1.575 1.575 1.575 1.575v7.874c0 1.181-1.181 1.575-1.181 1.575H24.01c-1.181 0-1.575-1.181-1.575-1.181z"/></defs></svg>