<svg xmlns="http://www.w3.org/2000/svg" xmlns:xlink="http://www.w3.org/1999/xlink" viewBox="0 0 48.182 41.182" fill="#fff" fill-rule="evenodd" stroke="#000" stroke-linecap="round" stroke-linejoin="round"><use xlink:href="#A" x=".591" y=".591"/><symbol id="A" overflow="visible"><path d="M25.21 6.303L14.181 5.91l-5.515 5.908 3.545 2.757 2.757-3.152h6.696l-7.484 9.453 2.757 2.363-4.333 5.515H5.908l-4.727 1.97 3.151 7.09 4.333.393v-1.575H6.303l.394-3.152 9.847.394 5.908-7.09L35.844 39.39l7.09-7.878-1.575-1.575-3.152 3.152-11.029-10.242 4.727-6.302 4.333 3.152h9.453l.394-3.545-7.09-.394-13.787-9.453zM29.543 0l8.272.394-.393 8.665-7.878-.393V0zM5.121 10.635l9.453 7.484-5.515 6.302L0 16.937l5.12-6.302z" stroke="none" fill="#126d99"/></symbol></svg>