<svg xmlns="http://www.w3.org/2000/svg" xmlns:xlink="http://www.w3.org/1999/xlink" viewBox="0 0 55 66" fill="#fff" fill-rule="evenodd" stroke="#000" stroke-linecap="round" stroke-linejoin="round"><style><![CDATA[.B{stroke:none}.C{stroke-linejoin:miter}.D{stroke-linecap:square}.E{stroke-width:.787}]]></style><use xlink:href="#A" x=".5" y=".5"/><symbol id="A" overflow="visible"><path d="M7.481 15.749H0v5.906h7.087z" class="B"/><path d="M7.481 15.749H0v5.906h7.087" fill="none" class="C D E"/><use xlink:href="#C" class="B"/><g class="C E"><use xlink:href="#C" fill="none" class="D"/><g stroke="#fff" fill="#0084c0"><path d="M40.158 64.175V5.118H6.299v59.057h33.859z"/><path d="M6.299 5.118L12.992 0H45.67l-5.512 5.118H6.299z"/><path d="M40.159 64.175l5.512-6.299V0l-5.512 5.118v59.057z"/></g></g><use xlink:href="#D" class="B"/><use xlink:href="#D" fill="none" class="C D E"/><g class="B"><path d="M11.418 14.961l-1.969 1.575V9.055h7.874l-1.968 1.575v.394l11.024 11.024-3.543 3.937-11.418-11.418v.394zm.394 39.765l-1.575-1.575v7.481h7.481l-1.969-1.969 11.418-11.418-3.543-3.544-11.418 11.024h-.394zm5.113-21.254v7.48H8.657v-7.48c4.331-2.362 8.268 0 8.268 0z"/><path d="M15.351 30.322c0 1.181-1.181 2.362-2.362 2.362-1.575 0-2.362-1.181-2.362-2.362 0-1.575.787-2.362 2.362-2.362 1.181 0 2.362.787 2.362 2.362zm11.417 3.15v7.48H18.5v-7.48c4.331-2.362 8.268 0 8.268 0z"/><path d="M25.193 30.322c0 1.181-1.181 2.362-2.362 2.362-1.575 0-2.362-1.181-2.362-2.362 0-1.575.788-2.362 2.362-2.362 1.181 0 2.362.787 2.362 2.362z"/></g></symbol><defs ><path id="C" d="M45.272 22.054h.787c6.299 0 7.48 5.512 7.48 5.512v-5.906s-1.181-5.906-7.48-5.906h-1.575"/><path id="D" d="M53.54 23.629v7.087c-.787 8.268-15.748 7.874-15.748 7.874v6.299l-9.843-9.843 9.843-9.843v6.299s15.355.394 15.748-7.874"/></defs></svg>