<svg xmlns="http://www.w3.org/2000/svg" xmlns:xlink="http://www.w3.org/1999/xlink" viewBox="0 0 53 49" fill="#fff" fill-rule="evenodd" stroke="#000" stroke-linecap="round" stroke-linejoin="round"><use xlink:href="#A" x=".5" y=".5"/><symbol id="A" overflow="visible"><g stroke="#fff" stroke-linejoin="miter"><g fill="#0e6f9c" stroke-width=".787"><path d="M47.61 47.999V3.935H.005v44.064H47.61zM.004 3.934L5.118 0h46.424l-3.934 3.934H.004z"/><path d="M47.61 47.998l3.934-4.721V.001L47.61 3.935v44.064z"/></g><path d="M47.21 18.89h-9.049c-3.147 0-3.147-3.147-3.147-3.147 4.721-10.622-3.934-9.049-3.934-9.049s-8.262-1.574-3.541 9.049c0 0 0 3.147-3.147 3.147H2.754s-1.967.393-2.36 2.754M0 32.66h9.049c3.147 0 3.147 3.147 3.147 3.147-5.114 10.622 3.541 9.049 3.541 9.049s8.655 1.574 3.934-9.049c0 0 0-3.147 3.147-3.147h21.638s1.574-.393 2.361-2.754" stroke-width=".787" stroke-linecap="square" fill="none"/></g><path d="M11.021 23.998l1.18 1.967-4.328.787.787-.787-6.688-1.18 1.574-1.18 6.688 1.18.787-.787zm6.295 4.328l-.787-1.967 4.328-.787-.787.787 6.688 1.18-1.574 1.18-6.688-1.18-1.18.787zm-1.967-5.115l4.328-1.574.393 1.967h-1.18l-2.361 1.967-1.967-.393 1.967-1.967h-1.18zm-1.967 6.688l-4.328 1.18-.393-2.361 1.574.393 2.361-1.967 1.967.393-2.754 1.967 1.574.393zm23.606-3.934l3.147 2.361h1.18l.393-.787 3.147 1.18-3.147 1.18-.393-.787h-1.574L36.2 26.752l-3.147 2.361h-1.967v.787l-3.147-1.18 3.147-1.18v.787h1.18l3.148-2.361-3.148-2.361h-1.18v.787l-3.147-1.18 3.147-1.18v.393h1.967l3.147 2.754 3.541-2.754h1.574l.393-.393 3.147 1.18-3.147 1.18-.393-.787h-1.18l-3.147 2.361z" stroke="none"/></symbol></svg>