<svg xmlns="http://www.w3.org/2000/svg" xmlns:xlink="http://www.w3.org/1999/xlink" viewBox="0 0 103 40" fill="#fff" fill-rule="evenodd" stroke="#000" stroke-linecap="round" stroke-linejoin="round"><style><![CDATA[.B{fill:#0e6a98}.C{stroke:#fff}.D{stroke-linejoin:miter}.E{stroke-width:.787}.F{stroke:none}.G{stroke-linecap:square}.H{fill:none}]]></style><use xlink:href="#A" x=".5" y=".5"/><symbol id="A" overflow="visible"><g class="B C D E"><path d="M62.55 36.587V11.409l-2.36 2.36v25.178l2.36-2.36z"/><path d="M60.19 38.947V13.769H0v25.178h60.19z"/><path d="M62.551 11.409H2.754L0 13.769h60.19l2.36-2.36z"/></g><path d="M62.55 11.409l-2.36 2.36z" class="B F"/><path d="M62.55 11.409l-2.36 2.36" class="C D E G H"/><path d="M12.589 38.947V13.769z" class="B F"/><path d="M12.589 38.947V13.769" class="C D E G H"/><path d="M23.997 38.947V13.769z" class="B F"/><path d="M23.997 38.947V13.769" class="C D E G H"/><path d="M35.406 38.947V13.769z" class="B F"/><path d="M35.406 38.947V13.769" class="C D E G H"/><path d="M47.208 38.947V13.769z" class="B F"/><g class="C D E"><path d="M47.208 38.947V13.769" class="G H"/><g class="B"><path d="M67.665 16.523l2.36 3.147-7.475 4.327v-4.721l5.114-2.754zm3.541 5.901l1.967 3.541-10.622 6.294v-4.721l8.655-5.114z"/><path d="M94.416 22.817L81.827.787l-.787 3.147 12.589 22.03.787-3.147zm-1.18 3.147L81.041 4.328l-15.343 8.655 12.589 21.637 14.949-8.655z"/><path d="M81.827.787L66.878 9.835l-1.18 3.147 15.343-8.655.787-3.541z"/></g></g><path d="M81.827.787l-.787 3.541z" class="B F"/><g class="C D E"><path d="M81.827.787l-.787 3.541" class="G H"/><g class="B"><path d="M101.891 11.015L95.596 0l-.787 1.967 6.294 11.015.787-1.967zm-.787 1.967L94.81 2.36 83.401 5.901l9.048 15.343 8.655-8.261z"/><path d="M95.596 0L84.188 3.541l-.787 2.36L94.81 2.36 95.596 0z"/></g></g><path d="M95.596 0l-.787 2.36z" class="B F"/><path d="M95.596 0l-.787 2.36" class="C D E G H"/></symbol></svg>