<svg xmlns="http://www.w3.org/2000/svg" xmlns:xlink="http://www.w3.org/1999/xlink" viewBox="0 0 123 50" fill="#fff" fill-rule="evenodd" stroke="#000" stroke-linecap="round" stroke-linejoin="round"><style><![CDATA[.B{fill:#126d99}.C{stroke:none}.D{stroke:#fff}.E{stroke-linejoin:miter}.F{fill:none}.G{stroke-width:.787}.H{stroke-linecap:square}.I{fill:#0e6a98}]]></style><use xlink:href="#A" x=".5" y=".5"/><symbol id="A" overflow="visible"><use xlink:href="#C" class="B C"/><use xlink:href="#C" class="D E F G"/><use xlink:href="#D" class="B C"/><g class="D E G"><use xlink:href="#D" class="F"/><path d="M98.848 44.057H65.407l9.442-12.196h31.474l-7.475 12.196zm0 3.934H65.407l.393-3.541h33.048v3.541z" class="B"/><path d="M106.324 31.861v7.869l-7.868 8.655v-4.328l7.868-12.196z" class="I"/></g><path d="M43.376 5.895L38.655 39.73z" class="C I"/><path d="M43.376 5.895L38.655 39.73" class="D E F G H"/><path d="M77.997 5.501l-3.541 26.753z" class="C I"/><path d="M77.997 5.501l-3.541 26.753" class="D E F G H"/><use xlink:href="#E" class="B C"/><use xlink:href="#E" class="D E F G"/><use xlink:href="#E" x="-75.143" y="-4.721" class="B C"/><use xlink:href="#E" x="-75.143" y="-4.721" class="D E F G"/><use xlink:href="#F" class="B C"/><use xlink:href="#F" class="D E F G"/><use xlink:href="#G" class="B C"/><use xlink:href="#G" class="D E F G"/><use xlink:href="#G" x="13.769" class="B C"/><use xlink:href="#G" x="13.769" class="D E F G"/><use xlink:href="#H" class="B C"/><g class="D E G"><use xlink:href="#H" class="F"/><path d="M37.081 23.205H17.409l.787-3.147h19.278l-.393 3.147zm-1.18 4.721H16.623l.393-3.147h19.278l-.394 3.147zm-1.18 4.721H15.442l.393-3.147h19.671l-.787 3.147zm-.787 4.721H14.262l.787-3.147h19.278l-.393 3.147zm62.948 3.934H86.259l3.541-5.114h10.622l-3.541 5.115z" class="B"/></g><use xlink:href="#I" class="B C"/><use xlink:href="#I" class="D E F G H"/><use xlink:href="#J" class="B C"/><g class="E F"><use xlink:href="#J" class="D G"/><path d="M22.131 18.484l-4.328 20.458m16.524-20.458l-4.328 20.458m-1.967-20.458l-4.328 20.458" stroke="#0e6a98" stroke-width="1.18" class="H"/></g><path d="M1.279 27.14l1.18-7.082z" class="B C"/><path d="M1.279 27.14l1.18-7.082" class="D E F G H"/><use xlink:href="#K" class="B C"/><g class="D E G"><use xlink:href="#K" class="F"/><path d="M.099 30.287l1.967 5.508h6.295l-2.754-5.508H.099z" class="B"/></g><use xlink:href="#L" class="B C"/><use xlink:href="#L" class="D E F G"/></symbol><defs ><path id="C" d="M107.892 38.555c0 .787-.393 1.18-.787 1.18H10.717c-.787 0-1.18-.393-1.18-1.18l5.508-32.26a.85.85 0 0 1 .787-.787h94.814c.787 0 1.18.393 1.18.787z"/><path id="D" d="M121.268 34.228c0 .393-.787.787-1.18.787l-13.376 4.721c-.394 0-1.18-.393-1.18-1.18l3.934-32.26a.85.85 0 0 1 .787-.787h9.835c.787 0 1.18.393 1.18.787z"/><path id="E" d="M106.711 17.704c0 1.967-1.967 3.934-3.934 3.934-2.361 0-3.934-1.967-3.934-3.934 0-2.36 1.574-3.934 3.934-3.934 1.967 0 3.934 1.574 3.934 3.934z"/><path id="F" d="M83.893 38.555c-1.18 1.574-3.934 3.147-6.295 2.754-2.754 0-3.934-1.574-3.147-3.541 1.18-1.574 3.934-3.147 6.295-2.754 2.754 0 3.934 1.574 3.147 3.541z"/><path id="G" d="M56.354 26.36c-.787 3.541-3.541 4.328-7.082 4.328s-5.901-.787-5.508-4.328l1.574-10.229c.787-3.541 3.541-4.328 7.082-4.328s5.901.787 5.508 4.328z"/><path id="H" d="M94.122 25.965c-.787 2.754-4.328 3.541-8.262 3.541-4.328 0-7.475-.787-6.688-3.541l1.18-9.049c.787-3.147 4.328-3.541 8.262-3.541 4.328 0 7.475.393 7.082 3.541z"/><path id="I" d="M28.814 11.016C36.682 0 52.026 2.754 52.026 2.754"/><path id="J" d="M55.567 1.967c0 1.18-1.574 2.361-3.541 2.361s-3.541-1.18-3.541-2.36S50.059 0 52.026 0s3.541.787 3.541 1.967z"/><path id="K" d="M11.111 16.917c-.787 2.754-1.967 5.508-2.36 8.655l.787 1.574-1.18 8.655-2.754-5.508c-.787-4.328 3.541-20.458 5.115-22.425l2.754 5.508-1.574 5.508z"/><path id="L" d="M10.717 7.868C9.143 9.835 4.816 25.965 5.603 30.293H.095C-.692 26.359 3.636 9.835 5.209 7.868z"/></defs></svg>