<svg xmlns="http://www.w3.org/2000/svg" xmlns:xlink="http://www.w3.org/1999/xlink" viewBox="0 0 41 41" fill="#fff" fill-rule="evenodd" stroke="#000" stroke-linecap="round" stroke-linejoin="round"><style><![CDATA[.B{fill:#126d99}.C{stroke:#fff}.D{stroke-linejoin:miter}.E{stroke-width:.788}.F{stroke:none}.G{fill:none}.H{fill:#0e6a98}]]></style><use xlink:href="#A" x=".5" y=".5"/><symbol id="A" overflow="visible"><g class="B C D E"><path d="M39.77 27.17l-3.937 5.906H.002l5.906-5.906H39.77z"/><path d="M0 39.376v-6.3h34.257v6.3H0zM0 5.908h33.862v25.593H0V5.908z"/><path d="M33.864 31.5l5.906-5.906V0l-5.906 5.906V31.5zm.392 7.875v-6.3l5.513-5.906v6.3l-5.513 5.906z"/></g><use xlink:href="#C" class="F"/><g class="C D E"><use xlink:href="#C" class="G"/><path d="M39.769 0H6.694L0 5.906h33.863L39.769 0z" class="B"/></g><use xlink:href="#D" class="B F"/><use xlink:href="#D" class="C D E G"/><use xlink:href="#E" class="B F"/><use xlink:href="#E" class="C D E G"/><use xlink:href="#F" class="B F"/><use xlink:href="#F" class="C D E G"/><use xlink:href="#G" class="B F"/><use xlink:href="#G" class="C D E G"/><use xlink:href="#F" x="8.269" class="B F"/><use xlink:href="#F" x="8.269" class="C D E G"/><g class="F"><path d="M10.233 12.213l3.15-2.756 1.969 1.181v2.362l.788 1.575-.788 2.363-.394.394c0 .787-.787.394-.787.394l-.788 4.331-2.756-3.937-.394-1.575-1.181-3.544" fill="#fbfbfb"/><g class="B"><path d="M11.414 11.426c.394.394.394.394.394.788s0 1.181-.394 1.969c0 .394 0 .788-.394.394 0 0-.394-.394-.787-.394 0 0-.394 0-.787.394.394.787 1.181 1.575.787 2.756-.787-1.181-1.575-2.363-1.969-3.544-.394-.787 0-1.575.394-2.363s1.181-1.575 2.362-1.575c1.575-.394 2.756-.787 4.331-.787-1.181.787-2.756 1.181-3.937 1.969v.394z"/><path d="M16.533 11.425c-.394.787-.787 1.575-1.181 1.969h-.394v-.787h.394c.787-.787-.394-1.575-.787-2.756.787 0 1.575.787 2.363.787 0 .394-.394.787-.394.787z"/></g><path d="M12.989 13.394h-.394c-.394-.787.787-.394 1.575-.787-.394.394-.394.787-1.181.787zm1.575 1.575h-.394s.394-.394.787-.394v.394h-.394zm0 1.181h-.787c.394 0 .787-.394 1.181 0h-.394zm0 .394c0 .394-.394.394-.394.394s0-.394-.394-.394h.787z" class="H"/><g class="B"><path d="M20.864 25.6c0-.394.394-1.181.394-1.969 0-.394.394-1.181.394-1.181-.394-.787-1.181-1.181-1.575-1.181-1.575-.787-3.15-1.181-5.119-1.969l.394 3.938-1.575 4.725"/><path d="M13.776 27.962l-3.15-4.331L9.445 19.3l-.787.788c-1.969.787-3.544 1.181-5.512 2.362 0 3.937 1.575 2.362 1.181 6.3"/></g><path d="M13.383 28.356l1.969-5.119-.394-3.937-.787-.394-.787 1.575-3.15-2.363c0 .394-.787 1.181-.787 1.181l1.181 4.331 3.15 4.331" fill="#98c3d2"/><g class="B"><path d="M12.6 27.956l.394-6.3-.394-.394.394-.788.394.394.394-.394.394.394-.394.788.394 5.513zm5.508-6.293c-.394-.394-.788-.394-.788-.788h.788c-.394-.394-.788-.787-.788-1.575.394 0 .394.394.394.394h.394v-.788s.787 0 .787-.394-.787-.787-.394-1.181c.394 0 .787.394.787 0s-.394-.788-.394-.788c0-.394.394-.394.394-.787.394-.394 0-.788 0-1.181.394-1.181 1.181-2.362 1.575-3.544 1.575 0 1.969-1.181 4.331 0 0 0-.394 0 0 0v.394c.394 0 .787-.394 1.181 0 0 .394-.394.788-.394.788 0 .394.788.394.788.787.394.394-.394 1.181-.394 1.575s.788.394 1.181.787c0 .394-.394 1.181 0 1.575l.788-.787c0 .394 0 .787.394 1.181 0-.394.394-.394.787-.788v.394c-.394.394-.787.788-1.575 1.181l-.788-.394c0 .394.788.394.394.394v.394c.394.394.788.394 1.181 0 0 .788-.788.788-.788 1.181s.394.394.788.394c0 .394-.394.394-.788.787"/><path d="M13.777 28.356c.394-1.969.394-3.15.394-5.119 1.181-.788 2.363-1.181 3.938-1.575l5.512-1.181 4.331.394c.788.394 1.575.394 2.756.394.787 2.362-1.575 4.725-.788 6.694l-.394.394"/></g><path d="M25.589 23.238v-.394s-.394 0 0 0v-.394c0 .394.394.394.394.394v-1.969c-.394-.394-.788-.394-.788-.394-.394-.394-.394-1.575 0-1.575.788 0 .788-1.969 1.181-3.15 0-.394 0-.394-.394-1.181v.394c-.394 0-.394.394-.788 0v-.394c.394 0 .788-.394.788-.394.394-.394 0-.787-.394-1.181 0 .394-.394.394-.394.394 0-.394 0-.787-.394-.787-.394.394 0 1.181-.788 1.181v-.787c-.394.394-.788.394-.788.394-.394 0-.394-.394-.394-.394-.394.394 0 .787 0 1.181-.394.788-.394 1.575-.787 2.363v.788h.394c0 .394-.394.394-.394.394v.394c.394.394.394.394.787.394 0 .394-.787.394-1.181.394 0 .394.394.787.788 1.181 0 .394-.394 0-.788 0-.394.394 0 .788 0 1.181h-.394c0 .394 0 .788.394 1.181.394 0 .394.394.394.394h-.394c-.394 0 0 .394 0 .394.788.394 1.969.787 2.756.787.394 0 .787-.394.787-.394 0-.394-.787 0-.394-.394 0-.394.394-.394.394-.394v.788h.394c0-.394.394-.394.394-.788-.394 0 0 .394-.394.394z"/><path d="M24.407 14.969v.394c-.394 0-.788 0-1.181-.394.394-.394 1.181-.394 1.575 0h-.394zm1.182 1.575h-.788c.394-.394.394-.394.788-.394v.394z" class="H"/><g fill="#000"><path d="M25.196 17.332h-.788c.394-.394 1.181 0 1.575-.394v.394h-.787zm-.788 6.3c0 .394-.394 0-.394-.394h.394s.394.394 0 .394z"/><path d="M23.62 23.632h-.394s0-.394.394-.394h.394c0 .394-.394.394-.394.394z"/><path d="M22.832 23.632v-.394c-.394 0-.394 0 0-.394l.394.394-.394.394zm-.393-.394s-.394 0-.394-.394c0 0 .394-.394.394 0v.394z"/></g><path d="M25.195 17.725h-.394c.394 0 .788-.394.788-.394 0 .394 0 .394-.394.394z" class="H"/><path d="M29.531 28.35H4.725v-1.181h24.806v1.181z" class="B"/></g></symbol><defs ><path id="C" d="M5.508 8.669h22.837c1.575 0 2.756 1.181 2.756 2.756v14.569c0 1.181-1.181 2.363-2.756 2.363H5.508c-1.575 0-2.756-1.181-2.756-2.363V11.425c0-1.575 1.181-2.756 2.756-2.756z"/><path id="D" d="M5.902 36.232c0 1.181-.788 1.969-1.969 1.969s-1.969-.788-1.969-1.969.788-1.969 1.969-1.969 1.969.788 1.969 1.969z"/><path id="E" d="M32.676 36.232c0 1.181-1.181 1.969-2.363 1.969-.787 0-1.969-.788-1.969-1.969s1.181-1.969 1.969-1.969c1.181 0 2.363.788 2.363 1.969z"/><path id="F" d="M13.383 36.626c0 .788-.394 1.181-.787 1.181-.787 0-1.181-.394-1.181-1.181 0-.394.394-.788 1.181-.788a.85.85 0 0 1 .787.788z"/><path id="G" d="M17.714 36.626c0 .788-.394 1.181-1.181 1.181-.394 0-.787-.394-.787-1.181a.85.85 0 0 1 .787-.788c.788 0 1.181.394 1.181.788z"/></defs></svg>