<svg xmlns="http://www.w3.org/2000/svg" xmlns:xlink="http://www.w3.org/1999/xlink" viewBox="0 0 77 38.287" fill="#fff" fill-rule="evenodd" stroke="#000" stroke-linecap="round" stroke-linejoin="round"><use xlink:href="#A" x=".5" y=".5"/><symbol id="A" overflow="visible"><g stroke="#fff" stroke-linejoin="miter" fill="#046897" stroke-width=".787"><path d="M0 18.494L22.822 0h52.334L56.268 18.494H0z"/><path d="M56.268 36.594l18.887-20.461V0L56.268 18.494v18.1z"/><path d="M56.268 36.594v-18.1H0v18.1h56.268z"/></g><path d="M28.331 36.594v-18.1z" stroke="none" fill="#000"/><g stroke="#fff" stroke-linejoin="miter"><path d="M28.331 36.594v-18.1" stroke-linecap="square" fill="none" stroke-width="1.574"/><path d="M38.562 33.053l9.837-5.509-9.837-5.509v11.018z" stroke-width=".787"/></g><path d="M21.641 9.444h24.79l-3.148 3.148 13.772-3.935-5.509-3.935-3.148 3.148h-24.79l-1.967 1.574zm-5.509 14.559H4.328v-1.574h11.805v-2.361l7.083 3.148-7.083 3.148v-2.361zm0 8.263H4.328v-1.574h11.805v-2.361l7.083 3.148-7.083 3.148v-2.361z" stroke="none"/></symbol></svg>