<svg xmlns="http://www.w3.org/2000/svg" xmlns:xlink="http://www.w3.org/1999/xlink" viewBox="0 0 38 53" fill="#fff" fill-rule="evenodd" stroke="#000" stroke-linecap="round" stroke-linejoin="round"><style><![CDATA[.B{stroke-linecap:square}.C{fill:none}.D{stroke-width:1.18}.E{stroke-width:.393}.F{stroke-linejoin:miter}.G{stroke-width:.787}]]></style><use xlink:href="#A" x=".5" y=".5"/><symbol id="A" overflow="visible"><path d="M28.721 7.869H0V51.54h28.721z" stroke="none" fill="#126d99"/><g stroke="#fff" class="F G"><path d="M28.721 7.869H0V51.54h28.721" class="B C"/><path d="M28.721 51.54l7.869-7.869V0H7.869L0 7.869h28.721V51.54z" fill="#126d99"/></g><path d="M28.721 7.869L36.59 0z" stroke="none" fill="#0c6d9c"/><path d="M28.72 7.869L36.589 0M.393 20.065H28.72M.393 47.212H28.72M5.901 13.77h6.688m2.754 2.361v-5.115H3.147v5.115h12.197z" stroke="#fff" class="B C F G"/><path d="M16.52 34.628c0 1.574-1.18 2.361-2.754 2.361-.393 0-1.574 0-1.967-.787-.393-.393-.393-.787-.393-1.574v-3.934h1.18v3.934c0 .787.393 1.18 1.18 1.18s1.18-.393 1.18-1.18v-3.934h1.574z" stroke="none"/><g stroke="#fff" class="F"><g class="C D"><path d="M13.765 38.169c2.754 0 5.115-1.967 5.115-4.721s-2.361-4.721-5.115-4.721c-2.361 0-4.721 1.967-4.721 4.721s2.361 4.721 4.721 4.721z"/><path d="M13.77 28.721h8.656" class="B"/></g><path d="M22.819 25.967v5.115l2.754-2.361-2.754-2.754z" class="E"/><path d="M9.049 33.442V25.18" class="B C D"/><path d="M6.688 24.787h4.721l-2.361-3.148-2.361 3.148z" class="E"/><path d="M18.885 33.442v8.262" class="B C D"/><path d="M21.245 42.098h-4.721l1.967 3.148 2.754-3.148z" class="E"/><path d="M14.164 38.163H5.508" class="B C D"/><path d="M5.508 40.918v-5.115l-2.754 2.361 2.754 2.754z" class="E"/></g></symbol></svg>