<svg xmlns="http://www.w3.org/2000/svg" xmlns:xlink="http://www.w3.org/1999/xlink" viewBox="0 0 100 40" fill="#fff" fill-rule="evenodd" stroke="#000" stroke-linecap="round" stroke-linejoin="round"><use xlink:href="#A" x=".5" y=".5"/><symbol id="A" overflow="visible"><g stroke="#fff" stroke-linejoin="miter" fill="#126d99" stroke-width=".788"><path d="M95.25 36.604V6.691H2.363v29.913H95.25zm0-33.455V0H2.363v3.149H95.25z"/><path d="M8.267 14.565V9.054H5.512v5.511h2.755zm0 8.657v-5.904H5.512v5.904h2.755zm0 8.266v-5.511H5.512v5.511h2.755zm40.541 1.18v-15.35H38.574v15.35h10.234z"/><path d="M48.807 32.668v-15.35h10.627v15.35H48.807zM96.43 3.149l1.574 3.542H0l1.574-3.542h94.855z"/><path d="M62.188 34.243v-2.362H35.819v2.362h26.37z"/><path d="M63.369 36.604v-2.362H34.638v2.362H63.37zM16.927 14.565V9.054h-2.755v5.511h2.755zm0 8.657v-5.904h-2.755v5.904h2.755zm0 8.266v-5.511h-2.755v5.511h2.755zm8.658-16.923V9.054H22.83v5.511h2.755zm0 8.657v-5.904H22.83v5.904h2.755zm0 8.266v-5.511H22.83v5.511h2.755zm8.659-16.923V9.054h-2.755v5.511h2.755zm0 8.657v-5.904h-2.755v5.904h2.755zm0 8.266v-5.511h-2.755v5.511h2.755zM89.74 14.565V9.054h2.755v5.511H89.74zm0 8.657v-5.904h2.755v5.904H89.74zm0 8.266v-5.511h2.755v5.511H89.74zm-8.66-16.923V9.054h2.755v5.511H81.08zm0 8.657v-5.904h2.755v5.904H81.08zm0 8.266v-5.511h2.755v5.511H81.08z"/><use xlink:href="#C"/><path d="M72.423 23.222v-5.904h2.755v5.904h-2.755zm0 8.266v-5.511h2.755v5.511h-2.755z"/><use xlink:href="#C" x="-8.66"/><path d="M63.763 23.222v-5.904h2.755v5.904h-2.755zm0 8.266v-5.511h2.755v5.511h-2.755z"/><use xlink:href="#C" x="-16.925"/><use xlink:href="#C" x="-24.796"/><use xlink:href="#C" x="-32.669"/><path d="M42.509 24.011v-4.723h-2.361v4.723h2.361zm4.33 0v-4.723h-2.362v4.723h2.362zm8.265 0v-4.723h2.362v4.723h-2.362zm-3.935 0v-4.723h2.361v4.723h-2.361zm13.38 14.955v-2.362H33.063v2.362h31.486z"/></g></symbol><defs ><path id="C" d="M72.423 14.565V9.054h2.755v5.511h-2.755z"/></defs></svg>