<svg xmlns="http://www.w3.org/2000/svg" xmlns:xlink="http://www.w3.org/1999/xlink" viewBox="0 0 42 43" fill="#fff" fill-rule="evenodd" stroke="#000" stroke-linecap="round" stroke-linejoin="round"><style><![CDATA[.B{stroke-linecap:square}.C{stroke-width:1.576}.D{stroke-width:.394}.E{fill:#0e6f9c}.F{stroke-width:.788}.G{stroke-linejoin:miter}]]></style><use xlink:href="#A" x=".5" y=".5"/><symbol id="A" overflow="visible"><g stroke="#fff" class="G"><path d="M33.878 41.362V6.698H.002v34.664h33.876z" class="E F"/><g fill="none" class="C"><path d="M16.933 31.52c4.333 0 7.484-3.545 7.484-7.484 0-4.333-3.151-7.484-7.484-7.484-3.939 0-7.484 3.151-7.484 7.484 0 3.939 3.545 7.484 7.484 7.484z"/><path d="M16.938 16.544h11.423" class="B"/></g><path d="M28.362 12.211v8.272l5.121-3.939-5.121-4.333z" class="D"/><path d="M9.454 24.029V12.605" fill="none" class="B C"/><path d="M5.121 12.605h8.272L9.454 7.878l-4.333 4.727z" class="D"/><path d="M24.423 24.029v11.423" fill="none" class="B C"/><path d="M28.756 35.452h-8.272l3.939 4.727 4.333-4.727z" class="D"/><path d="M16.939 31.513H5.909" fill="none" class="B C"/><path d="M5.515 35.846v-8.272L.788 31.513l4.727 4.333z" class="D"/><path d="M33.877 6.697H0L8.666 0h32.301v34.27l-7.09 7.09V6.697z" class="E F"/></g><path d="M33.877 6.697L40.967 0z" stroke="none" class="E"/><path d="M33.877 6.697L40.967 0" stroke="#fff" fill="none" class="B F G"/><path d="M20.872 20.49v4.727c0 2.363-1.182 3.939-3.939 3.939s-3.939-1.576-3.939-3.545V20.49h1.182v4.727c0 1.97 1.576 2.757 2.757 2.757s2.757-.788 2.757-2.757V20.49z" stroke="none"/></symbol></svg>