<svg xmlns="http://www.w3.org/2000/svg" xmlns:xlink="http://www.w3.org/1999/xlink" viewBox="0 0 69 66" fill="#fff" fill-rule="evenodd" stroke="#000" stroke-linecap="round" stroke-linejoin="round"><style><![CDATA[.B{fill:#036c9b}.C{stroke:#fff}.D{stroke-linejoin:miter}.E{stroke:none}.F{stroke-width:.788}.G{stroke-linecap:square}]]></style><use xlink:href="#A" x=".5" y=".5"/><symbol id="A" overflow="visible"><g class="B C D F"><path d="M60.645 44.492l5.514-29.928H24.022l-5.907 29.928h42.53z"/><path d="M66.159 14.565l1.575 1.969-5.119 29.14-1.969-1.181 5.514-29.928z"/><path d="M18.115 44.493l1.575 1.181h42.924l-1.969-1.181h-42.53z"/></g><use xlink:href="#C" class="B E"/><use xlink:href="#C" fill="none" class="C D F"/><path d="M0 60.244v4.725h46.468v-4.725H0z" class="B E"/><g class="C"><g class="D F"><path d="M0 60.244v4.725h46.468v-4.725H0" fill="none" class="G"/><path d="M18.508 46.855l42.53-.394-14.57 13.783H0l18.508-13.389zM57.1 41.736l4.332-23.628H27.566L22.84 41.736H57.1z" class="B"/></g><g fill="none" class="G"><path d="M19.69 47.249L8.664 55.913m14.177-8.663l-10.632 8.664m14.177-8.663l-10.632 8.664m14.177-8.663l-10.632 8.664m14.177-8.663l-11.026 8.664m14.177-8.663l-10.632 8.664m14.177-8.663l-10.632 8.664m14.177-8.663l-10.633 8.664m14.177-8.663L36.23 55.913m14.177-8.663l-10.633 8.664m14.177-8.663l-10.632 8.664m14.177-8.663l-10.632 8.664"/><path d="M9.845 54.731h38.198m-35.442-1.969h37.411m-34.654-1.969h37.411m-35.048-1.969h37.804"/></g></g><use xlink:href="#D" class="B E"/><use xlink:href="#D" fill="none" stroke-width=".394" class="C D"/><g class="E"><path d="M38.587 13.389l1.575-8.27c0 3.544 2.756 6.695 6.301 6.695s6.301-3.15 6.301-6.694l1.181 8.27z" class="B"/><path d="M50.012 6.688V4.325h-7.088v2.363h7.088zm-8.275 14.577h5.907c-2.757.788-3.938 3.938-3.938 3.938l2.363 1.575-5.119 3.544-2.757-7.876 1.969 1.181c.394-1.181 1.575-2.363 1.575-2.363zm4.726 18.508c1.181-2.757-1.181-5.119-1.181-5.119l-2.363 1.181-.394-6.301 7.876 1.969-1.969 1.181c1.969 2.757 1.575 5.907 1.575 5.907-1.181 1.575-3.544 1.181-3.544 1.181zM32.286 31.11c1.969.788 4.332.394 4.332.394v-2.756l5.513 3.15-5.513 5.907-.394-2.363c-1.575 0-2.757-.394-3.938-.788z"/></g></symbol><defs ><path id="C" d="M61.033 46.467v4.332l-1.181 1.181s-2.363.394-1.969 1.969l-11.42 11.026V60.25z"/><path id="D" d="M46.463 10.632c2.756 0 5.119-2.363 5.119-5.119C51.582 2.363 49.22 0 46.463 0c-3.15 0-5.513 2.363-5.513 5.513 0 2.757 2.363 5.119 5.513 5.119z"/></defs></svg>