<svg xmlns="http://www.w3.org/2000/svg" xmlns:xlink="http://www.w3.org/1999/xlink" viewBox="0 0 70.18 49.09" fill="#fff" fill-rule="evenodd" stroke="#000" stroke-linecap="round" stroke-linejoin="round"><use xlink:href="#A" x=".59" y=".59"/><symbol id="A" overflow="visible"><g stroke="#fff" stroke-linejoin="miter" fill="#046897"><g stroke-width=".787"><path d="M0 47.997h60.194V8.655H0v39.342z"/><path d="M68.849 40.129l-8.655 7.869V8.655L68.849 0v40.129z"/></g><path d="M10.229 0h58.62l-8.655 8.655H0L10.229 0z" stroke-width="1.18"/></g><g stroke="none"><path d="M51.932 18.097h-5.114v-1.574h5.115v-2.36l5.901 3.147-5.901 3.147v-2.361zm0 20.065h-5.114v-1.574h5.115v-2.754l5.901 3.541-5.901 3.147v-2.361zm-43.67-9.835H2.361v-1.574h5.901v-2.754l5.901 3.541-5.901 3.147v-2.361z"/><use xlink:href="#C" fill="#046897"/></g><use xlink:href="#C" stroke="#fff" stroke-linejoin="miter" fill="none" stroke-width=".787"/><use xlink:href="#D" stroke="none" fill="#046897"/><use xlink:href="#D" stroke="#fff" stroke-linejoin="miter" fill="none" stroke-width=".787"/></symbol><defs ><path id="C" d="M43.271 22.038c0 2.754-6.295 4.721-13.77 4.721s-13.77-1.967-13.77-4.721v11.409c0 2.754 6.295 5.114 13.77 5.114s13.77-2.361 13.77-5.114z"/><path id="D" d="M29.502 26.76c7.475 0 13.77-1.967 13.77-4.721 0-3.147-6.295-5.114-13.77-5.114s-13.77 1.967-13.77 5.115c0 2.754 6.295 4.721 13.77 4.721z"/></defs></svg>