<svg xmlns="http://www.w3.org/2000/svg" xmlns:xlink="http://www.w3.org/1999/xlink" viewBox="0 0 52.288 74.288" fill="#fff" fill-rule="evenodd" stroke="#000" stroke-linecap="round" stroke-linejoin="round"><style><![CDATA[.B{fill:#126d99}.C{stroke-linejoin:miter}.D{stroke:#fff}.E{stroke-width:.788}.F{stroke-linecap:square}.G{stroke:none}]]></style><use xlink:href="#A" x=".788" y=".5"/><symbol id="A" overflow="visible"><g class="C"><path d="M22.84 19.296v53.555m0-53.555l22.84 44.892M22.84 19.296L0 64.188" stroke="#126d99" fill="none" stroke-width="1.575" class="F"/><path d="M29.534 25.596V12.995H16.145v12.601h13.389z" class="B D E"/></g><use xlink:href="#C" class="B G"/><g class="C D E"><use xlink:href="#C" fill="none"/><g class="B"><path d="M8.27 18.114V4.725h29.14v13.389H8.27z"/><path d="M37.41 18.115V4.726H8.27L11.814.788h29.534v13.389l-3.938 3.938z"/></g></g><path d="M37.41 4.726L41.348.788z" class="B G"/><path d="M37.41 4.726L41.348.788" fill="none" class="C D E F"/><path d="M37.41 14.57H8.27z" class="B G"/><path d="M37.41 14.57H8.27" fill="none" class="C D E F"/><path d="M41.348 10.632L37.41 14.57z" class="B G"/><g class="C D E"><path d="M41.348 10.632L37.41 14.57" fill="none" class="F"/><path d="M50.011 0l-.788 3.15-10.238 6.301-.394-5.119L50.011 0z" class="B"/></g></symbol><defs ><path id="C" d="M3.145 12.608c-.788 0-1.181-1.575-1.181-3.544 0-2.363.394-3.938 1.181-3.938H9.84c.787 0 1.575 1.575 1.575 3.938 0 1.969-.788 3.544-1.575 3.544z"/></defs></svg>