<svg xmlns="http://www.w3.org/2000/svg" xmlns:xlink="http://www.w3.org/1999/xlink" viewBox="0 0 49 65" fill="#fff" fill-rule="evenodd" stroke="#000" stroke-linecap="round" stroke-linejoin="round"><use xlink:href="#A" x=".5" y=".5"/><symbol id="A" overflow="visible"><g stroke="#fff" stroke-linejoin="miter" fill="#0e6f9c" stroke-width=".787"><path d="M47.229 56.282V0l-8.265 7.478V63.76l8.265-7.478z"/><path d="M47.229 0l-8.265 7.478H0L9.839 0h37.39z"/><path d="M38.964 46.442V7.478H0v38.964h38.964zm0 17.317V46.836H0V63.76h38.964z"/></g><g stroke="none"><path d="M16.137 22.434L9.84 16.53l1.181-1.181-3.936-.787.787 3.936 1.181-1.181 5.904 5.904 1.181-.787zm-2.361 3.936H5.511v-1.574l-3.149 1.968 3.149 2.361V27.55h8.265v-1.181zm1.181 4.329l-5.904 5.904-1.181-1.181-.787 3.936 3.936-.787-1.181-1.181 6.297-5.904-1.181-.787zm3.936 1.968v8.659h-1.574l2.361 3.149 1.968-3.149h-1.181v-8.659h-1.574zm0-11.414v-8.265h-1.574l2.361-3.149 1.968 3.149h-1.181v8.265h-1.574zm4.329 10.233l5.904 5.904-.787 1.181 3.542.787-.787-3.936-.787 1.181-6.297-5.904-.787.787zm2.361-3.936h8.265v1.574l3.149-2.361-3.149-1.968v1.574h-8.265v1.181zm-1.574-4.329l6.297-5.904.787 1.181.787-3.936-3.542.787.787 1.181-5.904 5.904.787.787z"/><use xlink:href="#C"/></g><use xlink:href="#C" stroke="#0c6d9c" stroke-linejoin="miter" fill="none" stroke-width=".787"/><path d="M20.466 51.953h1.181l-1.968-3.149-2.361 3.149h1.574v6.691h-1.574l2.361 3.149 1.968-3.149h-1.181v-6.691zm-11.02 0h1.181l-1.968-3.149-1.968 3.149h1.181v6.691H6.691l1.968 3.149 1.968-3.149H9.446v-6.691zm21.253 0h1.574l-2.361-3.149-1.968 3.149h1.574v6.691h-1.574l1.968 3.149 2.361-3.149h-1.574v-6.691z" stroke="none"/></symbol><defs ><path id="C" d="M24.791 34.247c3.936-2.755 5.116-8.265 1.968-12.594-2.755-3.936-8.265-4.723-12.201-1.968S9.835 27.95 12.59 31.886s8.265 5.116 12.201 2.361z"/></defs></svg>