<svg xmlns="http://www.w3.org/2000/svg" xmlns:xlink="http://www.w3.org/1999/xlink" viewBox="0 0 37 71" fill="#fff" fill-rule="evenodd" stroke="#000" stroke-linecap="round" stroke-linejoin="round"><style><![CDATA[.B{stroke-linejoin:miter}.C{stroke:none}.D{fill:none}.E{stroke:#0e6a98}.F{stroke-width:.394}.G{stroke-linecap:square}.H{stroke-width:.787}]]></style><use xlink:href="#A" x=".5" y=".5"/><symbol id="A" overflow="visible"><g fill="#126d99"><path d="M0 69.289h28.345V6.299H0v62.99z" stroke="#fff" class="B H"/><path d="M0 6.299L6.693 0h28.345l-6.693 6.299H0z" class="C"/></g><path d="M0 6.299L6.693 0h28.345l-6.693 6.299H0" stroke="#fff" class="B D G H"/><path d="M28.345 69.289l6.693-6.299V0l-6.693 6.299v62.99z" fill="#126d99" class="C"/><path d="M28.345 69.289l6.693-6.299V0l-6.693 6.299v62.99" stroke="#fff" class="B D G H"/><use xlink:href="#C" class="C"/><use xlink:href="#C" class="B D E F"/><use xlink:href="#D" class="C"/><use xlink:href="#D" class="B D E F"/><use xlink:href="#E" class="C"/><use xlink:href="#E" class="B D E F"/><use xlink:href="#F" class="C"/><use xlink:href="#F" class="B D E F"/><use xlink:href="#G" class="C"/><use xlink:href="#G" class="B D E F"/><use xlink:href="#H" class="C"/><use xlink:href="#H" class="B D E F"/><use xlink:href="#I" class="C"/><use xlink:href="#I" class="B D E F"/><use xlink:href="#J" class="C"/><use xlink:href="#J" class="B D E F"/><use xlink:href="#K" class="C"/><use xlink:href="#K" class="B D E F G"/><use xlink:href="#L" class="C"/><use xlink:href="#L" class="B D E F G"/><use xlink:href="#M" class="C"/><use xlink:href="#M" class="B D E F"/></symbol><defs ><path id="C" d="M10.625 51.186c0-.394 0-1.575 1.181-3.543l.787-.787-3.149 2.756-1.181 1.181c-1.181 1.968-1.181 3.15-1.181 3.15z"/><path id="D" d="M21.255 49.217c-1.575-1.575-3.543-3.937-7.874-2.756-.394 0-.394 0-.787.394l-3.149 2.756c1.575-1.181 5.512-2.362 9.055 2.362l-2.362 1.575 5.118.394 1.575-6.299z"/><path id="E" d="M23.222 53.154l-3.543 3.149c0 .394.394 2.362-1.181 5.512-2.362.787-5.511-.394-7.874-5.512l1.968-1.575-3.937-1.181-2.362 6.693 1.968-1.968c.787 1.575 1.575 2.756 2.756 3.543H7.475l1.575-1.181-7.874 2.362 3.149 1.968.787-.787h10.236c.394 0 1.181 0 1.575-.394l.394-.394v.394l3.543-2.756c1.181-1.575 2.362-3.543 2.362-7.874z"/><path id="F" d="M12.987 42.131l2.756-2.756c-2.756 0-3.937 0-5.905.394-.787 3.149-1.575 5.118-2.362 7.086l2.756-2.362c2.362 1.575 4.724 2.362 6.692 1.181h.394l3.149-3.15c-1.968 1.968-5.118 1.575-7.48-.394z"/><path id="G" d="M10.625 37.407c-.787-2.756-.394-5.512 1.181-7.874l.787-.787-3.149 3.149c-.394 0-.787.394-1.181.787-1.181 2.362-1.575 5.118-1.181 7.874z"/><path id="H" d="M17.318 28.746c-1.181-.787-2.756-.787-3.937-.394-.394 0-.394 0-.787.394l-3.149 3.149c1.575-1.575 3.543-1.968 5.512-1.181l-1.968 1.575h5.905l.787-5.905z"/><path id="I" d="M21.648 30.714c2.362 4.331 1.575 8.661 0 10.629l-4.331 4.33c.394-.394.394-.787.787-1.181 2.756-3.937 1.181-8.267.394-10.629z"/><path id="J" d="M16.924 27.565s.394 0 .394-.394l3.149-2.756c-1.968 1.968-5.118 1.575-7.48-.787l-2.756 2.362c1.968 1.968 4.724 2.362 6.693 1.575z"/><path id="K" d="M12.986 17.329l-2.362 1.968c-.788-2.756-.394-5.512 1.181-7.874.394-.394.787-.787.787-1.181l-4.331 4.33c-1.181 1.968-1.575 5.118-1.181 7.874l-2.362 2.362c1.968 0 3.543 0 5.905-.394.787-2.362 1.181-4.331 2.362-7.086"/><path id="L" d="M25.191 12.998l-2.362 2.362c.787 2.756.394 5.512-1.181 7.874l-1.181 1.181-3.149 2.756c.394 0 .394-.394.787-.787 1.575-2.362 1.968-5.118 1.181-7.874l-2.362 1.968c.787-1.968 1.575-3.937 2.362-7.086 1.968-.394 3.149-.394 5.905-.394"/><path id="M" d="M27.16 9.849H13.381c-.394.394-.394.394-.787.394l-3.149 3.149c1.968-1.968 5.512-1.575 7.874.787l2.362-1.968h5.118z"/></defs></svg>