<svg xmlns="http://www.w3.org/2000/svg" xmlns:xlink="http://www.w3.org/1999/xlink" viewBox="0 0 49 66" fill="#fff" fill-rule="evenodd" stroke="#000" stroke-linecap="round" stroke-linejoin="round"><style><![CDATA[.B{stroke:#fff}.C{stroke-linejoin:miter}.D{stroke-width:.788}.E{stroke:none}.F{stroke-linecap:square}.G{fill:none}.H{fill:#000}.I{fill:#046897}]]></style><use xlink:href="#A" x=".5" y=".5"/><symbol id="A" overflow="visible"><g class="B C D I"><path d="M0 64.584V22.447h42.137v42.137H0z"/><path d="M47.65 59.464V17.327l-5.513 5.119v42.137l5.513-5.119zM7.876 0L0 5.513h42.137L47.65 0H7.876z"/><path d="M0 22.446V5.513h42.137v16.933H0z"/><path d="M47.65 17.327V0l-5.513 5.513v16.933l5.513-5.119z"/></g><path d="M42.137 22.447H0z" class="E I"/><path d="M42.137 22.447H0" class="B C D F G"/><path d="M42.137 22.446l5.513-5.119z" class="E I"/><path d="M42.137 22.446l5.513-5.119" class="B C D F G"/><g class="E"><path d="M13.783 11.42V7.876H7.088v3.544h6.695z"/><path d="M10.239 9.451z" class="H"/><path d="M29.141 11.42V7.876h7.088v3.544h-7.088z"/><path d="M32.685 9.451z" class="H"/><path d="M13.783 20.084V16.54H7.088v3.544h6.695z"/><path d="M10.239 18.509z" class="H"/><path d="M29.141 20.084V16.54h7.088v3.544h-7.088z"/><path d="M32.685 18.508zM11.42 9.451h21.265z" class="H"/></g><path d="M11.42 9.451h21.265" class="B C D F G"/><path d="M11.42 18.509h21.265z" class="E H"/><path d="M11.42 18.509h21.265" class="B C D F G"/><path d="M10.239 18.508l22.447-9.057z" class="E H"/><path d="M10.239 18.508l22.447-9.057" class="B C D F G"/><path d="M10.239 9.451l22.447 9.057z" class="E H"/><path d="M10.239 9.451l22.447 9.057" class="B C D F G"/><g class="E"><path d="M11.42 31.898v-3.544h.788l-.788-1.181-1.181 1.181h.788v3.544h.394zm-1.575.788l-2.757-2.757.394-.394-1.575-.394.394 1.575.394-.394 2.757 2.757.394-.394zM8.663 34.26H5.119v-.394l-1.575.788 1.575.788v-.394h3.544v-.788zm.788 1.969l-2.757 2.363-.394-.394-.394 1.575h1.575l-.394-.788 2.757-2.363-.394-.394zm1.575.788v3.938h-.788l1.181 1.181.788-1.181h-.788v-3.938h-.394zm2.757-1.969h3.544v.394l1.575-.788-1.575-.788v.394h-3.544v.788zm-.394-1.969l2.363-2.757.394.394.394-1.575-1.575.394.394.394-2.363 2.757.394.394z"/><path d="M13.384 37.811c1.969-1.181 2.363-3.544 1.181-5.513-1.181-1.575-3.544-1.969-5.513-.788-1.575 1.181-1.969 3.544-.788 5.119 1.181 1.969 3.544 2.363 5.119 1.181zm-1.964 14.17v-3.544h.788l-.788-1.575-1.181 1.575h.788v3.544h.394zm-1.575.394l-2.757-2.363.394-.394-1.575-.394.394 1.575.394-.394 2.757 2.757.394-.788zm-1.181 1.969H5.119v-.788l-1.575 1.181 1.575.788v-.788h3.544v-.394zm.788 1.969l-2.757 2.363-.394-.394-.394 1.575 1.575-.394-.394-.394 2.757-2.363-.394-.394zm1.575.788v3.544h-.788l1.181 1.575.788-1.575h-.788v-3.544h-.394zm1.969-.394l2.363 2.363-.394.394 1.575.394-.394-1.575-.394.394-2.363-2.363-.394.394zm.788-1.969h3.544v.788l1.575-.788-1.575-1.181v.788h-3.544v.394z"/><path d="M13.384 57.501c1.969-1.181 2.363-3.544 1.181-5.119s-3.544-1.969-5.513-.788c-1.575 1.181-1.969 3.544-.788 5.119s3.544 1.969 5.119.788zm18.12-25.603v-3.544h.788l-1.181-1.181-.788 1.181h.788v3.544h.394zm-1.969.788l-2.363-2.757.394-.394-1.575-.394.394 1.575.394-.394 2.363 2.757.394-.394zm-.788 1.575h-3.544v-.394l-1.575.788 1.575.788v-.394h3.544v-.788zm2.363 2.757v3.938h-.788l.788 1.181 1.181-1.181h-.788v-3.938h-.394zm1.575-.394l2.757 2.363-.394.788h1.575l-.394-1.575-.394.394-2.757-2.363-.394.394zm1.181-1.575h3.544v.394l1.181-.788-1.181-.788v.394h-3.544v.788zm-.788-1.969l2.757-2.757.394.394.394-1.575-1.575.394.394.394-2.757 2.757.394.394z"/><path d="M33.468 37.811c1.575-1.181 1.969-3.544.788-5.513-1.181-1.575-3.544-1.969-5.119-.788s-1.969 3.544-.788 5.119c1.181 1.969 3.544 2.363 5.119 1.181zm-1.964 14.17v-3.544h.788l-1.181-1.575-.788 1.575h.788v3.544h.394zm-2.757 2.363h-3.544v-.788l-1.575 1.181 1.575.788v-.788h3.544v-.394zm.394 1.969l-2.363 2.363-.394-.394-.394 1.575 1.575-.394-.394-.394 2.363-2.363-.394-.394zm1.969.788v3.544h-.788l.788 1.575 1.181-1.575h-.788v-3.544h-.394zm1.575-.394l2.757 2.363-.394.394 1.575.394-.394-1.575-.394.394-2.757-2.363-.394.394zm1.181-1.969h3.544v.788l1.181-.788-1.181-1.181v.788h-3.544v.394zm-.788-1.575l2.757-2.757.394.394.394-1.575-1.575.394.394.394-2.757 2.363.394.788z"/><path d="M33.468 57.501c1.575-1.181 1.969-3.544.788-5.119s-3.544-1.969-5.119-.788-1.969 3.544-.788 5.119 3.544 1.969 5.119.788z"/></g><g stroke-width="1.575" class="B C F G"><path d="M13.389 36.623l16.146 16.146"/><path d="M12.995 52.77l16.933-16.54"/></g></symbol></svg>