<svg xmlns="http://www.w3.org/2000/svg" xmlns:xlink="http://www.w3.org/1999/xlink" viewBox="0 0 70 37" fill="#fff" fill-rule="evenodd" stroke="#000" stroke-linecap="round" stroke-linejoin="round"><use xlink:href="#A" x=".5" y=".5"/><symbol id="A" overflow="visible"><g stroke="#fff" stroke-linejoin="miter" fill="#126d99" stroke-width=".788"><path d="M.393 35.836V10.633h55.919v25.203H.393z"/><path d="M56.313 10.633H0L14.177 0h53.95L56.313 10.633z"/><path d="M68.127 0v24.415L56.313 35.835V10.633L68.127 0z"/></g><use xlink:href="#C" stroke="none"/><g stroke="#126d99" stroke-linecap="square" fill="none" stroke-width=".394"><use xlink:href="#C" stroke-linejoin="miter"/><path d="M50.007 24.028H29.924c-.788 0-1.969 0-2.757.788.788.394 1.969.394 2.757.394m20.87-3.15H30.71c-.788 0-2.757 0-3.15-.394"/></g><use xlink:href="#D" stroke="none"/><use xlink:href="#D" stroke="#126d99" fill="none" stroke-width=".394"/><use xlink:href="#E" stroke="none"/><use xlink:href="#E" stroke="#126d99" fill="none" stroke-width=".394"/></symbol><defs ><path id="C" d="M29.923 20.484h1.969l.394.394h1.575l1.575-1.181h1.575l1.575 1.575h1.575l1.969-1.575h1.575l1.181 1.181h1.575l.788-1.181 4.332 2.756-3.15 2.757H29.923v.788h-2.757c-.788 0-1.575.394-1.969.788-1.181 2.363-3.544 3.938-6.301 3.938-4.332 0-7.876-3.544-7.876-7.876s3.544-7.876 7.876-7.876c2.756 0 5.119 1.181 6.301 3.544.394.788 1.181 1.181 1.969 1.181h2.757v.788"/><path id="D" d="M18.897 29.542c3.938 0 6.694-3.15 6.694-6.694 0-3.938-2.756-7.088-6.694-7.088a7.06 7.06 0 0 0-7.088 7.088c0 3.938 3.15 6.694 7.088 6.694z"/><path id="E" d="M14.959 24.422c.788 0 1.575-.788 1.575-1.575 0-1.181-.788-1.969-1.575-1.969-1.181 0-1.969.788-1.969 1.969 0 .788.788 1.575 1.969 1.575z"/></defs></svg>