<svg xmlns="http://www.w3.org/2000/svg" xmlns:xlink="http://www.w3.org/1999/xlink" viewBox="0 0 50 46" fill="#fff" fill-rule="evenodd" stroke="#000" stroke-linecap="round" stroke-linejoin="round"><style><![CDATA[.B{stroke:#fff}.C{stroke-linejoin:miter}.D{stroke:none}.E{fill:none}.F{stroke-linecap:square}.G{stroke-width:.787}.H{fill:#000}.I{stroke-width:.394}.J{fill:#126d99}.K{fill:#0e6a98}.L{stroke-width:1.181}]]></style><use xlink:href="#A" x=".5" y=".5"/><symbol id="A" overflow="visible"><g stroke-width=".788" class="B C J"><path d="M0 44.083l11.807-5.511h36.208l-11.807 5.511H0z"/><path d="M0 5.511L11.807 0v38.57L0 44.08V5.511z"/><path d="M11.807.001h36.208v38.57H11.807V.001z"/><path d="M0 5.511L11.807 0h36.208L36.208 5.511H0z"/></g><use xlink:href="#C" class="D K"/><use xlink:href="#C" class="B C E F G"/><path d="M6.297 11.021h29.912v9.839H6.297z" class="D K"/><path d="M6.297 11.021h29.912v9.839H6.297" class="B C E F G"/><use xlink:href="#D" class="D K"/><use xlink:href="#D" class="B C E F G"/><path d="M6.297 25.19h29.912v9.839H6.297z" class="D K"/><path d="M6.297 25.19h29.912v9.839H6.297" class="B C E F G"/><path d="M6.297 11.021h30.699z" class="D H"/><path d="M6.297 11.021h30.699" class="B C E F I"/><path d="M6.297 20.86h30.699z" class="D H"/><path d="M6.297 20.86h30.699" class="B C E F I"/><path d="M6.297 25.19h30.699z" class="D H"/><path d="M6.297 25.19h30.699" class="B C E F I"/><path d="M6.297 35.029h30.699z" class="D H"/><g class="B C"><g class="E F"><path d="M6.297 35.029h30.699" class="I"/><path d="M8.265 16.137h18.498" class="L"/></g><path d="M26.763 18.499l7.872-2.361-7.872-2.361v4.723z" class="H I"/></g><path d="M7.871 16.137h18.892z" class="D H"/><g class="B C I"><path d="M7.871 16.137h18.892" class="E F"/><path d="M26.369 18.499l7.871-2.361-7.871-2.361v4.723z"/></g><path d="M34.241 30.306H15.743z" class="D"/><g class="B C"><path d="M34.241 30.306H15.743" class="E L"/><g class="G"><path d="M16.137 27.945l-7.872 2.361 7.872 2.361v-4.723z"/><path d="M36.209 5.511L48.016.001v38.57l-11.807 5.51V5.511z" class="J"/></g></g><use xlink:href="#C" x="36.209" class="D J"/><use xlink:href="#C" x="36.209" class="B C E F G"/><use xlink:href="#D" x="36.209" class="D J"/><use xlink:href="#D" x="36.209" class="B C E F G"/></symbol><defs ><path id="C" d="M6.292 11.027c1.181 0 2.361 1.968 2.361 5.116 0 2.361-1.181 4.723-2.361 4.723s-1.968-2.361-1.968-4.723c0-3.149.787-5.116 1.968-5.116"/><path id="D" d="M6.292 25.196c1.181 0 2.361 1.968 2.361 5.116 0 2.755-1.181 4.723-2.361 4.723s-1.968-1.968-1.968-4.723c0-3.149.787-5.116 1.968-5.116"/></defs></svg>