<svg xmlns="http://www.w3.org/2000/svg" xmlns:xlink="http://www.w3.org/1999/xlink" viewBox="0 0 49 66" fill="#fff" fill-rule="evenodd" stroke="#000" stroke-linecap="round" stroke-linejoin="round"><style><![CDATA[.B{stroke:#fff}.C{stroke-linejoin:miter}.D{stroke-width:.787}.E{fill:#000}.F{stroke:none}.G{stroke-linecap:square}.H{fill:none}]]></style><use xlink:href="#A" x=".5" y=".5"/><symbol id="A" overflow="visible"><g fill="#046897" class="B C D"><path d="M0 64.521V22.425h42.096v42.096H0z"/><path d="M47.604 59.407v-42.49l-5.508 5.508v42.096l5.508-5.115zM7.869 0L0 5.115h42.096L47.604 0H7.869z"/><path d="M0 22.426V5.115h42.096v17.311H0z"/><path d="M47.604 16.917V0l-5.508 5.115v17.311l5.508-5.508z"/></g><path d="M42.096 22.425l5.508-5.508z" fill="#046897" class="F"/><path d="M42.096 22.425l5.508-5.508" class="B C D G H"/><g class="F"><path d="M13.77 11.016V7.475H7.082v3.541h6.688z"/><path d="M10.229 9.442z" class="E"/><path d="M29.113 11.016V7.475h7.082v3.541h-7.082z"/><path d="M32.654 9.442z" class="E"/><path d="M13.77 20.065v-3.541H7.082v3.541h6.688z"/><path d="M10.229 18.098z" class="E"/><path d="M29.113 20.065v-3.541h7.082v3.541h-7.082z"/><path d="M32.654 18.097zM11.409 9.442H32.26z" class="E"/></g><path d="M11.409 9.442H32.26" class="B C D G H"/><path d="M11.409 18.098H32.26z" class="E F"/><path d="M11.409 18.098H32.26" class="B C D G H"/><path d="M10.229 18.097l22.032-8.655z" class="E F"/><path d="M10.229 18.097l22.032-8.655" class="B C D G H"/><path d="M10.229 9.442l22.032 8.655z" class="E F"/><path d="M10.229 9.442l22.032 8.655" class="B C D G H"/><g class="F"><path d="M13.377 41.309v-3.541h.393l-.787-1.18-.787 1.18h.393v3.541h.787zm-1.967.393l-2.36-2.361.393-.393-1.574-.393.394 1.574.393-.393 2.361 2.361.393-.393zm-.787 1.574H7.082v-.393l-1.574.787 1.574.787v-.393h3.541v-.787zm.393 1.967l-2.36 2.361-.393-.394-.394 1.574h1.574l-.393-.787 2.361-2.361-.393-.393zm1.574.787v3.541h-.393l.787 1.574.787-1.574h-.393V46.03h-.787zm2.36-3.934l2.361-2.361.393.393.393-1.574-1.574.393.393.393-2.361 2.361.393.393z"/><path d="M15.339 46.824c1.574-1.18 1.967-3.541.787-5.114-1.18-1.967-3.541-2.36-5.114-1.18s-1.967 3.541-1.18 5.114c1.18 1.967 3.541 2.361 5.508 1.18z"/><path d="M14.95 45.637l2.36 2.361-.393.787h1.574l-.393-1.574-.393.394-2.361-2.361-.393.393zm14.163-4.328v-3.541h-.787l.787-1.18 1.18 1.18h-.787v3.541h-.393zm1.574.393l2.754-2.361-.787-.393 1.574-.393v1.574l-.394-.393-2.754 2.361-.393-.393zm.787 1.574h3.934v-.393l1.18.787-1.18.787v-.393h-3.934v-.787zm-.393 1.967l2.754 2.361.394-.394v1.574h-1.574l.787-.787-2.754-2.361.393-.393zm-1.574.787v3.541h.787l-1.18 1.574-.787-1.574h.787V46.03h.393zm-2.361-3.934l-2.36-2.361-.393.393-.393-1.574 1.574.393-.393.393 2.361 2.361-.394.393z"/><path d="M27.142 46.824c-1.574-1.18-2.36-3.541-1.18-5.114 1.18-1.967 3.541-2.36 5.114-1.18 1.967 1.18 2.361 3.541 1.18 5.114-1.18 1.967-3.541 2.361-5.114 1.18z"/><path d="M27.539 45.637l-2.754 2.361.393.787h-1.574l.393-1.574.393.393 2.754-2.361.393.393z"/></g><g class="B C H"><path d="M14.95 43.67h12.196" stroke-width="1.574" class="G"/><g class="D"><path d="M22.027 43.676c0 2.754-.393 4.721-1.18 4.721-.393 0-.787-1.967-.787-4.721 0-2.361.393-4.721.787-4.721.787 0 1.18 2.361 1.18 4.721z"/><path d="M37.768 56.653H3.934V30.294h33.834v26.359z"/></g></g></symbol></svg>