<svg xmlns="http://www.w3.org/2000/svg" xmlns:xlink="http://www.w3.org/1999/xlink" viewBox="0 0 68 49" fill="#fff" fill-rule="evenodd" stroke="#000" stroke-linecap="round" stroke-linejoin="round"><use xlink:href="#A" x=".5" y=".5"/><symbol id="A" overflow="visible"><g stroke="#fff" stroke-linejoin="miter" fill="#046897" stroke-width=".787"><path d="M0 47.997h60.194V8.655H0v39.342z"/><path d="M66.882 37.769l-6.688 10.229V8.655L66.882 0v37.769z"/><path d="M10.229 0h56.653l-6.688 8.655H0L10.229 0z"/></g><g stroke="none"><path d="M49.178 27.933h6.688v1.574h-6.688v2.36l-5.901-3.147 5.901-3.541v2.754z"/><path d="M53.112 29.113h-6.688V27.54h6.688v-2.361l5.901 3.147-5.901 3.541v-2.754z"/></g><path d="M40.916 28.327l-17.311-7.869v16.13l17.311-8.262z" stroke="#fff" stroke-linejoin="miter" stroke-width=".393"/><g stroke="none"><path d="M14.95 28.72v2.361l5.508-3.147-5.508-2.754v2.361z"/><path d="M6.688 28.72h9.049v-1.18H6.688v-2.361l-5.114 2.754 5.115 3.147V28.72zm9.442-7.475l-1.18 1.967 5.901.393-2.754-5.114-1.18 1.574z"/><path d="M9.442 16.524l7.475 5.115.787-1.18-7.475-5.115 1.18-1.967-5.901-.393 2.754 5.508 1.18-1.967zm6.688 18.491l-1.18-1.574 5.901-.787-2.754 5.508-1.18-1.967z"/><path d="M9.442 39.736l7.475-5.114.787 1.18-7.475 5.115 1.18 1.967-5.901.393 2.754-5.115 1.18 1.574z"/></g></symbol></svg>