<svg xmlns="http://www.w3.org/2000/svg" xmlns:xlink="http://www.w3.org/1999/xlink" viewBox="0 0 58 38" fill="#fff" fill-rule="evenodd" stroke="#000" stroke-linecap="round" stroke-linejoin="round"><use xlink:href="#A" x=".5" y=".5"/><symbol id="A" overflow="visible"><path d="M56.647 11.015v14.948L42.878 36.978H14.555L0 25.963V11.015z" stroke="none" fill="#126d99"/><g stroke="#fff" stroke-linejoin="miter" stroke-width=".787"><path d="M56.647 11.015v14.948L42.878 36.978H14.555L0 25.963V11.015" stroke-linecap="square" fill="none"/><path d="M42.485 0h-27.93L0 11.015l14.555 11.015h28.323l13.768-11.015L42.485 0z" fill="#126d99"/></g><path d="M22.816 6.688l2.36 3.54-8.261 1.574 1.573-1.18-10.621-2.36 3.54-2.36 9.834 1.967 1.574-1.18zm11.801 7.868l-1.573-3.147 7.474-1.574-1.574 1.18 11.015 1.967-2.754 2.36-11.015-1.967-1.574 1.18zm-3.54-10.228l8.261-2.36v3.54l-1.967-.393-3.934 3.54-3.934-.787 3.934-3.147-2.36-.393zm-5.114 14.162l-7.867 1.574-.393-3.934 2.36.787 4.327-3.934 3.934.787-4.721 3.934 2.36.787z" stroke="none"/><path d="M14.162 36.584V22.029m28.717 14.555V22.029" stroke="#fff" stroke-linejoin="miter" stroke-linecap="square" fill="none" stroke-width=".787"/></symbol></svg>