<svg xmlns="http://www.w3.org/2000/svg" xmlns:xlink="http://www.w3.org/1999/xlink" viewBox="0 0 48 50" fill="#fff" fill-rule="evenodd" stroke="#000" stroke-linecap="round" stroke-linejoin="round"><use xlink:href="#A" x=".5" y=".5"/><symbol id="A" overflow="visible"><g stroke="#fff" stroke-linejoin="miter" fill="#126d99" stroke-width=".788"><path d="M5.906 38.981l.788-7.087h34.255l-.393 7.087H5.907zm33.86 9.054v-1.969l4.331-6.299v3.937l-4.331 4.332z"/><path d="M39.766 46.068v1.969H0v-1.969h39.766zM6.301 5.907h34.255v25.986H6.301V5.907z"/><path d="M40.555 31.893l5.906-5.906V.001l-5.906 5.906v25.986zm-.789 14.174H0l4.725-6.299h39.373l-4.332 6.299z"/><path d="M40.555 39.766v-8.268l5.906-5.513v7.875l-5.906 5.906z"/></g><path d="M11.807 8.669h22.836c1.575 0 2.756 1.575 2.756 2.756v14.568c0 1.575-1.181 2.756-2.756 2.756H11.807c-1.575 0-2.756-1.181-2.756-2.756V11.425c0-1.181 1.181-2.756 2.756-2.756z" stroke="none"/><g fill="#126d99"><path d="M46.46 0H12.993L6.3 5.906h34.255L46.46 0z" stroke="#fff" stroke-linejoin="miter" stroke-width=".788"/><use xlink:href="#C" stroke="none"/></g><use xlink:href="#C" stroke="#fff" stroke-linejoin="miter" fill="none" stroke-width=".787"/></symbol><defs ><path id="C" d="M19.288 13.394c-4.331-.787-6.3 1.575-5.906 3.15v.394c-3.544.394-2.362 4.331-.788 4.331-.394 2.756 3.544 4.331 5.512 2.756v-.394c.788 2.756 9.45 2.756 11.024 1.181 3.937 0 5.512-2.362 4.725-4.331 1.575-.394 1.575-3.15-.787-3.544l.394-.394c.788-1.575-1.575-3.543-4.331-3.15h-.394c-2.362-1.969-8.662-1.969-9.449 0z"/></defs></svg>