<svg xmlns="http://www.w3.org/2000/svg" xmlns:xlink="http://www.w3.org/1999/xlink" viewBox="0 0 131 76" fill="#fff" fill-rule="evenodd" stroke="#000" stroke-linecap="round" stroke-linejoin="round"><style><![CDATA[.B{fill:#126d99}.C{stroke-linejoin:miter}.D{stroke:#fff}.E{stroke:none}.F{stroke-width:.787}]]></style><use xlink:href="#A" x=".5" y=".5"/><symbol id="A" overflow="visible"><g stroke-width=".788" class="B C D"><path d="M80.196 54.213l-3.149 3.935H51.858l4.33-3.935h24.008z"/><path d="M51.858 62.872v-4.723h24.401v4.723H51.858zm23.615 5.904v-1.574l3.149-4.33v2.755l-3.149 3.149z"/><path d="M75.472 67.202v1.574H47.529v-1.574h27.943zM51.858 39.257h24.008v18.104H51.858V39.257z"/><path d="M75.867 57.364l4.33-4.33V34.93l-4.33 4.33v18.104zm-.394 9.838H47.529l3.149-4.33h27.943l-3.149 4.33zm.394-4.33v-4.723l4.33-3.935v4.723l-4.33 3.935z"/></g><use xlink:href="#C" class="B E"/><g class="C D F"><use xlink:href="#C" fill="none"/><path d="M80.196 34.928H56.581l-4.723 4.329h24.008l4.329-4.329z" class="B"/></g><path d="M61.693 44.38c-2.755-.394-4.329 1.181-3.936 2.361-2.361.394-1.968 3.149-.787 3.149 0 1.968 2.755 3.148 3.936 1.968h.394c.394 1.574 6.297 1.574 7.478.394 2.755.394 3.936-1.574 3.149-2.755h.394c.787-.394.787-2.361-.787-2.755.787-1.181-.787-2.755-2.755-2.361h-.394c-1.574-1.574-5.904-1.181-6.297 0z" class="E"/><g class="B C D F"><path d="M116.404 33.747l-3.149 3.936H88.067l4.329-3.936h24.008z"/><path d="M88.067 42.406v-4.723h24.402v4.723H88.067zm23.615 5.904v-1.574l3.149-4.329v2.755l-3.149 3.149z"/><path d="M111.682 46.735v1.574H83.738v-1.574h27.944zM88.067 18.791h24.008v18.104H88.067V18.791z"/><path d="M112.076 36.896l4.329-4.329V14.462l-4.329 4.329v18.104zm-.394 9.839H83.738l3.149-4.329h27.944l-3.149 4.329zm.394-4.329v-4.723l4.329-3.936v4.723l-4.329 3.936z"/></g><use xlink:href="#D" class="B E"/><g class="C D F"><use xlink:href="#D" fill="none"/><path d="M116.404 14.462H92.79l-4.723 4.329h24.008l4.329-4.329z" class="B"/></g><path d="M97.901 23.914c-2.755-.394-4.329 1.181-3.936 2.361-2.361.394-1.968 3.149-.787 3.149 0 1.968 2.755 3.149 3.936 1.968h.394c.394 1.574 6.297 1.574 7.478.394 2.755.394 3.936-1.574 3.149-2.755h.394c.787-.394.787-2.361-.787-2.755.787-1.181-.787-2.755-2.755-2.361h-.394c-1.574-1.574-5.904-1.181-6.297 0z" class="E"/><g class="B C D F"><path d="M46.348 32.173l-3.149 3.936H18.01l4.329-3.936h24.008z"/><path d="M18.01 40.832v-4.723h24.402v4.723H18.01zm23.615 5.904v-1.574l3.149-4.329v2.755l-3.149 3.149z"/><path d="M41.625 45.161v1.574H13.681v-1.574h27.944zM18.01 17.217h24.008v18.105H18.01V17.217z"/><path d="M42.018 35.322l4.329-4.329V12.888l-4.329 4.329v18.105zm-.394 9.839H13.681l3.149-4.329h27.944l-3.149 4.329zm.394-4.329v-4.723l4.329-3.936v4.723l-4.329 3.936z"/></g><use xlink:href="#E" class="B E"/><g class="C D F"><use xlink:href="#E" fill="none"/><path d="M46.348 12.888H22.733l-4.723 4.329h24.008l4.329-4.329z" class="B"/></g><path d="M27.058 22.34c-2.755-.393-4.329 1.181-3.936 2.361-2.361.393-1.968 3.149-.787 3.149 0 1.968 2.755 3.148 3.936 1.968h.394c.393 1.574 6.297 1.574 7.478.394 2.755.394 3.936-1.574 3.149-2.755h.394c.787-.394.787-2.362-.787-2.755.787-1.181-.787-2.755-2.755-2.361h-.394c-1.574-1.574-5.904-1.181-6.297 0z" class="E"/><g fill="none" stroke="#126d99" class="C F"><path d="M44.769 8.565c-22.827-4.329-34.634 7.084-33.06 17.317l.393.394C-5.608 29.424-.885 50.284 7.38 50.284l.787-.394c-1.968 9.839 18.498 20.072 30.305 14.956l.394-.787c4.329 8.659 18.892 10.233 33.454 10.626 12.201.394 19.679-.787 24.795-6.297l1.181.394c19.679 1.574 29.124-12.201 24.402-22.04l1.181-.394c7.084-1.968 7.871-17.711-3.936-19.679v-.787C125.058 15.649 113.25 5.81 96.72 7.778l-1.181-.394C83.339-3.636 49.098-1.668 45.162 8.959z"/><path d="M53.826 56.181L38.87 46.342m38.964 7.478l9.446-6.297m-42.9-24.402h44.868" stroke-linecap="square"/></g></symbol><defs ><path id="C" d="M55.789 41.232h16.136c1.181 0 1.968.787 1.968 1.968v10.233c0 .787-.787 1.574-1.968 1.574H55.789c-1.181 0-1.968-.787-1.968-1.574V43.2c0-1.181.787-1.968 1.968-1.968z"/><path id="D" d="M91.998 20.766h16.136c1.181 0 1.968.787 1.968 1.968v10.233c0 .787-.787 1.574-1.968 1.574H91.998c-1.181 0-1.968-.787-1.968-1.574V22.734c0-1.181.787-1.968 1.968-1.968z"/><path id="E" d="M21.942 19.192h16.136c1.181 0 1.968.787 1.968 1.968v10.233c0 .787-.787 1.574-1.968 1.574H21.942c-1.181 0-1.968-.787-1.968-1.574V21.16c0-1.181.787-1.968 1.968-1.968z"/></defs></svg>