<svg xmlns="http://www.w3.org/2000/svg" xmlns:xlink="http://www.w3.org/1999/xlink" viewBox="0 0 57 49" fill="#fff" fill-rule="evenodd" stroke="#000" stroke-linecap="round" stroke-linejoin="round"><style><![CDATA[.B{stroke:#fff}.C{stroke:none}.D{fill:#126a98}.E{stroke-linejoin:miter}.F{stroke-width:.787}.G{stroke-linecap:square}]]></style><use xlink:href="#A" x=".5" y=".5"/><symbol id="A" overflow="visible"><use xlink:href="#C" class="C D"/><use xlink:href="#C" fill="none" class="B E F"/><use xlink:href="#D" class="C D"/><g fill="none" class="E F G"><use xlink:href="#D" class="B"/><g stroke="#126a98"><use xlink:href="#E"/><use xlink:href="#F"/><use xlink:href="#G"/></g></g><use xlink:href="#H" fill="#0f6998" class="C"/><g fill="none" class="E F G"><use xlink:href="#H" class="B"/><g stroke="#126a98"><use xlink:href="#E"/><path d="M27.539 3.934C30.293 1.574 34.227 0 37.768 0c3.934 0 6.295 1.967 7.082 4.721"/><use xlink:href="#F"/><use xlink:href="#G"/></g><use xlink:href="#H" class="B"/></g><use xlink:href="#I" class="C D"/><use xlink:href="#I" fill="none" class="B E F"/><use xlink:href="#J" class="C D"/><g class="B E F"><use xlink:href="#J" fill="none"/><path d="M.005 47.598h37.769V40.91H.005v6.688z" class="D"/></g></symbol><defs ><path id="C" d="M15.343 15.737c-5.508 1.18-9.442 14.557-9.442 14.557C3.541 36.195 0 41.309 0 41.309h37.768s4.328-5.508 7.475-11.016c0 0 3.934-13.376 9.835-14.557z"/><path id="D" d="M37.768 40.915v6.688l16.524-17.31V16.13c-2.754.393-6.688 4.721-9.442 9.049-1.967 2.361-3.147 4.721-4.328 6.295"/><path id="E" d="M25.966 7.869c2.754-2.36 6.688-4.328 10.229-3.934 3.934 0 6.295 1.967 7.082 4.721"/><path id="F" d="M24.785 11.803c2.754-2.754 6.295-4.328 10.229-4.328 3.541.393 6.295 2.361 7.082 5.114"/><path id="G" d="M23.212 15.737c2.754-2.754 6.688-4.328 10.229-4.328 3.541.393 6.295 1.967 7.082 5.114"/><path id="H" d="M21.638 19.671c2.754-2.754 6.688-4.328 10.229-4.328 3.934 0 6.295 1.967 7.082 5.115"/><path id="I" d="M42.096 27.933c.393 4.328-7.082 8.655-16.917 9.442S7.475 35.408 7.082 30.686c-.393-4.328 7.082-8.655 16.917-9.442 9.442-.787 17.704 1.967 18.097 6.688z"/><path id="J" d="M40.523 26.753c.393 3.934-6.688 7.868-15.343 8.655-9.049.787-16.13-1.967-16.524-5.901s6.295-7.868 15.343-8.655c8.655-.787 16.13 1.967 16.524 5.901z"/></defs></svg>