<svg xmlns="http://www.w3.org/2000/svg" xmlns:xlink="http://www.w3.org/1999/xlink" viewBox="0 0 60 59.287" fill="#fff" fill-rule="evenodd" stroke="#000" stroke-linecap="round" stroke-linejoin="round"><style><![CDATA[.B{stroke-width:.787}.C{stroke-linejoin:miter}.D{stroke-linecap:square}.E{stroke-width:3.149}.F{stroke-width:1.574}]]></style><use xlink:href="#A" x=".5" y=".787"/><symbol id="A" overflow="visible"><g stroke="#0d6e9c" class="C"><g fill="none" class="D"><path d="M47.235 26.37V.787" class="B"/><path d="M47.235 25.976V8.265" class="E"/></g><path d="M48.021 3.149h-1.574V0h1.574v3.149z" fill="#000" class="F"/><g fill="none" class="D"><path d="M9.057 26.37V.787" class="B"/><path d="M9.057 25.976V8.265" class="E"/></g><path d="M9.844 3.149H8.27V0h1.574v3.149z" fill="#000" class="F"/></g><use xlink:href="#C" stroke="none" fill="#0d6e9c"/><use xlink:href="#C" stroke="#fff" fill="none" class="B C"/><use xlink:href="#D" stroke="none" fill="#0d6e9c"/><use xlink:href="#D" stroke="#fff" fill="none" class="B C"/><path d="M22.438 25.189l2.361 3.542-9.052 2.361 1.968-1.968L3.94 26.764l3.542-2.361 13.382 1.968 1.574-1.181zm12.988 8.659l-1.968-3.542 8.265-1.574-1.181 1.181 13.382 2.361-3.149 2.361-13.775-2.361-1.574 1.574zm-4.723-10.627l9.052-2.361.394 3.936-2.361-.394-4.329 3.542-4.329-.394 4.329-3.936-2.755-.394zm-3.936 14.169l-8.659 1.574-.394-3.936 2.755.394 4.723-3.936 4.329.787-5.117 4.33 2.361.787z" stroke="none"/></symbol><defs ><path id="C" d="M58.25 29.525c0 6.297-12.988 11.414-29.125 11.414S0 35.822 0 29.525v16.53c0 6.297 12.988 11.414 29.125 11.414S58.25 52.353 58.25 46.055z"/><path id="D" d="M29.125 40.939c16.137 0 29.125-5.117 29.125-11.414 0-5.904-12.988-11.02-29.125-11.02S0 23.621 0 29.525c0 6.297 12.988 11.414 29.125 11.414z"/></defs></svg>