<svg xmlns="http://www.w3.org/2000/svg" xmlns:xlink="http://www.w3.org/1999/xlink" viewBox="0 0 59 42" fill="#fff" fill-rule="evenodd" stroke="#000" stroke-linecap="round" stroke-linejoin="round"><use xlink:href="#A" x=".5" y=".5"/><symbol id="A" overflow="visible"><g stroke="#fff" stroke-linejoin="miter" fill="#126d99" stroke-width=".788"><path d="M53.133 40.538V3.935H0v36.603h53.133z"/><path d="M0 3.935L3.935 0h53.133l-3.935 3.935H0z"/><path d="M53.133 40.538l3.935-3.935V0l-3.935 3.935v36.603z"/></g><path d="M31.087 25.982c1.181-1.181 1.574-3.149 1.574-5.116s-.394-3.936-1.574-5.116l1.574-2.755c1.574 1.968 2.361 4.723 1.968 7.871 0 3.149-.394 5.904-1.968 7.871zm8.659 1.968c1.181-1.574 1.574-3.936 1.574-6.691 0-2.361-.394-5.116-1.574-6.691l1.574-3.149c1.574 2.755 2.361 6.297 2.361 9.839s-.787 7.084-2.361 10.233zm-18.104-1.968c-.787-1.181-1.574-3.149-1.574-5.116s.787-3.936 1.574-5.116l-1.574-2.755c-1.574 1.968-2.361 4.723-2.361 7.871s.787 5.904 2.361 7.871zm-7.871 1.968a15.22 15.22 0 0 1-1.574-6.691c0-2.361.787-5.116 1.574-6.691l-1.574-3.149c-1.574 2.755-2.361 6.297-2.361 9.839s.787 7.084 2.361 10.233z" stroke="none"/><path d="M25.976 22.04v12.201" stroke="#fff" stroke-linejoin="miter" stroke-linecap="square" fill="none" stroke-width=".787"/><path d="M27.152 20.866c0 .787-.393 1.181-1.181 1.181-.394 0-.787-.393-.787-1.181a.85.85 0 0 1 .787-.787c.787 0 1.181.394 1.181.787z" stroke="none"/></symbol></svg>