<svg xmlns="http://www.w3.org/2000/svg" xmlns:xlink="http://www.w3.org/1999/xlink" viewBox="0 0 58 47" fill="#fff" fill-rule="evenodd" stroke="#000" stroke-linecap="round" stroke-linejoin="round"><style><![CDATA[.B{stroke:#fff}.C{stroke-width:.787}.D{fill:#126d99}.E{stroke-linejoin:miter}.F{stroke-width:1.574}]]></style><use xlink:href="#A" x=".5" y=".5"/><symbol id="A" overflow="visible"><use xlink:href="#C" stroke="none" class="D"/><use xlink:href="#C" fill="none" class="B C E"/><use xlink:href="#D" stroke="none" class="D"/><use xlink:href="#D" fill="none" class="B C E"/><use xlink:href="#E" stroke="none" class="D"/><g fill="none" class="E"><g class="C"><use xlink:href="#E" class="B"/><path d="M44.852 30.688s-3.148 7.869-7.082 0c-3.541-7.869-6.689 0-6.689 0s-3.148 7.869-6.689 0-6.689 0-6.689 0-3.148 7.869-7.082 0c-3.541-7.869-6.688 0-6.688 0"/></g><path d="M3.934 30.688s3.148 7.869 7.082 0c3.541-7.869 6.688 0 6.688 0s3.148 7.869 6.689 0 6.689 0 6.689 0 3.148 7.869 6.689 0c3.934-7.869 7.082 0 7.082 0" class="F"/><g class="B"><path d="M44.066 30.688s-3.148 7.869-6.689 0c-3.934-7.869-7.082 0-7.082 0s-2.754 7.869-6.689 0c-3.541-7.869-6.689 0-6.689 0s-3.148 7.869-6.689 0c-3.934-7.869-7.082 0-7.082 0" class="C"/><path d="M3.148 30.688s3.148 7.869 7.082 0c3.541-7.869 6.689 0 6.689 0s3.148 7.869 6.689 0c3.934-7.869 6.689 0 6.689 0s3.148 7.869 7.082 0c3.541-7.869 6.689 0 6.689 0" class="F"/></g></g></symbol><defs ><path id="C" d="M12.59 1.967L0 8.656c30.689 19.279 48.394-1.18 48.394-1.18C30.295 18.098 12.59 1.967 12.59 1.967z"/><path id="D" d="M56.262 0C53.902 4.328 48 7.475 48 7.475V45.64l8.262-6.295z"/><path id="E" d="M48 7.475S30.689 27.934 0 8.655v36.984h48z"/></defs></svg>