<svg xmlns="http://www.w3.org/2000/svg" xmlns:xlink="http://www.w3.org/1999/xlink" viewBox="0 0 29 51" fill="#fff" fill-rule="evenodd" stroke="#000" stroke-linecap="round" stroke-linejoin="round"><style><![CDATA[.B{fill:#126d99}.C{stroke:#fff}.D{stroke-linejoin:miter}.E{stroke:none}.F{stroke-width:.787}]]></style><use xlink:href="#A" x=".5" y=".5"/><symbol id="A" overflow="visible"><g class="B"><path d="M1.967.001h25.188l-1.968 2.361H0L1.968.001zM0 2.754h24.795v47.228H0V2.754z" stroke-width=".788" class="C D"/><use xlink:href="#C" class="E"/></g><g class="C D F"><use xlink:href="#C" fill="none"/><path d="M27.155 0v47.228l-2.361 2.755V2.755L27.155 0z" class="B"/></g><use xlink:href="#D" class="B E"/><use xlink:href="#D" fill="none" class="C D F"/><use xlink:href="#E" class="B E"/><use xlink:href="#E" fill="none" class="C D F"/><use xlink:href="#F" class="B E"/><use xlink:href="#F" fill="none" class="C D F"/><use xlink:href="#G" class="B E"/><use xlink:href="#G" fill="none" class="C D F"/></symbol><defs ><path id="C" d="M19.28 47.235c2.755 0 3.149-2.755 3.149-2.755V14.963c0-3.149-3.149-3.149-3.149-3.149H5.505c-1.968 0-2.755 2.361-2.755 2.361v29.911c0 2.361 2.361 3.148 2.361 3.148z"/><path id="D" d="M19.673 5.91c-.393 0-.787.787-.787 1.181 0 .787.394 1.574.787 1.574s.787-.787.787-1.574c0-.394-.393-1.181-.787-1.181z"/><path id="E" d="M14.556 5.91c-.394 0-.787.787-.787 1.181 0 .787.393 1.574.787 1.574s.787-.787.787-1.574c0-.394-.393-1.181-.787-1.181z"/><path id="F" d="M9.44 5.91c-.394 0-.787.787-.787 1.181 0 .787.394 1.574.787 1.574s.394-.787.394-1.574c0-.394 0-1.181-.394-1.181z"/><path id="G" d="M3.93 5.91c-.394 0-.787.787-.787 1.181 0 .787.393 1.574.787 1.574s.787-.787.787-1.574c0-.394-.394-1.181-.787-1.181z"/></defs></svg>