<svg xmlns="http://www.w3.org/2000/svg" xmlns:xlink="http://www.w3.org/1999/xlink" viewBox="0 0 61 72" fill="#fff" fill-rule="evenodd" stroke="#000" stroke-linecap="round" stroke-linejoin="round"><style><![CDATA[.B{stroke-linejoin:miter}.C{fill:none}.D{stroke-width:.788}.E{stroke-width:1.576}.F{stroke:#fff}]]></style><use xlink:href="#A" x=".5" y=".5"/><symbol id="A" overflow="visible"><g fill="#046897" class="B D F"><path d="M0 28.36l11.817-9.059 48.055-3.939L47.661 28.36H0zm47.661 42.54l12.211-12.604v-42.54L47.661 28.36v42.54z"/><path d="M47.661 70.9V28.36H0V70.9h47.661zM0 12.605L15.756 0h44.116L47.661 12.605H0z"/><path d="M47.661 28.36l12.211-12.604V0L47.661 12.605V28.36z"/><path d="M47.661 28.361V12.605H0v15.756h47.661z"/></g><g stroke="none"><path d="M52.781 22.452z" fill="#046897"/><path d="M52.781 22.452z" fill="#000"/></g><g class="B C F"><use xlink:href="#C" class="D"/><use xlink:href="#D" class="E"/></g><use xlink:href="#E" class="B C D"/><use xlink:href="#F" class="B C E"/><g class="F"><use xlink:href="#C" class="B C D"/><use xlink:href="#D" class="B C E"/></g><use xlink:href="#E" class="B C D"/><use xlink:href="#F" class="B C E"/><g class="F"><use xlink:href="#C" class="B C D"/><use xlink:href="#D" class="B C E"/></g><g stroke="none"><path d="M25.21 43.328v-9.059h1.576l-2.363-3.545-2.363 3.545h1.576v9.06h1.576zm-4.727 1.575l-6.302-6.696.788-1.182-3.939-.788.788 4.333 1.182-1.182 6.302 6.302 1.182-.788zm-2.363 3.939H9.06v-1.575L5.515 49.63l3.545 2.363v-1.576h9.06v-1.576zm1.182 4.727l-6.302 6.302-1.182-.788-.788 3.939 3.939-.788-.788-1.182 6.302-6.302-1.182-1.182zm4.333 2.363v9.059h-1.576l2.363 3.545 2.363-3.545H25.21v-9.059h-1.576zm4.727-1.182l6.302 6.302-1.182 1.182 4.333.788-1.182-3.939-.788.788-6.696-6.302-.788 1.182zm2.363-4.333h9.059v1.576l3.151-2.363-3.151-2.363v1.575h-9.059v1.576zm-1.576-4.727l6.696-6.302.788 1.182 1.182-4.333-4.333.788 1.182 1.182-6.302 6.696.788.788z"/><path d="M29.931 57.512c4.333-3.151 5.121-9.059 2.363-13.392-3.151-4.333-9.059-5.12-13.392-2.363-4.333 3.151-5.12 9.059-2.363 13.392 3.151 4.333 9.059 5.121 13.392 2.363z"/><path d="M17.725 7.878l4.727-.394-.788 1.182h-1.182l-5.514 1.97-1.576-.394 5.515-1.969-1.182-.394zm21.27 0l-4.333-.788.394 1.576h1.182l3.939 1.576 1.576-.394-3.939-1.576 1.182-.394zm-7.484-4.727h-2.363l7.09-1.576 3.151 1.97h-2.757l-3.939 2.363h-5.121l4.333-2.757h-.394zM27.178 9.06h-1.576l3.939-1.969.394 1.969H28.36l-1.969 1.97h-1.576l1.97-1.969h.394z" fill="#000"/><path d="M17.331 7.484l5.121-.394-.788 1.576-1.576-.394-5.514 2.363-1.182-.394 5.121-1.969-1.182-.788zm21.664 0l-4.333-.394.394 1.576 1.182-.394 3.939 1.97 1.182-.394-3.939-1.576 1.576-.788zm-7.878-4.333h-1.97l7.09-1.576 3.151 1.97h-2.757l-3.939 2.363h-5.121l3.939-2.757h-.394zM26.784 9.06h-1.576l3.939-2.363.394 2.363h-1.576l-1.969 1.97h-1.182l1.97-1.969z"/></g></symbol><defs ><path id="C" d="M43.717 20.486s-3.151 7.878-6.696 0c-3.939-7.878-7.09 0-7.09 0s-2.757 7.878-6.696 0c-3.545-7.878-6.696 0-6.696 0s-3.151 7.878-6.696 0c-3.939-7.878-6.696 0-6.696 0"/><path id="D" d="M3.147 20.486s2.757 7.878 6.696 0c3.545-7.878 6.696 0 6.696 0s3.151 7.878 6.696 0c3.939-7.878 7.09 0 7.09 0s2.757 7.878 6.696 0c3.545-7.878 6.696 0 6.696 0"/><path id="E" d="M44.504 20.486s-3.151 7.878-6.696 0c-3.939-7.878-7.09 0-7.09 0s-3.151 7.878-6.696 0-6.696 0-6.696 0-3.151 7.878-6.696 0c-3.939-7.878-7.09 0-7.09 0"/><path id="F" d="M3.54 20.486s3.151 7.878 7.09 0c3.545-7.878 6.696 0 6.696 0s3.151 7.878 6.696 0c3.939-7.878 6.696 0 6.696 0s3.151 7.878 7.09 0c3.545-7.878 6.696 0 6.696 0"/></defs></svg>