<svg xmlns="http://www.w3.org/2000/svg" xmlns:xlink="http://www.w3.org/1999/xlink" viewBox="0 0 77 43" fill="#fff" fill-rule="evenodd" stroke="#000" stroke-linecap="round" stroke-linejoin="round"><style><![CDATA[.B{stroke-linejoin:miter}.C{fill:none}.D{stroke-width:.787}.E{stroke-width:1.574}.F{stroke:#fff}]]></style><use xlink:href="#A" x=".5" y=".5"/><symbol id="A" overflow="visible"><g fill="#036e9d" class="B D F"><path d="M0 18.494L22.429 0h52.727L56.269 18.494H0z"/><path d="M56.269 41.71l18.887-18.887V0L56.269 18.494V41.71z"/><path d="M56.269 41.71V18.494H0V41.71h56.269z"/></g><path d="M16.92 11.805l7.083-.787-1.181 3.148-1.967-1.181-7.87 3.148-1.574-.394 7.476-3.148-1.967-.787zm29.905 0l-5.902-.787.393 3.148 1.968-1.181 5.509 2.754 1.574-.394-5.115-2.754 1.574-.787z" stroke="none"/><g class="B C F"><use xlink:href="#C" class="D"/><use xlink:href="#D" class="E"/></g><use xlink:href="#E" class="B C D"/><use xlink:href="#F" class="B C E"/><g class="F"><use xlink:href="#C" class="B C D"/><use xlink:href="#D" class="B C E"/></g><use xlink:href="#E" class="B C D"/><use xlink:href="#F" class="B C E"/><g class="F"><use xlink:href="#C" class="B C D"/><use xlink:href="#D" class="B C E"/></g><path d="M36.201 4.721l-2.754-.394 9.837-2.361 4.328 3.148h-3.935L38.169 9.05h-7.083l5.902-4.328h-.787zm-5.902 9.05h-2.361l5.509-3.541.393 3.541h-1.967l-2.754 3.148h-1.967l2.754-3.148h.393z" stroke="none"/></symbol><defs ><path id="C" d="M53.116 30.698s-3.935 9.837-8.263 0c-4.722-9.443-8.263 0-8.263 0s-3.935 9.837-8.263 0c-4.328-9.443-8.263 0-8.263 0s-3.541 9.837-8.263 0c-4.328-9.443-8.263 0-8.263 0"/><path id="D" d="M3.537 30.698s3.935 9.837 8.263 0c4.722-9.443 8.263 0 8.263 0s3.935 9.837 8.263 0c4.722-9.443 8.263 0 8.263 0s3.541 9.837 8.263 0c4.328-9.443 8.263 0 8.263 0"/><path id="E" d="M53.903 30.698s-3.541 9.837-8.263 0c-4.328-9.443-8.263 0-8.263 0s-3.541 9.837-8.263 0c-4.328-9.443-8.263 0-8.263 0s-3.541 9.837-8.263 0c-4.328-9.443-8.263 0-8.263 0"/><path id="F" d="M4.324 30.698s3.935 9.837 8.263 0c4.722-9.443 8.263 0 8.263 0s3.935 9.837 8.263 0c4.722-9.443 8.263 0 8.263 0s3.935 9.837 8.263 0c4.722-9.443 8.263 0 8.263 0"/></defs></svg>