<svg xmlns="http://www.w3.org/2000/svg" xmlns:xlink="http://www.w3.org/1999/xlink" viewBox="0 0 57 48" fill="#fff" fill-rule="evenodd" stroke="#000" stroke-linecap="round" stroke-linejoin="round"><use xlink:href="#A" x=".5" y=".5"/><symbol id="A" overflow="visible"><g stroke-linejoin="miter" stroke-width=".787"><path d="M50.75 39.744c.787-.787-2.754-1.967 1.18-2.361 2.361-.394 10.23-5.115-7.869-5.115" stroke-linecap="square" fill="none"/><g stroke="#fff"><g fill="#126d99"><path d="M9.836 38.558V34.23h29.115v4.328H9.836z"/><path d="M38.951 38.558V34.23l5.508-5.902v4.328l-5.508 5.902z"/><path d="M9.836 39.345V34.23h29.115v5.115H9.836z"/><path d="M38.951 39.345V34.23l5.508-5.902v5.115l-5.508 5.902z"/><use xlink:href="#C"/><path d="M6.689 35.41v-1.967h34.23v1.967H6.689z"/><use xlink:href="#C"/><path d="M6.689 35.41v-1.967h34.23v1.967H6.689z"/></g><path d="M40.919 35.41v-1.967l5.902-5.902v1.967l-5.902 5.902z" fill="#0e6a98"/><path d="M46.821 0H15.738L6.689 2.361h35.804L46.821 0zm-5.902 30.689l-1.574-1.18H10.23l1.574 1.18h29.115zm.393 0l-1.967-1.574 7.475-3.935-5.508 5.508z" fill="#126d99"/><path d="M42.492 2.361v26.754l4.328-3.935V0l-4.328 2.361z" fill="#0e6a98"/><g fill="#126d99"><path d="M42.493 29.509V2.361H6.689v27.148h35.804zm-2.754 16.918v-2.361l4.328-6.295v3.934l-4.328 4.721z"/><path d="M39.738 44.066v2.361H0v-2.361h39.738zm11.017.393l2.754-5.115h-5.902l-2.754 5.115h5.902z"/><path d="M44.853 44.46h5.902v1.967h-5.902V44.46z"/><path d="M50.755 46.427V44.46l2.754-5.115v3.541l-2.754 3.541zm-11.016-2.361H0l4.721-6.295h39.345l-4.328 6.295z"/></g></g></g><use xlink:href="#D" stroke="none" fill="#126d99"/><use xlink:href="#D" stroke="#fff" stroke-linejoin="miter" fill="none" stroke-width=".787"/></symbol><defs ><path id="C" d="M46.821 27.541l-4.328 5.902H6.689l5.508-5.902h34.623z"/><path id="D" d="M11.799 5.121h25.18c1.967 0 3.148 1.18 3.148 2.754v16.131c0 1.574-1.18 3.148-3.148 3.148h-25.18c-1.574 0-2.754-1.574-2.754-3.148V7.875c0-1.574 1.18-2.754 2.754-2.754z"/></defs></svg>