<svg xmlns="http://www.w3.org/2000/svg" xmlns:xlink="http://www.w3.org/1999/xlink" viewBox="0 0 77 39" fill="#fff" fill-rule="evenodd" stroke="#000" stroke-linecap="round" stroke-linejoin="round"><use xlink:href="#A" x=".5" y=".5"/><symbol id="A" overflow="visible"><g stroke="#fff" stroke-linejoin="miter" fill="#126d99" stroke-width=".787"><path d="M56.662 36.594v-18.1H.394v18.1h56.268z"/><path d="M0 18.494L22.822 0h52.334L56.268 18.494H0zm56.662 18.887L75.156 16.92V0L56.662 18.494v18.887z"/></g><path d="M33.053 13.772l-1.181.787H18.101l-1.574 1.574-3.935-1.574 7.87-2.361-1.574 1.574h14.166zm11.018-7.083L42.89 7.869H29.118l-1.574 1.18-3.935-1.574 7.87-1.967-1.574 1.18h14.166zm-8.657 4.722l1.18-.787H50.76l1.18-1.574 3.935 1.574-7.476 2.361 1.18-1.574H35.414zm7.476-7.083l1.181-.787h13.772l1.574-1.574 3.935 1.967-7.87 1.967 1.574-1.574H42.89z" stroke="none"/></symbol></svg>