<svg xmlns="http://www.w3.org/2000/svg" xmlns:xlink="http://www.w3.org/1999/xlink" viewBox="0 0 61 51" fill="#fff" fill-rule="evenodd" stroke="#000" stroke-linecap="round" stroke-linejoin="round"><style><![CDATA[.B{stroke-linejoin:miter}.C{stroke-width:.787}.D{fill:#126d99}]]></style><use xlink:href="#A" x=".5" y=".5"/><symbol id="A" overflow="visible"><g stroke="#fff" class="B C"><path d="M48.395 28.329l-4.328 6.295H6.295l6.295-6.295h35.805z" fill="#000"/><g class="D"><path d="M6.295 41.313v-6.689h36.198v6.689H6.295zm0-35.411H42.1v27.149H6.295V5.902z"/><path d="M42.1 33.05l6.295-5.902V0L42.1 5.902V33.05zm13.771 14.164l2.754-5.508H52.33l-2.754 5.508h6.295z"/><path d="M49.576 47.215h6.295v1.967h-6.295v-1.967z"/><path d="M55.477 49.182v-1.967l2.754-5.508v3.935l-2.754 3.541zm-12.984-7.869v-6.689l5.902-5.902v6.689l-5.902 5.902z"/></g></g><use xlink:href="#C" stroke="none" class="D"/><g stroke="#fff" class="B C"><use xlink:href="#C" fill="none"/><g class="D"><path d="M48.395 0H13.377L6.295 5.902H42.1L48.395 0zm-7.082 49.969v-1.967l4.721-6.689v3.935l-4.721 4.721z"/><path d="M41.313 48.002H0l4.722-6.689h41.313l-4.721 6.689z"/><path d="M41.313 48.002v1.967H0v-1.967h41.313z"/></g></g><g fill="none"><path d="M57.046 42.107c4.721-2.361.787-12.59-9.049-7.476" stroke="#126d99" stroke-linecap="square" class="B C"/><g stroke="#fff"><path d="M23.996 23.614c5.115 0 9.443-1.967 9.443-3.934 0-2.361-4.328-4.328-9.443-4.328s-9.049 1.967-9.049 4.328c0 1.967 3.935 3.935 9.049 3.935z" class="B C"/><path d="M23.997 25.188c6.689 0 11.804-2.754 11.804-5.902s-5.115-5.508-11.804-5.508c-6.295 0-11.804 2.361-11.804 5.508s5.508 5.902 11.804 5.902z" class="B C"/></g></g></symbol><defs ><path id="C" d="M12.192 9.056h24.001c1.574 0 2.754 1.18 2.754 2.754v15.345c0 1.574-1.18 2.754-2.754 2.754H12.192c-1.574 0-2.754-1.18-2.754-2.754V11.81c0-1.574 1.18-2.754 2.754-2.754z"/></defs></svg>