<svg xmlns="http://www.w3.org/2000/svg" xmlns:xlink="http://www.w3.org/1999/xlink" viewBox="0 0 50 51" fill="#fff" fill-rule="evenodd" stroke="#000" stroke-linecap="round" stroke-linejoin="round"><use xlink:href="#A" x=".5" y=".5"/><symbol id="A" overflow="visible"><g stroke="#fff" stroke-linejoin="miter" fill="#126d99" stroke-width=".787"><path d="M48.785 28.722l-4.721 5.901H6.689l5.901-6.294 36.195.393z"/><path d="M6.689 41.31v-6.689h35.802v6.689H6.689zM6.295 6.297H42.49v26.752H6.295V6.297z"/><path d="M42.489 33.048l5.901-5.901V0l-5.901 6.295v26.752zm0 8.262v-6.689l6.294-5.901v6.689l-6.294 5.901z"/></g><use xlink:href="#C" stroke="none" fill="#126d99"/><g stroke="#fff" stroke-linejoin="miter" stroke-width=".787"><use xlink:href="#C" fill="none"/><g fill="#126d99"><path d="M48.391.001H13.377L6.295 6.296H42.49L48.391.001zM41.31 49.966v-1.967l4.721-6.688v4.328l-4.721 4.328z"/><path d="M41.31 47.998H0l4.721-6.688h41.31l-4.721 6.688z"/><path d="M41.31 47.998v1.967H0v-1.967h41.31z"/></g></g><use xlink:href="#D" stroke="none" fill="#126d99"/><use xlink:href="#D" stroke="#fff" stroke-linejoin="miter" fill="none" stroke-width=".787"/></symbol><defs ><path id="C" d="M12.192 9.056h23.999c1.574 0 3.147 1.574 3.147 3.147v14.95c0 1.574-1.574 2.754-3.147 2.754H12.192c-1.574 0-2.754-1.18-2.754-2.754v-14.95c0-1.574 1.18-3.147 2.754-3.147z"/><path id="D" d="M20.847 13.777c-4.328-.787-6.688 1.574-6.295 3.147v.393c-3.147.393-2.36 4.328-.787 4.328-.393 2.754 3.541 4.328 5.901 2.754v-.393c.393 2.754 9.049 2.754 10.622 1.18h.393c3.541 0 5.114-2.36 4.328-4.328h.393c1.18-.393 1.18-3.147-.787-3.541v-.393c.787-1.574-1.18-3.541-4.328-3.147h-.393c-1.967-1.967-8.262-1.967-9.049 0z"/></defs></svg>