<svg xmlns="http://www.w3.org/2000/svg" viewBox="0 0 75 78.63"><defs><style>.cls-1{fill:#f2b80c;}.cls-2{fill:#f2cc0c;}.cls-3{fill:#ff9830;}.cls-4{fill:#3865ab;}.cls-5{fill:#84aff1;}.cls-6{fill:none;stroke:#f2b80c;stroke-miterlimit:10;stroke-width:2px;}</style></defs><g id="Layer_2" data-name="Layer 2"><g id="Layer_1-2" data-name="Layer 1"><polygon class="cls-1" points="61.09 69.16 56.43 71.83 22.38 12.01 27.05 9.34 61.09 69.16"/><polygon class="cls-2" points="70.33 68.07 65.66 70.74 31.61 10.93 36.28 8.25 70.33 68.07"/><polygon class="cls-3" points="51.2 68.68 46.53 71.35 12.48 11.53 17.15 8.86 51.2 68.68"/><rect class="cls-4" x="6.11" width="39.15" height="15.27" rx="7.63"/><rect class="cls-5" x="13.3" y="4.87" width="25.76" height="5" rx="2.5"/><rect class="cls-4" y="35.23" width="34.47" height="22.77" rx="3.01"/><polyline class="cls-6" points="5.56 49.87 6.54 47.82 8.28 49.87 9.18 45.29 10.99 51.4 12.8 49.87 14.84 45.29 15.52 50.63 18.23 47.58 19.14 44.53 20.04 43 20.95 48.34 21.85 49.87 23.21 47.82 24.57 49.1 25.48 46.82 27.29 49.1 28.19 48.34 29.09 49.1 30 49.93"/><rect class="cls-4" x="35.85" y="63.37" width="39.15" height="15.27" rx="7.63"/><rect class="cls-5" x="42.45" y="68.29" width="25.76" height="5" rx="2.5"/></g></g></svg>