<svg xmlns="http://www.w3.org/2000/svg" xmlns:xlink="http://www.w3.org/1999/xlink" viewBox="0 0 81 71" fill="#fff" fill-rule="evenodd" stroke="#000" stroke-linecap="round" stroke-linejoin="round"><use xlink:href="#F" x=".5" y=".5"/><defs><linearGradient id="A" x1="83%" y1="100%" x2="17%" y2="0%"><stop offset="0%" stop-color="#879ba6"/><stop offset="100%" stop-color="#eceff1"/></linearGradient><path id="B" d="M64.046 44.908v8.676l-2.041 4.338-4.762 2.892-2.721-2.169v-7.953z"/><path id="C" d="M26.615 48.357q-3.058-1.589-3.425 2.026-.245 4.221 3.261 6.019 2.692 1.03 3.141-1.629.449-4.221-2.976-6.416z"/><path id="D" d="M43.421 11.04l-.616-.368-2.413 1.442-.294-.176 2.413-1.442-.614-.367.292-.174 1.525.911-.292.174z"/><path id="E" d="M42.783 12.519l-.272.199.314-.132 2.262-.904.246.147-1.524 1.345-.228.192.346-.166 2.136-.935.294.176-3.171 1.338-.265-.159 1.58-1.411.136-.11-.184.081-2.376.936-.267-.16 2.239-1.894.294.176-1.561 1.281z"/></defs><symbol id="F" overflow="visible"><g stroke="none"><path d="M50.831 46.338l28.689-16.514L29.165 0 .714 16.884z" fill="#cfd8dc"/><path d="M49.998 47.57v21.937L0 39.929V17.623z" fill="#b0bec5"/><path d="M49.998 69.507L0 39.93c.119.37 0 .37.357.616L50.355 70" fill="#92a5af"/><path d="M49.998 47.571L0 17.623c0-.246 0-.37.714-.739l50.236 29.454c-.714.493-.833.616-.952 1.232z" fill="#c2ced3"/><path d="M51.903 45.721l25.594-15.158c1.786-1.109 2.5-1.109 2.5.739v19.718c0 1.109.119 1.725-1.19 2.465L51.427 69.63c-.952.616-1.547.493-1.428-.863V48.309c0-1.232-.238-1.479 1.905-2.588z" fill="#eceff1"/><g fill="#464646"><use xlink:href="#B"/><use xlink:href="#B" x="13.333" y="-7.936"/></g><path d="M24.467 47.951l6.388-3.779c1.445-.315 2.966.866 3.955 2.047.989 1.417 1.141 2.126 1.141 3.543-.076 1.338-.532 2.205-1.217 3.071l-6.084 3.622c1.445-.945.761-3.228.837-3.779-.38-1.575-.684-2.126-1.597-3.307-.989-.945-2.129-1.653-3.422-1.417z" fill="url(#A)"/><use xlink:href="#C" fill="#464646"/><path d="M7.801 38.338l6.388-3.779c1.445-.315 2.966.866 3.955 2.047.989 1.417 1.141 2.126 1.141 3.543-.076 1.338-.532 2.205-1.217 3.071l-6.084 3.622c1.445-.945.761-3.228.837-3.779-.38-1.575-.684-2.126-1.597-3.307-.989-.945-2.129-1.653-3.422-1.417z" fill="url(#A)"/><use xlink:href="#C" x="-16.666" y="-9.613" fill="#464646"/><g fill="#92a5af"><path d="M18.38 24.387l-1.159-.693-1.303.46-.443-.265 5.065-1.707.37.221-2.853 3.029-.443-.265.765-.781zm-.619-.88l.935.559 1.332-1.357-2.267.798zm14.238 10.495l3.96-2.367.978.584c.312.187.46.38.442.579s-.203.404-.555.615c-.185.111-.388.184-.61.221a2 2 0 0 1-.654.002c.103.126.116.267.039.423s-.234.305-.472.447a2.36 2.36 0 0 1-1.091.349 1.78 1.78 0 0 1-1.027-.249l-1.011-.604zm2.283-.85l-1.425.852.589.352c.163.098.355.138.575.121s.442-.093.667-.227c.477-.285.541-.532.193-.74l-.598-.358zm.419-.25l.553.331a.9.9 0 0 0 .536.112 1.35 1.35 0 0 0 .601-.195c.218-.13.335-.25.351-.359s-.062-.215-.233-.317l-.546-.327-1.262.754zm22.938 6.48l-.853.51.834.733-.326.195-3.124-2.84.272-.163 4.754 1.866-.326.195-1.23-.497zm-1.195.207l.689-.412-2.136-.864 1.447 1.276zm14.217-6.323l-3.938-2.354.72-.43a1.2 1.2 0 0 1 .782-.154c.291.035.612.157.962.366.184.11.317.225.398.344s.111.232.088.339c.17-.037.372-.025.608.034s.471.16.707.302c.353.211.569.415.647.609s.001.361-.229.499l-.744.445zm-1.941-1.54l.408-.244c.11-.066.141-.153.093-.263s-.168-.222-.359-.336c-.217-.13-.405-.206-.565-.228a.64.64 0 0 0-.429.08l-.403.241 1.255.75zm.416.249l1.417.847.434-.259c.12-.072.154-.166.101-.282s-.191-.241-.415-.375c-.474-.283-.84-.348-1.096-.195l-.441.264zm-10.287-9.97a2.07 2.07 0 0 1-.877.272c-.282.016-.54-.047-.774-.186s-.318-.313-.25-.519.278-.414.631-.625l.49-.293c.352-.21.701-.334 1.047-.371s.642.018.888.164c.226.135.323.286.291.454s-.188.341-.469.521l-.298-.178c.207-.139.325-.257.351-.354s-.029-.186-.168-.269c-.16-.096-.355-.126-.585-.091s-.484.136-.763.302l-.496.296c-.274.164-.443.313-.51.448s-.023.249.131.34a.78.78 0 0 0 .463.119c.155-.012.355-.082.599-.208l.297.178zM40.264 10.516l-.828-.495-.958.573.965.577-.292.174-1.259-.753 2.704-1.616 1.243.743-.292.174-.949-.567-.871.521.828.495-.292.174zm19.649 13.116l-.296-.177 1.25-.747-.943-.563-1.25.747-.294-.176 2.704-1.616.294.176-1.163.695.942.563 1.163-.695.296.177-2.704 1.616zm-5.27-3.131l-.294-.176 2.704-1.616.294.176-2.704 1.616zm-5.017-4.475l-.551.055-.925.553-.294-.176 2.704-1.616.294.176-1.306.78.488-.061 1.641-.227.354.212-1.951.257-.693 1.395-.352-.211.592-1.136zm-12.108-5.608l-.296-.177 1.146-1.806-2.084 1.246-.296-.177 2.704-1.616.296.177-1.152 1.814 2.093-1.251.293.175-2.704 1.616zm9.199 4.053c-.369.221-.721.35-1.057.388s-.629-.018-.88-.168c-.241-.144-.335-.316-.281-.516s.255-.407.604-.621l.509-.304c.361-.216.714-.344 1.057-.384s.639.014.886.162.341.321.282.521-.268.409-.629.629l-.492.294zm.179-.459c.286-.171.458-.322.517-.454s.004-.247-.163-.347-.355-.128-.579-.093-.474.134-.75.298l-.485.29c-.276.165-.445.316-.507.452s-.01.254.155.353a.83.83 0 0 0 .567.099c.213-.033.459-.13.739-.293l.507-.303zm.97 1.153l-.412-.246-1.094.654-.296-.177 2.704-1.616.656.392c.229.137.334.282.314.435s-.163.309-.429.468c-.167.1-.345.168-.533.204a1.5 1.5 0 0 1-.552.006l-.696.958-.022.013-.317-.189.677-.903zm-.12-.42l.357.213a.73.73 0 0 0 .433.094 1.06 1.06 0 0 0 .479-.154c.347-.208.385-.393.112-.556l-.354-.212-1.027.614zm4.111 3.291c.135-.081.207-.161.215-.242s-.036-.191-.133-.33-.152-.258-.164-.355a.4.4 0 0 1 .06-.271c.052-.083.141-.162.264-.236a1.47 1.47 0 0 1 .715-.205c.262-.009.494.047.695.167.137.082.224.176.261.283s.021.215-.048.325a.95.95 0 0 1-.329.3l-.296-.177c.167-.1.262-.198.284-.295s-.033-.184-.163-.262a.68.68 0 0 0-.392-.096.9.9 0 0 0-.422.135c-.114.068-.174.146-.18.235s.034.195.122.319c.142.19.199.354.169.49s-.148.267-.356.391a1.42 1.42 0 0 1-.712.204 1.29 1.29 0 0 1-.701-.183c-.136-.081-.228-.177-.274-.287a.38.38 0 0 1 .018-.336c.059-.114.168-.219.329-.315l.296.177c-.167.1-.257.202-.268.306s.052.198.191.281a.71.71 0 0 0 .408.106c.142-.007.279-.05.412-.129z"/><use xlink:href="#D"/><use xlink:href="#E"/><use xlink:href="#E" x="10.342" y="6.078"/><use xlink:href="#D" x="15.339" y="9.084"/><path d="M21.091 5.829l.238-.142 2.956 1.767-.238.142-2.956-1.767zm-1.612 1.064l.24-.143 3.037.908-2.278-1.361.24-.143 2.956 1.767-.24.143-3.05-.912 2.288 1.368-.237.142-2.956-1.767zM17.76 9.441c-.403-.241-.659-.46-.766-.656s-.06-.355.143-.476c.195-.117.456-.146.781-.087s.683.203 1.075.431l.556.333c.395.236.649.455.761.655s.068.361-.133.481-.462.148-.789.087-.689-.21-1.09-.447l-.538-.322zm.756.167c.313.187.578.306.796.358s.394.037.53-.044.153-.184.066-.316-.28-.289-.58-.469l-.53-.317c-.302-.18-.565-.298-.791-.352s-.405-.042-.539.038-.16.183-.078.309.272.28.572.462l.554.331zm-2.688 2.772l.499-.298-2.637-1.576.238-.142 2.637 1.576.497-.297.319.191-1.234.738-.319-.19zm2.17-.891l-2.101-1.256c-.278-.168-.445-.331-.501-.486s.008-.289.191-.398.408-.151.662-.118.525.135.814.306l2.101 1.256-.237.142-2.085-1.246c-.199-.119-.374-.191-.527-.218a.58.58 0 0 0-.409.069c-.122.073-.161.154-.117.246s.165.196.364.315l2.085 1.246-.239.143zm.89-4.248l.212-.123 2.26 2.143-.211.122-2.261-2.142z"/></g></g></symbol></svg>