<svg xmlns="http://www.w3.org/2000/svg" xmlns:xlink="http://www.w3.org/1999/xlink" viewBox="0 0 61 81" fill="#fff" fill-rule="evenodd" stroke="#000" stroke-linecap="round" stroke-linejoin="round"><use xlink:href="#A" x=".5" y=".5"/><symbol id="A" overflow="visible"><g stroke="#fff"><path d="M0 11.58L19.717 0l39.989 22.857-20.444 11.879z" fill="#d9e0e3"/><path d="M39.262 80L0 56.918V10.753l39.262 23.082z" fill="#7696ad"/><path d="M60 22.857l-.294 44.571L39.262 80V33.835z" fill="#5f839e"/></g><path d="M6.878 56.697v-2.434l4.729 2.507 7.165-10.84 6.52 19.026 7.809 4.867v2.36l4.37-1.254-4.37-5.9v2.729l-6.52-4.056-6.663-19.542 6.591-9.882L33.1 38.26v2.729l4.657-1.622-4.657-5.457v2.36l-7.165-4.13-6.591 9.956-6.018-17.404-6.591-4.056v-2.802l-4.8 2.286 4.8 4.941v-2.434l5.302 3.245 6.09 17.994-7.093 10.619-4.155-2.212v-2.655l-4.944 1.475z" stroke="none"/></symbol></svg>