<svg xmlns="http://www.w3.org/2000/svg" xmlns:xlink="http://www.w3.org/1999/xlink" viewBox="0 0 66 81" fill="#fff" fill-rule="evenodd" stroke="#000" stroke-linecap="round" stroke-linejoin="round"><use xlink:href="#A" x=".5" y=".5"/><symbol id="A" overflow="visible"><g stroke="#fff"><path d="M0 20.132L32.5 0 65 20.262 32.5 40.394z" fill="#d9e0e3"/><path d="M32.5 80L0 59.803V19.409l32.5 20.197z" fill="#7696ad"/><path d="M65 19.474v40.265L32.5 80V39.606z" fill="#5f839e"/></g><path d="M5.693 59.61V57.48l3.914 2.194 5.931-9.485 5.397 16.648 6.464 4.259v2.065l3.618-1.097-3.618-5.162v2.388l-5.397-3.549-5.516-17.1 5.456-8.647 5.456 3.484v2.388l3.855-1.42-3.855-4.775v2.065l-5.931-3.614-5.456 8.711-4.982-15.228-5.456-3.549v-2.452l-3.974 2 3.974 4.323v-2.129l4.389 2.839 5.041 15.745-5.871 9.292-3.44-1.936v-2.323l-4.092 1.291z" stroke="none"/></symbol></svg>