<svg xmlns="http://www.w3.org/2000/svg" xmlns:xlink="http://www.w3.org/1999/xlink" viewBox="0 0 81 61" fill="#fff" fill-rule="evenodd" stroke="#000" stroke-linecap="round" stroke-linejoin="round"><use xlink:href="#H" x=".5" y=".5"/><defs><linearGradient id="A" x1="33%" y1="100%" x2="67%" y2="0%"><stop offset="0%" stop-color="#bdbdbd"/><stop offset="100%" stop-color="#eee"/></linearGradient><linearGradient id="B" x1="0%" y1="0%" x2="100%" y2="100%"><stop offset="0%" stop-color="#87ebff"/><stop offset="100%" stop-color="#237b9a"/></linearGradient><linearGradient id="C" x1="0%" y1="100%" x2="100%" y2="0%"><stop offset="0%" stop-color="#c1c3be"/><stop offset="98%" stop-color="#e0e1dc"/></linearGradient><path id="D" d="M.689.108q.696-.353.78.45.056.938-.742 1.337-.613.229-.715-.362Q-.09.595.689.108z"/><path id="E" d="M54.35 10.254q1.904 1.49-.247 2.778-2.567 1.387-4.735-.327-1.446-1.419.083-2.481 2.506-1.517 4.899.03z"/><path id="F" d="M54.229 10.258q1.86 1.455-.241 2.713-2.506 1.354-4.624-.32-1.412-1.386.082-2.423 2.447-1.482 4.784.029z"/><path id="G" d="M53.614 10.509q1.386 1.084-.18 2.021-1.868 1.009-3.445-.238-1.052-1.033.061-1.805 1.823-1.104 3.564.022z"/></defs><symbol id="H" overflow="visible"><g stroke="none"><path d="M66.983 11.166l-6.069 3.446c.318-.411.504-.849.038-1.896-.218-.352-.728-.907-1.598-.846l6.103-3.453c.654-.211 1.308.352 1.526.705.727 1.198.109 2.044 0 2.044z" fill="url(#A)"/><path d="M79.521 21.836L40 0 .24 22.069l39.521 21.836z" fill="#e0e0e0"/><path d="M80 37.632L39.761 59.933V43.905l39.76-22.069q.479.232.479.697z" fill="#9e9e9e"/><g fill="#eee"><path d="M40.239 59.005v-14.17q-.24-1.394-1.437-2.091L1.198 22.069Q0 21.604 0 22.766v15.1q0 .697 1.198 1.394l37.605 20.582q1.437.558 1.437-.836z"/><path d="M9.783 26.791v7.256L33.09 46.954v-7.326l28.702-15.907-23.163-12.907z"/></g><path d="M9.783 26.791c.504.279 1.079.698 1.079 1.465v6.349L39.708 18.14v-5.581c0-.837-.36-1.465-1.079-1.744z" fill="#9e9e9e"/><path d="M9.783 26.791c.575.279 1.079.628 1.079 1.535v6.279l-1.079-.558z" fill="#eee"/><path d="M10.862 34.605l21.149 11.721v-6.07l23.523-13.465-15.826-8.651z" fill="#bdbdbd"/><path d="M33.09 39.558l28.702-15.837-.432-.209-29.062 16.186c.288-.14.504-.14.791-.14z" fill="#9e9e9e"/><path d="M33.09 39.558c-.719-.07-1.007.209-1.079.558v6.209l1.079.628z" fill="#eee"/><path d="M20.669 32.825l10.26 5.686 14.246-7.923-10.512-5.752z" fill="url(#B)" fill-opacity=".66"/><path d="M25.037 32.507l6.805 3.772 9.449-5.255-6.972-3.815z" fill="#5aaa8f"/><g fill="url(#C)"><use xlink:href="#D" transform="matrix(.5 .866025 -.866025 .5 32.559218 29.518397)"/><use xlink:href="#D" transform="matrix(.5 .866025 -.866025 .5 35.016716 28.05333)"/><use xlink:href="#D" transform="matrix(.5 .866025 -.866025 .5 29.83732 31.203137)"/><use xlink:href="#D" transform="matrix(.5 .866025 -.866025 .5 35.220816 30.854376)"/><use xlink:href="#D" transform="matrix(.5 .866025 -.866025 .5 37.678414 29.389212)"/><use xlink:href="#D" transform="matrix(.5 .866025 -.866025 .5 32.499018 32.539116)"/></g><use xlink:href="#E" fill="#000"/><use xlink:href="#F" fill="#eceff1"/><use xlink:href="#G" fill="#209257"/><use xlink:href="#E" x="8.493" y="4.511" fill="#000"/><use xlink:href="#F" x="8.493" y="4.511" fill="#eceff1"/><use xlink:href="#G" x="8.494" y="4.51" fill="#ff4a51"/></g></symbol></svg>