<svg xmlns="http://www.w3.org/2000/svg" xmlns:xlink="http://www.w3.org/1999/xlink" viewBox="0 0 81 56" fill="#fff" fill-rule="evenodd" stroke="#000" stroke-linecap="round" stroke-linejoin="round"><use xlink:href="#D" x=".5" y=".5"/><defs><linearGradient id="A" x1="0%" y1="0%" x2="100%" y2="100%"><stop offset="0%" stop-color="#96e652"/><stop offset="100%" stop-color="#e5ffc9"/></linearGradient><linearGradient id="B" x1="100%" y1="100%" x2="0%" y2="0%"><stop offset="0%"/><stop offset="100%" stop-color="gray"/></linearGradient><path id="C" d="M10.679 41.014v-3.571l-.893-1.785-2.083-1.19-1.19.893v3.273z"/></defs><symbol id="D" overflow="visible"><g stroke="none"><path d="M46.497.466q1.631-.932 3.263 0l29.366 16.78q1.631.932 0 1.864L33.445 45.212q-1.631.932-3.263 0L.816 28.432q-1.631-.932 0-1.864L46.497.466" fill="#eceff1"/><path d="M31.814 45.678q-.816 0-1.631-.466L.816 28.432Q0 27.966 0 27.5v9.322q0 .466.816.932l29.366 16.78q.816.466 1.631.466z" fill="#cfd8dc"/><path d="M31.814 45.677q.845.017 1.69-.466L79.185 19.11q.816-.466.816-.932V27.5q0 .466-.816.932L33.504 54.534q-.845.483-1.69.466z" fill="#90a4ae"/><path d="M11.765 35.468l-6.118-3.385v7.042l6.118 3.385z" fill="#c5d1d5"/><use xlink:href="#C" fill="#464646"/><g fill="url(#A)"><path d="M7.772 34.472l-1.419-.785v1.634l1.419.785z"/><path d="M10.759 36.189l-1.419-.785v1.634l1.419.785z"/></g><path d="M18.824 39.593l-6.118-3.385v7.042l6.118 3.385z" fill="#c5d1d5"/><use xlink:href="#C" x="7.059" y="4.125" fill="#464646"/><g fill="url(#A)"><path d="M14.831 38.597l-1.419-.785v1.634l1.419.785z"/><path d="M17.818 40.314l-1.419-.785v1.634l1.419.785z"/></g><path d="M23.529 48.43v.558l1.109 1.362 2.465 1.32 1.602.12v-.452z" fill="#464646"/><path d="M27.969 50.919l-.911.185-2.118-1.146.903-.229z" fill="url(#B)"/><g fill="#607d8b"><path d="M37.255 25.961L32 23.006l.961-.541a1.69 1.69 0 0 1 1.044-.193c.389.044.816.197 1.283.46.245.139.423.282.532.432s.148.292.117.425c.227-.046.497-.032.811.043a3.64 3.64 0 0 1 .944.379c.472.265.759.52.863.765s.002.454-.305.626l-.993.558zm-2.59-1.933l.544-.306c.147-.083.188-.193.124-.33s-.224-.278-.48-.422c-.289-.163-.541-.258-.754-.286a.9.9 0 0 0-.572.1l-.537.302 1.675.942zm.556.312l1.891 1.064.579-.325c.161-.09.206-.209.135-.354s-.255-.303-.554-.471c-.633-.356-1.121-.437-1.463-.244l-.588.33zm7.568-1.613l-5.256-2.955.803-.452c.394-.221.891-.285 1.493-.192s1.25.336 1.945.727l.881.495c.695.391 1.122.755 1.281 1.092s.027.624-.393.86l-.754.425zm-4.265-2.875l4.122 2.318.34-.191c.298-.168.383-.365.254-.591s-.453-.488-.972-.784l-.932-.524c-.554-.312-1.029-.501-1.424-.57s-.731-.026-1.008.13l-.38.213z"/><path d="M46.786 17.729l-1.192.67 1.862 1.047 1.389-.781.567.319-1.813 1.019-5.255-2.955 1.79-1.006.567.319-1.366.768 1.693.952 1.192-.67.567.319zm-.204 1.997l.07.123c.174.338.056.622-.354.853-.364.205-.839.26-1.423.165s-1.223-.335-1.916-.719l-1.032-.58c-.736-.414-1.194-.777-1.371-1.09s-.079-.575.298-.787c.321-.18.711-.244 1.171-.189s.957.222 1.493.502l-.424.238c-.344-.174-.658-.286-.942-.333s-.527-.014-.729.099c-.242.136-.296.305-.163.507s.469.457 1.006.764l1.072.603c.529.298 1 .489 1.413.575s.74.061.982-.075c.228-.128.316-.275.262-.438l-.027-.086-1.207-.679-.616.346-.567-.319 1.039-.585 1.964 1.105zm-4.197 3.247l-.424.238-5.255-2.955.424-.238 5.255 2.955zm-3.884-.121l-.593.333 2.126 1.196-.426.24-5.256-2.955.944-.531c.33-.186.714-.251 1.153-.196s.916.229 1.433.519c.325.183.562.368.713.555s.202.363.157.527l2.887.889.043.024-.456.256-2.725-.858zm-1.159.015l.514-.289c.177-.1.23-.23.158-.389s-.259-.324-.557-.492c-.675-.38-1.208-.459-1.601-.239l-.509.286 1.996 1.123z"/></g></g></symbol></svg>