<svg xmlns="http://www.w3.org/2000/svg" xmlns:xlink="http://www.w3.org/1999/xlink" viewBox="0 0 56 82" fill="#fff" fill-rule="evenodd" stroke="#000" stroke-linecap="round" stroke-linejoin="round"><style><![CDATA[.B{stroke:none}.C{fill:#b0bec5}.D{fill:#cfd8dc}.E{fill:#3e596c}.F{fill:#304b60}.G{fill:#233e51}.H{fill:#1b303f}]]></style><use xlink:href="#A" x=".5" y=".5"/><symbol id="A" overflow="visible"><path d="M18.333 20.87v13.913l18.333-10.435V10.435zm18.261 24.348V80l18.333-10.435V34.783z" class="B C"/><path d="M18.333 69.565L36.667 80V45.218L18.333 34.783V20.87L0 10.435v48.696z" class="B D"/><path d="M0 10.435L18.333 20.87l18.333-10.435L18.333 0z" fill="#eceff1" class="B"/><path d="M1.528 10.29l16.806 9.565 16.806-9.565L18.334.725z" class="B C"/><path d="M2.164 10.652l16.169 9.203 16.169-9.203-16.169-9.203z" fill="#f7f8f9" class="B"/><path d="M34.484 10.653L18.333 1.45V.725l16.806 9.565z" class="B D"/><path d="M18.333 34.783l18.333 10.435L55 34.783 36.666 24.348z" fill="#eceff1" class="B"/><path d="M19.861 34.637l16.806 9.565 16.806-9.565-16.806-9.565z" class="B C"/><path d="M20.498 35l16.169 9.203L52.836 35l-16.169-9.203z" fill="#f7f8f9" class="B"/><path d="M52.818 35l-16.151-9.203v-.725l16.806 9.565z" class="B D"/><g fill="#7696ad"><use xlink:href="#C" class="B"/><use xlink:href="#C" x="4.272" y="-2.415" class="B"/><use xlink:href="#C" x="8.602" y="-4.887" class="B"/><use xlink:href="#C" x="12.643" y="-7.187" class="B"/></g><g fill="#6b8aa0"><use xlink:href="#C" y="5.797" class="B"/><use xlink:href="#C" x="4.272" y="3.382" class="B"/><use xlink:href="#C" x="8.602" y="0.91" class="B"/><use xlink:href="#C" x="12.643" y="-1.39" class="B"/></g><g class="E"><use xlink:href="#C" x="18.334" y="32.319" class="B"/><use xlink:href="#C" x="22.606" y="29.904" class="B"/><use xlink:href="#C" x="26.935" y="27.432" class="B"/><use xlink:href="#C" x="30.976" y="25.132" class="B"/></g><g class="F"><use xlink:href="#C" x="18.334" y="37.682" class="B"/><use xlink:href="#C" x="22.606" y="35.266" class="B"/><use xlink:href="#C" x="26.935" y="32.794" class="B"/><use xlink:href="#C" x="30.976" y="30.494" class="B"/></g><g class="G"><use xlink:href="#C" x="18.334" y="43.189" class="B"/><use xlink:href="#C" x="22.606" y="40.774" class="B"/><use xlink:href="#C" x="26.935" y="38.301" class="B"/><use xlink:href="#C" x="30.976" y="36.001" class="B"/></g><g class="H"><use xlink:href="#C" x="18.334" y="48.261" class="B"/><use xlink:href="#C" x="22.606" y="45.846" class="B"/><use xlink:href="#C" x="26.935" y="43.374" class="B"/><use xlink:href="#C" x="30.976" y="41.074" class="B"/></g><g fill="#4a6578"><use xlink:href="#C" x="18.334" y="26.522" class="B"/><use xlink:href="#C" x="22.606" y="24.107" class="B"/><use xlink:href="#C" x="26.935" y="21.634" class="B"/><use xlink:href="#C" x="30.976" y="19.334" class="B"/><use xlink:href="#D" class="B"/><use xlink:href="#D" x="-4.272" y="-2.415" class="B"/><use xlink:href="#D" x="-8.601" y="-4.887" class="B"/><use xlink:href="#D" x="-12.642" y="-7.188" class="B"/></g><g class="E"><use xlink:href="#D" y="5.797" class="B"/><use xlink:href="#D" x="-4.272" y="3.382" class="B"/><use xlink:href="#D" x="-8.601" y="0.91" class="B"/><use xlink:href="#D" x="-12.642" y="-1.39" class="B"/></g><g class="F"><use xlink:href="#D" y="11.16" class="B"/><use xlink:href="#D" x="-4.272" y="8.745" class="B"/><use xlink:href="#D" x="-8.601" y="6.272" class="B"/><use xlink:href="#D" x="-12.642" y="3.972" class="B"/></g><g class="G"><use xlink:href="#D" y="16.667" class="B"/><use xlink:href="#D" x="-4.272" y="14.252" class="B"/><use xlink:href="#D" x="-8.601" y="11.779" class="B"/><use xlink:href="#D" x="-12.642" y="9.479" class="B"/></g><g class="H"><use xlink:href="#D" y="21.739" class="B"/><use xlink:href="#D" x="-4.272" y="19.324" class="B"/><use xlink:href="#D" x="-8.601" y="16.852" class="B"/><use xlink:href="#D" x="-12.642" y="14.552" class="B"/></g><g fill="#4a6578"><use xlink:href="#D" x="17.897" y="10.145" class="B"/><use xlink:href="#D" x="13.625" y="7.73" class="B"/><use xlink:href="#D" x="9.295" y="5.257" class="B"/><use xlink:href="#D" x="5.254" y="2.957" class="B"/></g><g class="E"><use xlink:href="#D" x="17.897" y="15.942" class="B"/><use xlink:href="#D" x="13.625" y="13.527" class="B"/><use xlink:href="#D" x="9.295" y="11.055" class="B"/><use xlink:href="#D" x="5.254" y="8.755" class="B"/></g><g class="F"><use xlink:href="#D" x="17.897" y="21.305" class="B"/><use xlink:href="#D" x="13.625" y="18.889" class="B"/><use xlink:href="#D" x="9.295" y="16.417" class="B"/><use xlink:href="#D" x="5.254" y="14.117" class="B"/></g><g class="G"><use xlink:href="#D" x="17.897" y="26.812" class="B"/><use xlink:href="#D" x="13.625" y="24.397" class="B"/><use xlink:href="#D" x="9.295" y="21.924" class="B"/><use xlink:href="#D" x="5.254" y="19.624" class="B"/></g><g class="H"><use xlink:href="#D" x="17.897" y="31.884" class="B"/><use xlink:href="#D" x="13.625" y="29.469" class="B"/><use xlink:href="#D" x="9.295" y="26.997" class="B"/><use xlink:href="#D" x="5.254" y="24.697" class="B"/></g><g fill="#7696ad"><use xlink:href="#D" y="-16.087" class="B"/><use xlink:href="#D" x="-4.272" y="-18.502" class="B"/><use xlink:href="#D" x="-8.601" y="-20.974" class="B"/><use xlink:href="#D" x="-12.642" y="-23.274" class="B"/></g><g fill="#6b8aa0"><use xlink:href="#D" y="-10.29" class="B"/><use xlink:href="#D" x="-4.272" y="-12.705" class="B"/><use xlink:href="#D" x="-8.601" y="-15.177" class="B"/><use xlink:href="#D" x="-12.642" y="-17.477" class="B"/></g></symbol><defs ><path id="C" d="M20.661 21.392l1.616-.92v3.68l-1.616.92z"/><path id="D" d="M16.441 37.769l-1.616-.92v3.68l1.616.92z"/></defs></svg>