<svg xmlns="http://www.w3.org/2000/svg" xmlns:xlink="http://www.w3.org/1999/xlink" viewBox="0 0 66 81" fill="#fff" fill-rule="evenodd" stroke="#000" stroke-linecap="round" stroke-linejoin="round"><use xlink:href="#E" x=".5" y=".5"/><defs><linearGradient id="A" x1="100%" y1="50%" x2="0%" y2="50%"><stop offset="0%" stop-color="#90a4ae"/><stop offset="100%" stop-color="#b0bec5"/></linearGradient><linearGradient id="B" x1="83%" y1="100%" x2="17%" y2="0%"><stop offset="0%" stop-color="#87ebff"/><stop offset="100%" stop-color="#4ba1d2"/></linearGradient><linearGradient id="C" x1="0%" y1="0%" x2="100%" y2="100%"><stop offset="0%" stop-color="gray"/><stop offset="100%"/></linearGradient><path id="D" d="M38.819 25.891q12.498-6.326 13.998 8.066 1 16.804-13.326 23.961-11.004 4.101-12.837-6.486-1.833-16.804 12.165-25.542z"/></defs><symbol id="E" overflow="visible"><g stroke="none"><path d="M0 31.994l9.254 5.332v42.659L0 74.653z" fill="#3f5f74"/><path d="M0 31.994l9.254 5.332L65 5.332 55.746 0z" fill="#eceff1"/><path d="M9.144 79.208V37.66c0-.444.22-.555.661-.778l54.864-31.55c.22-.111.22-.111.33 0v41.77c0 .778-.441 1.222-1.102 1.555L10.136 79.541c-.881.444-.992.889-.992-.333z" fill="#cfd8dc"/><path d="M15.424 31.695c0 1.047-2.356 1.89-5.282 1.89s-5.282-.843-5.282-1.89V28.86h10.565z" fill="url(#A)"/><ellipse cx="10.141" cy="28.774" fill="#eceff1" rx="5.282" ry="1.89"/><ellipse cx="10.226" cy="28.644" fill="#3f5f74" rx="4.686" ry="1.677"/><path d="M58.169 11.887l4.847-2.777v5.777l-4.847 2.777z" fill="#eceff1"/><g fill="#37474f"><use xlink:href="#D"/><path d="M35.254 60.655l-4.407-2.222 17.627-33.772 4.407 2.222z"/></g><use xlink:href="#D" x="4.406" y="2.259" fill="#263238"/><path d="M44.268 31.733q9.809-4.965 10.986 6.33.785 13.188-10.459 18.805-8.636 3.219-10.075-5.09-1.439-13.188 9.547-20.045z" fill="url(#B)"/><path d="M43.346 36.628q5.537-2.803 6.201 3.574.443 7.445-5.904 10.616-4.875 1.817-5.687-2.873-.812-7.445 5.39-11.316z" fill="#eceff1" fill-opacity=".6"/><path d="M42.726 37.79q4.43-2.242 4.961 2.859.354 5.956-4.723 8.492-3.9 1.454-4.55-2.299-.65-5.956 4.312-9.053z" fill="url(#C)" fill-opacity=".6"/></g></symbol></svg>