<svg xmlns="http://www.w3.org/2000/svg" xmlns:xlink="http://www.w3.org/1999/xlink" viewBox="0 0 82 57" fill="#fff" fill-rule="evenodd" stroke="#000" stroke-linecap="round" stroke-linejoin="round"><use xlink:href="#I" x=".5" y=".5"/><defs><linearGradient id="A" x1="0%" y1="67%" x2="100%" y2="33%"><stop offset="0%" stop-color="#90a4ae"/><stop offset="100%" stop-color="#eceff1"/></linearGradient><linearGradient id="B" x1="0%" y1="0%" x2="100%" y2="100%"><stop offset="0%" stop-color="#ffd194"/><stop offset="100%" stop-color="#d1913c"/></linearGradient><linearGradient id="C" x1="0%" y1="94%" x2="100%" y2="6%"><stop offset="0%" stop-color="#90a4ae"/><stop offset="100%" stop-color="#b0bec5"/></linearGradient><path id="D" d="M35.478 26.544q-1.047-1.001.272-1.647 1.567-.681 2.759.469.782.932-.162 1.478-1.537.762-2.868-.301z"/><path id="E" d="M12.31 15.969l-.879.521.859.75-.336.199-3.218-2.904.28-.166 4.895 1.908-.336.199-1.267-.508zm-1.231.211l.709-.421-2.2-.883 1.49 1.304z"/><path id="F" d="M16.337 14.727l-4.056-2.406.62-.368c.304-.18.688-.232 1.152-.156s.965.273 1.501.592l.68.403c.537.318.866.615.988.89s.021.508-.303.7l-.582.346zm-3.291-2.341l3.181 1.887.263-.156c.23-.136.295-.297.196-.482s-.35-.397-.75-.638l-.719-.427c-.428-.254-.794-.408-1.099-.464s-.564-.021-.778.106l-.293.174z"/><path id="G" d="M21.605 9.181l-.92.546 1.437.853 1.072-.636.438.259-1.399.83-4.056-2.406 1.381-.82.437.26-1.054.625 1.306.775.92-.546.437.259z"/><path id="H" d="M13.444 14.541l-.457.271 1.641.973-.329.195-4.056-2.406.729-.432c.255-.151.551-.204.89-.159s.707.186 1.106.423c.251.149.434.299.55.452s.156.296.121.429l2.228.724.033.02-.352.209-2.103-.699zm-.895.012l.397-.235c.137-.081.178-.187.121-.317s-.2-.264-.43-.4c-.521-.309-.933-.374-1.235-.194l-.393.233 1.54.914z"/></defs><symbol id="I" overflow="visible"><g stroke="none"><path d="M.361 17.426L30.126 0l29.945 17.612-29.765 17.426z" fill="#cfd8dc"/><path d="M0 30.032l30.306 17.797V35.038L.361 17.426Q0 17.611 0 17.982z" fill="#b0bec5"/><path d="M29.945 47.088V35.78q.18-1.112 1.082-1.668l28.322-16.499q.902-.371.902.556v12.05q0 .556-.902 1.112L31.027 47.755q-1.082.445-1.082-.667zM79.93 41.33L59.778 53.536l-.086 1.252L79.93 42.919z" fill="#eceff1"/><path d="M33.694 40.607l.005-1.36 24.156 14.19-.005 1.19z" fill="#90a4ae"/><path d="M57.68 53.41c.045.236.563.32 1.065.492.586 0 .335-.172 1.172-.344l-.011 1.124c-.318.212-.329.318-1.165.318-.502 0-.725-.252-1.059-.424z" fill="url(#A)"/><path d="M33.808 39.111l21.59-12.728 24.435 14.62c.167.172.167.172.167.344 0 .344-.167.344-.335.516L59.917 53.558c-.335.172-.837.344-1.172.344-.167 0-.502 0-1.004-.344z" fill="#cfd8dc"/><path d="M46.295 34.295c-.221.13-.016.227-.032.227l4.92 2.949a.44.44 0 0 0 .189.065c.126 0 .189-.032.252-.065l3.658-2.171c.095-.065.095-.065.095-.13 0-.032-.032-.065-.095-.097l-4.92-2.949c-.063-.032-.079-.065-.158-.065s-.063 0-.158.032z" fill="url(#B)"/></g><g fill="none" stroke="#838383" stroke-linejoin="miter" stroke-width=".1"><path d="M50.508 33.381q-.245-.126-.582.031l-1.409.787q-.092.157.123.283l2.604 1.542q.245.157.551.094l1.409-.787m-4.166-.125l.95.567m1.623-2.203l.95.567m-.767 1.982l.95.567m.459-1.354l.95.567m-1.685-.126l.95.567m-5.851-2.707l.95.567m.459-1.354l.95.567"/><path d="M48.211 33.255l.95.567m2.45-.252l.521-.315m.428.881l.521-.315m-4.748 1.826l.705-.441m.214 1.008l.735-.441m-.459-.284l.368-.22m1.868-1.101l.429-.252m-1.685-.535l1.256.787"/></g><g stroke="none"><path d="M1.382.211q1.396-.69 1.563.88.112 1.833-1.488 2.614-1.229.447-1.434-.708Q-.181 1.164 1.382.211z" fill="url(#C)" transform="matrix(-.34202 -.939693 .939693 -.34202 35.606027 27.989492)"/><use xlink:href="#D" fill="#43a047"/><use xlink:href="#D" x="0.023" y="-0.202" fill="#66bb6a"/><path d="M40.228 23.86q-1.126-1.076.292-1.77 1.685-.732 2.966.505.841 1.002-.175 1.589-1.653.819-3.083-.324z" fill="#546e7a"/><use xlink:href="#D" x="4.897" y="-2.758" fill="#78909c"/><use xlink:href="#D" x="4.92" y="-2.961" fill="#90a4ae"/></g><g fill="none" stroke-linejoin="miter" stroke="#4f4f4f" stroke-width=".5"><path d="M46.788 17.464l3.853 2.504c.05.026.099.051.149.051.099 0 .149-.026.199-.051l2.884-1.712c.075-.051.075-.051.075-.102 0-.026-.025-.051-.075-.077l-3.878-2.325c-.05-.026-.062-.051-.124-.051s-.05 0-.124.026z"/><path d="M48.536 17.037l.741.481c.01.005.019.01.029.01.019 0 .029-.005.038-.01l.555-.329c.014-.01.014-.01.014-.02s-.005-.01-.014-.015l-.746-.447c-.01-.005-.012-.01-.024-.01s-.01 0-.024.005z"/></g><g stroke="none"><path d="M46.193 17.196l3.393-1.993h-3.393z" fill="#4f4f4f"/><g fill="#92a5af"><use xlink:href="#E"/><path d="M10.282 16.858c.42.266.675.51.764.732s.004.41-.256.564-.623.186-1.086.094-.959-.295-1.488-.609l-.736-.436c-.527-.313-.865-.607-1.014-.883s-.087-.494.186-.656c.251-.149.563-.195.934-.138s.782.212 1.23.464l-.331.196c-.345-.188-.625-.301-.841-.34s-.401-.013-.555.078c-.178.105-.206.25-.085.435s.39.401.808.649l.744.441c.41.243.77.404 1.077.481s.547.065.717-.036.227-.213.17-.336-.247-.291-.571-.504l.33-.196z"/><use xlink:href="#F"/><use xlink:href="#G"/><use xlink:href="#H"/><use xlink:href="#E" x="12.217" y="-7.568"/><use xlink:href="#H" x="5.69" y="-3.44"/><use xlink:href="#F" x="10.377" y="-6.364"/><use xlink:href="#G" x="6.695" y="-4.128"/><use xlink:href="#H" x="16.569" y="-10.32"/></g></g></symbol></svg>