<svg xmlns="http://www.w3.org/2000/svg" xmlns:xlink="http://www.w3.org/1999/xlink" viewBox="0 0 81 67" fill="#fff" fill-rule="evenodd" stroke="#000" stroke-linecap="round" stroke-linejoin="round"><use xlink:href="#A" x=".5" y=".5"/><symbol id="A" overflow="visible"><g stroke="none"><path d="M46.567 21.185c-1.145-.654-2.56-.846-4.143-.519-.976.203-2.016.602-3.093 1.215-1.036.587-2.027 1.326-2.967 2.182l3.809 2.178c.94-.856 1.932-1.594 2.967-2.183 1.078-.613 2.119-1.012 3.093-1.215 1.583-.327 2.998-.135 4.143.519l-3.809-2.177z" fill="#f0a72e"/><path d="M33.072 18.57c-1.322-.756-2.959-.978-4.789-.599-1.13.233-2.334.697-3.581 1.405-2.076 1.179-4.027 2.894-5.717 4.921-3.111 3.73-5.346 8.519-5.886 12.977-.934.208-1.934.6-2.961 1.183-1.791 1.017-3.47 2.494-4.928 4.239C2.089 46.433-.013 51.402 0 55.729c.009 3.154 1.14 5.375 2.966 6.419l3.809 2.178c-1.826-1.044-2.957-3.264-2.966-6.419-.013-4.327 2.089-9.296 5.21-13.033 1.458-1.745 3.137-3.221 4.928-4.238 1.026-.583 2.027-.977 2.961-1.183.541-4.458 2.775-9.247 5.886-12.977 1.692-2.027 3.64-3.741 5.717-4.921 1.248-.709 2.451-1.172 3.581-1.406 1.83-.379 3.466-.157 4.789.6l-3.809-2.178z" fill="#4fc3f7"/><path d="M28.511 21.554c5.893-3.346 10.789-1.224 11.662 4.686.94-.856 1.932-1.594 2.967-2.183 5.616-3.19 10.186-.628 10.204 5.72s-4.522 14.082-10.138 17.271L14.013 63.626c-5.625 3.195-10.186.628-10.204-5.718S8.322 43.83 13.947 40.636c1.027-.583 2.027-.976 2.961-1.183.836-6.882 5.705-14.548 11.604-17.899z" fill="#e1f5fe"/><path d="M57.758 3.433c-1.158-.662-2.588-.856-4.189-.525-.987.205-2.038.609-3.128 1.229-1.047.594-2.05 1.341-3 2.207l3.852 2.202c.95-.866 1.953-1.612 3-2.207 1.09-.619 2.142-1.023 3.128-1.229 1.601-.331 3.032-.136 4.189.524l-3.852-2.202zM44.112.789C42.776.025 41.12-.2 39.27.184c-1.142.236-2.36.705-3.621 1.421-2.099 1.193-4.072 2.927-5.781 4.976-3.146 3.771-5.406 8.614-5.952 13.122-.944.21-1.956.607-2.994 1.196-1.811 1.028-3.509 2.521-4.983 4.286-3.155 3.778-5.281 8.802-5.268 13.178.009 3.189 1.153 5.435 2.999 6.49l3.852 2.202c-1.846-1.055-2.99-3.301-2.999-6.49-.013-4.376 2.112-9.4 5.268-13.178 1.475-1.765 3.172-3.257 4.983-4.286 1.038-.59 2.05-.988 2.994-1.197.548-4.508 2.806-9.35 5.952-13.121 1.71-2.05 3.68-3.784 5.78-4.977 1.262-.717 2.479-1.185 3.621-1.422 1.85-.384 3.505-.159 4.842.607L44.112.789z" fill="#4fc3f7"/><path d="M39.5 3.806C45.458.423 50.409 2.569 51.292 8.544c.95-.866 1.953-1.612 3-2.207 5.678-3.225 10.299-.635 10.317 5.783s-4.573 14.239-10.251 17.464L24.839 46.347c-5.687 3.231-10.299.635-10.317-5.782s4.564-14.235 10.251-17.464c1.038-.59 2.05-.987 2.994-1.196.845-6.958 5.768-14.711 11.733-18.099z" fill="#e1f5fe"/><path d="M73.148 5.828c-1.158-.662-2.588-.856-4.189-.525-.987.205-2.038.609-3.128 1.229-1.047.594-2.05 1.341-3 2.207l3.852 2.202c.95-.866 1.953-1.612 3-2.207 1.09-.619 2.142-1.024 3.128-1.229 1.601-.331 3.032-.136 4.189.524l-3.852-2.202zM59.502 3.184c-1.336-.764-2.992-.989-4.842-.605-1.142.236-2.36.705-3.621 1.421-2.099 1.193-4.072 2.927-5.781 4.976-3.146 3.771-5.406 8.614-5.952 13.122-.944.21-1.956.607-2.994 1.196-1.811 1.029-3.509 2.521-4.983 4.286-3.155 3.778-5.281 8.802-5.268 13.178.009 3.189 1.153 5.435 2.999 6.49l3.852 2.202c-1.846-1.055-2.99-3.301-2.999-6.49-.013-4.376 2.112-9.4 5.268-13.178 1.475-1.765 3.172-3.257 4.983-4.286 1.038-.59 2.05-.988 2.994-1.197.548-4.508 2.806-9.35 5.952-13.121 1.711-2.049 3.681-3.783 5.781-4.976 1.262-.717 2.479-1.185 3.621-1.422 1.85-.384 3.505-.159 4.842.607l-3.852-2.202z" fill="#4fc3f7"/><path d="M54.891 6.201c5.959-3.383 10.909-1.237 11.792 4.738.95-.866 1.953-1.612 3-2.207C75.361 5.507 79.982 8.098 80 14.516S75.428 28.754 69.75 31.98L40.23 48.742c-5.687 3.231-10.299.635-10.317-5.782s4.564-14.235 10.251-17.464c1.038-.59 2.05-.987 2.994-1.196.845-6.958 5.768-14.711 11.733-18.099z" fill="#e1f5fe"/></g></symbol></svg>