<svg xmlns="http://www.w3.org/2000/svg" xmlns:xlink="http://www.w3.org/1999/xlink" viewBox="0 0 82 82" fill="#fff" fill-rule="evenodd" stroke="#000" stroke-linecap="round" stroke-linejoin="round"><use xlink:href="#B" x=".5" y=".5"/><defs><linearGradient id="A" x1="0%" y1="0%" x2="100%" y2="100%"><stop offset="0%" stop-color="gray"/><stop offset="100%"/></linearGradient></defs><symbol id="B" overflow="visible"><g fill="url(#A)" stroke="none"><path d="M52.501 24.056q-4.104-2.023-4.597 2.579-.328 5.374 4.376 7.663 3.614 1.312 4.216-2.074.602-5.374-3.995-8.168z"/><path d="M78.658 20.933l-23.357 13.43c1.225-1.603 1.939-3.307.146-7.388-.839-1.373-2.8-3.536-6.152-3.295l23.491-13.456c2.517-.824 5.034 1.373 5.873 2.746 2.796 4.668.42 7.964 0 7.964z"/><path d="M52.226 25.108q-3.311-1.632-3.708 2.081-.114 4.294 3.53 6.182 2.915 1.058 3.401-1.673.486-4.335-3.223-6.589z"/></g><path d="M33.42 21.739l-12.398-7.391L46.26 0l12.398 7.391-6.199 13.043 8.855 5.091-12.398 7.083z" fill="#ffeb3b" stroke="none"/><g fill="#f1b11c"><path d="M21.022 14.348v32.609l12.398 7.391V21.739z" stroke="none"/><path d="M28.106 40v32.609L40.504 80V47.391z" stroke="none"/></g><path d="M40.504 50.434V80l20.81-54.474-12.263 6.881 9.606-25.016L33.42 21.739v32.609z" fill="#fac13c" stroke="none"/><path d="M4.618 49.322Q.514 47.299.021 51.901q-.328 5.374 4.376 7.663 3.614 1.312 4.216-2.074.602-5.374-3.995-8.168z" fill="#37474f" stroke="none"/><path d="M30.775 46.2L7.418 59.63c1.225-1.603 1.939-3.307.146-7.388-.839-1.373-2.8-3.536-6.152-3.295l23.491-13.456c2.517-.824 5.034 1.373 5.873 2.746 2.796 4.668.42 7.964 0 7.964z" fill="url(#A)" stroke="none"/><path d="M4.343 50.374Q1.032 48.742.634 52.455q-.114 4.294 3.53 6.182 2.915 1.058 3.401-1.673.486-4.335-3.223-6.589z" fill="#eee" stroke="none"/></symbol></svg>