<svg xmlns="http://www.w3.org/2000/svg" xmlns:xlink="http://www.w3.org/1999/xlink" viewBox="0 0 81 77" fill="#fff" fill-rule="evenodd" stroke="#000" stroke-linecap="round" stroke-linejoin="round"><use xlink:href="#F" x=".5" y=".5"/><defs><linearGradient id="A" x1="0%" y1="50%" x2="100%" y2="50%"><stop offset="0%" stop-color="#c9c9c9"/><stop offset="100%" stop-color="#b0b0b0"/></linearGradient><linearGradient id="B" x1="100%" y1="0%" x2="0%" y2="100%"><stop offset="0%" stop-color="#00387f"/><stop offset="100%" stop-color="#0af"/></linearGradient><linearGradient id="C" x1="0%" y1="0%" x2="100%" y2="100%"><stop offset="0%" stop-color="gray"/><stop offset="100%"/></linearGradient><path id="D" d="M65.851 47.667q.495-.268.06-.646-.525-.417-1.089-.107-.388.269-.085.572.506.444 1.114.182z"/><path id="E" d="M2.25.586L1.519 0 0 .877l.731.589z"/></defs><symbol id="F" overflow="visible"><g stroke="none"><path d="M0 59.179l26.044 14.883 13.022-7.442-26.044-14.883L0 59.179" fill="#e3e3e3"/><path d="M42.538 68.605q.868.496.868-.496V55.21q0-.992-.868-1.488L9.549 34.869q-.868-.496-.868.496v12.899q0 .992.868 1.488z" fill="#cfd8dc"/><path d="M43.159 68.73q.248-.124.248-.62V55.211q0-.496-.217-.868l26.013-14.883q.248.372.248.868v12.899q0 .501-.222.623L43.159 68.73" fill="url(#A)"/><path d="M8.929 34.746L34.947 19.86q.217-.119.646.127l32.989 18.852q.403.248.62.62L43.189 54.342q-.217-.372-.651-.62L9.549 34.87q-.372-.248-.62-.124" fill="#eceff1"/><path d="M39.066 66.621L13.022 51.737v-4.961l26.044 14.883z" fill="#607d8b"/><path d="M13.022 48.017L0 55.459v3.721l13.022-7.442z" fill="#b0bec5"/><path d="M26.044 74.062L0 59.179v-3.721l26.044 14.883v3.721" fill="#cfd8dc"/><path d="M30.385 31.893l17.363 9.922-13.022 7.442-17.363-9.922zM39.066 62.9l-13.022 7.442v3.721l13.022-7.442z" fill="#b0bec5"/><path d="M44.275.142q-.8-.457-1.074.561l-4.135 21.268L65.11 36.854l4.093-21.333q.248-.992-.62-1.488zm9.518 25.461l-1.736-.992 2.635-13.554 1.736.992z" fill="#607d8b"/><path d="M39.438 56.078l1.984 1.116v-1.24l-1.984-1.116z"/><path d="M53.626 62.723v12.165L80 59.71V47.433z" fill="#788d9a"/><path d="M80 47.434l-10.813-7.998L42.96 54.108l10.667 8.616z" fill="#eceff1"/><path d="M67.458 51.488l-6.804-5.893-14.745 8.512 6.896 5.714z" fill="url(#B)"/><use xlink:href="#D" fill="#96e652"/><use xlink:href="#D" x="1.349" y="1.042" fill="#cc584c"/><g fill="url(#C)"><use xlink:href="#E" transform="matrix(.999848 -.017452 .017452 .999848 65.391086 44.444248)"/><use xlink:href="#E" transform="matrix(.999848 -.017452 .017452 .999848 67.421586 43.217648)"/><use xlink:href="#E" transform="matrix(.999848 -.017452 .017452 .999848 69.452086 41.990948)"/><use xlink:href="#E" transform="matrix(.999848 -.017452 .017452 .999848 66.615186 45.375048)"/><use xlink:href="#E" transform="matrix(.999848 -.017452 .017452 .999848 68.645786 44.148448)"/><use xlink:href="#E" transform="matrix(.999848 -.017452 .017452 .999848 70.676286 42.921748)"/><use xlink:href="#E" transform="matrix(.999848 -.017452 .017452 .999848 67.803586 46.306548)"/><use xlink:href="#E" transform="matrix(.999848 -.017452 .017452 .999848 69.834086 45.079848)"/><use xlink:href="#E" transform="matrix(.999848 -.017452 .017452 .999848 71.864586 43.853248)"/><use xlink:href="#E" transform="matrix(.999848 -.017452 .017452 .999848 68.991886 47.238048)"/><use xlink:href="#E" transform="matrix(.999848 -.017452 .017452 .999848 71.022486 46.011348)"/><use xlink:href="#E" transform="matrix(.999848 -.017452 .017452 .999848 73.052986 44.784748)"/></g><path d="M42.96 54.048l-.103 14.702L53.626 75V62.724L42.96 54.048z" fill="#cfd8dc"/></g></symbol></svg>