<svg xmlns="http://www.w3.org/2000/svg" xmlns:xlink="http://www.w3.org/1999/xlink" viewBox="0 0 82 71" fill="#fff" fill-rule="evenodd" stroke="#000" stroke-linecap="round" stroke-linejoin="round"><use xlink:href="#C" x=".5" y=".5"/><defs><linearGradient id="A" x1="0%" y1="0%" x2="100%" y2="100%"><stop offset="0%" stop-color="#0af"/><stop offset="100%" stop-color="#0050b8"/></linearGradient><path id="B" d="M55.628 26.374l3.722-2.195 3.745 2.219-3.722 2.195z"/></defs><symbol id="C" overflow="visible"><g stroke="none"><path d="M50.831 46.338l28.689-16.514L29.165 0 .714 16.884z" fill="#e0e0e0"/><path d="M49.998 47.57v21.937L0 39.929V17.623z" fill="#9e9e9e"/><path d="M49.998 69.507L0 39.93c.119.37 0 .37.357.616L50.355 70" fill="#92a5af"/><path d="M49.998 47.571L0 17.623c0-.246 0-.37.714-.739l50.236 29.454c-.714.493-.833.616-.952 1.232z" fill="#bdbdbd"/><path d="M51.903 45.722l25.594-15.158c1.786-1.109 2.5-1.109 2.5.739v19.718c0 1.109.119 1.725-1.19 2.465l-27.38 16.144c-.952.616-1.548.493-1.429-.863V48.31c0-1.232-.238-1.479 1.905-2.588z" fill="#eee"/><path d="M33.809 30.286l18.753-11.06 18.866 11.178-18.753 11.06z" fill="#757575"/><path d="M5.952 17.015l23.5-13.86 23.643 14.007-23.5 13.86z" fill="#c2ced3"/><path d="M6.513 16.936L29.378 3.451 52.381 17.08 29.516 30.565z" fill="url(#A)"/><path d="M18.69 9.736l.476-.246v5.299l5.119-2.095.238.37-5.476 5.916L32.5 12.325l.238.37-5.119 6.532 4.881-1.602.238.37-1.667 3.697 6.071-1.479 5.119 2.835-.595.37-4.524-2.588-6.429 1.479-.357-.37 1.667-3.574-5 1.725-.238-.37 5-6.532-13.81 6.902-.357-.37 5.833-6.162-4.405 1.849-.357-.246z"/><g fill="#e0e0e0"><use xlink:href="#B"/><path d="M42.533 34.015l3.722-2.195L50 34.039l-3.722 2.195z"/><use xlink:href="#B" x="-13.572"/><use xlink:href="#B" y="8.134"/><path d="M49.357 32.108q-2.933-1.949-.038-4.058 3.475-2.298 6.817-.051 2.268 1.898.23 3.608-3.37 2.48-7.009.501z"/><use xlink:href="#B" x="-6.809" y="-3.944"/></g><g fill="#bdbdbd"><path d="M53.941 23.564c-.16.078-.319.117-.476.118a.81.81 0 0 1-.43-.116c-.141-.084-.195-.186-.163-.306s.145-.239.34-.355l.132-.079c.128-.076.26-.132.396-.166a1.14 1.14 0 0 1 .391-.033c.124.012.234.047.329.104.126.076.187.16.182.255s-.074.188-.205.282l-.158-.094c.096-.074.146-.139.15-.196s-.035-.109-.117-.158a.56.56 0 0 0-.364-.064c-.143.017-.293.073-.451.167l-.133.08c-.149.089-.241.176-.275.261s-.003.156.094.214a.53.53 0 0 0 .269.079c.092.001.203-.028.331-.087l.158.094zm-2.277-1.646l-.516-.308-.487.291.599.358-.148.089-.756-.452 1.374-.821.748.447-.148.089-.591-.353-.442.264.516.308-.148.089z"/><path d="M52.464 22.434c-.09-.107-.133-.198-.129-.274s.054-.142.149-.199c.108-.065.235-.096.381-.093a.79.79 0 0 1 .398.111c.082.049.136.103.164.163a.2.2 0 0 1-.002.179.39.39 0 0 1-.158.157l-.158-.094c.083-.05.126-.103.128-.158s-.039-.109-.122-.158a.49.49 0 0 0-.24-.073c-.083-.002-.159.017-.229.059-.056.034-.083.074-.081.122s.037.111.104.189.109.146.126.202.013.108-.011.155-.072.091-.142.133a.68.68 0 0 1-.38.092.83.83 0 0 1-.402-.12.46.46 0 0 1-.175-.169.21.21 0 0 1-.015-.187c.024-.061.077-.115.157-.162l.158.094c-.083.05-.122.105-.117.165s.052.117.141.17a.52.52 0 0 0 .249.079.4.4 0 0 0 .226-.056c.067-.04.099-.084.095-.13s-.042-.112-.113-.198zm.736 7.92l-.382.021-.554.331-.187-.112 1.641-.981.187.112-.811.485 1.443-.108.226.135-1.284.099-.313.908-.224-.134.259-.757zm-.875-.512a1.89 1.89 0 0 1-.491.21c-.167.044-.325.059-.473.045s-.281-.055-.395-.123-.179-.145-.202-.235 0-.184.07-.283.181-.195.335-.288l.118-.071a1.87 1.87 0 0 1 .489-.207 1.4 1.4 0 0 1 .479-.046c.151.014.283.054.395.121s.182.147.206.237-.002.185-.076.285-.191.198-.351.294l-.104.062zm-.081-.175c.195-.116.31-.226.346-.328s-.006-.19-.128-.263-.264-.095-.436-.074a1.42 1.42 0 0 0-.538.196l-.121.072c-.189.113-.302.222-.342.327s.001.194.122.266.266.098.434.077a1.44 1.44 0 0 0 .54-.2l.122-.073zm6.57-4.07l1.922-.177-.266 1.162-.552-.335-1.656.985-.533-.315 1.637-1.005zm.128 9.597l1.922.177-.266-1.162-.552.335-1.656-.985-.533.315 1.637 1.005zm-12.408-.53l-1.922.177.266-1.162.552.335 1.656-.985.533.315-1.637 1.005zm-.207-8.975l-1.922-.177.266 1.162.552-.335 1.656.985.533-.315-1.637-1.005z"/></g></g></symbol></svg>