<svg xmlns="http://www.w3.org/2000/svg" xmlns:xlink="http://www.w3.org/1999/xlink" viewBox="0 0 82 71" fill="#fff" fill-rule="evenodd" stroke="#000" stroke-linecap="round" stroke-linejoin="round"><use xlink:href="#D" x=".5" y=".5"/><defs><linearGradient id="A" x1="0%" y1="0%" x2="100%" y2="100%"><stop offset="0%" stop-color="gray"/><stop offset="100%"/></linearGradient><linearGradient id="B" x1="100%" y1="44%" x2="0%" y2="56%"><stop offset="0%" stop-color="#f5f5f5"/><stop offset="100%" stop-color="#c7c7c7"/></linearGradient><path id="C" d="M22.159 29.855q2.491-1.657.034-3.447-2.949-1.95-5.787-.041-1.926 1.613-.197 3.065 2.86 2.105 5.95.423z"/></defs><symbol id="D" overflow="visible"><g stroke="none" fill="url(#A)"><path d="M3.016.406Q.336-.923.014 2.1-.2 5.629 2.872 7.132q2.36.861 2.753-1.362.393-3.529-2.609-5.364z" transform="matrix(-.5 .866025 -.866025 -.5 59.573398 36.426105)"/><path d="M19.175 7.152l-15.253 8.82c.8-1.053 1.266-2.172.096-4.852C3.47 10.217 2.189 8.797 0 8.955L15.34.118c1.644-.541 3.287.902 3.835 1.803 1.826 3.066.274 5.23 0 5.23z" transform="matrix(-.5 .866025 -.866025 -.5 66.781853 41.76733)"/><path d="M2.424.327Q.262-.745.002 1.694q-.075 2.82 2.305 4.06 1.904.695 2.221-1.099.317-2.847-2.105-4.327z" transform="matrix(-.5 .866025 -.866025 -.5 58.699604 36.395836)"/><path d="M3.016.406Q.336-.923.014 2.1-.2 5.629 2.872 7.132q2.36.861 2.753-1.362.393-3.529-2.609-5.364z" transform="matrix(-.5 .866025 -.866025 -.5 37.755298 49.012345)"/><path d="M19.175 7.152l-15.253 8.82c.8-1.053 1.266-2.172.096-4.852C3.47 10.217 2.189 8.797 0 8.955L15.34.118c1.644-.541 3.287.902 3.835 1.803 1.826 3.066.274 5.23 0 5.23z" transform="matrix(-.5 .866025 -.866025 -.5 44.963753 54.353571)"/><path d="M2.424.327Q.262-.745.002 1.694q-.075 2.82 2.305 4.06 1.904.695 2.221-1.099.317-2.847-2.105-4.327z" transform="matrix(-.5 .866025 -.866025 -.5 36.881504 48.982077)"/></g><path d="M78.042 26.831L10.505 67.924c1.787-2.475 2.616-5.45 0-11.747-1.224-2.119-3.189-5.406-8.081-5.035l67.048-40.838c3.673-1.271 7.346 2.119 8.57 4.238 4.081 7.204.612 12.289 0 12.289z" fill="url(#B)" stroke="none"/><path d="M6.74 51.786Q.75 48.664.031 55.767q-.479 8.293 6.386 11.825 5.273 2.024 6.152-3.201.879-8.292-5.83-12.605z" fill="#c7c7c7" stroke="none"/><use xlink:href="#C" fill="#343434" stroke="none"/><g fill="url(#A)"><path d="M19.175 7.152l-15.253 8.82c.8-1.053 1.266-2.172.096-4.852C3.47 10.217 2.189 8.797 0 8.955L15.34.118c1.644-.541 3.287.902 3.835 1.803 1.826 3.066.274 5.23 0 5.23z" stroke="none" transform="matrix(-.5 .866025 -.866025 -.5 31.226389 32.537323)"/><path d="M19.175 7.152l-15.253 8.82c.8-1.053 1.266-2.172.096-4.852C3.47 10.217 2.189 8.797 0 8.955L15.34.118c1.644-.541 3.287.902 3.835 1.803 1.826 3.066.274 5.23 0 5.23z" stroke="none" transform="matrix(-.5 .866025 -.866025 -.5 53.852589 19.111869)"/></g><path d="M64 4.708q3-2 .213-3.722-2.949-1.95-5.787-.041-1.905 1.811-.175 3.263 3.571 2.525 5.75.5z" fill="#343434" stroke="none"/><path d="M19.175 7.152l-15.253 8.82c.8-1.053 1.266-2.172.096-4.852C3.47 10.217 2.189 8.797 0 8.955L15.34.118c1.644-.541 3.287.902 3.835 1.803 1.826 3.066.274 5.23 0 5.23z" fill="url(#A)" stroke="none" transform="matrix(-.5 .866025 -.866025 -.5 73.246589 7.364571)"/><use xlink:href="#C" x="22.626" y="-13.425" fill="#343434" stroke="none"/></symbol></svg>