<svg xmlns="http://www.w3.org/2000/svg" xmlns:xlink="http://www.w3.org/1999/xlink" viewBox="0 0 81 56" fill="#fff" fill-rule="evenodd" stroke="#000" stroke-linecap="round" stroke-linejoin="round"><use xlink:href="#A" x=".5" y=".5"/><symbol id="A" overflow="visible"><g stroke="none"><path d="M34.717 46.269V55L80 28.809v-8.73H34.717z" fill="#546e7a"/><path d="M34.717 55L0 34.92v-8.73h34.717v20.079z" fill="#cfd8dc"/><path d="M34.717 46.27L80 20.079 45.283 0 0 26.19z" fill="#eceff1"/><path d="M28.171 28.024l1.492-.697 1.607-6.855 4.362-2.556c-.918-.813-.459-1.743.23-2.207 1.377-.697 2.984-.349 4.362.349 1.722 1.046 1.607 2.207.918 2.672-1.607.929-2.525.581-3.903.232l-4.132 2.324-1.148 4.647 18.596-10.921-2.755-1.627 8.265-.697-1.148 4.88-2.755-1.627-14.463 8.365 6.658-.465 3.673-2.091-1.837-1.162 4.132-2.324 5.051 2.788-4.132 2.556-1.607-.929-3.903 2.324-10.561.929-5.395 3.137c-.115 0 1.263.929-.115 2.091-1.033.697-2.755.697-4.706-.349-.804-.581-1.837-1.394-.804-2.556.918-.697 2.411-.697 4.018-.232z" fill="#546e7a"/></g><g transform="matrix(-1 0 0 -1 24.582199 45.833334)" stroke="none"><path d="M.918.127Q.102-.288.004.655q-.065 1.1.869 1.569.718.269.838-.425.12-1.1-.794-1.673z" fill="#000"/><path d="M.935.169Q.139-.236.043.684-.021 1.759.892 2.217q.701.262.818-.415Q1.827.727.935.169z" fill="#43a047"/><path d="M.948.419Q.354.118.283.803q-.047.801.633 1.142.522.195.609-.309Q1.612.835.948.419z" fill="#66bb6a"/></g><path d="M25.876 45.615v.508l.97 1.238 2.156 1.2 1.402.109v-.411z" fill="#464646" stroke="none"/></symbol></svg>