<svg xmlns="http://www.w3.org/2000/svg" xmlns:xlink="http://www.w3.org/1999/xlink" viewBox="0 0 57 81" fill="#fff" fill-rule="evenodd" stroke="#000" stroke-linecap="round" stroke-linejoin="round"><use xlink:href="#B" x=".5" y=".5"/><defs><linearGradient id="A" x1="17%" y1="0%" x2="83%" y2="100%"><stop offset="0%" stop-color="#e0e0e0"/><stop offset="100%" stop-color="#757575"/></linearGradient></defs><symbol id="B" overflow="visible"><g stroke="none"><path d="M17.891 35.876v44.095l37.108-22.163V13.713z" fill="#e0e0e0"/><path d="M17.892 35.876L.221 25.256 37.329 3.324 55 13.713z" fill="#eceff1"/><path d="M17.892 35.876v43.402q.221 1.154-.883.462L1.104 70.275Q.221 69.813 0 68.89V25.718q.502-4.98 7.628-2.882l3.212 1.364q7.026 3.567 7.052 11.677z" fill="#a1a1a1"/><path d="M55 13.709L17.865 35.948c-.301-3.776-.903-5.56-1.907-7.238-1.505-2.308-3.513-3.671-5.922-4.825-3.111-1.469-5.821-1.888-7.628-1.469l34.525-20.56C39.143.492 41.049-.242 44.663.072c4.316.105 7.929 3.042 9.133 5.979C55 8.15 54.799 11.506 55 13.709z" fill="url(#A)"/><path d="M8.248 31.06q-2.883-1.512-3.228 1.928-.231 4.017 3.074 5.728 2.538.98 2.961-1.55.423-4.017-2.806-6.106z" fill="#546e7a"/><path d="M8.208 31.418q-2.681-1.407-3.003 1.794-.215 3.737 2.859 5.329 2.361.912 2.754-1.442.393-3.737-2.61-5.68z" fill="#000" fill-opacity=".54"/><path d="M8.113 31.776q-2.393-1.256-2.68 1.601-.191 3.335 2.552 4.756 2.107.814 2.458-1.287.351-3.335-2.329-5.069z" fill="#90a4ae"/><path d="M26.597 51.454l1.305-.629 1.405-6.189 3.814-2.308c-.803-.734-.401-1.573.201-1.993 1.204-.629 2.609-.315 3.814.315 1.505.944 1.405 1.993.803 2.413-1.405.839-2.208.524-3.412.21l-3.613 2.098-1.004 4.196 16.259-9.861-2.409-1.469 7.226-.629-1.004 4.406-2.409-1.469-12.646 7.553 5.821-.42 3.212-1.888-1.606-1.049 3.613-2.098 4.416 2.518-3.613 2.308-1.405-.839-3.412 2.098-9.234.839-4.717 2.832c-.1 0 1.104.839-.1 1.888-.903.629-2.409.629-4.115-.315-.703-.524-1.606-1.259-.703-2.308.803-.629 2.108-.629 3.513-.21z" fill="#546e7a"/></g></symbol></svg>