<svg xmlns="http://www.w3.org/2000/svg" xmlns:xlink="http://www.w3.org/1999/xlink" viewBox="0 0 76 82" fill="#fff" fill-rule="evenodd" stroke="#000" stroke-linecap="round" stroke-linejoin="round"><style><![CDATA[.B{stroke:none}.C{fill:#607d8b}.D{fill:#b0bec5}]]></style><use xlink:href="#C" x=".5" y=".5"/><defs><linearGradient id="A" x1="100%" y1="0%" x2="0%" y2="100%"><stop offset="0%" stop-color="#0af"/><stop offset="100%" stop-color="#00387f"/></linearGradient><path id="B" d="M47.615 44.529l2.576 1.453 2.524-1.542-2.576-1.453z"/></defs><symbol id="C" overflow="visible"><path d="M46.607 74.239q.268-.134.268-.67V59.636q0-.536-.234-.938l28.053-16.673q.268.402.307 1.534v13.933q0 .542-.239.673L46.607 74.239M47.812.153q-.864-.494-1.16.606l-4.465 22.973 28.125 16.077 4.42-23.043q.268-1.072-.67-1.608zm10.279 27.502l-1.875-1.072 2.846-14.641 1.875 1.072z" class="B C"/><path d="M9.673 37.507L46.67 58.701l28.023-16.675-36.92-20.987z" fill="#eceff1" class="B"/><path d="M42.35 36.651l10.427-6.027 17.211 10.078-10.304 6.052L42.349 36.65z" fill="url(#A)" class="B"/><g class="C"><use xlink:href="#B" class="B"/><use xlink:href="#B" x="3.863" y="2.178" class="B"/><use xlink:href="#B" x="-3.863" y="-2.178" class="B"/><use xlink:href="#B" x="-7.725" y="-4.356" class="B"/><use xlink:href="#B" x="-3.699" y="2.235" class="B"/><use xlink:href="#B" x="0.164" y="4.414" class="B"/><use xlink:href="#B" x="-7.562" y="0.057" class="B"/><use xlink:href="#B" x="-11.424" y="-2.121" class="B"/><use xlink:href="#B" x="-7.398" y="4.47" class="B"/><use xlink:href="#B" x="-3.535" y="6.649" class="B"/><use xlink:href="#B" x="-11.26" y="2.292" class="B"/><use xlink:href="#B" x="-15.123" y="0.114" class="B"/><use xlink:href="#B" x="-11.097" y="6.706" class="B"/><use xlink:href="#B" x="-7.234" y="8.884" class="B"/><use xlink:href="#B" x="-14.959" y="4.527" class="B"/><use xlink:href="#B" x="-18.822" y="2.349" class="B"/></g><path d="M0 63.923L28.125 80l14.062-8.038-28.125-16.077L0 63.923" fill="#e3e3e3" class="B"/><path d="M45.937 74.105q.937.536.937-.536V59.636q0-1.072-.937-1.608L10.312 37.665q-.937-.536-.937.536v13.933q0 1.072.937 1.608z" fill="#cfd8dc" class="B"/><path d="M42.188 71.961L14.063 55.885v-5.359l28.125 16.077z" class="B C"/><path d="M14.062 51.866L0 59.904v4.019l14.062-8.038z" class="B D"/><path d="M28.125 80L0 63.923v-4.019l28.125 16.077V80" fill="#cfd8dc" class="B"/><path d="M42.187 67.943l-14.062 8.038V80l14.062-8.038z" class="B D"/><path d="M42.589 60.574l2.143 1.206v-1.34l-2.143-1.206z" class="B"/><path d="M23.787 43.094v.542L47.008 30.16c.427-.244.48-.407.48-.841v-1.112z" fill="#90a4ae" class="B"/><path d="M13.618 37.183v.542l10.169 5.911v-.542z" fill="#546e7a" class="B"/><path d="M13.618 37.183l10.169 5.911 23.701-14.886-10.142-5.938z" class="B D"/></symbol></svg>