<svg xmlns="http://www.w3.org/2000/svg" xmlns:xlink="http://www.w3.org/1999/xlink" viewBox="0 0 81 81" fill="#fff" fill-rule="evenodd" stroke="#000" stroke-linecap="round" stroke-linejoin="round"><use xlink:href="#G" x=".5" y=".5"/><defs><linearGradient id="A" x1="0%" y1="0%" x2="100%" y2="100%"><stop offset="0%" stop-color="#5d5d5d"/><stop offset="100%" stop-color="#333"/></linearGradient><linearGradient id="B" x1="0%" y1="0%" x2="100%" y2="100%"><stop offset="0%" stop-color="#0af"/><stop offset="100%" stop-color="#0050b8"/></linearGradient><path id="C" d="M35.495 36.516l.451-.257.454.26-.451.257z"/><path id="D" d="M28.947 24.379q-.18-1.921-1.959-1.053-2.023 1.101-1.806 3.297.329 1.585 1.691 1.032 2.084-1.004 2.074-3.275z"/><path id="E" d="M28.503 24.52q-.145-1.55-1.581-.849-1.583.933-1.457 2.659.265 1.279 1.364.832 1.681-.81 1.673-2.642z"/><path id="F" d="M15.941 35.314l-2.128 1.216 7.577 4.311c.303-.245.447-.461.591-.692.231-.375.332-.995.332-1.153z"/></defs><symbol id="G" overflow="visible"><g stroke="none"><circle cx="40" cy="40" fill="url(#A)" r="40"/><path d="M34.914 38.851l3.475-1.932-6.098-3.489-3.446 1.975z" fill="#e0e0e0"/><path d="M34.813 38.995v2.566l-6.055-3.46v-2.609z" fill="#9e9e9e"/><path d="M34.813 41.562l-6.055-3.46c.014.043 0 .043.043.072l6.055 3.446" fill="#92a5af"/><path d="M34.813 38.995l-6.055-3.503c0-.029 0-.043.087-.087l6.084 3.446c-.087.058-.101.072-.115.144z" fill="#bdbdbd"/><path d="M35.044 38.779l3.1-1.773c.216-.13.303-.13.303.087v2.307c0 .13.014.202-.144.288l-3.316 1.889c-.115.072-.187.058-.173-.101v-2.393c0-.144-.029-.173.231-.303z" fill="#eee"/><path d="M32.853 36.973l2.271-1.294 2.285 1.308-2.271 1.294z" fill="#757575"/><path d="M29.479 35.42l2.846-1.621 2.863 1.639-2.846 1.621z" fill="#c2ced3"/><path d="M29.547 35.412l2.769-1.578 2.786 1.594-2.769 1.578z" fill="url(#B)"/><path d="M31.022 34.57l.058-.029v.62l.62-.245.029.043-.663.692 1.629-.779.029.043-.62.764.591-.187.029.043-.202.433.735-.173.62.332-.072.043-.548-.303-.779.173-.043-.043.202-.418-.606.202-.029-.043.606-.764-1.672.807-.043-.043.706-.721-.533.216-.043-.029z"/><g fill="#e0e0e0"><use xlink:href="#C"/><use xlink:href="#C" x="-1.586" y="0.894"/><use xlink:href="#C" x="-1.644"/><use xlink:href="#C" y="0.951"/><path d="M34.74 37.192q-.349-.23-.002-.482.416-.275.814-.01.27.224.025.428-.404.296-.837.064z"/><use xlink:href="#C" x="-0.825" y="-0.461"/></g><g fill="#bdbdbd"><path d="M35.291 36.187c-.019.009-.039.014-.058.014s-.036-.004-.052-.014-.024-.022-.02-.036.018-.028.041-.042l.016-.009c.015-.009.031-.015.048-.019s.032-.005.047-.004.028.005.04.012.023.019.022.03-.009.022-.025.033l-.019-.011c.012-.009.018-.016.018-.023s-.004-.013-.014-.019a.07.07 0 0 0-.044-.008c-.017.002-.035.009-.055.02l-.016.009c-.018.01-.029.021-.033.031s0 .018.011.025.021.009.033.009.025-.003.04-.01l.019.011z"/><path d="M35.014 35.995l-.062-.036-.059.034.073.042-.018.01-.092-.053.166-.096.091.052-.018.01-.072-.041-.054.031.062.036-.018.01z"/><path d="M35.112 36.055c-.011-.013-.016-.023-.016-.032s.006-.017.018-.023.028-.011.046-.011.034.005.048.013.017.012.02.019.003.014 0 .021-.01.013-.019.018l-.019-.011c.01-.006.015-.012.015-.019s-.005-.013-.015-.019-.019-.008-.029-.009-.019.002-.028.007c-.009.02-.005.027.003.036s.013.017.015.024c-.004.024-.01.029-.019.034s-.029.011-.046.011-.033-.005-.049-.014c-.01-.006-.017-.012-.021-.02s-.005-.015-.002-.022.009-.013.019-.019l.019.011c-.01.006-.015.012-.014.019s.006.014.017.02.02.009.03.009a.05.05 0 0 0 .027-.007c.011-.021.006-.028-.002-.038zm.089.927l-.046.002-.067.039-.023-.013.199-.115.023.013-.098.057.175-.013.027.016-.155.012-.038.106-.027-.016.031-.089z"/><path d="M35.095 36.921c-.019.011-.039.019-.059.025s-.039.007-.057.005-.034-.006-.048-.014-.022-.017-.025-.027 0-.022.008-.033.022-.023.041-.034l.014-.008a.23.23 0 0 1 .059-.024c.02-.005.04-.007.058-.005s.034.006.048.014.022.017.025.028 0 .022-.009.033-.023.023-.042.034l-.013.007zm-.01-.02c.024-.014.038-.026.042-.038s-.001-.022-.015-.031-.032-.011-.053-.009a.16.16 0 0 0-.065.023l-.015.008c-.023.013-.037.026-.041.038s0 .023.015.031.032.011.053.009.042-.01.065-.023l.015-.009zm.795-.476l.233-.021-.032.136-.067-.039-.201.115-.065-.037.198-.118zm.016 1.122l.233.021-.032-.136-.067.039-.201-.115-.065.037.198.118zm-1.502-.062l-.233.021.032-.136.067.039.201-.115.065.037-.198.118z"/><path d="M34.369 36.436l-.233-.021.032.136.067-.039.201.115.065-.037-.198-.118z"/></g><path d="M46.728 26.654l33.069 17.338c-.55 5.499-2.183 10.643-4.216 14.359-2.75 5.194-4.582 7.027-9.043 11.609L34.609 56.602z" fill="#467fc4"/><path d="M49.682 33.47q-.74-11.574-11.121-4.365-10.437 8.737-7.785 21.626 2.483 10.027 9.516 3.46 9.136-9.383 9.39-20.722z" fill="#2a519b"/><path d="M46.034 29.479c2.361 1.101 2.325 6.749-.318 13.503-2.937 6.607-6.46 10.865-10.885 10.522l-6.394-2.981L39.64 26.497z" fill="#e6e6de"/><ellipse cx="13.254" cy="4.703" fill="#999" rx="13.254" ry="4.703" transform="matrix(.422618 -.906308 .906308 .422618 23.980686 48.444164)"/><ellipse cx="11.16" cy="3.96" fill="#000" rx="11.16" ry="3.96" transform="matrix(.422618 -.906308 .906308 .422618 25.578488 46.5412)"/><use xlink:href="#D" fill="#36dc22"/><path d="M39.397 34.09L25.83 27.714c.854.073 1.632-.059 2.713-1.623.311-.61.659-1.799-.174-2.939l11.286 6.307c.129.643.257.836.193 2.058 0 .45-.357 2.722-.45 2.573z" fill="#3efb59"/><use xlink:href="#E" fill="#000"/><use xlink:href="#D" x="-3.216" y="6.689" fill="#e5ba0a"/><path d="M36.761 41.228l-14.146-6.826c.854.073 1.632-.059 2.713-1.623.311-.61.659-1.799-.174-2.939l13.344 7.465c-.322 1.029-.579 1.479-.772 1.929s-.45 1.093-.965 1.994z" fill="#fcea3e"/><use xlink:href="#E" x="-3.215" y="6.688" fill="#000"/><use xlink:href="#D" x="-6.174" y="14.149" fill="#eb0002"/><path d="M31.937 47.467l-12.281-5.604c.854.073 1.632-.059 2.713-1.623.311-.61.659-1.799-.174-2.939l12.7 6.951c-.45.707-1.029 1.351-1.479 1.865-.643.707-.772.772-1.479 1.351z" fill="#fb5b41"/><use xlink:href="#E" x="-6.174" y="14.148" fill="#000"/><path d="M34.253 40.006l2.508 1.222c1.029-1.929 1.543-3.216 1.736-3.923l-2.187-1.222c.322.836-.322 3.537-2.058 3.923z" fill="#b7ab32"/><path d="M29.686 46.438l2.251 1.029c1.158-.836 2.508-2.38 2.958-3.216l-2.444-1.351c.45.45.707 3.023-2.766 3.537z" fill="#bd4428"/><path d="M36.889 32.932l2.572 1.222c.515-2.315.45-3.666.193-4.695l-2.187-1.222c.836.643 1.608 3.409-.579 4.695z" fill="#33b748"/><use xlink:href="#F" fill="#56a4f6"/></g><circle cx="14.298" cy="35.422" stroke="#56a4f6" stroke-linejoin="miter" stroke-width="2" r="1.976"/><use xlink:href="#F" x="2.956" y="-7.449" fill="#56a4f6" stroke="none"/><circle cx="17.441" cy="27.967" stroke="#56a4f6" stroke-linejoin="miter" stroke-width="2" r="1.976"/><path d="M22.097 21.185l-2.128 1.216 7.577 4.311c.303-.245.447-.461.591-.692.288-.505.346-.98.346-1.139z" fill="#56a4f6" stroke="none"/><circle cx="20.642" cy="21.286" stroke="#56a4f6" stroke-linejoin="miter" stroke-width="2" r="1.976"/><g stroke="none"><path d="M23.423 32.868l.923.533a2.47 2.47 0 0 0 .923-1.86l-.779-.447c.418.49.058 1.672-1.067 1.773zm-2.97 7.439l.937.533c.822-.663.908-1.528.923-1.845l-.793-.461c.418.49.058 1.672-1.067 1.773zm6.2-14.1l.894.505c.807-.634.952-1.629.937-1.831l-.764-.447c.418.49.058 1.672-1.067 1.773z" fill="#4879b4"/><path d="M49.194 30.21q.541 2.21.462 3.954l29.408 14.471q.367-1.711.55-3.055z"/><path d="M40.869 29.509q0 1.182-.144 2.768l6.949 3.028q.144-1.355.029-2.509z" fill="#f2f2f2"/><path d="M42.31 51.597q-4.758 4.181-8.074 4.902L66.538 69.96q3.483-3.238 5.346-5.804z" fill="#2a519b"/><path d="M32.506 48.713q-2.054 1.845-4.325 1.73l6.632 3.057q2.076.288 4.441-1.269z" fill="#80807f"/></g></symbol></svg>