<svg xmlns="http://www.w3.org/2000/svg" xmlns:xlink="http://www.w3.org/1999/xlink" viewBox="0 0 82 62" fill="#fff" fill-rule="evenodd" stroke="#000" stroke-linecap="round" stroke-linejoin="round"><use xlink:href="#F" x=".5" y=".5"/><defs><linearGradient id="A" x1="0%" y1="0%" x2="100%" y2="100%"><stop offset="0%" stop-color="#0af"/><stop offset="100%" stop-color="#0050b8"/></linearGradient><path id="B" d="M26.71 20.261l.52-.302.523.306-.52.302z"/><path id="C" d="M19.179 5.986q-.215-2.242-2.283-1.235-2.35 1.278-2.091 3.84.388 1.85 1.971 1.209 2.421-1.164 2.403-3.814z"/><path id="D" d="M18.665 6.149q-.174-1.809-1.842-.996-1.839 1.083-1.687 3.098.313 1.492 1.59.975 1.953-.939 1.938-3.077z"/><path id="E" d="M4.172 18.846l-2.453 1.432 8.734 5.077c.349-.289.515-.543.681-.815.266-.441.382-1.172.382-1.358z"/></defs><symbol id="F" overflow="visible"><g stroke="none"><path d="M26.04 23.012l4.005-2.275-7.029-4.109-3.972 2.326z" fill="#e0e0e0"/><path d="M25.924 23.182v3.022l-6.979-4.075v-3.073z" fill="#9e9e9e"/><path d="M25.923 26.204l-6.979-4.075c.017.051 0 .051.05.085l6.979 4.058" fill="#92a5af"/><path d="M25.924 23.181l-6.979-4.126c0-.034 0-.051.1-.102l7.013 4.058c-.1.068-.116.085-.133.17z" fill="#bdbdbd"/><path d="M26.19 22.927l3.573-2.088c.249-.153.349-.153.349.102v2.716c0 .153.017.238-.166.34l-3.822 2.224c-.133.085-.216.068-.199-.119v-2.818c0-.17-.033-.204.266-.357z" fill="#eee"/><path d="M23.664 20.801l2.618-1.524 2.634 1.54-2.618 1.524z" fill="#757575"/><path d="M19.775 18.972l3.28-1.909 3.3 1.93-3.28 1.909z" fill="#c2ced3"/><path d="M19.854 18.961l3.192-1.858 3.211 1.878-3.192 1.858z" fill="url(#A)"/><path d="M21.554 17.969l.066-.034v.73l.715-.289.033.051-.764.815 1.878-.917.033.051-.715.9.681-.221.033.051-.233.509.848-.204.715.391-.083.051-.631-.357-.897.204-.05-.051.233-.492-.698.238-.033-.051.698-.9-1.928.951-.05-.051.814-.849-.615.255-.05-.034z"/><g fill="#e0e0e0"><use xlink:href="#B"/><use xlink:href="#B" x="-1.828" y="1.053"/><use xlink:href="#B" x="-1.895"/><use xlink:href="#B" y="1.12"/><path d="M25.836 21.054q-.407-.269-.004-.562.483-.319.946-.009.314.262.031.5-.468.344-.973.071z"/><use xlink:href="#B" x="-0.951" y="-0.543"/></g><g fill="#bdbdbd"><path d="M26.474 19.875c-.022.011-.044.016-.066.016s-.042-.005-.06-.016-.027-.026-.023-.042.02-.033.047-.049l.018-.011c.018-.011.036-.018.055-.023s.037-.006.055-.005a.11.11 0 0 1 .046.014c.018.01.026.022.025.035s-.01.026-.029.039l-.022-.013c.013-.01.02-.019.021-.027s-.005-.015-.016-.022-.031-.011-.051-.009-.041.01-.063.023l-.019.011c-.021.012-.034.024-.038.036s0 .022.013.03.025.011.038.011.028-.004.046-.012l.022.013z"/><path d="M26.157 19.647l-.072-.042-.068.04.084.049-.021.012-.106-.062.192-.113.104.062-.021.012-.082-.049-.062.036.072.042-.021.012z"/><path d="M26.268 19.719c-.013-.015-.019-.027-.018-.038s.007-.02.021-.027.033-.013.053-.013.039.005.056.015c.011.007.019.014.023.023s.004.016 0 .025-.011.015-.022.022l-.022-.013c.012-.007.018-.014.018-.022s-.005-.015-.017-.022-.022-.01-.034-.01-.022.002-.032.008-.012.01-.011.017.005.015.014.026.015.02.018.028.002.015-.002.021-.01.013-.02.018c-.016.009-.033.013-.053.013s-.039-.006-.056-.017c-.011-.007-.02-.014-.024-.023s-.006-.017-.002-.026.011-.016.022-.022l.022.013c-.012.007-.017.014-.016.023s.007.016.02.023.023.01.035.011.022-.002.031-.008.014-.012.013-.018-.006-.015-.016-.027zm.103 1.091l-.053.003-.077.046-.026-.015.229-.135.026.015-.113.067.201-.015.032.019-.179.014-.044.125-.031-.018.036-.104z"/><path d="M26.248 20.739a.26.26 0 0 1-.069.029c-.024.006-.045.008-.066.006a.13.13 0 0 1-.055-.017c-.016-.009-.025-.02-.028-.032s0-.025.01-.039.025-.027.047-.04l.017-.01c.022-.013.045-.023.068-.029s.046-.008.067-.006.039.007.055.017.025.02.029.033 0 .025-.011.039-.027.027-.049.04l-.014.009zm-.011-.024c.027-.016.043-.031.048-.045s-.001-.026-.018-.036-.037-.013-.061-.01a.2.2 0 0 0-.075.027l-.017.01c-.026.016-.042.031-.048.045s0 .027.017.037.037.013.061.011.049-.012.075-.028l.017-.01zm.917-.561l.268-.024-.037.16-.077-.046-.231.136-.074-.043.228-.138zm.018 1.322l.268.024-.037-.16-.077.046-.231-.136-.074.043.228.138zm-1.732-.073l-.268.024.037-.16.077.046.231-.136.074.043-.228.138zm-.029-1.237l-.268-.024.037.16.077-.046.231.136.074-.043-.228-.138z"/></g><path d="M39.598 8.66l38.169 20.238c3.243 5.957 2.615 14.334.275 18.699-2.894 5.801-5.849 10.913-14.566 12.37L25.669 43.858z" fill="#467fc4"/><path d="M43.17 16.782q-.878-13.488-12.96-5.102-12.146 10.168-9.04 25.192 2.906 11.689 11.089 4.045 10.63-10.922 10.91-24.135z" fill="#2a519b"/><path d="M38.963 12.052c2.738 1.277 2.672 7.878-.427 15.782-3.439 7.734-7.55 12.726-12.688 12.343l-7.414-3.457L31.549 8.594z" fill="#e6e6de"/><ellipse cx="15.517" cy="5.454" fill="#999" rx="15.517" ry="5.454" transform="matrix(.422618 -.906308 .906308 .422618 13.307494 34.261025)"/><ellipse cx="13.065" cy="4.592" fill="#000" rx="13.065" ry="4.592" transform="matrix(.422618 -.906308 .906308 .422618 15.169864 32.027488)"/><use xlink:href="#C" fill="#36dc22"/><path d="M31.293 17.371L15.486 9.888c.994.088 1.898-.063 3.152-1.885.36-.711.762-2.097-.212-3.43l13.152 7.396c.152.751.302.976.231 2.402.001.525-.406 3.175-.516 3z" fill="#3efb59"/><use xlink:href="#D" fill="#000"/><use xlink:href="#C" x="-3.706" y="7.877" fill="#e5ba0a"/><path d="M28.254 25.772l-16.482-8.01c.994.088 1.898-.063 3.152-1.885.36-.711.761-2.097-.212-3.43l15.55 8.753c-.371 1.199-.669 1.724-.892 2.249s-.52 1.274-1.116 2.323z" fill="#fcea3e"/><use xlink:href="#D" x="-3.706" y="7.876" fill="#000"/><use xlink:href="#C" x="-7.116" y="16.662" fill="#eb0002"/><path d="M22.68 33.119L8.372 26.541c.994.088 1.898-.063 3.152-1.885.36-.711.761-2.097-.212-3.43l14.8 8.151c-.521.824-1.193 1.572-1.715 2.171-.746.823-.895.898-1.717 1.571z" fill="#fb5b41"/><use xlink:href="#D" x="-7.116" y="16.662" fill="#000"/><path d="M25.278 24.372l2.891 1.439c1.186-2.272 1.779-3.787 2.001-4.62l-2.52-1.439c.371.985-.371 4.166-2.372 4.62z" fill="#b7ab32"/><path d="M20.015 31.946l2.594 1.212c1.334-.985 2.891-2.802 3.41-3.787l-2.817-1.59c.519.53.815 3.56-3.188 4.166z" fill="#bd4428"/><path d="M28.317 16.041l2.965 1.439c.593-2.727.519-4.317.222-5.529l-2.52-1.439c.964.757 1.853 4.014-.667 5.529z" fill="#33b748"/><use xlink:href="#E" fill="#56a4f6"/></g><ellipse cx="2.278" cy="18.974" rx="2.278" ry="2.327" stroke="#56a4f6" stroke-linejoin="miter"/><use xlink:href="#E" x="3.407" y="-8.772" fill="#56a4f6" stroke="none"/><ellipse cx="5.901" cy="10.194" rx="2.278" ry="2.327" stroke="#56a4f6" stroke-linejoin="miter"/><path d="M11.268 2.207L8.815 3.639l8.734 5.077c.349-.289.515-.543.681-.815.332-.594.399-1.155.399-1.341z" fill="#56a4f6" stroke="none"/><ellipse cx="9.59" cy="2.327" rx="2.278" ry="2.327" stroke="#56a4f6" stroke-linejoin="miter"/><g stroke="none"><path d="M12.796 15.966l1.064.628c.897-.764 1.047-1.681 1.064-2.19l-.897-.526c.482.577.066 1.969-1.23 2.088zm-3.423 8.76l1.08.628c.947-.781 1.047-1.8 1.064-2.173l-.914-.543c.482.577.066 1.969-1.23 2.088zm7.145-16.605l1.03.594c.931-.747 1.097-1.919 1.08-2.156l-.881-.526c.482.577.066 1.969-1.23 2.088z" fill="#4879b4"/><path d="M42.455 12.82q.628 2.601.541 4.651L79.899 36.1q-.279-2.427-.921-4.414z"/><path d="M32.893 12.008q.002 1.39-.161 3.255l8.027 3.574q.164-1.594.028-2.95z" fill="#f2f2f2"/><path d="M34.527 38.011q-5.483 4.908-9.309 5.749L63.451 60q6.388-.905 10.109-5.239z" fill="#2a519b"/><path d="M23.259 34.627q-2.367 2.166-4.989 2.026l7.661 3.608q2.397.343 5.123-1.484z" fill="#80807f"/></g></symbol></svg>