<svg xmlns="http://www.w3.org/2000/svg" xmlns:xlink="http://www.w3.org/1999/xlink" viewBox="0 0 42 81" fill="#fff" fill-rule="evenodd" stroke="#000" stroke-linecap="round" stroke-linejoin="round"><use xlink:href="#A" x=".5" y=".5"/><symbol id="A" overflow="visible"><g stroke="none"><path fill="#cfd8dc" d="M40 1.185L11.579 17.481l-2.072-1.185L38.224 0z"/><path fill="#b0bec5" d="M2.105 80L40 58.074V1.185L11.431 17.481 2.105 34.37z"/><path d="M.033 78.815L2.105 80V33.185L.033 32z" fill="#90a4ae"/><path fill="#eceff1" d="M.033 32q-.296 2.37 2.072 2.37l10.658-17.481q-1.48-2.074-3.257-.593z"/><path fill="#c4ced4" d="M12.763 16.889L2.105 34.37q5.033-3.852 11.546-4.741 0-11.259-.888-12.741z"/><path fill="#788f9b" d="M13.651 29.63q-7.105.593-11.546 4.741v1.778Q6.25 32 13.651 29.63z"/></g></symbol></svg>