<svg xmlns="http://www.w3.org/2000/svg" xmlns:xlink="http://www.w3.org/1999/xlink" viewBox="0 0 62 81" fill="#fff" fill-rule="evenodd" stroke="#000" stroke-linecap="round" stroke-linejoin="round"><use xlink:href="#A" x=".5" y=".5"/><symbol id="A" overflow="visible"><g stroke="none"><path d="M.359 49.833L30 32.572l29.82 17.444-29.641 17.261z" fill="#90a4ae"/><path d="M29.82 79.213V68.012q.18-1.102 1.078-1.653l28.204-16.343q.898-.367.898.551v11.936q0 .551-.898 1.102L30.898 79.874q-1.078.441-1.078-.661z" fill="#eceff1"/><path d="M0 62.32l30.18 17.628v-12.67L.359 49.833Q0 50.017 0 50.384z" fill="#b0bec5"/></g><path d="M33.593 71.868l15.269-8.814" fill="none" stroke-linejoin="miter"/><g stroke="none"><use xlink:href="#C" fill="#e53935"/><use xlink:href="#D" fill="#f44336"/><use xlink:href="#E" fill="#ef5350"/><path d="M55.334 60.559V57.55l.491.301v3.009z" fill="#43a047"/><use xlink:href="#D" x="4.496" y="-2.571" fill="#4caf50"/><use xlink:href="#E" x="4.496" y="-2.571" fill="#66bb6a"/><path d="M.359 34.776L30 17.515l29.82 17.444L30.179 52.22z" fill="#90a4ae"/><path d="M29.82 64.155V52.954q.18-1.102 1.078-1.653l28.204-16.343q.898-.367.898.551v11.936q0 .551-.898 1.102L30.898 64.816q-1.078.441-1.078-.661z" fill="#eceff1"/><path d="M0 47.263l30.18 17.628V52.22L.359 34.776Q0 34.96 0 35.327z" fill="#b0bec5"/></g><path d="M33.593 56.811l15.269-8.814" fill="none" stroke-linejoin="miter"/><g stroke="none"><use xlink:href="#C" y="-15.057" fill="#e53935"/><use xlink:href="#D" y="-15.057" fill="#f44336"/><use xlink:href="#E" y="-15.057" fill="#ef5350"/><use xlink:href="#C" x="4.496" y="-17.628" fill="#43a047"/><use xlink:href="#D" x="4.496" y="-17.628" fill="#4caf50"/><use xlink:href="#E" x="4.496" y="-17.628" fill="#66bb6a"/><path d="M.359 19.404L30 2.143l29.82 17.444-29.641 17.261z" fill="#cfd8dc"/><path d="M29.82 48.783V37.582q.18-1.102 1.078-1.653l28.204-16.343q.898-.367.898.551v11.936q0 .551-.898 1.102L30.898 49.444q-1.078.441-1.078-.661z" fill="#eceff1"/><path d="M0 31.891l30.18 17.628v-12.67L.359 19.404Q0 19.588 0 19.955z" fill="#b0bec5"/></g><path d="M33.593 41.439l15.269-8.814" fill="none" stroke-linejoin="miter"/><g stroke="none"><use xlink:href="#C" y="-30.429" fill="#e53935"/><use xlink:href="#D" y="-30.429" fill="#f44336"/><use xlink:href="#E" y="-30.429" fill="#ef5350"/><use xlink:href="#C" x="4.496" y="-33" fill="#43a047"/><use xlink:href="#D" x="4.496" y="-33" fill="#4caf50"/><use xlink:href="#E" x="4.496" y="-33" fill="#66bb6a"/><path fill="#90a4ae" d="M4.252 65.842l12.968-7.656v-29.14l17.552-10.056V.934L12.86 13.847 4.252 28.246z"/><path d="M2.559 64.887l1.671.976V27.321l-1.671-.976z" fill="#6a828f"/><path fill="#c4ced4" d="M12.821 13.904L4.23 28.296q4.057-3.171 9.307-3.903 0-9.27-.716-10.489z"/><path fill="#788f9b" d="M13.537 24.394q-5.727.488-9.307 3.903v1.464q3.341-3.415 9.307-5.367z"/><path fill="#c5d1d5" d="M34.777.976l-22.251 13.1-2.329-.659L33.344 0z"/><path fill="#eceff1" d="M2.558 26.345q-.239 1.952 1.67 1.952l8.591-14.392q-1.193-1.708-2.625-.488z"/></g></symbol><defs ><path id="C" d="M50.838 63.13v-3.009l.491.301v3.009z"/><path id="D" d="M53.369 58.647l-2.531 1.474.491.301 2.558-1.479z"/><path id="E" d="M53.887 61.935v-2.992l-2.558 1.479v3.009z"/></defs></svg>