<svg xmlns="http://www.w3.org/2000/svg" xmlns:xlink="http://www.w3.org/1999/xlink" viewBox="0 0 51 81.75" fill="#fff" fill-rule="evenodd" stroke="#000" stroke-linecap="round" stroke-linejoin="round"><use xlink:href="#A" x=".5" y=".5"/><symbol id="A" overflow="visible"><g fill="#c60000" stroke="#dfccaf" stroke-width=".5"><use xlink:href="#C"/><use xlink:href="#C" x="6.836" y="3.827"/><use xlink:href="#C" x="4.102" y="-1.531"/><use xlink:href="#C" x="13.672" y="7.653"/><use xlink:href="#C" x="10.938" y="2.296"/><use xlink:href="#C" x="-6.836" y="-3.827"/><path d="M9.57 34.058l6.836 3.827v3.827L9.57 37.885z"/><use xlink:href="#C" x="-20.508" y="-11.48"/><use xlink:href="#C" x="-2.734" y="-5.357"/><use xlink:href="#C" x="-9.57" y="-9.184"/><use xlink:href="#C" x="-16.406" y="-13.011"/><use xlink:href="#C" x="6.836" y="-3.827"/><use xlink:href="#C" x="13.672"/><use xlink:href="#D"/><use xlink:href="#E"/><use xlink:href="#D" y="-3.827"/><use xlink:href="#D" y="-7.654"/><use xlink:href="#C" x="-6.836" y="-11.48"/><use xlink:href="#C" y="-7.653"/><use xlink:href="#C" x="-20.508" y="-19.133"/><path d="M9.57 26.404l6.836 3.827v3.827L9.57 30.231zm-6.836 0L6.836 28.7v3.827l-4.102-2.296z"/><use xlink:href="#E" y="-7.654"/><use xlink:href="#C" x="10.938" y="-5.357"/><use xlink:href="#C" x="4.102" y="-9.184"/><use xlink:href="#C" x="-2.734" y="-13.011"/><use xlink:href="#C" x="-9.57" y="-16.837"/><path d="M6.836 21.047l6.836 3.827V28.7l-6.836-3.827z"/><use xlink:href="#F"/><use xlink:href="#D" y="-11.48"/><use xlink:href="#C" x="13.672" y="-7.653"/><use xlink:href="#C" x="6.836" y="-11.48"/><use xlink:href="#C" y="-15.307"/><use xlink:href="#D" y="-15.307"/><use xlink:href="#C" x="-20.508" y="-26.787"/><path d="M9.57 18.751l6.836 3.827v3.827L9.57 22.578z"/><use xlink:href="#C" x="-6.836" y="-19.133"/><use xlink:href="#E" y="-15.307"/><use xlink:href="#C" x="10.938" y="-13.011"/><use xlink:href="#D" y="-19.134"/><use xlink:href="#C" x="4.102" y="-16.837"/><path d="M20.508 21.047l6.836 3.827V28.7l-6.836-3.827z"/><use xlink:href="#C" x="-9.57" y="-24.491"/><path d="M6.836 13.393l6.836 3.827v3.827L6.836 17.22z"/><use xlink:href="#F" y="-7.654"/><use xlink:href="#C" x="13.672" y="-15.307"/><use xlink:href="#C" x="6.836" y="-19.133"/><use xlink:href="#C" y="-22.96"/><use xlink:href="#C" x="-6.836" y="-26.787"/><path d="M9.57 11.097l6.836 3.827v3.827L9.57 14.924z"/><use xlink:href="#C" x="-20.508" y="-34.44"/><use xlink:href="#D" y="-22.96"/></g><g stroke="none"><path d="M43.75 27.935L50 24.491v3.827l-6.25 3.444z" fill="#bdbdbd"/><path d="M0 3.444l43.75 24.491v3.827L0 7.271z" fill="#eee"/><path d="M6.25 0L50 24.491l-6.25 3.444L0 3.444z" fill="#fafafa"/></g><g fill="#c60000" stroke="#dfccaf" stroke-width=".5"><use xlink:href="#C" y="22.982"/><use xlink:href="#C" x="6.836" y="26.809"/><use xlink:href="#C" x="4.102" y="21.452"/><path d="M36.914 72.347l6.836 3.827V80l-6.836-3.827z"/><use xlink:href="#C" x="10.938" y="25.278"/><use xlink:href="#C" x="-6.836" y="19.156"/><path d="M9.57 57.04l6.836 3.827v3.827L9.57 60.867z"/><path d="M2.734 53.213L9.57 57.04v3.827L2.734 57.04z"/><use xlink:href="#C" x="-2.734" y="17.625"/><use xlink:href="#C" x="-9.57" y="13.798"/><use xlink:href="#C" x="-16.406" y="9.971"/><use xlink:href="#C" x="6.836" y="19.156"/><use xlink:href="#C" x="13.672" y="22.982"/><path d="M43.75 76.173l3.516-1.913v3.827L43.75 80z"/><use xlink:href="#E" y="22.982"/><use xlink:href="#D" y="19.155"/><use xlink:href="#D" y="15.329"/><use xlink:href="#C" x="-6.836" y="11.502"/><use xlink:href="#C" y="15.329"/><use xlink:href="#C" x="-20.508" y="3.849"/><path d="M9.57 49.386l6.836 3.827v3.827L9.57 53.213z"/><use xlink:href="#F" y="30.635"/><use xlink:href="#E" y="15.328"/><use xlink:href="#C" x="10.938" y="17.625"/><use xlink:href="#C" x="4.102" y="13.798"/><use xlink:href="#C" x="-2.734" y="9.971"/><use xlink:href="#C" x="-9.57" y="6.145"/><use xlink:href="#C" x="-16.406" y="2.318"/><path d="M2.734 41.733l4.102 2.296v3.827L2.734 45.56zm41.016 22.96l3.516-1.913v3.827L43.75 68.52z"/><use xlink:href="#C" x="13.672" y="15.329"/><use xlink:href="#C" x="6.836" y="11.502"/><use xlink:href="#C" y="7.675"/><use xlink:href="#D" y="7.675"/><use xlink:href="#C" x="-20.508" y="-3.805"/><path d="M9.57 41.733l6.836 3.827v3.827L9.57 45.56z"/><use xlink:href="#C" x="-6.836" y="3.849"/><use xlink:href="#E" y="7.675"/><use xlink:href="#C" x="10.938" y="9.971"/><use xlink:href="#D" y="3.848"/><use xlink:href="#C" x="4.102" y="6.145"/><use xlink:href="#C" x="-2.734" y="2.318"/><use xlink:href="#C" x="-9.57" y="-1.509"/><use xlink:href="#C" x="-16.406" y="-5.335"/><use xlink:href="#F" y="15.329"/></g></symbol><defs ><path id="C" d="M23.242 41.711l6.836 3.827v3.827l-6.836-3.827z"/><path id="D" d="M43.75 53.191l3.516-1.913v3.827l-3.516 1.913z"/><path id="E" d="M41.016 47.834l2.734 1.531v3.827l-2.734-1.531z"/><path id="F" d="M2.734 18.751l4.102 2.296v3.827l-4.102-2.296z"/></defs></svg>