<svg xmlns="http://www.w3.org/2000/svg" xmlns:xlink="http://www.w3.org/1999/xlink" viewBox="0 0 81 66" fill="#fff" fill-rule="evenodd" stroke="#000" stroke-linecap="round" stroke-linejoin="round"><use xlink:href="#E" x=".5" y=".5"/><defs><linearGradient id="A" x1="0%" y1="94%" x2="100%" y2="6%"><stop offset="0%" stop-color="gray"/><stop offset="100%"/></linearGradient><linearGradient id="B" x1="0%" y1="83%" x2="100%" y2="17%"><stop offset="0%" stop-color="#ffb813"/><stop offset="100%" stop-color="#fff0cd"/></linearGradient><linearGradient id="C" x1="0%" y1="0%" x2="100%" y2="100%"><stop offset="0%" stop-color="#ffb813"/><stop offset="100%" stop-color="#fff0cd"/></linearGradient><path id="D" d="M34.286 55.321v-3.459l-.802-1.73-1.87-1.153-1.069.865v3.171z"/></defs><symbol id="E" overflow="visible"><g stroke="none"><path d="M79.521 23.656L40 0 .24 23.908l39.521 23.656z" fill="#cfd8dc"/><path d="M80 40.769L39.761 64.928V47.564l39.76-23.908q.479.252.479.755z" fill="#b0bec5"/><path d="M40.239 63.922V48.57q-.24-1.51-1.437-2.265L1.198 23.908Q0 23.404 0 24.663v16.358q0 .755 1.198 1.51l37.605 22.297q1.437.604 1.437-.906z" fill="#eceff1"/><g fill="#464646"><use xlink:href="#D"/><use xlink:href="#D" x="-4.779" y="-2.739"/><use xlink:href="#D" x="-9.558" y="-5.478"/><use xlink:href="#D" x="-14.337" y="-8.217"/><use xlink:href="#D" x="-19.116" y="-10.956"/></g><path d="M7.92 40.416v-6.102l-.968.61v6.102z" fill="#90a4ae"/><path d="M2.928 31.325l4.993 2.989-.968.61-5.047-2.999z" fill="#b0bec5"/><path d="M1.905 37.992v-6.067l5.047 2.999v6.102z" fill="#cfd8dc"/><path d="M4.243 37.441q.855.451.957-.575.068-1.197-.911-1.708-.753-.292-.878.462-.125 1.197.832 1.82z" fill="#000"/><path d="M.939.134Q.104-.306.004.696q-.067 1.169.89 1.667.735.285.857-.451Q1.874.742.939.134z" fill="url(#A)" transform="matrix(-1 0 0 -1 5.163261 37.530283)"/><path d="M4.432 36.03q-.09-.047-.101.06-.007.126.096.179.079.031.092-.049.013-.126-.087-.191z" fill="url(#B)"/><path d="M5.004 35.958l-.511.314c.027-.038.042-.077.003-.173-.018-.032-.061-.083-.135-.077l.514-.315c.055-.019.11.032.128.064.061.109.009.186 0 .186z" fill="url(#C)"/></g></symbol></svg>