<svg xmlns="http://www.w3.org/2000/svg" xmlns:xlink="http://www.w3.org/1999/xlink" viewBox="0 0 81 51" fill="#fff" fill-rule="evenodd" stroke="#000" stroke-linecap="round" stroke-linejoin="round"><use xlink:href="#A" x=".5" y=".5"/><symbol id="A" overflow="visible"><g stroke="none"><path d="M56.355 47.45L.75 14.15 24.148.37l55.605 33.014z" fill="#eceff1"/><g fill="#c9c9c9"><path d="M80 33.43L56.307 47.674V50L80 35.756z"/><path d="M56.307 50v-2.326L0 13.954v2.326L56.307 50"/></g><path fill="#646464" d="M56.307 47.674L0 13.953 23.693 0 80 33.43zM21.742 25.581l18.955 11.337 3.345-2.035-18.955-11.337zm50.732 6.977l3.345 2.035 1.951-1.163-3.345-2.035zm-3.902-2.326l3.345 2.035 1.951-1.163-3.345-2.035zm-3.902-2.326l3.345 2.035 1.951-1.163-3.345-2.035zm-3.902-2.326l3.345 2.035 1.951-1.163-3.345-2.035zm-3.902-2.326l3.345 2.035 1.951-1.163-3.345-2.035zm-3.902-2.326l3.345 2.035 1.951-1.163-3.345-2.035zm-3.902-2.326l3.345 2.035 1.951-1.163-3.345-2.035zm-3.902-2.326l3.345 2.035 1.951-1.163-3.345-2.035zm-3.902-2.326l3.345 2.035 1.951-1.163-3.345-2.035zm-3.902-2.325l3.345 2.035 1.951-1.163-3.345-2.035zM33.45 9.302l3.345 2.035 1.951-1.163-3.345-2.035zm-3.902-2.326l3.345 2.035 1.951-1.163-3.345-2.035zm-3.902-2.326l3.345 2.035 1.951-1.163-3.345-2.035zm-3.902-2.326l3.345 2.035 1.951-1.163-3.345-2.035zm44.32 31.105l5.854 3.488 3.345-2.035-5.854-3.488zm-3.902-2.326l3.345 2.035 3.345-2.035-3.345-2.035zm-3.902-2.326l3.345 2.035 3.345-2.035-3.345-2.035zm-3.902-2.326l3.345 2.035 3.345-2.035-3.345-2.035zm-3.902-2.326l3.345 2.035 3.345-2.035-3.345-2.035zm-3.902-2.326l3.345 2.035 3.345-2.035-3.345-2.035zm-3.902-2.325l3.345 2.035 3.345-2.035-3.345-2.035zm-3.902-2.326l3.345 2.035 3.345-2.035-3.345-2.035zm-3.902-2.326l3.345 2.035 3.345-2.035-3.345-2.035zM30.941 12.5l3.345 2.035 3.345-2.035-3.345-2.035zm-3.902-2.326l3.345 2.035 3.345-2.035-3.345-2.035zm-3.902-2.326l3.345 2.035 3.345-2.035-3.345-2.035zM17.84 4.651l4.739 2.907 3.345-2.035-4.739-2.907zm46.272 32.268l3.902 2.326 3.345-2.035-3.902-2.326zm-3.902-2.326l3.345 2.035 3.345-2.035-3.345-2.035zm-3.902-2.326l3.345 2.035 3.345-2.035-3.345-2.035zm-3.902-2.326l3.345 2.035 3.345-2.035-3.345-2.035zm-3.902-2.326l3.345 2.035 3.345-2.035-3.345-2.035zm-3.902-2.326l3.345 2.035 3.345-2.035-3.345-2.035zm-3.902-2.326L44.042 25l3.345-2.035-3.345-2.035zm-3.902-2.325l3.345 2.035 3.345-2.035-3.345-2.035zm-3.902-2.326l3.345 2.035 3.345-2.035-3.345-2.035zm-3.902-2.326l3.345 2.035 3.345-2.035-3.345-2.035zm-3.902-2.326l3.345 2.035 3.345-2.035-3.345-2.035zm-3.902-2.326l3.345 2.035 3.345-2.035-3.345-2.035zm-3.902-2.326l3.345 2.035 3.345-2.035-3.345-2.035zm-3.345-2.035l2.787 1.744 3.345-2.035-2.787-1.744zm40.418 28.779l3.345 2.035 3.345-2.035-3.345-2.035zm3.902 2.326l5.854 3.488 3.345-2.035-5.854-3.488zm-7.805-4.651l3.345 2.035 3.345-2.035-3.345-2.035zm-3.902-2.326l3.345 2.035 3.345-2.035-3.345-2.035zm-7.805-4.651l3.345 2.035 3.345-2.035-3.345-2.035zm3.902 2.326l3.345 2.035 3.345-2.035-3.345-2.035zm-11.707-6.977l3.345 2.035 3.345-2.035-3.345-2.035zm3.902 2.326l3.345 2.035 3.345-2.035-3.345-2.035zm-11.707-6.977l3.345 2.035 3.345-2.035-3.345-2.035zm3.902 2.326l3.345 2.035 3.345-2.035-3.345-2.035zM15.331 12.5l3.345 2.035 3.345-2.035-3.345-2.035zm3.902 2.326l3.345 2.035 3.345-2.035-3.345-2.035zm-9.199-5.523l4.739 2.907 3.345-2.035-4.739-2.907zm42.927 30.233l7.247 4.361 3.345-2.035-7.247-4.36zm-3.903-2.326l3.345 2.035 3.345-2.035-3.345-2.035zm-3.902-2.326l3.345 2.035 3.345-2.035-3.345-2.035zm-3.902-2.325l3.345 2.035 3.345-2.035-3.345-2.035zm-3.902-2.326l3.345 2.035 3.345-2.035-3.345-2.035zm-3.902-2.326l3.345 2.035 3.345-2.035-3.345-2.035zm-3.902-2.326l3.345 2.035 3.345-2.035-3.345-2.035zm-3.902-2.326l3.345 2.035 3.345-2.035-3.345-2.035zm-3.902-2.326l3.345 2.035 3.345-2.035-3.345-2.035zm-3.902-2.326l3.345 2.035 3.345-2.035-3.345-2.035zm-3.902-2.326l3.345 2.035 3.345-2.035-3.345-2.035zm-7.805-4.651l7.247 4.361 3.345-2.035-7.247-4.36zM2.23 13.953l3.345 2.035 3.345-2.035-3.345-2.035zm3.902 2.326l3.345 2.035 3.345-2.035-3.345-2.035zm3.902 2.326l3.345 2.035 3.345-2.035-3.345-2.035zm3.902 2.326l3.345 2.035 3.345-2.035-3.345-2.035zm3.902 2.326l3.345 2.035 3.345-2.035-3.345-2.035zm23.415 13.953l3.345 2.035 3.345-2.035-3.345-2.035zm9.756 3.488l3.345 2.035 1.394-.872-3.345-2.035zm-1.951 1.163l3.345 2.035 1.394-.872-3.345-2.035zm3.902 2.326l3.345 2.035 1.394-.872-3.345-2.035zm-7.805-4.651l3.345 2.035 1.394-.872-3.345-2.035z"/></g></symbol></svg>