<svg xmlns="http://www.w3.org/2000/svg" xmlns:xlink="http://www.w3.org/1999/xlink" viewBox="0 0 41 81" fill="#fff" fill-rule="evenodd" stroke="#000" stroke-linecap="round" stroke-linejoin="round"><use xlink:href="#A" x=".5" y=".5"/><symbol id="A" overflow="visible"><g stroke="none"><path fill="#cfd8dc" d="M40 17.283V62.31q-1.296 2.729-3.455 3.639L15.166 78.684q-3.887 2.047-6.479.91V31.382z"/><path fill="#90a4ae" d="M8.687 79.594Q.265 76.638.049 74.136V31.383l8.638 5.003z"/><path fill="#b0bec5" d="M8.687 37.296l6.479-4.321v45.71q-2.807 2.047-6.479.91z"/><g fill="#eceff1"><path d="M2.856 27.289l24.187-14.554q6.263-3.639 10.798.227 4.535 5.23-.648 8.869l-22.892 14.1Q7.823 39.342 1.56 34.567q-3.671-3.866 1.296-7.277zm21.474 33.43l8.327-4.933-3.331-10.304-2.498 1.535-2.498 13.592"/><use xlink:href="#C"/></g><g fill="#263238"><path d="M23.682 60.492l8.327-4.933-3.331-10.304-2.498 1.535-2.498 13.592"/><use xlink:href="#C" x="-0.658" y="-0.46"/></g><path fill="#464646" d="M10.049 27.935q-.108-.454-.19-.95-1.334-12.774 8.855-19.416 9.098-4.809 10.189 6.131.149 1.512.083 2.901l3.881-2.397q.028-1.515-.063-3.108-1.594-15.974-14.877-8.952Q3.05 11.843 4.999 30.493q.036.22.076.435z"/><g fill="#424242"><path d="M5.016 30.928l3.455-2.274v4.548zm23.97-14.327l3.455 2.274v-4.776z"/><path d="M13.504 30.209q-.108-.454-.19-.95Q11.98 16.485 22.17 9.842q9.098-4.809 10.189 6.131.085 1.489.018 2.878l3.945-2.374q.028-1.515-.063-3.108-1.594-15.974-14.877-8.952Q6.505 14.117 8.454 32.767q-.023.22.017.435z"/></g></g></symbol><defs ><path id="C" d="M28.032 40.73q3.029-1.601 3.393 2.041.242 4.253-3.23 6.065-2.667 1.038-3.111-1.641-.444-4.253 2.948-6.465z"/></defs></svg>