<svg xmlns="http://www.w3.org/2000/svg" xmlns:xlink="http://www.w3.org/1999/xlink" viewBox="0 0 81 61" fill="#fff" fill-rule="evenodd" stroke="#000" stroke-linecap="round" stroke-linejoin="round"><use xlink:href="#A" x=".5" y=".5"/><symbol id="A" overflow="visible"><g stroke="none"><path d="M.479 21.836L40 0l39.76 22.069-39.521 21.836z" fill="#cfd8dc"/><path d="M0 37.632l40.24 22.301V43.905L.479 21.836Q0 22.068 0 22.533z" fill="#b0bec5"/></g><g fill="none" stroke="#fff"><path d="M29.205 15.802l22.281 12.274" stroke-linejoin="miter"/><path d="M51.487 15.629q7.843 5.878 0 12.447-11.586 6.569-22.459 0-7.843-4.668.178-12.447 12.656-5.705 22.281 0z"/><g stroke-linejoin="miter"><path d="M51.486 15.629L29.027 28.076"/><path d="M29.206 15.802q-1.426 2.42.357 5.186 1.604 2.075 4.813 4.149 3.387 2.075 6.595 2.766 6.239 1.383 10.517.173"/><path d="M41.861 12.863q-3.921 7.261-16.577 8.989m13.547 9.336q4.1-8.298 16.577-10.027"/><path d="M51.308 28.076q1.07-2.42-1.07-5.878-1.07-1.729-3.921-3.803-1.783-1.21-5.526-2.593-5.882-2.075-11.23-.173"/></g></g><path d="M39.76 59.005v-14.17q.24-1.394 1.437-2.091l37.605-20.675Q80 21.604 80 22.766v15.1q0 .697-1.198 1.394L41.197 59.841q-1.437.558-1.437-.836z" fill="#eceff1" stroke="none"/><path d="M44.79 49.712l20.359-11.15" fill="none" stroke-linejoin="miter"/><g stroke="none"><path d="M67.784 38.658v-3.807l.654.381v3.807z" fill="#e53935"/><path d="M71.158 32.987l-3.374 1.865.654.381 3.411-1.871z" fill="#f44336"/><path d="M71.85 37.146v-3.785l-3.411 1.871v3.807z" fill="#ef5350"/><path d="M73.779 35.406v-3.807l.654.381v3.807z" fill="#43a047"/><path d="M77.153 29.734l-3.374 1.865.654.381 3.411-1.871z" fill="#4caf50"/><path d="M77.844 33.894v-3.785l-3.411 1.871v3.807z" fill="#66bb6a"/></g></symbol></svg>