<svg xmlns="http://www.w3.org/2000/svg" xmlns:xlink="http://www.w3.org/1999/xlink" viewBox="0 0 76 81" fill="#fff" fill-rule="evenodd" stroke="#000" stroke-linecap="round" stroke-linejoin="round"><style><![CDATA[.B{stroke:none}.C{fill:#96e652}]]></style><use xlink:href="#D" x=".5" y=".5"/><defs><linearGradient id="A" x1="100%" y1="0%" x2="0%" y2="100%"><stop offset="0%"/><stop offset="100%" stop-color="gray"/></linearGradient><linearGradient id="B" x1="0%" y1="50%" x2="100%" y2="50%"><stop offset="0%" stop-color="#c9c9c9"/><stop offset="100%" stop-color="#b0b0b0"/></linearGradient><path id="C" d="M28.537 67.031q.516.261.578-.333.041-.693-.55-.988-.454-.169-.53.268-.076.693.502 1.054z"/></defs><symbol id="D" overflow="visible"><g fill="url(#A)" class="B"><path d="M69.705 20c0-1.231-.101-2.222-1.324-2.222s-1.324.991-1.324 2.222l-.882 31.111h4.412z"/><path d="M38.823 2.222C38.823.991 38.722 0 37.5 0s-1.324.991-1.324 2.222l-.882 31.111h4.412z"/></g><path d="M31.41 27.119q-1.529-.904-3.059 0L.82 43.39q-1.529.904 0 1.808l42.826 25.311q1.529.904 3.059 0l27.531-16.271q1.529-.904 0-1.808L31.41 27.119" fill="#e3e3e3" class="B"/><path d="M45.175 70.96q.765 0 1.529-.452l27.531-16.271q.765-.452.765-.904v9.04q0 .452-.765.904L46.704 79.548Q45.94 80 45.175 80z" fill="url(#B)" class="B"/><path d="M45.175 70.96q-.792.017-1.584-.451L.765 45.198Q0 44.746 0 44.294v9.04q0 .452.765.904l42.826 25.311q.792.468 1.584.451z" fill="#c9c9c9" class="B"/><path d="M43.897 72.445V78L.662 52.222v-5.333z" fill="#3b4950" class="B"/><use xlink:href="#C" class="B C"/><g fill="#e78244"><path d="M3.266 52.376q.442.224.495-.285.035-.594-.472-.847-.389-.145-.454.229-.065.594.431.903zm-.729-2.464c.26-.082.445-.205.927-.082.408.164.668.492.927.861.074.123.037.164-.037.246-.074.041-.148.041-.223-.082-.148-.246-.408-.574-.63-.656-.408-.246-.779 0-.89.041-.148 0-.185-.082-.185-.164s.037-.123.111-.164z" class="B"/><path d="M2.664 50.642c.153-.166.383-.208.689-.125.345.166.486.423.689.707.058.095.02.145-.038.208-.058.032-.133.011-.192-.083-.116-.189-.362-.519-.536-.582-.268-.125-.345.042-.536.125-.077 0-.077 0-.153-.083 0-.063.028-.103.077-.166z" class="B"/></g><use xlink:href="#C" x="1.544" y="0.889" class="B C"/><use xlink:href="#C" x="4.632" y="2.667" fill="#f5f5f5" class="B"/><use xlink:href="#C" x="6.177" y="3.556" class="B C"/><use xlink:href="#C" x="7.721" y="4.445" fill="#f5f5f5" class="B"/><use xlink:href="#C" x="11.912" y="6.667" fill="#cc584c" class="B"/><use xlink:href="#C" x="3.088" y="1.778" fill="#242526" class="B"/></symbol></svg>