<svg xmlns="http://www.w3.org/2000/svg" xmlns:xlink="http://www.w3.org/1999/xlink" viewBox="0 0 52 81" fill="#fff" fill-rule="evenodd" stroke="#000" stroke-linecap="round" stroke-linejoin="round"><use xlink:href="#E" x=".5" y=".5"/><defs><linearGradient id="A" x1="0%" y1="50%" x2="100%" y2="50%"><stop offset="0%" stop-color="#c9c9c9"/><stop offset="100%" stop-color="#b0b0b0"/></linearGradient><linearGradient id="B" x1="83%" y1="0%" x2="17%" y2="100%"><stop offset="0%" stop-color="#b0b0b0"/><stop offset="100%" stop-color="#fff"/></linearGradient><linearGradient id="C" x1="0%" y1="50%" x2="100%" y2="50%"><stop offset="0%" stop-color="#d6d6d6"/><stop offset="100%" stop-color="#c9c9c9"/></linearGradient><linearGradient id="D" x1="100%" y1="0%" x2="0%" y2="100%"><stop offset="0%" stop-color="#00387f"/><stop offset="100%" stop-color="#0af"/></linearGradient></defs><symbol id="E" overflow="visible"><g stroke="none"><path d="M12.121 54.867q-.126.73 1.338 1.618l9.879 5.916q.962.567 1.924.506V64.3q-.962.061-1.924-.526l-9.879-5.916q-1.464-.888-1.338-1.618l-.009-1.372" fill="#c9c9c9"/><path d="M33.565 55.21l-5.21 5.877q-1.547 1.723-3.094 1.821V64.3q1.547-.098 3.094-1.841l5.21-5.877z" fill="url(#A)"/><path d="M24.569 50.065l-10.483 3.462q-3.606 1.15-.627 2.958l9.879 5.916q2.509 1.479 5.018-1.315l5.21-5.877z" fill="url(#B)"/><path d="M48.097 68.415Q50 68.072 50 66.357v-37.73q0-.867-.398-1.514l-2.717 1.514 1.211 39.788" fill="url(#C)"/><path d="M.346.844Q1.557-.528 3.114.33l45.329 25.725q.77.424 1.16 1.058l-2.717 1.514L.346.844M48.443 62.07L0 34.63v5.488q0 1.372 1.211 2.058l46.021 26.068q1.211.686 1.211-.686z" fill="#e3e3e3"/><path d="M0 34.63V1.702Q0 .33 1.211 1.016l46.021 26.068q1.211.686 1.211 2.058V62.07L0 34.63" fill="#262626"/><path d="M46.886 59.497v-30.87L1.557 2.902v30.87l45.329 25.725" fill="url(#D)"/><path d="M33.128 79.647q.083-.047.022.353" fill="#c1c1c1" fill-opacity=".56"/></g></symbol></svg>