<svg xmlns="http://www.w3.org/2000/svg" xmlns:xlink="http://www.w3.org/1999/xlink" viewBox="0 0 81 46" fill="#fff" fill-rule="evenodd" stroke="#000" stroke-linecap="round" stroke-linejoin="round"><use xlink:href="#A" x=".5" y=".5"/><symbol id="A" overflow="visible"><path d="M41.294 21.855q.517-.272.147 2.077" fill="#c1c1c1" fill-opacity=".56" stroke="none"/><path fill="none" d="M65.139 14.027c0 0-.069.785-.069.785" stroke="#cfd8dc" stroke-linecap="square" stroke-linejoin="miter"/><g stroke="none"><path fill="#bdbdbd" d="M.673 24.185q-1.875 6.478 1.478 9.301l14.335 10.11q4.815 2.951 10.991-.303c18.716-8.167 30.959-13.422 49.515-23.5 5.796-2.656 1.224-4.637 2.361-4.538z"/><path fill="#607d8b" d="M8.083 37.023c4.138 3.209 9.182 7.287 17.615 6.285C37.358 39.11 48.025 27.55 50.084 26.466c2.763-1.656 13.235-9.121 27.04-7.913 2.653-.401 3.468-2.226 1.629-3.652-3.948-3.508-14.345-12.8-24.373-14.151-15.376-.08-20.848 2.604-24.91 4.146C4.972 13.663.834 21.683.559 24.821c-.343 3.923-.088 5.685.858 7.033 2.298 2.731 3.3 2.502 6.666 5.169z"/><path fill="#455a64" d="M7.859 35.898c5.192 4.25 10.819 7.272 17.981 5.843 10.927-3.314 21.797-15.329 23.856-16.415 2.763-1.656 14.034-8.893 27.839-7.685 2.653-.401 2.466-1.998.627-3.424C74.213 10.709 64.885 1.353 54.857.002c-15.376-.08-20.225 2.722-24.571 4.017C5.789 12.787 1.651 20.807 1.376 23.945c-.343 3.924.346 5.154 1.02 6.794 2.026 3.024 3.502 3.248 5.462 5.159z"/><path d="M55.195 6.48c.343.483.751.872 1.394.911 1.006-.037 2.46-.381 2.661-.427.273-.08 1.631-.255 2.297-.541.109-.057.306.002.129-.214-.255-.392-.831-1.409-1.653-1.753-1.306-.356-1.802-.252-2.183-.212-2.287.199-2.824.796-2.92 1.06-.12.329-.109.468-.09.625.125.284.243.342.365.551zM38.56 26.781c8.778-6.362 17.971-11.004 26.139-11.004-7.351-1.572-14.703 2.358-17.971 3.93-6.535 3.93-5.718 5.502-8.169 7.074z" fill="#eee"/></g></symbol></svg>