<svg xmlns="http://www.w3.org/2000/svg" xmlns:xlink="http://www.w3.org/1999/xlink" viewBox="0 0 81 71" fill="#fff" fill-rule="evenodd" stroke="#000" stroke-linecap="round" stroke-linejoin="round"><use xlink:href="#A" x=".5" y=".5"/><symbol id="A" overflow="visible"><path d="M69.837 5.034c-1.717-.97-3.838-1.255-6.213-.769-1.464.301-3.023.893-4.639 1.802-1.553.87-3.04 1.967-4.45 3.236l5.713 3.229c1.41-1.269 2.897-2.364 4.45-3.236 1.617-.908 3.177-1.501 4.639-1.801 2.375-.485 4.496-.2 6.213.769l-5.713-3.229zM49.598 1.157C47.616.036 45.16-.293 42.416.269c-1.694.346-3.5 1.034-5.37 2.084-3.113 1.749-6.039 4.291-8.575 7.296-4.666 5.53-8.018 12.631-8.828 19.241-1.4.308-2.901.889-4.44 1.754-2.686 1.508-5.204 3.697-7.391 6.285C3.133 42.469-.019 49.837 0 56.253c.014 4.677 1.709 7.97 4.448 9.517l5.712 3.229c-2.738-1.547-4.434-4.84-4.448-9.517-.019-6.416 3.133-13.784 7.813-19.324 2.187-2.587 4.705-4.776 7.391-6.284 1.539-.865 3.04-1.448 4.44-1.755.812-6.61 4.161-13.711 8.828-19.241 2.537-3.005 5.459-5.547 8.574-7.296 1.872-1.051 3.676-1.738 5.37-2.085 2.744-.562 5.198-.233 7.182.889l-5.713-3.229z" fill="#607d8b" stroke="none"/><path d="M42.758 5.582c8.838-4.961 16.18-1.815 17.49 6.948 1.41-1.269 2.897-2.364 4.45-3.236 8.422-4.73 15.275-.931 15.302 8.481s-6.782 20.879-15.204 25.608l-43.782 24.58c-8.435 4.737-15.275.931-15.302-8.479s6.768-20.873 15.204-25.608c1.539-.865 3.04-1.448 4.44-1.754 1.253-10.203 8.555-21.571 17.402-26.539z" fill="#eceff1" stroke="none"/><path d="M49.509 36.564l3.704-2.08v1.322l-4.899 2.75V26.307l1.194-.67v10.927zM33.93 34.285l2.465 8.609 2.465-11.377 1.532-.859v12.249l-1.188.666v-4.77l.11-4.842-2.472 10.937-.908.51-2.459-8.134.11 4.684v4.77l-1.188.666V35.145l1.532-.86zm8.931 2.652v4.795l-1.187.666V30.15l3.01-1.69c.879-.492 1.568-.541 2.07-.141s.752 1.166.752 2.3c0 1.177-.239 2.219-.717 3.123a5.27 5.27 0 0 1-2.022 2.124l-1.906 1.071zm0-1.321l1.823-1.023c.528-.296.932-.729 1.214-1.296s.422-1.235.422-1.998c0-.736-.146-1.245-.435-1.526s-.688-.281-1.194.004l-1.83 1.027v4.812zm15.919-5.664c0-.61-.128-1.008-.384-1.19s-.716-.239-1.382-.174-1.175.027-1.528-.114a1.49 1.49 0 0 1-.792-.716c-.175-.337-.263-.785-.263-1.347 0-.97.249-1.91.749-2.817s1.153-1.59 1.963-2.044c.554-.311 1.046-.428 1.479-.349s.766.337 1 .776.35 1.003.35 1.686l-1.194.67c0-.756-.141-1.265-.422-1.522s-.685-.236-1.213.06c-.48.27-.853.652-1.116 1.149s-.396 1.059-.396 1.689c0 .516.143.869.428 1.057s.727.252 1.324.193c.931-.124 1.596-.005 1.996.353s.6 1.01.6 1.952a5.59 5.59 0 0 1-.746 2.804c-.498.877-1.174 1.555-2.03 2.037-.55.308-1.056.437-1.522.387s-.83-.283-1.096-.698-.399-.985-.399-1.715l1.194-.67c0 .757.164 1.255.49 1.492s.771.199 1.333-.117c.524-.293.917-.689 1.182-1.185a3.43 3.43 0 0 0 .396-1.645z" stroke="none" fill="#646464"/></symbol></svg>