<svg xmlns="http://www.w3.org/2000/svg" xmlns:xlink="http://www.w3.org/1999/xlink" viewBox="0 0 81 72" fill="#fff" fill-rule="evenodd" stroke="#000" stroke-linecap="round" stroke-linejoin="round"><style><![CDATA[.B{fill:#455a64}.C{fill:#838383}.D{stroke:none}.E{font-size:11px}.F{fill:#000}.G{fill:#78909c}.H{fill:#262626}.I{stroke:#607d8b}.J{fill:url(#A)}.K{fill:#fafafa}.L{fill:#cfd8dc}]]></style><use xlink:href="#R" x=".5" y=".5"/><defs><linearGradient id="A" x1="0%" y1="6%" x2="100%" y2="94%"><stop offset="0%" stop-color="#ffb74d"/><stop offset="100%" stop-color="#ff6f00"/></linearGradient><path id="B" d="M76.627 38.205v.299q0 .2-.193.299l-6.554 3.591-9.639-5.669v-.216z"/><path id="C" d="M60.241 36.509l9.639 5.686 6.747-3.99-9.639-5.686z"/><path id="D" d="M74.024 37.407l.675.399.337-.2-.675-.399z"/><path id="E" d="M71.759 37.108l.675.399.675-.399-.675-.399z"/><path id="F" d="M64.771 34.015l1.349.798.675-.399-1.349-.798z"/><path id="G" d="M64.627 36.01l5.735 3.392.675-.399-5.735-3.392z"/><path id="H" d="M74.024 37.407v.1l.675.399.337-.2v-.1l-.337.199z"/><path id="I" d="M72.771 37.706v.1l.675.399.675-.399v-.1l-.675.399z"/><path id="J" d="M64.771 34.015v.1l1.349.798.675-.399v-.1l-.675.399z"/><path id="K" d="M64.627 36.01v.1l5.735 3.392.675-.399v-.1l-.675.399z"/><path id="L" d="M70.94 38.702l2.024 1.197.675-.399-2.024-1.197z"/><path id="M" d="M70.94 38.704v.1l2.024 1.197.675-.399v-.1l-.675.399z"/><path id="N" d="M73.783 38.305v.1l1.012.598.675-.399v-.1l-.675.399z"/><path id="O" d="M73.783 38.305l1.012.599.675-.399-1.012-.599z"/><path id="P" d="M63.807 38.305l2.024-1.197 2.699 1.596-2.024 1.197-2.699-1.596"/><path id="Q" d="M46.072 62.055v.1l.675.399.337-.2v-.1l-.337.2z"/></defs><symbol id="R" overflow="visible"><g fill="#eee" class="D"><ellipse cx="11.566" cy="35.493" rx="11.566" ry="11.831"/><ellipse cx="42.409" cy="11.831" rx="11.566" ry="11.831"/><ellipse cx="68.434" cy="33.521" rx="11.566" ry="11.831"/><ellipse cx="40.482" cy="58.169" rx="11.566" ry="11.831"/><path d="M41.928 36.972v14.296h-1.446V36.972zm0-19.718V31.55h-1.446V17.254zm3.855 18.239h13.976v1.479H45.783zm-24.096 0h13.976v1.479H21.687z"/></g><use xlink:href="#B" class="D G"/><path d="M76.289 30.025q.337.199.337.598v7.182q0 .399-.337.199l-9.108-5.387q-.193-.15-.193-.499v-7.182q0-.399.289-.249l9.012 5.337" class="H I"/><g class="D"><path d="M76.145 37.422l-8.675-5.13v-6.983l8.675 5.13z" class="J"/><use xlink:href="#C" class="K"/><g class="B"><use xlink:href="#D"/><use xlink:href="#D" x="-1.012" y="-0.598"/><use xlink:href="#D" x="-2.024" y="-1.197"/><use xlink:href="#D" x="-3.036" y="-1.795"/><use xlink:href="#D" x="-4.048" y="-2.394"/><use xlink:href="#D" x="-5.06" y="-2.992"/><use xlink:href="#D" x="-6.072" y="-3.591"/><use xlink:href="#D" x="-7.084" y="-4.189"/></g></g><g class="B D"><use xlink:href="#E"/><use xlink:href="#E" x="1.012" y="0.598"/><use xlink:href="#E" x="-1.012" y="-0.599"/><use xlink:href="#E" x="-2.024" y="-1.197"/><use xlink:href="#E" x="-3.036" y="-1.796"/><use xlink:href="#E" x="-4.048" y="-2.394"/><use xlink:href="#E" x="-5.06" y="-2.993"/><use xlink:href="#E" x="-6.072" y="-3.591"/><use xlink:href="#F"/></g><g class="D"><g class="B"><use xlink:href="#E" x="-5.301" y="-2.095"/><use xlink:href="#E" x="-4.289" y="-1.497"/><use xlink:href="#E" x="-3.277" y="-0.898"/><use xlink:href="#E" x="-2.265" y="-0.3"/><use xlink:href="#E" x="-1.253" y="0.299"/><use xlink:href="#E" x="-7.903" y="-2.594"/><use xlink:href="#E" x="-6.891" y="-1.995"/><use xlink:href="#E" x="-5.879" y="-1.397"/><use xlink:href="#E" x="-4.867" y="-0.798"/><use xlink:href="#E" x="-3.855" y="-0.2"/><use xlink:href="#E" x="-2.843" y="0.399"/><use xlink:href="#G"/></g><g class="C"><use xlink:href="#H"/><use xlink:href="#H" x="-1.012" y="-0.599"/><use xlink:href="#H" x="-2.024" y="-1.197"/><use xlink:href="#H" x="-3.036" y="-1.796"/><use xlink:href="#H" x="-4.048" y="-2.394"/><use xlink:href="#H" x="-5.06" y="-2.993"/><use xlink:href="#H" x="-6.072" y="-3.591"/><use xlink:href="#H" x="-7.084" y="-4.19"/><use xlink:href="#I"/><use xlink:href="#I" x="-1.012" y="-0.598"/><use xlink:href="#I" x="-2.024" y="-1.197"/><use xlink:href="#I" x="-3.036" y="-1.795"/><use xlink:href="#I" x="-4.048" y="-2.394"/><use xlink:href="#I" x="-5.06" y="-2.992"/><use xlink:href="#I" x="-6.072" y="-3.591"/><use xlink:href="#I" x="-7.084" y="-4.189"/><use xlink:href="#J"/><use xlink:href="#I" x="-6.313" y="-2.693"/><use xlink:href="#I" x="-5.301" y="-2.095"/><use xlink:href="#I" x="-4.289" y="-1.496"/><use xlink:href="#I" x="-3.277" y="-0.898"/><use xlink:href="#I" x="-2.265" y="-0.299"/><use xlink:href="#I" x="-3.855" y="-0.199"/><use xlink:href="#I" x="-4.867" y="-0.798"/><use xlink:href="#I" x="-5.879" y="-1.396"/><use xlink:href="#I" x="-6.891" y="-1.995"/><use xlink:href="#I" x="-7.903" y="-2.593"/><use xlink:href="#I" x="-8.915" y="-3.192"/><use xlink:href="#K"/></g><use xlink:href="#F" x="5.928" y="5.586" class="B"/><path d="M70.699 39.601v.1l1.349.798.675-.399V40l-.675.399z" class="C"/><use xlink:href="#E" x="-1.831" y="0.997" class="B"/><use xlink:href="#I" x="-2.843" y="0.399" class="C"/><use xlink:href="#L" class="B"/><use xlink:href="#M" class="C"/><use xlink:href="#D" x="1.012" y="0.599" class="B"/><g class="C"><use xlink:href="#H" x="1.012" y="0.598"/><use xlink:href="#N"/></g><g class="B"><use xlink:href="#O"/><use xlink:href="#E" x="-0.241" y="0.897"/></g><use xlink:href="#I" x="-1.253" y="0.299" class="C"/><use xlink:href="#F" x="7.759" y="4.589" class="B"/><use xlink:href="#J" x="7.759" y="4.589" class="C"/><use xlink:href="#F" x="-1.831" y="0.998" class="B"/><use xlink:href="#J" x="-1.831" y="0.998" class="C"/><use xlink:href="#P" class="L"/><use xlink:href="#B" x="-27.952" y="24.648" class="G"/></g><path d="M48.337 54.673q.337.2.337.599v7.182q0 .399-.337.2l-9.108-5.387q-.193-.15-.193-.499v-7.182q0-.399.289-.249l9.012 5.337" class="H I"/><g class="D"><path d="M48.193 62.069l-8.675-5.13v-6.983l8.675 5.13z" class="J"/><use xlink:href="#C" x="-27.952" y="24.648" class="K"/><g class="B"><use xlink:href="#D" x="-27.952" y="24.648"/><use xlink:href="#D" x="-28.964" y="24.05"/><use xlink:href="#D" x="-29.976" y="23.451"/><use xlink:href="#D" x="-30.988" y="22.853"/><use xlink:href="#D" x="-32" y="22.254"/><use xlink:href="#D" x="-33.012" y="21.656"/><use xlink:href="#D" x="-34.024" y="21.057"/><use xlink:href="#D" x="-35.036" y="20.459"/></g></g><g class="B D"><use xlink:href="#E" x="-27.952" y="24.648"/><use xlink:href="#E" x="-26.94" y="25.246"/><use xlink:href="#E" x="-28.964" y="24.049"/><use xlink:href="#E" x="-29.976" y="23.45"/><use xlink:href="#E" x="-30.988" y="22.852"/><use xlink:href="#E" x="-32" y="22.253"/><use xlink:href="#E" x="-33.012" y="21.655"/><use xlink:href="#E" x="-34.024" y="21.057"/><use xlink:href="#F" x="-27.952" y="24.648"/></g><g class="D"><g class="B"><use xlink:href="#E" x="-33.253" y="22.553"/><use xlink:href="#E" x="-32.241" y="23.151"/><use xlink:href="#E" x="-31.229" y="23.75"/><use xlink:href="#E" x="-30.217" y="24.348"/><use xlink:href="#E" x="-29.205" y="24.947"/><use xlink:href="#E" x="-35.855" y="22.054"/><use xlink:href="#E" x="-34.843" y="22.652"/><use xlink:href="#E" x="-33.831" y="23.251"/><use xlink:href="#E" x="-32.819" y="23.85"/><use xlink:href="#E" x="-31.807" y="24.448"/><use xlink:href="#E" x="-30.795" y="25.047"/><use xlink:href="#G" x="-27.952" y="24.648"/></g><g class="C"><use xlink:href="#Q"/><use xlink:href="#Q" x="-1.012" y="-0.599"/><use xlink:href="#Q" x="-2.024" y="-1.197"/><use xlink:href="#Q" x="-3.036" y="-1.796"/><use xlink:href="#Q" x="-4.048" y="-2.394"/><use xlink:href="#Q" x="-5.06" y="-2.993"/><use xlink:href="#Q" x="-6.072" y="-3.591"/><use xlink:href="#Q" x="-7.084" y="-4.19"/><use xlink:href="#I" x="-27.952" y="24.648"/><use xlink:href="#I" x="-28.964" y="24.049"/><use xlink:href="#I" x="-29.976" y="23.451"/><use xlink:href="#I" x="-30.988" y="22.853"/><use xlink:href="#I" x="-32" y="22.254"/><use xlink:href="#I" x="-33.012" y="21.656"/><use xlink:href="#I" x="-34.024" y="21.057"/><use xlink:href="#I" x="-35.036" y="20.458"/><use xlink:href="#J" x="-27.952" y="24.648"/><use xlink:href="#I" x="-34.265" y="21.955"/><use xlink:href="#I" x="-33.253" y="22.553"/><use xlink:href="#I" x="-32.241" y="23.152"/><use xlink:href="#I" x="-31.229" y="23.75"/><use xlink:href="#I" x="-30.217" y="24.349"/><use xlink:href="#I" x="-31.807" y="24.448"/><use xlink:href="#I" x="-32.819" y="23.85"/><use xlink:href="#I" x="-33.831" y="23.252"/><use xlink:href="#I" x="-34.843" y="22.653"/><use xlink:href="#I" x="-35.855" y="22.055"/><use xlink:href="#I" x="-36.867" y="21.456"/><use xlink:href="#K" x="-27.952" y="24.648"/></g><use xlink:href="#F" x="-22.024" y="30.234" class="B"/><use xlink:href="#J" x="-22.024" y="30.234" class="C"/><use xlink:href="#E" x="-29.783" y="25.645" class="B"/><use xlink:href="#I" x="-30.795" y="25.047" class="C"/><use xlink:href="#L" x="-27.952" y="24.648" class="B"/><use xlink:href="#M" x="-27.952" y="24.648" class="C"/><use xlink:href="#D" x="-26.94" y="25.247" class="B"/><g class="C"><use xlink:href="#Q" x="1.012" y="0.598"/><path d="M45.831 62.953v.1l1.012.599.675-.399v-.1l-.675.399z"/></g><g class="B"><use xlink:href="#O" x="-27.952" y="24.648"/><use xlink:href="#E" x="-28.193" y="25.545"/></g><use xlink:href="#I" x="-29.205" y="24.947" class="C"/><use xlink:href="#F" x="-20.193" y="29.237" class="B"/><use xlink:href="#J" x="-20.193" y="29.237" class="C"/><use xlink:href="#F" x="-29.783" y="25.646" class="B"/><use xlink:href="#J" x="-29.783" y="25.646" class="C"/><use xlink:href="#P" x="-27.951" y="24.648" class="L"/><use xlink:href="#B" x="-26.024" y="-21.69" class="G"/></g><path d="M50.265 8.335q.337.199.337.598v7.182q0 .399-.337.199l-9.108-5.387q-.193-.15-.193-.499V3.248q0-.399.289-.249l9.012 5.337" class="H I"/><g class="D"><path d="M50.121 15.732l-8.675-5.13V3.619l8.675 5.13z" class="J"/><use xlink:href="#C" x="-26.024" y="-21.69" class="K"/><g class="B"><use xlink:href="#D" x="-26.024" y="-21.69"/><use xlink:href="#D" x="-27.036" y="-22.288"/><use xlink:href="#D" x="-28.048" y="-22.887"/><use xlink:href="#D" x="-29.06" y="-23.485"/><use xlink:href="#D" x="-30.072" y="-24.084"/><use xlink:href="#D" x="-31.084" y="-24.682"/><use xlink:href="#D" x="-32.096" y="-25.281"/><use xlink:href="#D" x="-33.108" y="-25.879"/></g></g><g class="B D"><use xlink:href="#E" x="-26.024" y="-21.69"/><use xlink:href="#E" x="-25.012" y="-21.092"/><use xlink:href="#E" x="-27.036" y="-22.289"/><use xlink:href="#E" x="-28.048" y="-22.887"/><use xlink:href="#E" x="-29.06" y="-23.486"/><use xlink:href="#E" x="-30.072" y="-24.085"/><use xlink:href="#E" x="-31.084" y="-24.683"/><use xlink:href="#E" x="-32.096" y="-25.281"/><use xlink:href="#F" x="-26.024" y="-21.69"/></g><g class="D"><g class="B"><use xlink:href="#E" x="-31.325" y="-23.785"/><use xlink:href="#E" x="-30.313" y="-23.187"/><use xlink:href="#E" x="-29.301" y="-22.588"/><use xlink:href="#E" x="-28.289" y="-21.99"/><use xlink:href="#E" x="-27.277" y="-21.391"/><use xlink:href="#E" x="-33.928" y="-24.284"/><use xlink:href="#E" x="-32.916" y="-23.686"/><use xlink:href="#E" x="-31.904" y="-23.087"/><use xlink:href="#E" x="-30.891" y="-22.488"/><use xlink:href="#E" x="-29.879" y="-21.89"/><use xlink:href="#E" x="-28.867" y="-21.291"/><use xlink:href="#G" x="-26.025" y="-21.69"/></g><g class="C"><use xlink:href="#H" x="-26.024" y="-21.69"/><use xlink:href="#H" x="-27.036" y="-22.289"/><use xlink:href="#H" x="-28.048" y="-22.887"/><use xlink:href="#H" x="-29.06" y="-23.486"/><use xlink:href="#H" x="-30.072" y="-24.084"/><use xlink:href="#H" x="-31.084" y="-24.683"/><use xlink:href="#H" x="-32.096" y="-25.281"/><use xlink:href="#H" x="-33.108" y="-25.88"/><use xlink:href="#I" x="-26.024" y="-21.69"/><use xlink:href="#I" x="-27.036" y="-22.289"/><use xlink:href="#I" x="-28.048" y="-22.887"/><use xlink:href="#I" x="-29.06" y="-23.485"/><use xlink:href="#I" x="-30.072" y="-24.084"/><use xlink:href="#I" x="-31.084" y="-24.682"/><use xlink:href="#I" x="-32.096" y="-25.281"/><use xlink:href="#I" x="-33.108" y="-25.879"/><use xlink:href="#J" x="-26.024" y="-21.69"/><use xlink:href="#I" x="-32.337" y="-24.383"/><use xlink:href="#I" x="-31.325" y="-23.785"/><use xlink:href="#I" x="-30.313" y="-23.186"/><use xlink:href="#I" x="-29.301" y="-22.588"/><use xlink:href="#I" x="-28.289" y="-21.989"/><use xlink:href="#I" x="-29.879" y="-21.889"/><use xlink:href="#I" x="-30.891" y="-22.488"/><use xlink:href="#I" x="-31.903" y="-23.087"/><use xlink:href="#I" x="-32.916" y="-23.685"/><use xlink:href="#I" x="-33.928" y="-24.283"/><use xlink:href="#I" x="-34.94" y="-24.882"/><use xlink:href="#K" x="-26.025" y="-21.69"/></g><use xlink:href="#F" x="-20.096" y="-16.104" class="B"/><use xlink:href="#J" x="-20.096" y="-16.104" class="C"/><use xlink:href="#E" x="-27.855" y="-20.693" class="B"/><use xlink:href="#I" x="-28.867" y="-21.291" class="C"/><use xlink:href="#L" x="-26.024" y="-21.69" class="B"/><use xlink:href="#M" x="-26.024" y="-21.69" class="C"/><use xlink:href="#D" x="-25.012" y="-21.091" class="B"/><g class="C"><use xlink:href="#H" x="-25.012" y="-21.092"/><use xlink:href="#N" x="-26.024" y="-21.69"/></g><g class="B"><use xlink:href="#O" x="-26.024" y="-21.69"/><use xlink:href="#E" x="-26.265" y="-20.793"/></g><use xlink:href="#I" x="-27.277" y="-21.391" class="C"/><use xlink:href="#F" x="-18.265" y="-17.101" class="B"/><use xlink:href="#J" x="-18.265" y="-17.101" class="C"/><use xlink:href="#F" x="-27.855" y="-20.692" class="B"/><use xlink:href="#J" x="-27.855" y="-20.692" class="C"/><use xlink:href="#P" x="-26.024" y="-21.69" class="L"/><use xlink:href="#B" x="-56.868" y="1.972" class="G"/></g><path d="M19.421 31.997q.337.199.337.598v7.182q0 .399-.337.199l-9.108-5.387q-.193-.15-.193-.499V26.91q0-.399.289-.249l9.012 5.337" class="H I"/><g class="D"><path d="M19.277 39.394l-8.675-5.13v-6.983l8.675 5.13z" class="J"/><use xlink:href="#C" x="-56.868" y="1.972" class="K"/><g class="B"><use xlink:href="#D" x="-56.867" y="1.972"/><use xlink:href="#D" x="-57.879" y="1.374"/><use xlink:href="#D" x="-58.891" y="0.775"/><use xlink:href="#D" x="-59.904" y="0.177"/><use xlink:href="#D" x="-60.916" y="-0.422"/><use xlink:href="#D" x="-61.928" y="-1.02"/><use xlink:href="#D" x="-62.94" y="-1.619"/><use xlink:href="#D" x="-63.952" y="-2.217"/></g></g><g class="B D"><use xlink:href="#E" x="-56.867" y="1.972"/><use xlink:href="#E" x="-55.855" y="2.57"/><use xlink:href="#E" x="-57.88" y="1.373"/><use xlink:href="#E" x="-58.892" y="0.774"/><use xlink:href="#E" x="-59.904" y="0.176"/><use xlink:href="#E" x="-60.916" y="-0.423"/><use xlink:href="#E" x="-61.928" y="-1.021"/><use xlink:href="#E" x="-62.94" y="-1.619"/><use xlink:href="#F" x="-56.867" y="1.972"/></g><g class="D"><g class="B"><use xlink:href="#E" x="-62.169" y="-0.123"/><use xlink:href="#E" x="-61.157" y="0.475"/><use xlink:href="#E" x="-60.145" y="1.074"/><use xlink:href="#E" x="-59.132" y="1.672"/><use xlink:href="#E" x="-58.12" y="2.271"/><use xlink:href="#E" x="-64.771" y="-0.622"/><use xlink:href="#E" x="-63.759" y="-0.024"/><use xlink:href="#E" x="-62.747" y="0.575"/><use xlink:href="#E" x="-61.735" y="1.174"/><use xlink:href="#E" x="-60.723" y="1.772"/><use xlink:href="#E" x="-59.711" y="2.371"/><use xlink:href="#G" x="-56.868" y="1.972"/></g><g class="C"><use xlink:href="#H" x="-56.867" y="1.972"/><use xlink:href="#H" x="-57.879" y="1.373"/><use xlink:href="#H" x="-58.891" y="0.775"/><use xlink:href="#H" x="-59.904" y="0.176"/><use xlink:href="#H" x="-60.916" y="-0.422"/><use xlink:href="#H" x="-61.928" y="-1.021"/><use xlink:href="#H" x="-62.94" y="-1.619"/><use xlink:href="#H" x="-63.952" y="-2.218"/><use xlink:href="#I" x="-56.867" y="1.972"/><use xlink:href="#I" x="-57.879" y="1.373"/><use xlink:href="#I" x="-58.892" y="0.775"/><use xlink:href="#I" x="-59.904" y="0.177"/><use xlink:href="#I" x="-60.916" y="-0.422"/><use xlink:href="#I" x="-61.928" y="-1.02"/><use xlink:href="#I" x="-62.94" y="-1.619"/><use xlink:href="#I" x="-63.952" y="-2.218"/><use xlink:href="#J" x="-56.867" y="1.972"/><use xlink:href="#I" x="-63.181" y="-0.721"/><use xlink:href="#I" x="-62.169" y="-0.123"/><use xlink:href="#I" x="-61.157" y="0.476"/><use xlink:href="#I" x="-60.144" y="1.074"/><use xlink:href="#I" x="-59.132" y="1.673"/><use xlink:href="#I" x="-60.723" y="1.772"/><use xlink:href="#I" x="-61.735" y="1.174"/><use xlink:href="#I" x="-62.747" y="0.575"/><use xlink:href="#I" x="-63.759" y="-0.023"/><use xlink:href="#I" x="-64.771" y="-0.621"/><use xlink:href="#I" x="-65.783" y="-1.22"/><use xlink:href="#K" x="-56.868" y="1.972"/></g><use xlink:href="#F" x="-50.94" y="7.558" class="B"/><use xlink:href="#J" x="-50.94" y="7.558" class="C"/><use xlink:href="#E" x="-58.699" y="2.969" class="B"/><use xlink:href="#I" x="-59.711" y="2.371" class="C"/><use xlink:href="#L" x="-56.868" y="1.972" class="B"/><use xlink:href="#M" x="-56.868" y="1.972" class="C"/><use xlink:href="#D" x="-55.855" y="2.571" class="B"/><g class="C"><use xlink:href="#H" x="-55.855" y="2.57"/><use xlink:href="#N" x="-56.867" y="1.972"/></g><g class="B"><use xlink:href="#O" x="-56.867" y="1.972"/><use xlink:href="#E" x="-57.108" y="2.869"/></g><use xlink:href="#I" x="-58.12" y="2.271" class="C"/><use xlink:href="#F" x="-49.108" y="6.561" class="B"/><use xlink:href="#J" x="-49.108" y="6.561" class="C"/><use xlink:href="#F" x="-58.699" y="2.97" class="B"/><use xlink:href="#J" x="-58.699" y="2.97" class="C"/><use xlink:href="#P" x="-56.867" y="1.972" class="L"/><path d="M47.273 28.275c-.377-.224-.843-.29-1.364-.178-.321.07-.664.206-1.018.416a5.5 5.5 0 0 0-.977.747l1.254.746c.309-.293.636-.546.977-.747.355-.21.697-.347 1.018-.416.521-.112.987-.046 1.364.178l-1.254-.745zm-4.443-.895c-.435-.259-.974-.335-1.577-.205-.372.08-.768.239-1.179.481-.683.404-1.326.991-1.882 1.685-1.024 1.277-1.76 2.917-1.938 4.443a3.48 3.48 0 0 0-.975.405c-.59.348-1.142.854-1.622 1.451-1.027 1.279-1.719 2.98-1.715 4.462.003 1.08.375 1.84.976 2.198l1.254.745c-.601-.357-.973-1.118-.976-2.197-.004-1.482.688-3.183 1.715-4.462.48-.597 1.033-1.103 1.622-1.451.338-.2.667-.334.975-.405.178-1.526.913-3.166 1.938-4.443.557-.694 1.198-1.281 1.882-1.685.411-.243.807-.401 1.179-.481.602-.13 1.141-.054 1.577.205l-1.254-.746z" fill="#607d8b"/><path d="M41.328 28.401c1.94-1.145 3.552-.419 3.839 1.604.309-.293.636-.546.977-.747 1.849-1.092 3.353-.215 3.359 1.958s-1.489 4.821-3.337 5.913l-9.611 5.676c-1.852 1.094-3.353.215-3.359-1.958s1.486-4.82 3.337-5.913c.338-.2.667-.334.975-.405.275-2.356 1.878-4.981 3.82-6.128z" fill="#eceff1"/><g fill="#646464"><path d="M42.849 35.723l.813-.48v.305l-1.075.635v-2.828l.262-.155v2.523zm-3.42-.526l.541 1.988.541-2.627.336-.198v2.828l-.261.154v-1.101l.024-1.118-.543 2.525-.199.118-.54-1.878.024 1.082v1.101l-.261.154v-2.828l.336-.199z"/><path d="M41.39 35.81v1.107l-.26.154v-2.828l.661-.39c.193-.114.344-.125.454-.032s.165.269.165.531a1.58 1.58 0 0 1-.157.721c-.105.208-.253.372-.444.49l-.418.247zm0-.305l.4-.236a.66.66 0 0 0 .266-.299c.061-.131.093-.285.093-.461 0-.17-.032-.287-.095-.352s-.151-.065-.262.001l-.402.237v1.111zm3.494-1.309c0-.141-.028-.233-.084-.275s-.157-.055-.303-.04-.258.006-.335-.026-.135-.088-.174-.165-.058-.181-.058-.311c0-.224.055-.441.165-.651s.253-.367.431-.472c.122-.072.23-.099.325-.081s.168.078.22.179.077.232.077.389l-.262.155c0-.175-.031-.292-.093-.351s-.15-.055-.266.014a.63.63 0 0 0-.245.265c-.058.115-.087.245-.087.39 0 .119.031.201.094.244s.159.058.29.045c.204-.029.35-.001.438.082s.132.233.132.451a1.33 1.33 0 0 1-.164.647c-.11.202-.258.359-.446.47-.121.071-.232.101-.334.089s-.182-.065-.24-.161-.088-.227-.088-.396l.262-.155c0 .175.036.29.107.345s.169.046.293-.027a.66.66 0 0 0 .259-.274.83.83 0 0 0 .087-.38z"/></g></g></symbol></svg>