<svg xmlns="http://www.w3.org/2000/svg" xmlns:xlink="http://www.w3.org/1999/xlink" viewBox="0 0 77 81" fill="#fff" fill-rule="evenodd" stroke="#000" stroke-linecap="round" stroke-linejoin="round"><style><![CDATA[.B{fill:#b0bec5}.C{fill:#cfd8dc}.D{fill:#eceff1}]]></style><use xlink:href="#D" x=".5" y=".5"/><defs><linearGradient id="A" x1="0%" y1="0%" x2="100%" y2="100%"><stop offset="0%" stop-color="#0af"/><stop offset="100%" stop-color="#00387f"/></linearGradient><linearGradient id="B" x1="0%" y1="61%" x2="100%" y2="39%"><stop offset="0%" stop-color="#b0bec5"/><stop offset="100%" stop-color="#eceff1"/></linearGradient><path id="C" d="M19.401 33.599v-2.345q-.04-.231-.238-.346l-6.227-3.421q-.198-.077-.198.115v2.499q0 .115.198.231l6.227 3.406q.238.092.238-.138z"/></defs><symbol id="D" overflow="visible"><g stroke="none"><path d="M30.646 1.144q.803-.438 1.077.537l4.147 20.357L9.749 36.284 5.644 15.864q-.249-.95.622-1.425zm-9.547 24.371l1.741-.95-2.643-12.974-1.741.95z" fill="#607d8b"/><path d="M9.359 57.386l33.082 18.349-.001-14.759Q9.358 40.75 9.359 42.772z" class="B"/><path d="M9.751 29.838l32.363-17.87 32.559 18.06-32.363 17.87z" class="D"/><path d="M9.359 42.766l32.952 18.25V47.899L9.751 29.839q-.392.19-.392.57z" class="B"/><path d="M41.984 75.086l-.066-26.427q.196-1.141 1.177-1.711l30.794-16.92q.981-.38.981.57L75 57.197q0 1.386-.78 1.764L43.284 75.59q-1.3.378-1.3-.504z" class="C"/><path d="M38.059 56.445v-8.911q-.151-.876-.904-1.315L13.492 33.217q-.754-.292-.754.438v9.496q0 .438.754.877l23.663 12.943q.904.351.904-.526z" class="D"/><path d="M23.657 35.931l17.678 9.802 29.246-16.126-17.743-9.827-29.181 16.126" fill="url(#A)" fill-opacity=".95"/><g class="C"><path d="M24.008 26.964L11.123 20.02 33.739 7.479l12.778 7.099z"/><path d="M23.007 26.331l.13 10.961L46.838 24.27v-9.38z"/></g><path d="M9.784 18.786l-.007-1.66L41 35.25l.25 1.5z" class="B"/><path d="M40.815 34.898c0 .179 1.04-.189 1.105.693.52-.16.27-.37 1.235-.441v1.512c-.553.179-.195.189-1.04.252-.553 0-.91-.063-1.3-.441z" fill="url(#B)"/><path d="M73.848 18.404L43 35.5v1.25l30.853-17.261z" class="C"/><path d="M10.319 16.525C9 17.5 9.857 17.75 9.75 17.75l31.065 17.463c.39.252.741.441 1.17.441.857 0 .741-.044 1.17-.252L73.96 18.646c.13-.126.13-.063.13-.189 0-.208-.092-.296-.52-.504L41.594.693l-.65-.378c-.325-.063-.39.063-.52.126z" class="D"/><path d="M9.749 29.858l-.13-12.22 13.518 7.811v11.843z" class="B"/><path d="M14.013 16.692c-1.338.741-.096 1.297-.191 1.297L41.23 33.37c.348.225.662.394 1.044.394.765 0 .662-.04 1.044-.225l27.494-14.954c.116-.112.116-.056.116-.169 0-.185-.082-.264-.464-.45L41.926 2.562l-.58-.337c-.29-.056-.348.056-.464.112z" fill="url(#A)" fill-opacity=".9"/><path d="M42.115 26.646L10.659 9.449 40.815 0 74.22 17.89z" class="D"/><path d="M42.115 26.646v.693L10.659 9.953v-.504z" class="B"/><path d="M74.09 17.876v.63l-31.976 8.833v-.693z" class="C"/><use xlink:href="#C" fill="#e1f5fe"/><use xlink:href="#C" y="-4.41" fill="#c8e6c9"/><path d="M27.151 43.727v-1.642q-.028-.161-.167-.242l-4.359-2.395q-.139-.054-.139.081v1.749q0 .081.139.161l4.359 2.384q.167.065.167-.097z" fill="#2c2c2c"/><path d="M39.099 72.775v-9.597q-.162-.944-.974-1.416L12.64 47.759q-.812-.315-.812.472v10.227q0 .472.812.944l25.485 13.94q.974.378.974-.566z" fill="#78909c"/><path d="M0 66.256L25.201 80l12.6-6.872L12.6 59.384 0 66.256" fill="#e3e3e3"/><path d="M37.801 73.128L12.6 59.384v-4.581l25.201 13.744z" fill="#607d8b"/><path d="M12.6 55.948L0 62.82v3.436l12.6-6.872z" class="B"/><path d="M25.201 80L0 66.256V62.82l25.201 13.744V80" class="C"/><path d="M37.801 69.692l-12.6 6.872V80l12.6-6.872z" class="B"/></g></symbol></svg>