<svg xmlns="http://www.w3.org/2000/svg" xmlns:xlink="http://www.w3.org/1999/xlink" viewBox="0 0 81 66" fill="#fff" fill-rule="evenodd" stroke="#000" stroke-linecap="round" stroke-linejoin="round"><style><![CDATA[.B{fill:#eee}.C{fill:#464646}.D{fill:#e0e0e0}.E{fill:#757575}]]></style><use xlink:href="#A" x=".5" y=".5"/><symbol id="A" overflow="visible"><g stroke="none"><path d="M53.442 40.698l26.122-14.504L33.714 0 7.809 14.829z" class="D"/><path d="M54.417 40.156l23.304-13.313c1.626-.974 2.276-.974 2.276.649V44.81c0 .974.108 1.515-1.084 2.165l-24.93 14.179c-.867.541-1.409.433-1.301-.758V42.429c0-1.082-.217-1.299 1.734-2.273z" class="B"/><path d="M0 32.272L57.355 65V41.477L.683 9.09Q0 9.431 0 10.113z" fill="#9e9e9e"/><g class="B"><use xlink:href="#C"/><path d="M9.553 26.278L4.65 23.496v5.787l4.903 2.782z"/></g><use xlink:href="#D" class="C"/><g class="B"><use xlink:href="#C" x="5.721" y="3.094"/><use xlink:href="#E"/></g><use xlink:href="#D" x="5.721" y="3.095" class="C"/><g class="B"><use xlink:href="#C" x="11.442" y="6.307"/><use xlink:href="#E" x="5.721" y="3.213"/></g><path d="M16.979 31.577v2.704l.659 1.352 1.539.901.879-.676V33.38z" class="C"/><g class="B"><use xlink:href="#C" x="17.035" y="9.58"/><use xlink:href="#E" x="11.314" y="6.486"/></g><use xlink:href="#D" x="17.034" y="9.581" class="C"/><g class="B"><path d="M35.298 36.144v-1.772q-.029-.174-.175-.261l-4.568-2.586q-.146-.058-.146.087V33.5q0 .087.146.174l4.568 2.574q.175.07.175-.105z"/><use xlink:href="#E" x="20.038" y="11.463"/></g><path d="M31.297 39.827v2.704l.659 1.352 1.539.901.879-.676V41.63z" class="C"/><g class="B"><use xlink:href="#C" x="31.48" y="17.651"/><use xlink:href="#E" x="25.759" y="14.557"/></g><use xlink:href="#D" x="31.48" y="17.652" class="C"/><g class="B"><path d="M46.739 42.452V40.68q-.029-.174-.175-.261l-4.568-2.586q-.146-.058-.146.087v1.888q0 .087.146.174l4.568 2.574q.175.07.175-.105z"/><use xlink:href="#E" x="31.48" y="17.77"/></g><use xlink:href="#D" x="37.2" y="20.865" class="C"/><g class="B"><use xlink:href="#C" x="42.794" y="24.138"/><use xlink:href="#E" x="37.073" y="21.043"/></g><path d="M48.331 49.407v2.704l.659 1.352 1.539.901.879-.676V51.21z" class="C"/><use xlink:href="#F" class="E"/><use xlink:href="#G" class="D"/><use xlink:href="#G" x="-0.101" y="0.05" class="B"/><use xlink:href="#F" y="18.373" class="E"/><use xlink:href="#G" y="18.373" class="D"/><use xlink:href="#G" x="-0.101" y="18.423" class="B"/><use xlink:href="#F" x="52.225" y="29.633" class="E"/><use xlink:href="#G" x="52.226" y="29.633" class="D"/><use xlink:href="#G" x="52.125" y="29.684" class="B"/><use xlink:href="#F" x="52.225" y="48.007" class="E"/><use xlink:href="#G" x="52.226" y="48.006" class="D"/><use xlink:href="#G" x="52.125" y="48.057" class="B"/><path d="M57.355 65l.212-.141V41.327l-.212.141z" class="D"/><path d="M57.355 41.468l.212-.141L1.308 9.032l-.637.071z" fill="#bdbdbd"/><path d="M7.237 24.108l-.255-.147v-2.35l-.438.008v-.32l.653-.003.04.023v2.788zm6.025 3.297l-1.165-.672v-.254l.594-.706a1.23 1.23 0 0 0 .187-.29.77.77 0 0 0 .052-.299 1.02 1.02 0 0 0-.077-.403.51.51 0 0 0-.203-.254c-.106-.061-.188-.06-.246.004s-.087.187-.087.37l-.253-.146c0-.255.053-.432.158-.529s.248-.094.428.01c.166.096.297.239.392.429a1.37 1.37 0 0 1 .143.623c0 .274-.107.537-.322.788l-.464.541.863.498v.288zm5.116 1.321l.162.093c.104.06.184.064.241.011s.084-.153.084-.3c0-.325-.095-.542-.283-.651-.091-.052-.162-.049-.213.009s-.077.158-.077.3l-.252-.145c0-.222.051-.376.152-.462s.232-.083.39.008a1 1 0 0 1 .391.43c.097.192.145.413.145.664a.6.6 0 0 1-.075.316c-.05.082-.115.126-.195.132.197.21.295.483.295.82 0 .248-.052.415-.155.502s-.239.082-.406-.014-.299-.242-.4-.439a1.4 1.4 0 0 1-.152-.649l.253.146c0 .147.027.28.08.398s.127.203.219.257.17.055.225.002.084-.166.084-.341c0-.337-.12-.574-.359-.712l-.152-.087v-.288zm6.192 4.068l.232.134v.288l-.232-.134v.644l-.253-.146v-.644l-.787-.454v-.208l.774-1.477.266.153v1.843zm-.76-.438l.507.292v-1.319l-.507 1.027zm8.698 4.579l.09-1.332.906.522v.326l-.693-.399-.049.729c.086-.031.179-.017.278.04.162.093.29.251.382.472s.139.473.139.757-.05.484-.151.589-.239.108-.414.007a.99.99 0 0 1-.382-.424 1.65 1.65 0 0 1-.169-.662l.238.137a1.2 1.2 0 0 0 .102.418.54.54 0 0 0 .211.243c.098.057.175.044.231-.038s.083-.219.083-.412a1.32 1.32 0 0 0-.09-.496c-.06-.149-.14-.252-.241-.311-.084-.048-.151-.058-.202-.029l-.067.051-.202-.189zm6.458 2.191v.299l-.042-.024c-.169-.092-.301-.093-.397-.001s-.15.281-.165.567c.093-.102.211-.111.355-.028.154.089.276.243.366.463a1.94 1.94 0 0 1 .135.74c0 .291-.05.492-.15.604s-.234.119-.401.022-.305-.276-.408-.534-.155-.554-.155-.884v-.135c0-.381.031-.667.093-.857s.153-.306.274-.346.271-.011.45.089l.043.025zm-.291 1.083c-.069-.04-.132-.041-.19-.005s-.1.101-.126.194v.139c0 .225.03.425.089.601s.133.289.22.339c.094.054.168.039.222-.046s.08-.223.08-.414a1.5 1.5 0 0 0-.08-.506c-.053-.15-.125-.25-.215-.302zm6.224 2.558l-.717 2.163-.265-.153.716-2.073-.929-.536v-.29l1.195.689v.198zm5.339 3.576c0 .139-.023.248-.069.33s-.109.13-.187.146a1.37 1.37 0 0 1 .218.399c.053.149.079.299.079.45 0 .239-.051.401-.153.485s-.236.078-.404-.019a1.03 1.03 0 0 1-.404-.448c-.101-.202-.152-.422-.152-.661 0-.152.026-.274.078-.364s.123-.14.213-.149a1.29 1.29 0 0 1-.185-.359 1.27 1.27 0 0 1-.067-.408c0-.234.048-.392.142-.474s.22-.079.376.011a.96.96 0 0 1 .374.42 1.42 1.42 0 0 1 .142.641zm-.213 1.171c0-.159-.028-.302-.085-.431s-.13-.219-.222-.272-.167-.048-.221.017-.081.177-.081.335.027.3.079.419.128.207.225.263.172.055.225-.004.079-.168.079-.328zm-.039-1.311a.99.99 0 0 0-.074-.388c-.05-.118-.113-.199-.19-.243s-.146-.04-.193.02-.072.162-.072.306a.97.97 0 0 0 .073.387.48.48 0 0 0 .192.238c.081.047.146.041.193-.018s.072-.159.072-.302z" class="B"/></g></symbol><defs ><path id="C" d="M9.538 21.587v-1.772q-.029-.174-.175-.261l-4.568-2.586q-.146-.058-.146.087v1.888q0 .087.146.174l4.568 2.574q.175.07.175-.105z"/><path id="D" d="M5.538 25.269v2.704l.659 1.352 1.539.901.879-.676v-2.479z"/><path id="E" d="M15.274 29.373l-4.903-2.782v5.787l4.903 2.782z"/><path id="F" d="M2.605 12.123q-.779-.39-.872.498-.062 1.037.831 1.479.686.253.8-.4.114-1.037-.758-1.576z"/><path id="G" d="M2.594 12.216q-.725-.363-.812.463-.058.965.773 1.376.638.235.744-.372.106-.965-.705-1.467z"/></defs></svg>