<svg xmlns="http://www.w3.org/2000/svg" xmlns:xlink="http://www.w3.org/1999/xlink" viewBox="0 0 81 61" fill="#fff" fill-rule="evenodd" stroke="#000" stroke-linecap="round" stroke-linejoin="round"><style><![CDATA[.B{fill:#cfd8dc}.C{fill:#43a047}.D{fill:#66bb6a}.E{fill:#464646}.F{fill:#fcf3e8}]]></style><use xlink:href="#M" x=".5" y=".5"/><defs><linearGradient id="A" x1="0%" y1="94%" x2="100%" y2="6%"><stop offset="0%" stop-color="gray"/><stop offset="100%"/></linearGradient><path id="B" d="M28.797 41.164v2.934l.741 1.467 1.729.978.988-.734v-2.69z"/><path id="C" d="M37.922 43.725v-2.934l-.741-1.467-1.729-.978-.988.734v2.69z"/><path id="D" d="M2.595 22.038q-.381-.475-.699.053-.342.63.096 1.171.362.361.625-.014.375-.615-.022-1.211z"/><path id="E" d="M2.561 22.093q-.354-.442-.65.049-.318.586.089 1.09.336.336.581-.013.349-.572-.02-1.126z"/><path id="F" d="M43.568 47.206q.705.341.79-.435.056-.907-.752-1.293-.621-.221-.724.35-.103.907.687 1.378z"/><path id="G" d="M43.553 47.171q.689.333.771-.425.055-.885-.734-1.263-.606-.216-.707.342-.101.885.67 1.346z"/><path id="H" d="M2.378 21.656l-.039-.022v-.347l-.067.001v-.047h.1l.006.003v.412z"/><path id="I" d="M3.899 24.636l.035.02v.042l-.035-.02v.095l-.039-.022v-.095l-.12-.067v-.031l.118-.218.041.023v.272zm-.116-.065l.078.043v-.195l-.078.152z"/><path id="J" d="M3.883 26.559v.044l-.006-.004c-.026-.014-.046-.014-.061 0s-.023.041-.025.084c.014-.015.032-.016.054-.004s.042.036.056.068.021.069.021.109-.008.073-.023.089-.036.018-.061.003-.047-.041-.062-.079a.34.34 0 0 1-.024-.13v-.02c0-.056.005-.098.014-.127s.023-.045.042-.051.041-.002.069.013l.007.004zm-.044.16c-.01-.006-.02-.006-.029-.001s-.015.015-.019.029v.021c0 .033.005.063.014.089s.02.043.034.05.026.006.034-.007.012-.033.012-.061-.004-.053-.012-.075-.019-.037-.033-.045z"/><path id="K" d="M2.416 28.07l-.11.319-.041-.023.109-.306-.142-.079v-.043l.183.102v.029z"/><path id="L" d="M40.678 48.327v1.224q.007.033-.027.013l-.486-.267q-.027-.013-.034-.039v-1.217q0-.02.027-.013l.493.26q.027.013.027.039z"/></defs><symbol id="M" overflow="visible"><g stroke="none"><path d="M50.951 43.982V60L80 43.982V28.009L50.951 43.982z" class="B"/><path d="M29.235 0L80 28.009 50.952 43.982.093 16.063z" fill="#90a4ae"/><path d="M.464 16.152c-.371-.224-.464-.134-.464.224v15.123c0 .268.046.447.186.492L50.951 60V43.982L.464 16.152z" fill="#eceff1"/><path d="M32.705 42.676l-4.498-2.464v5.125l4.498 2.464z" class="F"/><use xlink:href="#B" class="E"/><g class="F"><path d="M38.822 38.919l-5.397-2.957v6.15l5.397 2.957z"/><path d="M38.822 44.99l-5.397-2.957v6.15l5.397 2.957z"/></g><g class="E"><use xlink:href="#B" x="5.667" y="2.255"/><use xlink:href="#C"/></g><path d="M27.272 32.917V45.03L6.978 33.849V21.736z" class="F"/><g class="E"><use xlink:href="#B" x="-5.718" y="-3.731"/><use xlink:href="#B" x="-10.905" y="-6.665"/><use xlink:href="#B" x="-16.092" y="-9.599"/><use xlink:href="#B" x="-21.279" y="-12.533"/><use xlink:href="#C" x="-26.946" y="-14.789"/><use xlink:href="#C" x="-21.759" y="-11.855"/><path d="M21.35 34.804V31.87l-.741-1.467-1.729-.978-.988.734v2.69z"/><use xlink:href="#C" x="-11.385" y="-5.987"/></g><use xlink:href="#D" class="B"/><use xlink:href="#E" class="C"/><use xlink:href="#E" x="-0.08" y="0.002" class="D"/><use xlink:href="#D" x="1.535" y="0.756" class="B"/><use xlink:href="#E" x="1.535" y="0.756" class="C"/><use xlink:href="#E" x="1.455" y="0.758" class="D"/><use xlink:href="#D" y="2.229" class="B"/><use xlink:href="#E" y="2.228" class="C"/><use xlink:href="#E" x="-0.08" y="2.23" class="D"/><use xlink:href="#D" x="1.535" y="2.985" class="B"/><use xlink:href="#E" x="1.535" y="2.985" class="C"/><use xlink:href="#E" x="1.455" y="2.987" class="D"/><use xlink:href="#D" y="4.457" class="B"/><use xlink:href="#E" y="4.457" class="C"/><use xlink:href="#E" x="-0.08" y="4.459" class="D"/><use xlink:href="#D" x="1.535" y="5.213" class="B"/><use xlink:href="#E" x="1.535" y="5.213" class="C"/><use xlink:href="#E" x="1.455" y="5.215" class="D"/><use xlink:href="#D" y="6.599" class="B"/><use xlink:href="#E" y="6.599" class="C"/><use xlink:href="#E" x="-0.08" y="6.601" class="D"/><use xlink:href="#D" x="1.535" y="7.355" class="B"/><use xlink:href="#E" x="1.535" y="7.355" class="C"/><use xlink:href="#E" x="1.455" y="7.357" class="D"/><use xlink:href="#F" fill="#000"/><use xlink:href="#G" fill="#9de3fd"/><path d="M.577.076Q.064-.173.003.393q-.041.66.547.941.452.161.527-.255.075-.66-.5-1.003z" fill="url(#A)" transform="matrix(-1 0 0 -1 44.119526 47.041007)"/><use xlink:href="#F" y="2.784" fill="#000"/><use xlink:href="#G" y="2.784" fill="#e7fb98"/><path d="M.577.076Q.064-.173.003.393q-.041.66.547.941.452.161.527-.255.075-.66-.5-1.003z" fill="url(#A)" transform="matrix(-1 0 0 -1 44.119526 49.824958)"/><g fill="#000"><use xlink:href="#H"/><path d="M3.929 22.464l-.178-.099v-.037l.091-.104a.18.18 0 0 0 .029-.043c.006-.013.008-.027.008-.044s-.004-.042-.012-.059-.018-.03-.031-.038-.029-.009-.038.001-.013.028-.013.055l-.039-.022c0-.038.008-.064.024-.078s.038-.014.065.002.045.035.06.063.022.059.022.092c0 .04-.016.079-.049.116l-.071.08.132.073v.042zm-1.636 1.251l.025.014c.016.009.028.009.037.002s.013-.023.013-.044c0-.048-.014-.08-.043-.096-.014-.008-.025-.007-.033.001s-.012.023-.012.044l-.039-.022c0-.033.008-.056.023-.068s.036-.012.06.001a.15.15 0 0 1 .06.064.21.21 0 0 1 .022.098c0 .019-.004.034-.012.047s-.018.019-.03.02c.03.031.045.071.045.121 0 .037-.008.061-.024.074s-.037.012-.062-.002-.046-.036-.061-.065-.023-.061-.023-.096l.039.022c0 .022.004.041.012.059s.019.03.033.038.026.008.034 0 .013-.024.013-.05c0-.05-.018-.085-.055-.105l-.023-.013v-.043z"/><use xlink:href="#I"/><path d="M2.249 25.924l.014-.197.139.077v.048l-.106-.059-.007.108c.013-.005.027-.003.042.006.025.014.044.037.058.07s.021.07.021.112-.008.071-.023.087-.037.016-.063.001-.043-.034-.058-.063-.024-.061-.026-.098l.036.02c.002.025.007.045.016.062s.019.028.032.036.027.006.035-.006.013-.032.013-.061a.19.19 0 0 0-.014-.073c-.009-.022-.021-.037-.037-.046s-.023-.009-.031-.004l-.01.008-.031-.028z"/><use xlink:href="#J"/><use xlink:href="#K"/><path d="M3.916 28.877c0 .02-.003.037-.011.049s-.017.019-.029.022a.2.2 0 0 1 .033.059c.008.022.012.044.012.066 0 .035-.008.059-.023.072s-.036.012-.062-.003-.046-.036-.062-.066-.023-.062-.023-.098c0-.022.004-.04.012-.054s.019-.021.033-.022c-.012-.016-.021-.033-.028-.053a.18.18 0 0 1-.01-.06c0-.035.007-.058.022-.07s.034-.012.057.002.043.034.057.062.022.06.022.094zm-.033.173c0-.023-.004-.045-.013-.064s-.02-.032-.034-.04-.026-.007-.034.003-.012.026-.012.049.004.044.012.062.02.031.034.039.026.008.034-.001.012-.025.012-.048zm-.006-.193c0-.021-.004-.04-.011-.057s-.017-.029-.029-.036-.022-.006-.03.003-.011.024-.011.045.004.04.011.057.017.028.029.035.022.006.029-.003.011-.024.011-.045z"/><use xlink:href="#H" x="7.27" y="1.382"/><path d="M14.745 25.857l-.178-.099v-.037l.091-.104a.18.18 0 0 0 .029-.043c.006-.013.008-.027.008-.044s-.004-.042-.012-.059-.018-.03-.031-.038-.029-.009-.037.001-.013.028-.013.055l-.039-.022c0-.038.008-.064.024-.078s.038-.014.065.002.045.035.06.063.022.059.022.092c0 .04-.016.079-.049.116l-.071.08.132.073v.042zm5.022 2.563l.025.014c.016.009.028.009.037.002s.013-.023.013-.044c0-.048-.015-.08-.043-.096-.014-.008-.025-.007-.033.001s-.012.023-.012.044l-.039-.022c0-.033.008-.056.023-.068s.036-.012.06.001a.15.15 0 0 1 .06.064.21.21 0 0 1 .022.098c0 .019-.004.035-.011.047s-.018.019-.03.02c.03.031.045.071.045.121 0 .037-.008.061-.024.074s-.037.012-.062-.002-.046-.036-.061-.065-.023-.061-.023-.096l.039.022c0 .022.004.041.012.059s.019.03.034.038.026.008.034 0 .013-.025.013-.05c0-.05-.018-.085-.055-.105l-.023-.013v-.042z"/><use xlink:href="#I" x="21.124" y="6.756"/><path d="M8.98 35.248l.014-.197.138.077v.048l-.106-.059-.007.108c.013-.005.027-.003.042.006.025.014.044.037.059.07a.28.28 0 0 1 .021.112c0 .042-.008.071-.023.087s-.037.016-.063.001-.043-.034-.058-.063-.024-.061-.026-.098l.036.02c.002.025.007.045.016.062s.019.028.032.036.027.007.035-.006.013-.032.013-.061a.19.19 0 0 0-.014-.073c-.009-.022-.021-.037-.037-.046s-.023-.009-.031-.004l-.01.007-.031-.028z"/><use xlink:href="#J" x="10.277" y="11.344"/><use xlink:href="#K" x="16.934" y="12.715"/><path d="M24.501 43.666c0 .02-.004.037-.011.049s-.017.019-.029.022a.2.2 0 0 1 .033.059c.008.022.012.044.012.066 0 .035-.008.059-.023.072s-.036.012-.062-.003-.046-.036-.062-.066-.023-.062-.023-.098c0-.022.004-.04.012-.054s.019-.021.032-.022c-.012-.016-.021-.033-.028-.053a.18.18 0 0 1-.01-.06c0-.035.007-.058.022-.07s.034-.012.057.002.043.034.057.062.022.06.022.094zm-.033.173c0-.023-.004-.045-.013-.064s-.02-.032-.034-.04-.026-.007-.034.003-.012.026-.012.049.004.044.012.062.02.031.035.039.026.008.034-.001.012-.025.012-.048zm-.006-.193c0-.021-.004-.04-.011-.057s-.017-.029-.029-.036-.022-.006-.03.003-.011.024-.011.045.004.04.011.057.017.028.029.035.022.006.029-.003.011-.024.011-.045z"/></g><path d="M41.679 48.687v3.778q.021.1-.083.04l-1.501-.824q-.083-.04-.104-.121v-3.758q0-.06.083-.04l1.521.804q.083.04.083.121z" class="E"/><use xlink:href="#L"/><use xlink:href="#L" y="1.21"/><use xlink:href="#L" y="2.285"/><use xlink:href="#D" x="44.162" y="29.809" class="B"/><use xlink:href="#E" x="44.162" y="29.809" class="C"/><use xlink:href="#E" x="44.082" y="29.811" class="D"/><use xlink:href="#D" x="46.293" y="28.92" class="B"/><use xlink:href="#E" x="46.293" y="28.92" class="C"/><use xlink:href="#E" x="46.213" y="28.922" class="D"/><use xlink:href="#D" x="46.293" y="31.867" class="B"/><use xlink:href="#E" x="46.293" y="31.867" class="C"/><use xlink:href="#E" x="46.213" y="31.869" class="D"/><path d="M34.153 22.271l7.053-3.927 1.741.969c.556.31.818.631.786.961s-.362.671-.989 1.02a3.22 3.22 0 0 1-1.086.366 3.83 3.83 0 0 1-1.165.004c.183.21.206.444.069.702s-.417.505-.84.741c-.633.352-1.281.546-1.943.58s-1.272-.104-1.829-.415l-1.799-1.002zm4.067-1.409l-2.538 1.413 1.049.584c.292.162.633.229 1.024.201s.788-.153 1.189-.377c.849-.473.963-.882.342-1.228l-1.066-.592zm.747-.415l.986.548c.265.148.584.21.955.185a2.53 2.53 0 0 0 1.071-.323c.389-.216.596-.415.625-.595s-.111-.356-.415-.526l-.974-.542-2.247 1.252zm-7.434-2.309l-2.761 1.538-.768-.427 7.053-3.927 1.946 1.083c.568.316.818.674.75 1.073s-.429.78-1.081 1.143c-.678.378-1.355.583-2.031.615a3.56 3.56 0 0 1-1.876-.411l-1.232-.686zm.761-.423l1.179.656c.341.19.722.27 1.139.24s.847-.168 1.286-.413c.423-.236.67-.478.738-.724s-.06-.461-.389-.643l-1.183-.658-2.771 1.543zm13.81 5.996l3.853-.865.902.502-5.087 1.063-1.932 2.883-.911-.507 1.577-2.185-3.931.875-.91-.507 5.187-1.071 1.899-2.838.898.5-1.544 2.15z" fill="#eceff1"/></g></symbol></svg>