<svg xmlns="http://www.w3.org/2000/svg" xmlns:xlink="http://www.w3.org/1999/xlink" viewBox="0 0 76 81" fill="#fff" fill-rule="evenodd" stroke="#000" stroke-linecap="round" stroke-linejoin="round"><use xlink:href="#F" x=".5" y=".5"/><defs><linearGradient id="A" x1="0%" y1="50%" x2="100%" y2="50%"><stop offset="0%" stop-color="#c9c9c9"/><stop offset="100%" stop-color="#b0b0b0"/></linearGradient><linearGradient id="B" x1="100%" y1="0%" x2="0%" y2="100%"><stop offset="0%" stop-color="#333"/><stop offset="100%" stop-color="#999"/></linearGradient><linearGradient id="C" x1="83%" y1="0%" x2="17%" y2="100%"><stop offset="0%" stop-color="#b0b0b0"/><stop offset="100%" stop-color="#fff"/></linearGradient><linearGradient id="D" x1="0%" y1="50%" x2="100%" y2="50%"><stop offset="0%" stop-color="#d6d6d6"/><stop offset="100%" stop-color="#c9c9c9"/></linearGradient><linearGradient id="E" x1="100%" y1="0%" x2="0%" y2="100%"><stop offset="0%" stop-color="#00387f"/><stop offset="100%" stop-color="#0af"/></linearGradient></defs><symbol id="F" overflow="visible"><g stroke="none"><path d="M0 13.378v33.444l10.714 6.689V20.067z" fill="#c9c9c9"/><path d="M21.429 0l10.714 6.689-21.429 13.378L0 13.378z" fill="#e3e3e3"/><path d="M32.143 6.689v33.444L10.714 53.511V20.067z" fill="url(#A)"/><path d="M9.337 23.912l-7.959-5.017v-1.338l7.959 5.017zm0 2.174L1.378 21.07v-1.338l7.959 5.017zm0 2.174l-7.959-5.017v-1.338l7.959 5.017z" fill="#838383"/><ellipse cx="1.565" cy="1.303" fill="url(#B)" rx="1.565" ry="1.303" transform="matrix(.866025 .5 -.5 .866025 4.653132 43.658457)"/><path d="M54.564 49.674l-8.424 2.818q-2.898.937-.504 2.408l7.938 4.816q2.016 1.204 4.032-1.07l4.187-4.784z" fill="url(#C)"/><path d="M61.793 53.862l-4.187 4.784q-1.243 1.402-2.486 1.482v1.133q1.243-.08 2.486-1.498l4.187-4.784z" fill="url(#A)"/><path d="M44.561 53.583q-.102.594 1.075 1.317l7.938 4.816q.773.462 1.546.412v1.133q-.773.05-1.546-.428l-7.938-4.816q-1.177-.723-1.075-1.317l-.007-1.117" fill="#c9c9c9"/><path d="M73.471 64.612Q75 64.333 75 62.937V32.223q0-.705-.319-1.233l-2.183 1.233.973 32.389" fill="url(#D)"/><path d="M35.099 9.605q.973-1.117 2.224-.419l36.425 20.941q.619.345.932.861l-2.183 1.233L35.099 9.605m38.649 49.842L34.821 37.109v4.468q0 1.117.973 1.675l36.981 21.221q.973.558.973-.558z" fill="#e3e3e3"/><path d="M34.821 37.109V10.304q0-1.117.973-.558l36.981 21.221q.973.558.973 1.675v26.805L34.821 37.109" fill="#262626"/><path d="M72.498 57.352v-25.13L36.073 11.281v25.13l36.425 20.941" fill="url(#E)"/><path d="M61.442 73.755q.067-.038.017.287" fill="#c1c1c1" fill-opacity=".56"/><path d="M45.486 78.607L15.021 60.403l12.82-7.532 30.465 18.046z" fill="#eceff1"/><g fill="#c9c9c9"><path d="M58.441 70.942L45.46 78.728V80l12.981-7.786z"/><path d="M45.46 80v-1.271L14.61 60.296v1.271L45.46 80"/></g><path fill="#646464" d="M45.46 78.728L14.61 60.295l12.981-7.627 30.85 18.274zM26.522 66.652l10.385 6.197 1.833-1.112-10.385-6.197zm27.795 3.814l1.833 1.112 1.069-.636-1.833-1.112zm-2.138-1.271l1.833 1.112 1.069-.636-1.833-1.112zm-2.138-1.271l1.833 1.112 1.069-.636-1.833-1.112zm-2.138-1.271l1.833 1.112 1.069-.636-1.833-1.112zm-2.138-1.271l1.833 1.112 1.069-.636-1.833-1.112zm-2.138-1.271l1.833 1.112 1.069-.636-1.833-1.112zm-2.138-1.271l1.833 1.112 1.069-.636-1.833-1.112zm-2.138-1.271l1.833 1.112 1.069-.636-1.833-1.112zm-2.138-1.271l1.833 1.112 1.069-.636-1.833-1.112zm-2.138-1.271l1.833 1.112 1.069-.636-1.833-1.112zm-2.138-1.271l1.833 1.112 1.069-.636-1.833-1.112zm-2.138-1.271l1.833 1.112 1.069-.636-1.833-1.112zM28.66 55.21l1.833 1.112 1.069-.636-1.833-1.112zm-2.138-1.271l1.833 1.112 1.069-.636-1.833-1.112zm24.283 17.003l3.207 1.907 1.833-1.112-3.207-1.907zm-2.138-1.271l1.833 1.112 1.833-1.112-1.833-1.112zm-2.138-1.271l1.833 1.112 1.833-1.112-1.833-1.112zm-2.138-1.271l1.833 1.112 1.833-1.112-1.833-1.112zm-2.138-1.271l1.833 1.112 1.833-1.112-1.833-1.112zm-2.138-1.271l1.833 1.112 1.833-1.112-1.833-1.112zm-2.138-1.271l1.833 1.112 1.833-1.112-1.833-1.112zm-2.138-1.271l1.833 1.112 1.833-1.112-1.833-1.112zM33.7 60.772l1.833 1.112 1.833-1.112-1.833-1.112zm-2.138-1.271l1.833 1.112 1.833-1.112-1.833-1.112zm-2.138-1.271l1.833 1.112 1.833-1.112-1.833-1.112zm-2.138-1.271l1.833 1.112 1.833-1.112-1.833-1.112zm-2.902-1.748l2.596 1.589 1.833-1.112-2.596-1.589zm25.352 17.638l2.138 1.271 1.833-1.112-2.138-1.271zm-2.138-1.271l1.833 1.112 1.833-1.112-1.833-1.112zm-2.138-1.271l1.833 1.112 1.833-1.112-1.833-1.112zm-2.138-1.271l1.833 1.112 1.833-1.112-1.833-1.112zm-2.138-1.271l1.833 1.112 1.833-1.112-1.833-1.112zm-2.138-1.271l1.833 1.112 1.833-1.112-1.833-1.112zm-2.138-1.271l1.833 1.112 1.833-1.112-1.833-1.112zm-2.138-1.271l1.833 1.112 1.833-1.112-1.833-1.112zm-2.138-1.271l1.833 1.112 1.833-1.112-1.833-1.112zm-2.138-1.271l1.833 1.112 1.833-1.112-1.833-1.112zm-2.138-1.271l1.833 1.112 1.833-1.112-1.833-1.112zm-2.138-1.271l1.833 1.112 1.833-1.112-1.833-1.112zm-2.138-1.271l1.833 1.112 1.833-1.112-1.833-1.112zm-1.833-1.112l1.527.953 1.833-1.112-1.527-.953zm22.145 15.732l1.833 1.112 1.833-1.112-1.833-1.112zm2.138 1.271l3.207 1.907 1.833-1.112-3.207-1.907zm-4.276-2.543l1.833 1.112 1.833-1.112-1.833-1.112zm-2.138-1.271l1.833 1.112 1.833-1.112-1.833-1.112zm-4.276-2.542l1.833 1.112 1.833-1.112-1.833-1.112zm2.138 1.271l1.833 1.112 1.833-1.112-1.833-1.112zm-6.414-3.814l1.833 1.112 1.833-1.112-1.833-1.112zm2.138 1.271l1.833 1.112 1.833-1.112-1.833-1.112zm-6.414-3.814l1.833 1.112 1.833-1.112-1.833-1.112zm2.138 1.271l1.833 1.112 1.833-1.112-1.833-1.112zm-6.414-3.814l1.833 1.112 1.833-1.112-1.833-1.112zm2.138 1.271l1.833 1.112 1.833-1.112-1.833-1.112zm-5.04-3.019l2.596 1.589 1.833-1.112-2.596-1.589zm23.519 16.526l3.971 2.384 1.833-1.112-3.971-2.384zm-2.138-1.271l1.833 1.112 1.833-1.112-1.833-1.112zm-2.138-1.271l1.833 1.112 1.833-1.112-1.833-1.112zm-2.138-1.271l1.833 1.112 1.833-1.112-1.833-1.112zm-2.138-1.271l1.833 1.112 1.833-1.112-1.833-1.112zm-2.138-1.271l1.833 1.112 1.833-1.112-1.833-1.112zm-2.138-1.271l1.833 1.112 1.833-1.112-1.833-1.112zM28.66 65.38l1.833 1.112 1.833-1.112-1.833-1.112zm-2.138-1.271l1.833 1.112 1.833-1.112-1.833-1.112zm-2.138-1.271l1.833 1.112 1.833-1.112-1.833-1.112zm-2.138-1.271l1.833 1.112 1.833-1.112-1.833-1.112zm-4.276-2.543l3.971 2.384 1.833-1.112-3.971-2.384zm-2.138 1.271l1.833 1.112 1.833-1.112-1.833-1.112zm2.138 1.271l1.833 1.112 1.833-1.112-1.833-1.112zm2.138 1.271l1.833 1.112 1.833-1.112-1.833-1.112zm2.138 1.271l1.833 1.112 1.833-1.112-1.833-1.112zm2.138 1.271l1.833 1.112 1.833-1.112-1.833-1.112zm12.829 7.627l1.833 1.112 1.833-1.112-1.833-1.112zm5.345 1.907l1.833 1.112.764-.477-1.833-1.112zm-1.069.636l1.833 1.112.764-.477-1.833-1.112zm2.138 1.271l1.833 1.112.764-.477-1.833-1.112zm-4.276-2.542l1.833 1.112.764-.477-1.833-1.112z"/></g></symbol></svg>