<svg xmlns="http://www.w3.org/2000/svg" xmlns:xlink="http://www.w3.org/1999/xlink" viewBox="0 0 33 81" fill="#fff" fill-rule="evenodd" stroke="#000" stroke-linecap="round" stroke-linejoin="round"><style><![CDATA[.B{stroke:none}.C{font-family:Roboto Condensed}.D{fill:#51646e}]]></style><use xlink:href="#G" x=".5" y=".5"/><defs><linearGradient id="A" x1="0%" y1="50%" x2="100%" y2="50%"><stop offset="0%" stop-color="#c9c9c9"/><stop offset="100%" stop-color="#b0b0b0"/></linearGradient><linearGradient id="B" x1="0%" y1="78%" x2="100%" y2="22%"><stop offset="0%" stop-color="#7f7f7f"/><stop offset="100%" stop-color="#fff"/></linearGradient><path id="C" d="M7.843 41.942v4.116l6.65-3.8v-4.116z"/><path id="D" d="M14.922 42.738l6.695-3.804v7.912l-6.695 3.804z"/><path id="E" d="M22.955 34.94v1.545l4.99-2.852v-1.545z"/><path id="F" d="M15.969 42.75l.582-.333v.665l-.582.333z"/></defs><symbol id="G" overflow="visible"><g transform="translate(.701)"><path d="M21.471 26.565L0 14.617q.727-1.243 2.208-2.067L23.818.409q2.94-1.137 6.681.887z" fill="url(#A)" class="B"/></g><g transform="translate(0 14.617)"><path d="M22.172 11.948L.701 0Q0 1.199 0 2.789v58.277q.26 3.103 4 4.317z" fill="url(#A)" class="B"/></g><path d="M32 61.653q0 3.238-2.909 4.856L5.818 79.46q-2.909 1.619-2.909-1.619V19.564q0-3.238 2.909-4.856l23.273-12.95Q32 .139 32 3.376z" fill="#e3e3e3" class="B"/><path d="M30.551 59.675q0 2.943-2.5 4.414L8.052 75.861q-2.5 1.471-2.5-1.472V21.417q0-2.943 2.5-4.414L28.051 5.231q2.5-1.471 2.5 1.471z" fill="#263238" class="B"/><g class="B"><g fill="#90a4ae"><use xlink:href="#C"/><use xlink:href="#C" x="14.249" y="-7.916"/></g><g fill="#c5d1d5"><use xlink:href="#D"/><use xlink:href="#D" x="-7.125" y="4.116"/><use xlink:href="#D" x="7.124" y="-4.117"/></g><g fill="#90a4ae"><use xlink:href="#C" y="13.299"/><use xlink:href="#C" x="7.124" y="9.341"/><use xlink:href="#C" x="14.249" y="5.383"/><use xlink:href="#C" y="18.049"/><use xlink:href="#C" x="7.124" y="14.091"/><use xlink:href="#C" x="14.249" y="10.133"/><use xlink:href="#C" y="22.799"/><use xlink:href="#C" x="7.124" y="18.841"/><use xlink:href="#C" x="14.249" y="14.882"/><path d="M7.843 69.49v4.116l6.65-3.8V65.69z"/><use xlink:href="#C" x="7.124" y="23.59"/><use xlink:href="#C" x="14.249" y="19.632"/></g><path d="M7.797 27.278v-7.984L28.756 7.317v7.984 4.99 7.984L7.797 40.253v-7.984z" fill="url(#B)"/><use xlink:href="#E" class="D"/><use xlink:href="#D" y="-4.741" fill="#c5d1d5"/><g class="D"><use xlink:href="#F"/><use xlink:href="#F" x="0.582" y="-0.332"/><use xlink:href="#F" y="0.666"/><use xlink:href="#F" x="0.582" y="0.333"/><use xlink:href="#F" y="1.331"/><use xlink:href="#F" x="0.582" y="0.998"/><use xlink:href="#F" y="1.996"/><use xlink:href="#F" x="0.582" y="1.664"/><use xlink:href="#F" y="-0.665"/><use xlink:href="#F" x="0.582" y="-0.998"/><use xlink:href="#F" x="3.859" y="-1.996"/><use xlink:href="#F" x="4.441" y="-2.329"/><use xlink:href="#F" x="3.859" y="-1.33"/><use xlink:href="#F" x="4.441" y="-1.663"/><use xlink:href="#F" x="3.859" y="-0.665"/><use xlink:href="#F" x="4.441" y="-0.998"/><use xlink:href="#F" x="3.859"/><use xlink:href="#F" x="4.441" y="-0.332"/><use xlink:href="#F" x="3.859" y="-2.661"/><use xlink:href="#F" x="4.441" y="-2.994"/></g><g fill="#43a047"><path d="M13.479 49.044v-1.546l-4.996 2.855v1.546z"/><path d="M9.914 49.628l-1.427.811v-1.687l1.427-.811zm3.565-2.031l-1.427.811v-1.687l1.427-.811z"/></g><g fill="#e53935"><path d="M22.955 40.532v1.546l4.996-2.855v-1.546z"/><path d="M26.52 39.947l1.427-.811v1.687l-1.427.811zm-3.565 2.031l1.427-.811v1.687l-1.427.811z"/></g><g class="D"><use xlink:href="#E" x="-14.472" y="7.984"/><use xlink:href="#E" y="12.974"/><use xlink:href="#E" y="17.965"/><use xlink:href="#E" y="22.456"/><use xlink:href="#E" y="27.446"/><use xlink:href="#E" x="-6.986" y="16.967"/><use xlink:href="#E" x="-6.986" y="21.957"/><use xlink:href="#E" x="-6.986" y="26.448"/><use xlink:href="#E" x="-6.986" y="31.438"/><use xlink:href="#E" x="-14.472" y="20.959"/><use xlink:href="#E" x="-14.472" y="25.949"/><use xlink:href="#E" x="-14.472" y="30.44"/><use xlink:href="#E" x="-14.472" y="35.43"/><use xlink:href="#E" x="-6.986" y="12.226"/><path d="M15.969 38.932v1.545l4.99-2.852V36.08z"/></g></g></symbol></svg>