<svg xmlns="http://www.w3.org/2000/svg" xmlns:xlink="http://www.w3.org/1999/xlink" viewBox="0 0 61 81" fill="#fff" fill-rule="evenodd" stroke="#000" stroke-linecap="round" stroke-linejoin="round"><use xlink:href="#E" x=".5" y=".5"/><defs><linearGradient id="A" x1="0%" y1="0%" x2="100%" y2="100%"><stop offset="0%" stop-color="#fff"/><stop offset="100%" stop-color="#7f7f7f"/></linearGradient><linearGradient id="B" x1="0%" y1="0%" x2="100%" y2="100%"><stop offset="0%" stop-color="#0af"/><stop offset="100%" stop-color="#00387f"/></linearGradient><path id="C" d="M11.842 26.062q-.484.259-.056.631.517.41 1.07.111.379-.261.08-.558-.499-.437-1.094-.184z"/><path id="D" d="M36.531 33.832v1.665l6.776-3.746v-1.665z"/></defs><symbol id="E" overflow="visible"><g stroke="none"><path d="M43.601 48.734l9.125 5.085 4.563-2.543-9.125-5.085z" fill="#e0e0e0"/><path d="M43.601 48.734v1.271l9.125 5.085 4.563-2.543v-1.271l-4.563 2.543z" fill="#838383"/><path d="M52.581 51.468l.548-.317v-35.78l-.438.211z" fill="#e0e0e0"/><g fill="#7f7f7f"><path d="M47.95 11.39q-.509-.122-.516.26v22.952q.07.414.37.656l4.037 2.199.469.253q.464.139.443-.241V14.394q0-.401-.34-.638l-4.387-2.326-.076-.04q0 0-.001 0z"/><path d="M47.95 25.112q-.509-.122-.516.26v22.952q.07.414.37.656l4.037 2.199.469.253q.464.139.443-.241V28.116q0-.401-.34-.638l-4.387-2.326-.076-.04q0 0-.001 0z"/></g><path d="M8.249 73.16l9.82 5.472 4.91-2.736-9.82-5.472z" fill="#e0e0e0"/><path d="M8.249 73.16v1.368L18.069 80l4.91-2.736v-1.368l-4.91 2.736z" fill="#838383"/><path d="M17.912 76.102l.589-.341V37.257l-.471.227z" fill="#e0e0e0"/><g fill="#7f7f7f"><path d="M12.929 32.973q-.548-.132-.556.28v24.7q.075.446.399.706l4.344 2.366.504.272q.499.149.477-.259V36.206q0-.431-.366-.687l-4.721-2.503-.081-.043q0 0-.001 0z"/><path d="M12.929 47.739q-.548-.132-.556.28v24.7q.075.446.399.706l4.344 2.366.504.272q.499.149.477-.259V50.972q0-.431-.366-.687l-4.721-2.503-.081-.043q0 0-.001 0z"/></g><path d="M3.005 25.615l9.074 15.447 44.868-24.704c3.624-1.249 3.27-6.361 2.681-8.405-.943-2.499-2.475-5.225-5.539-6.815-2.71-1.59-4.949-1.249-5.656-.568z" fill="url(#A)"/><path d="M7.145 26.464Q.795 23.496.033 30.249-.475 38.132 6.804 41.49q5.591 1.924 6.522-3.043.931-7.884-6.181-11.983z" fill="#7f7f7f"/><path d="M19.444 30.159v5.324l37.322-20.632.004-5.251z" fill="#3b4950"/><path d="M20.622 31.635l33.703-18.571c2.239.454 4.007 1.931 4.124 3.464l.059 19.991L24.805 55.09l.118-19.991c-.412-2.442-3.005-3.351-4.301-3.464z" fill="#eceff1"/><path d="M9.471 26.262v.716l3.9-2.148v-.716h-3.9z" fill="url(#A)"/><path d="M9.471 26.978l-2.99-1.647v-.716h2.99v1.647z" fill="#7f7f7f"/><path d="M9.471 26.262l3.9-2.148-2.99-1.647-3.9 2.148z" fill="#eceff1"/><path d="M9.531 25.956l3.21-1.768-2.461-1.356L7.07 24.6z" fill="url(#B)" fill-opacity=".95"/><g fill="#cc584c"><use xlink:href="#C"/><use xlink:href="#C" x="1.414" y="-0.796"/></g><use xlink:href="#C" x="-1.414" y="0.83" fill="#96e652"/><path d="M36.531 29.42v1.477l4.949-2.726v-1.477z" fill="#51646e"/><path d="M27.693 34.013l7.66-4.195v8.725l-7.66 4.195zm21.211-7.59l3.653-2.001v4.161l-3.653 2.001z" fill="#c5d1d5"/><path d="M53.618 24.167l3.653-2.016v1.477l-3.653 2.016zm0 2.271l3.653-2.016v1.477l-3.653 2.016z" fill="#788f9b"/><g fill="#3b4950"><use xlink:href="#D"/><use xlink:href="#D" x="4.713" y="-2.612"/><use xlink:href="#D" y="-2.271"/><use xlink:href="#D" x="4.713" y="-4.884"/><use xlink:href="#D" y="2.06"/><use xlink:href="#D" x="4.713" y="-0.552"/></g></g></symbol></svg>