<svg xmlns="http://www.w3.org/2000/svg" xmlns:xlink="http://www.w3.org/1999/xlink" viewBox="0 0 76 82" fill="#fff" fill-rule="evenodd" stroke="#000" stroke-linecap="round" stroke-linejoin="round"><use xlink:href="#A" x=".5" y=".5"/><symbol id="A" overflow="visible"><g stroke="none"><path d="M0 63.923L28.125 80l14.063-8.038-28.125-16.077L0 63.923" fill="#e3e3e3"/><path d="M45.937 74.105q.938.536.938-.536V59.636q0-1.072-.937-1.608L10.313 37.665q-.937-.536-.937.536v13.933q0 1.072.938 1.608z" fill="#cfd8dc"/><path d="M46.607 74.239q.268-.134.268-.67V59.636q0-.536-.234-.938l28.092-16.077q.268.402.268.938v13.933q0 .542-.239.673L46.607 74.239" fill="#607d8b"/><path d="M9.643 37.531L37.74 21.452q.234-.128.698.137l35.625 20.364q.435.268.67.67L46.641 58.699q-.234-.402-.703-.67L10.313 37.665q-.402-.268-.67-.134" fill="#eceff1"/><path d="M42.187 71.961L14.062 55.885v-5.359l28.125 16.077z" fill="#607d8b"/><path d="M14.063 51.866L0 59.904v4.019l14.063-8.038z" fill="#b0bec5"/><path d="M28.125 80L0 63.923v-4.019l28.125 16.077V80" fill="#cfd8dc"/><path d="M32.813 34.45l18.75 10.718L37.5 53.206 18.75 42.488zm9.375 33.493l-14.062 8.038V80l14.063-8.038z" fill="#b0bec5"/><path d="M47.812.153q-.864-.494-1.16.606l-4.465 22.973 28.125 16.077 4.42-23.043q.268-1.072-.67-1.608zm10.279 27.502l-1.875-1.072 2.846-14.641 1.875 1.072z" fill="#607d8b"/><path d="M42.589 60.574l2.143 1.206v-1.34l-2.143-1.206z"/></g></symbol></svg>