<svg xmlns="http://www.w3.org/2000/svg" xmlns:xlink="http://www.w3.org/1999/xlink" viewBox="0 0 81 61" fill="#fff" fill-rule="evenodd" stroke="#000" stroke-linecap="round" stroke-linejoin="round"><use xlink:href="#B" x=".5" y=".5"/><defs><linearGradient id="A" x1="100%" y1="61%" x2="0%" y2="39%"><stop offset="0%" stop-color="#91aaba"/><stop offset="100%" stop-color="#445c6c"/></linearGradient></defs><symbol id="B" overflow="visible"><g stroke="none"><path d="M79.521 21.836L40 0 .24 22.069l39.521 21.836z" fill="#cfd8dc"/><path d="M80 37.632L39.761 59.933V43.905l39.76-22.069q.479.232.479.697z" fill="#b0bec5"/><path d="M40.239 59.005v-14.17q-.24-1.394-1.437-2.091L1.198 22.069Q0 21.604 0 22.766v15.1q0 .697 1.198 1.394l37.605 20.582q1.437.558 1.437-.836z" fill="#eceff1"/><path d="M43.75 12.851L30.5 5.334C27 3.879 23.75 2.91 19.202 5.265c-4.286 2.771-6.024 5.877-7.452 10.495l13.5 7.274c0-5.334 2.607-8.128 4.75-10.668 4.762-3.002 9.095-.404 13.75.485z" fill="url(#A)"/><path d="M25.25 23.034l18.5-10.184c-4-2.425-6.75-3.394-10.25-2.425-4.25 1.455-5.25 3.637-7 6.789-.75 1.94-1 1.697-1.25 5.819z" fill="#b0bec5"/></g></symbol></svg>