<svg xmlns="http://www.w3.org/2000/svg" xmlns:xlink="http://www.w3.org/1999/xlink" viewBox="0 0 81 76" fill="#fff" fill-rule="evenodd" stroke="#000" stroke-linecap="round" stroke-linejoin="round"><use xlink:href="#D" x=".5" y=".5"/><defs><linearGradient id="A" x1="0%" y1="94%" x2="100%" y2="6%"><stop offset="0%" stop-color="#90a4ae"/><stop offset="100%" stop-color="#b0bec5"/></linearGradient><linearGradient id="B" x1="100%" y1="61%" x2="0%" y2="39%"><stop offset="0%" stop-color="#91aaba"/><stop offset="100%" stop-color="#445c6c"/></linearGradient><path id="C" d="M47.373 8.892l-1.935 1.117-.343 37.63c.015.201.173.393.403.507.299.138.648.156.908.052.133-.04.242-.103.392-.208.102-.077.219-.252.226-.366z"/></defs><symbol id="D" overflow="visible"><g fill="#343434" stroke="none"><use xlink:href="#C"/><use xlink:href="#C" x="-34.572" y="15.177"/><use xlink:href="#C" x="-10.361" y="26.735"/><use xlink:href="#C" x="21.217" y="12.025"/></g><path d="M.016 26.314l32.928 19.471-.001 1.921L.015 28.784z" fill="#eceff1" stroke="none"/><path d="M79.912 22.191v-2.195L36.25 45.749l.293 1.97z" fill="#7c94a0" stroke="none"/><path d="M36.53 45.509c0 .274-.824.548-1.648.822-.961 0-.549-.274-1.923-.548v1.919c.824.274.549.548 1.923.548.824 0 1.099-.274 1.648-.548z" fill="url(#A)" stroke="none"/><path d="M79.102 18.916c1.923 1.097.137 1.919.275 1.919L36.53 45.783c-.549.274-1.099.548-1.648.548-1.099 0-1.648-.274-2.197-.548L.824 27.415C0 26.867 0 26.867 0 26.318c0-.274.275-.548.824-.822L43.671.548C44.22.274 44.358 0 45.044 0s.549 0 1.373.274z" fill="#91aaba" stroke="none"/><path d="M58.337 15.936L42.096 6.7l-16.34 9.334 16.242 9.236z" fill="#cfd8dc" stroke="none"/><path d="M58.534 22.617l-16.537 9.432V25.27l16.34-9.334q.197.098.197.295z" fill="#b0bec5" stroke="none"/><path d="M42.195 31.656v-5.993q-.099-.589-.591-.884L26.15 16.034q-.492-.196-.492.295v6.386q0 .295.492.59l15.454 8.705q.591.236.591-.354z" fill="#eceff1" stroke="none"/><path d="M43.637 12.136l-5.445-3.179c-1.438-.615-2.774-1.025-4.643-.029-1.761 1.172-2.476 2.486-3.063 4.439l5.548 3.076c0-2.256 1.072-3.438 1.952-4.512 1.957-1.27 3.738-.171 5.651.205z" fill="url(#B)" stroke="none"/><path d="M36.034 16.443l7.603-4.307c-1.644-1.025-2.774-1.436-4.212-1.025-1.747.615-2.157 1.538-2.877 2.871-.308.82-.411.718-.514 2.461z" fill="#b0bec5" stroke="none"/></symbol></svg>