<svg xmlns="http://www.w3.org/2000/svg" xmlns:xlink="http://www.w3.org/1999/xlink" viewBox="0 0 42 82" fill="#fff" fill-rule="evenodd" stroke="#000" stroke-linecap="round" stroke-linejoin="round"><use xlink:href="#A" x=".5" y=".5"/><symbol id="A" overflow="visible"><g stroke="none"><path d="M19.365 2.205l.269 73.922c-.006.072-.063.141-.146.18-.108.048-.234.053-.328.015-.048-.015-.087-.038-.141-.076-.037-.028-.078-.091-.081-.132l-.26-73.911.686.002z" fill="#343434"/><path d="M19.237 2.257q.215-.138.003-.294-.254-.171-.498-.011-.166.135-.017.262.246.184.512.044z" fill="#cfd8dc"/><path d="M.975 71.451l36.111-20.623c.478-.223.976-.061 1.537.304.706.486 1.205 1.236 1.308 1.945.083.344.083.669.042 1.134-.042.324-.249.689-.498.851L3.239 75.725.975 71.451z" fill="#343434"/><g fill="#cfd8dc"><use xlink:href="#C"/><path d="M2.908 71.215V22.757l.204-.04.005 48.62z"/></g><path d="M37.409 52.202l.046-49.019L3.112 22.737l.005 48.6z" fill="#eceff1"/><path d="M.567 20.725L36.678.102c.478-.223.976-.061 1.537.304.706.486 1.205 1.236 1.308 1.945.083.344.083.669.042 1.134-.042.324-.249.689-.498.851L2.831 24.999.567 20.725z" fill="#343434"/><use xlink:href="#C" x="-0.408" y="-50.726" fill="#cfd8dc"/><g fill="#343434"><path d="M18.926 72.81l.032.363 5.652 2.63c.031.012.072.001.105-.025.042-.035.069-.085.072-.131.003-.022.002-.043-.004-.072-.004-.02-.022-.05-.039-.058z"/><path d="M19.101 72.886l-.083.311-5.298 1.429c-.029.005-.062-.01-.087-.038-.031-.037-.047-.085-.042-.125.001-.02.005-.038.014-.062.007-.017.027-.04.043-.045z"/><path d="M19.195 72.69l.144.539-6.719 6.74c-.039.033-.102.039-.163.019-.078-.028-.144-.086-.172-.151-.016-.03-.025-.061-.033-.106-.004-.032.006-.083.025-.105z"/></g></g></symbol><defs ><path id="C" d="M2.254 71.574q-1.64-.803-1.837 1.024-.131 2.133 1.749 3.042 1.444.521 1.685-.823.241-2.133-1.597-3.243z"/></defs></svg>