<svg xmlns="http://www.w3.org/2000/svg" xmlns:xlink="http://www.w3.org/1999/xlink" viewBox="0 0 42 82" fill="#fff" fill-rule="evenodd" stroke="#000" stroke-linecap="round" stroke-linejoin="round"><use xlink:href="#E" x=".5" y=".5"/><defs><linearGradient id="A" x1="0%" y1="0%" x2="100%" y2="100%"><stop offset="0%" stop-color="#fff"/><stop offset="100%" stop-color="#7f7f7f"/></linearGradient><linearGradient id="B" x1="0%" y1="0%" x2="100%" y2="100%"><stop offset="0%" stop-color="gray"/><stop offset="100%"/></linearGradient><path id="C" d="M2.254 71.574q-1.64-.803-1.837 1.024-.131 2.133 1.749 3.042 1.444.521 1.685-.823.241-2.133-1.597-3.243z"/><path id="D" d="M18.992 27.988v3.998l16.081-8.996v-3.998z"/></defs><symbol id="E" overflow="visible"><g stroke="none"><path d="M19.365 2.205l.269 73.922c-.006.072-.063.141-.146.181a.43.43 0 0 1-.328.015c-.048-.015-.087-.038-.141-.076-.037-.028-.078-.091-.081-.132l-.26-73.911.686.002z" fill="#343434"/><path d="M19.237 2.456q.215-.138.003-.294-.254-.171-.498-.011-.166.135-.017.262.246.184.512.044z" fill="#cfd8dc"/><path d="M.975 71.451l36.111-20.623c.478-.223.976-.061 1.537.304.706.486 1.205 1.236 1.308 1.945.083.344.083.669.042 1.134-.042.324-.249.689-.498.851L3.239 75.725.975 71.451z" fill="#343434"/><g fill="#cfd8dc"><use xlink:href="#C"/><path d="M2.908 71.215V22.757l.204-.04.005 48.62z"/></g><path d="M37.41 52.202l.046-49.019L3.112 22.737l.005 48.6z" fill="#eceff1"/><path d="M.567 20.725L36.678.102c.478-.223.976-.061 1.537.304.706.486 1.205 1.236 1.308 1.945.083.344.083.669.042 1.134-.042.324-.249.689-.498.851L2.831 24.999.567 20.725z" fill="#343434"/><use xlink:href="#C" x="-0.408" y="-50.726" fill="#cfd8dc"/><g fill="#343434"><path d="M18.926 72.81l.032.363 5.652 2.63c.032.012.072.001.105-.025.042-.035.069-.085.072-.131.003-.022.002-.043-.004-.072-.004-.02-.023-.05-.039-.059z"/><path d="M19.101 72.886l-.083.311-5.298 1.429c-.029.005-.062-.01-.087-.038-.031-.037-.047-.085-.042-.125.001-.02.005-.038.014-.062.007-.017.027-.04.043-.045z"/><path d="M19.195 72.69l.144.539-6.719 6.74c-.039.033-.102.039-.163.019-.078-.028-.144-.086-.172-.151-.017-.03-.025-.061-.033-.106-.004-.032.006-.083.026-.105z"/></g><path d="M18.992 20.792v5.198l8.608-4.798v-5.198z" fill="#90a4ae"/><use xlink:href="#D" fill="#3b4950"/><g fill="#cfd8dc"><use xlink:href="#D" y="25.99"/><use xlink:href="#D" x="-13.323" y="33.487"/><use xlink:href="#D" y="19.992"/><use xlink:href="#D" x="-13.323" y="27.489"/><use xlink:href="#D" y="13.995"/><use xlink:href="#D" x="-13.323" y="21.492"/><use xlink:href="#D" y="7.997"/><use xlink:href="#D" x="-13.323" y="15.494"/></g><path d="M5.669 27.24l11.273-6.248v12.995L5.669 40.234z" fill="url(#A)"/></g><g transform="translate(7.499 31.237)"><path d="M4.622 0c2.067.106 2.541.456 2.797.675.395.338 1.374 2.456.848 2.668L1.245 7.247C-.713 8.096.143 4.564.469 3.184.85 2.07.979 1.814 2.645.531z" fill="url(#B)" stroke="none"/></g><g stroke="none"><path d="M12.198 31.139c.473-.132.609-.396.812-.924.135-.396.135-.462.203-.726.153-.729.138-1.055.135-1.056.058-1.27-.355-2.798-2.225-2.798s-2.245 1.435-2.185 2.706c.237 1.5.412 1.701.464 1.781.111.173.335.548.666.785l.006 1.206c.578.682 1.524.66 2.102 0z" fill="#f6d1af"/><path d="M10.061 30.907v.112s.817.351 1.46.417c.609 0 .676-.198.676-.198v-.099c-.338.132-.442.094-.71.099a6.19 6.19 0 0 1-1.426-.33z" fill="#000" fill-opacity=".2"/><path d="M10.488 27.417c-.326.053-.218.212-.22.537l.003.816c0 .239-.054.239-.185.251-.091 0-.182-.089-.182-.178-.095-.524-.204-.709-.365-.711-.139-.025-.385.054-.329.532.082.425.163.265.218.769.027.265.082.504 0 .743-.816-.982-.813-1.72-.898-2.547-.054-.902.054-1.22.189-1.542.365-.445.407-.527.954-.527.182-.445.923-.415 1.578-.425 1.003 0 1.306.425 1.753.863.315.411.315.464.369 1.631-.43.278-.653-.159-1.414-.318-.381-.159-.979-.053-1.469.106z" fill="#343434"/></g></symbol></svg>