<svg xmlns="http://www.w3.org/2000/svg" xmlns:xlink="http://www.w3.org/1999/xlink" viewBox="0 0 81 61" fill="#fff" fill-rule="evenodd" stroke="#000" stroke-linecap="round" stroke-linejoin="round"><use xlink:href="#B" x=".5" y=".5"/><defs><linearGradient id="A" x1="17%" y1="100%" x2="83%" y2="0%"><stop offset="0%" stop-color="#fbd984"/><stop offset="100%" stop-color="#ffdf99"/></linearGradient></defs><symbol id="B" overflow="visible"><g stroke="none"><path d="M79.521 21.836L40 0 .24 22.069l39.521 21.836z" fill="#cfd8dc"/><path d="M80 37.632L39.761 59.933V43.905l39.76-22.068q.479.232.479.697z" fill="#b0bec5"/><path d="M40.239 59.005v-14.17q-.24-1.394-1.437-2.091L1.198 22.069Q0 21.604 0 22.766v15.1q0 .697 1.198 1.394l37.605 20.582q1.437.557 1.437-.836z" fill="#eceff1"/><path d="M34.866 51.949q1.6.779 1.792-.993.128-2.069-1.706-2.951-1.409-.505-1.643.799-.235 2.069 1.557 3.145z" fill="#f1786b"/><path d="M7.619 31.321l-5.714-3.149v6.55l5.714 3.149z" fill="#788d9a"/><path d="M7.143 31.581l-4.762-2.624v5.458l4.762 2.624z" fill="url(#A)"/><g fill="#445c6c"><path d="M14.286 24.94l12.143-6.466c4.048-.924 5.714-.462 8.81 1.386 4.286 2.771 5.714 5.542 7.143 10.16l-13.095 7.62c-1.429-4.849-2.381-6.928-4.524-9.468-4.762-3.002-5.714-3.695-10.476-3.233z"/><path d="M19.906 46.298q8.548 4.161 9.574-5.306.684-11.054-9.114-15.762-7.526-2.698-8.779 4.266-1.254 11.054 8.32 16.802z"/></g><path d="M19.955 44.793q7.234 3.522 8.102-4.491.579-9.355-7.713-13.34-6.369-2.283-7.43 3.611-1.061 9.355 7.042 14.22z" fill="#788d9a"/><path d="M20.027 43.585q6.038 2.939 6.762-3.748.483-7.808-6.438-11.133-5.316-1.905-6.201 3.013-.886 7.808 5.877 11.868z" fill="#eff3f5"/><path d="M19.894 42.021q4.701 2.289 5.265-2.918.376-6.08-5.013-8.669-4.139-1.484-4.829 2.347-.69 6.079 4.576 9.241z" fill="#2e89ac"/><path d="M19.49 32.789q-.056-2.09-1.553-1.798-1.707.453-1.633 2.845.194 1.787 1.334 1.682 1.752-.328 1.852-2.728z" fill="#96c4d5"/></g></symbol></svg>