<svg xmlns="http://www.w3.org/2000/svg" xmlns:xlink="http://www.w3.org/1999/xlink" viewBox="0 0 81 62" fill="#fff" fill-rule="evenodd" stroke="#000" stroke-linecap="round" stroke-linejoin="round"><use xlink:href="#E" x=".5" y=".5"/><defs><linearGradient id="A" x1="28%" y1="100%" x2="72%" y2="0%"><stop offset="0%" stop-color="#0af"/><stop offset="100%" stop-color="#00387f"/></linearGradient><linearGradient id="B" x1="100%" y1="11%" x2="0%" y2="89%"><stop offset="0%" stop-color="#0af"/><stop offset="100%" stop-color="#00387f"/></linearGradient><linearGradient id="C" x1="0%" y1="11%" x2="100%" y2="89%"><stop offset="0%" stop-color="#0af"/><stop offset="100%" stop-color="#00387f"/></linearGradient><linearGradient id="D" x1="0%" y1="0%" x2="100%" y2="100%"><stop offset="0%" stop-color="#0af"/><stop offset="100%" stop-color="#00387f"/></linearGradient></defs><symbol id="E" overflow="visible"><g stroke="none"><path d="M23.553 49.884c-.199.589.248 1.179.497 1.179.199.196.895.098 1.292-.196l13.119-32.902v41.053c0 .589.497.982.994.982s.994-.393.994-.982V17.964l13.119 32.607a1.14 1.14 0 0 0 1.193.589c.497-.196.696-.589.596-1.179L40.25 12.268c-.199-.393-.497-.393-.795-.393-.398 0-.497 0-.795.393z" fill="url(#A)"/><g fill="url(#B)"><path d="M38.461 43.357v2.306l-9.343-4.411c-.696-.401-.596-1.003-.497-1.303.298-.501.596-.602 1.193-.501z"/><path d="M38.461 35.035v2.206l-6.659-3.309c-.663-.502-.497-1.103-.398-1.303.199-.401.497-.702 1.093-.602z"/><path d="M38.461 26.112v2.206l-3.876-1.704c-.596-.301-.596-.902-.398-1.303s.497-.602 1.093-.501z"/></g><g fill="url(#C)"><path d="M40.478 43.483v2.306l9.343-4.411c.696-.401.596-1.003.497-1.303-.298-.501-.596-.602-1.193-.501z"/><path d="M40.452 35.061v2.206l6.659-3.309c.663-.502.497-1.103.398-1.303-.199-.401-.497-.702-1.093-.602z"/><path d="M40.439 26.138v2.206l3.876-1.704c.596-.301.596-.902.398-1.303s-.497-.602-1.093-.501z"/></g><ellipse cx="39.455" cy="11.876" fill="url(#D)" rx="5.963" ry="6.016"/><ellipse cx="44.03" cy="10.484" rx=".511" ry=".516"/><g fill="url(#D)"><path d="M50.855 6.487c-.991-.2-1.289.5-1.289 1s.198.6.496.9C51.846 9.2 52.441 9.7 52.837 11c.099.4 0 1.787-1.784 2.787-.297.2-.793.8-.297 1.5.397.3.496.6 1.487.2 1.388-1 2.28-1.5 2.677-3.6-.099-2.1-1.19-3-1.784-3.6-.694-.7-1.388-1.2-2.28-1.8z"/><path d="M60.174 3.486c-.694-.3-1.19 0-1.487.8.198 1.2 1.13 1.14 1.685 1.7 2.961 2.054 3.965 2.9 4.957 5.4.198 1.3.297 3-3.371 6-.595.5-1.586.8-1.09 1.9.595.7 1.09.5 1.487.3 2.082-1.5 4.362-3.5 4.957-6.3.595-3-1.665-5.58-2.776-6.7-1.289-1.2-2.696-1.98-4.362-3.1z"/><path d="M69.311.256c-1.025-.443-1.757 0-2.197 1.182.293 1.773 1.669 1.684 2.49 2.511 4.375 3.034 5.858 4.284 7.323 7.978.293 1.921.439 4.432-4.979 8.864-.879.739-2.343 1.182-1.611 2.807.879 1.034 1.611.739 2.197.443 3.075-2.216 6.444-5.171 7.323-9.307.879-4.432-2.46-8.243-4.101-9.898-1.904-1.773-3.983-2.925-6.444-4.58z"/><path d="M29.145 6.4c.991-.2 1.289.5 1.289 1s-.198.6-.496.9c-1.09.5-2.478 1.2-2.875 2.5-.099.4-.099 1.8 1.884 2.9.397.2.793.8.297 1.5-.397.3-.595.5-1.586.1-1.388-1-2.181-1.4-2.577-3.5.099-2.1 1.19-3 1.784-3.6.694-.7 1.388-1.2 2.28-1.8z"/><path d="M19.827 3.4c.694-.3 1.19 0 1.487.8-.198 1.2-1.13 1.14-1.685 1.7-2.961 2.054-3.965 2.9-4.957 5.4-.198 1.3-.297 3 3.371 6 .595.5 1.586.8 1.09 1.9-.595.7-1.09.5-1.487.3-2.082-1.5-4.362-3.5-4.957-6.3-.595-3 1.665-5.58 2.776-6.7 1.289-1.2 2.696-1.98 4.362-3.1z"/><path d="M10.689.169c1.025-.443 1.757 0 2.197 1.182-.293 1.773-1.669 1.684-2.49 2.511-4.375 3.034-5.858 4.284-7.323 7.978-.293 1.921-.439 4.432 4.979 8.864.879.739 2.343 1.182 1.611 2.807-.879 1.034-1.611.739-2.197.443-3.075-2.216-6.444-5.171-7.323-9.307-.879-4.432 2.46-8.243 4.101-9.898 1.904-1.773 3.983-2.925 6.444-4.58z"/></g><path d="M42.933 14.927c-.238.23-.41.189-.552.069-.107-.09-.05-.341.069-.483.959-1.041 1.028-1.179 1.282-2.517.039-.35.04-.564.307-.521.232.013.288.192.263.538-.271 1.596-.479 1.942-1.369 2.914z"/></g></symbol></svg>