<svg xmlns="http://www.w3.org/2000/svg" xmlns:xlink="http://www.w3.org/1999/xlink" viewBox="0 0 61 81" fill="#fff" fill-rule="evenodd" stroke="#000" stroke-linecap="round" stroke-linejoin="round"><style><![CDATA[.B{stroke:none}.C{fill:#000}.D{fill:#eceff1}.E{fill:url(#A)}.F{stroke-opacity:.34}.G{fill:#ffee58}.H{fill:#d9ff66}.I{fill:#4caf50}]]></style><use xlink:href="#C" x=".5" y=".5"/><defs><linearGradient id="A" x1="0%" y1="50%" x2="100%" y2="50%"><stop offset="0%" stop-color="#90a4ae"/><stop offset="100%" stop-color="#b0bec5"/></linearGradient><path id="B" d="M7.059 67.43c5.142 3.383 12.674 5.604 21.176 5.875"/></defs><symbol id="C" overflow="visible"><ellipse cx="30" cy="50" rx="30" ry="16.667" class="B D"/><g transform="translate(0 50)"><path d="M0 0v13.333C0 22.567 13.38 30 30 30s30-7.433 30-16.667V0c0 9.233-13.38 16.667-30 16.667S0 9.233 0 0z" class="B E"/></g><use xlink:href="#B" fill="none" class="F"/><g class="B"><ellipse cx="37.362" cy="73.34" rx="2.068" ry="1.993" class="G"/><ellipse cx="44.52" cy="71.326" rx="2.068" ry="1.993" class="H"/><ellipse cx="51.579" cy="68.66" rx="2.068" ry="1.993" class="I"/><ellipse cx="30" cy="33.334" rx="30" ry="16.667" class="D"/></g><g transform="translate(0 33.333)"><path d="M0 0v13.333C0 22.567 13.38 30 30 30s30-7.433 30-16.667V0c0 9.233-13.38 16.667-30 16.667S0 9.233 0 0z" class="B E"/></g><use xlink:href="#B" y="-16.667" fill="none" class="F"/><g class="B"><ellipse cx="37.362" cy="56.673" rx="2.068" ry="1.993" class="G"/><ellipse cx="44.52" cy="54.66" rx="2.068" ry="1.993" class="H"/><ellipse cx="51.579" cy="51.993" rx="2.068" ry="1.993" class="I"/><ellipse cx="30" cy="16.667" rx="30" ry="16.667" class="D"/></g><g transform="translate(0 16.667)"><path d="M0 0v13.333C0 22.567 13.38 30 30 30s30-7.433 30-16.667V0c0 9.233-13.38 16.667-30 16.667S0 9.233 0 0z" class="B E"/></g><use xlink:href="#B" y="-33.334" fill="none" class="F"/><g class="B"><ellipse cx="37.362" cy="40.007" rx="2.068" ry="1.993" class="G"/><ellipse cx="44.52" cy="37.993" rx="2.068" ry="1.993" class="H"/><ellipse cx="51.579" cy="35.326" rx="2.068" ry="1.993" class="I"/><ellipse cx="30" cy="16.666" rx="26.471" ry="13.333" fill="#cfd8dc"/></g></symbol></svg>