<svg xmlns="http://www.w3.org/2000/svg" xmlns:xlink="http://www.w3.org/1999/xlink" viewBox="0 0 81 71" fill="#fff" fill-rule="evenodd" stroke="#000" stroke-linecap="round" stroke-linejoin="round"><use xlink:href="#A" x=".5" y=".5"/><symbol id="A" overflow="visible"><g stroke="none"><path d="M50.831 46.338l28.689-16.514L29.165 0 .714 16.884z" fill="#e0e0e0"/><path d="M49.998 47.57v21.937L0 39.929V17.623z" fill="#9e9e9e"/><path d="M49.998 69.507L0 39.93c.119.37 0 .37.357.616L50.355 70" fill="#757575"/><path d="M49.998 47.571L0 17.623c0-.246 0-.37.714-.739l50.236 29.454c-.714.493-.833.616-.952 1.232z" fill="#bdbdbd"/><path d="M51.903 45.722l25.594-15.158c1.786-1.109 2.5-1.109 2.5.739v19.718c0 1.109.119 1.725-1.19 2.465l-27.38 16.144c-.952.616-1.548.493-1.429-.863V48.31c0-1.232-.238-1.479 1.905-2.588z" fill="#eee"/><g fill="#546e7a"><use xlink:href="#C"/><use xlink:href="#C" x="7.474" y="4.539"/><use xlink:href="#C" x="14.948" y="9.079"/></g><g fill="#bdbdbd"><path d="M38.815 10.108l-1.147-.685-1.084.34-.372-.222 4.205-1.264.316.189-2.113 2.515-.37-.221.566-.65zm-.697-.824l.93.556 1.012-1.162-1.942.606z"/><use xlink:href="#D"/><path d="M33.05 6.267l-1.237.739-.361-.216 3.16-1.889 1.009.603c.299.179.446.372.439.579s-.155.397-.446.571c-.307.183-.626.275-.958.275s-.652-.093-.962-.278l-.645-.385zm.341-.204l.648.388a1.14 1.14 0 0 0 .601.171 1.19 1.19 0 0 0 .61-.18c.188-.113.288-.233.298-.362s-.072-.248-.247-.358l-.669-.4-1.241.742z"/><use xlink:href="#E"/><path d="M43.423 10.41l-.88-.526-2.819 1.685-.359-.215 2.819-1.685-.878-.525.341-.204 2.116 1.265-.341.204z"/><use xlink:href="#D" x="5.164" y="2.83"/><use xlink:href="#D" x="12.311" y="6.96"/><use xlink:href="#E" x="17.035" y="9.706"/></g><path d="M36.648 44.609l-2.139 1.295 2.098 3.718.807-.501-.565-1.003c1.19.543 2.26 2.235 2.603 2.945.383.752.908 2.423.666 3.718l1.352 1.17c.363-2.423-.565-4.533-1.09-5.535-.827-1.556-1.997-3.05-3.531-3.969l.636-.376zm1.875 15.686L40.662 59l-2.098-3.718-.807.501.565 1.003c-1.19-.543-2.26-2.235-2.603-2.945-.383-.752-.908-2.423-.666-3.718l-1.352-1.17c-.363 2.423.565 4.533 1.09 5.535.827 1.556 1.997 3.05 3.531 3.969l-.636.376z" fill="#546e7a"/></g></symbol><defs ><path id="C" d="M9.718 39.451v-4.539l-1.068-2.27-2.491-1.513-1.424 1.135v4.161z"/><path id="D" d="M31.759 5.385l-1.186-.709-1.12.669 1.378.823-.341.204-1.739-1.039 3.16-1.889 1.72 1.028-.341.204-1.359-.812-1.018.608 1.186.709-.341.204z"/><path id="E" d="M28.539 3.687l-.643-.384-1.278.764-.363-.217 3.16-1.889.906.542c.308.184.464.374.468.571s-.149.387-.459.572c-.197.118-.414.193-.652.225a1.96 1.96 0 0 1-.712-.034l-.698 1.186-.026.016-.387-.231.684-1.119zm-.302-.588l.554.331c.179.107.375.16.589.159s.41-.055.589-.162c.196-.117.295-.237.299-.359s-.089-.241-.278-.356l-.553-.33-1.2.717z"/></defs></svg>