<svg xmlns="http://www.w3.org/2000/svg" xmlns:xlink="http://www.w3.org/1999/xlink" viewBox="0 0 76 81" fill="#fff" fill-rule="evenodd" stroke="#000" stroke-linecap="round" stroke-linejoin="round"><style><![CDATA[.B{stroke:none}]]></style><use xlink:href="#C" x=".5" y=".5"/><defs><linearGradient id="A" x1="100%" y1="0%" x2="0%" y2="100%"><stop offset="0%"/><stop offset="100%" stop-color="gray"/></linearGradient><path id="B" d="M37.527 69.604v2.712l.655 1.356 1.529.904.874-.678v-2.486z"/></defs><symbol id="C" overflow="visible"><g fill="url(#A)" class="B"><path d="M69.705 20c0-1.231-.101-2.222-1.324-2.222s-1.324.991-1.324 2.222l-.882 31.111h4.412z"/><path d="M38.823 2.222C38.823.991 38.722 0 37.5 0s-1.324.991-1.324 2.222l-.882 31.111h4.412z"/></g><path d="M31.41 27.119q-1.529-.904-3.059 0L.82 43.39q-1.529.904 0 1.808l42.826 25.311q1.529.904 3.059 0l27.531-16.271q1.529-.904 0-1.808L31.41 27.119" fill="#eceff1" class="B"/><path d="M45.175 70.96q.765 0 1.529-.452l27.531-16.271q.765-.452.765-.904v9.04q0 .452-.765.904L46.704 79.548Q45.94 80 45.175 80z" fill="#78909c" class="B"/><path d="M45.175 70.96q-.792.017-1.584-.451L.765 45.198Q0 44.746 0 44.294v9.04q0 .452.765.904l42.826 25.311q.792.468 1.584.451z" fill="#b0bec5" class="B"/><path d="M3.223 48.814v6.78l3.715 2.26v-6.78z" fill="#464646" class="B"/><ellipse cx=".665" cy=".448" rx=".665" ry=".448" transform="matrix(.866025 .5 -.5 .866025 4.666385 51.191101)" class="B"/><g fill="#464646"><use xlink:href="#B" class="B"/><use xlink:href="#B" x="-4.588" y="-2.711" class="B"/><use xlink:href="#B" x="-9.177" y="-5.423" class="B"/><use xlink:href="#B" x="-13.765" y="-8.135" class="B"/><use xlink:href="#B" x="-18.354" y="-10.847" class="B"/></g><path d="M43.201 40.171l8.548-.767-1.185 5.03-2.454-1.449-7.363 4.263-2.37-1.364 7.278-4.348zm-15.841 5.34l8.548.767-1.185-5.03-2.454 1.449-7.363-4.263-2.37 1.364 7.278 4.348zm4.687 9.943l-8.548.767 1.185-5.03 2.454 1.449 7.363-4.263 2.37 1.364-7.278 4.348zm16.372-5.663l-8.548-.767 1.185 5.03 2.454-1.449 7.363 4.263 2.37-1.364-7.278-4.348z" class="B" fill="#788f9b"/></symbol></svg>