<svg xmlns="http://www.w3.org/2000/svg" xmlns:xlink="http://www.w3.org/1999/xlink" viewBox="0 0 67 82" fill="#fff" fill-rule="evenodd" stroke="#000" stroke-linecap="round" stroke-linejoin="round"><use xlink:href="#E" x=".5" y=".5"/><defs><linearGradient id="A" x1="33%" y1="100%" x2="67%" y2="0%"><stop offset="0%" stop-color="#607d8b"/><stop offset="100%" stop-color="#cfd8dc"/></linearGradient><linearGradient id="B" x1="0%" y1="17%" x2="100%" y2="83%"><stop offset="0%" stop-color="#dee6e9"/><stop offset="100%" stop-color="#c9d6db"/></linearGradient><linearGradient id="C" x1="0%" y1="28%" x2="100%" y2="72%"><stop offset="0%" stop-color="#cfd8dc"/><stop offset="100%" stop-color="#738c99"/></linearGradient><path id="D" d="M41.125 38.453l6.985-3.998.649.3-7.035 4.048z"/></defs><symbol id="E" overflow="visible"><g stroke="none"><path d="M30.676 37.743q.701-.352.785.449.056.936-.747 1.334-.617.228-.72-.361-.103-.936.682-1.422z" fill="#738c99"/><path d="M26.717 35.591q.565-.284.633.362.02.748-.603 1.076-.498.184-.581-.291-.083-.755.55-1.147z" fill="#eee"/><path d="M22.495 35.076l8.003 4.715c-.225-.375-.299-.6-.075-1.274.143-.239.374-.75 1.123-.525l-8.049-4.781c-.43-.143-.859.239-1.003.478-.477.813-.072 1.387 0 1.387z" fill="url(#A)"/><path d="M24.599 11.503v46.759q.248 1.244-.993.497L5.726 48.563q-.993-.498-1.242-1.492V.56q0-.746.993-.497l18.128 9.949q.993.497.993 1.492z" fill="#1c3e73"/><path d="M24.599 11.503v46.759q.248 1.244-.993.497L5.726 48.563q-.993-.498-1.242-1.492V.56q0-.746.993-.497l18.128 9.949q.993.497.993 1.492zM14.2 6.817l-2.99-1.711v3.422l2.99 1.711zm-3.202-1.832l-2.99-1.711v3.422l2.99 1.711zM7.797 3.153l-2.99-1.711v3.422l2.99 1.711zm6.403 7.329l-2.99-1.711v3.422l2.99 1.711zm-3.202-1.832l-2.99-1.711v3.422l2.99 1.711zM7.797 6.817l-2.99-1.711v3.422l2.99 1.711zm6.403 7.329l-2.99-1.711v3.422l2.99 1.711zm-3.202-1.832l-2.99-1.711v3.422l2.99 1.711zm-3.201-1.832l-2.99-1.711v3.422l2.99 1.711zm16.207 1.957l-2.99-1.711v3.422l2.99 1.711zm-3.202-1.832l-2.99-1.711v3.422l2.99 1.711zm-3.201-1.832l-2.99-1.711v3.422l2.99 1.711zm6.403 7.329l-2.99-1.711v3.422l2.99 1.711zm-3.202-1.832l-2.99-1.711v3.422l2.99 1.711zm-3.201-1.832l-2.99-1.711v3.422l2.99 1.711zm6.403 7.329l-2.99-1.711v3.422l2.99 1.711zm-3.202-1.832l-2.99-1.711v3.422l2.99 1.711zm-3.201-1.832l-2.99-1.711v3.422l2.99 1.711zm-3.425 2.051l-2.99-1.711v3.422l2.99 1.711zm-3.202-1.832l-2.99-1.711v3.422l2.99 1.711zM7.773 14.49l-2.99-1.711v3.422l2.99 1.711zm6.403 7.329l-2.99-1.711v3.422l2.99 1.711zm-3.202-1.832l-2.99-1.711v3.422l2.99 1.711zm-3.201-1.832l-2.99-1.711v3.422l2.99 1.711zm6.403 7.329l-2.99-1.711v3.422l2.99 1.711zm-3.202-1.832l-2.99-1.711v3.422l2.99 1.711zm-3.201-1.832l-2.99-1.711v3.422l2.99 1.711zm16.207 1.957l-2.99-1.711v3.422l2.99 1.711zm-3.202-1.832l-2.99-1.711v3.422l2.99 1.711zm-3.201-1.832l-2.99-1.711v3.422l2.99 1.711zm6.403 7.329l-2.99-1.711v3.422l2.99 1.711zm-3.202-1.832l-2.99-1.711v3.422l2.99 1.711zm-3.201-1.832l-2.99-1.711v3.422l2.99 1.711zm6.403 7.329l-2.99-1.711v3.422l2.99 1.711zm-3.202-1.832l-2.99-1.711v3.422l2.99 1.711zm-3.201-1.832l-2.99-1.711v3.422l2.99 1.711zm-3.401 1.793l-2.99-1.711v3.422l2.99 1.711zm-3.202-1.832l-2.99-1.711v3.422l2.99 1.711zm-3.201-1.832l-2.99-1.711v3.422l2.99 1.711zm6.403 7.329l-2.99-1.711v3.422l2.99 1.711zm-3.202-1.832l-2.99-1.711v3.422l2.99 1.711zm-3.201-1.832l-2.99-1.711v3.422l2.99 1.711zm6.403 7.329l-2.99-1.711v3.422l2.99 1.711zm-3.202-1.832l-2.99-1.711v3.422l2.99 1.711zm-3.201-1.832l-2.99-1.711v3.422l2.99 1.711zm16.207 1.957l-2.99-1.711v3.422l2.99 1.711zm-3.202-1.832l-2.99-1.711v3.422l2.99 1.711zm-3.201-1.832l-2.99-1.711v3.422l2.99 1.711zm6.403 7.329l-2.99-1.711v3.422l2.99 1.711zm-3.202-1.832l-2.99-1.711v3.422l2.99 1.711zm-3.201-1.832l-2.99-1.711v3.422l2.99 1.711zm6.403 7.329l-2.99-1.711v3.422l2.99 1.711zm-3.202-1.832l-2.99-1.711v3.422l2.99 1.711zm-3.201-1.832l-2.99-1.711v3.422l2.99 1.711zm-3.401 1.982l-2.99-1.711v3.422l2.99 1.711zm-3.202-1.832l-2.99-1.711v3.422l2.99 1.711zm-3.201-1.832l-2.99-1.711v3.422l2.99 1.711zm6.403 7.329l-2.99-1.711v3.422l2.99 1.711zm-3.202-1.832l-2.99-1.711v3.422l2.99 1.711zm-3.201-1.832l-2.99-1.711v3.422l2.99 1.711zm6.403 7.329l-2.99-1.711v3.422l2.99 1.711zm-3.202-1.832l-2.99-1.711v3.422l2.99 1.711zm-3.201-1.832l-2.99-1.711v3.422l2.99 1.711zm16.207 1.957l-2.99-1.711v3.422l2.99 1.711zm-3.202-1.832l-2.99-1.711v3.422l2.99 1.711zm-3.201-1.832l-2.99-1.711v3.422l2.99 1.711zm6.403 7.329l-2.99-1.711V51.5l2.99 1.711zm-3.202-1.832l-2.99-1.711v3.422l2.99 1.711zm-3.201-1.832l-2.99-1.711v3.422l2.99 1.711zm6.403 7.329l-2.99-1.711v3.422l2.99 1.711zm-3.202-1.832l-2.99-1.711v3.422l2.99 1.711zm-3.201-1.832l-2.99-1.711V51.5l2.99 1.711z" fill="#dee6e9"/><path d="M59.481 53.885L26.087 73.39c2.302-3.074 2.302-12.68.767-14.601-3.069-4.227-5.946-9.106-13.235-9.106L46.79 30.278c5.439-1.816 10.878 3.027 12.691 6.053 6.043 10.29.906 17.553 0 17.553z" fill="url(#B)"/><path d="M19.954 50.776q-9.52-4.282-9.934 5.686-.709 11.845 9.457 16.89 7.809 2.891 9.11-4.572 1.301-11.845-8.633-18.004z" fill="#8fa3ae"/><path d="M20.064 51.911q-7.631-3.837-8.547 4.892-.263 10.094 8.137 14.532 6.719 2.487 7.838-3.933 1.119-10.191-7.428-15.49z" fill="#546e7a"/><path d="M24.091 74.312L9.667 78.001c3.76-1.844 2.072-8.607.921-10.528-2.685-4.38-7.442-5.994-9.054-4.457l10.084-12.284c6.489-.933 10.402 2.909 12.55 5.752 3.453 4.611 4.373 13.525-.077 17.828z" fill="url(#B)"/><path d="M6.385 63.196Q.711 60.343.03 66.833q-.454 7.578 6.05 10.806 4.996 1.849 5.828-2.925.832-7.578-5.523-11.518z" fill="#464646"/><path d="M6.425 63.751q-5.289-2.659-5.923 3.39-.423 7.063 5.639 10.071 4.656 1.724 5.432-2.726.776-7.063-5.148-10.735z" fill="url(#C)"/><path d="M8.382 66.473q-1.995-1.003-2.234 1.279-.16 2.664 2.127 3.798 1.756.65 2.049-1.028.293-2.664-1.942-4.049z" fill="#464646"/><path d="M8.506 66.745q-1.763-.886-1.974 1.13-.141 2.354 1.88 3.357 1.552.575 1.811-.909.259-2.354-1.716-3.578z" fill="url(#C)"/><g fill="#37577e"><use xlink:href="#D"/><path d="M23.837 48.272l6.985-3.998.574.3-6.96 4.048zm-1.422-.824L29.4 43.45l.649.375-7.035 3.973zm2.695 1.574l7.035-3.998.524.3-6.96 4.048z"/><use xlink:href="#D" x="-1.197" y="-0.675"/></g><path d="M27.826 39.41l7.502-4.281 7.548 4.326-7.502 4.281z" fill="#cfd8dc"/><path d="M27.735 42.507l7.639 4.372v-3.142l-7.548-4.326q-.091.046-.091.137z" fill="#b0bec5"/><path d="M35.283 46.697v-2.778q.045-.273.273-.41l7.139-4.053q.227-.091.227.137v2.96q0 .137-.227.273l-7.139 4.035q-.273.109-.273-.164z" fill="#eceff1"/><g fill="#37577e"><use xlink:href="#D" x="-2.544" y="-1.35"/><use xlink:href="#D" x="1.647" y="-3.748"/></g></g><path d="M9.985 53.673q14.369 0 13.479 14.288L15.98 70.36q-.46-10.437-11.237-10.437z" fill="none" stroke="#37577e" stroke-linejoin="miter"/><g stroke="none"><path d="M39.184 44.132l8.003 4.715c-.225-.375-.299-.6-.075-1.274.143-.239.374-.75 1.123-.525l-8.049-4.781c-.43-.143-.859.239-1.003.478-.477.813-.072 1.387 0 1.387z" fill="url(#A)"/><path d="M64.959 32.463v46.759q.248 1.244-.993.497l-17.88-10.197q-.993-.498-1.242-1.492V21.52q0-.746.993-.497l18.128 9.949q.993.497.993 1.492z" fill="#1c3e73"/><path d="M64.959 32.463v46.759q.248 1.244-.993.497l-17.88-10.197q-.993-.498-1.242-1.492V21.52q0-.746.993-.497l18.128 9.949q.993.497.993 1.492zM54.56 27.777l-2.99-1.711v3.422l2.99 1.711zm-3.202-1.832l-2.99-1.711v3.422l2.99 1.711zm-3.201-1.832l-2.99-1.711v3.422l2.99 1.711zm6.403 7.329l-2.99-1.711v3.422l2.99 1.711zm-3.202-1.832l-2.99-1.711v3.422l2.99 1.711zm-3.201-1.832l-2.99-1.711v3.422l2.99 1.711zm6.403 7.329l-2.99-1.711v3.422l2.99 1.711zm-3.202-1.832l-2.99-1.711v3.422l2.99 1.711zm-3.201-1.832l-2.99-1.711v3.422l2.99 1.711zm16.207 1.957l-2.99-1.711v3.422l2.99 1.711zm-3.202-1.832l-2.99-1.711v3.422l2.99 1.711zm-3.201-1.832l-2.99-1.711v3.422l2.99 1.711zm6.403 7.329l-2.99-1.711v3.422l2.99 1.711zm-3.202-1.832l-2.99-1.711v3.422l2.99 1.711zm-3.201-1.832l-2.99-1.711v3.422l2.99 1.711zm6.403 7.329l-2.99-1.711v3.422l2.99 1.711zm-3.202-1.832l-2.99-1.711v3.422l2.99 1.711zm-3.201-1.832l-2.99-1.711v3.422l2.99 1.711zm-3.425 2.051l-2.99-1.711v3.422l2.99 1.711zm-3.202-1.832l-2.99-1.711v3.422l2.99 1.711zm-3.201-1.832l-2.99-1.711v3.422l2.99 1.711zm6.403 7.329l-2.99-1.711v3.422l2.99 1.711zm-3.202-1.832l-2.99-1.711v3.422l2.99 1.711zm-3.201-1.832l-2.99-1.711v3.422l2.99 1.711zm6.403 7.329l-2.99-1.711v3.422l2.99 1.711zm-3.202-1.832l-2.99-1.711v3.422l2.99 1.711zm-3.201-1.832l-2.99-1.711v3.422l2.99 1.711zm16.207 1.957l-2.99-1.711v3.422l2.99 1.711zm-3.202-1.832l-2.99-1.711v3.422l2.99 1.711zm-3.201-1.832l-2.99-1.711v3.422l2.99 1.711zm6.403 7.329l-2.99-1.711v3.422l2.99 1.711zm-3.202-1.832l-2.99-1.711v3.422l2.99 1.711zm-3.201-1.832l-2.99-1.711v3.422l2.99 1.711zm6.403 7.329l-2.99-1.711v3.422l2.99 1.711zm-3.202-1.832l-2.99-1.711v3.422l2.99 1.711zm-3.201-1.832l-2.99-1.711v3.422l2.99 1.711zm-3.401 1.793l-2.99-1.711v3.422l2.99 1.711zm-3.202-1.832l-2.99-1.711v3.422l2.99 1.711zm-3.201-1.832l-2.99-1.711v3.422l2.99 1.711zm6.403 7.329l-2.99-1.711v3.422l2.99 1.711zm-3.202-1.832l-2.99-1.711v3.422l2.99 1.711zm-3.201-1.832l-2.99-1.711v3.422l2.99 1.711zm6.403 7.329l-2.99-1.711v3.422l2.99 1.711zm-3.202-1.832l-2.99-1.711v3.422l2.99 1.711zm-3.201-1.832l-2.99-1.711v3.422l2.99 1.711zm16.207 1.957l-2.99-1.711v3.422l2.99 1.711zm-3.202-1.832l-2.99-1.711v3.422l2.99 1.711zm-3.201-1.832l-2.99-1.711v3.422l2.99 1.711zm6.403 7.329l-2.99-1.711v3.422l2.99 1.711zm-3.202-1.832l-2.99-1.711v3.422l2.99 1.711zm-3.201-1.832l-2.99-1.711v3.422l2.99 1.711zm6.403 7.329l-2.99-1.711v3.422l2.99 1.711zm-3.202-1.832l-2.99-1.711v3.422l2.99 1.711zm-3.201-1.832l-2.99-1.711v3.422l2.99 1.711zm-3.401 1.982l-2.99-1.711v3.422l2.99 1.711zm-3.202-1.832l-2.99-1.711v3.422l2.99 1.711zm-3.201-1.832l-2.99-1.711v3.422l2.99 1.711zm6.403 7.329l-2.99-1.711v3.422l2.99 1.711zm-3.202-1.832l-2.99-1.711v3.422l2.99 1.711zm-3.201-1.832l-2.99-1.711v3.422l2.99 1.711zm6.403 7.329l-2.99-1.711v3.422l2.99 1.711zm-3.202-1.832l-2.99-1.711v3.422l2.99 1.711zm-3.201-1.832l-2.99-1.711v3.422l2.99 1.711zm16.207 1.957l-2.99-1.711v3.422l2.99 1.711zm-3.202-1.832l-2.99-1.711v3.422l2.99 1.711zm-3.201-1.832l-2.99-1.711v3.422l2.99 1.711zm6.403 7.329l-2.99-1.711v3.422l2.99 1.711zm-3.202-1.832l-2.99-1.711v3.422l2.99 1.711zm-3.201-1.832l-2.99-1.711v3.422l2.99 1.711zm6.403 7.329l-2.99-1.711v3.422l2.99 1.711zm-3.202-1.832l-2.99-1.711v3.422l2.99 1.711zm-3.201-1.832l-2.99-1.711v3.422l2.99 1.711z" fill="#dee6e9"/></g></symbol></svg>