<svg xmlns="http://www.w3.org/2000/svg" xmlns:xlink="http://www.w3.org/1999/xlink" viewBox="0 0 51 81" fill="#fff" fill-rule="evenodd" stroke="#000" stroke-linecap="round" stroke-linejoin="round"><use xlink:href="#C" x=".5" y=".5"/><defs><linearGradient id="A" x1="100%" y1="50%" x2="0%" y2="50%"><stop offset="0%" stop-color="#90a4ae"/><stop offset="100%" stop-color="#b0bec5"/></linearGradient><linearGradient id="B" x1="0%" y1="100%" x2="100%" y2="0%"><stop offset="0%" stop-color="#bdc9cf"/><stop offset="100%" stop-color="#b0bec5"/></linearGradient></defs><symbol id="C" overflow="visible"><g stroke="none"><path d="M47.298 73.929c0 3.158-6.864 6.071-15.285 6.071s-15.201-2.543-15.201-5.701v-8.552l30.486-.599z" fill="url(#A)"/><ellipse cx="32.261" cy="65.476" fill="#eceff1" rx="15.201" ry="5.502"/><path d="M37.473 48.771l3.792-2.19v18.173l-7.799 4.562z" fill="url(#B)"/><path d="M21.874 39.648l3.792-2.19 15.598 9.123-3.792 2.19z" fill="#eceff1"/><path d="M21.874 39.647l-4.007 20.582 15.598 9.087 4.007-20.545z" fill="#9daeb8"/><path d="M33.534 69.316L20.106 61.43c-1.628 0-3.357 2.283-3.255 4.151 0 1.141 2.585 3.82 6.858 4.443z" fill="#dee6e9"/><path d="M49.923 17.069Q46.416-7.92 23.512 4.824-2.455 20.811 1.705 49.357q5.268 20.475 22.868 12.176 26.826-14.758 25.35-44.464z" fill="#8da2ad"/><path d="M48.418 16.713Q44.705-8.381 21.988 4.203-3.753 20.011.641 48.679q5.428 20.581 22.897 12.41 26.609-14.57 24.88-44.376z" fill="#eceff1"/><path d="M3.752 16.696l3.482 2.03c.218.412.226 1.381-.093 1.839a1.89 1.89 0 0 1-1.639.969l-3.304-1.793z" fill="#8fa3ae"/><path d="M4.182 17.478q-.188-1.268-1.335-.633-1.3.798-1.077 2.247.275 1.04 1.157.628 1.343-.735 1.255-2.241z" fill="#dee6e9"/><path d="M2.12.676c0 .25-.473.451-1.06.451S0 .926 0 .676V0h2.12z" fill="url(#A)" transform="matrix(.422618 -.906308 .906308 .422618 1.937001 18.844533)"/><ellipse cx="1.06" cy=".451" fill="#eceff1" rx="1.06" ry=".451" transform="matrix(.422618 -.906308 .906308 .422618 1.512963 18.641736)"/><ellipse cx=".94" cy=".4" fill="#cfd8dc" rx=".94" ry=".4" transform="matrix(.422618 -.906308 .906308 .422618 1.588746 18.525963)"/><path d="M24.823 36.866q-.249-1.675-1.763-.836-1.716 1.054-1.422 2.967.363 1.374 1.528.829 1.774-.971 1.658-2.96z" fill="#dee6e9"/></g><g fill="none"><path d="M11.639 25.474l10.987 11.829m9.969-24.488l-9.359 24.696m13.123-.207l-13.123.207M11.639 52.038L22.321 38.86" stroke="#dee6e9" stroke-linecap="square" stroke-linejoin="miter" stroke-width="2"/><g stroke="#8da2ad"><path d="M5.785 19.985l30.676 17.299M6.533 18.967l26.187-6.36M5.326 19.812l6.196 32.227" stroke-linejoin="miter" stroke-width="2"/><path d="M5.286 20.239l6.235 5.088" stroke-linejoin="miter" stroke-width="2"/></g></g></symbol></svg>