<svg xmlns="http://www.w3.org/2000/svg" xmlns:xlink="http://www.w3.org/1999/xlink" viewBox="0 0 81 62" fill="#fff" fill-rule="evenodd" stroke="#000" stroke-linecap="round" stroke-linejoin="round"><use xlink:href="#F" x=".5" y=".5"/><defs><linearGradient id="A" x1="100%" y1="0%" x2="0%" y2="100%"><stop offset="0%" stop-color="#00387f"/><stop offset="100%" stop-color="#0af"/></linearGradient><linearGradient id="B" x1="0%" y1="0%" x2="100%" y2="100%"><stop offset="0%" stop-color="#acacac"/><stop offset="100%" stop-color="#404040"/></linearGradient><path id="C" d="M.782.119q.79-.389.885.496Q1.73 1.649.825 2.09.129 2.342.013 1.69-.102.657.782.119z"/><path id="D" d="M40.397 51.772l-.237.145-.751-1.577v2.035l-.237.145v-2.641l.237-.144.753 1.585v-2.044l.235-.143v2.641z"/><path id="E" d="M28.189 52.045q-.395-.209-.442.267-.032.556.421.793.348.136.406-.215.058-.556-.384-.846z"/></defs><symbol id="F" overflow="visible"><g stroke="none"><path d="M46.586 1.009q1.627-1.008 3.254 0L79.129 19.16q1.627 1.008 0 2.017l-45.56 28.235q-1.627 1.008-3.254 0L1.027 31.261q-1.627-1.008 0-2.017l45.56-28.235" fill="#eceff1"/><path d="M31.942 49.917q-.813 0-1.627-.504L1.027 31.261q-.814-.504-.814-1.008v10.084q0 .504.814 1.008l29.288 18.151q.814.504 1.627.504z" fill="#788d9a"/><path d="M31.942 49.916q.843.019 1.685-.504l45.56-28.235q.813-.504.813-1.008v10.084q0 .504-.813 1.008l-45.56 28.235q-.843.522-1.685.504z" fill="#3f5f74"/><g fill="url(#A)"><path d="M68.754 15.516L48.675 3.312 5.65 29.247l20.482 12.232z"/><path d="M76.192 20.007L56.113 7.802 13.088 33.737 33.57 45.969z"/></g><path d="M32.358 32.189L0 12.741 49.52 0l29.595 18.241z" fill="#eceff1"/><path d="M32.358 32.189v.87L0 13.611v-.87z" fill="#788d9a"/><path d="M79.115 18.241v.87L32.358 33.059v-.87z" fill="#3f5f74"/><g fill="url(#B)"><use xlink:href="#C" transform="matrix(.5 .866025 -.866025 .5 26.32275 42.508228)"/><use xlink:href="#C" transform="matrix(.5 .866025 -.866025 .5 28.71375 43.911428)"/></g><g fill="#eceff1"><path d="M38.519 52.234l-.634.386-.146.78-.242.148.604-3.01.202-.123.605 2.272-.242.148-.148-.601zm-.572.064l.511-.312-.256-1.044-.255 1.356zm-.589.477a1.88 1.88 0 0 1-.169.754c-.103.213-.247.377-.434.491s-.338.105-.448-.029-.166-.373-.166-.718v-.479a2.34 2.34 0 0 1 .171-.919c.114-.269.269-.463.465-.583.181-.111.321-.12.42-.028s.153.277.162.556l-.238.145c-.01-.209-.042-.343-.096-.402s-.137-.054-.247.013c-.128.078-.226.208-.295.391s-.103.41-.103.682v.484c0 .267.032.453.096.556s.157.118.28.043.211-.172.265-.291.088-.294.101-.524l.238-.146zm5.68-3.907l-.663.405v.936l.773-.471v.285l-1.008.615v-2.641l.995-.607v.285l-.76.464v.851l.663-.405v.284z"/><use xlink:href="#D"/><path d="M43.992 48.453l-.33.201v1.068l-.237.145v-2.641l.525-.32c.184-.112.323-.13.417-.052s.142.246.142.506a1.49 1.49 0 0 1-.077.474c-.051.153-.123.288-.217.407l.363.901v.022l-.254.155-.333-.865zm-.33-.083l.286-.174a.62.62 0 0 0 .236-.279c.059-.126.088-.264.088-.413 0-.339-.109-.442-.327-.309l-.283.173v1.003zm-8.001 5.598c0-.132-.025-.218-.076-.257s-.142-.051-.274-.038-.233.006-.303-.025a.31.31 0 0 1-.157-.154.68.68 0 0 1-.052-.29c0-.209.05-.412.149-.608a1.06 1.06 0 0 1 .39-.441c.11-.067.208-.092.294-.075s.152.073.199.167.069.216.069.363l-.237.145c0-.163-.028-.273-.084-.328s-.136-.051-.241.013a.58.58 0 0 0-.222.248.82.82 0 0 0-.079.364c0 .111.028.187.085.228s.144.055.263.042c.185-.027.317-.001.396.076s.119.218.119.421c0 .214-.049.416-.148.605a1.1 1.1 0 0 1-.403.439c-.109.066-.21.094-.302.083s-.165-.061-.218-.15-.079-.212-.079-.37l.237-.145c0 .163.032.271.097.322s.153.043.264-.025c.104-.063.182-.149.234-.255a.79.79 0 0 0 .079-.355z"/><use xlink:href="#D" x="1.457" y="-0.937"/></g><path d="M29.043 52.039V54l-2.999-1.81v-1.961z" fill="#3b4950"/><use xlink:href="#E" fill="#96e652"/><use xlink:href="#E" x="-1.298" y="-0.724" fill="#cc584c"/></g></symbol></svg>