<svg xmlns="http://www.w3.org/2000/svg" xmlns:xlink="http://www.w3.org/1999/xlink" viewBox="0 0 62 82" fill="#fff" fill-rule="evenodd" stroke="#000" stroke-linecap="round" stroke-linejoin="round"><use xlink:href="#A" x=".5" y=".5"/><symbol id="A" overflow="visible"><g stroke="none"><path d="M.359 49.003L30 31.267l29.82 17.925-29.641 17.736z" fill="#1e88e5"/><path d="M29.82 79.192V67.682q.18-1.132 1.078-1.698l28.204-16.792q.898-.377.898.566v12.264q0 .566-.898 1.132L30.898 79.871q-1.078.453-1.078-.679z" fill="#eceff1"/><path d="M0 61.833l30.18 18.113V66.928L.359 49.003Q0 49.192 0 49.569z" fill="#1565c0"/></g><path d="M33.593 71.645l15.269-9.057" fill="none" stroke-linejoin="miter"/><g stroke="none"><use xlink:href="#C" fill="#e53935"/><use xlink:href="#D" fill="#f44336"/><use xlink:href="#E" fill="#ef5350"/><use xlink:href="#C" x="4.496" y="-2.642" fill="#43a047"/><use xlink:href="#D" x="4.496" y="-2.641" fill="#4caf50"/><use xlink:href="#E" x="4.496" y="-2.642" fill="#66bb6a"/><path d="M.359 33.531L30 15.795 59.82 33.72 30.179 51.455z" fill="#1e88e5"/><path d="M29.82 63.72V52.21q.18-1.132 1.078-1.698L59.101 33.72q.898-.377.898.566V46.55q0 .566-.898 1.132L30.898 64.399q-1.078.453-1.078-.679z" fill="#eceff1"/><path d="M0 46.361l30.18 18.113V51.456L.359 33.531Q0 33.72 0 34.097z" fill="#1565c0"/></g><path d="M33.593 56.173l15.269-9.057" fill="none" stroke-linejoin="miter"/><g stroke="none"><use xlink:href="#C" y="-15.472" fill="#e53935"/><use xlink:href="#D" y="-15.471" fill="#f44336"/><use xlink:href="#E" y="-15.472" fill="#ef5350"/><use xlink:href="#C" x="4.496" y="-18.113" fill="#43a047"/><use xlink:href="#D" x="4.496" y="-18.113" fill="#4caf50"/><path d="M58.383 43.324V40.25l-2.558 1.519v3.092z" fill="#66bb6a"/><path d="M.359 17.736L30 0l29.82 17.925L30.179 35.66z" fill="#1e88e5"/><path d="M29.82 47.925V36.415q.18-1.132 1.078-1.698l28.204-16.792q.898-.377.898.566v12.264q0 .566-.898 1.132L30.898 48.604q-1.078.453-1.078-.679z" fill="#eceff1"/><path d="M0 30.566l30.18 18.113V35.661L.359 17.736Q0 17.925 0 18.302z" fill="#1565c0"/></g><path d="M33.593 40.378l15.269-9.057" fill="#000" stroke-linejoin="miter"/><g stroke="none"><use xlink:href="#C" y="-31.267" fill="#e53935"/><use xlink:href="#D" y="-31.266" fill="#f44336"/><use xlink:href="#E" y="-31.267" fill="#ef5350"/><use xlink:href="#C" x="4.496" y="-33.909" fill="#43a047"/><use xlink:href="#D" x="4.496" y="-33.908" fill="#4caf50"/><use xlink:href="#E" x="4.496" y="-33.909" fill="#66bb6a"/></g></symbol><defs ><path id="C" d="M50.838 62.666v-3.092l.491.309v3.092z"/><path id="D" d="M53.369 58.059l-2.531 1.514.491.309 2.558-1.519z"/><path id="E" d="M53.887 61.438v-3.074l-2.558 1.519v3.092z"/></defs></svg>