<svg xmlns="http://www.w3.org/2000/svg" xmlns:xlink="http://www.w3.org/1999/xlink" viewBox="0 0 62 81" fill="#fff" fill-rule="evenodd" stroke="#000" stroke-linecap="round" stroke-linejoin="round"><use xlink:href="#A" x=".5" y=".5"/><symbol id="A" overflow="visible"><g stroke="none"><path d="M.359 48.708L30 30.803l29.82 18.095-29.641 17.905z" fill="#90a4ae"/><path d="M0 61.659l30.18 18.286V66.802L.359 48.707q-.359.19-.359.571z" fill="#b0bec5"/><path d="M29.82 79.184V67.564q.18-1.143 1.078-1.714l28.204-16.952q.898-.381.898.571V61.85q0 .571-.898 1.143L30.898 79.869q-1.078.457-1.078-.686z" fill="#eceff1"/></g><path d="M33.593 71.565l15.269-9.143" fill="none" stroke-linejoin="miter"/><g stroke="none"><path d="M50.838 62.5v-3.121l.491.312v3.121z" fill="#e53935"/><use xlink:href="#C" fill="#f44336"/><use xlink:href="#D" fill="#ef5350"/><path d="M55.334 59.834v-3.121l.491.312v3.121z" fill="#43a047"/><use xlink:href="#C" x="4.496" y="-2.666" fill="#4caf50"/><use xlink:href="#D" x="4.496" y="-2.667" fill="#66bb6a"/><path d="M.359 33.47L30 15.565 59.82 33.66 30.179 51.565z" fill="#90a4ae"/><path d="M0 46.421l30.18 18.286V51.564L.359 33.469Q0 33.659 0 34.04z" fill="#b0bec5"/><path d="M29.82 63.946V52.326q.18-1.143 1.078-1.714L59.101 33.66q.898-.381.898.571v12.381q0 .571-.898 1.143L30.898 64.631q-1.078.457-1.078-.686z" fill="#eceff1"/></g><path d="M33.593 56.327l15.269-9.143" fill="none" stroke-linejoin="miter"/><g stroke="none"><path d="M50.838 47.262v-3.121l.491.312v3.121z" fill="#e53935"/><use xlink:href="#C" y="-15.238" fill="#f44336"/><use xlink:href="#D" y="-15.239" fill="#ef5350"/><path d="M55.334 44.595v-3.121l.491.312v3.121z" fill="#43a047"/><use xlink:href="#C" x="4.496" y="-17.904" fill="#4caf50"/><use xlink:href="#D" x="4.496" y="-17.905" fill="#66bb6a"/><path d="M.359 17.905L30 0l29.82 18.095L30.179 36z" fill="#cfd8dc"/><path d="M0 30.857l30.18 18.286V36L.359 17.905q-.359.19-.359.571z" fill="#b0bec5"/><path d="M29.82 48.381V36.761q.18-1.143 1.078-1.714l28.204-16.952q.898-.381.898.571v12.381q0 .571-.898 1.143L30.898 49.066q-1.078.457-1.078-.686z" fill="#eceff1"/></g><path d="M33.593 40.762l15.269-9.143" fill="none" stroke-linejoin="miter"/><g stroke="none"><path d="M50.838 31.697v-3.121l.491.312v3.121z" fill="#e53935"/><use xlink:href="#C" y="-30.802" fill="#f44336"/><use xlink:href="#D" y="-30.803" fill="#ef5350"/><path d="M55.334 29.031V25.91l.491.312v3.121z" fill="#43a047"/><use xlink:href="#C" x="4.496" y="-33.469" fill="#4caf50"/><use xlink:href="#D" x="4.496" y="-33.47" fill="#66bb6a"/></g></symbol><defs ><path id="C" d="M53.369 57.85l-2.531 1.529.491.312 2.558-1.534z"/><path id="D" d="M53.887 61.261v-3.103l-2.558 1.534v3.121z"/></defs></svg>