<svg xmlns="http://www.w3.org/2000/svg" xmlns:xlink="http://www.w3.org/1999/xlink" viewBox="0 0 33 81" fill="#fff" fill-rule="evenodd" stroke="#000" stroke-linecap="round" stroke-linejoin="round"><style><![CDATA[.B{stroke:none}.C{font-family:Roboto Condensed}]]></style><use xlink:href="#C" x=".5" y=".5"/><defs><linearGradient id="A" x1="0%" y1="44%" x2="100%" y2="56%"><stop offset="0%" stop-color="#cfd8dc"/><stop offset="100%" stop-color="#607d8b"/></linearGradient><linearGradient id="B" x1="0%" y1="61%" x2="100%" y2="39%"><stop offset="0%" stop-color="#cfd8dc"/><stop offset="100%" stop-color="#607d8b"/></linearGradient></defs><symbol id="C" overflow="visible"><g transform="translate(.8)"><path d="M9.028 26.565l21.471-11.948q-.727-1.243-2.208-2.067L6.681.409Q3.74-.728 0 1.296z" fill="url(#A)" class="B"/></g><path d="M9.827 26.565l21.471-11.948Q32 15.816 32 17.406v58.277q-.26 3.103-4 4.317z" fill="#607d8b" class="B"/><path d="M0 61.653q0 3.238 2.909 4.856l23.273 12.95q2.909 1.619 2.909-1.619V19.564q0-3.238-2.909-4.856L2.909 1.758Q0 .139 0 3.376z" fill="#eceff1" class="B"/><path d="M27.2 73.2L2 59.2V4l25.2 14z" fill="#000" class="B"/><g class="B"><path d="M13.302 67.032q-1.513-.759-1.694.968-.121 2.017 1.613 2.876 1.332.492 1.554-.778.222-2.017-1.472-3.066z" fill="url(#B)"/><path d="M19.443 47.863L9.237 42.018c-.418-.209-.719-.626-.742-1.021v-8.536c.023-.557.302-.557.742-.278l10.252 5.845c.325.209.487.441.51.928v8.814c0 .302-.232.278-.557.093z" fill="red"/><path d="M12.346 36.497V41.6l3.943-.232z"/></g></symbol></svg>