<svg xmlns="http://www.w3.org/2000/svg" xmlns:xlink="http://www.w3.org/1999/xlink" viewBox="0 0 22 81" fill="#fff" fill-rule="evenodd" stroke="#000" stroke-linecap="round" stroke-linejoin="round"><use xlink:href="#A" x=".5" y=".5"/><symbol id="A" overflow="visible"><g stroke="none"><path fill="#e8c8a1" d="M5.423 12.007c-.49 2.537-1.452 5.612-1.133 8.875l6.998 4.446c.402.696.321 1.008.723 1.704-.23-.398-1.265.067-1.632-.118l-8.252-3.457c-.948-.513-1.258-.599-1.654-1.962-.514-5.405 2.317-5.966 1.842-9.272 1.626.785 1.344-.788 3.108-.215z"/><path fill="#eed7ba" d="M9.615 10.176c.064.63.032 1.001.085 1.755-2.039.82-3.125.288-4.475-.641.065-.743-.042-1.564-.042-1.564-.645-.805-1.439-3.309-1.202-4.661.259-1.6.873-2.482 1.336-3.003.98-.975 1.776-1.218 3.889-.845.468.103.877.201 1.5.568.392.284.564 1.048.709 1.435.07.568-.027.996-.023 1.621.182.64 1 .836.494 1.167.408.785-.266 3.721-.325 3.716-.387.341-1.227.392-1.947.454z"/><path fill="#e8c8a1" d="M6.242 69.626c1.014 1.068 3.043 2.441 3.043 1.831-1.739-6.712.869-16.106.869-18.611.198-2.923-.32-7.867-.419-8.076-.099-.731-.099-.731 0-1.148-.397.418 1.715 6.116 1.715 8.831-.595 11.692 1.487 14.928.198 22.965 1.114.006 3.288 2.141 4.447 2.141-4.347-4.271-.084-24.898.114-24.898l.07-13.737c0-4.593 0-6.681-.793-8.351-1.983 0-1.983 3.34-3.966 3.34-1.586 0-1.586.418-3.173.418-1.983 0-1.388-.418-3.371-.418-1.19 0-1.586-1.879-2.776-1.879 0 4.176.198 3.758.595 7.307.198 1.044 1.517 9.561 2.31 13.11.993 2.529 1.717 12.903 1.138 17.174z"/><path fill="#4f4f4f" d="M2.185 31.336c-.793 2.923 1.449 11.441 1.73 16.106.198 0 .198 6.263.397 6.263 5.843 2.802 7.932 1.67 13.088-.835l-.793-10.021c-.297-4.489.069-13.038-1.38-12.275"/><use xlink:href="#C" fill="#262626"/><use xlink:href="#D" fill="#4f4f4f"/><use xlink:href="#C" x="-5.512" y="-3.806" fill="#262626"/><use xlink:href="#D" x="-5.512" y="-3.806" fill="#4f4f4f"/><g fill="#eed7ba"><path d="M16.836 32.523c.023.185.1.251.236.466.007.589-.018.342.13 1.086.133.478.318.694.616.842-.058.218.005.291.031.882-.079.237-.138.252-.116.66.065.148.199.16.233 0 .032-.363.144-.312.23-.63.03-.342.009-.324.098-.682.073.27.154.237.122.823-.11.376-.17.391-.205.794-.012.141.079.216.135.241.24-.081.264-.591.479-.836.025-.059.049-.118.06-.238-.011.344.052.289.028.571-.212.428-.326.398-.363.821.012.082-.049.117.117.213.093.049.142-.069.194-.227.103-.296.369-.455.455-.772.081-.48.006-.73.044-1.173.084.373.241.346.192.91-.032.363.07.534-.001.893-.011.121.091.292.21.262.088-.114.095-.195.109-.356.137-.678.137-.678.123-1.41-.248-.712-.192-.91-.475-1.666-.468-.853-.95-1.214-1.079-1.956-.347.416-1.569.08-1.604.483z"/><path d="M14.004 22.186c.145.983.29 1.441.743 3.392l2.029 6.865c.435.915 1.449 1.22 1.739-.305l-.869-7.322c-.29-2.441-.883-2.769-.883-3.379-.75.25-1.758.5-2.758.75z"/></g><path d="M0 16.632c.186.447.212 1.84 1.626 2.09.373.893 2.407 5.77.868 10.075-.013.825-.578 2.205-.557 3.588-.191 2.587 2.681 3.402 4.013 3.361 2.635.465 7.125-.657 10.004-4.67-1.457-2.923-2.193-9.14-1.443-8.89 1.25-.5 3.826-.692 3.267-2.032-1.283-1.744-.81-5.595-2.245-6.695-1.167-.896-5.038-2.553-8.419-3.001-1.542-.272-3.349.023-4.693.728-.726 1.113-1.354 2.096-2.421 5.447z" fill="#f99"/><path fill="#262626" d="M9.239 8.15c.165.092.293.052.432-.05.017-.438-.132-.967-.035-1.517.027-.499.236-.651.567-1.159.294-.641-.361-1.386-.264-1.935.732-1.067.585-.555 1.04-1.419.298-.911-1.173-1.941-3.69-2.07-1.392.006-2.604.359-3.1.775-.646.579-.711.945-.701 1.576-.043.244-.721.314-.888 1.606-.13 1.425-.888 9.238-.761 12.116 2.686 12.86 5.954 4.352 6.558 1.318.612-4.247.066-10.322.53-10.555.261.235.399.826.313 1.314z"/></g></symbol><defs ><path id="C" d="M11.777 71.8c1.86.196 2.604 3.623 4.278 5.679.279.098.279.196.651.196.279.098.558.49.651.979 0 .196-.093.392-.93.783-1.488.196-2.046.098-2.604-.392-.372-.196-.651-2.252-.93-2.741-.186.196-.651.881-.465 3.623-.186.098-.279.098-.372 0-.093-2.448-.651-4.602-1.023-5.385-.093-1.567.558-2.154.744-2.741z"/><path id="D" d="M12.847 76.353c.046-.147.046-.636.79-.734.883.196.883 3.084 2.79 3.818-1.116.196-1.86.245-2.697-.392-.465-.979-.558-2.301-.883-2.692z"/></defs></svg>