<svg xmlns="http://www.w3.org/2000/svg" xmlns:xlink="http://www.w3.org/1999/xlink" viewBox="0 0 22 81" fill="#fff" fill-rule="evenodd" stroke="#000" stroke-linecap="round" stroke-linejoin="round"><use xlink:href="#A" x=".5" y=".5"/><symbol id="A" overflow="visible"><g stroke="none"><path fill="#e8c8a1" d="M4.965 12.101c-.444 2.438-1.332 5.389-.997 8.533l6.704 4.343c.389.674.315.973.704 1.647-.222-.385-1.203.053-1.555-.129l-7.888-3.403c-.907-.503-1.204-.588-1.593-1.904-.538-5.208 2.151-5.722 1.669-8.909 1.555.77 1.272-.746 2.957-.179z"/><path fill="#262626" d="M6.258 72.894c-.182 1.23-.091 1.896.137 2.562.228.564.638.717 1.276.717 1.594.051 2.004-.461 2.141-.871 1.23-.205 2.916-1.383 3.918-2.664.364-.461.456-.82.456-1.281 0-.256-.091-.615-1.093-.615-.273.051-1.412.41-2.46.461-.638.102-.774.102-1.184.102-1.253 0-2.096 1.23-2.505 1.435-.228.205-.547-.461-.683.154z"/><path fill="#eed7ba" d="M6.434 71.972c.046 0 .046.922.091.922.273.307.547.512 1.822.307.82-.205 1.093-.359 1.367-.922l-.091-1.127c-1.594 0-3.007.41-3.189.82z"/><path fill="#262626" d="M11.208 76.289c-.314 1.306-.278 2.032-.092 2.77.195.628.628.833 1.323.894 1.734.207 2.229-.305 2.417-.733 1.361-.103 3.309-1.211 4.523-2.494a1.98 1.98 0 0 0 .617-1.335c.024-.276-.041-.67-1.134-.766-.303.029-1.579.306-2.726.262-.705.049-.854.036-1.301-.003-1.366-.12-2.401 1.123-2.867 1.305-.268.199-.553-.548-.76.1z"/><path fill="#eed7ba" d="M11.491 75.281c.05.004-.037.997.013 1.001.269.357.548.604 1.958.505.913-.142 1.226-.282 1.577-.862l.007-1.222c-1.739-.152-3.317.154-3.554.578z"/><path d="M5.914 72.387c1.633.583 3.228-.09 4.225-.763.399-8.522 0-15.026 0-17.717.199-3.14-.299-8.746-.399-8.971-.1-.785-.1-.785 0-1.233-.399.449 1.196 6.616 1.196 9.531l-.156 21.451c1.231 1.385 2.93 1.346 4.924 0 .199 0-.199-20.769 0-20.769v-15.23c0-4.817-1.049-7.898-1.847-9.692-1.994 0-1.084 3.461-3.078 3.461-1.595 0-.841 1.268-2.436 1.268-1.994 0-1.396-.449-3.39-.449-1.196 0-1.538-1.872-2.734-1.872 0 4.485.142 3.89.541 7.703.199 1.121 1.196 10.54 1.994 14.353.199 1.57.76 18.928 1.159 18.928z" fill="#646464"/><path fill="#eed7ba" d="M8.908 10.039c.057.62.025.986.07 1.728-1.899.818-2.906.299-4.156-.61.064-.732-.031-1.54-.031-1.54-.596-.79-1.322-3.251-1.094-4.584.249-1.577.823-2.449 1.256-2.964.915-.965 1.657-1.208 3.619-.852a3.97 3.97 0 0 1 1.392.552c.363.278.519 1.029.652 1.41.062.559-.03.981-.029 1.596.166.629.925.819.454 1.146.376.771-.265 3.666-.32 3.661-.362.337-1.142.392-1.812.456z"/><path fill="#795548" d="M8.517 7.973c.154.089.274.048.404-.052.019-.429-.115-.947-.02-1.487.03-.489.226-.64.54-1.141.28-.63-.325-1.355-.23-1.895.693-1.052.912-1.013 1.344-1.864C10.892 1.222 9.115.105 6.764 0 5.463.018 4.329.374 3.861.786c-.609.573-.672.932-.668 1.551-.042.24-.676.313-.843 1.582-.134 1.398 1.106 3.965 2.088 5.436 1.329.593 1.846-.231 2.673-.765.512-.342.689-1.671 1.125-1.903.242.228.366.806.281 1.286z"/><path d="M0 16.88c.17.436.182 1.802 1.501 2.035.341.873 1.108 5.603.726 9.869l-.242 3.478c-.2 2.538 2.168 3.356 3.413 3.305 2.458.433 6.674-.503 9.397-4.461.07-4.703-.614-7.246.727-7.905 1.006-.79 2.291-1.275 1.885-2.661-.675-2.309-1.833-5.699-3.164-6.766-1.083-.868-4.391-2.597-7.546-3.008a6.99 6.99 0 0 0-4.39.753C1.619 12.618 1.025 13.586 0 16.88z" fill="#607d8b"/><g fill="#eed7ba"><path d="M15.963 34.842c.021.189.095.257.226.477.003.604-.02.351.12 1.114.126.49.305.71.592.86-.057.224.004.298.026.904-.078.243-.135.259-.116.677.062.151.192.163.225-.001.033-.372.141-.321.226-.647.031-.351.01-.332.099-.7.07.277.148.242.114.843-.109.386-.167.402-.203.816-.013.145.076.221.13.246.233-.084.258-.608.468-.861.024-.06.048-.121.059-.245-.012.353.049.296.024.585-.207.44-.317.41-.355.844.011.084-.048.121.112.218.09.049.138-.071.189-.233.102-.304.36-.468.445-.794.081-.493.009-.749.049-1.204.079.382.232.354.181.933-.033.372.065.547-.005.916-.011.124.086.299.202.268.085-.118.093-.2.107-.366.136-.696.136-.696.127-1.447-.237-.729-.181-.933-.451-1.706-.449-.873-.914-1.24-1.035-2.001-.338.429-1.52.09-1.556.503z"/><path d="M13.58 23.637c-.698-.314 0 .786.419 3.928l1.956 7.07c.419.943 1.397 1.257 1.676-.314l-.838-7.541-.559-4.085c-1.397.943-1.676.943-2.654.943z"/></g></g></symbol></svg>