<svg xmlns="http://www.w3.org/2000/svg" xmlns:xlink="http://www.w3.org/1999/xlink" viewBox="0 0 42 81" fill="#fff" fill-rule="evenodd" stroke="#000" stroke-linecap="round" stroke-linejoin="round"><style><![CDATA[.B{fill:#2c2c2c}.C{fill:#1b1b1b}.D{fill:#262626}.E{fill:#027be4}.F{fill:#43a047}.G{fill:#52c234}.H{fill:#90dc7b}]]></style><use xlink:href="#A" x=".5" y=".5"/><symbol id="A" overflow="visible"><g stroke="none"><path d="M.24 60.316L20 49.054l19.88 11.382-19.76 11.262z" class="B"/><path d="M0 68.464l20.12 11.502v-8.267L.24 60.317q-.24.12-.24.359z" class="C"/><path d="M19.88 79.486v-7.308q.12-.719.719-1.078l18.802-10.663q.599-.24.599.359v7.788q0 .359-.599.719L20.599 79.918q-.719.288-.719-.431z" class="D"/><use xlink:href="#C" fill="#f25e1e"/><path d="M.24 50.556L20 39.294l19.88 11.382-19.76 11.262z" class="B"/><path d="M0 58.703l20.12 11.502v-8.267L.24 50.556q-.24.12-.24.359z" class="C"/><path d="M19.88 69.726v-7.308q.12-.719.719-1.078l18.802-10.663q.599-.24.599.359v7.788q0 .359-.599.719L20.599 70.158q-.719.288-.719-.431z" class="D"/><use xlink:href="#C" y="-9.76" class="E"/><path d="M.24 40.796L20 29.534l19.88 11.382-19.76 11.262z" class="B"/><path d="M0 48.943l20.12 11.502v-8.267L.24 40.796q-.24.12-.24.359z" class="C"/><path d="M19.88 59.965v-7.308q.12-.719.719-1.078l18.802-10.663q.599-.24.599.359v7.788q0 .359-.599.719L20.599 60.397q-.719.288-.719-.431z" class="D"/><use xlink:href="#C" y="-19.52" class="E"/><path d="M.24 31.036L20 19.774l19.88 11.382-19.76 11.262z" class="B"/><path d="M0 39.183l20.12 11.502v-8.267L.24 31.036q-.24.12-.24.359z" class="C"/><path d="M19.88 50.205v-7.308q.12-.719.719-1.078l18.802-10.663q.599-.24.599.359v7.788q0 .359-.599.719L20.599 50.637q-.719.288-.719-.431z" class="D"/><use xlink:href="#C" y="-29.534" class="E"/><path d="M.24 21.022L20 9.76l19.88 11.382-19.76 11.262z" class="B"/><path d="M0 29.17l20.12 11.502v-8.267L.24 21.023q-.24.12-.24.359z" class="C"/><path d="M19.88 40.192v-7.308q.12-.719.719-1.078l18.802-10.663q.599-.24.599.359v7.788q0 .359-.599.719L20.599 40.624q-.719.288-.719-.431z" class="D"/><path d="M1.829 21.06L20.006 10.7l18.287 10.655-18.177 10.175z" fill="#f25e1e"/><path d="M.24 11.262L20 0l19.88 11.382-19.76 11.262z" class="B"/><path d="M0 19.409l20.12 11.502v-8.267L.24 11.262q-.24.12-.24.359z" class="C"/><path d="M19.88 30.432v-7.308q.12-.719.719-1.078l18.802-10.663q.599-.24.599.359v7.788q0 .359-.599.719L20.599 30.864q-.719.288-.719-.431z" class="D"/><use xlink:href="#D" fill="#cfd8dc"/><use xlink:href="#E" fill="#eceff1"/><use xlink:href="#F"/><use xlink:href="#D" x="1.112" y="-0.636" fill="#cfd8dc"/><use xlink:href="#E" x="1.112" y="-0.636" fill="#eceff1"/><use xlink:href="#F" x="1.112" y="-0.636"/><path d="M34.154 68.166V67.13l.173.104v1.036z" fill="#ca240d"/><use xlink:href="#E" x="2.224" y="-1.281" fill="#d9260e"/><use xlink:href="#F" x="2.224" y="-1.281" fill="#f13a22"/><use xlink:href="#D" x="-3.336" y="1.909" class="F"/><use xlink:href="#E" x="-3.336" y="1.91" class="G"/><use xlink:href="#F" x="-3.336" y="1.909" class="H"/><use xlink:href="#D" x="-2.224" y="1.273" fill="#0d87a9"/><use xlink:href="#E" x="-2.224" y="1.274" fill="#0fa6cf"/><use xlink:href="#F" x="-2.224" y="1.274" fill="#38c8f0"/><path d="M30.818 70.076V69.04l.173.104v1.036z" fill="#0d87a9"/><use xlink:href="#E" x="-1.112" y="0.628" fill="#0fa6cf"/><use xlink:href="#F" x="-1.112" y="0.628" fill="#38c8f0"/><use xlink:href="#D" x="-4.448" y="2.562" class="F"/><use xlink:href="#E" x="-4.448" y="2.563" class="G"/><use xlink:href="#F" x="-4.448" y="2.563" class="H"/><use xlink:href="#D" x="-7.784" y="4.472" fill="#ebb502"/><use xlink:href="#E" x="-7.784" y="4.472" fill="#fdc403"/><use xlink:href="#F" x="-7.784" y="4.472" fill="#fdd245"/><use xlink:href="#D" x="-6.672" y="3.836" fill="#ebb502"/><use xlink:href="#E" x="-6.672" y="3.836" fill="#fdc403"/><use xlink:href="#F" x="-6.672" y="3.836" fill="#fdd245"/><use xlink:href="#D" x="-5.56" y="3.19" class="F"/><use xlink:href="#E" x="-5.56" y="3.191" class="G"/><use xlink:href="#F" x="-5.56" y="3.191" class="H"/><path d="M35.854 67.44v-1.531l.255.153v1.531z" class="E"/><path d="M37.17 65.159l-1.316.75.255.153 1.33-.753z" fill="#329efd"/><path d="M37.439 66.832v-1.523l-1.33.753v1.531z" fill="#53affd"/></g></symbol><defs ><path id="C" d="M1.829 60.354l18.177-10.36 18.287 10.655-18.177 10.175z"/><path id="D" d="M31.93 69.448v-1.036l.173.104v1.036z"/><path id="E" d="M32.82 67.904l-.89.507.173.104.9-.509z"/><path id="F" d="M33.003 69.036v-1.03l-.9.509v1.036z"/></defs></svg>