<svg xmlns="http://www.w3.org/2000/svg" xmlns:xlink="http://www.w3.org/1999/xlink" viewBox="0 0 81 61" fill="#fff" fill-rule="evenodd" stroke="#000" stroke-linecap="round" stroke-linejoin="round"><style><![CDATA[.B{stroke:none}.C{font-family:Lato}.D{font-size:11px}.E{fill:#000}.F{fill:url(#A)}.G{fill:#788f9b}]]></style><use xlink:href="#B" x=".5" y=".5"/><defs><linearGradient id="A" x1="100%" y1="0%" x2="0%" y2="100%"><stop offset="0%" stop-color="#333"/><stop offset="100%" stop-color="#999"/></linearGradient></defs><symbol id="B" overflow="visible"><path d="M33.503.508q-1.631-1.017-3.263 0L.874 18.814q-1.631 1.017 0 2.034L46.588 49.5q1.631 1.017 3.23-.178l29.366-18.305q1.631-1.017 0-2.034L33.503.508" fill="#cfd8dc" class="B"/><g class="B"><path d="M48.186 49.831q.816 0 1.631-.508l29.366-18.305Q80 30.509 80 30v10.17q0 .508-.816 1.017L49.817 59.492q-.816.508-1.631.508z" fill="#b0bec5"/><path d="M48.186 49.829q-.845.019-1.69-.508L.816 20.847Q0 20.339 0 19.83v10.17q0 .509.816 1.017l45.681 28.475q.845.527 1.69.508z" fill="#eceff1"/></g><g transform="translate(40.029 48.305)"><path d="M0 0v3.051l.699 1.525 1.631 1.017.932-.763V2.034z" class="B F"/></g><g transform="translate(35.368 45.509)"><path d="M0 0v3.051l.699 1.525 1.631 1.017.932-.763V2.034z" class="B F"/></g><g transform="translate(30.706 42.458)"><path d="M0 0v3.051l.699 1.525 1.631 1.017.932-.763V2.034z" class="B F"/></g><g transform="translate(26.045 39.661)"><path d="M0 0v3.051l.699 1.525 1.631 1.017.932-.763V2.034z" class="B F"/></g><g transform="translate(21.384 36.864)"><path d="M0 0v3.051l.699 1.525 1.631 1.017.932-.763V2.034z" class="B F"/></g><g transform="translate(16.722 33.814)"><path d="M0 0v3.051l.699 1.525 1.631 1.017.932-.763V2.034z" class="B F"/></g><g transform="translate(12.061 31.017)"><path d="M0 0v3.051l.699 1.525 1.631 1.017.932-.763V2.034z" class="B F"/></g><g transform="translate(7.4 27.966)"><path d="M0 0v3.051l.699 1.525 1.631 1.017.932-.763V2.034z" class="B F"/></g><g transform="translate(2.738 25.17)"><path d="M0 0v3.051l.699 1.525 1.631 1.017.932-.763V2.034z" class="B F"/></g><path d="M35.551 10.596l9.626-.912-1.334 5.975-2.764-1.721L32.787 19l-2.669-1.62 8.197-5.164z" class="B G"/><path d="M48.727 18.596l9.626-.912-1.334 5.975-2.764-1.721L45.963 27l-2.669-1.62 8.197-5.164z" class="B G"/><path d="M34.097 30.089L24.471 31l1.334-5.975 2.764 1.722 8.292-5.063 2.669 1.62-8.197 5.165z" class="B G"/><path d="M47.273 38.089L37.647 39l1.334-5.975 2.764 1.722 8.292-5.063 2.669 1.62-8.197 5.164z" class="B G"/></symbol></svg>