<svg xmlns="http://www.w3.org/2000/svg" xmlns:xlink="http://www.w3.org/1999/xlink" viewBox="0 0 82 81" fill="#fff" fill-rule="evenodd" stroke="#000" stroke-linecap="round" stroke-linejoin="round"><style><![CDATA[.B{stroke:none}.C{fill:#000}.D{font-family:Lato}.E{font-size:11px}.F{fill:#eceff1}.G{fill:#262626}.H{fill:#2c2c2c}]]></style><use xlink:href="#A" x=".5" y=".5"/><symbol id="A" overflow="visible"><g fill="#1b1b1b" class="B"><path d="M.479 40.451L16.253 18.92l24.042 13.912-.055 30.488z"/><path d="M0 56.821l40.239 23.111.511-18.19-39.5-22.25q-.5.5-1.25 1.682z"/></g><path d="M39.761 78.968V64.283q.24-1.444 1.437-2.167L78.25 39.241q1.75.5 1.75 2.172v15.648q0 .722-1.198 1.444L41.198 79.835q-1.437.578-1.437-.867z" class="B G"/><path d="M16.253 19.098L39.931 7.936l24.406 11.308-23.969 13.724z" class="B H"/><path d="M79.745 40.35L64.336 19.286 39.93 32.732 40 63.991z" class="B G"/><g transform="matrix(.5 .866025 -.866025 .5 64.211823 22.226088)"><path d="M12.442 1.692Q1.384-3.849.058 8.757q-.884 14.718 11.79 20.987 9.735 3.592 11.357-5.681 2.088-16.65-10.763-22.372z" class="B C"/></g><g transform="matrix(.5 .866025 -.866025 .5 61.032677 29.318993)"><path d="M7.282.99Q.81-2.253.034 5.126-.484 13.741 6.935 17.41q5.698 2.103 6.647-3.325Q14.804 4.339 7.282.99z" class="B G"/></g><g class="B"><path d="M32.732 16.476l7.198-4.122 7.242 4.165-7.198 4.122z" class="H"/><path d="M32.645 19.458l7.329 4.209v-3.025l-7.242-4.165q-.087.044-.087.132z" fill="#1b1b1b"/><path d="M39.887 23.492v-2.675q.044-.263.262-.395l6.849-3.902q.218-.088.218.132v2.85q0 .132-.218.263l-6.849 3.885q-.262.105-.262-.158z" class="G"/><path d="M73.449 11.71c.996 6.023-11.397 9.923-17.523 5.537-.998-4.015-.499-2.008-.496-5.522-10.21-.723-21.33 5.376-27.789 12.919.436 3.695 2.619 9.659 2.614 15.808-4.808 7.298-21.022 4.41-22.77.019-.867-10.539 3.202-19.93 9.112-23.355C29.733 6.864 47.242-.465 60.065.023 68.453.67 71.997 3.889 73.449 11.71z" class="C"/><path d="M24.631 27.254c1.457 4.027 1.821 9.153 2.186 12.082.364 1.831 2.186 1.465 2.186-.366-.364-4.393-1.457-7.688-2.914-12.448-1.093-2.563-2.186-1.098-1.457.732zM67.803 3.83c2.839 2.613 2.626 4.524 3.373 7.174.518 1.09 1.55.774 1.243-.373-.752-2.185-.622-3.944-3.379-6.865-1.062-1.436-1.965-.97-1.236.064z"/><path d="M50.858 26.242l.364-12.448 13.114 5.492z" class="H"/><path d="M60.329 21.483h5.594l-1.607-2.197z" class="G"/></g><g transform="matrix(.5 .866025 -.866025 .5 57.453195 27.054255)"><use xlink:href="#C" class="B F"/></g><g transform="matrix(.5 .866025 -.866025 .5 63.281496 25.589762)"><use xlink:href="#C" class="B F"/></g><g transform="matrix(.5 .866025 -.866025 .5 66.924196 29.250945)"><use xlink:href="#C" class="B F"/></g><g transform="matrix(.5 .866025 -.866025 .5 67.652696 35.841113)"><use xlink:href="#C" class="B F"/></g><g transform="matrix(.5 .866025 -.866025 .5 64.738596 42.43118)"><use xlink:href="#C" class="B F"/></g><g transform="matrix(.5 .866025 -.866025 .5 59.638796 46.824659)"><use xlink:href="#C" class="B F"/></g><g transform="matrix(.5 .866025 -.866025 .5 53.081995 49.021348)"><use xlink:href="#C" class="B F"/></g><g transform="matrix(.5 .866025 -.866025 .5 49.439295 46.092362)"><use xlink:href="#C" class="B F"/></g><g transform="matrix(.5 .866025 -.866025 .5 47.982195 38.769998)"><use xlink:href="#C" class="B F"/></g><g transform="matrix(.5 .866025 -.866025 .5 50.896295 32.17993)"><use xlink:href="#C" class="B F"/></g></symbol><defs ><path id="C" d="M1.768.24Q.197-.547.008 1.244-.117 3.335 1.683 4.226q1.383.51 1.613-.807Q3.593 1.053 1.768.24z"/></defs></svg>