<svg xmlns="http://www.w3.org/2000/svg" xmlns:xlink="http://www.w3.org/1999/xlink" viewBox="0 0 51 81" fill="#fff" fill-rule="evenodd" stroke="#000" stroke-linecap="round" stroke-linejoin="round"><use xlink:href="#B" x=".5" y=".5"/><defs><linearGradient id="A" x1="0%" y1="0%" x2="100%" y2="100%"><stop offset="0%" stop-color="gray"/><stop offset="100%"/></linearGradient></defs><symbol id="B" overflow="visible"><g transform="translate(0 36.436)"><path d="M22.454 0C10.228.634 7.427 2.721 5.91 4.032 3.572 6.05-2.213 18.693.898 19.96L42.83 42.772c11.583 5.069 6.113-15.525 4.183-23.762C44.761 12.356 44 10.833 34.143 3.168z" fill="url(#A)" stroke="none"/></g><g stroke="none"><path d="M22.001 35.845c-2.8-.788-3.6-2.363-4.8-5.515-.8-2.363-.8-2.757-1.2-4.333-.903-4.352-.815-6.298-.8-6.302-.343-7.584 2.1-16.704 13.159-16.704 11.074 0 13.276 8.568 12.925 16.157-1.404 8.958-2.437 10.155-2.743 10.633-.656 1.031-1.982 3.271-3.941 4.684l-.037 7.202c-3.42 4.071-9.013 3.94-12.43 0z" fill="#f6d1af"/><path d="M34.632 34.464v.666S29.8 37.224 26 37.617c-3.6 0-4-1.182-4-1.182v-.591c2 .788 2.617.561 4.2.591 2-.197 5.2-.788 8.432-1.972z" fill="#000" fill-opacity=".2"/><path d="M32.106 13.624c1.93.317 1.287 1.267 1.302 3.205l-.015 4.874c0 1.426.322 1.426 1.093 1.496.539 0 1.078-.531 1.078-1.062.564-3.127 1.207-4.236 2.156-4.246.82-.148 2.276.321 1.946 3.179-.483 2.535-.965 1.584-1.287 4.594-.161 1.584-.483 3.01 0 4.436 4.826-5.861 4.808-10.27 5.309-15.208.322-5.386-.322-7.287-1.117-9.209-2.156-2.654-2.405-3.147-5.64-3.147C35.854-.119 31.472.054 27.602 0c-5.929 0-7.722 2.535-10.364 5.151-1.862 2.453-1.862 2.77-2.183 9.74 2.547 1.659 3.861-.95 8.365-1.901 2.252-.95 5.791-.317 8.687.634z" fill="#343434"/></g></symbol></svg>