<svg xmlns="http://www.w3.org/2000/svg" xmlns:xlink="http://www.w3.org/1999/xlink" viewBox="0 0 66 81" fill="#fff" fill-rule="evenodd" stroke="#000" stroke-linecap="round" stroke-linejoin="round"><use xlink:href="#D" x=".5" y=".5"/><defs><linearGradient id="A" x1="94%" y1="100%" x2="6%" y2="0%"><stop offset="0%" stop-color="#87ebff"/><stop offset="100%" stop-color="#4ba1d2"/></linearGradient><linearGradient id="B" x1="0%" y1="0%" x2="100%" y2="100%"><stop offset="0%" stop-color="gray"/><stop offset="100%"/></linearGradient><path id="C" d="M35.516 75.785q-1.461-.244-2.023-1.183v-9.27l2.023 1.085z"/></defs><symbol id="D" overflow="visible"><g stroke="none"><path d="M37.978 51.541v28.431L0 58.814v-27.99z" fill="#90a4ae"/><path d="M37.978 51.982l18.085-10.138-37.978-20.938L0 30.824z" fill="#eceff1"/><path d="M37.978 52.423v27.075q-.226.804.904.321l16.276-9.103q.904-.441 1.13-1.322V42.206q-.226-.802-1.13-.362l-16.502 9.257q-.678.441-.678 1.322z" fill="#788f9b"/><g fill="#37474f"><path d="M17.171 1.656Q6.09-3.767 4.761 8.57q-.886 14.404 11.815 20.54 9.756 3.516 11.381-5.559Q29.582 9.146 17.171 1.656z"/><path d="M20.331 31.457l3.907-1.905L8.61.603 4.703 2.508zm19.958-16.735q-11.081-5.423-12.41 6.914-.886 14.404 11.815 20.54 9.756 3.516 11.381-5.559Q52.7 22.212 40.289 14.722z"/><path d="M43.449 44.523l3.907-1.905-15.628-28.949-3.907 1.905z"/></g><path d="M35.602 43.772l10.97-7.186-24.529-13.995-12.327 6.76z" fill="#cfd8dc"/><g fill="#263238"><path d="M13.264 3.593Q2.183-1.83.854 10.507q-.886 14.404 11.815 20.54 9.756 3.516 11.381-5.559 1.625-14.404-10.785-21.894z"/><path d="M36.382 16.659q-11.081-5.423-12.41 6.914-.886 14.404 11.815 20.54 9.756 3.516 11.381-5.56 1.625-14.404-10.785-21.894z"/></g><g fill="#37474f"><path d="M46.84 54.27q4.668-2.285 5.228 2.913.373 6.068-4.977 8.653-4.11 1.481-4.794-2.342-.685-6.068 4.544-9.223z"/><path d="M50.281 69.578l-6.419-3.557 6.583-12.195 5.884 3.116z"/></g><path d="M49.588 74.478V60.105l1.918 1.09v15.139z" fill="#90a4ae"/><path d="M61.315 53.899l-11.727 6.207 1.918 1.089L65 53.755z" fill="#eceff1"/><path d="M64.999 68.807V53.755l-13.494 7.44v15.139z" fill="#788f9b"/><path d="M63.927 68.163V55.532l-11.324 6.243v12.703z" fill="url(#A)"/><path d="M56.745 60.578q3.168-1.55 3.548 1.977.253 4.118-3.377 5.871-2.789 1.005-3.253-1.589-.465-4.118 3.083-6.259z" fill="#eceff1" fill-opacity=".6"/><path d="M56.391 61.221q2.534-1.24 2.838 1.581.203 3.294-2.702 4.697-2.231.804-2.603-1.271-.372-3.294 2.466-5.007z" fill="url(#B)" fill-opacity=".6"/><path d="M35.63 53.652l-14.187-7.92v5.8l14.187 7.92z" fill="#eceff1"/><path d="M41.461 51.801q1.267-.62 1.419.791.101 1.647-1.351 2.349-1.116.402-1.301-.636-.186-1.647 1.233-2.503z" fill="#cc584c"/><g fill="#b0bec5"><use xlink:href="#C"/><use xlink:href="#C" x="-3.351" y="-1.96"/><use xlink:href="#C" x="-6.701" y="-3.92"/><use xlink:href="#C" x="-10.052" y="-5.88"/><use xlink:href="#C" x="-13.402" y="-7.84"/><use xlink:href="#C" x="-16.753" y="-9.8"/></g></g></symbol></svg>