<svg xmlns="http://www.w3.org/2000/svg" xmlns:xlink="http://www.w3.org/1999/xlink" viewBox="0 0 34 82" fill="#fff" fill-rule="evenodd" stroke="#000" stroke-linecap="round" stroke-linejoin="round"><style><![CDATA[.B{stroke:none}.C{fill:#000}.D{fill:#343434}.E{font-family:Roboto Condensed}]]></style><use xlink:href="#H" x=".5" y=".5"/><defs><linearGradient id="A" x1="0%" y1="44%" x2="100%" y2="56%"><stop offset="0%" stop-color="#cfd8dc"/><stop offset="100%" stop-color="#607d8b"/></linearGradient><linearGradient id="B" x1="0%" y1="0%" x2="100%" y2="100%"><stop offset="0%" stop-color="#0af"/><stop offset="100%" stop-color="#00387f"/></linearGradient><linearGradient id="C" x1="0%" y1="61%" x2="100%" y2="39%"><stop offset="0%" stop-color="#cfd8dc"/><stop offset="100%" stop-color="#607d8b"/></linearGradient><linearGradient id="D" x1="0%" y1="0%" x2="100%" y2="100%"><stop offset="0%" stop-color="gray"/><stop offset="100%"/></linearGradient><linearGradient id="E" x1="0%" y1="0%" x2="100%" y2="100%"><stop offset="0%" stop-color="#c9ff8f"/><stop offset="100%" stop-color="#4c9412"/></linearGradient><linearGradient id="F" x1="0%" y1="0%" x2="100%" y2="100%"><stop offset="0%" stop-color="#ec3932"/><stop offset="100%" stop-color="#941212"/></linearGradient><path id="G" d="M14.146 54.83q-1.907-.986-2.136 1.257-.153 2.619 2.033 3.735 1.679.639 1.959-1.011.28-2.619-1.856-3.981z"/></defs><symbol id="H" overflow="visible"><g transform="translate(.8)"><path d="M9.028 26.565l21.471-11.948q-.727-1.243-2.208-2.067L6.681.409Q3.74-.728 0 1.296z" fill="url(#A)" class="B"/></g><path d="M9.827 26.565l21.471-11.948q.702 1.2.702 2.789v58.277q-.26 3.103-4 4.317z" fill="#607d8b" class="B"/><path d="M0 61.653q0 3.238 2.909 4.856l23.273 12.95q2.909 1.619 2.909-1.619V19.564q0-3.238-2.909-4.856L2.909 1.758Q0 .139 0 3.376z" fill="#eceff1" class="B"/><g transform="translate(2 4)"><path d="M25.2 69.2L0 55.2V0l25.2 14z" fill="url(#B)" class="B"/></g><path d="M13.302 67.032q-1.513-.759-1.694.968-.121 2.017 1.613 2.876 1.332.492 1.554-.778.222-2.017-1.472-3.066z" fill="url(#C)" class="B"/><g transform="translate(3.431 33.589)"><path d="M10.674 0C4.862.306 3.531 1.313 2.809 1.947 1.698 2.921-1.052 9.024.427 9.636l19.934 11.012c5.506 2.447 2.906-7.494 1.988-11.471-1.071-3.212-1.432-3.947-6.118-7.647z" fill="url(#D)" class="B"/></g><g class="B"><path d="M13.889 33.304c-1.331-.38-1.711-1.141-2.282-2.662-.38-1.141-.38-1.331-.57-2.092-.429-2.101-.387-3.04-.38-3.042-.163-3.661.998-8.064 6.255-8.064 5.265 0 6.311 4.136 6.145 7.8-.667 4.324-1.158 4.902-1.304 5.133-.312.498-.942 1.579-1.873 2.261l-.017 3.477c-1.626 1.965-4.285 1.902-5.909 0z" fill="#f6d1af"/><path d="M19.894 32.637v.321s-2.297 1.011-4.104 1.201c-1.711 0-1.902-.571-1.902-.571v-.285c.951.38 1.244.271 1.997.285.951-.095 2.472-.38 4.009-.952z" fill-opacity=".2" class="C"/><path d="M18.693 22.577c.918.153.612.612.619 1.547l-.007 2.353c0 .688.153.688.52.722.256 0 .512-.256.512-.512.268-1.509.574-2.045 1.025-2.05.39-.071 1.082.155.925 1.535-.23 1.224-.459.765-.612 2.218-.076.765-.229 1.453 0 2.141 2.294-2.829 2.286-4.958 2.524-7.341.153-2.6-.153-3.518-.531-4.446-1.025-1.281-1.144-1.519-2.681-1.519-.513-1.281-2.595-1.197-4.436-1.224-2.819 0-3.671 1.224-4.927 2.487-.885 1.184-.885 1.337-1.038 4.702 1.211.801 1.835-.459 3.977-.918 1.071-.459 2.753-.153 4.13.306z" class="D"/><path d="M3.34 14.036V7L8 9.635 7.987 16.6z" fill="url(#E)"/></g><g transform="translate(3.693 12.745)"><path d="M1.712 0C.78.049.566.211.451.312.272.469-.169 1.447.069 1.546l3.197 1.766c.883.393.466-1.202.319-1.84-.172-.515-.23-.633-.981-1.227z" fill="url(#F)" class="B"/></g><g class="B"><path d="M5.371 12.699c-.214-.061-.275-.183-.366-.427-.061-.183-.061-.213-.091-.335-.069-.337-.062-.488-.061-.488-.026-.587.16-1.293 1.003-1.293s1.012.663.986 1.251c-.107.694-.186.786-.209.823-.05.08-.151.253-.3.363l-.003.558c-.261.315-.687.305-.948 0z" fill="#f6d1af"/><path d="M6.334 12.592v.052s-.368.162-.658.193c-.274 0-.305-.091-.305-.091v-.046c.152.061.2.043.32.046.153-.015.397-.061.643-.153z" fill-opacity=".2" class="C"/><path d="M6.141 10.979c.147.024.098.098.099.248l-.001.377c0 .11.025.11.083.116.041 0 .082-.041.082-.082.043-.242.092-.328.164-.329.063-.012.174.025.148.246-.037.196-.074.123-.098.356-.012.123-.037.233 0 .343.368-.454.367-.795.405-1.178.025-.417-.024-.564-.085-.713-.164-.205-.183-.244-.43-.244-.082-.206-.416-.192-.711-.196-.452 0-.589.196-.79.399-.142.19-.142.215-.167.754.194.128.294-.074.638-.147.172-.074.441-.025.662.049z" class="D"/><path d="M2 59.2l25.2 14V56L2 42.2z" fill="url(#D)" fill-opacity=".8"/><use xlink:href="#G" fill="#f02e53"/><path d="M13.091 55.45c.454.26.551.973.551 1.07-.162.097-.243.13-.324.13.065.454.422 1.2.746 1.427.162-.065.195-.13.357-.13.389.13.616.908.551 1.07-.389.162-.616.032-.843-.195-.519-.486-1.135-1.686-1.297-2.205-.032-.13-.324-.973.26-1.168z"/><use xlink:href="#G" x="7.2" y="3.8"/><g class="D"><path d="M21.225 59.279q-.633-.469-.709.598-.051 1.247.675 1.778.558.304.65-.481.093-1.247-.616-1.895z"/><path d="M21.404 61.424v.529q.003.014-.011.006l-.203-.116q-.011-.006-.014-.017V61.3q0-.008.011-.006l.206.113q.011.006.011.017z"/><path d="M21.404 61.945v.529q.003.014-.011.006l-.203-.116q-.011-.006-.014-.017v-.527q0-.008.011-.006l.206.113q.011.006.011.017z"/><path d="M20.88 62.395q-.329.216-.002.454.392.259.767.01.254-.211.024-.403-.38-.279-.789-.06zm1.008-1.212l.112.074s-.149.819-.707.67c-.595-.26-.893-1.265-.893-1.265l.149.112c.223.558.409.819.744 1.005.335 0 .447-.037.595-.595z"/></g><path d="M6.546 51.101q-1.907-.986-2.136 1.257-.153 2.619 2.033 3.734 1.679.639 1.959-1.011.28-2.619-1.856-3.981z"/><path d="M7.389 55.173l-2.022-1.158c-.083-.041-.143-.124-.147-.202v-1.691c.005-.11.06-.11.147-.055l2.031 1.158c.064.041.096.087.101.184v1.746c0 .06-.046.055-.11.018z" class="D"/><path d="M6.232 52.857l-.208.122.204.349.079-.047-.055-.094c.116.051.22.21.253.277a.62.62 0 0 1 .065.349l.132.11c.035-.228-.055-.426-.106-.52-.081-.146-.194-.287-.344-.373l.062-.035z"/><path d="M6.414 54.332l.208-.122-.204-.349-.079.047.055.094c-.116-.051-.22-.21-.253-.277a.62.62 0 0 1-.065-.35l-.132-.11c-.035.228.055.426.106.52.081.146.194.287.344.373l-.062.035z"/><path d="M5.78 52.345l-.351-.201c-.014-.007-.025-.021-.026-.035v-.293c.001-.019.01-.019.026-.009l.352.201c.011.007.017.015.018.032v.303zm.902.489l-.351-.201c-.014-.007-.282-.167-.283-.181l.257-.148c.009-.004.018-.008.032-.004l.346.195c.008.012.008.012.018.032l.17.403a1.53 1.53 0 0 1-.189-.097z" class="D"/></g></symbol></svg>