<svg xmlns="http://www.w3.org/2000/svg" xmlns:xlink="http://www.w3.org/1999/xlink" viewBox="0 0 81 52" fill="#fff" fill-rule="evenodd" stroke="#000" stroke-linecap="round" stroke-linejoin="round"><use xlink:href="#D" x=".5" y=".5"/><defs><linearGradient id="A" x1="100%" y1="28%" x2="0%" y2="72%"><stop offset="0%" stop-color="#ffb74d"/><stop offset="100%" stop-color="#ff6f00"/></linearGradient><path id="B" d="M67.473 30.29l3.294 2.02 1.647-1.01-3.294-2.02z"/><path id="C" d="M48.503 30.045l3.294 2.02 3.294-2.02-3.294-2.02z"/></defs><symbol id="D" overflow="visible"><g stroke="none"><path d="M80 28.788v1.515q0 1.01-.941 1.515L47.059 50 0 21.297v-1.095z" fill="#546e7a"/><path d="M0 20.202L47.059 48.99 80 28.788 32.941 0z" fill="#fafafa"/><g fill="#607d8b"><use xlink:href="#B"/><use xlink:href="#B" x="-3.104" y="1.951"/><use xlink:href="#B" x="2.758" y="-1.829"/></g><path d="M45.517 21.964l10-6.035 16.507 10.093-9.882 6.061" fill="url(#A)"/><g fill="#607d8b"><path d="M45.059 16.39l3.294 2.02L50 17.4l-3.294-2.02z"/><use xlink:href="#B" x="-25.518" y="-11.949"/><use xlink:href="#B" x="-19.656" y="-15.729"/><use xlink:href="#C"/><use xlink:href="#C" x="4.941" y="3.03"/><use xlink:href="#C" x="-4.941" y="-3.031"/><use xlink:href="#C" x="-9.882" y="-6.061"/><use xlink:href="#C" x="-4.828" y="2.926"/><use xlink:href="#C" x="0.114" y="5.956"/><use xlink:href="#C" x="-9.769" y="-0.105"/><use xlink:href="#C" x="-14.71" y="-3.135"/><use xlink:href="#C" x="-9.655" y="5.852"/><use xlink:href="#C" x="-4.714" y="8.882"/><use xlink:href="#C" x="-14.596" y="2.822"/><use xlink:href="#C" x="-19.537" y="-0.209"/><use xlink:href="#C" x="-14.483" y="8.778"/><use xlink:href="#C" x="-9.541" y="11.809"/><use xlink:href="#C" x="-19.424" y="5.748"/><use xlink:href="#C" x="-24.365" y="2.718"/></g><path d="M16.207 28.548v.732l30-18.179c.552-.329.621-.549.621-1.134v-1.5z" fill="#90a4ae"/><path d="M3.069 20.574v.732l13.138 7.974v-.732z" fill="#546e7a"/><path d="M3.069 20.574l13.138 7.974L46.828 8.467 33.724.456z" fill="#eceff1"/><path d="M35.343 5.184a2.17 2.17 0 0 1 .619-.258 1.86 1.86 0 0 1 .631-.051c.201.02.377.077.527.169.232.142.327.314.285.516s-.217.397-.526.585l-.024.015a2.22 2.22 0 0 1-.611.258 1.81 1.81 0 0 1-.628.051c-.203-.02-.381-.078-.535-.172-.231-.142-.325-.313-.283-.514s.216-.396.522-.583l.024-.015zm.253.204c-.218.134-.35.268-.394.403s.007.247.154.337.333.122.554.093a1.78 1.78 0 0 0 .694-.265c.216-.132.346-.267.392-.403s-.005-.25-.153-.34-.326-.119-.547-.092-.454.116-.7.267zm.948 1.799l-.303-.185 2.649-1.623.303.185-2.649 1.623zm1.863-.123l-1.037.635-.303-.185 2.649-1.623.846.518c.251.154.374.32.368.497s-.13.341-.374.491a1.51 1.51 0 0 1-.803.236 1.52 1.52 0 0 1-.806-.239l-.54-.331zm.286-.175l.544.333a.94.94 0 0 0 .504.147.98.98 0 0 0 .511-.155c.158-.097.241-.2.25-.311s-.06-.213-.207-.308l-.561-.344-1.041.638zm-4.718-1.841l2.841-.937.331.203-3.5 1.101-.268-.164 1.8-2.143.329.202-1.533 1.738z" fill="#cfd8dc"/></g></symbol></svg>