<svg xmlns="http://www.w3.org/2000/svg" xmlns:xlink="http://www.w3.org/1999/xlink" viewBox="0 0 81 71" fill="#fff" fill-rule="evenodd" stroke="#000" stroke-linecap="round" stroke-linejoin="round"><use xlink:href="#A" x=".5" y=".5"/><symbol id="A" overflow="visible"><path d="M69.837 5.034c-1.717-.97-3.838-1.255-6.213-.769-1.464.301-3.023.893-4.639 1.802-1.553.871-3.04 1.967-4.45 3.236l5.712 3.229c1.41-1.269 2.897-2.364 4.45-3.236 1.617-.908 3.177-1.501 4.639-1.802 2.375-.485 4.496-.2 6.213.769l-5.713-3.229zM49.598 1.157C47.616.036 45.16-.293 42.416.269c-1.694.346-3.5 1.034-5.37 2.084-3.113 1.749-6.039 4.291-8.575 7.296-4.666 5.53-8.017 12.631-8.828 19.241-1.4.308-2.901.889-4.44 1.754-2.686 1.508-5.204 3.697-7.391 6.285C3.133 42.469-.019 49.837 0 56.253c.014 4.677 1.709 7.97 4.448 9.517l5.712 3.229c-2.738-1.547-4.434-4.84-4.448-9.517-.019-6.416 3.133-13.784 7.813-19.324 2.187-2.587 4.705-4.776 7.391-6.284 1.539-.865 3.04-1.448 4.44-1.755.812-6.61 4.161-13.711 8.828-19.241 2.537-3.005 5.459-5.547 8.574-7.296 1.872-1.051 3.676-1.738 5.37-2.085 2.744-.562 5.198-.233 7.182.889l-5.713-3.229z" fill="#607d8b" stroke="none"/><path d="M42.758 5.582c8.837-4.961 16.18-1.815 17.489 6.948 1.41-1.269 2.897-2.364 4.45-3.236 8.422-4.73 15.275-.931 15.302 8.481s-6.782 20.879-15.204 25.608l-43.781 24.58c-8.435 4.737-15.275.931-15.302-8.479s6.768-20.873 15.204-25.608c1.539-.865 3.04-1.448 4.44-1.754 1.253-10.204 8.555-21.571 17.402-26.539z" fill="#eceff1" stroke="none"/><g fill="none" stroke="#464646" stroke-width="2"><path d="M45.067 17.58l-.094 30.966" stroke-linejoin="miter"/><path d="M31.449 40.735q1.659 11.877 13.526 7.809 14.124-7.976 13.54-23.451-.238-11.088-13.527-7.593-13.829 9.635-13.539 23.235z"/><g stroke-linejoin="miter"><path d="M31.447 40.738l27.066-15.642"/><path d="M45.12 17.502q3.49.03 5.375 3.704 1.287 2.977 1.607 7.628.213 4.838-.97 8.622-2.258 7.382-6.152 11.09"/><path d="M34.274 29.07q10.254.461 19.763-11.669m1.913 19.767q-11.489-.925-20.89 11.018"/><path d="M45.075 48.365q-3.275-.402-5.743-4.805-1.234-2.201-1.769-6.481-.24-2.62.513-7.397 1.741-7.785 7.031-12.176"/></g></g><g stroke="none"><path d="M52.23 25.837l1.66-2.96.83.404q.623-.74 1.522-1.48v-1.346l2.491-1.346v1.211q.83-.336 1.591-.202l.899-1.278 1.661.942-.692 1.346q.346.471.553 1.346l1.107-.538v2.725l-1.142.706q-.138 1.346-.657 2.086l.83.471-1.799 3.028-.761-.538q-.692 1.076-1.591 1.615v1.413l-2.491 1.278V33.44q0 .202-1.522.202l-.899 1.346-1.66-1.009.761-1.346q-.415-.606-.692-1.413l-1.038.673v-2.759l1.038-.673q.207-1.278.761-2.153zm4.151-1.076c-2.007 2.153-1.522 3.633-1.591 3.902.208 1.615.899 1.682 1.937 1.615 1.384-.202 2.214-1.548 2.837-2.355.623-1.009.83-2.22.623-3.364-.553-1.48-1.661-1.144-2.214-.942-.692.336-.969.606-1.591 1.144z" fill="#cfd8dc"/><path d="M52.642 25.965l1.661-2.96.83.404q.623-.74 1.522-1.48v-1.346l2.491-1.346v1.211q.83-.336 1.591-.202l.899-1.278 1.661.942-.692 1.346q.346.471.553 1.346l1.107-.538v2.725l-1.142.706q-.138 1.346-.657 2.086l.83.471-1.799 3.028-.761-.538q-.692 1.076-1.591 1.615v1.413l-2.491 1.278v-1.278q0 .202-1.522.202l-.899 1.346-1.66-1.009.761-1.346q-.415-.606-.692-1.413l-1.038.673v-2.759l1.038-.673q.208-1.278.761-2.153zm4.151-1.076c-2.006 2.153-1.522 3.633-1.591 3.902.207 1.615.899 1.682 1.937 1.615 1.384-.202 2.214-1.548 2.837-2.355.623-1.009.83-2.22.623-3.364-.553-1.48-1.661-1.144-2.214-.942-.692.336-.969.606-1.591 1.144z" fill="#7c96a4"/></g></symbol></svg>