<svg xmlns="http://www.w3.org/2000/svg" xmlns:xlink="http://www.w3.org/1999/xlink" viewBox="0 0 66 82" fill="#fff" fill-rule="evenodd" stroke="#000" stroke-linecap="round" stroke-linejoin="round"><use xlink:href="#C" x=".5" y=".5"/><defs><linearGradient id="A" x1="100%" y1="50%" x2="0%" y2="50%"><stop offset="0%" stop-color="#718b98"/><stop offset="100%" stop-color="#b0bec5"/></linearGradient><linearGradient id="B" x1="100%" y1="50%" x2="0%" y2="50%"><stop offset="0%" stop-color="#90a4ae"/><stop offset="100%" stop-color="#b0bec5"/></linearGradient></defs><symbol id="C" overflow="visible"><g fill="url(#A)" stroke="none"><path d="M13.042 3.532c0-1.957-.164-3.532-2.139-3.532S8.765 1.575 8.765 3.532L7.339 52.987h7.129z"/><path d="M54.977 3.532c0-1.957-.164-3.532-2.139-3.532S50.7 1.575 50.7 3.532l-1.426 49.455h7.129z"/></g><path d="M65 68.572C65 74.903 50.505 80 32.5 80S0 74.903 0 68.572V51.429h65z" fill="url(#B)" stroke="none"/><ellipse cx="32.5" cy="50.909" fill="#eceff1" rx="32.5" ry="11.429" stroke="none"/><ellipse cx="33.025" cy="50.121" fill="#cfd8dc" rx="28.831" ry="10.138" stroke="none"/><ellipse cx="53.085" cy="72.194" fill="#ffee58" rx="1.587" ry="1.573" stroke="none"/><ellipse cx="57.251" cy="70.13" fill="#d9ff66" rx="1.587" ry="1.573" stroke="none"/><ellipse cx="61.317" cy="68.066" fill="#4caf50" rx="1.587" ry="1.573" stroke="none"/><path d="M27.914 50.938l4.227.698-4.931 4.189 2.466.698-8.277 1.658-.352-3.752 2.289.524zm7.75-3.054l-4.227-.698 4.667-3.49-2.554-.349 8.542-2.356.176 3.665-2.201-.349zm-24.656-3.578l-3.346 2.443 13.385 2.269-1.761 1.571 8.453-1.92-2.289-3.491-1.585 1.222zm25.096 5.585l7.837-1.571-1.409 1.222 13.032 2.269-2.994 2.443-13.032-2.443-1.849 1.658z" stroke="none" fill="#788f9b"/></symbol></svg>