<svg xmlns="http://www.w3.org/2000/svg" xmlns:xlink="http://www.w3.org/1999/xlink" viewBox="0 0 81 82" fill="#fff" fill-rule="evenodd" stroke="#000" stroke-linecap="round" stroke-linejoin="round" font-family="Roboto" font-size="14" text-anchor="middle"><style><![CDATA[.B{stroke:none}.C{font-family:Roboto Condensed}.D{fill:#000}.E{fill:#c9c9c9}.F{fill:#c1c1c1}.G{fill:url(#A)}.H{fill:#eed7ba}.I{fill:url(#B)}.J{fill:#646464}.K{fill:#fffbcc}.L{fill:#e3e3e3}.M{fill:#262626}.N{fill:#e0e0e0}.O{fill:#e6e6e6}.P{fill:url(#C)}.Q{fill:url(#D)}]]></style><use xlink:href="#G" x=".5" y=".5"/><defs><linearGradient id="A" x1="0%" y1="50%" x2="100%" y2="50%"><stop offset="0%" stop-color="#7f7f7f"/><stop offset="100%" stop-color="#c1c1c1"/></linearGradient><linearGradient id="B" x1="0%" y1="50%" x2="100%" y2="50%"><stop offset="0%" stop-color="#c9c9c9"/><stop offset="100%" stop-color="#b0b0b0"/></linearGradient><linearGradient id="C" x1="100%" y1="0%" x2="0%" y2="100%"><stop offset="0%" stop-color="#00387f"/><stop offset="100%" stop-color="#0af"/></linearGradient><linearGradient id="D" x1="100%" y1="0%" x2="0%" y2="100%"><stop offset="0%" stop-color="#7f7f7f"/><stop offset="100%" stop-color="#fff"/></linearGradient><linearGradient id="E" x1="100%" y1="0%" x2="0%" y2="100%"><stop offset="0%" stop-color="#404040"/><stop offset="100%" stop-color="#acacac"/></linearGradient><linearGradient id="F" x1="100%" y1="100%" x2="0%" y2="0%"><stop offset="0%" stop-color="#404040"/><stop offset="100%" stop-color="#acacac"/></linearGradient></defs><symbol id="G" overflow="visible"><g class="B"><path d="M31.232 59.11c-.215 1.308-.107 2.016.161 2.724.269.599.752.763 1.504.763 1.88.054 2.364-.49 2.525-.926 1.451-.218 3.439-1.471 4.621-2.833.43-.49.537-.872.537-1.362 0-.272-.107-.654-1.289-.654-.322.054-1.666.436-2.901.49-.752.109-.913.109-1.397.109-1.477 0-2.471 1.308-2.955 1.526-.269.218-.645-.49-.806.163z" class="M"/><path d="M31.44 58.13c.054 0 .054.981.107.981.322.327.645.545 2.149.327.967-.218 1.289-.381 1.612-.981l-.107-1.199c-1.88 0-3.546.436-3.761.872z" class="H"/><path d="M16.395 39.158l1.093.665 4.372-2.658q.729-.443.729-.886v-1.329q0 .443-.729.886z" class="F"/><path d="M16.395 39.158l-2.915-1.772 5.465-3.323q1.457-.886 2.915 0 1.457.886 0 1.772z" class="N"/><path d="M30.168 6.693v29.619L4.613 51.121V21.502z" fill="#d9d9d9"/><path d="M3.335 50.381V20.762l51.11 29.619V80l-1.278-.74V51.121L4.613 22.983v28.138" class="O"/><path d="M54.445 50.381L80 35.572 28.89 5.953 3.335 20.762z" fill="#f2f2f2"/><path d="M80 35.572v29.619L54.445 80V50.381z" fill="#d9d9d9"/><path d="M24.774 58.432l-5.605-14.314 4.148-2.522 14.609 8.887z" class="K"/></g><g class="B"><path d="M23.317 53.558q-.729 0-1.457-.443-.729-.443-.729-.886V50.9q0 .443.729.886.729.443 1.457.443z" class="G"/><path d="M53.167 58.526L4.613 30.388v-1.481l48.554 28.138v1.481" class="O"/><path d="M4.613 28.907v-5.924l48.554 28.138v5.924L4.613 28.907" fill="#7696ad"/><g fill="#4f4f4f"><ellipse cx="14.365" cy="65.078" rx="1.041" ry="1.329"/><ellipse cx="33.518" cy="65.078" rx="1.041" ry="1.329"/><ellipse cx="33.726" cy="76.597" rx="1.041" ry="1.329"/><ellipse cx="14.157" cy="76.597" rx="1.041" ry="1.329"/></g></g><g transform="translate(13.116 63.749)"><path d="M0 0v.886l7.911 4.431V3.988z" class="B G"/></g><path d="M34.767 63.749v.886l-7.911 4.431v-1.329z" class="B F"/><path d="M14.573 62.862l-1.457.886 7.911 3.988-8.119 7.532 1.665.886 9.368-6.646 9.368 6.646 1.666-.886-8.119-7.532 7.911-3.988-1.457-.886-9.368 3.101z" class="B N"/><g transform="translate(22.484 61.09)"><path d="M2.915 0v7.089q-1.249.886-2.915 0V0z" class="B G"/></g><g transform="translate(12.908 75.268)"><path d="M1.665.886v.886L0 .886V0z" class="B G"/></g><path d="M23.941 70.838l-9.368 6.203v-.886l9.368-6.646z" class="B F"/><g transform="translate(23.942 69.509)"><path d="M0 1.329l9.368 6.203v-.886L0 0z" class="B G"/></g><path d="M33.31 76.154v.886l1.665-.886v-.886z" class="B F"/><g class="B"><path d="M53.333 38.365l8.08 4.611 4.04-2.305-8.08-4.611-4.04 2.305" class="L"/><path d="M66.53 41.285q.269.154.269-.154v-3.996q0-.307-.269-.461l-10.234-5.84q-.269-.154-.269.154v3.996q0 .307.269.461z" class="E"/><path d="M66.722 41.323q.077-.038.077-.192v-3.996q0-.154-.067-.269l8.07-4.611q.077.115.077.269v3.996q0 .155-.069.193l-8.088 4.61" class="I"/><path d="M56.103 30.796l8.071-4.611q.067-.037.201.039l10.234 5.84q.125.077.192.192l-8.07 4.611q-.067-.115-.202-.192l-10.234-5.84q-.115-.077-.192-.038" class="L"/><path d="M65.453 40.67l-8.08-4.611v-1.537l8.08 4.611z" class="J"/><path d="M57.373 34.907l-4.04 2.305v1.153l4.04-2.305z" class="I"/><path d="M61.413 42.975l-8.08-4.611v-1.153l8.08 4.611v1.153" class="E"/><path d="M62.76 29.912l5.386 3.074-4.04 2.305-5.386-3.074z" fill="#d6d6d6"/><path d="M65.453 39.518l-4.04 2.305v1.153l4.04-2.305z" class="I"/><path d="M67.069 20.077q-.248-.142-.333.174l-1.283 6.588 8.08 4.611 1.27-6.608q.077-.307-.192-.461zm2.953 7.887l-.539-.307.818-4.199.539.307z" class="J"/><path d="M65.568 37.404l.616.346v-.384l-.616-.346z"/><path d="M47.791 43.07q-.06 0-.121-.035l-2.125-1.213q-.104-.069-.104-.243l2.35 1.334z" class="E"/></g><g transform="translate(47.79 40.887)"><path d="M0 2.183q.06 0 .121-.035L3.455.243Q3.559.173 3.559 0L0 2.045z" class="B I"/></g><path d="M47.669 42.897l-2.177-1.248q-.121-.069 0-.139l3.386-1.941q.121-.069.242 0l2.177 1.248q.121.069 0 .139l-3.386 1.941q-.121.069-.242 0" class="B L"/><g transform="translate(45.734 39.639)"><path d="M5.442 1.248L2.177 3.119 0 1.872 3.265 0z" class="B P"/></g><g transform="matrix(.866025 .5 -.5 .866025 46.648316 42.087725)"><ellipse cx=".087" cy=".069" rx=".087" ry=".069" class="B E"/></g><g class="B"><g class="Q"><path d="M29.063 0l4.517 2.559-9.218 5.21-4.609-2.559z"/><path d="M24.362 7.769l9.218-5.21v12.797l-9.218 5.21z"/><path d="M19.753 5.21l4.609 2.559v12.797l-4.609-2.559z"/></g><g fill="url(#E)"><path d="M23.44 8.363v.366l-2.765-1.536v-.366z"/><path d="M23.44 9.095v.366l-2.765-1.536v-.366z"/><path d="M23.44 9.826v.366l-2.765-1.536V8.29z"/><ellipse cx=".644" cy=".458" rx=".644" ry=".458" transform="matrix(.866025 .5 -.5 .866025 21.729488 16.648831)"/></g><path d="M41.026 23.502l-4.474.989q-1.557.781-.271 1.77l4.152 2.538q1.055.636 2.111-.565l2.177-2.472z" class="J"/><path d="M41.027 22.937l-4.485 1.485q-1.517.495-.264 1.273l4.155 2.546q1.055.637 2.111-.566L44.72 25.2z" class="Q"/><path d="M50.994 29.911V15.12q0-.52-.492-.818L32.234 3.228q-.843-.446-1.476 0l19.393 27.798q.843-.52.843-1.115" fill="url(#F)"/><path d="M50.291 29.015V15.417q0-.52-.492-.818L31.109 3.302q-.492-.297-.492.297v13.51l19.674 11.906" class="M"/><path d="M1e-13 1e-13L0 1.6525670450184q0 .5946265572326.4918682712603.8919103141251L19.182338602764 13.841998164154Q19.6742068740243 14.1393114427702 19.6742068740243 13.5447144072615V11.9055207030448L0 .0000295217238" transform="translate(30.617 17.109)" class="Q"/><path d="M31.32 16.83V4.173l18.269 11.043V27.83z" class="P"/><path d="M43.877 41.468q-.127 0-.254-.073l-4.456-2.543q-.217-.145-.217-.509l4.926 2.798z" class="E"/></g><g transform="translate(43.878 36.889)"><path d="M0 4.578q.127 0 .254-.073L7.245.509Q7.462.363 7.462 0L0 4.287z" class="B I"/></g><path d="M43.624 41.104l-4.564-2.616q-.254-.145 0-.291l7.1-4.069q.254-.145.507 0l4.564 2.616q.254.145 0 .291l-7.1 4.069q-.254.145-.507 0" class="B L"/><g transform="translate(39.567 34.273)"><path d="M11.41 2.616L4.564 6.54 0 3.924 6.846 0z" class="B P"/></g><g transform="matrix(.866025 .5 -.5 .866025 41.483421 39.407784)"><ellipse cx=".181" cy=".145" rx=".181" ry=".145" class="B E"/></g><g class="B"><path d="M37.926 50.482l-.494-.3-.099.601z" class="K"/><path d="M18.25 25.999c.065.6.034.954.088 1.671-2.004.775-3.075.266-4.405-.623.062-.708-.046-1.489-.046-1.489-.637-.769-1.426-3.155-1.196-4.442.251-1.523.852-2.362 1.306-2.857.961-.926 1.744-1.155 3.825-.794.461.1.863.194 1.478.545.387.272.558 1 .702 1.369.07.541-.024.949-.018 1.543.181.61.986.799.489 1.112.404.748-.251 3.543-.31 3.538-.38.323-1.206.37-1.915.427z" class="H"/><path d="M17.825 24.055c.163.089.288.051.424-.045.014-.418-.134-.925-.042-1.449.025-.476.228-.62.551-1.104.286-.61-.36-1.325-.268-1.849.714-1.015.944-.975 1.386-1.798.35-.299-1.533-1.412-4.005-1.547-1.366-.001-2.553.331-3.039.725-.632.549-.693.899-.681 1.502-.041.233-.706.296-.864 1.529-.121 1.36 1.217 3.878 2.269 5.325 1.405.597 1.936-.199 2.798-.708.533-.326.701-1.618 1.156-1.838.257.226.395.79.313 1.256z" fill="#795548"/><path d="M36.805 62.667c-.357 1.395-.307 2.172-.083 2.964.234.674.743.897 1.558.968 2.033.237 2.609-.307 2.825-.763 1.593-.098 3.866-1.266 5.277-2.628.512-.49.665-.893.711-1.423.026-.295-.055-.718-1.336-.83-.355.028-1.847.314-3.191.256-.826.047-1 .031-1.524-.015-1.601-.14-2.803 1.181-3.347 1.371-.312.21-.652-.592-.889.1z" class="M"/><path d="M37.124 61.621c.058.005-.035 1.067.024 1.072.318.384.647.651 2.298.558 1.069-.144 1.434-.29 1.84-.909l-.003-1.307c-2.038-.178-3.885.135-4.159.587z" class="H"/><path d="M14.646 48.766c-.35 1.56.234 2.843.935 3.317 1.128 1.054 3.413.561 5.669-.282l5.262-2.74c3.759-2.108 5.074-4.005 5.168-2.635-.282 5.797-.023 7.461-.444 12.055.94.632 1.478.487 2.324.592 1.222-.105 1.582-.693 2.334-1.641l.718-11.648c0-1.265-1.266-2.836-1.642-3.257-.752-.527-1.316-.632-2.819-.632-4.419.711-5.354 1.185-7.987 1.897-3.909 1.42-7.449 3.499-9.516 4.975z" fill="#4f4f4f"/><path d="M14.646 50.899c.234 1.896.935 2.37 2.103 3.554 1.869.474 3.972.948 6.776 0l6.542-3.08c4.673-2.37 6.309-4.384 6.192-2.37-.35 6.516.117 7.346-.117 12.796 1.168.711 1.636.711 2.687.829 1.519-.118 1.986-.118 2.921-1.185V47.226c0-1.422-.701-2.488-1.168-2.962-.935-.592-1.402-1.185-3.271-1.185-6.309.237-8.411 1.185-10.748 2.37-6.133 0-13.552-.948-11.916 5.45z" class="J"/><path d="M25.15 58.177l-1.82-3.657 11.486-5.945 3.097 1.898z" class="K"/></g><g class="B"><path d="M26.8 41.658l6.102-2.305 20.266 11.769v5.924L27.996 42.508" fill="#7696ad"/><path d="M53.167 58.527L25.962 42.751l.837-.971 26.368 15.266v1.481" class="O"/><path d="M21.668 34.226q3.445 2.317 8.322 4.934 1.089.338 2.319-.354 2.866-2.585 5.878-4.652.602-.413 1.067-1.366-.854-.269-1.551-.208-3.169 1.479-6.448 3.359-3.544-1.776-6.156-4.961" class="H"/><path d="M40.858 31.912q.028-.016.008.119" fill-opacity=".56" class="F"/></g><path d="M42.157 31.462c0 0-.004.045-.004.045" fill="none" stroke="#cfd8dc" stroke-linecap="square" stroke-linejoin="miter"/><g class="B"><path d="M38.639 32.055q-.104.371.079.532l.781.575q.262.168.601-.02l2.711-1.356c.317-.153.068-.266.13-.26z" fill="#bdbdbd"/><path d="M39.04 32.787c.225.183.5.415.961.356.638-.243 1.224-.907 1.336-.969.151-.095.725-.525 1.48-.459.145-.024.19-.128.09-.209-.215-.2-.781-.729-1.329-.804-.84-.001-1.14.154-1.362.243-1.341.507-1.569.967-1.584 1.147-.02.225-.006.325.045.402.125.156.18.142.363.294z" fill="#607d8b"/><path d="M39.027 32.722c.283.242.59.414.981.33.598-.192 1.195-.882 1.307-.945.151-.095.769-.512 1.523-.446.145-.024.135-.115.035-.196-.215-.2-.723-.733-1.27-.808-.84-.001-1.106.16-1.344.235-1.341.507-1.569.967-1.584 1.147-.02.225.018.295.054.389.11.173.191.185.297.294z" fill="#455a64"/><path d="M41.612 31.03c.019.027.041.049.077.051.056-.003.136-.023.147-.026s.09-.015.127-.032c-.007-.034-.038-.091-.083-.11-.072-.019-.099-.013-.121-.011-.127.012-.157.046-.162.061s-.006.027-.005.035c.007.016.013.019.02.031zm-.903 1.165c.478-.365.979-.632 1.424-.632-.4-.09-.801.135-.979.226-.356.226-.311.316-.445.406z" fill="#eee"/><path d="M38.209 34.079c.159-.051.205-.133.372-.295.518-.1.304-.038.935-.295.4-.2.56-.408.642-.71.201.019.255-.051.771-.17.221.036.244.089.599.003.12-.084.109-.212-.037-.217-.324.028-.298-.084-.591-.114-.306.027-.287.043-.616.017.226-.112.184-.181.704-.245.349.043.371.096.732.065.126-.011.177-.109.19-.165-.109-.211-.563-.152-.813-.314-.056-.014-.111-.027-.219-.018.305-.045.246-.095.498-.117.411.129.402.24.78.207.07-.025.111.027.169-.143.028-.094-.083-.121-.23-.145-.277-.049-.459-.272-.752-.302-.435.001-.644.111-1.04.146.315-.138.266-.281.77-.325.324-.028.459-.15.786-.142.108-.009.243-.131.197-.238-.114-.063-.186-.057-.331-.045-.619-.019-.619-.019-1.261.11-.587.345-.77.325-1.39.71-.676.574-.916 1.081-1.549 1.32.422.257.321 1.452.681 1.421z" class="H"/><g fill="#eee"><path d="M41.624 30.512c-.021-.041-.035.125-.035.125.086.055.238.045.391.01.03.003.064-.042.04-.116-.088-.032-.243-.054-.397-.02zm.369.879l-.036.134c.06.057.183.07.311.063.024.006.06-.048.052-.112-.065-.038-.199-.091-.327-.085z"/><path d="M41.517 31.799l-.03.172c.064.062.19.059.32.031.031-.033.053-.039.042-.117-.069-.037-.201-.114-.332-.086z"/><path d="M41.302 32.379v.11c.054.032.143.016.233-.016.018 0 .036-.032.018-.079a.43.43 0 0 0-.25-.016z"/></g><path d="M10.207 35.378c.234.355.473 1.549 1.758 1.549.467.711 1.981 4.731 2.331 8.522.117.711.117 1.896.35 3.08.234 2.251 3.505 1.659 4.673 1.422 2.456 1.657 5.327-.527 7.242-4.409-.718-4.125-3.111-8.008-.718-7.037 1.519-1.185 3.757-4.429 3.056-5.496-1.402-1.303-3.774-2.512-5.209-3.24-1.168-.592-6.461-3.64-9.511-3.513-1.402 0-2.103.474-2.804 2.014-.467 1.066-1.402 3.91-1.168 7.109z" fill="#607d8b"/><path d="M24.774 61.976l13.116-7.975v-3.545l-13.116 7.975-7.287-18.609-2.915 1.772 7.287 18.609q1.041 2.88 2.915 1.772" fill="#f5eea3"/></g><path d="M2.915 30.962l14.573 8.861-2.915 1.772L0 32.734z" class="B K"/><path d="M23.317 62.198L8.744 53.337q-.864-.346-1.457-1.994L0 32.734l14.573 8.861 7.287 18.609q.593 1.648 1.457 1.994" fill="#ebe6ad" class="B"/><path d="M23.317 53.559q.729 0 1.457-.443l11.658-7.089q.729-.443.729-.886v-1.329q0 .443-.729.886l-11.658 7.089q-.729.443-1.457.443z" class="B F"/><path d="M24.774 51.785q-1.457.886-2.915 0-1.457-.886 0-1.772l11.658-7.089q1.457-.886 2.915 0 1.457.886 0 1.772z" class="B N"/><g class="B"><path d="M23.354 53.562q-.75 0-1.466-.476-.75-.439-.75-.879V50.89q0 .439.75.879.716.457 1.466.457z" class="G"/><path d="M33.691 32.659l-12.898-7.512 5.427-3.108 12.898 7.447z" fill="#eceff1"/><g class="E"><path d="M39.175 29.497l-5.496 3.213v.525l5.496-3.213z"/><path d="M33.68 33.234v-.525l-13.061-7.606v.525l13.061 7.606"/></g><path d="M33.68 32.71l-13.061-7.606 5.496-3.147 13.061 7.541zm-8.018-4.984l4.397 2.557.776-.459-4.397-2.557zM37.43 29.3l.776.459.453-.262-.776-.459zm-.905-.525l.776.459.453-.262-.776-.459zm-.905-.525l.776.459.453-.262-.776-.459zm-.905-.525l.776.459.453-.262-.776-.459zm-.905-.525l.776.459.453-.262-.776-.459zm-.905-.525l.776.459.453-.262-.776-.459zm-.905-.525l.776.459.453-.262-.776-.459zm-.905-.525l.776.459.453-.262-.776-.459zm-.905-.525l.776.459.453-.262-.776-.459zm-.905-.525l.776.459.453-.262-.776-.459zm-.905-.525l.776.459.453-.262-.776-.459zm-.905-.525l.776.459.453-.262-.776-.459zm-.905-.525l.776.459.453-.262-.776-.459zm-.905-.525l.776.459.453-.262-.776-.459zm10.281 7.016l1.358.787.776-.459-1.358-.787zm-.905-.525l.776.459.776-.459-.776-.459zm-.905-.525l.776.459.776-.459-.776-.459zm-.905-.525l.776.459.776-.459-.776-.459zm-.905-.525l.776.459.776-.459-.776-.459zm-.905-.525l.776.459.776-.459-.776-.459zm-.905-.525l.776.459.776-.459-.776-.459zm-.905-.525l.776.459.776-.459-.776-.459zm-.905-.525l.776.459.776-.459-.776-.459zm-.905-.525l.776.459.776-.459-.776-.459zm-.905-.525l.776.459.776-.459-.776-.459zm-.905-.525l.776.459.776-.459-.776-.459zm-1.229-.721l1.099.656.776-.459-1.099-.656zm10.733 7.279l.905.525.776-.459-.905-.525zm-.905-.525l.776.459.776-.459-.776-.459zm-.905-.525l.776.459.776-.459-.776-.459zm-.905-.525l.776.459.776-.459-.776-.459zm-.905-.525l.776.459.776-.459-.776-.459zm-.905-.525l.776.459.776-.459-.776-.459zm-.905-.525l.776.459.776-.459-.776-.459zm-.905-.525l.776.459.776-.459-.776-.459zm-.905-.525l.776.459.776-.459-.776-.459zm-.905-.525l.776.459.776-.459-.776-.459zm-.905-.525l.776.459.776-.459-.776-.459zm-.905-.525l.776.459.776-.459-.776-.459zm-.905-.525l.776.459.776-.459-.776-.459zm-.776-.459l.647.393.776-.459-.647-.393zm9.375 6.492l.776.459.776-.459-.776-.459zm.905.525l1.358.787.776-.459-1.358-.787zm-1.81-1.049l.776.459.776-.459-.776-.459zm-.905-.525l.776.459.776-.459-.776-.459zm-1.81-1.049l.776.459.776-.459-.776-.459zm.905.525l.776.459.776-.459-.776-.459zm-2.716-1.574l.776.459.776-.459-.776-.459zm.905.525l.776.459.776-.459-.776-.459zm-2.716-1.574l.776.459.776-.459-.776-.459zm.905.525l.776.459.776-.459-.776-.459zm-2.716-1.574l.776.459.776-.459-.776-.459zm.905.525l.776.459.776-.459-.776-.459zm-2.134-1.246l1.099.656.776-.459-1.099-.656zm9.957 6.82l1.681.984.776-.459-1.681-.984zm-.905-.525l.776.459.776-.459-.776-.459zm-.905-.525l.776.459.776-.459-.776-.459zm-.905-.525l.776.459.776-.459-.776-.459zm-.905-.525l.776.459.776-.459-.776-.459zm-.905-.525l.776.459.776-.459-.776-.459zm-.905-.525l.776.459.776-.459-.776-.459zm-.905-.525l.776.459.776-.459-.776-.459zm-.905-.525l.776.459.776-.459-.776-.459zm-.905-.525l.776.459.776-.459-.776-.459zm-.905-.525l.776.459.776-.459-.776-.459zm-1.81-1.049l1.681.984.776-.459-1.681-.984zm-.905.525l.776.459.776-.459-.776-.459zm.905.525l.776.459.776-.459-.776-.459zm.905.525l.776.459.776-.459-.776-.459zm.905.525l.776.459.776-.459-.776-.459zm.905.525l.776.459.776-.459-.776-.459zm5.431 3.147l.776.459.776-.459-.776-.459zm2.263.787l.776.459.323-.197-.776-.459zm-.453.262l.776.459.323-.197-.776-.459zm.905.525l.776.459.323-.197-.776-.459zm-1.81-1.049l.776.459.323-.197-.776-.459z" class="J"/></g></symbol></svg>