<svg xmlns="http://www.w3.org/2000/svg" xmlns:xlink="http://www.w3.org/1999/xlink" viewBox="0 0 81 68" fill="#fff" fill-rule="evenodd" stroke="#000" stroke-linecap="round" stroke-linejoin="round"><use xlink:href="#A" x=".5" y=".5"/><symbol id="A" overflow="visible"><g stroke="none" fill-rule="nonzero"><path d="M35.722.844L5.896 13.186c-1.659.686-1.641 3.042.028 3.704l29.951 11.877c2.632 1.044 5.562 1.044 8.194 0L74.02 16.89c1.669-.662 1.686-3.017.027-3.704L44.221.844c-2.721-1.126-5.778-1.126-8.499 0" fill="#ffbf00"/><path d="M42.629 35.254v29.671a2 2 0 0 0 2.735 1.858l33.374-12.954A2 2 0 0 0 80 51.97V22.299a2 2 0 0 0-2.735-1.858L43.891 33.396a2 2 0 0 0-1.262 1.858" fill="#26b5f8"/><path d="M34.836 36.784l-9.905 4.782-1.006.486L3.017 52.071C1.692 52.71 0 51.744 0 50.272V22.423c0-.533.273-.993.639-1.339a2.27 2.27 0 0 1 .506-.379c.5-.3 1.212-.38 1.818-.14l31.706 12.562c1.612.639 1.738 2.898.166 3.657" fill="#ed3049"/><path d="M34.836 36.784l-9.905 4.782L.639 21.084a2.27 2.27 0 0 1 .506-.379c.5-.3 1.212-.38 1.818-.14l31.706 12.562c1.612.639 1.738 2.898.166 3.657" fill="#000" fill-opacity=".25"/></g></symbol></svg>