<svg xmlns="http://www.w3.org/2000/svg" xmlns:xlink="http://www.w3.org/1999/xlink" viewBox="0 0 81 55" fill="#fff" fill-rule="evenodd" stroke="#000" stroke-linecap="round" stroke-linejoin="round"><use xlink:href="#A" x=".5" y=".5"/><symbol id="A" overflow="visible"><path d="M8.415 44.93c.678 0 1.32.162 1.641.487.053.505-.393 1.317-.678 1.317-.339-.126-.66-.199-1.052-.199-1.623 0-2.425 1.695-2.425 3.372 0 1.046.357 1.677 1.177 1.677.874 0 1.765-.595 2.265-1.046.125.09.285.379.285.703 0 .361-.107.703-.428 1.028-.571.577-1.534 1.064-2.925 1.064-1.605 0-2.71-.92-2.71-3.066 0-2.813 1.837-5.337 4.833-5.337h.018zm5.241 6.564c.874 0 2.461-1.551 2.907-4.508.018-.18.036-.234.071-.415a2.22 2.22 0 0 0-.731-.126c-.66 0-1.337.198-1.944 1.028-.624.883-.892 1.983-.892 2.867 0 .757.214 1.154.571 1.154h.018zm-2.871-.811c0-1.064.357-2.921 1.694-4.274 1.141-1.19 2.532-1.479 3.799-1.479.838 0 1.979.27 2.693.415-.178.793-.606 3.786-.802 5.517-.089.74-.125 1.767-.089 2.146-.588.252-1.694.325-1.998.325-.16 0-.196-.739-.142-1.442l.071-.721c-.695 1.172-2.068 2.164-3.513 2.164-1.034 0-1.712-.865-1.712-2.632v-.018zm12.626-5.753c.731 0 1.427.27 1.748.613-.018.505-.41 1.352-1.035 1.118-.267-.09-.535-.162-.892-.162-.481 0-.892.216-.892.667 0 .343.25.595 1.444 1.443.856.631 1.195 1.19 1.195 1.983 0 1.317-1.231 2.741-3.371 2.741-.874 0-1.641-.343-1.891-.703-.321-.541-.071-1.605.286-1.425.464.234 1.23.487 1.854.487.588 0 .963-.271.963-.631 0-.306-.267-.577-1.355-1.352-.91-.685-1.195-1.316-1.195-2.037 0-1.497 1.266-2.741 3.121-2.741h.018zm6.151 0c.731 0 1.427.27 1.748.613-.018.505-.41 1.352-1.034 1.118-.268-.09-.535-.162-.892-.162-.481 0-.892.216-.892.667 0 .343.25.595 1.444 1.443.856.631 1.195 1.19 1.195 1.983 0 1.317-1.231 2.741-3.371 2.741-.874 0-1.641-.343-1.89-.703-.321-.541-.071-1.605.285-1.425.464.234 1.23.487 1.854.487.588 0 .963-.271.963-.631 0-.306-.267-.577-1.355-1.352-.909-.685-1.195-1.316-1.195-2.037 0-1.497 1.266-2.741 3.121-2.741h.017zm5.616 6.564c.874 0 2.461-1.551 2.907-4.508.018-.18.036-.234.072-.415-.197-.072-.464-.126-.731-.126-.66 0-1.337.198-1.944 1.028-.624.883-.892 1.983-.892 2.867 0 .757.214 1.154.571 1.154h.018zm-2.871-.811c0-1.064.357-2.921 1.694-4.274 1.141-1.19 2.532-1.479 3.799-1.479.838 0 1.98.27 2.693.415-.178.793-.606 3.786-.802 5.517-.09.74-.125 1.767-.09 2.146-.588.252-1.694.325-1.997.325-.16 0-.196-.739-.143-1.442l.071-.721c-.695 1.172-2.069 2.164-3.513 2.164-1.035 0-1.713-.865-1.713-2.632v-.018zm12.216-3.409c.821-1.334 1.89-2.344 3.388-2.344 1.266 0 1.676 1.19 1.445 2.885l-.482 2.975c-.125.884-.214 1.677-.196 2.218-.464.234-1.819.325-2.122.325-.125 0-.143-.992.018-2.038l.588-3.336c.09-.523.071-1.154-.428-1.154-.66 0-2.229 1.064-3.014 5.428-.054.361-.196.577-.393.703-.267.163-.838.307-1.997.325l.802-5.013c.231-1.515.321-2.489.267-2.867a19 19 0 0 1 2.068-.451c.197 0 .232.559.054 1.912l-.054.432h.054zm9.058 4.202c.784 0 2.372-1.479 2.817-4.093.018-.144.072-.415.107-.577-.232-.216-.535-.361-1.016-.361-1.802 0-2.604 2.182-2.604 3.751 0 .847.286 1.28.678 1.28h.018zm-1.177 1.857c-1.141 0-1.854-1.028-1.854-2.795 0-2.921 1.801-5.608 4.832-5.608.535 0 1.016.144 1.32.325.16-.829.535-3.39.553-4.147.499-.09 1.569-.252 2.05-.252.197 0 .25.198.179.649l-1.337 9.052c-.107.974-.125 1.929-.107 2.47-.57.252-1.73.307-2.032.307-.126 0-.196-.829-.161-1.569l.054-.631c-.892 1.478-2.122 2.2-3.478 2.2h-.017zm10.449-5.806c.945-2.128 2.068-2.597 2.8-2.597.232 0 .588.144.749.325.072.595-.392 1.785-.802 2.236-.214-.108-.481-.216-.785-.216-.607 0-1.801.956-2.55 5.067-.054.343-.16.487-.356.577-.303.18-1.498.325-2.068.343l.909-6.257c.054-.451.071-1.28.036-1.605.339-.162 1.677-.469 1.979-.469.161 0 .286.992.035 2.597h.054zm6.294 3.967c.874 0 2.461-1.551 2.907-4.508.018-.18.036-.234.071-.415a2.22 2.22 0 0 0-.731-.126c-.66 0-1.337.198-1.944 1.028-.624.883-.892 1.983-.892 2.867 0 .757.214 1.154.571 1.154h.017zm-2.871-.811c0-1.064.357-2.921 1.694-4.274 1.141-1.19 2.532-1.479 3.799-1.479.838 0 1.979.27 2.693.415-.179.793-.607 3.786-.803 5.517-.089.74-.125 1.767-.089 2.146-.588.252-1.694.325-1.998.325-.16 0-.196-.739-.143-1.442l.072-.721c-.696 1.172-2.068 2.164-3.513 2.164-1.035 0-1.713-.865-1.713-2.632v-.018z" fill="#373535" stroke="none"/><path d="M63.911 14.373c.588 6.931-10.199 13.528-24.095 14.734S14.18 25.669 13.592 18.739 23.791 5.21 37.687 4.004s25.637 3.437 26.224 10.369" fill="#bbe6fb" stroke="none"/><path d="M38.094 4.818c-5.3-.087-11.503 2.041-16.118 4.034a13.62 13.62 0 0 0-.739 4.431c0 8.222 7.342 14.888 16.4 14.888s16.4-6.666 16.4-14.888c0-2.602-.737-5.047-2.029-7.175-3.692-.58-8.771-1.205-13.913-1.29" stroke="none"/><path d="M37.637 4.816c-2.934-.181-7.992 1.367-12.21 2.911-.641 1.529-.997 3.203-.997 4.959 0 7.204 6.46 13.044 13.293 13.044 6.788 0 12.794-5.849 13.293-13.044.162-2.343-.636-4.55-1.743-6.454a112.77 112.77 0 0 0-11.636-1.416" stroke="none"/><path d="M30.107 11.74c.36-.806.905-1.201 1.434-1.877-.059-.16-.187-.683-.187-.865a1.46 1.46 0 0 1 1.451-1.467 1.43 1.43 0 0 1 .535.104 10.48 10.48 0 0 1 8.741-1.939l.854.234c-3.14-.44-6.68.684-9.087 2.649.074.175.278.677.278.879 0 .81-.519 1.007-1.32 1.007-.182 0-.356-.035-.517-.097-.544.738-1.21 2.145-1.536 3.025 1.331 1.204 2.534 1.641 4.102 2.233-.004-.075.054-.145.054-.222 0-2.443 2.127-4.428 4.543-4.428 2.165 0 3.958 1.592 4.308 3.68 1.08-.695 2.125-1.228 2.921-2.258-.186-.229-.386-.878-.386-1.197 0-.735.59-1.331 1.317-1.331a1.3 1.3 0 0 1 .298.038c.404-.84.709-1.73.904-2.648-3.778-2.828-11.088-2.442-11.088-2.442s-5.817-.307-9.755 1.634c.263 1.92 1.02 3.745 2.138 5.289m18.055-1.103a2.46 2.46 0 0 1 .528.665c.353.642-.356 1.23-1.083 1.23-.074 0-.145-.01-.216-.022-.819 1.294-2.254 2.954-3.528 3.79 1.954.324 3.797 1.115 5.264 2.338 1.068-1.935 1.887-4.729 1.887-7.102 0-1.806-.789-3.131-1.979-4.102-.062.968-.573 2.321-.872 3.203M32.299 22.893c.651-1.818 2.253-3.227 3.768-4.467-.222-.307-.554-1.067-.693-1.427a10.59 10.59 0 0 1-4.752-3.04l-.03.122c-.239 1.082-.283 2.167-.164 3.224.885.167 1.555.951 1.555 1.894 0 .559-.485 1.37-.861 1.723a9.05 9.05 0 0 0 1.177 1.971m-.115 1.527c-.777-.781-1.314-2.339-1.818-3.317a1.84 1.84 0 0 1-.29.025c-1.054 0-2.157-.894-1.908-1.929.138-.572.529-.947 1.165-1.259-.145-1.186-.184-2.891.088-4.123.078-.353.243-.518.353-.854-1.162-1.72-1.914-3.978-1.914-6.218l.006-.244c-1.964.996-3.437 2.566-3.437 5.036 0 5.465 3.113 10.825 7.744 12.927l.01-.044m11.389-7.555c-.598 1.721-2.217 2.957-4.124 2.957a4.32 4.32 0 0 1-2.7-.947c-1.533 1.207-2.924 3.328-3.631 5.168.317.345.538.629.894.935 1.073.282 2.55 0 3.711 0 4.67 0 8.805-2.101 11.177-5.784-1.577-1.104-3.436-2.155-5.327-2.33" stroke="none" fill="#373535"/><path d="M29.987 12.378a10.71 10.71 0 0 1 1.339-2.228 1.48 1.48 0 0 1-.093-.514 1.46 1.46 0 0 1 1.451-1.467 1.43 1.43 0 0 1 .535.104 10.48 10.48 0 0 1 8.741-1.939l.854.234c-3.14-.44-6.385.533-8.793 2.498a1.47 1.47 0 0 1 .114.57 1.46 1.46 0 0 1-1.451 1.467c-.182 0-.356-.035-.517-.097a9.91 9.91 0 0 0-1.315 2.434c1.143 1.246 2.547 2.231 4.114 2.824l-.012-.227c0-2.443 1.958-4.423 4.374-4.423 2.165 0 3.958 1.592 4.308 3.68 1.08-.695 2.04-1.587 2.836-2.617a1.32 1.32 0 0 1-.301-.837c0-.735.59-1.331 1.317-1.331a1.3 1.3 0 0 1 .298.038c.404-.84.709-1.73.904-2.648-3.778-2.828-11.088-2.442-11.088-2.442s-5.817-.307-9.755 1.634c.263 1.92 1.02 3.745 2.138 5.289m18.383-1.524a1.33 1.33 0 0 1 .438.985c0 .735-.59 1.332-1.317 1.332-.074 0-.145-.01-.216-.022a10.72 10.72 0 0 1-3.18 3.233c1.884.298 3.658 1.106 5.124 2.329a13.49 13.49 0 0 0 1.678-6.537c0-1.806-.789-3.131-1.979-4.102-.062.968-.25 1.9-.549 2.782M32.5 23.33a10.73 10.73 0 0 1 3.298-4.689c-.222-.307-.405-.643-.543-1.003a10.59 10.59 0 0 1-4.752-3.04l-.03.122c-.239 1.082-.283 2.167-.164 3.224.885.167 1.555.951 1.555 1.894 0 .559-.237 1.062-.614 1.415a11.6 11.6 0 0 0 1.25 2.077m-.321 1.067a10.72 10.72 0 0 1-1.932-2.656 1.85 1.85 0 0 1-.29.024c-1.054 0-1.908-.864-1.908-1.929a1.93 1.93 0 0 1 1.076-1.734 10.81 10.81 0 0 1 .177-3.649l.283-1.033a10.75 10.75 0 0 1-1.843-6.039l.006-.243c-1.964.996-3.437 2.566-3.437 5.036 0 5.465 3.228 10.165 7.859 12.266l.01-.044m11.273-6.892c-.599 1.721-2.217 2.957-4.124 2.957a4.32 4.32 0 0 1-2.7-.947c-1.533 1.207-2.69 2.853-3.397 4.693.317.345.656.671 1.012.976 1.073.282 2.198.434 3.359.434 4.67 0 8.775-2.438 11.146-6.121-1.577-1.104-3.406-1.818-5.297-1.993" stroke="none" fill="#1287b1"/><path d="M43.607 16.363l4.041-.975-4.057-.209 3.301-2.551-3.746 1.358 2.546-3.567-3.516 2.363 1.229-4.176-2.415 3.442-.055-4.349-1.589 3.874-1.325-3.921.072 4.618-2.289-4.14 1.239 4.396-3.714-2.731 2.909 3.696-4.611-1.714 3.639 2.722-4.666.145 4.771 1.245-4.775 1.044 4.713.346-3.975 2.573 4.093-1.5-2.84 3.637 3.588-2.926-1.292 4.88 2.77-3.971-.388 4.69 1.573-4.252 1.338 4.469.325-4.482 1.987 3.824-1.174-4.374 3.638 2.85-2.349-3.633 3.991 1.572-3.052-3.032 4.092.325-4.031-1.564z" stroke="none"/><g fill="#373535"><path d="M.58 24.183C13.114 11.509 23.125 7.597 32.21 5.811c1.202-.236 1.43-2.892 1.43-2.892s.168 1.956 1.01 2.211 1.934-3.062 1.934-3.062-1.009 2.977 0 3.147 2.86-2.892 2.86-2.892-.757 2.637-.252 2.807 3.028-3.827 3.028-3.827-1.514 2.637-.084 2.892 3.517-1.8 3.517-1.8-1.641 1.88-.909 2.14c3.113 1.106 5.631-2.984 5.631-2.984s-.584 1.794-2.098 3.75c3.28.85 5.717-4.147 5.717-4.147L51.557 6.15c1.262.681 6.31-5.188 6.31-5.188s-2.608 4.593-4.122 5.529c.841.681 3.869-2.041 3.869-2.041s-2.44 3.062-1.514 3.232c1.346 1.106 6.309-5.699 6.309-5.699s-1.934 3.998-4.795 7.145c2.391 1.209 8.328-6.55 8.328-6.55s-.168 2.467-4.459 6.379c3.197-.425 7.319-6.55 7.319-6.55s-1.514 4.593-5.132 7.825c3.139-.33 8.16-8.166 8.16-8.166s-1.934 5.444-5.888 8.591c4.374.978 10.683-5.614 10.683-5.614s-2.482 4.679-5.721 6.592c3.618 1.403 8.581-4.381 8.581-4.381s-4.963 7.741-12.87 7.4c-2.595-.112-10.442-7.959-27.256-7.315C17.152 8.192 12.441 17.719.58 24.183" stroke="none"/><path d="M1.094 23.22C13.628 10.547 23.638 6.634 32.724 4.848c1.203-.236 1.43-2.892 1.43-2.892s.168 1.957 1.01 2.211 1.934-3.062 1.934-3.062-1.009 2.977 0 3.147 2.86-2.892 2.86-2.892-.757 2.637-.253 2.807S42.734.34 42.734.34s-1.514 2.637-.084 2.892 3.517-1.799 3.517-1.799-1.64 1.88-.909 2.14c3.112 1.105 5.63-2.986 5.63-2.986s-.584 1.794-2.097 3.75c3.28.851 5.717-4.147 5.717-4.147l-2.437 4.998C53.333 5.869 58.38 0 58.38 0s-2.607 4.593-4.121 5.528c.841.681 3.869-2.041 3.869-2.041s-2.44 3.062-1.514 3.232c1.346 1.106 6.309-5.699 6.309-5.699s-1.935 3.998-4.795 7.145c2.391 1.21 8.328-6.55 8.328-6.55s-.168 2.467-4.459 6.38c3.197-.426 7.319-6.55 7.319-6.55s-1.514 4.593-5.132 7.826c3.139-.33 8.159-8.166 8.159-8.166s-1.934 5.444-5.888 8.591c4.374.978 10.683-5.613 10.683-5.613s-2.482 4.678-5.721 6.592C75.037 12.078 80 6.294 80 6.294s-4.963 7.741-12.871 7.4c-2.594-.112-10.442-7.959-27.255-7.315-22.208.85-26.918 10.377-38.779 16.841m-.843 2.349c6.624 3.36 12.682-.51 20.315 1.665 5.804 1.654 12.87 3.694 22.46 2.29s17.792-5.614 21.704-13.142c1.22-3.359 6.182.766 6.182.766s-3.617-1.531-3.533-.808 5.426 3.232 5.426 3.232-4.837-1.531-4.543-.383 6.056 5.742 6.056 5.742-6.519-5.018-7.065-4.338 2.776 3.445 2.776 3.445-5.51-3.445-7.445-2.429c-1.392.73 5.721 5.449 5.721 5.449s-4.627-3.573-5.721-2.637 5.216 8.591 5.216 8.591-7.151-7.826-7.865-7.443 1.976 4.126 1.976 4.126-3.533-3.913-4.5-3.232 5.047 10.845 5.047 10.845-6.519-10.419-9.211-8.676c4.227 9.378 2.65 10.718 2.65 10.718s-.539-9.567-5.805-9.314c-2.65.128 1.262 7.145 1.262 7.145s-3.6-6.409-5.998-6.281c4.419 8.456 2.844 11.895 2.844 11.895s.731-7.222-5.263-11.241c2.271 2.041-1.425 11.241-1.425 11.241s3.251-13.557-2.398-10.972c-.893.408-.063 6.762-.063 6.762s-1.136-7.273-2.839-6.89c-.993.223-6.309 10.079-6.309 10.079s4.354-10.654 3.029-10.207c-.965.326-2.776 4.721-2.776 4.721s.883-4.338 0-4.593-5.805 4.593-5.805 4.593 3.66-4.338 3.028-5.231c-.956-1.353-2.077-1.417-3.407-.893-1.935.763-4.542 4.338-4.542 4.338s2.599-3.62 2.145-4.976c-.729-2.179-8.201 4.21-8.201 4.21s4.416-4.21 3.407-5.104-6.49-.617-8.202-.622c-5.047-.016-6.796-1.213-8.328-2.44" stroke="none"/><path d="M0 24.803c6.624 3.36 12.681-.51 20.315 1.666 5.804 1.654 12.871 3.693 22.46 2.29s17.791-5.614 21.703-13.141c1.22-3.36 6.182.765 6.182.765s-3.617-1.531-3.533-.808 5.426 3.232 5.426 3.232-4.837-1.531-4.543-.382 6.057 5.741 6.057 5.741-6.52-5.019-7.066-4.338 2.776 3.445 2.776 3.445-5.51-3.445-7.445-2.429c-1.392.73 5.72 5.449 5.72 5.449s-4.627-3.573-5.72-2.637 5.216 8.591 5.216 8.591-7.151-7.826-7.866-7.443 1.977 4.125 1.977 4.125-3.534-3.913-4.501-3.232 5.047 10.845 5.047 10.845-6.519-10.42-9.211-8.676c4.227 9.378 2.65 10.718 2.65 10.718s-.539-9.567-5.805-9.314c-2.65.128 1.262 7.145 1.262 7.145s-3.6-6.409-5.997-6.282c4.419 8.456 2.843 11.896 2.843 11.896s.731-7.222-5.263-11.241c2.271 2.041-1.425 11.241-1.425 11.241s3.252-13.557-2.397-10.972c-.893.408-.063 6.762-.063 6.762s-1.136-7.273-2.839-6.89c-.993.223-6.31 10.079-6.31 10.079s4.354-10.654 3.029-10.207c-.965.325-2.776 4.72-2.776 4.72s.883-4.338 0-4.593-5.804 4.593-5.804 4.593 3.66-4.338 3.028-5.231c-.956-1.353-2.077-1.417-3.407-.893-1.936.762-4.543 4.337-4.543 4.337s2.599-3.62 2.145-4.976c-.73-2.178-8.201 4.21-8.201 4.21s4.416-4.21 3.407-5.103-6.49-.617-8.202-.622C3.281 27.227 1.532 26.03 0 24.803" stroke="none"/></g></symbol></svg>