<svg xmlns="http://www.w3.org/2000/svg" xmlns:xlink="http://www.w3.org/1999/xlink" viewBox="0 0 75 82" fill="#fff" fill-rule="evenodd" stroke="#000" stroke-linecap="round" stroke-linejoin="round"><use xlink:href="#B" x=".5" y=".5"/><defs><linearGradient x1="-2.58735955%" y1="59.8316302%" x2="97.6946629%" y2="41.1810219%" id="A"><stop stop-color="#f7962f" stop-opacity=".96" offset="0%"/><stop stop-color="#d64626" stop-opacity=".96" offset="35.63%"/><stop stop-color="#d04730" stop-opacity=".966" offset="45.19%"/><stop stop-color="#bf4949" stop-opacity=".976" offset="61.16%"/><stop stop-color="#a44c73" stop-opacity=".989" offset="81.44%"/><stop stop-color="#87509f" offset="100%"/></linearGradient></defs><symbol id="B" overflow="visible"><g stroke="none" fill-rule="nonzero"><path d="M48.819 9.044l13.403 7.671v5.73l3.333 1.8V41.2L62.222 43v6.111l5.556 3L73.333 49v-6l-5.556-3V25.444l5.556-3.111v-5.889l-5.556-3.111-3.596 1.942-15.293-8.752V3.111l-5-3.111-5 3v6.111l5 3 4.93-3.068z" fill="#ad688a"/><path d="M6.667 24.844V40.6l4.444 2.4v6.111l-5.556 3L0 49v-6l3.333-1.8v-17L0 22.333v-5.889l5.556-3.111 3.753 2.027 12.914-7.39V3.111L27.778 0l5.556 3v6.111l-5.556 3-4.204-2.354-12.462 7.132v5.556l-4.444 2.4z" fill="#f58435"/><path d="M41.777 71.691l13.407-7.487 4.482 2.575 5.222-2.889.111-6.111-5.222-3.111-5.333 3v4.404l-14.206 7.934-3.683-2.116-4.78 2.746-12.871-7.607.096-5.361-5.222-3-5.333 3v6.111l5.222 3 3.727-2.062 13.94 8.239V77l5.222 3 5.222-3v-5.31z" fill="#df5343"/><path d="M16.778 26.111v23.111l19.778 11.333 19.444-11 .333-23.111-19.667-11.556-19.889 11.222z" fill="url(#A)"/><path d="M36.444 53.222L23 45.444l.111-15.667 13.556-7.667L50 30l-.222 15.667-13.333 7.556h0zm-12.111-8.556l12.111 7 11.889-6.778.222-14.111-12-7-12.111 6.778-.111 14.111h0z"/></g></symbol></svg>