<svg xmlns="http://www.w3.org/2000/svg" xmlns:xlink="http://www.w3.org/1999/xlink" viewBox="0 0 81 81" fill="#fff" fill-rule="evenodd" stroke="#000" stroke-linecap="round" stroke-linejoin="round"><use xlink:href="#A" x=".5" y=".5"/><symbol id="A" overflow="visible"><path d="M40 0C17.946 0 0 17.885 0 40c0 22.054 17.885 40 40 40 22.054 0 40-17.885 40-40S62.054 0 40 0h0zm27.009 47.009c0 2.417-1.39 4.532-4.109 5.015-4.713.846-14.622 1.329-22.9 1.329s-18.187-.483-22.9-1.329c-2.719-.483-4.109-2.598-4.109-5.015V31.42c0-2.417 1.873-4.653 4.109-5.015 1.39-.242 4.653-.483 7.19-.483.967 0 1.752.725 1.752 1.873v10.937l14.018-.302 14.018.302V27.795c0-1.148.786-1.873 1.752-1.873 2.538 0 5.801.242 7.19.483 2.296.363 4.109 2.598 4.109 5.015-.121 5.136-.121 10.393-.121 15.589h0z" stroke="none" fill="#ed2226" fill-rule="nonzero"/></symbol></svg>