<svg xmlns="http://www.w3.org/2000/svg" xmlns:xlink="http://www.w3.org/1999/xlink" viewBox="0 0 71 81" fill="#fff" fill-rule="evenodd" stroke="#000" stroke-linecap="round" stroke-linejoin="round"><use xlink:href="#A" x=".5" y=".5"/><symbol id="A" overflow="visible"><g stroke="none" fill-rule="nonzero"><path d="M0 20L34.641 0l34.641 20v40L34.641 80 0 60V20z"/><path d="M34.705 4.029L3.576 22.057l.184.32 15.403 9.016L34.52 4.623l.186-.594z" fill="#95ca71"/><path d="M34.683 4.058l.182.38.138 35.187-.32.43-.487-.061-15.218-8.693L34.683 4.058z" fill="#7dc262"/><path d="M34.664 16.959l.036 23.067.581-.101 19.576-11.229-20.193-11.736z" fill="#67bc59"/><path d="M34.664 17.228l.041-13.199 31.132 18.013-.258.358-10.884 6.433-20.031-11.605zm15.535 31.067l15.08 8.923.558.811-31.133 18.005.553-1.799 14.942-25.94z" fill="#51b755"/><path d="M50.544 48.503L35.81 40.063l-1.111-.037-.549 1.283.139 33.619.411 1.107 15.845-27.531z" fill="#67bc59"/><path d="M34.7 40.025l-1.31.314-18.885 11.068L34.012 62.89l.688-.092V40.025z" fill="#95ca71"/><path d="M34.704 62.798v13.235L3.576 58.027l.622-.739L14.575 51.2l20.13 11.598z" fill="#7dc262"/><path d="M65.838 22.042v35.987L34.7 40.026l31.138-17.984z" fill="#39b353"/><path d="M34.699 40.025L3.575 22.057v35.969l31.124-18.001z" fill="#b1d58b"/></g></symbol></svg>