<svg xmlns="http://www.w3.org/2000/svg" xmlns:xlink="http://www.w3.org/1999/xlink" viewBox="0 0 81 81" fill="#fff" fill-rule="evenodd" stroke="#000" stroke-linecap="round" stroke-linejoin="round"><style><![CDATA[.B{fill-rule:nonzero}]]></style><use xlink:href="#A" x=".5" y=".5"/><symbol id="A" overflow="visible"><g stroke="none"><path d="M39.384 32.936H27.046c-.912 2.008-2.929 3.407-5.278 3.407a5.8 5.8 0 0 1-5.798-5.798 5.8 5.8 0 0 1 5.798-5.798c2.349 0 4.367 1.399 5.278 3.407h9.577l-4.061-7.033H10.854L0 39.921l4.906 8.497h14.172c.405-1.014 1.392-1.733 2.55-1.733a2.75 2.75 0 1 1-2.53 3.826H6.114l4.74 8.21h21.708l10.854-18.8-4.033-6.985M79.921 18.8L69.067 0H59.33l-7.061 12.234c.676.858.806 2.072.226 3.076a2.75 2.75 0 0 1-4.763-2.749 2.75 2.75 0 0 1 2.715-1.355L56.914 0h-9.556L36.504 18.8l10.854 18.8h8.323l6.062-10.704c-1.298-1.783-1.522-4.228-.364-6.272a5.8 5.8 0 0 1 7.903-2.188 5.8 5.8 0 0 1 2.188 7.903c-1.158 2.044-3.369 3.11-5.566 2.914L61.177 37.6h7.89l10.854-18.8m-4.654 50.439L80 61.043l-10.854-18.8H47.437l-4.031 6.981 6.197 10.772c2.195-.212 4.414.84 5.586 2.876a5.8 5.8 0 0 1-2.134 7.918 5.8 5.8 0 0 1-7.918-2.135c-1.171-2.036-.965-4.483.321-6.274l-4.815-8.37-4.06 7.032 10.854 18.8h21.708l4.915-8.514-7.067-12.181c-1.081.159-2.198-.334-2.779-1.336a2.75 2.75 0 1 1 4.579.269l6.474 11.158" fill="#83292a" class="B"/><g fill="#b3b2b2"><use xlink:href="#C" class="B"/><use xlink:href="#C" x="-44.653" y="6.994" class="B"/><use xlink:href="#C" x="-16.319" y="42.263" class="B"/></g><path d="M66.421 19.391c-2.256 0-4.091 1.835-4.091 4.091a4.03 4.03 0 0 0 1.093 2.749l-7.12 12.468h-9.537l-5.42-9.239H25.627c-.472-1.732-2.038-3.015-3.919-3.015-2.256 0-4.091 1.835-4.091 4.091s1.835 4.091 4.091 4.091c1.847 0 3.391-1.236 3.895-2.921h14.403l4.788 8.168-5.299 9.282 7.787 13.737c-.743.739-1.21 1.753-1.21 2.882 0 2.256 1.835 4.091 4.091 4.091s4.091-1.835 4.091-4.091-1.835-4.09-4.091-4.09a3.99 3.99 0 0 0-.895.11L42.12 49.139l4.767-8.157h10.702l7.8-13.562c.331.09.673.152 1.032.152 2.256 0 4.091-1.835 4.091-4.091s-1.835-4.091-4.091-4.091h0zm0 7.512c-.479 0-.934-.101-1.348-.279l-7.872 13.689H46.503l-5.156 8.82 7.611 13.449a3.39 3.39 0 0 1 1.204-.23c1.887 0 3.421 1.535 3.421 3.421s-1.535 3.422-3.421 3.422-3.421-1.535-3.421-3.422c0-1.129.556-2.124 1.402-2.747l-7.877-13.87 5.302-9.288-5.177-8.833-15.311.001c-.245 1.648-1.655 2.92-3.371 2.92-1.887 0-3.421-1.535-3.421-3.421s1.535-3.421 3.421-3.421c1.748 0 3.177 1.322 3.38 3.016l15.876-.001 5.419 9.239h10.309l7.572-13.253C63.499 25.488 63 24.547 63 23.482c0-1.887 1.534-3.421 3.421-3.421s3.421 1.535 3.421 3.421-1.535 3.421-3.421 3.421h0z" fill="#040707" class="B"/></g></symbol><defs ><path id="C" d="M68.812 23.551a2.39 2.39 0 1 1-4.782 0 2.39 2.39 0 1 1 4.782 0"/></defs></svg>