<svg xmlns="http://www.w3.org/2000/svg" xmlns:xlink="http://www.w3.org/1999/xlink" viewBox="0 0 62 81" fill="#fff" fill-rule="evenodd" stroke="#000" stroke-linecap="round" stroke-linejoin="round"><use xlink:href="#A" x=".5" y=".5"/><symbol id="A" overflow="visible"><g stroke="none" fill-rule="nonzero"><path d="M49.334 26.169l-.206-.227L25.211 2.13c-2.861-2.848-7.49-2.839-10.339.022a7.31 7.31 0 0 0 .022 10.339l7.904 7.869C9.693 23.694 0 35.571 0 49.713 0 66.44 13.56 80 30.287 80s30.287-13.56 30.287-30.287c0-9.509-4.386-17.991-11.241-23.543" fill="#fe8439"/><path d="M48.183 45.969L30.899 28.894a5.85 5.85 0 0 0-8.221 8.321l7.153 7.066H14.726a5.85 5.85 0 0 0-5.849 5.849 5.85 5.85 0 0 0 5.849 5.849h15.26l-7.268 7.313a5.85 5.85 0 0 0 .026 8.271 5.83 5.83 0 0 0 8.272-.026l16.736-16.841c.031-.031.057-.065.086-.096a5.83 5.83 0 0 0 1.645-2.249 5.85 5.85 0 0 0-1.3-6.383"/></g></symbol></svg>