<svg xmlns="http://www.w3.org/2000/svg" xmlns:xlink="http://www.w3.org/1999/xlink" viewBox="0 0 81 48" fill="#fff" fill-rule="evenodd" stroke="#000" stroke-linecap="round" stroke-linejoin="round"><use xlink:href="#A" x=".5" y=".5"/><symbol id="A" overflow="visible"><g stroke="none" fill="#000" fill-rule="nonzero"><path d="M63.24 9.24h-.04L47.68.2 32.36 9.12 16.64 0 0 9.68v17.6L32.12 46l15.36-8.88 15.76 9.12L80 36.56v-17.6L63.24 9.24h0zm-.08 18.04L50 19.64l13.28-7.76 13.16 7.72-13.28 7.68h0zM32 11.76l13.28 7.68-13.12 7.64-13.24-7.72L32 11.76h0zm28.88-1.2l-13 7.56-13.24-7.68 13.04-7.6 13.2 7.72h0zm-31-.24l-2.68 1.56L16.36 18 3.44 10.32l13.24-7.68 13.2 7.68h0zM2.32 12.24l13 7.84v13.84L2.32 26V12.24h0zm15.6 9.2l13 7.72v13.8l-13-7.72v-13.8h0zm30.92.16l13.24 7.8v13.68L48.84 35.2V21.6h0z"/><path d="M17.92 35.28l13 7.64V29.16l-13-7.72v13.84zm-15.6-9.32l13 7.92v-13.8l-13-7.84v13.72zm46.52 9.28l13.24 7.88V29.4l-13.24-7.8v13.64z" opacity=".5"/></g></symbol></svg>