<svg xmlns="http://www.w3.org/2000/svg" xmlns:xlink="http://www.w3.org/1999/xlink" viewBox="0 0 81 79" fill="#fff" fill-rule="evenodd" stroke="#000" stroke-linecap="round" stroke-linejoin="round"><use xlink:href="#A" x=".5" y=".5"/><symbol id="A" overflow="visible"><g stroke="none" fill-rule="nonzero"><path d="M80 38.802c0 21.43-17.909 38.803-40 38.803S0 60.232 0 38.802 17.909 0 40 0s40 17.373 40 38.802" fill="#72c7e6"/><path d="M14.252 34.85s-1.617-8.054 14.701-9.88c.669-10.758 38.593-10.998 29.132 2.695 7.006 2.425 5.868 7.305 5.868 7.305s.279 2.755-2.156 5.27-5.036 4.078-13.174 4.072c-3.265-.002-7.904.16-13.333-2.315-7.345 1.517-15.31.004-17.724-1.836-4.032-3.074-3.313-5.309-3.313-5.309"/><path d="M14.252 34.85v12.455s.838 11.258 21.317 6.827c8.143 5.988 26.946 2.156 28.383-4.91V34.97c.12 3.473-16.048 12.934-28.263 4.791-18.204 4.072-21.437-4.91-21.437-4.91" fill="#002c77"/></g></symbol></svg>