<svg xmlns="http://www.w3.org/2000/svg" xmlns:xlink="http://www.w3.org/1999/xlink" viewBox="0 0 81 40" fill="#fff" fill-rule="evenodd" stroke="#000" stroke-linecap="round" stroke-linejoin="round"><use xlink:href="#A" x=".5" y=".5"/><symbol id="A" overflow="visible"><g stroke="none" fill-rule="nonzero"><path d="M24.698 38.032c-2.334-.208-4.155-1.001-5.517-2.402a6.9 6.9 0 0 1-1.087-1.435c-.106-.184-.158-.25-.195-.248a9.47 9.47 0 0 0-.367.052c-.4.062-1.649.071-2.045.015-1.267-.18-2.263-.599-3.106-1.307-.521-.438-.924-.931-1.3-1.593l-.156-.245c-.009 0-.141-.018-.294-.04-.909-.128-1.833-.412-2.61-.803-1.413-.71-2.403-1.817-2.853-3.191a6.51 6.51 0 0 1-.305-1.772 9.43 9.43 0 0 1 .057-1.297l.015-.096-.145-.042c-.45-.131-1.133-.459-1.639-.789C1.84 21.986.923 20.794.42 19.286c-.524-1.571-.561-3.663-.093-5.208.653-2.154 2.26-3.81 4.651-4.79a10.92 10.92 0 0 1 1.275-.425l.225-.061a2.82 2.82 0 0 0 .063-.272c.242-1.186.828-2.455 1.567-3.388 1.068-1.35 2.58-2.263 4.344-2.623a9.69 9.69 0 0 1 1.894-.201h.35l.191-.192c.579-.581 1.245-1.063 1.972-1.427 1.894-.948 3.893-.931 5.898.049l.618.327c.122.074.237.134.257.134s.145-.059.28-.13c.719-.383 1.745-.739 2.62-.91 1.801-.351 3.531-.132 5.076.643 1.155.579 2.196 1.452 3.127 2.624l.242.303c.005.005.119-.017.255-.049.284-.067.663-.079.906-.028.195.041.494.177.63.288.056.046.112.083.123.083s.125-.066.254-.148c.516-.326 1.186-.6 1.764-.724a4.51 4.51 0 0 1 1.358-.042c.504.08.972.269 1.418.572.105.071.204.13.22.13a2.37 2.37 0 0 0 .312-.17 7.67 7.67 0 0 1 2.752-.993c.44-.067 1.282-.081 1.659-.027.887.126 1.778.435 2.442.849 1.446.9 2.348 2.347 2.606 4.177l.033.232.32.126c1.595.63 2.636 1.834 3.06 3.538.13.523.175.87.193 1.499l.016.561.343.139c.866.352 1.517.875 2.022 1.625.452.672.744 1.533.82 2.417l.047.364c.023.028.462.152 1.082.308 3.337.838 6.942 1.175 10.727 1.002.743-.034 1.277-.079 2.454-.208 1.356-.149 1.668-.168 2.428-.151 1.126.026 1.924.145 2.692.401 1.488.498 2.205 1.395 2.072 2.595-.114 1.03-.687 1.73-1.623 1.985-.221.06-.562.083-.571.038-.003-.014.089-.093.205-.176.403-.287.661-.633.723-.974a1 1 0 0 0-.534-1.01c-.165-.078-.53-.15-.764-.15-.687 0-1.159.121-6.21 1.597l-2.52.713a25.77 25.77 0 0 1-6.373.777c-1.204 0-2.326-.075-3.185-.213-.175-.028-.178-.028-.298.055a1.38 1.38 0 0 1-.926.256l-.243-.016-.071.23a5.16 5.16 0 0 1-.572 1.153c-.21.297-.628.718-.914.921-.12.085-.363.228-.539.317l-.32.162-.048.176c-.172.636-.619 1.468-1.133 2.106-.233.29-.719.777-.988.992-.762.608-1.691 1.056-2.564 1.237-.517.107-1.137.155-1.606.124-.174-.012-.329-.017-.343-.012s-.065.083-.112.174c-.234.452-.74 1.119-1.193 1.573-1.517 1.52-3.479 2.131-5.675 1.768-.181-.03-.538-.108-.792-.174l-.52-.133c-.045-.01-.111.035-.299.207-.951.872-2.195 1.461-3.559 1.684-1.673.273-3.505-.015-5.464-.858l-.513-.221-.186.179c-.708.682-1.939 1.169-3.485 1.379-.305.041-.575.056-1.174.062-.428.005-.832.004-.897-.002h0z" fill="#fdf478"/><path d="M24.606 38.009c-.029-.005-.183-.023-.343-.04l-.647-.096c-2.479-.451-4.403-1.741-5.516-3.7l-.14-.247-.121.015-.424.054c-1.576.201-3.182-.099-4.349-.811-.816-.498-1.474-1.192-1.979-2.091l-.134-.239-.272-.034c-1.135-.14-2.385-.583-3.266-1.157-1.441-.939-2.245-2.226-2.487-3.979-.033-.243-.045-1.187-.022-1.724l.013-.299-.277-.099a6.9 6.9 0 0 1-2.477-1.52C1.005 20.93.329 19.529.086 17.729a14.79 14.79 0 0 1 0-2.454c.352-2.506 1.735-4.389 4.122-5.612.655-.336 1.359-.607 1.978-.764.145-.037.277-.081.293-.098s.062-.18.101-.361a8.02 8.02 0 0 1 .684-1.926c1.162-2.335 3.213-3.758 5.914-4.102a15.18 15.18 0 0 1 1.342-.094h.181l.281-.269C15.735 1.33 16.67.733 17.556.406c.317-.117.867-.263 1.205-.32a8.55 8.55 0 0 1 1.586-.04c1.017.107 2.12.491 3.067 1.069l.207.126.426-.211C25.313.402 26.599.072 27.944.03c2.091-.065 3.958.649 5.607 2.147.371.337.859.865 1.175 1.272l.251.301c.015.007.116-.012.224-.041a2.57 2.57 0 0 1 1.041-.01c.203.062.337.13.509.258l.139.104.257-.162c.916-.577 2.013-.879 2.887-.794a3.38 3.38 0 0 1 1.703.64c.076.056.15.102.165.102s.113-.055.219-.123c.815-.523 1.88-.91 2.936-1.069a8.78 8.78 0 0 1 1.742.013c2.144.357 3.739 1.605 4.486 3.512.157.399.316 1.023.362 1.413l.035.302.263.099c1.471.554 2.499 1.618 2.993 3.099.22.659.319 1.267.331 2.028l.007.501.274.109c.917.364 1.563.868 2.081 1.623.472.69.777 1.6.843 2.517.011.154.027.287.037.296.054.054 1.293.376 2.169.564 1.781.381 3.465.606 5.568.745a70.51 70.51 0 0 0 4.367 0l2.204-.204c1.62-.188 2.415-.206 3.549-.077 1.447.164 2.621.66 3.165 1.336.158.196.327.525.385.747.173.659-.009 1.55-.422 2.076-.334.426-.947.747-1.49.781-.259.016-.261.005-.021-.157.267-.179.524-.459.641-.696a.71.71 0 0 0 .102-.446c0-.207-.01-.259-.073-.387-.223-.456-.575-.63-1.274-.63-.712 0-1.108.102-6.226 1.596l-4.486 1.119c-1.707.285-3.545.41-5.13.349l-1.995-.15c-.618-.083-.587-.085-.777.038-.296.191-.574.247-1.039.207-.072-.006-.077.002-.163.265-.204.625-.527 1.153-.989 1.617-.334.335-.633.55-1.017.733l-.272.131c-.019.01-.088.179-.153.375-.651 1.963-2.391 3.596-4.375 4.104-.585.15-.85.181-1.571.183l-.645.002-.144.25c-.899 1.568-2.391 2.745-3.999 3.156-.488.125-.82.169-1.39.186a7.55 7.55 0 0 1-2.514-.338l-.284-.082-.204.195c-.951.907-2.244 1.514-3.714 1.744a11.02 11.02 0 0 1-2.23.012 11.72 11.72 0 0 1-3.256-.953l-.354-.146c-.013 0-.106.078-.206.174-.577.554-1.596 1.013-2.781 1.251-.721.145-.922.163-1.9.172-.501.004-.934.004-.963-.001h0zm-.963-4.014c1.461-.199 2.619-.9 3.276-1.982.578-.953.821-2.154.727-3.602-.016-.244-.014-.336.008-.336.044 0 .595.563.801.819l.379.52c.109.163.209.29.222.283a.76.76 0 0 0 .082-.191c.052-.158.059-.237.064-.743l.032-.575c.043-.014.422.142.672.278.681.369 1.346 1.008 1.727 1.659.054.093.107.169.117.169.037 0 .299-.44.46-.775.358-.743.532-1.444.579-2.339.047-.879-.161-2.087-.506-2.951-.043-.109-.058-.176-.041-.193.034-.034.424.059.684.163.483.193.942.543 1.282.976.192.244.187.242.167.084-.042-.338-.284-.936-.555-1.373-.46-.742-1.31-1.547-2.153-2.039-.158-.092-.288-.185-.289-.205-.001-.031.077-.034.481-.021 2.25.077 3.977 1.094 4.962 2.921a6.89 6.89 0 0 1 .39.917c.018.062.042.112.053.112.025 0 .204-.457.3-.765.192-.612.263-1.098.263-1.781a5.01 5.01 0 0 0-.161-1.383c-.168-.692-.503-1.444-.884-1.98-.07-.098-.093-.152-.075-.171.065-.065.773-.088 1.22-.039.387.042.735.136 1.019.276.135.067.262.115.282.108.054-.021.311-.397.445-.65.147-.279.263-.609.339-.958.049-.226.058-.351.058-.783 0-.458-.008-.552-.072-.858-.133-.631-.424-1.369-.713-1.802-.411-.618-1.269-1.13-2.526-1.508l-.604-.16-.31-.067c-.091-.021-.071-.061.04-.078 1.151-.182 1.918-.509 2.476-1.056.191-.187.268-.288.446-.578.095-.155.095.013.001.621l-.019.122.222.134c.326.197.712.492 1.004.769 1.291 1.222 1.917 2.897 1.858 4.975-.021.767-.124 1.513-.298 2.164l-.082.319c-.011.051.002.057.181.072.669.058 1.295.452 1.849 1.166l.203.238a2.31 2.31 0 0 0 .233-.267c.433-.538.95-.949 1.444-1.147.217-.087.25-.093.25-.042 0 .02-.07.183-.155.363-.524 1.107-.77 2.081-.768 3.051.001.927.25 1.783.717 2.473.167.246.22.282.196.131-.009-.056-.024-.328-.033-.604-.019-.602.023-.961.165-1.385.124-.373.37-.817.432-.779.012.007.03.112.04.231.024.281.099.673.17.891.087.263.303.682.443.858l.126.158.016-.501c.022-.683.122-1.142.355-1.637a3.31 3.31 0 0 1 .934-1.149c.909-.686 2.509-.909 3.63-.506.532.191 1.054.548 1.391.95.088.105.17.192.183.192.049 0-.078-.486-.21-.8-.215-.514-.497-.915-.978-1.39a5.82 5.82 0 0 0-.578-.501c-.134-.094-.239-.183-.234-.198.013-.036.373-.022.751.028 1.144.152 2.116.656 2.822 1.462.37.422.73 1.033.907 1.538.034.098.07.178.079.178.06 0 .067-.82.011-1.188-.11-.717-.377-1.311-.849-1.894-.038-.047-.062-.095-.052-.105.028-.028.373.097.643.235a3.29 3.29 0 0 1 1.462 1.46 3.99 3.99 0 0 1 .196.482l.074.218c.004 0 .022-.163.04-.361.064-.71.204-1.009.366-.78.08.114.248.463.402.838l.162.368c.012.014.022-.152.022-.369 0-.393.013-.513.053-.513.012 0 .035.041.052.092s.08.143.141.205c.495.509 1.9.735 4.346.697 2.93-.046 4.034-.183 8.313-1.034l5.387-.85c.632-.015.992.009 1.409.095a3.35 3.35 0 0 1 .875.322c.223.132.508.426.607.627.045.092.088.157.095.145.035-.06.046-.425.019-.621a1.84 1.84 0 0 0-.491-1.049c-.748-.808-2.344-1.269-4.389-1.267-.532 0-1.092.04-1.994.143l-3.438.254c-1.005.029-2.618.004-3.529-.054-2.174-.138-4.433-.483-6.402-.977l-1.205-.348c-.019-.016-.033-.089-.033-.176-.001-.586-.204-1.451-.476-2.029-.361-.767-.822-1.311-1.49-1.76-.207-.139-.792-.437-.859-.437-.028 0-.086.087-.164.244-.302.607-.816 1.199-1.297 1.496-.364.225-.881.413-1.079.392-.079-.008-.069-.017.144-.118a2.46 2.46 0 0 0 .921-.715c.435-.541.716-1.188.9-2.074a3.11 3.11 0 0 0 .085-.769c.002-.321-.008-.408-.071-.66-.381-1.509-1.132-2.524-2.398-3.242a.6.6 0 0 0-.158-.07c-.021 0-.064.092-.106.224-.206.648-.583 1.138-1.103 1.432-.345.195-.839.322-1.255.322-.102 0-.292.024-.422.052-.343.076-.406.062-.125-.028.243-.078.243-.078.366-.25.627-.879.89-1.904.775-3.024-.099-.97-.505-2.119-1.069-3.032a.87.87 0 0 0-.374-.38 6.05 6.05 0 0 0-3.622-.912c-1.184.095-2.429.518-3.357 1.141l-.188.115c-.02.008-.123-.051-.228-.13-.245-.185-.69-.414-.972-.503-.711-.222-1.562-.189-2.377.094-.33.115-.893.393-1.194.59l-.272.171c-.006 0-.073-.054-.151-.12-.38-.325-.911-.418-1.512-.264l-.28.067c-.009 0-.116-.128-.238-.284-1.188-1.524-2.556-2.556-4.077-3.076-1.74-.595-3.647-.528-5.605.196-.196.072-.584.244-.863.381l-.53.249c-.013 0-.134-.066-.268-.147C22.465.711 21.513.36 20.555.215a7.27 7.27 0 0 0-1.676.001c-1.401.213-2.711.885-3.813 1.957l-.303.295-.567.015c-2.179.059-3.96.743-5.3 2.037a6.58 6.58 0 0 0-1.01 1.211A8.41 8.41 0 0 0 6.69 8.607l-.074.322c-.006.006-.17.052-.365.102a9.88 9.88 0 0 0-2.417.996C1.708 11.277.494 13.081.222 15.395c-.089.758-.078 1.733.029 2.466.188 1.292.607 2.34 1.323 3.307.262.353.92 1.008 1.285 1.278.3.222.694.472.713.452.006-.006-.054-.088-.134-.182-.722-.852-1.187-1.928-1.367-3.166a8.3 8.3 0 0 1-.068-1.582c.037-.593.06-.606.198-.107.326 1.183 1.206 2.422 2.257 3.179.242.174.304.203.283.131l-.084-.288a5 5 0 0 1-.109-.459c-.065-.375-.041-1.04.04-1.122.039-.039.048-.017.081.196.043.279.164.631.316.919.716 1.36 2.246 2.284 4.113 2.485a7.54 7.54 0 0 0 1.625-.025 4.08 4.08 0 0 0 2.69-1.664c.303-.42.518-.84.77-1.505.095-.25.107-.193.052.257-.087.726-.079 1.362.023 1.745.021.078.032.155.025.172s-.115.084-.241.149a9.21 9.21 0 0 0-1.143.726c-.322.245-.915.829-1.16 1.142-.668.856-1.088 1.794-1.252 2.803a7.12 7.12 0 0 0 .618 4.103c.172.351.441.795.466.77.006-.006-.023-.1-.066-.207-.294-.74-.431-1.519-.432-2.463-.001-.539.018-.762.064-.746.014.005.07.145.125.311a4.42 4.42 0 0 0 1.771 2.341c.98.657 2.355 1.034 3.813 1.045l.528.004.016-.488.104-1.329c.012-.013.034.029.05.092.27 1.086 1.331 2.408 2.498 3.112 1.117.675 2.312.923 3.6.747h0zM21.15 25.85l-.065-.231c-.309-1.134-1.086-2.128-2.159-2.762-.565-.334-1.312-.627-1.914-.751-.476-.098-.346-.149.443-.172.584-.017.893.007 1.404.11.919.186 1.912.658 2.598 1.233.173.146.197.157.259.132l.305-.132a3.6 3.6 0 0 1 .858-.255c.469-.08 1.021-.085.995-.009-.005.016-.098.067-.206.113-.718.308-1.374.898-1.906 1.714-.159.243-.406.706-.503.943-.041.099-.088.128-.109.066h0zm9.526-4.243c-.649-.175-1.67-.212-2.494-.093-.427.062-.409.062-.406.001.002-.029.034-.156.071-.283.235-.788.116-1.584-.322-2.164-.06-.079-.108-.157-.108-.174 0-.042.189-.038.523.009 1.127.16 1.983.602 2.488 1.282.254.342.478.929.503 1.316.011.173.006.175-.255.105h0zm-15.267-4.417c.148-.389.744-1.371 1.165-1.919.773-1.007 1.785-1.864 2.803-2.374.356-.178.425-.203.449-.163.007.011-.018.144-.055.297-.057.238-.067.342-.069.739-.002.369.007.495.044.629.068.241.163.444.283.603.127.169.117.178-.212.203-1.379.101-3.018.853-4.262 1.954-.127.112-.181.124-.146.032h0zm-4.107-.456c.01-.01.122-.061.249-.113a2.29 2.29 0 0 0 .789-.51c.466-.447.744-1.006.884-1.777.078-.429.085-1.235.014-1.567-.151-.707-.414-1.19-.908-1.666-.379-.365-.858-.654-1.399-.842-.134-.047-.244-.095-.244-.107 0-.049.235-.064.99-.063.784.001 1.023.021 1.351.116.069.02.134.007.37-.076 1.078-.38 2.125-.371 2.911.026.275.139.607.388.607.456 0 .018-.098.022-.284.013-.396-.02-.883.019-1.216.099-.533.128-1.054.439-1.338.799-.242.307-.453.812-.501 1.201-.017.139-.012.166.061.303.184.346.268.828.288 1.656.017.713.028.674-.271.987-.461.483-1.179.862-1.946 1.028-.251.054-.439.072-.405.037h0zm-3.406-.246c-1.173-.596-1.676-1.518-1.405-2.576.096-.377.41-1.039.492-1.039.035 0 .034.074-.005.515-.018.207.033.846.093 1.158.166.858.524 1.494 1.121 1.99.197.164.082.146-.296-.047h0zm22.946-3.53c-.325-.777-.752-1.341-1.354-1.789-1.024-.761-2.368-.979-3.998-.647l-.66.158-.299.08c-.109.001.256-.318.723-.631A7.35 7.35 0 0 1 27.628 9.1l.278-.066c.015-.004.09-.109.166-.233l.313-.458c.955-1.272 2.221-2.181 3.652-2.62.391-.12.988-.245 1.112-.233l.087.008-.13.092c-1.142.811-1.831 1.773-2.011 2.809a4.18 4.18 0 0 0 .054 1.38c.198.787.626 1.556 1.318 2.369.111.131.202.251.202.267s-.09.043-.216.062c-.48.07-.971.234-1.349.452-.099.057-.192.103-.205.103s-.038-.033-.055-.073h0zm14.493-2.239c-.422-.528-1.083-1.006-1.769-1.278-.671-.266-1.324-.379-2.203-.38-.656-.001-1.069.039-1.639.157l-.354.065c-.035 0-.047-.07-.073-.442-.033-.474-.096-.825-.206-1.158-.293-.882-.916-1.597-1.777-2.038-.621-.318-1.136-.47-1.941-.573-.128-.016-.13-.018-.065-.052.133-.07.749-.127 1.187-.11 1.701.065 2.95 1.023 3.585 2.749.091.246.015.227.668.172.68-.057 1.485.035 2.07.238.346.12.836.367 1.105.557a4.35 4.35 0 0 1 1.112 1.197 12.32 12.32 0 0 1 .471.983c.032.107-.047.066-.17-.088h0z" fill="#e6c92a"/><path d="M24.606 38.009c-.029-.005-.183-.023-.343-.04l-.647-.096c-2.479-.451-4.403-1.741-5.516-3.7l-.14-.247-.121.015-.424.054c-1.576.201-3.182-.099-4.349-.811-.816-.498-1.474-1.192-1.979-2.091l-.134-.239-.272-.034c-1.135-.14-2.385-.583-3.266-1.157-1.441-.939-2.245-2.226-2.487-3.979-.033-.243-.045-1.187-.022-1.724l.013-.299-.277-.099a6.9 6.9 0 0 1-2.477-1.52C1.005 20.93.329 19.529.086 17.729a14.79 14.79 0 0 1 0-2.454c.352-2.506 1.735-4.389 4.122-5.612.655-.336 1.359-.607 1.978-.764.145-.037.277-.081.293-.098s.062-.18.101-.361a8.02 8.02 0 0 1 .684-1.926c1.162-2.335 3.213-3.758 5.914-4.102a15.18 15.18 0 0 1 1.342-.094h.181l.281-.269C15.735 1.33 16.67.733 17.556.406c.317-.117.867-.263 1.205-.32a8.55 8.55 0 0 1 1.586-.04c1.017.107 2.12.491 3.067 1.069l.207.126.426-.211C25.313.402 26.599.072 27.944.03c2.091-.065 3.958.649 5.607 2.147.371.337.859.865 1.175 1.272l.251.301c.015.007.116-.012.224-.041a2.57 2.57 0 0 1 1.041-.01c.203.062.337.13.509.258l.139.104.257-.162c.916-.577 2.013-.879 2.887-.794a3.38 3.38 0 0 1 1.703.64c.076.056.15.102.165.102s.113-.055.219-.123c.815-.523 1.88-.91 2.936-1.069a8.78 8.78 0 0 1 1.742.013c2.144.357 3.739 1.605 4.486 3.512.157.399.316 1.023.362 1.413l.035.302.263.099c1.471.554 2.499 1.618 2.993 3.099.22.659.319 1.267.331 2.028l.007.501.274.109c.917.364 1.563.868 2.081 1.623.472.69.777 1.6.843 2.517.011.154.027.287.037.296.054.054 1.293.376 2.169.564 1.781.381 3.465.606 5.568.745a70.51 70.51 0 0 0 4.367 0l2.204-.204c1.62-.188 2.415-.206 3.549-.077 1.447.164 2.621.66 3.165 1.336.158.196.327.525.385.747.173.659-.009 1.55-.422 2.076-.334.426-.947.747-1.49.781-.259.016-.261.005-.021-.157.267-.179.524-.459.641-.696a.71.71 0 0 0 .102-.446c0-.207-.01-.259-.073-.387-.223-.456-.575-.63-1.274-.63-.712 0-1.108.102-6.226 1.596l-4.486 1.119c-1.707.285-3.545.41-5.13.349l-1.995-.15c-.618-.083-.587-.085-.777.038-.296.191-.574.247-1.039.207-.072-.006-.077.002-.163.265-.204.625-.527 1.153-.989 1.617-.334.335-.633.55-1.017.733l-.272.131c-.019.01-.088.179-.153.375-.651 1.963-2.391 3.596-4.375 4.104-.585.15-.85.181-1.571.183l-.645.002-.144.25c-.899 1.568-2.391 2.745-3.999 3.156-.488.125-.82.169-1.39.186a7.55 7.55 0 0 1-2.514-.338l-.284-.082-.204.195c-.951.907-2.244 1.514-3.714 1.744a11.02 11.02 0 0 1-2.23.012 11.72 11.72 0 0 1-3.256-.953l-.354-.146c-.013 0-.106.078-.206.174-.577.554-1.596 1.013-2.781 1.251-.721.145-.922.163-1.9.172-.501.004-.934.004-.963-.001h0zm-.95-3.969c1.196-.176 2.084-.605 2.797-1.352.661-.692 1.056-1.608 1.216-2.82.034-.259.041-.479.032-1.028l-.012-.698.345.357c.349.361.64.728.846 1.066.062.102.131.188.154.193.052.01.105-.088.167-.313.038-.137.048-.271.048-.692l.014-.521c.036 0 .318.119.51.215.735.368 1.416 1.004 1.816 1.697.073.126.13.197.155.193.122-.022.61-.939.786-1.477.215-.658.298-1.2.298-1.953a7.4 7.4 0 0 0-.461-2.585c-.048-.129-.079-.239-.068-.246.031-.019.436.09.634.172.516.213 1.06.662 1.39 1.148.132.195.155.066.057-.33-.29-1.176-1.273-2.392-2.587-3.199l-.286-.177c-.064-.041.523-.034.911.011 1.506.174 2.67.745 3.596 1.765a5.62 5.62 0 0 1 1.129 1.949c.045.139.089.231.11.231.07 0 .323-.667.452-1.19s.168-.848.168-1.422a5.57 5.57 0 0 0-.314-1.926c-.118-.348-.46-1.052-.654-1.344l-.148-.24c0-.054.843-.07 1.227-.023.405.05.84.184 1.075.331.131.083.158.079.26-.037.341-.389.635-1.031.751-1.643.058-.303.066-1.014.016-1.333-.131-.83-.518-1.784-.921-2.272-.478-.58-1.507-1.105-2.806-1.433-.223-.056-.388-.108-.367-.115a5.18 5.18 0 0 1 .286-.057c.599-.107 1.241-.352 1.669-.637a3.36 3.36 0 0 0 .74-.708c.117-.167.128-.176.128-.106 0 .042-.018.188-.04.324-.028.171-.032.257-.013.28s.119.089.232.158c1.545.951 2.48 2.422 2.769 4.355.068.457.068 1.752 0 2.256-.064.476-.134.836-.245 1.273-.051.199-.085.375-.076.389s.085.027.169.027c.323 0 .791.171 1.135.415.227.161.611.551.794.806.08.111.159.203.175.204s.113-.103.214-.23c.472-.591 1.009-1.024 1.498-1.208.094-.035.171-.06.171-.054s-.071.16-.157.343c-.817 1.731-.979 3.337-.474 4.683.203.542.645 1.238.732 1.152.007-.007-.002-.141-.021-.298a6.25 6.25 0 0 1-.002-1.261c.07-.461.218-.896.408-1.195.039-.062.083-.106.097-.097s.025.072.025.141c0 .179.074.587.151.834.093.3.269.653.44.888.225.308.268.299.247-.05-.007-.112-.002-.351.011-.531.09-1.283.696-2.266 1.711-2.774.564-.283 1.189-.421 1.9-.422 1.11-.001 2.034.421 2.698 1.235.19.233.227.225.178-.039-.138-.751-.551-1.487-1.188-2.116-.209-.207-.561-.501-.689-.577-.086-.051-.099-.086-.03-.086.349 0 1.057.123 1.471.255 1.327.424 2.37 1.462 2.839 2.826.147.428.197.297.194-.508-.002-.41-.012-.55-.06-.77a4.08 4.08 0 0 0-.771-1.651c-.078-.101-.028-.096.259.029.603.262 1.059.624 1.421 1.131.191.267.322.535.442.904.062.191.124.347.138.346s.033-.151.044-.334c.034-.599.124-.987.229-.987.066 0 .289.435.517 1.01.085.214.167.386.183.38s.031-.168.037-.443c.008-.409.02-.509.051-.422.033.094.237.27.424.368.876.456 2.638.591 5.739.439 1.879-.092 2.989-.255 6.549-.963l5.687-.875c1.034-.003 1.742.169 2.237.544.183.139.371.382.449.581.028.071.063.134.077.139.029.01.06-.256.06-.512.001-1.036-.817-1.836-2.292-2.241-.794-.218-1.542-.304-2.63-.302-.672.001-1.074.029-2.098.146l-2.626.224c-.446.024-3.635.017-3.76-.008-.036-.007-.226-.021-.422-.031-1.628-.079-3.815-.382-5.568-.769l-2.086-.566c-.01-.017-.021-.127-.023-.245-.011-.623-.233-1.482-.544-2.103-.204-.407-.421-.702-.789-1.07a3.65 3.65 0 0 0-1.15-.82l-.349-.169c-.053-.029-.059-.02-.236.318-.379.725-.881 1.248-1.492 1.554-.177.089-.56.225-.579.206-.006-.006.051-.047.128-.091.354-.2.705-.534.949-.903.39-.59.702-1.519.786-2.346.027-.259.024-.294-.052-.669-.326-1.606-1.144-2.78-2.424-3.475-.168-.091-.245-.121-.26-.099s-.049.118-.083.225a2.38 2.38 0 0 1-.675 1.106c-.394.373-.887.568-1.543.611l-.34.013c-.005-.005.037-.072.093-.149.382-.527.637-1.126.752-1.763a6.21 6.21 0 0 0 .025-1.478c-.114-.785-.369-1.561-.769-2.346-.31-.607-.353-.663-.676-.873-1.512-.985-3.406-1.212-5.235-.628-.565.18-1.33.537-1.742.811-.109.073-.216.132-.238.133s-.141-.072-.264-.16a3.25 3.25 0 0 0-.938-.468c-.387-.118-.562-.143-1.002-.143a3.93 3.93 0 0 0-1.334.233c-.348.12-.947.413-1.236.604-.239.158-.269.168-.319.107-.068-.082-.388-.274-.554-.332-.146-.051-.223-.06-.515-.059s-.378.012-.567.069c-.123.037-.232.062-.243.056s-.155-.181-.32-.387C32.975 1.485 31.067.379 28.841.181c-1.538-.137-3.312.237-4.832 1.02l-.386.199-.261-.157C22.401.661 21.353.291 20.357.18a7.3 7.3 0 0 0-1.371.015c-1.389.169-2.854.907-3.936 1.984l-.264.263-.447.018c-.629.025-1.021.061-1.463.133-1.526.251-2.774.828-3.848 1.781-1.123.997-2.012 2.595-2.34 4.208l-.085.334a3.18 3.18 0 0 1-.377.113c-2.553.668-4.606 2.294-5.484 4.345-.441 1.029-.608 2.007-.578 3.389.014.665.048 1.003.155 1.546.342 1.74 1.196 3.133 2.543 4.145.286.215.831.561.852.54.008-.008-.02-.055-.062-.105l-.231-.27c-.929-1.087-1.462-2.854-1.377-4.563l.036-.38c.01 0 .04.08.067.178.333 1.186 1.165 2.376 2.213 3.163.307.231.406.292.431.268.009-.009-.014-.091-.05-.183a2.94 2.94 0 0 1-.198-1.315c.033-.323.062-.405.087-.25a3.74 3.74 0 0 0 .254.776c.309.662.95 1.357 1.66 1.798.917.57 2.048.867 3.312.868.826.001 1.374-.109 1.99-.399.955-.449 1.758-1.33 2.217-2.431l.127-.272c.005.005-.004.127-.022.27-.065.526-.032 1.326.068 1.661.015.049-.016.073-.243.195-1.009.542-1.874 1.283-2.48 2.124-.129.179-.201.295-.21.336a.65.65 0 0 0-.008.048c-.002.015-.018.019-.036.009s-.025-.01-.015.001-.046.14-.124.288c-.342.649-.537 1.237-.663 2.01a9.15 9.15 0 0 0-.015 1.742c.123.867.335 1.595.651 2.243.172.353.571.99.62.99.037 0 .04.009-.081-.254-.295-.639-.468-1.43-.514-2.348-.017-.349.004-.902.034-.872.007.007.047.114.089.238.62 1.844 2.307 3.015 4.758 3.301.457.053 1.251.08 1.339.046l.068-.027.02-.444.096-1.154c.008-.008.037.053.063.136.23.731.938 1.698 1.729 2.361.688.577 1.542 1.004 2.38 1.192.427.096.606.114 1.144.118.345.002.569-.011.818-.047h0zm-2.478-8.291l-.108-.327c-.235-.714-.604-1.312-1.139-1.841-.69-.683-1.613-1.19-2.652-1.456-.321-.082-.423-.119-.337-.122l.38-.023c1.437-.092 2.949.397 4.098 1.326l.239.177c.011 0 .104-.041.207-.092a4.08 4.08 0 0 1 .932-.305c.294-.06.951-.103.949-.063-.001.013-.104.071-.229.129-.348.161-.675.392-1.007.713-.474.458-.824.941-1.129 1.556-.189.381-.188.379-.205.328h0zm9.524-4.183c-.66-.188-1.845-.221-2.679-.076l-.206.027c-.004-.004.016-.082.046-.172.275-.838.167-1.679-.295-2.293l-.107-.143.244.017c.134.01.39.047.569.083 1.469.297 2.373 1.113 2.587 2.333l.039.244c0 .03-.038.026-.198-.019h0zm-15.105-4.662c.273-.544.743-1.277 1.122-1.748.594-.739 1.415-1.473 2.17-1.94.263-.162.845-.453.873-.436.011.007.004.074-.016.149-.057.221-.116.662-.115.871.001.434.118.87.309 1.155l.107.174a6.73 6.73 0 0 1-.304.036c-1.338.143-2.751.76-3.932 1.717l-.31.24c-.007 0 .036-.098.096-.218h0zm-3.729-.383c.878-.508 1.35-1.374 1.461-2.683.143-1.683-.677-2.965-2.298-3.593l-.196-.076.09-.021c.139-.032 1.332-.029 1.555.003l.426.074.228.045.326-.11c1.063-.359 1.992-.356 2.764.009a3.13 3.13 0 0 1 .434.256l.187.139-.553.017c-.407.013-.616.031-.791.07-.854.191-1.429.628-1.755 1.334-.103.224-.197.543-.226.77-.015.118-.007.151.063.277.197.353.271.78.286 1.647l.012.66-.157.187c-.287.343-.764.678-1.255.883-.231.096-.692.236-.781.236-.021 0 .059-.056.178-.125h0zm-3.963-.074c-1.197-.614-1.659-1.539-1.332-2.664.057-.196.326-.779.359-.778.011 0 .021.276.022.614.002.558.008.644.072.946.158.752.426 1.293.873 1.759l.198.218c-.006 0-.092-.042-.192-.093h0zm22.971-3.53c-.196-.517-.559-1.052-.997-1.471-1.016-.974-2.422-1.317-4.157-1.015l-.731.158-.364.083c-.019-.019.405-.345.718-.55.63-.414 1.419-.756 2.199-.953.407-.103.434-.113.472-.188a7.63 7.63 0 0 1 .602-.866c.966-1.206 2.324-2.083 3.784-2.444.346-.086.658-.145.674-.129.006.006-.081.077-.193.158-.647.469-1.202 1.099-1.514 1.719-.139.277-.274.686-.328.995s-.04.937.026 1.24c.177.816.625 1.652 1.333 2.49.115.136.203.255.194.264s-.053.016-.098.017c-.115.001-.517.093-.767.175-.2.066-.71.303-.764.355-.04.039-.067.028-.092-.036h0zm14.234-2.507c-.739-.75-1.671-1.187-2.892-1.355-.695-.096-1.822-.038-2.579.132-.185.042-.276.052-.282.032a6.36 6.36 0 0 1-.023-.412c-.067-1.76-1.129-3.06-2.926-3.578-.178-.051-.451-.115-.608-.142l-.299-.062c-.041-.041.945-.117 1.225-.094 1.541.126 2.724 1.083 3.307 2.675.048.131.1.252.115.269.022.024.085.023.279-.006.329-.05 1.076-.049 1.457.001a4.51 4.51 0 0 1 1.987.734c.249.168.892.783.88.843-.004.018.055.126.13.239.161.244.566 1.028.527 1.02-.003-.001-.137-.134-.297-.297h0zm4.434-.071c.073-.031.098-.031.079 0-.009.015-.042.026-.074.025-.056-.002-.056-.003-.005-.025h0z" fill="#d69c58"/><path d="M24.659 37.98c-1.067-.107-1.834-.273-2.62-.566-1.72-.641-3.037-1.733-3.898-3.231-.157-.273-.189-.311-.244-.291-.085.031-.689.099-1.047.118-1.212.063-2.381-.154-3.327-.616-1.015-.496-1.791-1.232-2.368-2.246l-.189-.307c-.013-.009-.132-.03-.265-.047-1.404-.178-2.872-.774-3.821-1.552a7.08 7.08 0 0 1-.898-.931c-.553-.749-.892-1.624-1.028-2.658-.042-.321-.043-1.441 0-1.747.024-.177.024-.23-.002-.253-.018-.017-.164-.074-.323-.128-.629-.212-1.451-.674-2.032-1.142a8.06 8.06 0 0 1-1.132-1.169C.742 20.242.299 19.088.113 17.69a14.2 14.2 0 0 1 0-2.349c.143-1.073.49-2.083.993-2.89.387-.62 1.05-1.359 1.633-1.818 1.004-.792 2.298-1.42 3.573-1.733.098-.024.188-.057.201-.074s.056-.178.096-.36c.342-1.562 1.094-2.94 2.182-3.999.921-.897 1.996-1.486 3.322-1.819.651-.164 1.191-.238 2.045-.28l.58-.028.305-.296c.551-.535 1.163-.966 1.861-1.31.656-.324 1.145-.484 1.86-.612.281-.05.424-.059.963-.058.701 0 1.027.04 1.622.198.636.169 1.463.521 2.031.866.122.074.238.135.257.135s.145-.059.279-.131A9.9 9.9 0 0 1 27.175.116c1.98-.243 3.885.237 5.494 1.386.642.459 1.384 1.163 1.913 1.817l.331.405.067.078.223-.055c.324-.079.603-.094.866-.047.241.043.537.171.7.303.056.045.112.083.123.083s.136-.073.278-.162c.356-.224.778-.421 1.201-.562 1.249-.417 2.465-.263 3.374.425.064.048.133.088.154.088s.154-.07.294-.155a7.65 7.65 0 0 1 2.826-1.023 8.45 8.45 0 0 1 1.649-.014c.664.095 1.281.282 1.874.57 1.15.559 1.982 1.385 2.52 2.501a5.97 5.97 0 0 1 .541 1.762l.053.359c.009.043.067.075.256.143a5.9 5.9 0 0 1 1.178.608c.491.34 1.033.916 1.332 1.416a6.63 6.63 0 0 1 .502 1.11c.22.686.308 1.264.309 2.032.001.444.002.457.058.48l.335.132c1.331.52 2.283 1.635 2.655 3.109.092.365.168.857.169 1.095.001.218-.043.193.722.402 1.703.464 3.836.833 5.85 1.012 1.222.109 1.577.121 3.416.121 2.088 0 2.659-.031 4.433-.237 1.962-.228 3.359-.189 4.592.129 1.781.46 2.629 1.39 2.47 2.707-.042.35-.093.525-.245.842-.114.237-.162.305-.36.504a1.94 1.94 0 0 1-.866.527 2.36 2.36 0 0 1-.422.094c-.178.015-.18.015-.12-.032l.256-.2a1.85 1.85 0 0 0 .512-.626c.06-.126.069-.179.069-.409 0-.248-.006-.274-.088-.432-.234-.448-.597-.621-1.298-.617-.428.002-.732.049-1.346.207l-4.895 1.397-3.497.934c-1.814.37-3.421.531-5.308.531-1.203 0-2.342-.072-3.129-.198l-.243-.039-.162.105c-.298.193-.414.225-.81.225h-.351l-.105.314c-.206.614-.556 1.183-.991 1.612-.291.286-.59.496-.982.69l-.329.162-.116.352c-.203.618-.516 1.207-.938 1.768-.875 1.163-2.102 1.995-3.442 2.334-.568.144-.869.178-1.58.181l-.632.002-.116.211a7.17 7.17 0 0 1-2.214 2.394 7.46 7.46 0 0 1-1.208.615c-.329.123-.864.26-1.257.321-.42.065-1.438.065-1.883-.001-.424-.063-.879-.16-1.26-.27l-.355-.09c-.023 0-.145.1-.272.222-.935.902-2.283 1.512-3.8 1.722-.411.057-1.49.065-1.9.015a11.6 11.6 0 0 1-3.396-.956l-.408-.181-.216.199c-.747.688-1.953 1.16-3.501 1.37-.315.043-1.785.076-2.072.048h0zm-1.003-3.94c1.196-.176 2.084-.605 2.797-1.352.661-.692 1.056-1.608 1.216-2.82.034-.259.041-.479.032-1.028l-.012-.698.345.357c.349.361.64.728.846 1.066.062.102.131.188.154.193.052.01.105-.088.167-.313.038-.137.048-.271.048-.692l.014-.521c.036 0 .318.119.51.215.735.368 1.416 1.004 1.816 1.697.073.126.13.197.155.193.122-.022.61-.939.786-1.477.215-.658.298-1.2.298-1.953a7.4 7.4 0 0 0-.461-2.585c-.048-.129-.079-.239-.068-.246.031-.019.436.09.634.172.516.213 1.06.662 1.39 1.148.132.195.155.066.057-.33-.29-1.176-1.273-2.392-2.587-3.199l-.286-.177c-.064-.041.523-.034.911.011 1.506.174 2.67.745 3.596 1.765a5.62 5.62 0 0 1 1.129 1.949c.045.139.089.231.11.231.07 0 .323-.667.452-1.19s.168-.848.168-1.422a5.57 5.57 0 0 0-.314-1.926c-.118-.348-.46-1.052-.654-1.344l-.148-.24c0-.054.843-.07 1.227-.023.405.05.84.184 1.075.331.131.083.158.079.26-.037.341-.389.635-1.031.751-1.643.058-.303.066-1.014.016-1.333-.131-.83-.518-1.784-.921-2.272-.478-.58-1.507-1.105-2.806-1.433-.223-.056-.388-.108-.367-.115a5.18 5.18 0 0 1 .286-.057c.599-.107 1.241-.352 1.669-.637a3.36 3.36 0 0 0 .74-.708c.117-.167.128-.176.128-.106 0 .042-.018.188-.04.324-.028.171-.032.257-.013.28s.119.089.232.158c1.545.951 2.48 2.422 2.769 4.355.068.457.068 1.752 0 2.256-.064.476-.134.836-.245 1.273-.051.199-.085.375-.076.389s.085.027.169.027c.323 0 .791.171 1.135.415.227.161.611.551.794.806.08.111.159.203.175.204s.113-.103.214-.23c.472-.591 1.009-1.024 1.498-1.208.094-.035.171-.06.171-.054s-.071.16-.157.343c-.817 1.731-.979 3.337-.474 4.683.203.542.645 1.238.732 1.152.007-.007-.002-.141-.021-.298a6.25 6.25 0 0 1-.002-1.261c.07-.461.218-.896.408-1.195.039-.062.083-.106.097-.097s.025.072.025.141c0 .179.074.587.151.834.093.3.269.653.44.888.225.308.268.299.247-.05-.007-.112-.002-.351.011-.531.09-1.283.696-2.266 1.711-2.774.564-.283 1.189-.421 1.9-.422 1.11-.001 2.034.421 2.698 1.235.19.233.227.225.178-.039-.138-.751-.551-1.487-1.188-2.116-.209-.207-.561-.501-.689-.577-.086-.051-.099-.086-.03-.086.349 0 1.057.123 1.471.255 1.327.424 2.37 1.462 2.839 2.826.147.428.197.297.194-.508-.002-.41-.012-.55-.06-.77a4.08 4.08 0 0 0-.771-1.651c-.078-.101-.028-.096.259.029.603.262 1.059.624 1.421 1.131.191.267.322.535.442.904.062.191.124.347.138.346s.033-.151.044-.334c.034-.599.124-.987.229-.987.066 0 .289.435.517 1.01.085.214.167.386.183.38s.031-.168.035-.449c.007-.402.029-.523.071-.39.031.097.258.273.498.386.89.419 2.642.542 5.646.394 1.879-.092 2.989-.255 6.549-.963l5.687-.875c1.034-.003 1.742.169 2.237.544.183.139.371.382.449.581.104.266.15.161.149-.343 0-.391-.039-.574-.186-.871-.383-.775-1.42-1.35-2.877-1.594-.611-.102-.917-.122-1.897-.12l-.95.002-1.082.123c-1.88.213-2.639.257-4.42.257l-3.694-.161c-1.475-.138-3.1-.398-4.539-.725l-1.814-.492c-.021-.017-.033-.099-.033-.228-.001-.385-.106-.958-.266-1.455a5.74 5.74 0 0 0-.623-1.24c-.228-.32-.639-.73-.958-.958-.259-.185-.887-.516-1.001-.528-.058-.006-.082.025-.213.27-.422.793-.897 1.293-1.522 1.607-.177.089-.56.225-.579.206-.006-.006.051-.047.128-.091.354-.2.705-.534.949-.903.4-.605.71-1.545.79-2.395.027-.293.025-.33-.038-.641-.285-1.398-.933-2.455-1.945-3.172-.325-.23-.706-.433-.744-.395-.015.015-.06.127-.099.247-.161.492-.338.782-.672 1.098-.394.373-.887.568-1.543.611l-.34.013c-.005-.005.037-.072.093-.149.382-.527.637-1.126.752-1.763a6.21 6.21 0 0 0 .025-1.478c-.11-.754-.359-1.53-.73-2.273-.336-.672-.464-.832-.853-1.066a6.19 6.19 0 0 0-3.093-.857c-1.223 0-2.603.413-3.713 1.11l-.272.156c-.013 0-.133-.076-.268-.168-.824-.569-1.73-.738-2.757-.515-.535.116-1.281.435-1.748.747l-.243.147c-.013 0-.086-.052-.164-.115-.291-.237-.664-.35-1.072-.323a2.94 2.94 0 0 0-.662.134c-.03.012-.12-.081-.333-.347-1.25-1.563-2.589-2.542-4.172-3.052-2.01-.647-4.367-.398-6.473.686l-.384.198-.269-.16C21.604.17 19.864-.121 18.135.339c-1.074.286-2.223.958-3.086 1.806l-.277.272-.613.029c-.647.03-1.064.075-1.52.163-1.621.313-2.983 1.037-4.02 2.138-.953 1.011-1.667 2.411-1.957 3.834l-.073.322c-.005.005-.169.05-.364.1-1.666.429-3.287 1.373-4.304 2.506C.855 12.698.291 14.048.155 15.74c-.039.485-.017 1.562.04 1.989.125.924.341 1.656.714 2.415.507 1.032 1.26 1.887 2.244 2.547.304.204.535.33.559.306.009-.009-.018-.057-.06-.107l-.231-.27c-.929-1.087-1.462-2.854-1.377-4.563l.036-.38c.01 0 .04.08.067.178.358 1.275 1.294 2.551 2.445 3.333.242.164.249.152.131-.21a3.09 3.09 0 0 1-.17-1.072c0-.228.011-.389.029-.421.027-.047.032-.041.047.053a3.74 3.74 0 0 0 .254.776c.309.662.95 1.357 1.66 1.798.917.57 2.048.867 3.312.868.826.001 1.374-.109 1.99-.399.955-.449 1.758-1.33 2.217-2.431l.127-.272c.005.005-.004.127-.022.27-.065.526-.032 1.326.068 1.661.015.049-.016.073-.243.195a7.48 7.48 0 0 0-1.667 1.2c-1.065 1.023-1.676 2.194-1.896 3.629a8.45 8.45 0 0 0 .001 1.808c.161 1.097.498 2.046.987 2.784.178.268.283.392.311.365.007-.007-.036-.119-.095-.248-.296-.64-.469-1.43-.514-2.348-.017-.349.004-.902.034-.872.007.007.047.114.089.238.62 1.844 2.307 3.015 4.758 3.301.457.053 1.251.08 1.339.046l.068-.027.02-.444.096-1.154c.008-.008.037.053.063.136.23.731.938 1.698 1.729 2.361.688.577 1.542 1.004 2.38 1.192.427.096.606.114 1.144.118.345.002.569-.011.818-.047h0zm-2.478-8.291l-.108-.327c-.235-.714-.604-1.312-1.139-1.841-.69-.683-1.613-1.19-2.652-1.456-.321-.082-.423-.119-.337-.122l.38-.023c1.437-.092 2.949.397 4.098 1.326l.239.177c.011 0 .104-.041.207-.092a4.08 4.08 0 0 1 .932-.305c.294-.06.951-.103.949-.063-.001.013-.104.071-.229.129-.348.161-.675.392-1.007.713-.474.458-.824.941-1.129 1.556-.189.381-.188.379-.205.328h0zm9.524-4.183c-.66-.188-1.845-.221-2.679-.076l-.206.027c-.004-.004.016-.082.046-.172.275-.838.167-1.679-.295-2.293l-.107-.143.244.017c.134.01.39.047.569.083 1.469.297 2.373 1.113 2.587 2.333l.039.244c0 .03-.038.026-.198-.019h0zm-15.105-4.662c.273-.544.743-1.277 1.122-1.748.594-.739 1.415-1.473 2.17-1.94.263-.162.845-.453.873-.436.011.007.004.074-.016.149-.057.221-.116.662-.115.871.001.434.118.87.309 1.155l.107.174a6.73 6.73 0 0 1-.304.036c-1.338.143-2.751.76-3.932 1.717l-.31.24c-.007 0 .036-.098.096-.218h0zm-3.729-.383c.878-.508 1.35-1.374 1.461-2.683.143-1.683-.677-2.965-2.298-3.593l-.196-.076.09-.021c.139-.032 1.332-.029 1.555.003l.426.074.228.045.326-.11c1.063-.359 1.992-.356 2.764.009a3.13 3.13 0 0 1 .434.256l.187.139-.553.017c-.407.013-.616.031-.791.07-.854.191-1.429.628-1.755 1.334-.103.224-.197.543-.226.77-.015.118-.007.151.063.277.197.353.271.78.286 1.647l.012.66-.157.187c-.287.343-.764.678-1.255.883-.231.096-.692.236-.781.236-.021 0 .059-.056.178-.125h0zm-3.963-.074c-1.197-.614-1.659-1.539-1.332-2.664.057-.196.326-.779.359-.778.011 0 .021.276.022.614.002.558.008.644.072.946.158.752.426 1.293.873 1.759l.198.218c-.006 0-.092-.042-.192-.093h0zm22.971-3.53c-.196-.517-.559-1.052-.997-1.471-1.016-.974-2.422-1.317-4.157-1.015l-.731.158-.364.083c-.019-.019.405-.345.718-.55.63-.414 1.419-.756 2.199-.953.407-.103.434-.113.472-.188a7.63 7.63 0 0 1 .602-.866c.966-1.206 2.324-2.083 3.784-2.444.346-.086.658-.145.674-.129.006.006-.081.077-.193.158-.647.469-1.202 1.099-1.514 1.719-.139.277-.274.686-.328.995s-.04.937.026 1.24c.177.816.625 1.652 1.333 2.49.115.136.203.255.194.264s-.053.016-.098.017c-.115.001-.517.093-.767.175-.2.066-.71.303-.764.355-.04.039-.067.028-.092-.036h0zm14.234-2.507c-.739-.75-1.671-1.187-2.892-1.355-.695-.096-1.822-.038-2.579.132-.185.042-.276.052-.282.032a6.36 6.36 0 0 1-.023-.412c-.045-1.2-.559-2.208-1.463-2.873-.543-.4-1.3-.713-2.017-.836l-.309-.057c-.142-.033.12-.063.673-.078.605-.016.826.008 1.293.138.296.082.863.361 1.108.545.261.195.603.55.811.841.185.259.525.915.628 1.212.081.234.089.24.25.204.08-.018.415-.03.844-.03.68-.001.728.003 1.056.072.455.097.752.198 1.135.385a3.8 3.8 0 0 1 1.444 1.216c.189.267.672 1.17.621 1.16-.003-.001-.137-.134-.297-.297h0z" fill="#d9b200"/><path d="M24.659 37.98c-1.067-.107-1.834-.273-2.62-.566-1.72-.641-3.037-1.733-3.898-3.231-.157-.273-.189-.311-.244-.291-.085.031-.689.099-1.047.118-1.212.063-2.381-.154-3.327-.616-1.015-.496-1.791-1.232-2.368-2.246l-.189-.307c-.013-.009-.132-.03-.265-.047-1.404-.178-2.872-.774-3.821-1.552a7.08 7.08 0 0 1-.898-.931c-.553-.749-.892-1.624-1.028-2.658-.042-.321-.043-1.441 0-1.747.024-.177.024-.23-.002-.253-.018-.017-.164-.074-.323-.128-.629-.212-1.451-.674-2.032-1.142a8.06 8.06 0 0 1-1.132-1.169C.742 20.242.299 19.088.113 17.69a14.2 14.2 0 0 1 0-2.349c.143-1.073.49-2.083.993-2.89.387-.62 1.05-1.359 1.633-1.818 1.004-.792 2.298-1.42 3.573-1.733.098-.024.188-.057.201-.074s.056-.178.096-.36c.342-1.562 1.094-2.94 2.182-3.999.921-.897 1.996-1.486 3.322-1.819.651-.164 1.191-.238 2.045-.28l.58-.028.305-.296c.551-.535 1.163-.966 1.861-1.31.656-.324 1.145-.484 1.86-.612.281-.05.424-.059.963-.058.701 0 1.027.04 1.622.198.636.169 1.463.521 2.031.866.122.074.238.135.257.135s.145-.059.279-.131A9.9 9.9 0 0 1 27.175.116c1.98-.243 3.885.237 5.494 1.386.642.459 1.384 1.163 1.913 1.817l.331.405.067.078.223-.055c.324-.079.603-.094.866-.047.241.043.537.171.7.303.056.045.112.083.123.083s.136-.073.278-.162c.356-.224.778-.421 1.201-.562 1.249-.417 2.465-.263 3.374.425.064.048.133.088.154.088s.154-.07.294-.155a7.65 7.65 0 0 1 2.826-1.023 8.45 8.45 0 0 1 1.649-.014c.664.095 1.281.282 1.874.57 1.15.559 1.982 1.385 2.52 2.501a5.97 5.97 0 0 1 .541 1.762l.053.359c.009.043.067.075.256.143a5.9 5.9 0 0 1 1.178.608c.491.34 1.033.916 1.332 1.416a6.63 6.63 0 0 1 .502 1.11c.22.686.308 1.264.309 2.032.001.444.002.457.058.48l.335.132c1.331.52 2.283 1.635 2.655 3.109.092.365.168.857.169 1.095.001.218-.043.193.722.402 1.703.464 3.836.833 5.85 1.012 1.222.109 1.577.121 3.416.121 2.088 0 2.659-.031 4.433-.237 1.962-.228 3.359-.189 4.592.129 1.781.46 2.629 1.39 2.47 2.707-.042.35-.093.525-.245.842-.114.237-.162.305-.36.504a1.94 1.94 0 0 1-.866.527 2.36 2.36 0 0 1-.422.094c-.178.015-.18.015-.12-.032l.256-.2a1.85 1.85 0 0 0 .512-.626c.06-.126.069-.179.069-.409 0-.248-.006-.274-.088-.432-.234-.448-.597-.621-1.298-.617-.428.002-.732.049-1.346.207l-4.895 1.397-3.497.934c-1.814.37-3.421.531-5.308.531-1.203 0-2.342-.072-3.129-.198l-.243-.039-.162.105c-.298.193-.414.225-.81.225h-.351l-.105.314c-.206.614-.556 1.183-.991 1.612-.291.286-.59.496-.982.69l-.329.162-.116.352c-.203.618-.516 1.207-.938 1.768-.875 1.163-2.102 1.995-3.442 2.334-.568.144-.869.178-1.58.181l-.632.002-.116.211a7.17 7.17 0 0 1-2.214 2.394 7.46 7.46 0 0 1-1.208.615c-.329.123-.864.26-1.257.321-.42.065-1.438.065-1.883-.001-.424-.063-.879-.16-1.26-.27l-.355-.09c-.023 0-.145.1-.272.222-.935.902-2.283 1.512-3.8 1.722-.411.057-1.49.065-1.9.015a11.6 11.6 0 0 1-3.396-.956l-.408-.181-.216.199c-.747.688-1.953 1.16-3.501 1.37-.315.043-1.785.076-2.072.048h0zm-.477-1.79a6.16 6.16 0 0 0 1.925-.599 5.96 5.96 0 0 0 1.685-1.233c.555-.576.934-1.146 1.22-1.832.059-.143.12-.262.134-.264.064-.011.25.616.305 1.031a6.01 6.01 0 0 1-.018 1.096c-.01.061-.006.099.011.099.04 0 .381-.462.548-.745.333-.562.539-1.099.629-1.646l.056-.299c.016-.047.263.19.49.471.607.75.979 1.579 1.081 2.414.037.305 0 .277.507.37 1.594.292 3.119.032 4.253-.727.775-.518 1.337-1.191 1.804-2.161.366-.76.649-1.768.78-2.781.02-.158.048-.298.062-.312.039-.039.481.273.747.526.803.764 1.313 1.727 1.569 2.96.034.166.078.311.096.323a2.09 2.09 0 0 0 .271.08c.206.051.308.059.765.06s.564-.007.802-.06c.512-.115.974-.31 1.428-.605.268-.174.528-.374.528-.407 0-.013-.09-.117-.199-.23-.664-.689-1.132-1.484-1.334-2.268-.072-.279-.132-.769-.095-.769a1.04 1.04 0 0 1 .156.113c1.012.82 2.123 1.424 3.093 1.681a4.06 4.06 0 0 0 1.229.168c.626.001 1.091-.103 1.76-.392 1.551-.671 2.713-1.863 3.294-3.378.254-.664.386-1.317.451-2.237.009-.129.028-.231.043-.231.071 0 .35.179.481.31a1.99 1.99 0 0 1 .442.678c.081.2.087.207.095.122.023-.239-.143-1.108-.298-1.557-.037-.108-.063-.2-.057-.206.015-.015.16.347.237.592a5.29 5.29 0 0 1 .203 1.037c.039.418.049.475.082.475.058 0 .317-.166.456-.294.395-.361.674-.921.818-1.643.055-.274.12-.788.12-.944 0-.086.072-.051.212.104.166.184.37.487.438.651.027.066.06.12.073.12.054 0-.04-.752-.153-1.227-.064-.267-.024-.194.087.162.1.322.188.769.189.962.001.165.039.17.115.014s.215-.296.322-.323c.1-.025.249.029.373.135.06.051.114.084.12.073s-.003-.139-.019-.284-.023-.371-.015-.501l.014-.237.034.29c.064.545.141.937.185.937a31.25 31.25 0 0 1 .48.052c1.871.211 4.544.243 6.729.079 1.816-.136 3.902-.439 5.265-.764l1.689-.473 4.426-1.059c.728 0 1.12.196 1.359.68.225.455.119.935-.304 1.383-.094.1-.165.187-.158.194.019.019.277-.075.457-.166.342-.173.613-.429.806-.763.043-.075.128-.283.187-.462.105-.316.108-.337.111-.695.003-.419-.031-.589-.183-.897-.383-.775-1.42-1.35-2.877-1.594-.611-.102-.917-.122-1.897-.12l-.95.002-1.082.123c-1.88.213-2.639.257-4.42.257l-3.695-.161c-1.475-.138-3.1-.398-4.539-.725l-1.814-.492c-.021-.017-.033-.099-.033-.228-.001-.385-.106-.958-.266-1.455a5.74 5.74 0 0 0-.623-1.24 4.75 4.75 0 0 0-.958-.958c-.41-.292-1.2-.652-1.269-.578a1.39 1.39 0 0 0-.077.203 2.98 2.98 0 0 1-.359.748c-.156.24-.525.628-.667.702-.064.033-.042.001.097-.136.26-.257.439-.507.602-.839.27-.551.331-.98.266-1.874-.084-1.141-.408-2.063-1.016-2.889-.325-.442-.883-.938-1.363-1.213-.206-.118-.93-.424-1.002-.424-.031 0-.041.029-.041.12 0 .291-.124.693-.307.995-.126.207-.471.556-.695.702a3.4 3.4 0 0 1-.747.36c-.165.048-.244.034-.095-.017.222-.076.716-.353.915-.512.361-.289.622-.676.737-1.094.094-.341.047-1.036-.114-1.674-.151-.599-.441-1.269-.757-1.751-.373-.568-.989-1.193-1.536-1.556-.686-.456-1.734-.814-2.637-.902-1.396-.136-2.985.265-4.285 1.082l-.272.156c-.013 0-.133-.076-.268-.168-.824-.569-1.73-.738-2.757-.515-.535.116-1.281.435-1.748.747l-.243.147c-.013 0-.086-.052-.164-.115-.291-.237-.664-.35-1.072-.323a2.94 2.94 0 0 0-.662.134c-.03.012-.12-.081-.333-.347-1.25-1.563-2.589-2.542-4.172-3.052-2.01-.647-4.367-.398-6.473.686l-.384.198-.269-.16C21.604.17 19.864-.121 18.135.339c-1.074.286-2.223.958-3.086 1.806l-.277.272-.613.029c-.647.03-1.064.075-1.52.163-1.621.313-2.983 1.037-4.02 2.138-.953 1.011-1.667 2.411-1.957 3.834l-.073.322c-.005.005-.169.05-.364.1-1.67.43-3.301 1.381-4.314 2.516-1.06 1.188-1.62 2.533-1.757 4.22-.039.485-.017 1.562.04 1.989.125.924.341 1.656.714 2.415.507 1.032 1.265 1.893 2.243 2.546.317.212.37.24.848.461.899.415 1.481.552 2.359.553.579.001 1.154-.072 1.003-.126l-.238-.084a4.38 4.38 0 0 1-1.381-.851c-.287-.277-.65-.767-.815-1.1-.074-.149-.242-.654-.298-.895-.063-.272-.099-.641-.068-.694.024-.041.028-.039.028.021.002.165.092.59.185.872a4.18 4.18 0 0 0 .504 1.028c.221.333.742.852 1.077 1.074.754.498 1.624.741 2.68.747.233.001.279.007.226.03-.096.042-.887.04-1.227-.002a1.29 1.29 0 0 0-.567.018c-.66.129-1.384.139-2.029.03-.179-.03-.335-.045-.347-.033-.029.03-.078.64-.078.974 0 .221.01.297.051.376.071.138.471.683.701.953a9.82 9.82 0 0 0 1.029 1.003c.711.565 1.557.973 2.351 1.134.287.058.977.117 1.077.092.06-.015.061-.019.076-.574.022-.778.11-1.3.326-1.929.092-.267.398-.928.42-.906.007.007-.041.124-.106.26a6.18 6.18 0 0 0-.506 1.7c-.066.436-.066 1.375-.001 1.821.161 1.096.498 2.045.986 2.784a7 7 0 0 0 1.011 1.13c.123.106.346.276.497.378.271.182.636.383.636.349 0-.01-.051-.078-.114-.152a3.38 3.38 0 0 1-.545-.912c-.028-.072-.043-.136-.032-.143s.085.029.164.08c.715.457 1.786.761 3.008.853l.931.027c.464 0 .577-.007.589-.036.008-.02-.016-.189-.052-.376-.082-.421-.105-.674-.076-.828.021-.116.023-.112.056.145a6.38 6.38 0 0 0 .253 1.137c.21.629.634 1.381 1.106 1.962.15.184.176.204.451.333.857.404 1.988.723 2.944.829l.343.039a13.22 13.22 0 0 0 1.595-.05h0zM44.359 9.097c-.642-.601-1.549-.989-2.586-1.107-.336-.038-1.191-.016-1.477.038-.108.021-.209.032-.224.026s-.08-.156-.144-.333c-.337-.933-.854-1.643-1.534-2.104-.229-.155-.709-.381-.976-.457-.277-.08-.66-.143-1.042-.172l-.29-.022.359-.004c.606-.006 1.096.107 1.646.379.189.094.426.232.528.308.261.195.603.55.811.841.185.259.525.915.628 1.212.081.234.089.24.25.204.08-.018.415-.03.844-.03.68-.001.728.003 1.056.072.837.179 1.498.503 2.07 1.016.15.134.321.325.287.32a4.22 4.22 0 0 1-.206-.186h0z" fill="#c46f19"/><path d="M24.658 37.952c-1.919-.166-3.53-.769-4.809-1.8-.314-.253-.884-.832-1.12-1.138-.207-.267-.463-.653-.606-.915-.136-.247-.145-.253-.303-.221-.647.131-1.743.149-2.468.04-1.055-.158-1.956-.522-2.718-1.096-.236-.178-.773-.7-.92-.896-.065-.086-.072-.103-.025-.061.035.032.076.06.091.062s.136.121.27.263a5.44 5.44 0 0 0 .957.799c.241.156.554.321.554.293 0-.01-.051-.078-.114-.152a3.38 3.38 0 0 1-.545-.912c-.028-.072-.043-.136-.032-.143s.085.029.164.08c.715.457 1.786.761 3.008.853l.931.027c.464 0 .577-.007.589-.036.008-.02-.016-.189-.052-.376-.082-.427-.103-.647-.076-.815l.021-.132.034.264c.051.391.144.811.253 1.137.21.629.634 1.381 1.106 1.962.15.184.176.204.451.333.822.388 1.822.677 2.841.821.407.058 1.608.066 1.937.014.855-.136 1.394-.299 2.029-.616a5.96 5.96 0 0 0 1.685-1.233c.555-.576.934-1.146 1.22-1.832.059-.143.12-.262.134-.264.064-.011.25.616.305 1.031a6.01 6.01 0 0 1-.018 1.096c-.01.061-.006.099.011.099.04 0 .381-.462.548-.745.333-.562.539-1.099.629-1.646l.056-.299c.016-.047.263.19.49.471.607.75.979 1.579 1.081 2.414.037.305 0 .277.507.37 1.594.292 3.119.032 4.253-.727.775-.518 1.337-1.191 1.804-2.161.366-.76.649-1.768.78-2.781.02-.158.048-.298.062-.312.039-.039.481.273.747.526.803.764 1.313 1.727 1.569 2.96.034.166.078.311.096.323a2.09 2.09 0 0 0 .271.08c.206.051.308.059.765.06s.564-.007.802-.06c.512-.115.974-.31 1.428-.605.268-.174.528-.374.528-.407 0-.013-.09-.117-.199-.23-.664-.689-1.132-1.484-1.334-2.268-.072-.279-.132-.769-.095-.769a1.04 1.04 0 0 1 .156.113c1.012.82 2.123 1.424 3.093 1.681a4.06 4.06 0 0 0 1.229.168c.626.001 1.091-.103 1.76-.392 1.551-.671 2.713-1.863 3.294-3.378.254-.664.386-1.317.451-2.237.009-.129.028-.231.043-.231.071 0 .35.179.481.31a1.99 1.99 0 0 1 .442.678c.081.2.087.207.095.122.023-.239-.143-1.108-.298-1.557-.037-.108-.063-.2-.057-.206.015-.015.16.347.237.592a5.29 5.29 0 0 1 .203 1.037c.039.418.049.475.082.475.058 0 .317-.166.456-.294.395-.361.674-.921.818-1.643.055-.274.12-.788.12-.944 0-.086.072-.051.212.104.166.184.37.487.438.651.06.146.089.153.089.022 0-.233-.129-1.039-.202-1.269-.012-.038-.01-.038.014-.004.016.022.048.129.072.238s.061.224.082.256c.039.06.139.613.14.774.001.168.039.174.115.017s.215-.296.322-.323c.1-.025.249.029.373.135.06.051.114.084.12.073s-.004-.151-.023-.311c-.02-.174-.024-.294-.009-.299s.026-.058.028-.119c.003-.085.006-.092.014-.031l.162.929c.041.066 1.47.194 2.776.248a55.69 55.69 0 0 0 3.615-.027c1.638-.095 3.139-.264 4.605-.519 1.192-.207 1.472-.275 3.193-.773l4.426-1.059c.728 0 1.12.196 1.359.68.225.455.119.935-.304 1.383-.094.1-.165.187-.158.194.019.019.277-.075.457-.166.476-.24.785-.605.964-1.139.088-.262.181-.414.146-.238-.155.773-.65 1.33-1.4 1.578-.219.072-.515.131-.515.102 0-.007.05-.046.112-.086.176-.116.414-.354.524-.523.283-.435.283-.847 0-1.25-.302-.43-.893-.562-1.85-.414-.468.072-2.105.528-6.109 1.7l-2.934.776a26.95 26.95 0 0 1-3.386.48c-.669.056-2.588.079-3.293.039l-1.823-.175-.247-.04-.148.099c-.082.054-.22.129-.307.165-.145.061-.191.067-.519.065l-.361-.002-.094.292c-.347 1.08-1.134 1.982-2.079 2.38a1.15 1.15 0 0 0-.204.104c-.02.018-.089.192-.152.385s-.198.518-.298.721c-.836 1.69-2.393 2.961-4.133 3.374-.535.127-.82.157-1.51.16l-.641.002-.107.198c-.378.7-1.076 1.532-1.712 2.041-.705.564-1.53.977-2.361 1.18-.551.135-.841.167-1.492.169a7.46 7.46 0 0 1-2.239-.314l-.366-.094c-.022 0-.14.094-.261.209-.447.423-.988.789-1.607 1.086a6.94 6.94 0 0 1-2.204.649 11.4 11.4 0 0 1-1.913.013c-1.217-.154-2.299-.465-3.49-1.004l-.311-.134c-.008 0-.115.094-.237.21-.783.737-2.118 1.23-3.757 1.387-.366.035-1.471.048-1.784.021h0zm-13.079-6.203c-.033-.042-.032-.043.01-.01s.058.056.036.056c-.005 0-.026-.021-.046-.046h0zm-.079-.106c-.033-.042-.032-.043.01-.01.025.02.046.041.046.046 0 .022-.022.008-.056-.036h0zm-.34-.534c-.016-.029-.022-.053-.015-.053s.026.024.041.053.022.053.015.053-.026-.024-.041-.053h0zm-.159-.274c-.021-.02-.151-.05-.289-.067a8.43 8.43 0 0 1-2.52-.739c-1.88-.903-2.943-2.353-3.21-4.376-.041-.314-.042-1.402 0-1.731.033-.266.018-.319-.099-.342-.204-.041-1.19-.459-1.19-.505 0-.039.188.012.356.097.715.359 1.46.531 2.309.532.579.001 1.154-.072 1.003-.126l-.238-.084a4.38 4.38 0 0 1-1.381-.851 4.64 4.64 0 0 1-.833-1.139c-.043-.09-.072-.179-.064-.198s-.023-.141-.066-.271c-.083-.248-.19-.749-.186-.871.001-.039.02.03.041.153.087.5.326 1.078.644 1.558.221.333.742.852 1.077 1.074.754.498 1.624.741 2.68.747.233.001.279.007.226.03-.096.042-.887.04-1.227-.002a1.29 1.29 0 0 0-.567.018c-.66.129-1.384.139-2.029.03-.179-.03-.335-.045-.347-.033-.029.03-.078.64-.078.974 0 .221.01.297.051.376.071.138.471.683.701.953a9.82 9.82 0 0 0 1.029 1.003c.711.565 1.557.973 2.351 1.134.287.058.977.117 1.077.092.06-.015.061-.019.076-.574l.056-.823c.048-.31.147-.761.163-.744.006.006-.013.123-.044.259-.141.631-.174 1.421-.09 2.117.088.731.322 1.609.576 2.162l.087.205c-.004 0-.024-.016-.046-.036h0zm-.47-4.766c0-.022.022-.099.049-.172s.049-.114.049-.092-.022.099-.049.172-.049.114-.049.092h0zm.117-.369c.01-.036.029-.084.042-.106.017-.028.019-.019.007.026-.01.036-.029.084-.042.106-.017.028-.019.019-.007-.026h0zm.118-.303c0-.015.012-.044.026-.066s.026-.028.026-.013-.011.044-.026.066-.026.028-.026.013h0zm-7.22-2.403c-.049-.039-.049-.04.008-.012.033.016.059.034.059.041 0 .02-.014.014-.068-.029h0zm55.041-.289c.001-.044.008-.058.016-.032s.007.061-.001.079-.015-.003-.014-.047h0zm-55.663-.112c-.033-.042-.032-.043.01-.01s.058.056.036.056c-.005 0-.026-.021-.046-.046h0zm-.211-.158c-.033-.042-.032-.043.01-.01.025.02.046.041.046.046 0 .022-.022.008-.056-.036h0zm-.118-.092l-.05-.059.059.05c.056.047.071.068.05.068-.005 0-.032-.027-.059-.059h0zm-.184-.158l-.078-.086.086.077c.08.072.098.094.078.094a.66.66 0 0 1-.086-.086h0zm77.472-.007c.001-.044.008-.058.016-.032s.007.061-.001.079-.015-.003-.014-.047h0zm-77.672-.165c-.033-.042-.032-.043.01-.01.025.02.046.041.046.046 0 .022-.022.008-.056-.036h0zm-.264-.264c-.033-.042-.032-.043.01-.01s.058.056.036.056c-.005 0-.026-.021-.046-.046h0zm-.17-.198l-.078-.086.086.078c.047.043.086.081.086.086 0 .02-.022.002-.094-.078h0zm78.103-.062c.002-.031.009-.037.019-.016s.008.042-.002.051-.018-.007-.017-.035h0zm-78.25-.11c-.033-.042-.032-.043.01-.01.025.02.046.041.046.046 0 .022-.022.008-.056-.036h0zm78.223-.022c.002-.031.009-.037.019-.016s.008.042-.002.051-.018-.007-.017-.035h0zm-78.329-.11c-.033-.042-.032-.043.01-.01.025.02.046.041.046.046 0 .022-.022.008-.056-.036h0zm-.079-.106c-.033-.042-.032-.043.01-.01s.058.056.036.056c-.005 0-.026-.021-.046-.046h0zm78.29-.126c-.025-.066-.018-.083.013-.03.015.026.022.054.016.061s-.02-.007-.029-.031h0zm-.069-.144c-.016-.029-.022-.053-.015-.053s.026.024.041.053.022.053.015.053-.026-.024-.041-.053h0zm-.213-.31l-.064-.073.073.064c.04.035.073.068.073.073 0 .021-.021.004-.081-.064h0zm-.29-.29l-.064-.073.073.064c.04.035.073.068.073.073 0 .021-.021.004-.081-.064h0zm-.262-.194c-.057-.046-.058-.05-.008-.026a.22.22 0 0 1 .074.055c.024.039.008.032-.066-.029h0zm-74.332-.077c0-.051.006-.072.014-.046s.008.067 0 .092-.014.005-.014-.046h0zm73.937-.145c-.065-.035-.109-.064-.098-.065.028-.002.23.102.23.118s.001.018-.132-.053h0zm-11.169-.269c.047-.007.124-.007.172 0s.009.013-.086.013-.133-.006-.086-.013h0zm2.112 0a.59.59 0 0 1 .158 0c.04.007.001.013-.086.013s-.12-.006-.072-.013h0zm-2.89-.025c.025-.008.067-.008.092 0s.005.014-.046.014-.072-.006-.046-.014h0zm3.668 0c.025-.008.067-.008.092 0s.005.014-.046.014-.072-.006-.046-.014h0zm-4.169-.027c.026-.008.061-.007.079.001s-.003.015-.047.015-.058-.008-.032-.016h0zm4.671 0c.026-.008.061-.007.079.001s-.003.015-.047.015-.058-.008-.032-.016h0zm-5.067-.026c.026-.008.061-.007.079.001s-.003.015-.047.015-.058-.008-.032-.016h0zm5.449.001c.018-.009.048-.009.066 0s.003.016-.033.016-.051-.007-.033-.016h0zm-5.806-.026c.018-.009.048-.009.066 0s.003.016-.033.016-.051-.007-.033-.016h0zm6.136-.001c.026-.008.061-.007.079.001s-.003.015-.047.015-.058-.008-.032-.016h0zm-6.439-.026c.026-.008.061-.007.079.001s-.003.015-.047.014-.058-.008-.032-.016h0zm6.729 0c.026-.008.061-.007.079.001s-.003.015-.047.014-.058-.008-.032-.016h0zm5.688 0c.019-.009.042-.008.051.002s-.007.018-.035.017-.037-.009-.016-.019h0zm-12.708-.027c.026-.008.061-.007.079.001s-.003.015-.047.014-.058-.008-.032-.016h0zm7.296.001c.018-.009.048-.009.066 0s.003.016-.033.016-.051-.007-.033-.016h0zm5.306-.001c.019-.009.042-.008.051.002s-.007.018-.035.017-.037-.009-.016-.019h0zm-12.88-.026c.018-.009.048-.009.066 0s.003.016-.033.016-.051-.007-.033-.016h0zm7.811 0c.018-.009.048-.009.066 0s.003.016-.033.016-.051-.007-.033-.016h0zm-8.049-.026c.018-.009.048-.009.066 0s.003.016-.033.016-.051-.007-.033-.016h0zm8.286 0c.018-.009.048-.009.066 0s.003.016-.033.016-.051-.007-.033-.016h0zm4.593-.001c.019-.009.042-.008.051.002s-.007.018-.035.017-.037-.009-.016-.019h0zm-13.103-.027c.026-.008.061-.007.079.001s-.003.015-.047.014-.058-.008-.032-.016h0zm8.748.001c.018-.009.048-.009.066 0s.003.016-.033.016-.051-.007-.033-.016h0zm4.224-.001c.019-.009.042-.008.051.002s-.007.018-.035.017-.037-.009-.016-.019h0zm-13.196-.026c.018-.009.048-.009.066 0s.003.016-.033.016-.051-.007-.033-.016h0zm9.21 0c.018-.009.048-.009.066 0s.003.016-.033.016-.051-.007-.033-.016h0zm3.828-.001c.019-.009.042-.008.051.002s-.007.018-.035.017-.037-.009-.016-.019h0zm-13.249-.026c.018-.009.048-.009.066 0s.003.016-.033.016-.051-.007-.033-.016h0zm9.658 0c.018-.009.048-.009.066 0s.003.016-.033.016-.051-.007-.033-.016h0zm3.404 0c.018-.009.048-.009.066 0s.003.016-.033.016-.051-.007-.033-.016h0zm-13.246-.027c.019-.009.042-.008.051.002s-.007.018-.035.017-.037-.009-.016-.019h0zm10.079.001c.018-.009.048-.009.066 0s.003.016-.033.016-.051-.007-.033-.016h0zm2.956 0c.018-.009.048-.009.066 0s.003.016-.033.016-.051-.007-.033-.016h0zm-13.219-.027c.019-.009.042-.008.051.002s-.007.018-.035.017-.037-.009-.016-.019h0zm10.528.001c.018-.009.048-.009.066 0s.003.016-.033.016-.051-.007-.033-.016h0zm2.454 0c.018-.009.048-.009.066 0s.003.016-.033.016-.051-.007-.033-.016h0zm-13.167-.027c.019-.009.042-.008.051.002s-.007.018-.035.017-.037-.009-.016-.019h0zm11.029.001c.018-.009.048-.009.066 0s.003.016-.033.016-.051-.007-.033-.016h0zm1.821 0c.018-.009.048-.009.066 0s.003.016-.033.016-.051-.007-.033-.016h0zm-13.035-.027c.019-.009.042-.008.051.002s-.007.018-.035.017-.037-.009-.016-.019h0zm11.662-.001c.033-.007.086-.007.119 0s.006.014-.059.014-.092-.006-.059-.014h0zm.871 0c.033-.007.086-.007.119 0s.006.014-.059.014-.092-.006-.059-.014h0zm-12.692-.026c.019-.009.042-.008.051.002s-.007.018-.035.017-.037-.009-.016-.019h0zm-.185-.026c.019-.009.042-.008.051.002s-.007.018-.035.017-.037-.009-.016-.019h0zm-.158-.026c.019-.009.042-.008.051.002s-.007.018-.035.017-.037-.009-.016-.019h0zm-.158-.026c.019-.009.042-.008.051.002s-.007.018-.035.017-.037-.009-.016-.019h0zm-.29-.053c.019-.009.042-.008.051.002s-.007.018-.035.017-.037-.009-.016-.019h0zm-.158-.026c.019-.009.042-.008.051.002s-.007.018-.035.017-.037-.009-.016-.019h0zm-.132-.026c.019-.009.042-.008.051.002s-.007.018-.035.017-.037-.009-.016-.019h0zm-.29-.053c.019-.009.042-.008.051.002s-.007.018-.035.017-.037-.009-.016-.019h0zm-.132-.026c.019-.009.042-.008.051.002s-.007.018-.035.017-.037-.009-.016-.019h0zm-.132-.026c.019-.009.042-.008.051.002s-.007.018-.035.017-.037-.009-.016-.019h0zm-.132-.026c.019-.009.042-.008.051.002s-.007.018-.035.017-.037-.009-.016-.019h0zm-.238-.053c.019-.009.042-.008.051.002s-.007.018-.035.017-.037-.009-.016-.019h0zm-.369-.079c.019-.009.042-.008.051.002s-.007.018-.035.017-.037-.009-.016-.019h0zm-.449-.106c.019-.009.042-.008.051.002s-.007.018-.035.017-.037-.009-.016-.019h0zM.29 18.559c.002-.031.009-.037.019-.016s.008.042-.002.051-.018-.007-.017-.035h0zm59.422.025c.019-.009.042-.008.051.002s-.007.018-.035.017-.037-.009-.016-.019h0zm-.106-.026c.019-.009.042-.008.051.002s-.007.018-.035.017-.037-.009-.016-.019h0zm-.106-.026c.019-.009.042-.008.051.002s-.007.018-.035.017-.037-.009-.016-.019h0zm-1.065-.301c-.028-.046.004-.056.04-.012.021.025.023.04.005.04s-.036-.013-.045-.028h0zM.211 18.163c.001-.031.009-.037.019-.016s.008.042-.002.051-.018-.007-.017-.035h0zm58.193-.183c0-.058.007-.079.014-.046s.007.08-.001.106-.014-.002-.014-.06h0zm-58.219.024c.001-.031.009-.037.019-.016s.008.042-.002.051-.018-.007-.017-.035h0zm-.024-.196c0-.036.007-.051.016-.033s.009.048 0 .066-.016.003-.016-.033h0zm58.215-.158c0-.036.007-.051.016-.033s.009.048 0 .066-.016.003-.016-.033h0zM.134 17.598c0-.036.007-.051.016-.033s.009.048 0 .066-.016.003-.016-.033h0zm58.213-.147c.002-.031.009-.037.019-.016s.008.042-.002.051-.018-.007-.017-.035h0zM.109 17.307c0-.051.006-.072.014-.046s.008.067 0 .092-.014.005-.014-.046h0zm58.211-.015c.002-.031.009-.037.019-.016s.008.042-.002.051-.018-.007-.017-.035h0zm-.053-.264c.002-.031.009-.037.019-.016s.008.042-.002.051-.018-.007-.017-.035h0zm-.026-.106c.002-.031.009-.037.019-.016s.008.042-.002.051-.018-.007-.017-.035h0zM.087 16.516c0-.196.005-.276.011-.178a3.49 3.49 0 0 1 0 .356c-.006.098-.011.018-.011-.178h0zm.022-.792c0-.051.006-.072.014-.046s.008.067 0 .092-.014.005-.014-.046h0zm57.549-.185c-.016-.029-.022-.053-.015-.053s.026.024.041.053.022.053.015.053-.026-.024-.041-.053h0zM.134 15.434c0-.036.007-.051.016-.033s.009.048 0 .066-.016.003-.016-.033h0zm54.114-.124c.26-.257.439-.507.602-.839.251-.511.33-.984.28-1.676-.014-.196-.018-.416-.008-.488.017-.127.019-.122.05.139.018.149.032.479.032.732 0 .518-.009.494.223.568.096.03.1.035.046.055-.034.012-.089.01-.129-.005s-.078-.017-.089-.006-.046.104-.079.205a2.98 2.98 0 0 1-.359.748c-.156.24-.525.628-.667.702-.064.033-.042.001.097-.136h0zm-54.09-.102c.001-.031.009-.037.019-.016s.008.042-.002.051-.018-.007-.017-.035h0zm57.206-.084c-.033-.042-.032-.043.01-.01s.058.056.036.056c-.005 0-.026-.021-.046-.046h0zm-57.18-.101c.001-.031.009-.037.019-.016s.008.042-.002.051-.018-.007-.017-.035h0zm57.049-.057l-.064-.073.073.064c.04.035.073.068.073.073 0 .021-.021.004-.081-.064h0zM.211 14.864c.001-.031.009-.037.019-.016s.008.042-.002.051-.018-.007-.017-.035h0zm56.838-.084l-.064-.073.073.064c.068.06.085.081.064.081-.005 0-.037-.033-.073-.073h0zM.237 14.732c.002-.031.009-.037.019-.016s.008.042-.002.051-.018-.007-.017-.035h0zm56.627-.136l-.064-.073.073.064c.04.035.073.068.073.073 0 .021-.021.004-.081-.064h0zM.29 14.495c.002-.031.009-.037.019-.016s.008.042-.002.051-.018-.007-.017-.035h0zm56.415-.031c-.033-.042-.032-.043.01-.01s.058.056.036.056c-.005 0-.026-.021-.046-.046h0zm-56.362-.18c.002-.031.009-.037.019-.016s.008.042-.002.051-.018-.007-.017-.035h0zm.369-1.027c0-.015.017-.056.038-.092s.038-.054.038-.04-.017.056-.038.092-.038.054-.038.04h0zm.209-.435c.016-.029.034-.053.041-.053s0 .024-.015.053-.034.053-.041.053 0-.024.015-.053h0zm.449-.722c0-.005.021-.026.046-.046.042-.033.043-.032.01.01s-.056.058-.056.036h0zm53.731-.032c.001-.031.009-.037.019-.016s.008.042-.002.051-.018-.007-.017-.035h0zm-53.651-.074c0-.005.021-.026.046-.046.042-.033.043-.032.01.01s-.056.058-.056.036h0zm53.625-.085c.001-.031.009-.037.019-.016s.008.042-.002.051-.018-.007-.017-.035h0zm-53.546-.021c0-.005.021-.026.046-.046.042-.033.043-.032.01.01s-.056.058-.056.036h0zm.145-.175c.026-.029.054-.053.061-.053s-.008.024-.035.053-.054.053-.061.053.008-.024.035-.053h0zm53.348-.042c.001-.031.009-.037.019-.016s.008.042-.002.051-.018-.007-.017-.035h0zm-53.229-.098a.66.66 0 0 1 .086-.086l.086-.078-.078.086c-.072.08-.094.098-.094.078h0zm.211-.213c0-.005.021-.026.046-.046.042-.033.043-.032.01.01s-.056.058-.056.036h0zm.185-.185c0-.005.021-.026.046-.046.042-.033.043-.032.01.01s-.056.058-.056.036h0zm.211-.214c.049-.051.095-.092.103-.092s-.027.042-.076.092-.095.092-.103.092.027-.042.076-.092h0zm.185-.158c.034-.036.068-.066.075-.066s-.015.03-.049.066-.068.066-.075.066.015-.03.049-.066h0zm.132-.102c0-.005.021-.026.046-.046.042-.033.043-.032.01.01s-.056.058-.056.036h0zm51.95-.083c-.025-.066-.018-.083.013-.03.015.026.022.054.016.061s-.02-.007-.029-.031h0zm-.175-.355c-.016-.029-.022-.053-.015-.053s.026.024.041.053.022.053.015.053-.026-.024-.041-.053h0zm-4.712.003c.01-.016.033-.029.052-.029s.187-.077.374-.17c.567-.284.944-.636 1.158-1.081.151-.313.185-.482.181-.886-.007-.73-.198-1.496-.565-2.262a5.06 5.06 0 0 0-.678-1.083c-.182-.225-.704-.745-.747-.745-.01 0-.077-.068-.147-.152l-.128-.152.105.077a5.43 5.43 0 0 1 1.623 1.915 6.36 6.36 0 0 1 .595 2.025c.01.105.032.202.049.216s.131.062.253.108c.256.094.659.279.659.302 0 .009-.035-.003-.078-.025a.37.37 0 0 0-.137-.04c-.032 0-.175-.048-.316-.106-.332-.136-.34-.136-.34.014 0 .174-.073.501-.155.698-.188.449-.522.811-1.019 1.103-.284.167-.791.353-.741.273h0zm-46.377-.067c0-.007.024-.026.053-.041s.053-.022.053-.015-.024.026-.053.041-.053.022-.053.015h0zm.211-.132c0-.007.024-.026.053-.041s.053-.022.053-.015-.024.026-.053.041-.053.022-.053.015h0zm.369-.211c0-.007.024-.026.053-.041s.053-.022.053-.015-.024.026-.053.041-.053.022-.053.015h0zm50.163-.14c-.033-.042-.032-.043.01-.01.025.02.046.041.046.046 0 .022-.022.008-.056-.036h0zm-.079-.106c-.033-.042-.032-.043.01-.01s.058.056.036.056c-.006 0-.026-.021-.046-.046h0zm-49.45-.086c.022-.014.051-.026.066-.026s.009.012-.013.026-.051.026-.066.026-.009-.012.013-.026h0zm49.332-.059l-.05-.059.059.05c.033.028.059.054.059.059 0 .021-.021.006-.068-.05h0zm-.146-.172c-.033-.042-.032-.043.01-.01s.058.056.036.056c-.005 0-.026-.021-.046-.046h0zm-.394-.369l-.064-.073.073.064c.04.035.073.068.073.073 0 .021-.021.004-.081-.064h0zM6.22 8.951c.019-.009.042-.008.051.002s-.007.018-.035.017-.037-.009-.016-.019h0zm.106-.026c.019-.009.042-.008.051.002s-.007.018-.035.017-.037-.009-.016-.019h0zm.203-.062c.009-.015.022-.026.028-.026s.012.012.012.026-.013.026-.028.026-.021-.012-.012-.026h0zm46.338-.331c-.049-.039-.049-.04.008-.012.033.016.059.034.059.041 0 .02-.014.014-.068-.029h0zM6.623 8.504c.002-.031.009-.037.019-.016s.008.042-.002.051-.018-.007-.017-.035h0zm36.73-.076c-.417-.213-.986-.37-1.581-.438-.336-.038-1.191-.016-1.477.038-.108.021-.209.032-.224.026s-.08-.156-.144-.333c-.403-1.112-1.029-1.875-1.902-2.314-.43-.216-.845-.337-1.359-.396l-.211-.024.227.012a4.03 4.03 0 0 1 1.423.376c.857.431 1.545 1.273 1.926 2.354.033.094.074.186.09.204.023.026.09.024.319-.006a6.72 6.72 0 0 1 1.417 0c.511.067 1.147.249 1.341.383a2.65 2.65 0 0 0 .231.129.85.85 0 0 1 .165.096c0 .018.012.023-.239-.105h0zM6.65 8.372c.002-.031.009-.037.019-.016s.008.042-.002.051-.018-.007-.017-.035h0zm.026-.106c.002-.031.009-.037.019-.016s.008.042-.002.051-.018-.007-.017-.035h0zm.026-.106c.002-.031.009-.037.019-.016s.008.042-.002.051-.018-.007-.017-.035h0zm.447-1.264c0-.015.012-.044.026-.066s.026-.028.026-.013-.011.044-.026.066-.026.028-.026.013h0zm.342-.699c.016-.029.034-.053.041-.053s0 .024-.015.053-.034.053-.041.053 0-.024.015-.053h0zm.238-.396c.016-.029.034-.053.041-.053s0 .024-.015.053-.034.053-.041.053 0-.024.015-.053h0zm.396-.564c0-.005.021-.026.046-.046.042-.033.043-.032.01.01s-.056.058-.056.036h0zm.119-.148c.026-.029.054-.053.061-.053s-.008.024-.035.053-.054.053-.061.053.008-.024.035-.053h0zm.145-.172c.034-.036.068-.066.075-.066s-.015.03-.049.066-.068.066-.075.066.015-.03.049-.066h0zm27.781.048c.047-.007.124-.007.172 0s.009.013-.086.013-.133-.006-.086-.013h0zM8.574 4.71c0-.005.021-.026.046-.046.042-.033.043-.032.01.01s-.056.058-.056.036h0zm.238-.237c0-.005.021-.026.046-.046.042-.033.043-.032.01.01s-.056.058-.056.036h0zm.251-.228c.026-.029.054-.053.061-.053s-.008.024-.035.053-.054.053-.061.053.008-.024.035-.053h0zm27.778-.115c-.024-.029-.017-.034.036-.023.036.007.059.023.051.036-.021.034-.053.029-.088-.013h0zm-27.633 0c0-.005.021-.026.046-.046.042-.033.043-.032.01.01s-.056.058-.056.036h0zm27.494-.115c-.033-.042-.032-.043.01-.01.025.02.046.041.046.046 0 .022-.022.008-.056-.036h0zm-27.362.01c0-.005.021-.026.046-.046.042-.033.043-.032.01.01s-.056.058-.056.036h0zm27.735-.001c0-.007.024-.026.053-.041s.053-.022.053-.015-.024.026-.053.041-.053.022-.053.015h0zm4.735-.127c-.027-.033-.033-.045-.012-.026.052.045.148.041.226-.01.036-.023.065-.036.065-.029a.58.58 0 0 1-.204.124c-.014 0-.048-.027-.075-.059h0zm-5.304-.008c-.049-.039-.049-.04.008-.012.033.016.059.034.059.041 0 .02-.014.014-.068-.029h0zM9.55 3.865c0-.005.021-.026.046-.046.042-.033.043-.032.01.01s-.056.058-.056.036h0zm25.344-.076c-.05-.059-.05-.059.003-.016.029.024.077.049.106.056.051.012.051.013-.003.016-.03.002-.078-.024-.106-.056h0zm.537-.063c.018-.009.048-.009.066 0s.003.016-.033.016-.051-.007-.033-.016h0zm.582-.001c.019-.009.042-.008.051.002s-.007.018-.035.017-.037-.009-.016-.019h0zm-1.212-.056c-.033-.042-.032-.043.01-.01.025.02.046.041.046.046 0 .022-.022.008-.056-.036h0zm6.612-.048c-.049-.039-.049-.04.008-.012.033.016.059.034.059.041 0 .02-.014.014-.068-.029h0zm-6.704-.071l-.05-.059.059.05c.056.047.071.068.05.068-.005 0-.032-.027-.059-.059h0zm3.209.007c.022-.014.051-.026.066-.026s.009.012-.013.026-.051.026-.066.026-.009-.012.013-.026h0zm4.644-.013a1.96 1.96 0 0 1 .384-.192c.005.005-.079.053-.187.107s-.197.092-.197.085h0zm-7.959-.125l-.05-.059.059.05c.056.047.071.068.05.068-.005 0-.032-.027-.059-.059h0zm14.119-.034c-.049-.039-.049-.04.008-.012.033.016.059.034.059.041 0 .02-.014.014-.068-.029h0zm-38.329-.051c0-.018.267-.151.279-.139.005.005-.055.042-.135.081s-.144.065-.144.058h0zm24.104-.046l-.05-.059.059.05c.056.047.071.068.05.068-.005 0-.032-.027-.059-.059h0zm4.365-.037c.019-.009.042-.008.051.002s-.007.018-.035.017-.037-.009-.016-.019h0zm.132-.026c.019-.009.042-.008.051.002s-.007.018-.035.017-.037-.009-.016-.019h0zm1.399 0c.019-.009.042-.008.051.002s-.007.018-.035.017-.037-.009-.016-.019h0zm-1.24-.026c.019-.009.042-.008.051.002s-.007.018-.035.017-.037-.009-.016-.019h0zm1.082 0c.019-.009.042-.008.051.002s-.007.018-.035.017-.037-.009-.016-.019h0zm-5.895-.095l-.078-.086.086.078c.08.072.098.094.077.094a.66.66 0 0 1-.086-.086h0zm5.049.069c.018-.009.048-.009.066 0s.003.016-.033.016-.051-.007-.033-.016h0zm.594-.001c.026-.008.061-.007.079.001s-.003.015-.047.015-.058-.008-.032-.016h0zm-29.088-.088c.022-.014.051-.026.066-.026s.009.011-.013.026-.051.026-.066.026-.009-.012.013-.026h0zm23.234-.218l-.104-.112.112.104.112.112c0 .02-.023 0-.12-.104h0zm10.328-.037c.019-.009.042-.008.051.002s-.007.018-.035.017-.037-.009-.016-.019h0zm.132-.026c.019-.009.042-.008.051.002s-.007.018-.035.017-.037-.009-.016-.019h0zm.132-.026c.019-.009.042-.008.051.002s-.007.018-.035.017-.037-.009-.016-.019h0zm.158-.026c.019-.009.042-.008.051.002s-.007.018-.035.017-.037-.009-.016-.019h0zm-10.924-.056c-.033-.042-.032-.043.01-.01s.058.056.036.056c-.005 0-.026-.021-.046-.046h0zm11.107.03c.018-.009.048-.009.066 0s.003.016-.033.016-.051-.007-.033-.016h0zm1.583 0c.018-.009.048-.009.066 0s.003.016-.033.016-.051-.007-.033-.016h0zm-34.621-.027c.019-.009.042-.008.051.002s-.007.018-.035.017-.037-.009-.016-.019h0zm33.289 0c.026-.008.061-.007.079.001s-.003.015-.047.014-.058-.008-.032-.016h0zm1.082 0c.026-.008.061-.007.079.001s-.003.015-.047.014-.058-.008-.032-.016h0zm-34.265-.026c.019-.009.042-.008.051.002s-.007.018-.035.017-.037-.009-.016-.019h0zm.106-.026c.019-.009.042-.008.051.002s-.007.018-.035.017-.037-.009-.016-.019h0zm.238-.053c.019-.009.042-.008.051.002s-.007.018-.035.017-.037-.009-.016-.019h0zm.132-.026c.019-.009.042-.008.051.002s-.007.018-.035.017-.037-.009-.016-.019h0zm.158-.026c.019-.009.042-.008.051.002s-.007.018-.035.017-.037-.009-.016-.019h0zm.158-.026c.019-.009.042-.008.051.002s-.007.018-.035.017-.037-.009-.016-.019h0zm.185-.026c.019-.009.042-.008.051.002s-.007.018-.035.017-.037-.009-.016-.019h0zm.197-.027c.026-.008.061-.007.079.001s-.003.015-.047.015-.058-.008-.032-.016h0zm.29-.026c.026-.008.061-.007.079.001s-.003.015-.047.014-.058-.008-.032-.016h0zm.409-.027c.033-.008.08-.007.106.001s-.002.014-.06.014-.079-.007-.046-.014h0zm19.637-.028c-.033-.042-.032-.043.01-.01s.058.056.036.056c-.005 0-.026-.021-.046-.046h0zm-18.918.001c.022-.008.057-.028.079-.044.034-.026.035-.023.003.017-.02.025-.056.045-.079.044-.036-.002-.036-.004-.003-.017h0zm18.748-.172l-.104-.112.112.104.112.112c0 .02-.023 0-.12-.104h0zm-.225-.198l-.064-.073.073.064c.04.035.073.068.073.073 0 .021-.021.004-.081-.064h0zm-18.075-.041c0-.005.039-.043.086-.086l.086-.078-.078.086c-.072.08-.094.098-.094.078h0zm17.903-.104l-.05-.059.059.05c.056.047.071.068.05.068-.005 0-.032-.027-.059-.059h0zm-.12-.092c-.033-.042-.032-.043.01-.01s.058.056.036.056c-.005 0-.026-.021-.046-.046h0zm-17.506-.059c.026-.029.054-.053.061-.053s-.008.024-.035.053-.054.053-.061.053.008-.024.035-.053h0zm.132-.106c.026-.029.054-.053.061-.053s-.008.024-.035.053-.054.053-.061.053.008-.024.035-.053h0zm.092-.063c0-.005.021-.026.046-.046.042-.033.043-.032.01.01s-.056.058-.056.036h0zm.106-.079c0-.005.021-.026.046-.046.042-.033.043-.032.01.01s-.056.058-.056.036h0zm.106-.079c0-.005.021-.026.046-.046.042-.033.043-.032.01.01s-.056.058-.056.036h0zm7.691-.08c-.04-.03-.036-.032.037-.022.093.014.1.02.046.041-.02.008-.058-.001-.083-.02h0zm-.264-.162c-.049-.039-.049-.04.008-.012.033.016.059.034.059.041 0 .02-.014.014-.068-.029h0zm-7.084.003c0-.007.024-.026.053-.041s.053-.022.053-.015-.024.026-.053.041-.053.022-.053.015h0zm6.899-.109c-.049-.039-.049-.04.008-.012.033.016.059.034.059.041 0 .02-.014.014-.068-.029h0zm8.629-.053c-.049-.039-.049-.04.008-.012.033.016.059.034.059.041 0 .02-.014.014-.068-.029h0zM16.491.987c0-.007.024-.026.053-.041s.053-.022.053-.015-.024.026-.053.041-.053.022-.053.015h0zm7.917-.068c.022-.014.051-.026.066-.026s.009.012-.013.026-.051.026-.066.026-.009-.012.013-.026h0zM16.728.854c0-.018.32-.177.332-.165.005.005-.067.048-.161.094s-.171.079-.171.072h0zm14.62-.066c-.022-.014-.028-.026-.013-.026s.044.012.066.026.028.026.013.026-.044-.012-.066-.026h0zM22.402.682c-.022-.014-.028-.026-.013-.026s.044.012.066.026.028.026.013.026-.044-.011-.066-.026h0zm-.185-.079c-.022-.014-.028-.026-.013-.026s.044.012.066.026.028.026.013.026-.044-.012-.066-.026h0zM18.201.269c.019-.009.042-.008.051.002s-.007.018-.035.017-.037-.009-.016-.019h0zm11.638 0c.019-.009.042-.008.051.002s-.007.018-.035.017-.037-.009-.016-.019h0zM18.307.243c.019-.009.042-.008.051.002s-.007.018-.035.017-.037-.009-.016-.019h0zm2.692-.026c.019-.009.042-.008.051.002s-.007.018-.035.017-.037-.009-.016-.019h0zm5.7 0c.019-.009.042-.008.051.002s-.007.018-.035.017-.037-.009-.016-.019h0zm2.876 0c.019-.009.042-.008.051.002s-.007.018-.035.017-.037-.009-.016-.019h0zM20.866.19c.019-.009.042-.008.051.002s-.007.018-.035.017S20.845.2 20.866.19h0zm5.99 0c.019-.009.042-.008.051.002s-.007.018-.035.017S26.836.2 26.857.19h0zm2.586 0c.019-.009.042-.008.051.002s-.007.018-.035.017S29.422.2 29.443.19h0zM18.703.164c.019-.009.042-.008.051.002s-.007.018-.035.017-.037-.009-.016-.019h0zm2.006 0c.019-.009.042-.008.051.002s-.007.018-.035.017-.037-.009-.016-.019h0zm6.332.001c.018-.009.048-.009.066 0s.003.016-.033.016-.051-.007-.033-.016h0zm2.218-.001c.019-.009.042-.008.051.002s-.007.018-.035.017-.037-.009-.016-.019h0zM18.859.138c.018-.009.048-.009.066 0s.003.016-.033.016-.051-.007-.033-.016h0zm1.663 0c.018-.009.048-.009.066 0s.003.016-.033.016-.051-.007-.033-.016h0zm6.729 0c.018-.009.048-.009.066 0s.003.016-.033.016-.051-.007-.033-.016h0zm1.782-.001c.026-.008.061-.007.079.001s-.003.015-.047.014-.058-.008-.032-.016h0zM19.097.111c.018-.009.048-.009.066 0s.003.016-.033.016-.051-.007-.033-.016h0zm1.188 0c.018-.009.048-.009.066 0s.003.016-.033.016-.051-.007-.033-.016h0zM27.555.11c.026-.008.061-.007.079.001s-.003.015-.047.014-.058-.008-.032-.016h0zm1.187 0c.025-.008.067-.008.092 0s.005.014-.046.014-.072-.006-.046-.014h0zM19.586.083c.084-.006.215-.006.29 0s.007.011-.153.011-.222-.005-.138-.012h0z" fill="#b38200"/><path d="M24.658 37.952c-1.919-.166-3.53-.769-4.809-1.8-.314-.253-.884-.832-1.12-1.138-.207-.267-.463-.653-.606-.915-.136-.247-.145-.253-.303-.221-.647.131-1.743.149-2.468.04-1.055-.158-1.956-.522-2.718-1.096-.233-.176-.769-.697-.921-.896-.091-.119-.091-.119-.012-.052.043.036.204.195.356.353.517.534 1.144.972 1.649 1.152.837.299 1.167.388 1.769.478a12.29 12.29 0 0 0 2.044-.011c.166-.025.313-.056.326-.069s.007-.055-.015-.099c-.066-.128-.207-.545-.217-.643-.005-.051-.034-.205-.064-.343s-.053-.292-.052-.343c.001-.06.023.001.064.177.186.798.581 1.62 1.136 2.356.244.323.967 1.03 1.358 1.325 1.157.876 2.54 1.412 4.182 1.623.468.06 1.897.068 2.349.012.992-.121 1.885-.364 2.586-.705.817-.397 1.329-.901 1.7-1.676.117-.244.173-.399.33-.909l.04-.132-.011.185c-.022.363-.267 1.032-.527 1.438-.079.123-.138.232-.132.242.033.053.982.443 1.495.614 1.103.369 2.02.525 3.081.526a6.78 6.78 0 0 0 2.129-.286c.989-.287 1.999-.859 2.651-1.502.468-.461.859-1.26 1.03-2.102.054-.267.061-.377.06-.91-.001-.726-.048-1.017-.292-1.829-.007-.025.006-.01.031.032.095.164.256.723.333 1.151.054.304.047 1.269-.013 1.57-.119.607-.312 1.14-.573 1.589l-.157.294c0 .054.937.279 1.517.363.446.065 1.415.066 1.834.001 1.06-.164 1.954-.546 2.837-1.214.286-.216.844-.765 1.098-1.08.303-.376.736-1.034.736-1.119 0-.015-.074-.042-.165-.061-.44-.09-1.046-.34-1.484-.614-.568-.354-1.129-.912-1.385-1.379l-.058-.106.058.066.26.314c.507.621 1.254 1.134 2.059 1.413 1.078.373 2.53.311 3.731-.159 1.643-.644 3.063-2.131 3.609-3.78.199-.601.276-1.15.308-2.181.016-.535.024-.625.041-.475l.052.401c.037.263.016.971-.043 1.403l-.029.313c.021.021.387-.167.596-.306.563-.372.988-.868 1.306-1.522.153-.315.257-.608.302-.849s.085-1.02.07-1.328c-.01-.189-.006-.248.01-.185.05.195.089.611.097 1.016s.009.423.068.455c.093.05.415.041.601-.017.177-.055.449-.208.449-.252a5.05 5.05 0 0 0-.077-.333c-.043-.168-.083-.4-.09-.515l-.028-.393c-.013-.157-.004-.13.06.172l.104.422a5.07 5.07 0 0 1 .11.334c.074.245.087.27.153.283.336.069 1.28.163 2.025.203.73.039 2.528.016 3.219-.041 2.091-.172 3.53-.446 5.858-1.117l1.227-.343 2.283-.647 2.982-.808c.503-.087 1.074-.083 1.385.009.469.139.786.526.813.992.021.363-.099.643-.421.989-.103.11-.18.208-.17.217.025.025.294-.065.491-.164.503-.253.82-.624 1.004-1.175l.108-.29c.036-.058.003.112-.062.317-.206.647-.658 1.095-1.327 1.316-.219.072-.515.131-.515.102 0-.007.05-.045.112-.086.176-.116.414-.354.524-.523.283-.435.283-.847 0-1.25-.302-.43-.893-.562-1.85-.414-.468.072-2.105.528-6.109 1.7l-2.934.776a26.95 26.95 0 0 1-3.386.48c-.669.056-2.588.079-3.293.039l-1.823-.175-.247-.04-.148.099c-.082.054-.22.129-.307.165-.145.061-.191.067-.519.065l-.361-.002-.094.292c-.347 1.08-1.134 1.982-2.079 2.38-.092.039-.184.086-.204.104s-.089.192-.152.385a6.66 6.66 0 0 1-.298.721c-.836 1.69-2.393 2.961-4.133 3.374-.535.127-.82.157-1.51.16l-.641.002-.107.198c-.378.7-1.076 1.532-1.712 2.041-.705.564-1.53.977-2.361 1.18-.551.135-.841.167-1.492.169a7.46 7.46 0 0 1-2.239-.314l-.366-.094c-.022 0-.14.094-.261.209-.447.423-.988.789-1.607 1.086a6.94 6.94 0 0 1-2.204.649c-.404.056-1.511.064-1.913.013-1.217-.154-2.299-.465-3.49-1.004l-.311-.134c-.008 0-.115.094-.237.21-.783.737-2.118 1.23-3.757 1.387-.366.035-1.471.048-1.784.021h0zm-13.079-6.203c-.033-.042-.032-.043.01-.01s.058.056.036.056c-.005 0-.026-.021-.046-.046h0zm-.079-.106c-.033-.042-.032-.043.01-.01.025.02.046.041.046.046 0 .022-.022.008-.056-.036h0zm-.34-.534c-.016-.029-.022-.053-.015-.053s.026.024.041.053.022.053.015.053-.026-.024-.041-.053h0zm-.159-.274c-.021-.02-.151-.05-.289-.067a8.43 8.43 0 0 1-2.52-.739c-1.88-.903-2.943-2.353-3.21-4.376-.041-.314-.042-1.402 0-1.731.033-.266.018-.319-.099-.342-.239-.048-1.239-.485-1.169-.511.018-.007.161.047.317.12.93.436 1.731.596 2.676.532.33-.022.707-.07.73-.093s-.036-.064-.199-.117a5.05 5.05 0 0 1-1.049-.534 4.39 4.39 0 0 1-.911-.914c-.195-.276-.421-.681-.422-.754 0-.027-.036-.155-.08-.285-.106-.317-.099-.36.011-.059.188.516.535 1.073.91 1.456.678.694 1.495 1.096 2.519 1.238.176.025.333.055.347.069.027.025-.088.017-.567-.037-.221-.025-.282-.022-.515.025a5.99 5.99 0 0 1-2.067.03c-.179-.031-.333-.049-.341-.04-.057.057-.104 1.1-.063 1.395l.057.494c.142 1.436.818 2.702 1.914 3.587a7.32 7.32 0 0 0 1.947 1.07c.709.255 1.918.514 1.918.412 0-.014-.035-.115-.077-.225-.17-.441-.315-1.003-.397-1.533-.04-.26-.052-.457-.049-.83l.004-.488.02.409a7.42 7.42 0 0 0 .381 2.045l.235.627.087.205c-.004 0-.024-.016-.046-.036h0zm-.679-3.368c0-.051.006-.072.014-.046s.008.067 0 .092-.014.005-.014-.046h0zm44.965-2.296c0-.036.007-.051.016-.033s.009.048 0 .066-.016.003-.016-.033h0zM8.634 23.729c.026-.008.061-.007.079.001s-.003.015-.047.014-.058-.008-.032-.016h0zm48.921-.526c.001-.031.009-.037.019-.016s.008.042-.002.051-.018-.007-.017-.035h0zm-54.009-.21c-.049-.039-.049-.04.008-.012.033.016.059.034.059.041 0 .02-.014.014-.068-.029h0zm-.622-.401c-.033-.042-.032-.043.01-.01s.058.056.036.056c-.005 0-.026-.021-.046-.046h0zm-.211-.158c-.033-.042-.032-.043.01-.01.025.02.046.041.046.046 0 .022-.022.008-.056-.036h0zm-.118-.092l-.05-.059.059.05c.056.047.071.068.05.068-.005 0-.032-.027-.059-.059h0zm-.184-.158l-.078-.086.086.077c.08.072.098.094.078.094a.66.66 0 0 1-.086-.086h0zm77.472-.007c.001-.044.008-.058.016-.032s.007.061-.001.079-.015-.003-.014-.047h0zm-77.672-.165c-.033-.042-.032-.043.01-.01.025.02.046.041.046.046 0 .022-.022.008-.056-.036h0zm-.264-.264c-.033-.042-.032-.043.01-.01s.058.056.036.056c-.005 0-.026-.021-.046-.046h0zm-.17-.198l-.078-.086.086.078c.047.043.086.081.086.086 0 .02-.022.002-.094-.078h0zm78.103-.062c.002-.031.009-.037.019-.016s.008.042-.002.051-.018-.007-.017-.035h0zm-78.25-.11c-.033-.042-.032-.043.01-.01.025.02.046.041.046.046 0 .022-.022.008-.056-.036h0zm78.223-.022c.002-.031.009-.037.019-.016s.008.042-.002.051-.018-.007-.017-.035h0zm-78.329-.11c-.033-.042-.032-.043.01-.01.025.02.046.041.046.046 0 .022-.022.008-.056-.036h0zm-.079-.106c-.033-.042-.032-.043.01-.01s.058.056.036.056c-.005 0-.026-.021-.046-.046h0zm78.29-.126c-.025-.066-.018-.083.013-.03.015.026.022.054.016.061s-.02-.007-.029-.031h0zm-.069-.144c-.016-.029-.022-.053-.015-.053s.026.024.041.053.022.053.015.053-.026-.024-.041-.053h0zm-.213-.31l-.064-.073.073.064c.04.035.073.068.073.073 0 .021-.021.004-.081-.064h0zm-.29-.29l-.064-.073.073.064c.04.035.073.068.073.073 0 .021-.021.004-.081-.064h0zm-.262-.194c-.057-.046-.058-.05-.008-.026a.22.22 0 0 1 .074.055c.024.039.008.032-.066-.029h0zm-.396-.222c-.065-.035-.109-.064-.098-.065.028-.002.23.102.23.118s.001.018-.132-.053h0zm-11.169-.269c.047-.007.124-.007.172 0s.009.013-.086.013-.133-.006-.086-.013h0zm2.112 0a.59.59 0 0 1 .158 0c.04.007.001.013-.086.013s-.12-.006-.072-.013h0zm-2.89-.025c.025-.008.067-.008.092 0s.005.014-.046.014-.072-.006-.046-.014h0zm3.668 0c.025-.008.067-.008.092 0s.005.014-.046.014-.072-.006-.046-.014h0zm-4.169-.027c.026-.008.061-.007.079.001s-.003.015-.047.015-.058-.008-.032-.016h0zm4.671 0c.026-.008.061-.007.079.001s-.003.015-.047.015-.058-.008-.032-.016h0zm-5.067-.026c.026-.008.061-.007.079.001s-.003.015-.047.015-.058-.008-.032-.016h0zm5.449.001c.018-.009.048-.009.066 0s.003.016-.033.016-.051-.007-.033-.016h0zm-5.806-.026c.018-.009.048-.009.066 0s.003.016-.033.016-.051-.007-.033-.016h0zm6.136-.001c.026-.008.061-.007.079.001s-.003.015-.047.015-.058-.008-.032-.016h0zm-6.439-.026c.026-.008.061-.007.079.001s-.003.015-.047.014-.058-.008-.032-.016h0zm6.729 0c.026-.008.061-.007.079.001s-.003.015-.047.014-.058-.008-.032-.016h0zm5.688 0c.019-.009.042-.008.051.002s-.007.018-.035.017-.037-.009-.016-.019h0zm-12.708-.027c.026-.008.061-.007.079.001s-.003.015-.047.014-.058-.008-.032-.016h0zm7.296.001c.018-.009.048-.009.066 0s.003.016-.033.016-.051-.007-.033-.016h0zm5.306-.001c.019-.009.042-.008.051.002s-.007.018-.035.017-.037-.009-.016-.019h0zm-12.88-.026c.018-.009.048-.009.066 0s.003.016-.033.016-.051-.007-.033-.016h0zm7.811 0c.018-.009.048-.009.066 0s.003.016-.033.016-.051-.007-.033-.016h0zm-8.049-.026c.018-.009.048-.009.066 0s.003.016-.033.016-.051-.007-.033-.016h0zm8.286 0c.018-.009.048-.009.066 0s.003.016-.033.016-.051-.007-.033-.016h0zm4.593-.001c.019-.009.042-.008.051.002s-.007.018-.035.017-.037-.009-.016-.019h0zm-13.103-.027c.026-.008.061-.007.079.001s-.003.015-.047.014-.058-.008-.032-.016h0zm8.748.001c.018-.009.048-.009.066 0s.003.016-.033.016-.051-.007-.033-.016h0zm4.224-.001c.019-.009.042-.008.051.002s-.007.018-.035.017-.037-.009-.016-.019h0zm-13.196-.026c.018-.009.048-.009.066 0s.003.016-.033.016-.051-.007-.033-.016h0zm9.21 0c.018-.009.048-.009.066 0s.003.016-.033.016-.051-.007-.033-.016h0zm3.828-.001c.019-.009.042-.008.051.002s-.007.018-.035.017-.037-.009-.016-.019h0zm-13.249-.026c.018-.009.048-.009.066 0s.003.016-.033.016-.051-.007-.033-.016h0zm9.658 0c.018-.009.048-.009.066 0s.003.016-.033.016-.051-.007-.033-.016h0zm3.404 0c.018-.009.048-.009.066 0s.003.016-.033.016-.051-.007-.033-.016h0zm-13.246-.027c.019-.009.042-.008.051.002s-.007.018-.035.017-.037-.009-.016-.019h0zm10.079.001c.018-.009.048-.009.066 0s.003.016-.033.016-.051-.007-.033-.016h0zm2.956 0c.018-.009.048-.009.066 0s.003.016-.033.016-.051-.007-.033-.016h0zm-13.219-.027c.019-.009.042-.008.051.002s-.007.018-.035.017-.037-.009-.016-.019h0zm10.528.001c.018-.009.048-.009.066 0s.003.016-.033.016-.051-.007-.033-.016h0zm2.454 0c.018-.009.048-.009.066 0s.003.016-.033.016-.051-.007-.033-.016h0zm-13.167-.027c.019-.009.042-.008.051.002s-.007.018-.035.017-.037-.009-.016-.019h0zm11.029.001c.018-.009.048-.009.066 0s.003.016-.033.016-.051-.007-.033-.016h0zm1.821 0c.018-.009.048-.009.066 0s.003.016-.033.016-.051-.007-.033-.016h0zm-13.035-.027c.019-.009.042-.008.051.002s-.007.018-.035.017-.037-.009-.016-.019h0zm11.662-.001c.033-.007.086-.007.119 0s.006.014-.059.014-.092-.006-.059-.014h0zm.871 0c.033-.007.086-.007.119 0s.006.014-.059.014-.092-.006-.059-.014h0zm-12.692-.026c.019-.009.042-.008.051.002s-.007.018-.035.017-.037-.009-.016-.019h0zm-.185-.026c.019-.009.042-.008.051.002s-.007.018-.035.017-.037-.009-.016-.019h0zm-.158-.026c.019-.009.042-.008.051.002s-.007.018-.035.017-.037-.009-.016-.019h0zm-.158-.026c.019-.009.042-.008.051.002s-.007.018-.035.017-.037-.009-.016-.019h0zm-.29-.053c.019-.009.042-.008.051.002s-.007.018-.035.017-.037-.009-.016-.019h0zm-.158-.026c.019-.009.042-.008.051.002s-.007.018-.035.017-.037-.009-.016-.019h0zm-.132-.026c.019-.009.042-.008.051.002s-.007.018-.035.017-.037-.009-.016-.019h0zm-.29-.053c.019-.009.042-.008.051.002s-.007.018-.035.017-.037-.009-.016-.019h0zm-.132-.026c.019-.009.042-.008.051.002s-.007.018-.035.017-.037-.009-.016-.019h0zm-.132-.026c.019-.009.042-.008.051.002s-.007.018-.035.017-.037-.009-.016-.019h0zm-.132-.026c.019-.009.042-.008.051.002s-.007.018-.035.017-.037-.009-.016-.019h0zm-.238-.053c.019-.009.042-.008.051.002s-.007.018-.035.017-.037-.009-.016-.019h0zm-.369-.079c.019-.009.042-.008.051.002s-.007.018-.035.017-.037-.009-.016-.019h0zm-.449-.106c.019-.009.042-.008.051.002s-.007.018-.035.017-.037-.009-.016-.019h0zM.29 18.559c.002-.031.009-.037.019-.016s.008.042-.002.051-.018-.007-.017-.035h0zm59.422.025c.019-.009.042-.008.051.002s-.007.018-.035.017-.037-.009-.016-.019h0zm-.106-.026c.019-.009.042-.008.051.002s-.007.018-.035.017-.037-.009-.016-.019h0zm-.106-.026c.019-.009.042-.008.051.002s-.007.018-.035.017-.037-.009-.016-.019h0zm-1.065-.301c-.028-.046.004-.056.04-.012.021.025.023.04.005.04s-.036-.013-.045-.028h0zM.211 18.163c.001-.031.009-.037.019-.016s.008.042-.002.051-.018-.007-.017-.035h0zm58.193-.183c0-.058.007-.079.014-.046s.007.08-.001.106-.014-.002-.014-.06h0zm-58.219.024c.001-.031.009-.037.019-.016s.008.042-.002.051-.018-.007-.017-.035h0zm-.024-.196c0-.036.007-.051.016-.033s.009.048 0 .066-.016.003-.016-.033h0zm58.215-.158c0-.036.007-.051.016-.033s.009.048 0 .066-.016.003-.016-.033h0zM.134 17.598c0-.036.007-.051.016-.033s.009.048 0 .066-.016.003-.016-.033h0zm58.213-.147c.002-.031.009-.037.019-.016s.008.042-.002.051-.018-.007-.017-.035h0zM.109 17.307c0-.051.006-.072.014-.046s.008.067 0 .092-.014.005-.014-.046h0zm58.211-.015c.002-.031.009-.037.019-.016s.008.042-.002.051-.018-.007-.017-.035h0zm-.053-.264c.002-.031.009-.037.019-.016s.008.042-.002.051-.018-.007-.017-.035h0zm-.026-.106c.002-.031.009-.037.019-.016s.008.042-.002.051-.018-.007-.017-.035h0zM.087 16.516c0-.196.005-.276.011-.178a3.49 3.49 0 0 1 0 .356c-.006.098-.011.018-.011-.178h0zm.022-.792c0-.051.006-.072.014-.046s.008.067 0 .092-.014.005-.014-.046h0zm57.549-.185c-.016-.029-.022-.053-.015-.053s.026.024.041.053.022.053.015.053-.026-.024-.041-.053h0zM.134 15.434c0-.036.007-.051.016-.033s.009.048 0 .066-.016.003-.016-.033h0zm.024-.227c.001-.031.009-.037.019-.016s.008.042-.002.051-.018-.007-.017-.035h0zm57.206-.084c-.033-.042-.032-.043.01-.01s.058.056.036.056c-.005 0-.026-.021-.046-.046h0zm-57.18-.101c.001-.031.009-.037.019-.016s.008.042-.002.051-.018-.007-.017-.035h0zm57.049-.057l-.064-.073.073.064c.04.035.073.068.073.073 0 .021-.021.004-.081-.064h0zm-2.648.02a2.11 2.11 0 0 1 .097-.153c.139-.205.337-.655.403-.918.073-.286.087-.62.057-1.344-.011-.283-.009-.362.009-.277.014.065.034.397.045.738l.019.619.066.034.158.074.092.04-.092-.012a1.27 1.27 0 0 1-.149-.029c-.051-.015-.063.005-.129.203-.092.278-.217.545-.351.748-.105.158-.263.352-.226.277h0zM.211 14.864c.001-.031.009-.037.019-.016s.008.042-.002.051-.018-.007-.017-.035h0zm56.838-.084l-.064-.073.073.064c.068.06.085.081.064.081-.005 0-.037-.033-.073-.073h0zM.237 14.732c.002-.031.009-.037.019-.016s.008.042-.002.051-.018-.007-.017-.035h0zm56.627-.136l-.064-.073.073.064c.04.035.073.068.073.073 0 .021-.021.004-.081-.064h0zM.29 14.495c.002-.031.009-.037.019-.016s.008.042-.002.051-.018-.007-.017-.035h0zm56.415-.031c-.033-.042-.032-.043.01-.01s.058.056.036.056c-.005 0-.026-.021-.046-.046h0zm-56.362-.18c.002-.031.009-.037.019-.016s.008.042-.002.051-.018-.007-.017-.035h0zm.369-1.027c0-.015.017-.056.038-.092s.038-.054.038-.04-.017.056-.038.092-.038.054-.038.04h0zm.209-.435c.016-.029.034-.053.041-.053s0 .024-.015.053-.034.053-.041.053 0-.024.015-.053h0zm.449-.722c0-.005.021-.026.046-.046.042-.033.043-.032.01.01s-.056.058-.056.036h0zm53.731-.032c.001-.031.009-.037.019-.016s.008.042-.002.051-.018-.007-.017-.035h0zm-53.651-.074c0-.005.021-.026.046-.046.042-.033.043-.032.01.01s-.056.058-.056.036h0zm53.625-.085c.001-.031.009-.037.019-.016s.008.042-.002.051-.018-.007-.017-.035h0zm-53.546-.021c0-.005.021-.026.046-.046.042-.033.043-.032.01.01s-.056.058-.056.036h0zm.145-.175c.026-.029.054-.053.061-.053s-.008.024-.035.053-.054.053-.061.053.008-.024.035-.053h0zm53.348-.042c.001-.031.009-.037.019-.016s.008.042-.002.051-.018-.007-.017-.035h0zm-53.229-.098a.66.66 0 0 1 .086-.086l.086-.078-.078.086c-.072.08-.094.098-.094.078h0zm.211-.213c0-.005.021-.026.046-.046.042-.033.043-.032.01.01s-.056.058-.056.036h0zm.185-.185c0-.005.021-.026.046-.046.042-.033.043-.032.01.01s-.056.058-.056.036h0zm.211-.214c.049-.051.095-.092.103-.092s-.027.042-.076.092-.095.092-.103.092.027-.042.076-.092h0zm.185-.158c.034-.036.068-.066.075-.066s-.015.03-.049.066-.068.066-.075.066.015-.03.049-.066h0zm.132-.102c0-.005.021-.026.046-.046.042-.033.043-.032.01.01s-.056.058-.056.036h0zm51.95-.083c-.025-.066-.018-.083.013-.03.015.026.022.054.016.061s-.02-.007-.029-.031h0zm-.175-.355c-.016-.029-.022-.053-.015-.053s.026.024.041.053.022.053.015.053-.026-.024-.041-.053h0zm-51.09-.064c0-.007.024-.026.053-.041s.053-.022.053-.015-.024.026-.053.041-.053.022-.053.015h0zm.211-.132c0-.007.024-.026.053-.041s.053-.022.053-.015-.024.026-.053.041-.053.022-.053.015h0zm46.933-.14a4.45 4.45 0 0 1 .187-.146c.485-.366.78-.876.843-1.457.023-.209-.026-.712-.109-1.122-.183-.911-.642-1.876-1.204-2.533-.093-.109-.292-.311-.441-.449l-.407-.38c-.124-.119-.127-.123-.03-.055.639.448 1.244 1.162 1.623 1.913a6.36 6.36 0 0 1 .595 2.025c.01.105.032.202.049.216s.131.062.253.108c.251.092.659.279.659.301 0 .008-.039-.002-.086-.022l-.155-.059c-.038-.013-.182-.069-.321-.125s-.269-.096-.29-.088c-.027.01-.042.08-.053.239-.038.533-.328 1.063-.779 1.421-.165.131-.417.292-.335.214h0zM3.982 9.854c0-.007.024-.026.053-.041s.053-.022.053-.015-.024.026-.053.041-.053.022-.053.015h0zm50.163-.14c-.033-.042-.032-.043.01-.01.025.02.046.041.046.046 0 .022-.022.008-.056-.036h0zm-.079-.106c-.033-.042-.032-.043.01-.01s.058.056.036.056c-.006 0-.026-.021-.046-.046h0zm-49.45-.086c.022-.014.051-.026.066-.026s.009.012-.013.026-.051.026-.066.026-.009-.012.013-.026h0zm49.332-.059l-.05-.059.059.05c.033.028.059.054.059.059 0 .021-.021.006-.068-.05h0zm-.146-.172c-.033-.042-.032-.043.01-.01s.058.056.036.056c-.005 0-.026-.021-.046-.046h0zm-.394-.369l-.064-.073.073.064c.04.035.073.068.073.073 0 .021-.021.004-.081-.064h0zM6.22 8.951c.019-.009.042-.008.051.002s-.007.018-.035.017-.037-.009-.016-.019h0zm.106-.026c.019-.009.042-.008.051.002s-.007.018-.035.017-.037-.009-.016-.019h0zm.203-.062c.009-.015.022-.026.028-.026s.012.012.012.026-.013.026-.028.026-.021-.012-.012-.026h0zm46.338-.331c-.049-.039-.049-.04.008-.012.033.016.059.034.059.041 0 .02-.014.014-.068-.029h0zM6.623 8.504c.002-.031.009-.037.019-.016s.008.042-.002.051-.018-.007-.017-.035h0zm.026-.132c.002-.031.009-.037.019-.016s.008.042-.002.051-.018-.007-.017-.035h0zm.026-.106c.002-.031.009-.037.019-.016s.008.042-.002.051-.018-.007-.017-.035h0zm36.305-.023c-.184-.075-.586-.181-.919-.243-.344-.064-1.411-.065-1.742-.001-.175.034-.231.036-.253.011-.016-.018-.068-.145-.115-.283-.237-.692-.624-1.316-1.09-1.759-.274-.26-.53-.436-.903-.621-.325-.161-.326-.18-.003-.044.904.38 1.671 1.277 2.075 2.424.033.094.074.186.09.204.023.026.09.024.319-.006.605-.081 1.394-.039 1.985.105.266.065.683.21.732.255.04.036-.011.024-.175-.042h0zM6.702 8.161c.002-.031.009-.037.019-.016s.008.042-.002.051-.018-.007-.017-.035h0zm.447-1.264c0-.015.012-.044.026-.066s.026-.028.026-.013-.011.044-.026.066-.026.028-.026.013h0zm.342-.699c.016-.029.034-.053.041-.053s0 .024-.015.053-.034.053-.041.053 0-.024.015-.053h0zm.238-.396c.016-.029.034-.053.041-.053s0 .024-.015.053-.034.053-.041.053 0-.024.015-.053h0zm.396-.564c0-.005.021-.026.046-.046.042-.033.043-.032.01.01s-.056.058-.056.036h0zm.119-.148c.026-.029.054-.053.061-.053s-.008.024-.035.053-.054.053-.061.053.008-.024.035-.053h0zm.145-.172c.034-.036.068-.066.075-.066s-.015.03-.049.066-.068.066-.075.066.015-.03.049-.066h0zm.185-.208c0-.005.021-.026.046-.046.042-.033.043-.032.01.01s-.056.058-.056.036h0zm.238-.237c0-.005.021-.026.046-.046.042-.033.043-.032.01.01s-.056.058-.056.036h0zm.251-.228c.026-.029.054-.053.061-.053s-.008.024-.035.053-.054.053-.061.053.008-.024.035-.053h0zm27.778-.115c-.024-.029-.017-.034.036-.023.036.007.059.023.051.036-.021.034-.053.029-.088-.013h0zm-27.633 0c0-.005.021-.026.046-.046.042-.033.043-.032.01.01s-.056.058-.056.036h0zm27.494-.115c-.033-.042-.032-.043.01-.01.025.02.046.041.046.046 0 .022-.022.008-.056-.036h0zm-27.362.01c0-.005.021-.026.046-.046.042-.033.043-.032.01.01s-.056.058-.056.036h0zm27.735-.001c0-.007.024-.026.053-.041s.053-.022.053-.015-.024.026-.053.041-.053.022-.053.015h0zm4.735-.127c-.027-.033-.033-.045-.012-.026.052.045.148.041.226-.01.036-.023.065-.036.065-.029a.58.58 0 0 1-.204.124c-.014 0-.048-.027-.075-.059h0zm-5.304-.008c-.049-.039-.049-.04.008-.012.033.016.059.034.059.041 0 .02-.014.014-.068-.029h0zM9.55 3.865c0-.005.021-.026.046-.046.042-.033.043-.032.01.01s-.056.058-.056.036h0zm25.344-.076c-.05-.059-.05-.059.003-.016.029.024.077.049.106.056.051.012.051.013-.003.016-.03.002-.078-.024-.106-.056h0zm.537-.063c.018-.009.048-.009.066 0s.003.016-.033.016-.051-.007-.033-.016h0zm.582-.001c.019-.009.042-.008.051.002s-.007.018-.035.017-.037-.009-.016-.019h0zm-1.212-.056c-.033-.042-.032-.043.01-.01.025.02.046.041.046.046 0 .022-.022.008-.056-.036h0zm6.612-.048c-.049-.039-.049-.04.008-.012.033.016.059.034.059.041 0 .02-.014.014-.068-.029h0zm-6.704-.071l-.05-.059.059.05c.056.047.071.068.05.068-.005 0-.032-.027-.059-.059h0zm3.209.007c.022-.014.051-.026.066-.026s.009.012-.013.026-.051.026-.066.026-.009-.012.013-.026h0zm4.644-.013a1.96 1.96 0 0 1 .384-.192c.005.005-.079.053-.187.107s-.197.092-.197.085h0zm-7.959-.125l-.05-.059.059.05c.056.047.071.068.05.068-.005 0-.032-.027-.059-.059h0zm14.119-.034c-.049-.039-.049-.04.008-.012.033.016.059.034.059.041 0 .02-.014.014-.068-.029h0zm-38.329-.051c0-.018.267-.151.279-.139.005.005-.055.042-.135.081s-.144.065-.144.058h0zm24.104-.046l-.05-.059.059.05c.056.047.071.068.05.068-.005 0-.032-.027-.059-.059h0zm4.365-.037c.019-.009.042-.008.051.002s-.007.018-.035.017-.037-.009-.016-.019h0zm.132-.026c.019-.009.042-.008.051.002s-.007.018-.035.017-.037-.009-.016-.019h0zm1.399 0c.019-.009.042-.008.051.002s-.007.018-.035.017-.037-.009-.016-.019h0zm-1.24-.026c.019-.009.042-.008.051.002s-.007.018-.035.017-.037-.009-.016-.019h0zm1.082 0c.019-.009.042-.008.051.002s-.007.018-.035.017-.037-.009-.016-.019h0zm-5.895-.095l-.078-.086.086.078c.08.072.098.094.077.094a.66.66 0 0 1-.086-.086h0zm5.049.069c.018-.009.048-.009.066 0s.003.016-.033.016-.051-.007-.033-.016h0zm.594-.001c.026-.008.061-.007.079.001s-.003.015-.047.015-.058-.008-.032-.016h0zm-29.088-.088c.022-.014.051-.026.066-.026s.009.011-.013.026-.051.026-.066.026-.009-.012.013-.026h0zm23.234-.218l-.104-.112.112.104.112.112c0 .02-.023 0-.12-.104h0zm10.328-.037c.019-.009.042-.008.051.002s-.007.018-.035.017-.037-.009-.016-.019h0zm.132-.026c.019-.009.042-.008.051.002s-.007.018-.035.017-.037-.009-.016-.019h0zm.132-.026c.019-.009.042-.008.051.002s-.007.018-.035.017-.037-.009-.016-.019h0zm.158-.026c.019-.009.042-.008.051.002s-.007.018-.035.017-.037-.009-.016-.019h0zm-10.924-.056c-.033-.042-.032-.043.01-.01s.058.056.036.056c-.005 0-.026-.021-.046-.046h0zm11.107.03c.018-.009.048-.009.066 0s.003.016-.033.016-.051-.007-.033-.016h0zm1.583 0c.018-.009.048-.009.066 0s.003.016-.033.016-.051-.007-.033-.016h0zm-34.621-.027c.019-.009.042-.008.051.002s-.007.018-.035.017-.037-.009-.016-.019h0zm33.289 0c.026-.008.061-.007.079.001s-.003.015-.047.014-.058-.008-.032-.016h0zm1.082 0c.026-.008.061-.007.079.001s-.003.015-.047.014-.058-.008-.032-.016h0zm-34.265-.026c.019-.009.042-.008.051.002s-.007.018-.035.017-.037-.009-.016-.019h0zm.106-.026c.019-.009.042-.008.051.002s-.007.018-.035.017-.037-.009-.016-.019h0zm.238-.053c.019-.009.042-.008.051.002s-.007.018-.035.017-.037-.009-.016-.019h0zm.132-.026c.019-.009.042-.008.051.002s-.007.018-.035.017-.037-.009-.016-.019h0zm.158-.026c.019-.009.042-.008.051.002s-.007.018-.035.017-.037-.009-.016-.019h0zm.158-.026c.019-.009.042-.008.051.002s-.007.018-.035.017-.037-.009-.016-.019h0zm.185-.026c.019-.009.042-.008.051.002s-.007.018-.035.017-.037-.009-.016-.019h0zm.197-.027c.026-.008.061-.007.079.001s-.003.015-.047.015-.058-.008-.032-.016h0zm.29-.026c.026-.008.061-.007.079.001s-.003.015-.047.014-.058-.008-.032-.016h0zm.409-.027c.033-.008.08-.007.106.001s-.002.014-.06.014-.079-.007-.046-.014h0zm19.637-.028c-.033-.042-.032-.043.01-.01s.058.056.036.056c-.005 0-.026-.021-.046-.046h0zm-18.918.001c.022-.008.057-.028.079-.044.034-.026.035-.023.003.017-.02.025-.056.045-.079.044-.036-.002-.036-.004-.003-.017h0zm18.748-.172l-.104-.112.112.104.112.112c0 .02-.023 0-.12-.104h0zm-.225-.198l-.064-.073.073.064c.04.035.073.068.073.073 0 .021-.021.004-.081-.064h0zm-18.075-.041c0-.005.039-.043.086-.086l.086-.078-.078.086c-.072.08-.094.098-.094.078h0zm17.903-.104l-.05-.059.059.05c.056.047.071.068.05.068-.005 0-.032-.027-.059-.059h0zm-.12-.092c-.033-.042-.032-.043.01-.01s.058.056.036.056c-.005 0-.026-.021-.046-.046h0zm-17.506-.059c.026-.029.054-.053.061-.053s-.008.024-.035.053-.054.053-.061.053.008-.024.035-.053h0zm.132-.106c.026-.029.054-.053.061-.053s-.008.024-.035.053-.054.053-.061.053.008-.024.035-.053h0zm.092-.063c0-.005.021-.026.046-.046.042-.033.043-.032.01.01s-.056.058-.056.036h0zm.106-.079c0-.005.021-.026.046-.046.042-.033.043-.032.01.01s-.056.058-.056.036h0zm.106-.079c0-.005.021-.026.046-.046.042-.033.043-.032.01.01s-.056.058-.056.036h0zm7.691-.08c-.04-.03-.036-.032.037-.022.093.014.1.02.046.041-.02.008-.058-.001-.083-.02h0zm-.264-.162c-.049-.039-.049-.04.008-.012.033.016.059.034.059.041 0 .02-.014.014-.068-.029h0zm-7.084.003c0-.007.024-.026.053-.041s.053-.022.053-.015-.024.026-.053.041-.053.022-.053.015h0zm6.899-.109c-.049-.039-.049-.04.008-.012.033.016.059.034.059.041 0 .02-.014.014-.068-.029h0zm8.629-.053c-.049-.039-.049-.04.008-.012.033.016.059.034.059.041 0 .02-.014.014-.068-.029h0zM16.491.987c0-.007.024-.026.053-.041s.053-.022.053-.015-.024.026-.053.041-.053.022-.053.015h0zm7.917-.068c.022-.014.051-.026.066-.026s.009.012-.013.026-.051.026-.066.026-.009-.012.013-.026h0zM16.728.854c0-.018.32-.177.332-.165.005.005-.067.048-.161.094s-.171.079-.171.072h0zm14.62-.066c-.022-.014-.028-.026-.013-.026s.044.012.066.026.028.026.013.026-.044-.012-.066-.026h0zM22.402.682c-.022-.014-.028-.026-.013-.026s.044.012.066.026.028.026.013.026-.044-.011-.066-.026h0zm-.185-.079c-.022-.014-.028-.026-.013-.026s.044.012.066.026.028.026.013.026-.044-.012-.066-.026h0zM18.201.269c.019-.009.042-.008.051.002s-.007.018-.035.017-.037-.009-.016-.019h0zm11.638 0c.019-.009.042-.008.051.002s-.007.018-.035.017-.037-.009-.016-.019h0zM18.307.243c.019-.009.042-.008.051.002s-.007.018-.035.017-.037-.009-.016-.019h0zm2.692-.026c.019-.009.042-.008.051.002s-.007.018-.035.017-.037-.009-.016-.019h0zm5.7 0c.019-.009.042-.008.051.002s-.007.018-.035.017-.037-.009-.016-.019h0zm2.876 0c.019-.009.042-.008.051.002s-.007.018-.035.017-.037-.009-.016-.019h0zM20.866.19c.019-.009.042-.008.051.002s-.007.018-.035.017S20.845.2 20.866.19h0zm5.99 0c.019-.009.042-.008.051.002s-.007.018-.035.017S26.836.2 26.857.19h0zm2.586 0c.019-.009.042-.008.051.002s-.007.018-.035.017S29.422.2 29.443.19h0zM18.703.164c.019-.009.042-.008.051.002s-.007.018-.035.017-.037-.009-.016-.019h0zm2.006 0c.019-.009.042-.008.051.002s-.007.018-.035.017-.037-.009-.016-.019h0zm6.332.001c.018-.009.048-.009.066 0s.003.016-.033.016-.051-.007-.033-.016h0zm2.218-.001c.019-.009.042-.008.051.002s-.007.018-.035.017-.037-.009-.016-.019h0zM18.859.138c.018-.009.048-.009.066 0s.003.016-.033.016-.051-.007-.033-.016h0zm1.663 0c.018-.009.048-.009.066 0s.003.016-.033.016-.051-.007-.033-.016h0zm6.729 0c.018-.009.048-.009.066 0s.003.016-.033.016-.051-.007-.033-.016h0zm1.782-.001c.026-.008.061-.007.079.001s-.003.015-.047.014-.058-.008-.032-.016h0zM19.097.111c.018-.009.048-.009.066 0s.003.016-.033.016-.051-.007-.033-.016h0zm1.188 0c.018-.009.048-.009.066 0s.003.016-.033.016-.051-.007-.033-.016h0zM27.555.11c.026-.008.061-.007.079.001s-.003.015-.047.014-.058-.008-.032-.016h0zm1.187 0c.025-.008.067-.008.092 0s.005.014-.046.014-.072-.006-.046-.014h0zM19.586.083c.084-.006.215-.006.29 0s.007.011-.153.011-.222-.005-.138-.012h0z" fill="#b86a03"/></g></symbol></svg>