<svg xmlns="http://www.w3.org/2000/svg" xmlns:xlink="http://www.w3.org/1999/xlink" viewBox="0 0 81 81" fill="#fff" fill-rule="evenodd" stroke="#000" stroke-linecap="round" stroke-linejoin="round"><use xlink:href="#A" x=".5" y=".5"/><symbol id="A" overflow="visible"><path d="M79.555 44.384l-9.847-4.757 9.328-4.363c.723-.339 1.148-1.234.648-2.069l-.969-1.122c-.626-.684-1.305-1.183-2.13-.858l-6.931 2.612a.76.76 0 0 1-.473.02l-2.683-.76c-.199-.056-.413-.003-.563.139l-2.87 2.724c-.643-3.687-2.142-7.08-4.294-9.96l4.195-.033a.5.5 0 0 0 .434-.259l1.485-2.693c.077-.14.199-.251.347-.313l6.865-2.927c.422-.18.681-1.056.6-1.624l-.223-2.05c-.183-.589-1.009-1.107-1.404-.961L60.743 18.73l3.511-9.681c.272-.752-.061-1.684-1.005-1.921L61.77 7.02c-.926-.041-1.759.086-2.113.899l-3.053 6.748c-.067.147-.179.269-.32.348l-2.434 1.36c-.181.101-.294.289-.3.496l-.103 3.957c-2.937-2.064-6.367-3.471-10.081-4.005l2.945-2.992a.5.5 0 0 0 .124-.49l-.855-2.955a.72.72 0 0 1 .023-.467l2.785-6.924c.171-.425-.265-1.228-.724-1.572L46.056.131c-.546-.287-1.497-.069-1.673.313l-4.757 9.848L35.264.964C34.925.24 34.03-.184 33.195.316l-1.122.97c-.684.626-1.183 1.305-.858 2.13l2.612 6.93c.057.152.064.317.02.473l-.76 2.683c-.057.199-.004.412.139.562l2.724 2.87a23.31 23.31 0 0 0-9.959 4.294l-.033-4.195a.5.5 0 0 0-.258-.434l-2.694-1.485c-.14-.077-.25-.199-.313-.346l-2.927-6.865c-.18-.422-1.056-.681-1.624-.6l-2.05.223c-.588.183-1.107 1.009-.961 1.404l3.6 10.327-9.681-3.511c-.752-.272-1.685.061-1.921 1.005L7.02 18.23c-.041.926.086 1.759.899 2.113l6.748 3.053c.148.067.27.179.348.32l1.36 2.434c.101.18.289.294.496.3l3.957.103a23.28 23.28 0 0 0-4.005 10.081l-2.992-2.945a.5.5 0 0 0-.49-.124l-2.955.855c-.154.045-.318.036-.466-.023l-6.924-2.785c-.425-.171-1.228.265-1.573.724L.131 33.944c-.287.545-.069 1.496.314 1.673l9.847 4.757-9.328 4.363c-.724.339-1.148 1.234-.648 2.069l.97 1.122c.626.684 1.305 1.183 2.13.858l6.931-2.612a.76.76 0 0 1 .473-.02l2.683.76c.199.056.413.003.563-.139l2.87-2.724a23.31 23.31 0 0 0 4.294 9.96l-4.195.033a.5.5 0 0 0-.434.259l-1.485 2.693a.72.72 0 0 1-.347.313l-6.865 2.927c-.422.18-.681 1.056-.6 1.624l.223 2.05c.183.589 1.009 1.107 1.405.961l10.327-3.599-3.511 9.681c-.272.752.061 1.684 1.005 1.921l1.479.108c.926.041 1.759-.086 2.113-.899l3.053-6.748a.76.76 0 0 1 .32-.348l2.434-1.36c.18-.101.294-.289.3-.496l.103-3.957a23.28 23.28 0 0 0 10.081 4.005l-2.946 2.992a.5.5 0 0 0-.124.49l.855 2.955a.72.72 0 0 1-.024.467l-2.785 6.924c-.171.425.265 1.228.724 1.573l1.607 1.292c.545.287 1.496.069 1.673-.313l4.757-9.848 4.363 9.328c.339.724 1.234 1.148 2.069.648l1.122-.97c.684-.626 1.183-1.305.858-2.13l-2.612-6.93c-.057-.152-.064-.317-.02-.473l.76-2.683c.056-.199.003-.412-.139-.562l-2.724-2.87c3.687-.643 7.08-2.142 9.959-4.294l.033 4.196a.5.5 0 0 0 .258.434l2.694 1.485c.14.077.25.199.313.346l2.927 6.865c.18.422 1.056.681 1.624.6l2.05-.223c.589-.183 1.107-1.009.961-1.404l-3.6-10.327 9.681 3.511c.752.272 1.685-.061 1.921-1.005l.108-1.479c.041-.926-.086-1.759-.899-2.113l-6.748-3.053a.76.76 0 0 1-.349-.32l-1.36-2.434c-.101-.18-.289-.294-.496-.3l-3.957-.103a23.28 23.28 0 0 0 4.005-10.081l2.992 2.945a.5.5 0 0 0 .489.124l2.955-.855c.153-.045.318-.036.466.023l6.924 2.785c.425.171 1.228-.265 1.572-.724l1.292-1.607c.287-.545.069-1.496-.313-1.672h0zm-22.763-6.996h-4.98c-.362-1.646-1.059-3.165-2.017-4.485l3.49-3.49a16.91 16.91 0 0 1 3.506 7.975h0zm-10.287-7.587c-1.369-.875-2.925-1.484-4.596-1.749v-4.935c3.014.337 5.789 1.462 8.115 3.165l-3.519 3.519h0zM45.898 40A5.9 5.9 0 0 1 40 45.898 5.9 5.9 0 0 1 34.101 40 5.9 5.9 0 0 1 40 34.102 5.9 5.9 0 0 1 45.898 40h0zm-8.51-16.792v4.98a12.04 12.04 0 0 0-4.484 2.017l-3.491-3.49a16.91 16.91 0 0 1 7.975-3.506h0zm-7.587 10.288a12.02 12.02 0 0 0-1.748 4.596h-4.936a16.9 16.9 0 0 1 3.165-8.115l3.519 3.519h0zm-6.593 9.117h4.98c.362 1.646 1.059 3.165 2.017 4.485l-3.491 3.49a16.91 16.91 0 0 1-3.506-7.975h0zm10.287 7.587a12.02 12.02 0 0 0 4.596 1.749v4.935a16.89 16.89 0 0 1-8.115-3.165l3.519-3.519h0zm9.117 6.594v-4.98a12.04 12.04 0 0 0 4.484-2.017l3.49 3.49a16.91 16.91 0 0 1-7.975 3.506h0zm7.587-10.288c.875-1.369 1.483-2.925 1.748-4.596h4.936a16.9 16.9 0 0 1-3.165 8.115l-3.519-3.519h0z" stroke="none" fill="#e16426" fill-rule="nonzero"/></symbol></svg>