<svg xmlns="http://www.w3.org/2000/svg" xmlns:xlink="http://www.w3.org/1999/xlink" viewBox="0 0 80.572 54.572" fill="#fff" fill-rule="evenodd" stroke="#000" stroke-linecap="round" stroke-linejoin="round"><use xlink:href="#A" x=".286" y=".286"/><symbol id="A" overflow="visible"><path d="M69.485 4.923c-1.73.043-2.751.797-3.086 2.236.444.386 1.04.554 1.636.529 1.308-.055 2.603-1.052 2.236-2.74-.275-.023-.538-.032-.785-.025M78.394 0h-.154c-1.234.04-1.425.709-4.089 1.365-2.691.663-5.29.026-8.187 1.242-8.652 3.629-10.495 16.145-18.359 20.587-5.877 3.32-11.562 4.794-16.892 6.464-3.504 1.098-6.978 2.362-10.153 5.097-2.464 2.125-3.142 3.775-5.708 6.441-2.62 2.71-10.676-2.087-14.6 1.423-.163.149-.255.361-.252.582s.099.43.266.576c.85.744 2.467 2.515 4.007 3.062-.488.924-3.246 3.646-2.683 5.008.591 1.432 7.429.459 13.75-3.357 2.943-1.778 5.288-4.339 9.873-4.95 5.932-.79 12.768.508 19.636 1.497-1.019 3.036-3.063 5.057-4.702 7.485-.508.547 1.019.608 2.759.277 3.142-.774 5.389-1.398 7.762-2.772 2.904-1.691 3.345-6.025 6.906-6.962 1.722 2.647 6.006 3.539 9.309 2.125a7.94 7.94 0 0 0 .538-.254c.397-.347.164-.751-.079-1.049-.116-.107-.227-.22-.334-.336-1.859-1.998-2.284-6.714-1.46-9.008.94-2.61 1.868-6.785 2.815-10.234 1.016-3.696 1.392-8.375 2.622-10.263 1.85-2.839 3.895-3.814 5.67-5.415s3.4-3.16 3.345-6.823C79.972.678 79.416.028 78.394 0m.188 3.847c-.367 2.526-1.981 3.915-3.888 5.255-1.663 1.174-3.506 2.304-4.685 4.137-1.206 1.876-1.972 8.303-3.844 14.648-1.552 5.265-3.866 10.474-7.824 12.983a.43.43 0 0 1-.651-.277c-.277-1.471-.222-4.158-.678-3.29-.573 1.636-1.222 3.195-1.98 4.645-2.329 4.45-5.698 7.859-11.141 9.194a.49.49 0 0 1-.51-.758c2.512-3.484 4.759-7.231 5.033-12.95.023-.493-.597-.719-.908-.336-1.186 1.463-1.478 4.941-3.213 6.012-1.362.148-2.742.148-4.131.065-5.701-.342-11.552-2.057-16.886-.345-3.631 1.166-7.445 4.482-10.521 5.815-3.615 1.558-5.328 3.036-9.893 2.935-.467-.628 1.905-3.348 2.711-4.521.257-.376-.293-.772-.808-1.016-1.236-.567-2.476-2.107-3.795-2.707.169-.311.767-.623 1.097-.813 2.994-1.737 10.933 1.963 13.066-.132 1.317-1.292 2.204-2.427 3.098-3.742.869-1.275 2.188-2.622 3.555-3.74.58-.465 1.178-.907 1.793-1.326 2.329-1.593 3.61-1.711 6.625-2.831 3.837-1.427 8.587-2.678 12.703-4.251 2.543-.973 5.308-2.172 7.561-3.853a15.1 15.1 0 0 0 1.51-1.281c6.435-6.284 7.711-17.341 17.742-18.372a39.71 39.71 0 0 1 2.983-.206c1.013-.028 2.014-.277 3.015-.756.309-.135 2.147-1.247 2.768-.71.414.359.106 2.303.079 2.513" stroke="none" fill="#444b5e" fill-rule="nonzero"/></symbol></svg>