<svg xmlns="http://www.w3.org/2000/svg" xmlns:xlink="http://www.w3.org/1999/xlink" viewBox="0 0 81 59" fill="#fff" fill-rule="evenodd" stroke="#000" stroke-linecap="round" stroke-linejoin="round"><use xlink:href="#F" x=".5" y=".5"/><defs><linearGradient x1="49.9757898%" y1="-0.277985042%" x2="49.9757898%" y2="100.055626%" id="A"><stop stop-color="#ff7bff" offset="0%"/><stop stop-color="#f46bff" offset="3.6%"/><stop stop-color="#d945ff" offset="13.2%"/><stop stop-color="#c527ff" offset="22.8%"/><stop stop-color="#b611ff" offset="32.1%"/><stop stop-color="#ad04ff" offset="41.2%"/><stop stop-color="#a0f" offset="49.7%"/><stop stop-color="#a601fb" offset="58.8%"/><stop stop-color="#9a04f0" offset="68%"/><stop stop-color="#8608de" offset="77.2%"/><stop stop-color="#690ec5" offset="86.4%"/><stop stop-color="#4516a4" offset="95.5%"/><stop stop-color="#311b92" offset="100%"/></linearGradient><linearGradient x1="50.0023166%" y1="0%" x2="50.0023166%" y2="100.281224%" id="B"><stop stop-color="#ff7bff" offset="0%"/><stop stop-color="#f46bff" offset="3.6%"/><stop stop-color="#d945ff" offset="13.2%"/><stop stop-color="#c527ff" offset="22.8%"/><stop stop-color="#b611ff" offset="32.1%"/><stop stop-color="#ad04ff" offset="41.2%"/><stop stop-color="#a0f" offset="49.7%"/><stop stop-color="#a601fb" offset="58.8%"/><stop stop-color="#9a04f0" offset="68%"/><stop stop-color="#8608de" offset="77.2%"/><stop stop-color="#690ec5" offset="86.4%"/><stop stop-color="#4516a4" offset="95.5%"/><stop stop-color="#311b92" offset="100%"/></linearGradient><linearGradient x1="49.9901436%" y1="100.80222%" x2="49.9901436%" y2="-1.37223066%" id="C"><stop stop-color="#ff7bff" offset="0%"/><stop stop-color="#f268ff" offset="8.3%"/><stop stop-color="#d843ff" offset="27.1%"/><stop stop-color="#c426ff" offset="45.9%"/><stop stop-color="#b611ff" offset="64.4%"/><stop stop-color="#ad04ff" offset="82.6%"/><stop stop-color="#a0f" offset="100%"/></linearGradient><linearGradient x1="49.9815761%" y1="100.821447%" x2="49.9815761%" y2="-0.693418966%" id="D"><stop stop-color="#a0f" offset="0%"/><stop stop-color="#a601fb" offset="18.1%"/><stop stop-color="#9a04f0" offset="36.3%"/><stop stop-color="#8608de" offset="54.6%"/><stop stop-color="#690ec5" offset="72.9%"/><stop stop-color="#4516a4" offset="91.1%"/><stop stop-color="#311b92" offset="100%"/></linearGradient><linearGradient x1="49.9967392%" y1="100.014062%" x2="49.9967392%" y2="-0.0936019003%" id="E"><stop stop-color="#ff7bff" offset="0%"/><stop stop-color="#f46bff" offset="3.6%"/><stop stop-color="#d945ff" offset="13.2%"/><stop stop-color="#c527ff" offset="22.8%"/><stop stop-color="#b611ff" offset="32.1%"/><stop stop-color="#ad04ff" offset="41.2%"/><stop stop-color="#a0f" offset="49.7%"/><stop stop-color="#a601fb" offset="58.8%"/><stop stop-color="#9a04f0" offset="68%"/><stop stop-color="#8608de" offset="77.2%"/><stop stop-color="#690ec5" offset="86.4%"/><stop stop-color="#4516a4" offset="95.5%"/><stop stop-color="#311b92" offset="100%"/></linearGradient></defs><symbol id="F" overflow="visible"><g stroke="none" fill-rule="nonzero"><path d="M22.79 4.378C20.874 1.894 18.666.316 16.018.004c-.316.007-.632.032-.945.081C5.479 1.603.244 15.13 0 28.657.244 42.184 5.479 55.711 15.074 57.229a7.09 7.09 0 0 0 .945.081c2.648-.312 4.855-1.891 6.772-4.374-5.027-5.55-7.461-15.354-7.621-24.279.16-8.925 2.593-18.729 7.621-24.28z" fill="url(#A)"/><path d="M64.926.085a7.08 7.08 0 0 0-.945-.081L63.798 0H49.307l-.229.004c1.787.174 3.432.75 4.925 1.668 1.167.718 2.235 1.632 3.206 2.705 5.027 5.55 7.461 15.355 7.621 24.279-.161 8.925-2.594 18.729-7.621 24.28-.971 1.072-2.039 1.987-3.206 2.705-1.494.918-3.139 1.494-4.925 1.668l.229.004h14.491a6.31 6.31 0 0 0 .184-.003 7.04 7.04 0 0 0 .945-.082C74.521 55.71 79.756 42.184 80 28.657 79.756 15.13 74.521 1.603 64.926.085z" fill="url(#B)"/><path d="M44.59 49.009c-.687 1.465-1.389 2.775-2.116 3.947a.53.53 0 0 0 .048.625c1.612 1.892 3.438 3.181 5.549 3.615a5.99 5.99 0 0 0 1.006.115c1.787-.174 3.432-.75 4.925-1.668 1.167-.718 2.235-1.632 3.206-2.705-2.99-3.875-5.274-9.954-7.42-16.871-.078-.251-.433-.25-.509.002-1.378 4.579-2.872 9.065-4.69 12.941z" fill="url(#C)"/><path d="M22.79 4.378c2.99 3.875 5.273 9.954 7.419 16.871.078.251.434.25.509-.002 1.379-4.579 2.872-9.065 4.691-12.941.687-1.465 1.389-2.775 2.116-3.947a.53.53 0 0 0-.048-.624C35.865 1.842 34.039.554 31.928.12c-.333-.069-.672-.104-1.012-.115l-.224-.004c-2.328.001-12.576 0-14.49-.001-.061 0-.123.002-.184.003 2.648.313 4.856 1.891 6.772 4.375z" fill="url(#D)"/><path d="M54.004 1.672C52.51.754 50.865.178 49.078.004c-.338.011-.675.046-1.006.115-8.089 1.662-12.005 15.88-15.665 28.538-2.851 9.865-5.593 19.067-9.617 24.279-1.917 2.483-4.124 4.062-6.772 4.374l.184.003h14.49c.076 0 .153-.002.229-.004.338-.011.675-.046 1.006-.115 8.089-1.662 12.005-15.88 15.665-28.538 2.85-9.865 5.593-19.067 9.617-24.279-.971-1.072-2.039-1.987-3.206-2.704z" fill="url(#E)"/></g></symbol></svg>