<svg xmlns="http://www.w3.org/2000/svg" xmlns:xlink="http://www.w3.org/1999/xlink" viewBox="0 0 81 81" fill="#fff" fill-rule="evenodd" stroke="#000" stroke-linecap="round" stroke-linejoin="round"><use xlink:href="#A" x=".5" y=".5"/><symbol id="A" overflow="visible"><g stroke="none" fill-rule="nonzero"><path d="M.617 39.804A39.41 39.41 0 0 1 40.112.309a39.41 39.41 0 0 1 39.495 39.495 39.41 39.41 0 0 1-39.495 39.495A39.41 39.41 0 0 1 .617 39.804z"/><path d="M57.264 3.851C52.069 1.382 46.257 0 40.122 0 29.42 0 19.701 4.205 12.525 11.053c-7.629 7.28 58.241-.784 44.738-7.202z" fill="#fcc397"/><path d="M71.399 15.034c.046.057-3.261 4.476-13.198 5.731-20.058 2.532-54.493 2.8-54.441 2.686a40.08 40.08 0 0 1 8.81-12.384c4.328 1.351 9.038 1.688 13.494.867 7.357-1.346 13.903-5.597 21.18-7.329 3.23-.776 6.749-1.003 10.064-.739a40.13 40.13 0 0 1 14.092 11.169z" fill="#fc9f95"/><path d="M79.595 33.738c.025.161-45.23 4.415-67.279 3.175C5.131 36.509.892 32.166.94 31.929a39.68 39.68 0 0 1 2.757-8.47c6.37-3.487 13.865-5.499 21.132-5.42 9.113.093 18.054 3.132 27.167 2.905 6.768-.172 13.59-2.332 19.34-5.902 4.238 5.297 7.157 11.695 8.258 18.696z" fill="#f77c88"/><path d="M79.956 39.775l-.005.663s-12.57 3.17-28.758 2.981C28.519 43.155-.001 39.498 0 39.431a40.13 40.13 0 0 1 .818-7.749c5.432 3.352 12.02 4.993 18.361 4.303 5.042-.546 9.832-2.412 14.501-4.398s9.313-4.118 14.249-5.264a37.31 37.31 0 0 1 21.938 1.639c3.372 1.33 6.718 3.242 9.6 5.547.321 2.042.488 4.135.488 6.267z" fill="#f25192"/><path d="M34.618 52.768c-11.995 2.215-32.579-.34-32.63-.498C.698 48.342 0 44.146 0 39.787l.001-.345c1.821-1.444 3.948-2.731 6.024-3.732 5.135-2.492 10.963-3.531 16.643-2.972 5.614.56 10.976 2.639 16.164 4.877 4.371 1.886 8.714 3.924 13.252 5.332.444.138-4.264 7.382-17.467 9.82z" fill="#d34ca3"/><path d="M78.564 50.557c-.838 1.414-8.803 6.179-19.601 6.995-14.297 1.08-31.186-3.241-25.584-5.44 8.821-3.465 16.47-9.688 25.584-12.287 6.808-1.95 14.355-1.642 21.038.715a39.98 39.98 0 0 1-1.437 10.017z" fill="#9a50a5"/><path d="M74.853 59.727c-6.903 11.985-56.971 14.991-64.285 6.929a39.94 39.94 0 0 1-8.374-14.371c6.149-3.514 13.346-5.007 20.264-4.061 8.954 1.226 16.976 6.223 25.81 8.169a39.06 39.06 0 0 0 21.553-1.399c3.103-1.129 6.18-2.642 8.901-4.513a39.74 39.74 0 0 1-3.869 9.246z" fill="#59569e"/><path d="M74.687 59.56C67.798 71.6 54.828 79.714 39.962 79.714c-11.745 0-22.307-5.065-29.621-13.129 1.214.464 2.571.865 3.816 1.216 6.958 1.919 14.448 1.866 21.366-.173 4.43-1.306 8.594-3.385 12.945-4.957 8.302-2.994 17.439-4.048 26.22-3.11z" fill="#39477f"/></g></symbol></svg>