<svg xmlns="http://www.w3.org/2000/svg" xmlns:xlink="http://www.w3.org/1999/xlink" viewBox="0 0 81 12" fill="#fff" fill-rule="evenodd" stroke="#000" stroke-linecap="round" stroke-linejoin="round"><use xlink:href="#A" x=".5" y=".5"/><symbol id="A" overflow="visible"><path d="M34.537 6.766h5.286l-2.795-4.497-5.13 8.131h-2.335l6.24-9.767C36.074.238 36.526 0 37.028 0c.485 0 .937.23 1.2.617l6.265 9.783h-2.335l-1.102-1.817h-5.352l-1.167-1.817h0zm24.253 1.817V.099h-1.981v9.315a.97.97 0 0 0 .288.691 1.01 1.01 0 0 0 .723.296h9.035l1.167-1.817h-9.232 0zM26.011 7.062a3.48 3.48 0 0 0 3.486-3.478A3.49 3.49 0 0 0 26.011.099h-8.668V10.4h1.981V1.916h6.556c.921 0 1.661.748 1.661 1.669s-.74 1.669-1.661 1.669l-5.585-.008 5.914 5.155h2.877l-3.979-3.338h.904 0zM5.151 10.4A5.15 5.15 0 0 1 0 5.253C0 2.409 2.308.099 5.151.099h5.987c2.845 0 5.151 2.31 5.151 5.155a5.15 5.15 0 0 1-5.151 5.147H5.151h0zm5.854-1.817a3.33 3.33 0 0 0 3.335-3.33 3.34 3.34 0 0 0-3.335-3.338H5.284a3.34 3.34 0 0 0-3.335 3.338 3.33 3.33 0 0 0 3.335 3.33h5.722 0zM48.628 10.4c-2.845 0-5.155-2.302-5.155-5.147A5.16 5.16 0 0 1 48.628.099h7.111L54.58 1.916h-5.821a3.34 3.34 0 0 0-3.338 3.338c0 1.842 1.496 3.33 3.338 3.33h7.144L54.736 10.4h-6.108 0zm24.228-1.817a3.33 3.33 0 0 1-3.206-2.425h8.468l1.167-1.817h-9.635a3.34 3.34 0 0 1 3.206-2.425h5.812L79.844.099h-7.12a5.16 5.16 0 0 0-5.155 5.155c0 2.845 2.31 5.147 5.155 5.147h6.108L80 8.583h-7.144 0z" stroke="none" fill="#ea1b22" fill-rule="nonzero"/></symbol></svg>