<svg xmlns="http://www.w3.org/2000/svg" xmlns:xlink="http://www.w3.org/1999/xlink" viewBox="0 0 81 81" fill="#fff" fill-rule="evenodd" stroke="#000" stroke-linecap="round" stroke-linejoin="round"><use xlink:href="#A" x=".5" y=".5"/><symbol id="A" overflow="visible"><path d="M46.667 49.733H27c-2.867 0-4.533 1.767-4.533 4.3C22.467 56.3 24 57.9 26.2 57.9c2.567 0 4.033-1.767 4.167-4.3h5.7c-.3 6.2-4.167 9.5-9.933 9.5-5.4 0-9.433-3.667-9.433-9.133 0-5.7 4.233-9.667 10.6-9.667h19.467c6.567 0 11.567-4.833 11.567-11.333 0-6.567-4.467-11.2-10.833-11.2-6.3 0-11.4 4.6-11.4 13.1v5.567h-5.767v-5.567C30.333 23.6 37.567 16.3 47.6 16.3c9.567 0 16.533 6.867 16.533 16.6.067 9.733-7.4 16.833-17.467 16.833h0zM40 80c22.367 0 40-17.7 40-40S62.367 0 40 0 0 17.767 0 40c0 22.3 17.633 40 40 40h0z" stroke="none" fill="#169cee" fill-rule="nonzero"/></symbol></svg>