<svg xmlns="http://www.w3.org/2000/svg" xmlns:xlink="http://www.w3.org/1999/xlink" viewBox="0 0 81 79" fill="#fff" fill-rule="evenodd" stroke="#000" stroke-linecap="round" stroke-linejoin="round"><use xlink:href="#B" x=".5" y=".5"/><defs><linearGradient x1="50%" y1="0%" x2="50%" y2="100%" id="A"><stop stop-color="#fbb32f" offset="0%"/><stop stop-color="#c11511" offset="50.4738739%"/><stop stop-color="#c11411" offset="100%"/></linearGradient></defs><symbol id="B" overflow="visible"><g stroke="none" fill-rule="nonzero"><path d="M40 0C17.909 0 0 17.448 0 38.972c0 13.464 7.008 25.333 17.664 32.334V38.993c0-.049-.007-.097-.007-.146s.007-.097.007-.146v-.274h.013c.219-12.546 10.105-22.65 22.288-22.65 12.321 0 22.309 10.329 22.309 23.071s-9.988 23.07-22.309 23.07c-4.799 0-9.232-1.582-12.871-4.247v18.19c4.05 1.345 8.387 2.085 12.905 2.085 22.091 0 40-17.448 40-38.972S62.091 0 40 0" fill="url(#A)"/><path d="M53.499 39.654a13.35 13.35 0 0 1-13.348 13.348 13.35 13.35 0 0 1-13.348-13.348 13.35 13.35 0 0 1 13.348-13.348 13.35 13.35 0 0 1 13.348 13.348" fill="#fcb42f"/></g></symbol></svg>