<svg xmlns="http://www.w3.org/2000/svg" xmlns:xlink="http://www.w3.org/1999/xlink" viewBox="0 0 68 81" fill="#fff" fill-rule="evenodd" stroke="#000" stroke-linecap="round" stroke-linejoin="round"><use xlink:href="#A" x=".5" y=".5"/><symbol id="A" overflow="visible"><path d="M65.812 60.949L38.3 2.524c-.696-1.465-2.14-2.43-3.76-2.514-1.624-.109-3.173.694-4.02 2.084L.681 50.423a4.52 4.52 0 0 0 .05 4.852L15.32 77.867a4.69 4.69 0 0 0 5.27 1.938l42.336-12.523a4.64 4.64 0 0 0 2.914-2.516 4.54 4.54 0 0 0-.026-3.82l-.002.002zm-6.159 2.506L23.727 74.077c-1.096.326-2.148-.624-1.92-1.73l12.835-61.457c.24-1.15 1.828-1.332 2.33-.268l23.76 50.456c.213.455.215.98.007 1.437s-.606.8-1.089.938h.002z" stroke="none" fill="#000" fill-rule="nonzero"/></symbol></svg>