<svg xmlns="http://www.w3.org/2000/svg" xmlns:xlink="http://www.w3.org/1999/xlink" viewBox="0 0 65 81" fill="#fff" fill-rule="evenodd" stroke="#000" stroke-linecap="round" stroke-linejoin="round"><use xlink:href="#A" x=".5" y=".5"/><symbol id="A" overflow="visible"><g stroke="none" fill-rule="nonzero"><path d="M57.904 50.391c1.39-15.889-5.015-29.429-14.307-30.242S25.646 31.558 24.256 47.447s5.015 29.429 14.307 30.242S56.514 66.28 57.904 50.391z" fill="#d04b06"/><path d="M62.853 50.391c1.39-15.889-5.015-29.429-14.307-30.242S30.595 31.558 29.205 47.447s5.015 29.429 14.307 30.242S61.463 66.28 62.853 50.391z" fill="#c65c14"/><path d="M24.524 77.689c9.292-.813 15.697-14.353 14.307-30.242S28.782 19.336 19.49 20.149 3.792 34.502 5.183 50.391s10.049 28.111 19.341 27.298z" fill="#d04b06"/><path d="M19.576 77.689c9.292-.813 15.697-14.353 14.307-30.242S23.834 19.336 14.542 20.149-1.156 34.502.235 50.391s10.049 28.111 19.341 27.298z" fill="#c65c14"/><path d="M62.809 52.592c1.39-15.889-5.015-29.429-14.307-30.242S30.551 33.759 29.161 49.648s5.015 29.429 14.307 30.242 17.951-11.409 19.341-27.298z" fill="#f17008"/><path d="M24.13 29.774l-.65-5.931s.358-3.17 6.888-3.624-3.003-14.546-3.003-14.546 2.192-7.871 5.789-5.07 3.741 19.161 3.741 19.161 2.319 6.156 2.558 8.331" fill="#8f6646"/><path d="M57.859 52.593c1.39-15.889-5.015-29.429-14.307-30.242S25.601 33.76 24.211 49.649s5.015 29.429 14.307 30.242 17.951-11.409 19.341-27.298z" fill="#f48d39"/><path d="M19.531 79.89c9.292-.813 15.697-14.353 14.307-30.242S23.789 21.537 14.497 22.35-1.201 36.703.19 52.592 10.239 80.703 19.531 79.89z" fill="#f17008"/><path d="M24.48 79.891c9.292-.813 15.697-14.353 14.307-30.242S28.738 21.538 19.446 22.351 3.748 36.704 5.139 52.593 15.188 80.704 24.48 79.891z" fill="#f48d39"/><path d="M13.468 51.121c0-15.999 7.532-28.88 16.888-28.88s16.888 12.88 16.888 28.88S39.713 80 30.356 80s-16.888-12.88-16.888-28.88z" fill="#f17008"/><path d="M25.464 39.257a5.88 5.88 0 1 1 11.789 0 5.88 5.88 0 1 1-11.789 0z" fill="#f7f3f0"/><path d="M31.359 41.745a2.02 2.02 0 1 1 4.053 0 2.02 2.02 0 1 1-4.053 0z" fill="#160c06"/><path d="M33.244 41.828c0-.348.28-.627.627-.627s.627.28.627.627-.28.627-.627.627-.627-.28-.627-.627z" fill="#f9f6f4"/></g></symbol></svg>