<svg xmlns="http://www.w3.org/2000/svg" xmlns:xlink="http://www.w3.org/1999/xlink" viewBox="0 0 53.333 81.333" fill="#fff" fill-rule="evenodd" stroke="#000" stroke-linecap="round" stroke-linejoin="round"><use xlink:href="#A" x=".667" y=".667"/><symbol id="A" overflow="visible"><path d="M25.894 79.886V59.831c-.001-.043.023-.083.061-.103l25.773-14.882c.038-.021.061-.06.061-.103V39.04c.001-.043-.022-.083-.059-.104s-.083-.021-.12.001L26.073 53.679c-.037.022-.083.022-.12.001s-.06-.061-.059-.104v-5.706c0-.043.023-.082.061-.103l25.773-14.882c.037-.022.06-.061.061-.103v-5.703c-.001-.042-.024-.081-.061-.102s-.081-.022-.119-.002L26.073 41.719c-.037.022-.083.022-.12.001s-.06-.061-.059-.104v-5.703c-.001-.043.023-.083.061-.103l25.773-14.874c.037-.021.061-.061.061-.103V15.05c-.002-.085-.047-.162-.119-.207L26.013.032c-.073-.043-.164-.043-.237 0L20.895 2.85c-.037.021-.061.061-.061.103s.023.082.061.103l25.536 14.743c.036.022.058.061.058.103s-.022.081-.058.103l-4.881 2.817c-.075.04-.165.04-.24 0L15.656 6.013c-.078-.045-.174-.045-.252 0l-4.866 2.815c-.037.021-.061.061-.061.103s.023.082.061.103L36.069 23.78c.037.021.061.061.061.103s-.023.082-.061.103l-4.878 2.817c-.078.045-.174.045-.252 0L5.297 11.99c-.078-.045-.174-.045-.252 0L0 14.911v50.164c-.001.043.023.083.061.103l4.939 2.853c.037.022.083.022.12.001s.06-.061.059-.104V18.11c-.001-.043.022-.083.059-.104s.083-.021.12.001l4.941 2.853c.036.022.059.061.058.103v50.093c0 .043.023.082.061.103l4.939 2.853c.038.022.084.022.122 0s.061-.062.06-.106V24.09c-.001-.043.022-.083.059-.104s.083-.021.12.001l4.939 2.85c.037.021.061.061.061.103v50.096c.001.042.022.081.058.103l4.954 2.85c.036.016.077.013.11-.008s.054-.057.056-.096h0z" stroke="none" fill="#2f0d4f" fill-rule="nonzero"/></symbol></svg>