<svg xmlns="http://www.w3.org/2000/svg" xmlns:xlink="http://www.w3.org/1999/xlink" viewBox="0 0 61 81" fill="#fff" fill-rule="evenodd" stroke="#000" stroke-linecap="round" stroke-linejoin="round"><use xlink:href="#A" x=".5" y=".5"/><symbol id="A" overflow="visible"><g stroke="none" fill-rule="nonzero"><path d="M0 75.442A4.56 4.56 0 0 0 4.559 80a4.56 4.56 0 0 0 4.559-4.559V45.681l-.211-.077-8.83 5.214-.076.246v24.377z" fill="#ee3a43"/><path d="M0 19.371v31.694l9.117-5.384V21.98l.003-.096-8.383-4.849-.109.031A4.55 4.55 0 0 0 0 19.371" fill="#cf3239"/><path d="M27.474.624L2.25 15.439c-.682.401-1.234.966-1.621 1.626l8.488 4.914L29.809 9.826l.175-.283V.191L29.809 0C29-.005 28.196.2 27.474.624" fill="#af272b"/><path d="M57.201 15.037L32.052.601C31.359.203 30.581.005 29.809 0v9.826l20.577 11.811.133.035 8.6-4.277.038-.104c-.376-.936-1.054-1.738-1.957-2.256" fill="#7a1313"/><path d="M59.642 47.534l-.152-28.568a4.55 4.55 0 0 0-.332-1.674l-8.771 4.345.002 23.333.034.171 7.983 5.32.196-.018c.663-.809 1.045-1.831 1.04-2.909" fill="#af272b"/><path d="M58.602 50.443l-8.213-5.472-22.724 13.317c-.017.01 11.328 4.112 11.328 4.112L57.37 51.493a4.77 4.77 0 0 0 1.231-1.05" fill="#cf3239"/><path d="M53.314 79.97a4.53 4.53 0 0 1-2.198-.568L27.483 66.366a4.56 4.56 0 0 1-1.79-6.193 4.56 4.56 0 0 1 6.193-1.79L55.52 71.419a4.56 4.56 0 0 1 1.79 6.193c-.831 1.506-2.389 2.358-3.996 2.358" fill="#ee3a43"/><path d="M29.699 33.553l9.534-5.619.056-.168c-.464-.692-1.076-1.289-1.823-1.72l-4.985-2.878a5.54 5.54 0 0 0-5.543 0l-4.985 2.878c-.737.426-1.343 1.013-1.806 1.694l.042.193 9.509 5.619z" fill="#cf3239"/><path d="M37.467 41.403c.963-.556 1.708-1.382 2.185-2.345l-.056-.173-9.702-5.549-.204.025-.282.016-9.594 5.653.011.144a5.53 5.53 0 0 0 2.128 2.23l4.985 2.878c1.715.99 3.828.99 5.543 0l4.985-2.878z" fill="#7a1313"/><path d="M20.147 27.741a5.53 5.53 0 0 0-.965 3.105v5.756c0 .915.234 1.793.646 2.576l9.863-5.818-9.543-5.619z" fill="#af272b"/><path d="M39.653 39.057c.373-.752.586-1.586.586-2.455v-5.756a5.53 5.53 0 0 0-.948-3.08l-9.6 5.594 9.962 5.697z" fill="#ee3a43"/></g></symbol></svg>