<svg xmlns="http://www.w3.org/2000/svg" xmlns:xlink="http://www.w3.org/1999/xlink" viewBox="0 0 81 14" fill="#fff" fill-rule="evenodd" stroke="#000" stroke-linecap="round" stroke-linejoin="round"><use xlink:href="#A" x=".5" y=".5"/><symbol id="A" overflow="visible"><path d="M0 12.343v-.827a.22.22 0 0 1 .253-.253h.878v-8.78H.253A.22.22 0 0 1 0 2.229v-.844a.22.22 0 0 1 .253-.253L3.85 1.03c2.927 0 4.39 1.047 4.39 3.141 0 .732-.186 1.376-.557 1.933s-.867.982-1.486 1.275l1.976 3.883h1.047a.22.22 0 0 1 .253.253v.827a.22.22 0 0 1-.253.253H6.99c-.169 0-.293-.073-.371-.219L4.323 7.835h-.338c-.36 0-.681-.017-.962-.051v3.478h1.064a.22.22 0 0 1 .253.253v.827a.22.22 0 0 1-.253.253H.253A.22.22 0 0 1 0 12.343h0zm3.022-9.911v4.069a3.36 3.36 0 0 0 .388.017c.912 0 1.621-.18 2.127-.54s.76-.901.76-1.621c0-1.283-.889-1.925-2.668-1.925h-.608zM14.2 12.799c-1.34 0-2.322-.391-2.946-1.173s-.937-1.818-.937-3.107.332-2.355.996-3.2 1.621-1.266 2.87-1.266c.619 0 1.151.115 1.596.346s.785.543 1.022.937c.45.765.675 1.649.675 2.651 0 .473-.023.732-.068.777s-.129.068-.253.068h-4.964c.056.81.256 1.438.599 1.883s.937.667 1.781.667c.619 0 1.255-.146 1.908-.439.158-.079.27-.034.338.135l.321.777c.056.135.006.248-.152.338-.743.405-1.672.608-2.786.608h0zm-2.009-5.217h3.512c.023-1.407-.529-2.111-1.655-2.111-.664 0-1.134.211-1.41.633s-.425.915-.447 1.477h0zm9.152-1.959v4.255c0 .529.068.912.203 1.148s.388.355.76.355a2.6 2.6 0 0 0 1.081-.236c.124-.045.214 0 .27.135l.304.777c.011.034.017.082.017.144s-.056.127-.169.194c-.54.27-1.182.405-1.925.405-1.002 0-1.66-.259-1.976-.777-.225-.338-.355-.664-.388-.979a12.91 12.91 0 0 1-.068-1.351V5.623h-.962a.22.22 0 0 1-.253-.253v-.878a.22.22 0 0 1 .253-.253h.962V1.959a.22.22 0 0 1 .253-.253h1.385a.22.22 0 0 1 .253.253v2.279h1.705a.22.22 0 0 1 .253.253v.878a.22.22 0 0 1-.253.253h-1.705zm3.208-4.491V.253A.22.22 0 0 1 24.804 0h2.55a.22.22 0 0 1 .253.253v5.2c.63-.934 1.503-1.401 2.617-1.401 1.745 0 2.617.957 2.617 2.87v4.339h.996a.22.22 0 0 1 .253.253v.827a.22.22 0 0 1-.253.253h-3.698a.22.22 0 0 1-.253-.253v-.827a.22.22 0 0 1 .253-.253h.81V7.767c0-.709-.09-1.227-.27-1.553s-.552-.49-1.114-.49-1.03.169-1.401.507-.557.72-.557 1.148v3.883h1.03a.22.22 0 0 1 .253.253v.827a.22.22 0 0 1-.253.253h-3.833a.22.22 0 0 1-.253-.253v-.827a.22.22 0 0 1 .253-.253h.912V1.385h-.912a.22.22 0 0 1-.253-.253h0zm13.255 10.131h1.064a.22.22 0 0 1 .253.253v.827a.22.22 0 0 1-.253.253H34.85a.22.22 0 0 1-.253-.253v-.827a.22.22 0 0 1 .253-.253h1.064V5.623h-.912a.22.22 0 0 1-.253-.253v-.878a.22.22 0 0 1 .253-.253h2.55a.22.22 0 0 1 .253.253v6.771zm-2.364-9.388c0-.349.11-.639.329-.87s.512-.346.878-.346.659.115.878.346.329.521.329.87-.113.636-.338.861-.521.338-.886.338-.656-.113-.87-.338-.321-.512-.321-.861h0zm4.272 3.512v-.895a.22.22 0 0 1 .253-.253h2.296c.146 0 .236.084.27.253l.152.979c.63-.946 1.531-1.418 2.702-1.418 1.745 0 2.617.957 2.617 2.87v4.339h.979a.22.22 0 0 1 .253.253v.827a.22.22 0 0 1-.253.253h-3.681a.22.22 0 0 1-.253-.253v-.827a.22.22 0 0 1 .253-.253h.81V7.767c0-.709-.09-1.227-.27-1.553s-.552-.49-1.114-.49-1.03.169-1.401.507-.557.72-.557 1.148v3.883h1.047a.22.22 0 0 1 .253.253v.827a.22.22 0 0 1-.253.253h-3.833a.22.22 0 0 1-.253-.253v-.827a.22.22 0 0 1 .253-.253h.895V5.623h-.912c-.169 0-.253-.079-.253-.236h0zM52.968.253V6.99h.861l2.617-2.566a.6.6 0 0 1 .439-.186h1.317a.22.22 0 0 1 .253.253v.878a.22.22 0 0 1-.253.253h-1.03l-1.857 1.807 2.313 3.833h.996a.22.22 0 0 1 .253.253v.827a.22.22 0 0 1-.253.253h-2.178c-.158 0-.287-.073-.388-.219L53.525 8.29h-.557v2.972h.895a.22.22 0 0 1 .253.253v.827a.22.22 0 0 1-.253.253h-3.681a.22.22 0 0 1-.253-.253v-.827a.22.22 0 0 1 .253-.253h.895V1.368h-.912a.22.22 0 0 1-.253-.253V.253A.22.22 0 0 1 50.165 0h2.55a.22.22 0 0 1 .253.253h0zm7.007.878l3.208-.101 1.562.042a9.97 9.97 0 0 1 1.173.177c.439.09.83.211 1.173.363s.689.369 1.038.65.642.608.878.979c.518.855.777 1.959.777 3.309 0 2.037-.563 3.554-1.688 4.55s-2.662 1.494-4.61 1.494h-3.512a.22.22 0 0 1-.253-.253v-.827a.22.22 0 0 1 .253-.253h.878V2.499h-.878a.22.22 0 0 1-.253-.253v-.861a.22.22 0 0 1 .253-.253h0zm6.762 8.932c.681-.81 1.022-1.919 1.022-3.326s-.318-2.476-.954-3.208-1.629-1.097-2.98-1.097h-1.081v8.848h1.114c1.238 0 2.198-.405 2.879-1.216h0zm4.432 2.279v-.827a.22.22 0 0 1 .253-.253h.895V2.499h-.878a.22.22 0 0 1-.253-.253v-.861c0-.18.084-.27.253-.27l3.85-.084c1.216 0 2.187.234 2.913.701a2.24 2.24 0 0 1 1.089 2.001c0 .63-.194 1.179-.583 1.646s-.847.808-1.376 1.022c.867.135 1.528.456 1.984.962S80 8.487 80 9.219c0 .957-.355 1.731-1.064 2.322s-1.649.926-2.82 1.005l-2.33.051h-2.364a.22.22 0 0 1-.253-.253h0zm3.039-5.065v4.019h.76c.991 0 1.759-.158 2.305-.473s.819-.861.819-1.638c0-1.272-.889-1.908-2.668-1.908h-1.216zm0-4.88v3.478h.642c1.666 0 2.499-.58 2.499-1.739 0-.653-.203-1.106-.608-1.359s-.985-.38-1.739-.38h-.794z" stroke="none" fill="#204956" fill-rule="nonzero"/></symbol></svg>