<svg xmlns="http://www.w3.org/2000/svg" xmlns:xlink="http://www.w3.org/1999/xlink" viewBox="0 0 81 67" fill="#fff" fill-rule="evenodd" stroke="#000" stroke-linecap="round" stroke-linejoin="round"><use xlink:href="#A" x=".5" y=".5"/><symbol id="A" overflow="visible"><g stroke="none" fill-rule="nonzero"><path d="M74.655 65.625H5.345C2.393 65.625 0 63.232 0 60.279V5.346C0 2.393 2.393 0 5.345 0h69.309C77.607 0 80 2.393 80 5.346v54.934c0 2.953-2.393 5.346-5.345 5.346" fill="#000"/><g fill="#f7be01"><path d="M23.033 34.076l-3.787 1.892c-3.239 1.368-6.69.161-8.19-2.812-1.484-2.94-.637-6.342 2.341-8.084 4.011-2.347 8.168-4.445 12.591-6.827-.302 2.674-1.581 4.187-3.485 5.243l-6.592 3.543c-1.955 1.038-3.391 2.434-2.158 4.759 1.179 2.222 3.054 2.177 5.115 1.062l25.326-13.607c1.01-.54 1.671-1.374 2.38-2.22 2.495-2.976 5.615-5.188 8.733-7.404-.134-.206-.229-.862-.229-.862s1.276-.11 2.031-.677c.274-.206 1.595-1.077 1.919-1.187 2.664-.897 2.041-.229 3.914.249.277.071 2.433-.166 2.651.006.8.854.447 3.068.447 3.068-.507.676-1.641.756-1.848.988-1.274 1.43-1.423 2.158-3.958 2.708-.288.012-.122.768-.106 1.258.058 1.789-.18 3.577.22 5.371.743 3.335 2.521 5.109 6.153 4.887 1.767-.108 3.583.212 5.344.519.895.156 1.738.835 1.508 1.897-.077.357-.203.599-.203.599s-1.261.014-1.567-.098c-.646-.237-1.094-.367-1.766-.423-.135-.151-.104-.781-.104-.781s-1.262.746-1.664.762c-2.837.113-5.723.894-8.05-.621-3.765-2.452-5.414-.745-8.024 1.594-4.234 3.795-9.426 6.015-15.237 6.181-1.631.047-1.948.686-2.105 2.08-.622 5.507-3.588 8.974-9.15 9.926-1.173.201-1.679.886-2.174 1.79l-4.224 7.577c-.437.78-.786 1.669-1.688 2.024-.423.167-.943.179-1.394.106-.097-.015-.185-.53-.095-1.056.262-1.093.367-1.927.523-2.917.722-.002 1.039-.706 1.402-1.034 1.542-1.392 1.518-4.574 2.055-7.001.33-1.489.489-2.731 2.443-3.207 1.822-.444 2.208-2.194 1.573-3.918-.587-1.592-1.228-3.148-.875-5.356m50.508-1.318l-.057 22.602c-.063 2.786-2.097 3.821-4.765 3.814L39.97 59.16H24.854l5.277-5.139s2.305-.792 3.87-.93c2.024-.18 5.401-1.049 5.401-1.049s1.262-3.146 1.65-4.919c.243-1.11 1.084-3.18 1.084-3.18l3.613-.013 8.808-.065s1.559-4.419 2.135-6.615c4.688-.625 12.545-3.446 16.844-4.494"/><path d="M18.424 44.753c-.727 2.125.381 5.029-2.438 5.962-2.909.963-5.359 3.789-9.559 2.415 1.45-.781 2.113-2.115 3.289-2.704.346-.173 1.041-.625 1.041-.625l.918.654.947-.485c.914-.574 1.987-1.989 2.946-2.801l2.857-2.417M69.378 22c-.098-.459-.288-.74-.288-.74s-2.776 1.725-3.782 2.043c-.879.277-1.61 1.252-2.273-.427-.552-1.397.231-1.459 1.097-1.764l5.846-2.125c1.194-.404 2.767-.44 3.154.763.14.436-.028.924-.028.924L69.378 22M23.79 17.49c-.854.21-.838-.433-.895-.861-.17-1.266 1.029-1.277 1.716-1.683.577-.341.955.256 1.022.709.312 1.318-1.285 1.437-1.842 1.835m-1.536-3.34c-.672.039-1.006-.326-1.025-.863-.034-.937.534-1.54 1.418-1.583.69-.034 1.528.322 1.389 1.158-.142.858-1.18.907-1.782 1.288"/></g><g fill="#303144"><path d="M43.79 28.152c-.598-.206-.651-.692-.556-1.2.077-.414.324-.763.81-.639.621.158.629.691.573 1.196-.052.469-.363.666-.827.644m13.435-9.84c-.025.427-.161.831-.628.884-.651.074-.847-.403-.847-.937 0-.406.151-.845.615-.89.629-.061.84.384.859.943m-4.682-3.639c.525-.083.845.125.959.549.147.546-.034 1.003-.614 1.152-.453.116-.745-.188-.89-.583-.217-.586.085-.929.545-1.119M27.18 37.213c-.109.497-.33.927-.926.795-.528-.117-.812-.557-.634-1.058.104-.292.488-.66.767-.678.538-.035.803.388.793.941"/><path d="M32.475 34.137c.067.64-.273 1.012-.778 1.015-.266.002-.672-.37-.772-.657-.174-.498.098-.973.618-1.103.594-.149.792.337.932.746m24.91-12.882c.626-.003.932.335.936.864.003.521-.31.963-.852.893-.275-.035-.619-.429-.72-.731-.177-.533.17-.873.636-1.027"/><path d="M42.116 24.26c-.078.303-.355.721-.914.507-.287-.109-.61-.516-.64-.815-.051-.511.318-.921.861-.889s.81.424.693 1.198m11.219-3.836c-.108.691-.34 1.085-.957 1-.479-.066-.627-.465-.588-.861.049-.495.256-1.028.883-.851.294.083.489.515.663.713"/><path d="M49.355 19.161c-.052.599-.188.975-.645 1.038-.609.083-.933-.319-.897-.846.032-.458.249-1.035.882-.865.295.079.499.5.659.673M31.505 38.663c-.055.432-.115.96-.785.924-.469-.025-.627-.426-.631-.83-.006-.508.101-1.027.764-.992.459.024.591.429.652.898"/><path d="M48.058 29.051c-.555-.135-.83-.497-.777-1.058.043-.449.368-.751.784-.738.608.019.806.462.744 1.029-.049.45-.309.697-.751.767m8.577-16.304c.481-.047.82.147.929.564.142.545-.078 1.012-.62 1.175-.443.133-.727-.203-.857-.598-.183-.557.008-.958.548-1.142m-9.916 9.613c.483.13.892.413.731.977-.089.313-.398.726-.677.79-.559.128-.844-.342-.903-.837-.068-.567.297-.849.849-.931m-10.472 8.787a.49.49 0 0 1 .498.005c.354.216.597.534.471.981-.053.19-.221.348-.402.502-.19.163-.47.162-.659 0-.181-.155-.349-.314-.4-.504-.118-.445.121-.77.492-.984m-3.24-1.73c-.148.115-.461.547-.721.518-.493-.056-.93-.462-.734-1.041.11-.325.512-.815.725-.787.493.063.837.474.73 1.311m18.555-5.441c.49.247.756.635.586 1.181-.118.378-.414.709-.847.579-.537-.16-.767-.596-.585-1.149.125-.379.381-.658.847-.611m9.785-14.708c-.464.035-.767-.217-.865-.622-.148-.607.27-.931.775-.977.428-.038.713.337.723.763.01.401-.144.771-.633.835M27.975 32.341c-.157.377-.207.816-.705.81-.649-.008-.749-.504-.753-.992-.004-.418.227-.723.685-.74.673-.025.712.473.773.922m12.924-.976c.056-.48.087-.993.751-.998.497-.003.624.411.657.776.045.494-.054.986-.721.975-.468-.007-.626-.346-.688-.753m-13.216 9.864c.491-.023.686.275.762.679.096.508.02.976-.577 1.082-.437.078-.717-.182-.762-.632-.05-.498.045-.934.577-1.129m9.92-13.018c-.68-.249-.912-.685-.743-1.159.094-.264.558-.6.802-.562.513.079.787.568.618 1.066-.097.286-.479.474-.677.656"/></g></g></symbol></svg>