<svg xmlns="http://www.w3.org/2000/svg" xmlns:xlink="http://www.w3.org/1999/xlink" viewBox="0 0 54 81" fill="#fff" fill-rule="evenodd" stroke="#000" stroke-linecap="round" stroke-linejoin="round"><use xlink:href="#A" x=".5" y=".5"/><symbol id="A" overflow="visible"><g stroke="none"><g fill-rule="nonzero"><path d="M0 52.055v16.438h21.37v3.836h3.836v-3.836h3.835v3.836 3.835h3.836v-3.835-3.836h3.835v3.836 3.835h3.835V80h3.836v-3.836-3.835h3.835v3.835h3.835v-3.835-3.836-16.438z" fill="#5f2688"/><path d="M7.671 0v3.836 3.835H3.836V3.836H0v3.835 3.835 16.438h52.054V11.507h-21.37V7.671h-3.835v3.835h-3.836V7.671 3.836h-3.835v3.835 3.835h-3.835V7.671 3.836h-3.835V0z" fill="#e6008d"/></g><path fill="#8d1f89" d="M0 31.781h52.054v16.438H0z"/></g></symbol></svg>