<svg xmlns="http://www.w3.org/2000/svg" xmlns:xlink="http://www.w3.org/1999/xlink" viewBox="0 0 71 81" fill="#fff" fill-rule="evenodd" stroke="#000" stroke-linecap="round" stroke-linejoin="round"><style><![CDATA[.B{fill:#2f406a}.C{fill:#2379bd}.D{fill:#03afef}]]></style><use xlink:href="#A" x=".5" y=".5"/><symbol id="A" overflow="visible"><g stroke="none" fill-rule="nonzero"><path d="M59.213 25.512v28.819L34.724 68.819l-.221.201v10.771l.221.209 34.488-19.921V19.922l-.326-.08-9.723 5.436.049.234" class="B"/><path d="M10.157 54.567l24.567 14.252V80L0 60V20l.356-.054 9.695 5.637.106.323v28.661" class="C"/><path d="M10.157 25.906L0 20 34.646 0l34.567 19.921-10 5.591-24.567-14.016-24.488 14.409" class="D"/><path d="M34.303 51.271L34.037 51V40.178l.266-.137.065-.267 9.277-5.412.284.064v11.15l-9.626 5.695" class="B"/><path d="M24.516 45.923V34.345l.269-.013 9.437 5.492.08.216v11.23l-9.787-5.348" class="C"/><use xlink:href="#C" class="D"/><path d="M22.324 58.33l-.266-.271V47.237l.266-.137.065-.267 9.277-5.412.284.064v11.15l-9.626 5.695" class="B"/><path d="M12.537 52.982V41.404l.269-.013 9.437 5.492.08.216v11.23l-9.786-5.348" class="C"/><use xlink:href="#D" class="D"/><path d="M47.138 58.597l-.266-.271V47.504l.266-.137.065-.267 9.277-5.412.284.064v11.15l-9.626 5.695" class="B"/><path d="M37.351 53.249V41.671l.269-.013 9.437 5.492.08.216v11.23l-9.787-5.348" class="C"/><use xlink:href="#C" x="12.835" y="7.326" class="D"/><path d="M35.159 65.657l-.266-.271V54.564l.266-.137.065-.267 9.277-5.412.284.064v11.15l-9.626 5.695" class="B"/><path d="M25.372 60.309V48.731l.269-.013 9.438 5.492.08.217v11.23l-9.786-5.348" class="C"/><use xlink:href="#E" class="D"/><path d="M34.303 35.923l-.266-.272V24.83l.266-.137.065-.267 9.277-5.412.284.064v11.15l-9.626 5.695" class="B"/><path d="M24.516 30.575V18.997l.269-.013 9.437 5.492.08.217v11.23l-9.787-5.348" class="C"/><path d="M34.142 13.302l-9.626 5.695 9.787 5.695 9.626-5.615-9.787-5.776" class="D"/><path d="M22.324 42.982l-.266-.271V31.889l.266-.137.065-.267 9.277-5.412.284.064v11.15l-9.626 5.695" class="B"/><path d="M12.537 37.634V26.056l.269-.013 9.437 5.492.08.216v11.23l-9.786-5.348" class="C"/><use xlink:href="#D" y="-15.348" class="D"/><path d="M47.138 43.249l-.266-.271V32.156l.266-.137.065-.267 9.277-5.412.284.064v11.15l-9.626 5.695" class="B"/><path d="M37.351 37.902V26.324l.269-.013 9.437 5.492.08.216v11.23l-9.787-5.348" class="C"/><use xlink:href="#C" x="12.835" y="-8.022" class="D"/><path d="M35.159 50.308l-.266-.271V39.215l.266-.137.065-.267 9.277-5.412.284.064v11.15l-9.626 5.695" class="B"/><path d="M25.372 44.96V33.382l.269-.013 9.438 5.492.08.216v11.23l-9.786-5.348" class="C"/><use xlink:href="#E" y="-15.348" class="D"/></g></symbol><defs ><path id="C" d="M34.142 28.65l-9.626 5.695 9.787 5.695 9.626-5.615-9.787-5.775"/><path id="D" d="M22.163 35.709l-9.626 5.695 9.786 5.695 9.626-5.615-9.786-5.775"/><path id="E" d="M34.998 43.035l-9.626 5.695 9.786 5.695 9.626-5.615-9.786-5.776"/></defs></svg>