<svg xmlns="http://www.w3.org/2000/svg" xmlns:xlink="http://www.w3.org/1999/xlink" viewBox="0 0 81 23" fill="#fff" fill-rule="evenodd" stroke="#000" stroke-linecap="round" stroke-linejoin="round"><use xlink:href="#A" x=".5" y=".5"/><symbol id="A" overflow="visible"><path d="M11.232 9.4c-.922-.795-2.294-1.465-4.116-2.01-1.183-.427-1.99-.783-2.419-1.065s-.645-.661-.645-1.132c0-.487.213-.895.639-1.227s1.014-.497 1.764-.497c.764 0 1.363.201 1.796.601s.65.994.65 1.635h3.615l.022-.067c.036-1.443-.513-2.695-1.647-3.61S8.3.58 6.522.58c-1.793 0-3.272.488-4.436 1.321S.337 3.822.337 5.169c0 1.384.489 2.443 1.467 3.175s2.48 1.42 4.508 2.06c.97.346 1.643.673 2.018.983s.562.747.562 1.314a1.49 1.49 0 0 1-.568 1.214c-.379.309-.953.465-1.724.465-1.014 0-1.771-.2-2.27-.597s-.75-.828-.75-1.755H.024l-.023.065c-.036 1.724.538 2.81 1.869 3.726s2.906 1.376 4.728 1.376c1.814 0 3.271-.4 4.37-1.199s1.648-1.905 1.648-3.319c-.001-1.39-.461-2.484-1.384-3.278h0zm24.788-8.247h-3.414v16.038h10.844v-2.865h-7.43V1.153h0zM16.226 4.027H27.74c.78 0 1.125-.418 1.125-1.199v-.143c0-1.421-1.337-1.977-2.116-1.977 0 0-2.074-.707-4.718-.707s-4.814.707-4.814.707c-.77 0-2.079.686-2.11 2.073.028.729.373 1.246 1.119 1.246h0zm-1.125-1.342v.143c0-.017.005-.03.005-.047l-.005-.096h0zm.862 8.205h12.045c.779 0 1.142-.633 1.142-1.414V7.722c0-.78-.363-1.413-1.142-1.413H15.963c-.779 0-1.125.632-1.125 1.413v1.754c-.001.781.346 1.414 1.125 1.414h0zm12.918 4.225c.047-.177.079-.367.079-.584v-.18c0-.78-.631-1.162-1.41-1.162H16.512c-.75 0-1.357.521-1.402 1.255.048 1.335 1.061 2.029 1.821 2.029a20.94 20.94 0 0 0 5.1.705c1.806 0 3.5-.328 4.394-.537.009.01.011.022.02.031l2.58 2.585c.275.275.722.275.997 0l.998-1a.71.71 0 0 0 0-1l-2.139-2.143h0zm-13.78-.584c0-.03.007-.057.01-.086s-.01-.059-.01-.094v.18h0zm40.368-7.039c-.399-.72-.971-1.288-1.643-1.703s-1.469-.622-2.391-.622c-1.395 0-2.484.551-3.268 1.654s-1.177 2.588-1.177 4.458v.228c0 1.819.39 3.26 1.171 4.322s1.864 1.594 3.251 1.594c.915 0 1.716-.186 2.403-.556s1.26-.874 1.654-1.507l.021 1.833h.532V.563h-.553v6.929h.001zm0 6.776c-.306.779-.833 1.401-1.512 1.866s-1.531.698-2.555.698c-1.249 0-2.195-.48-2.838-1.44s-.964-2.256-.964-3.885v-.228c0-1.637.325-2.967.973-3.989s1.6-1.533 2.849-1.533c1.126 0 2.005.285 2.636.857s1.125 1.278 1.409 2.123v5.532h.001 0zm8.264-9.101c-1.387 0-2.553.555-3.496 1.664s-1.416 2.512-1.416 4.207v.698c0 1.615.488 2.967 1.464 4.055s2.137 1.631 3.48 1.631c.901 0 1.684-.133 2.347-.398a4.47 4.47 0 0 0 1.694-1.173l-.317-.459a3.97 3.97 0 0 1-1.519 1.081c-.592.239-1.327.359-2.205.359-1.234 0-2.27-.492-3.105-1.478s-1.252-2.192-1.252-3.618v-.84h8.834v-.905c0-1.47-.42-2.641-1.259-3.514s-1.921-1.309-3.251-1.309h0zm3.923 5.14h-8.127l-.033-.065c.102-1.281.54-2.348 1.318-3.203s1.749-1.282 2.919-1.282c1.161 0 2.106.398 2.832 1.194s1.089 1.796 1.089 2.997v.359h.001zm11.16-3.486c-.787-1.102-1.874-1.654-3.262-1.654-.93 0-1.732.207-2.407.622s-1.281.986-1.673 1.713l.006-2.332h-.546V21.77h.552v-6.41c.386.633.992 1.135 1.679 1.507s1.49.556 2.414.556c1.378 0 2.461-.532 3.246-1.594S80 13.327 80 11.508v-.229c-.002-1.871-.396-3.357-1.185-4.458h0zm.584 4.686c0 1.63-.325 2.925-.976 3.885s-1.595 1.44-2.837 1.44c-1.032 0-1.889-.233-2.571-.698s-1.241-1.092-1.531-1.877V8.736c.269-.837.791-1.543 1.422-2.117s1.518-.862 2.658-.862c1.242 0 2.191.511 2.849 1.532s.987 2.352.987 3.989v.229h0 0z" stroke="none" fill="#00cbdc" fill-rule="nonzero"/></symbol></svg>