<svg xmlns="http://www.w3.org/2000/svg" xmlns:xlink="http://www.w3.org/1999/xlink" viewBox="0 0 82 37" fill="#fff" fill-rule="evenodd" stroke="#000" stroke-linecap="round" stroke-linejoin="round"><use xlink:href="#B" x=".5" y=".5"/><defs><linearGradient x1="57.6615627%" y1="2.04644676%" x2="57.6615584%" y2="94.4387516%" id="A"><stop stop-color="#97d9f6" offset="0%"/><stop stop-color="#0f80cc" offset="92.024499%"/></linearGradient></defs><symbol id="B" overflow="visible"><g stroke="none" fill-rule="nonzero"><path d="M30.407 17.515c-1.066 0-1.933.316-2.598.947s-1.002 1.459-1.002 2.473c0 .526.084 1.005.249 1.444s.422.848.767 1.216 1.036.869 2.066 1.506c1.264.771 2.09 1.397 2.487 1.886s.594 1 .594 1.534c0 .714-.235 1.285-.719 1.713s-1.132.643-1.935.643c-.847 0-1.584-.298-2.218-.891s-.953-1.379-.96-2.363h-.394v3.572h.394c.12-.338.287-.511.504-.511.105 0 .35.072.732.207.93.331 1.694.491 2.294.491 1.034 0 1.917-.362 2.653-1.099a3.63 3.63 0 0 0 1.105-2.66c0-.804-.245-1.519-.725-2.142s-1.415-1.35-2.812-2.183c-1.202-.722-1.982-1.31-2.342-1.769s-.546-.964-.546-1.52c0-.601.221-1.084.656-1.444s1.006-.539 1.72-.539c.804 0 1.474.239 2.004.719s.836 1.147.926 2.004h.394v-3.095h-.366c-.045.158-.086.259-.124.304s-.108.069-.214.069c-.127 0-.355-.054-.677-.159-.691-.233-1.328-.352-1.914-.352h0zm12.872 0c-1.299 0-2.479.306-3.544.919a6.77 6.77 0 0 0-2.536 2.543 6.8 6.8 0 0 0-.933 3.455c0 1.645.538 3.11 1.624 4.394s2.387 2.083 3.897 2.391c.345.18.839.644 1.485 1.396.728.848 1.345 1.46 1.852 1.824s1.053.632 1.631.808 1.203.263 1.879.263c.819 0 1.551-.142 2.197-.435l-.145-.359a3.5 3.5 0 0 1-1.195.2c-.571 0-1.149-.188-1.727-.567s-1.301-1.102-2.163-2.169l-.843-.96c1.652-.323 3.01-1.123 4.069-2.404s1.589-2.742 1.589-4.38c0-1.945-.692-3.58-2.066-4.912s-3.066-2.004-5.071-2.004h0zm8.035 0l.021.421c.865 0 1.349.255 1.458.767.04.183.059.522.062 1.009l-.007 9.32c-.007.696-.106 1.141-.297 1.333s-.514.311-.981.359l-.021.421h8.623l.221-2.114h-.394c-.112.576-.37.989-.781 1.223s-1.139.352-2.19.352h-.815c-.946 0-1.493-.342-1.637-1.029a2.15 2.15 0 0 1-.041-.442l.035-9.424c0-.695.088-1.161.269-1.389s.515-.354.995-.387l-.021-.421h-4.498 0zm-7.897.511c1.465 0 2.662.577 3.586 1.741s1.382 2.76 1.382 4.781c0 1.915-.465 3.448-1.396 4.601s-2.17 1.727-3.71 1.727c-1.479 0-2.679-.592-3.6-1.783s-1.375-2.736-1.375-4.636c0-1.953.461-3.516 1.389-4.684s2.169-1.748 3.724-1.748h0zm19.829 2.004a.6.6 0 0 0-.491.214c-.123.143-.16.315-.117.525.041.203.156.382.339.532s.377.228.587.228a.55.55 0 0 0 .47-.228.64.64 0 0 0 .104-.532c-.043-.21-.154-.382-.325-.525s-.363-.214-.567-.214h0zm5.686 1.43c-.357 1.375-1.132 2.119-2.321 2.239l.014.394h1.389l-.028 4.657.083 1.596c.137.646.559.974 1.264.974 1.021 0 2.092-.622 3.213-1.865l-.339-.29c-.809.819-1.524 1.23-2.149 1.23-.384 0-.622-.221-.712-.656a1.67 1.67 0 0 1-.035-.373l.014-5.272h2.121l-.021-.629h-2.093V21.46h-.401 0zm8.201 1.755c-1.186 0-2.151.576-2.902 1.72s-.977 2.416-.684 3.814c.173.819.517 1.453 1.043 1.9s1.192.67 1.99.67c.742 0 1.776-.188 2.211-.567s.838-.991 1.209-1.831l-.297-.311a3.22 3.22 0 0 1-2.688 1.637c-1.239 0-1.997-.68-2.28-2.031-.037-.173-.064-.358-.083-.553 1.474-.233 2.59-.646 3.344-1.244s1.509-1.231 1.368-1.9a1.54 1.54 0 0 0-.608-.947c-.322-.236-1.157-.359-1.624-.359h0zm-12.968.048l-2.556.587v.456l.884-.111c.428 0 .68.194.76.58.027.129.044.311.048.539l-.028 4.18c-.007.578-.071.915-.2 1.016s-.473.152-1.029.152l-.014.394h4.056l-.007-.394c-.563 0-.929-.044-1.092-.131s-.27-.243-.318-.484c-.037-.173-.053-.472-.055-.884l.014-5.9h-.463 0zm12.319.774c.247 0 .485.095.725.283s.381.396.428.622c.231 1.111-.754 1.88-2.971 2.308-.063-.81.077-1.546.435-2.211s.818-1.002 1.382-1.002h0z" fill="#003b57"/><path d="M24.681 1.556h-22A2.69 2.69 0 0 0 0 4.237v24.262a2.69 2.69 0 0 0 2.681 2.681h14.49c-.164-7.21 2.298-21.201 7.51-29.623h0z" fill="#0f80cc"/><path d="M23.881 2.338H2.681A1.9 1.9 0 0 0 .782 4.237v22.492c4.801-1.843 12.008-3.433 16.991-3.361 1.001-5.236 3.944-15.496 6.109-21.03h0z" fill="url(#A)"/><path d="M29.812.762c-1.507-1.344-3.331-.804-5.132.794l-.799.782c-3.08 3.267-5.939 9.32-6.827 13.942.346.702.616 1.597.794 2.281l.12.48c.078.332.12.547.12.547s-.028-.104-.141-.433l-.074-.213a2.47 2.47 0 0 0-.048-.117c-.201-.467-.757-1.453-1.001-1.882a47.01 47.01 0 0 0-.549 1.717c.706 1.292 1.136 3.506 1.136 3.506s-.037-.143-.215-.644c-.158-.443-.942-1.818-1.128-2.139-.318 1.174-.444 1.966-.33 2.159.221.374.432 1.019.617 1.732.418 1.607.708 3.563.708 3.563l.025.329c-.058 1.35-.023 2.749.081 4.013.138 1.674.399 3.112.731 3.882l.226-.123c-.488-1.516-.686-3.504-.599-5.796.131-3.503.937-7.728 2.427-12.131 2.517-6.647 6.008-11.98 9.204-14.527-2.913 2.63-6.855 11.145-8.035 14.298-1.321 3.531-2.258 6.844-2.822 10.019.974-2.976 4.122-4.255 4.122-4.255s1.544-1.904 3.348-4.625c-1.081.247-2.856.669-3.45.918-.877.368-1.113.493-1.113.493s2.84-1.73 5.277-2.513c3.351-5.279 7.003-12.777 3.326-16.058" fill="#003b57"/></g></symbol></svg>