<svg xmlns="http://www.w3.org/2000/svg" xmlns:xlink="http://www.w3.org/1999/xlink" viewBox="0 0 62 81" fill="#fff" fill-rule="evenodd" stroke="#000" stroke-linecap="round" stroke-linejoin="round"><use xlink:href="#F" x=".5" y=".5"/><defs><linearGradient id="A" x1="0%" y1="50%" x2="100%" y2="50%"><stop offset="0%" stop-color="#d6d6d6"/><stop offset="100%" stop-color="#c9c9c9"/></linearGradient><linearGradient id="B" x1="83%" y1="0%" x2="17%" y2="100%"><stop offset="0%" stop-color="#339c8b"/><stop offset="100%" stop-color="#45c3ae"/></linearGradient><linearGradient id="C" x1="0%" y1="0%" x2="100%" y2="100%"><stop offset="0%" stop-color="#0af"/><stop offset="100%" stop-color="#00387f"/></linearGradient><linearGradient id="D" x1="0%" y1="83%" x2="100%" y2="17%"><stop offset="0%" stop-color="#339c8b"/><stop offset="100%" stop-color="#45c3ae"/></linearGradient><path id="E" d="M54.045 72.222q-1.517-.762-1.699.971-.121 2.023 1.618 2.884 1.336.494 1.558-.781.223-2.023-1.477-3.074z"/></defs><symbol id="F" overflow="visible"><g stroke="none"><path d="M56.794 15.778V46l-7.397 4.438v-28.19z" fill="url(#A)"/><path d="M39.905 7.556l-9.302 3.416 18.794 11.276 7.397-6.47z" fill="#eee"/><path d="M3.683.444l27.111 10.444L50.35 21.333l8 9.333z" fill="#e6e6e6"/><g fill="url(#B)"><path d="M29.482 58.493l-12.58 4.045q-4.328 1.344-.753 3.456l11.854 6.912q3.011 1.728 6.021-1.536l6.252-6.866z"/><path d="M40.278 64.505l-6.252 6.866q-1.856 2.013-3.713 2.127v1.626q1.856-.115 3.713-2.151l6.252-6.866z"/></g><path d="M57.716 79.934Q60 79.533 60 77.529V33.447q0-1.012-.477-1.769l-3.26 1.769 1.453 46.486" fill="url(#A)" fill-opacity=".92"/><path d="M.415.986Q1.868-.616 3.737.385l54.394 30.056q.924.496 1.391 1.236l-3.26 1.769L.415.986" fill="#e3e3e3"/><path d="M58.131 72.52L0 40.46v6.412q0 1.603 1.453 2.404l55.225 30.457q1.453.801 1.453-.802z" fill="#eee"/><path d="M0 40.46V1.989q0-1.603 1.453-.802l55.225 30.457q1.453.801 1.453 2.404V72.52L0 40.46" fill="#262626"/><path d="M56.263 69.514V33.447L1.869 3.391v36.067l54.394 30.056" fill="url(#C)"/><path d="M14.545 64.104q-.152.852 1.605 1.891l11.854 6.912q1.154.662 2.308.591v1.626q-1.154.071-2.308-.615L16.15 67.597q-1.757-1.038-1.605-1.891l-.011-1.603" fill="url(#D)"/><path d="M54.068 72.028q-1.631-.819-1.826 1.044-.13 2.174 1.739 3.101 1.436.531 1.675-.839.239-2.174-1.587-3.305z" fill="#cfd8dc"/><use xlink:href="#E" fill="#43a047"/><use xlink:href="#E" x="-0.211" y="0.106" fill="#66bb6a"/><path d="M48.226 72.251v-1.935l-.322.193v1.935z" fill="#e53935"/><path d="M46.563 69.368l1.663.948-.322.193-1.682-.951z" fill="#f44336"/><path d="M46.222 71.483v-1.924l1.682.951v1.935z" fill="#ef5350"/><path d="M50.943 73.584v-1.935l-.322.193v1.935z" fill="#e53935"/><path d="M49.281 70.702l1.663.948-.322.193-1.682-.951z" fill="#f44336"/><path d="M48.94 72.816v-1.924l1.682.951v1.935z" fill="#ef5350"/></g></symbol></svg>