<svg xmlns="http://www.w3.org/2000/svg" xmlns:xlink="http://www.w3.org/1999/xlink" viewBox="0 0 81 76" fill="#fff" fill-rule="evenodd" stroke="#000" stroke-linecap="round" stroke-linejoin="round"><use xlink:href="#D" x=".5" y=".5"/><defs><linearGradient id="A" x1="33%" y1="100%" x2="67%" y2="0%"><stop offset="0%" stop-color="#607d8b"/><stop offset="100%" stop-color="#cfd8dc"/></linearGradient><path id="B" d="M57.896 36.464c0 3.086-7.128 5.571-15.983 5.571s-15.983-2.485-15.983-5.571v-8.356h31.965z"/><path id="C" d="M29.54 37.478q7.734 2.785 16.498 1.773"/></defs><symbol id="D" overflow="visible"><g stroke="none"><path d="M68.496 48.565q10.224-5.041 11.45 6.427.818 13.391-10.901 19.094-9.001 3.268-10.501-5.168-1.5-13.39 9.951-20.354z" fill="#738c99"/><path d="M3.341 40.786l58.181 33.464c-3.051-3.996-4.83-8.241-.365-18.41 2.09-3.421 6.975-8.81 15.325-8.211L17.97 14.1c-6.269-2.053-12.538 3.421-14.628 6.843-6.966 11.633-1.045 19.844 0 19.844z" fill="url(#A)"/><path d="M69.182 51.189q8.247-4.067 9.237 5.185.285 10.699-8.794 15.404-7.261 2.636-8.471-4.169-1.21-10.802 8.028-16.419z" fill="#eee"/><use xlink:href="#B" fill="#65cdbc"/><ellipse cx="41.914" cy="27.855" fill="#eceff1" rx="15.983" ry="5.571"/><ellipse cx="42.172" cy="27.471" fill="#cfd8dc" rx="14.178" ry="4.942"/><ellipse cx="52.037" cy="38.231" fill="#ffee58" rx=".78" ry=".767"/><ellipse cx="54.085" cy="37.225" fill="#d9ff66" rx=".78" ry=".767"/><ellipse cx="56.085" cy="36.219" fill="#4caf50" rx=".78" ry=".767"/></g><use xlink:href="#C" fill="none" stroke-opacity=".34"/><g stroke="none"><use xlink:href="#B" y="-11.142" fill="#65cdbc"/><ellipse cx="41.914" cy="16.713" fill="#eceff1" rx="15.983" ry="5.571"/><ellipse cx="42.172" cy="16.329" fill="#cfd8dc" rx="14.178" ry="4.942"/><ellipse cx="52.037" cy="27.089" fill="#ffee58" rx=".78" ry=".767"/><ellipse cx="54.085" cy="26.083" fill="#d9ff66" rx=".78" ry=".767"/><ellipse cx="56.085" cy="25.077" fill="#4caf50" rx=".78" ry=".767"/></g><use xlink:href="#C" y="-11.142" fill="none" stroke-opacity=".34"/><g stroke="none"><path d="M57.896 14.18c0 3.086-7.128 5.571-15.983 5.571s-15.983-2.485-15.983-5.571V5.824h31.965z" fill="#65cdbc"/><ellipse cx="41.914" cy="5.571" fill="#eceff1" rx="15.983" ry="5.571"/><ellipse cx="42.172" cy="5.187" fill="#cfd8dc" rx="14.178" ry="4.942"/><ellipse cx="52.037" cy="15.947" fill="#ffee58" rx=".78" ry=".767"/><ellipse cx="54.085" cy="14.941" fill="#d9ff66" rx=".78" ry=".767"/><ellipse cx="56.085" cy="13.935" fill="#4caf50" rx=".78" ry=".767"/></g><use xlink:href="#C" y="-22.284" fill="none" stroke-opacity=".34"/></symbol></svg>