<svg xmlns="http://www.w3.org/2000/svg" xmlns:xlink="http://www.w3.org/1999/xlink" viewBox="0 0 81 82" fill="#fff" fill-rule="evenodd" stroke="#000" stroke-linecap="round" stroke-linejoin="round"><use xlink:href="#B" x=".5" y=".5"/><defs><linearGradient id="A" x1="0%" y1="0%" x2="100%" y2="100%"><stop offset="0%" stop-color="#0af"/><stop offset="100%" stop-color="#00387f"/></linearGradient></defs><symbol id="B" overflow="visible"><g stroke="none"><path d="M80 61.114v1.349q0 .899-.941 1.349L47.059 80 0 54.445v-.975z" fill="#1565c0"/><path d="M0 53.528l47.059 25.631L80 61.172 32.941 35.541z" fill="#1c3e73"/></g><path d="M78.353 24.241Q80 25.14 80 26.939v32.376q0 1.799-1.647.899L33.882 35.932q-.941-.675-.941-2.248V1.308q0-1.799 1.412-1.124l44 24.057" fill="#262626" stroke="#1565c0"/><g stroke="none"><path d="M77.647 57.581L35.294 34.455V2.978l42.353 23.126z" fill="url(#A)"/><path d="M0 53.47l47.059 25.631L80 61.114 32.941 35.483zm68.084 4.296l3.294 1.799 1.647-.899-3.294-1.799zm-7.294 5.396l6.588 3.597 3.294-1.799-6.588-3.597zm-4.941-2.698l3.294 1.799 3.294-1.799-3.294-1.799zm11.059 1.349l4.941 2.698 3.294-1.799-4.941-2.698zm6.118-1.349l3.294 1.799 1.647-.899-3.294-1.799zm-20 3.148l9.882 5.396 3.294-1.799-9.882-5.396zm-4.941-2.698l3.294 1.799 3.294-1.799-3.294-1.799zm3.765 6.745l6.588 3.597 3.294-1.799-6.588-3.597zM22.201 51.47l28 15.289 3.294-1.799-28-15.289zm20.941 6.745l3.294 1.799 3.294-1.799-3.294-1.799zm-4.941-2.698l3.294 1.799 3.294-1.799-3.294-1.799zm-4.941-2.698l3.294 1.799 3.294-1.799-3.294-1.799zm-4.941-2.698l3.294 1.799 3.294-1.799-3.294-1.799zm-4.941-2.698l3.294 1.799 3.294-1.799-3.294-1.799zm-4.941-2.698l3.294 1.799 3.294-1.799-3.294-1.799zm32.471 13.04l3.294 1.799 3.294-1.799-3.294-1.799zm-4.941-2.698l3.294 1.799 3.294-1.799-3.294-1.799zm-4.941-2.698l3.294 1.799 3.294-1.799-3.294-1.799zm-4.941-2.698l3.294 1.799 3.294-1.799-3.294-1.799zm-4.941-2.698l3.294 1.799 3.294-1.799-3.294-1.799zm-8.235-4.497l6.588 3.597 3.294-1.799-6.588-3.597zm4.471-2.248l3.294 1.799 3.294-1.799-3.294-1.799zm4.941 2.698l3.294 1.799 3.294-1.799-3.294-1.799zm4.941 2.698l3.294 1.799 3.294-1.799-3.294-1.799zm4.941 2.698l3.294 1.799 3.294-1.799-3.294-1.799zm4.941 2.698l3.294 1.799 3.294-1.799-3.294-1.799zm4.941 2.698l3.294 1.799 3.294-1.799-3.294-1.799zm9.882 5.396l3.294 1.799 3.294-1.799-3.294-1.799zm-4.941-2.698l3.294 1.799 3.294-1.799-3.294-1.799zM33.495 38.879l3.294 1.799 1.647-.899-3.294-1.799zm4.941 2.698l3.294 1.799 1.647-.899-3.294-1.799zm4.941 2.698l3.294 1.799 1.647-.899-3.294-1.799zm4.941 2.698l3.294 1.799 1.647-.899-3.294-1.799zm4.941 2.698l3.294 1.799 1.647-.899-3.294-1.799zm4.941 2.698l3.294 1.799 1.647-.899-3.294-1.799zm4.941 2.698l3.294 1.799 1.647-.899-3.294-1.799zM17.26 45.175l6.588 3.597-3.294 1.799-6.588-3.597z" fill="#fafafa"/></g></symbol></svg>