<svg xmlns="http://www.w3.org/2000/svg" xmlns:xlink="http://www.w3.org/1999/xlink" viewBox="0 0 62 81" fill="#fff" fill-rule="evenodd" stroke="#000" stroke-linecap="round" stroke-linejoin="round"><use xlink:href="#E" x=".5" y=".5"/><defs><linearGradient id="A" x1="83%" y1="0%" x2="17%" y2="100%"><stop offset="0%" stop-color="#339c8b"/><stop offset="100%" stop-color="#45c3ae"/></linearGradient><linearGradient id="B" x1="0%" y1="50%" x2="100%" y2="50%"><stop offset="0%" stop-color="#d6d6d6"/><stop offset="100%" stop-color="#c9c9c9"/></linearGradient><linearGradient id="C" x1="0%" y1="0%" x2="100%" y2="100%"><stop offset="0%" stop-color="#0af"/><stop offset="100%" stop-color="#00387f"/></linearGradient><linearGradient id="D" x1="0%" y1="83%" x2="100%" y2="17%"><stop offset="0%" stop-color="#339c8b"/><stop offset="100%" stop-color="#45c3ae"/></linearGradient></defs><symbol id="E" overflow="visible"><g fill="url(#A)" stroke="none"><path d="M29.483 58.493l-12.58 4.045q-4.328 1.344-.753 3.456l11.854 6.912q3.011 1.728 6.021-1.536l6.252-6.866z"/><path d="M40.278 64.505l-6.252 6.866q-1.856 2.013-3.713 2.127v1.626q1.856-.115 3.713-2.151l6.252-6.866z"/></g><path d="M57.716 79.933Q60 79.532 60 77.528V33.446q0-1.012-.477-1.769l-3.26 1.769 1.453 46.486" fill="url(#B)" stroke="none"/><path d="M.415.986Q1.868-.616 3.737.385l54.394 30.056q.924.496 1.391 1.236l-3.26 1.769L.415.986" fill="#e3e3e3" stroke="none"/><path d="M58.131 72.52L0 40.46v6.412q0 1.603 1.453 2.404l55.225 30.457q1.453.801 1.453-.802z" fill="#eee" stroke="none"/><path d="M0 40.46V1.989q0-1.603 1.453-.802l55.225 30.457q1.453.801 1.453 2.404V72.52L0 40.46" fill="#262626" stroke="none"/><path d="M56.263 69.514V33.447L1.869 3.391v36.067l54.394 30.056" fill="url(#C)" stroke="none"/><path d="M14.545 64.104q-.152.852 1.605 1.891l11.854 6.912q1.154.662 2.308.591v1.626q-1.154.071-2.308-.615L16.15 67.597q-1.757-1.038-1.605-1.891l-.011-1.603" fill="url(#D)" stroke="none"/></symbol></svg>