<svg xmlns="http://www.w3.org/2000/svg" xmlns:xlink="http://www.w3.org/1999/xlink" viewBox="0 0 81 52" fill="#fff" fill-rule="evenodd" stroke="#000" stroke-linecap="round" stroke-linejoin="round"><use xlink:href="#A" x=".5" y=".5"/><symbol id="A" overflow="visible"><path d="M41.19 23.766q.48-.357.517 2.003" fill="#c1c1c1" fill-opacity=".56" stroke="none"/><path d="M64.154 12.197c0 0 .068.779.068.779" fill="none" stroke="#cfd8dc" stroke-linecap="square" stroke-linejoin="miter"/><g stroke="none"><path d="M.128 33.167q-.776 6.659 3.15 8.826l16.442 7.35q5.444 2.035 11.186-2.234c17.701-11.279 29.294-18.57 46.494-31.687 5.459-3.616.434-4.746 1.614-4.849z" fill="#bdbdbd"/><path d="M9.891 44.427c4.797 2.405 10.674 5.5 19.122 3.035 11.183-6.157 20.054-19.331 21.968-20.754 2.533-2.104 11.927-11.244 26.257-12.498 2.643-.859 3.154-2.786 1.021-3.856C73.604 7.623 61.334.379 50.84.827c-15.738 2.632-20.861 6.22-24.744 8.442C2.59 22.153-.227 30.718.045 33.832c.341 3.893.912 5.57 2.117 6.72 2.831 2.263 3.816 1.863 7.729 3.875z" fill="#339c8b"/><path d="M9.452 43.374c6.059 3.237 12.346 5.198 19.419 2.538 10.59-5.164 19.588-18.819 21.502-20.242 2.533-2.104 12.784-11.161 27.114-12.415 2.642-.859 2.169-2.387.037-3.456C72.869 7.067 61.681-.428 51.187.019c-15.738 2.632-20.204 6.224-24.42 8.257C3.261 21.16.443 29.725.716 32.839c.341 3.894 1.262 4.974 2.241 6.458 2.605 2.597 4.153 2.556 6.495 4.077z" fill="#45c3ae"/><path d="M52.552 6.487c.442.416.932.73 1.595.663 1.02-.202 2.44-.777 2.636-.855.263-.123 1.617-.518 2.243-.907.1-.073.313-.048.092-.231-.334-.341-1.114-1.242-2.017-1.444-1.4-.134-1.887.049-2.269.151-2.297.57-2.733 1.242-2.782 1.517-.06.342-.024.476.026.626.182.258.312.295.476.479zM39.348 29.256c7.808-7.834 16.335-14.05 24.628-15.512-7.737-.231-14.518 4.954-17.563 7.086-5.952 5.038-4.85 6.44-7.065 8.426z" fill="#eee"/></g></symbol></svg>