<svg xmlns="http://www.w3.org/2000/svg" xmlns:xlink="http://www.w3.org/1999/xlink" viewBox="0 0 76 81" fill="#fff" fill-rule="evenodd" stroke="#000" stroke-linecap="round" stroke-linejoin="round"><use xlink:href="#G" x=".5" y=".5"/><defs><linearGradient id="A" x1="83%" y1="0%" x2="17%" y2="100%"><stop offset="0%" stop-color="#339c8b"/><stop offset="100%" stop-color="#45c3ae"/></linearGradient><linearGradient id="B" x1="0%" y1="50%" x2="100%" y2="50%"><stop offset="0%" stop-color="#d6d6d6"/><stop offset="100%" stop-color="#c9c9c9"/></linearGradient><linearGradient id="C" x1="0%" y1="0%" x2="100%" y2="100%"><stop offset="0%" stop-color="#0af"/><stop offset="100%" stop-color="#00387f"/></linearGradient><linearGradient id="D" x1="0%" y1="83%" x2="100%" y2="17%"><stop offset="0%" stop-color="#339c8b"/><stop offset="100%" stop-color="#45c3ae"/></linearGradient><path id="E" d="M9.337 23.344l-7.959-4.897v-1.306l7.959 4.897z"/><path id="F" d="M5.309 41.53q-1.185-.604-1.327.77-.095 1.604 1.263 2.288 1.043.392 1.217-.619.174-1.604-1.153-2.439z"/></defs><symbol id="G" overflow="visible"><g stroke="none"><path d="M0 13.059v32.649l10.714 6.53V19.589z" fill="#45c3ae"/><path d="M21.429 0l10.714 6.53-21.429 13.06L0 13.06z" fill="#65cdbc"/><path d="M32.143 6.53v32.649l-21.429 13.06V19.59z" fill="#339c8b"/><g fill="#eee"><use xlink:href="#E"/><use xlink:href="#E" y="2.122"/><use xlink:href="#E" y="4.244"/></g><g fill="url(#A)"><path d="M54.564 48.493l-8.424 2.751q-2.898.914-.504 2.351l7.938 4.702q2.016 1.175 4.032-1.045l4.187-4.67z"/><path d="M61.793 52.581l-4.187 4.67q-1.243 1.369-2.486 1.447v1.106q1.243-.078 2.486-1.463l4.187-4.67z"/></g><path d="M73.471 63.076Q75 62.803 75 61.44V31.456q0-.689-.319-1.203l-2.183 1.203.973 31.619" fill="url(#B)"/><path d="M35.099 9.377q.973-1.09 2.224-.409l36.425 20.444q.619.337.932.841l-2.183 1.203L35.099 9.377" fill="#e3e3e3"/><path d="M73.748 58.034L34.821 36.227v4.361q0 1.09.973 1.635L72.775 62.94q.973.545.973-.545z" fill="#eee"/><path d="M34.821 36.227V10.059q0-1.09.973-.545L72.775 30.23q.973.545.973 1.635v26.168L34.821 36.227" fill="#262626"/><path d="M72.498 55.989V31.457L36.073 11.013v24.532l36.425 20.444" fill="url(#C)"/><path d="M64.969 75.568q.074-.06.083.34" fill="#c1c1c1" fill-opacity=".56"/></g><path d="M68.499 73.594c0 0 .012.132.012.132" fill="none" stroke="#cfd8dc" stroke-linecap="square" stroke-linejoin="miter"/><g stroke="none"><path d="M58.624 77.116q-.111 1.128.499 1.5l2.552 1.267q.845.352 1.727-.364l7.148-5.31c.84-.606.061-.804.243-.82z" fill="#bdbdbd"/><path d="M60.158 79.031c.745.414 1.658.946 2.961.539 1.721-1.029 3.076-3.25 3.37-3.489.389-.353 1.83-1.89 4.044-2.084.408-.142.484-.468.153-.652-.723-.469-2.63-1.713-4.253-1.651-2.43.426-3.218 1.027-3.815 1.399-3.618 2.153-4.043 3.601-3.996 4.129.058.66.148.945.336 1.142.441.387.592.321 1.2.667z" fill="#339c8b"/><path d="M60.09 78.85c.941.557 1.916.897 3.006.456 1.631-.861 3.004-3.164 3.299-3.403.389-.353 1.962-1.875 4.177-2.069.407-.142.332-.402.001-.586-.724-.469-2.464-1.754-4.086-1.692-2.43.426-3.116 1.029-3.765 1.368-3.618 2.153-4.043 3.601-3.996 4.129.058.661.202.845.355 1.098.406.444.646.439 1.01.7z" fill="#45c3ae"/><path d="M66.708 72.623c.068.069.144.121.247.108.159-.036.382-.136.413-.15.041-.021.253-.091.352-.158.016-.013.049-.009.015-.039-.051-.057-.171-.206-.311-.238-.218-.019-.294.013-.354.031-.359.101-.429.215-.437.261-.01.058-.005.08.003.105.028.043.048.049.073.08zm-2.029 3.834c1.199-1.3 2.513-2.326 3.802-2.554-1.206-.056-2.251.801-2.72 1.152-.916.834-.741 1.072-1.082 1.401z" fill="#eee"/><path d="M5.327 41.377q-1.274-.649-1.426.828-.102 1.725 1.358 2.459 1.121.421 1.308-.666.187-1.725-1.24-2.622z" fill="#cfd8dc"/><use xlink:href="#F" fill="#339c8b"/><use xlink:href="#F" x="-0.165" y="0.084" fill="#eee"/><path d="M44.561 52.309q-.102.58 1.075 1.286l7.938 4.702q.773.451 1.546.402v1.106q-.773.048-1.546-.418l-7.938-4.702q-1.177-.706-1.075-1.286l-.007-1.09" fill="url(#D)"/><path d="M41.239 76.231L12.692 59.579l12.013-6.89 28.547 16.508z" fill="#eceff1"/><path d="M53.379 69.22l-12.164 7.123v1.163l12.164-7.123z" fill="#339c8b"/><path d="M41.215 77.506v-1.163L12.307 59.481v1.163l28.908 16.862" fill="#65cdbc"/><path d="M41.215 76.343L12.307 59.481l12.164-6.977L53.379 69.22zM23.469 65.296l9.731 5.669 1.717-1.017-9.731-5.669zm26.046 3.489l1.717 1.017 1.002-.581-1.717-1.017zm-2.003-1.163l1.717 1.017 1.002-.581-1.717-1.017zm-2.004-1.163l1.717 1.017 1.002-.581-1.717-1.017zm-2.004-1.163l1.717 1.017 1.002-.581-1.717-1.017zm-2.004-1.163l1.717 1.017 1.002-.581-1.717-1.017zm-2.004-1.163l1.717 1.017 1.002-.581-1.717-1.017zm-2.004-1.163l1.717 1.017 1.002-.581-1.717-1.017zm-2.003-1.163l1.717 1.017 1.002-.581-1.717-1.017zm-2.004-1.163l1.717 1.017 1.002-.581-1.717-1.017zm-2.004-1.163l1.717 1.017 1.002-.581-1.717-1.017zm-2.004-1.163l1.717 1.017 1.002-.581-1.717-1.017zm-2.004-1.163l1.717 1.017 1.002-.581-1.717-1.017zm-2.004-1.163l1.717 1.017 1.002-.581-1.717-1.017zm-2.003-1.163l1.717 1.017 1.002-.581-1.717-1.017zM46.223 69.22l3.005 1.744 1.717-1.017-3.005-1.744zm-2.004-1.163l1.717 1.018 1.717-1.018-1.717-1.017zm-2.003-1.163l1.717 1.018 1.717-1.018-1.717-1.017zm-2.004-1.163l1.717 1.018 1.717-1.018-1.717-1.017zm-2.004-1.163l1.717 1.018 1.717-1.018-1.717-1.017zm-2.004-1.163l1.717 1.018 1.717-1.018-1.717-1.017zm-2.004-1.163l1.717 1.018 1.717-1.018-1.717-1.017zm-2.004-1.163l1.717 1.018 1.717-1.018-1.717-1.017zm-2.003-1.163l1.717 1.018 1.717-1.018-1.717-1.017zm-2.004-1.163l1.717 1.018 1.717-1.018-1.717-1.017zm-2.004-1.163l1.717 1.018 1.717-1.018-1.717-1.017zm-2.004-1.163l1.717 1.018 1.717-1.018-1.717-1.017zm-2.719-1.599l2.433 1.454 1.717-1.017-2.433-1.454zm23.756 16.135l2.004 1.163 1.717-1.017-2.004-1.163zm-2.004-1.163l1.717 1.018 1.717-1.018-1.717-1.017zm-2.004-1.163l1.717 1.018 1.717-1.018-1.717-1.017zm-2.004-1.163l1.717 1.018 1.717-1.018-1.717-1.017zm-2.004-1.163l1.717 1.018 1.717-1.018-1.717-1.017zm-2.003-1.163l1.717 1.018 1.717-1.018-1.717-1.017zm-2.004-1.163l1.717 1.018 1.717-1.018-1.717-1.017zm-2.004-1.163l1.717 1.018 1.717-1.018-1.717-1.017zm-2.004-1.163l1.717 1.018 1.717-1.018-1.717-1.017zm-2.004-1.163l1.717 1.018 1.717-1.018-1.717-1.017zm-2.004-1.163l1.717 1.018 1.717-1.018-1.717-1.017zm-2.003-1.163l1.717 1.018 1.717-1.018-1.717-1.017zM21.18 57.01l1.717 1.018 1.717-1.018-1.717-1.017zm-1.717-1.018l1.431.872 1.717-1.017-1.431-.872zm20.751 14.391l1.717 1.018 1.717-1.018-1.717-1.017zm2.003 1.163l3.005 1.744 1.717-1.017-3.005-1.744zm-4.007-2.326l1.717 1.018 1.717-1.018-1.717-1.017zm-2.004-1.163l1.717 1.018 1.717-1.018-1.717-1.017zm-4.007-2.326l1.717 1.018 1.717-1.018-1.717-1.017zm2.004 1.163l1.717 1.018 1.717-1.018-1.717-1.017zm-6.01-3.489l1.717 1.018 1.717-1.018-1.717-1.017zm2.004 1.163l1.717 1.018 1.717-1.018-1.717-1.017zm-6.011-3.489l1.717 1.018 1.717-1.018-1.717-1.017zm2.004 1.163l1.717 1.018 1.717-1.018-1.717-1.017zm-6.011-3.489l1.717 1.018 1.717-1.018-1.717-1.017zm2.004 1.163l1.717 1.018 1.717-1.018-1.717-1.017zm-4.723-2.762l2.433 1.454 1.717-1.017-2.433-1.454zm22.039 15.117l3.721 2.18 1.717-1.018-3.721-2.18zm-2.004-1.163l1.717 1.018 1.717-1.018-1.717-1.017zm-2.003-1.163l1.717 1.018 1.717-1.018-1.717-1.017zm-2.004-1.163l1.717 1.018 1.717-1.018-1.717-1.017zm-2.004-1.163l1.717 1.018 1.717-1.018-1.717-1.017zm-2.004-1.163l1.717 1.018 1.717-1.018-1.717-1.017zm-2.004-1.163l1.717 1.018 1.717-1.018-1.717-1.017zm-2.004-1.163l1.717 1.018 1.717-1.018-1.717-1.017zm-2.003-1.163l1.717 1.018 1.717-1.018-1.717-1.017zm-2.004-1.163l1.717 1.018 1.717-1.018-1.717-1.017zm-2.004-1.163l1.717 1.018 1.717-1.018-1.717-1.017zm-4.007-2.326l3.721 2.18 1.717-1.018-3.721-2.18zm-2.004 1.163l1.717 1.018 1.717-1.018-1.717-1.017zm2.004 1.163l1.717 1.018 1.717-1.018-1.717-1.017zm2.004 1.163l1.717 1.018 1.717-1.018-1.717-1.017zm2.004 1.163l1.717 1.018 1.717-1.018-1.717-1.017zm2.004 1.163l1.717 1.018 1.717-1.018-1.717-1.017zm12.021 6.977l1.717 1.018 1.717-1.018-1.717-1.017zm5.009 1.744l1.717 1.018.715-.436-1.717-1.017zm-1.002.581l1.717 1.018.715-.436L38.209 73zm2.004 1.163l1.717 1.018.715-.436-1.717-1.017zm-4.007-2.326l1.717 1.018.715-.436-1.717-1.017z" fill="url(#A)"/></g></symbol></svg>