<svg xmlns="http://www.w3.org/2000/svg" xmlns:xlink="http://www.w3.org/1999/xlink" viewBox="0 0 82 67" fill="#fff" fill-rule="evenodd" stroke="#000" stroke-linecap="round" stroke-linejoin="round"><use xlink:href="#E" x=".5" y=".5"/><defs><linearGradient id="A" x1="0%" y1="0%" x2="100%" y2="100%"><stop offset="0%" stop-color="#0af"/><stop offset="100%" stop-color="#00387f"/></linearGradient><linearGradient id="B" x1="100%" y1="0%" x2="0%" y2="100%"><stop offset="0%"/><stop offset="100%" stop-color="gray"/></linearGradient><linearGradient id="C" x1="0%" y1="61%" x2="100%" y2="39%"><stop offset="0%"/><stop offset="100%" stop-color="gray"/></linearGradient><path id="D" d="M58.156 21.14l-1.966-1.088-1.442.794 1.955 1.094 1.072.6 1.955 1.094 1.442-.811-1.966-1.088z"/></defs><symbol id="E" overflow="visible"><g stroke="none"><path d="M74.791 29.242L46.02 13.11 5.517 35.667l28.492 16.405z" fill="#65cdbc"/><path d="M29.05 58.603q-1.117 3.828 2.235 5.468L1.117 48.214Q0 46.573 0 43.292z" fill="#339e8c"/><path d="M46.089 13.079L74.86 29.211q1.397 0 2.793.273L48.044 12.669q-.838-.137-1.955.41z" fill="#cfd8dc"/></g><path d="M56.704 23.333l-11.732-6.562-11.732 6.562-11.732 6.562 11.732 6.562 11.732 6.562 11.732-6.562 11.732-6.562z" fill="url(#A)" stroke="#464646" stroke-linejoin="miter"/><g stroke="none"><use xlink:href="#D" fill="#eee"/><path d="M29.33 58.876L0 43.292q.838-5.468 5.587-7.656l28.492 16.405q-3.911 1.914-4.749 6.835z" fill="#45c3ae"/><path d="M37.828 49.444l36.753-20.369q2.095-.547 3.631.82 2.235 2.187 1.676 5.468-.559 2.734-2.235 4.922-.559.547-2.235 1.64L37.756 64.218q-4.544 1.904-7.896-.83-1.164-1.514-1.229-3.828.112-3.008 2.357-5.342 1.805-1.904 6.839-4.775z" fill="#88d8cb"/><path d="M4.436.288C2.916-.377.962.128.258 1.613-.45 3.106.368 4.999 1.877 5.71l.028.013.101.041L41.03 22.289c1.528.701 2.817 1.143 3.515-.328s-.475-2.158-2.004-2.859L9.665 2.91z" fill="url(#B)" transform="matrix(.984808 .173648 -.173648 .984808 5.579989 -.473925)"/><path d="M39.845 49.278l34.053-18.802q1.661-.582 3.223.757 2.063 2.019 1.547 5.047-.516 2.524-2.063 4.543-.477.639-2.024 1.648L39.665 63.115q-5.93 1.01-7.363-1.209-1.045-1.525-1.031-3.028-.153-2.871 2.262-5.192 1.775-1.917 6.313-4.407z" fill="#afe5dc"/><g fill="#eee"><path d="M68.976 38.074v2.55l4.208-2.354v-2.55zm-6.127 3.489v2.55l4.208-2.354v-2.55z"/><use xlink:href="#D" x="-39.794" y="13.588"/><use xlink:href="#D" x="-24.622" y="22.363"/></g></g><g transform="matrix(-.34202 -.939693 .939693 -.34202 22.866869 43.960336)" stroke="none"><path d="M2.618.41Q5.262-.933 5.579 2.122q.212 3.567-2.819 5.087-2.328.87-2.715-1.377Q-.343 2.265 2.618.41z" fill="#cfd8dc"/><path d="M2.654.728Q5.114-.521 5.409 2.321q.197 3.318-2.622 4.732-2.165.81-2.526-1.281Q-.1 2.454 2.654.728z" fill="#262626"/><path d="M2.996.901Q5.456-.348 5.751 2.494q.197 3.318-2.622 4.732-2.165.81-2.526-1.281Q.242 2.627 2.996.901z" fill="url(#C)"/></g></symbol></svg>