<svg xmlns="http://www.w3.org/2000/svg" xmlns:xlink="http://www.w3.org/1999/xlink" viewBox="0 0 41.75 81.75" fill="#fff" fill-rule="evenodd" stroke="#000" stroke-linecap="round" stroke-linejoin="round"><style><![CDATA[.B{stroke:none}.C{font-family:Roboto Condensed}]]></style><use xlink:href="#B" x=".25" y=".5"/><defs><linearGradient id="A" x1="0%" y1="0%" x2="100%" y2="100%"><stop offset="0%" stop-color="#0af"/><stop offset="100%" stop-color="#00387f"/></linearGradient></defs><symbol id="B" overflow="visible"><path d="M15.281 32.171l24.245-12.894q.475.757.475 1.766v56.598q0 1.516-2.449 2.274z" fill="#339c8b" class="B"/><path d="M15.28 32.171L.544.578Q2.993-.433 4.898.325l33.197 17.687q.954.506 1.43 1.266L15.28 32.171" fill="#339c8b" class="B"/><path d="M0 1.841v56.598q0 2.021 1.905 3.032L36.19 79.663q1.905 1.011 1.905-1.011V22.054q0-2.021-1.905-3.032L1.905.83Q0-.181 0 1.841" fill="#fafafa" stroke-width=".5"/><g transform="translate(1.905 2.852)"><path d="M0 0v54.577l34.286 18.192V18.192z" fill="url(#A)" class="B"/></g><g transform="matrix(.866025 .5 -.5 .866025 17.390117 66.222681)"><ellipse cx="1.328" cy="1.036" fill="#1565c0" rx="1.328" ry="1.036" class="B"/></g><path d="M18.614 17.081L4.5 9v5.919L18.614 23zm15 8.5L19.5 17.5v5.919L33.614 31.5zm-15-1L4.5 16.5v5.919L18.614 30.5zm15 8.5L19.5 25v5.919L33.614 39zm-15 6.5L4.5 31.5v5.919L18.614 45.5zm15 8.5L19.5 40v5.919L33.614 54zm0-7.5L19.5 32.5v5.919L33.614 46.5zM9.948 27.095L4.5 24v6.438l5.448 3.095zm8.191 4.467l-5.448-3.095v6.438L18.139 38z" fill="#fafafa" class="B"/></symbol></svg>