<svg xmlns="http://www.w3.org/2000/svg" xmlns:xlink="http://www.w3.org/1999/xlink" viewBox="0 0 52 81.75" fill="#fff" fill-rule="evenodd" stroke="#000" stroke-linecap="round" stroke-linejoin="round"><style><![CDATA[.B{stroke:none}.C{font-family:Roboto Condensed}.D{fill:#fafafa}]]></style><use xlink:href="#D" x=".5" y=".5"/><defs><linearGradient id="A" x1="83%" y1="0%" x2="17%" y2="100%"><stop offset="0%" stop-color="#339c8b"/><stop offset="100%" stop-color="#1e88e5"/></linearGradient><linearGradient id="B" x1="0%" y1="0%" x2="100%" y2="100%"><stop offset="0%" stop-color="#0af"/><stop offset="100%" stop-color="#00387f"/></linearGradient><linearGradient id="C" x1="0%" y1="61%" x2="100%" y2="39%"><stop offset="0%"/><stop offset="100%" stop-color="gray"/></linearGradient></defs><symbol id="D" overflow="visible"><g transform="translate(25.956 19.277)"><path d="M0 12.894L23.582 0q.462.757.462 1.766v56.598q0 1.516-2.382 2.274z" fill="url(#A)" class="B"/></g><g transform="translate(11.622)"><path d="M14.334 32.171L0 .578Q2.382-.433 4.235.325l32.291 17.687q.928.506 1.391 1.266L14.334 32.171" fill="url(#A)" class="B"/></g><path d="M11.092 1.841v56.598q0 2.021 1.853 3.032l33.35 18.192q1.853 1.011 1.853-1.011V22.054q0-2.021-1.853-3.032L12.945.83q-1.853-1.011-1.853 1.011" stroke-width=".5" class="D"/><g transform="translate(12.945 2.852)"><path d="M0 0v54.577l33.35 18.192V18.192z" fill="url(#B)" class="B"/></g><g transform="matrix(.866025 .5 -.5 .866025 28.00644 66.243087)"><ellipse cx="1.304" cy="1.027" fill="#65b3cd" rx="1.304" ry="1.027" class="B"/></g><g class="B"><path d="M30.012 17.081L16.284 9v5.919L30.012 23z" class="D"/><path d="M44.602 25.581L30.874 17.5v5.919L44.602 31.5z" fill="#464646"/><path d="M30.012 24.581L16.284 16.5v5.919L30.012 30.5zm14.59 8.5L30.874 25v5.919L44.602 39zm-14.59 6.5L16.284 31.5v5.919L30.012 45.5zm14.59 8.5L30.874 40v5.919L44.602 54zm0-7.5L30.874 32.5v5.919L44.602 46.5zM21.583 27.095L16.284 24v6.438l5.299 3.095z" class="D"/><path d="M29.55 31.562l-5.299-3.095v6.438L29.55 38z" fill="#464646"/><path d="M3.145 16.687c-1.078.489-2.464.117-2.963-.976-.502-1.1.078-2.495 1.148-3.019l.02-.01.071-.031L29.093.48c1.084-.516 1.997-.842 2.492.242s-.337 1.59-1.421 2.106L6.853 14.755z" fill="url(#C)" transform="matrix(.984808 -.173648 .173648 .984808 -2.544635 40.420434)"/></g></symbol></svg>