<svg xmlns="http://www.w3.org/2000/svg" xmlns:xlink="http://www.w3.org/1999/xlink" viewBox="0 0 82 82" fill="#fff" fill-rule="evenodd" stroke="#000" stroke-linecap="round" stroke-linejoin="round"><use xlink:href="#A" x=".5" y=".5"/><symbol id="A" overflow="visible"><g stroke="none"><path d="M80 61.114v1.349q0 .899-.941 1.349L47.059 80 0 54.445v-.975z" fill="#1565c0"/><path d="M0 53.528l47.059 25.631L80 61.172 32.941 35.541z" fill="#1c3e73"/></g><path d="M78.353 24.241Q80 25.14 80 26.939v32.376q0 1.799-1.647.899L33.882 35.932q-.941-.675-.941-2.248V1.308q0-1.799 1.412-1.124l44 24.057" fill="#262626" stroke="#1565c0"/><g stroke="none"><path d="M77.647 57.581L35.294 34.455V2.978l42.353 23.126z" fill="#000"/><path d="M0 53.47l47.059 25.631L80 61.114 32.941 35.483zm68.084 4.296l3.294 1.799 1.647-.899-3.294-1.799zm-7.294 5.396l6.588 3.597 3.294-1.799-6.588-3.597zm-4.941-2.698l3.294 1.799 3.294-1.799-3.294-1.799zm11.059 1.349l4.941 2.698 3.294-1.799-4.941-2.698zm6.118-1.349l3.294 1.799 1.647-.899-3.294-1.799zm-20 3.148l9.882 5.396 3.294-1.799-9.882-5.396zm-4.941-2.698l3.294 1.799 3.294-1.799-3.294-1.799zm3.765 6.745l6.588 3.597 3.294-1.799-6.588-3.597zM22.201 51.47l28 15.289 3.294-1.799-28-15.289zm20.941 6.745l3.294 1.799 3.294-1.799-3.294-1.799zm-4.941-2.698l3.294 1.799 3.294-1.799-3.294-1.799zm-4.941-2.698l3.294 1.799 3.294-1.799-3.294-1.799zm-4.941-2.698l3.294 1.799 3.294-1.799-3.294-1.799zm-4.941-2.698l3.294 1.799 3.294-1.799-3.294-1.799zm-4.941-2.698l3.294 1.799 3.294-1.799-3.294-1.799zm32.471 13.04l3.294 1.799 3.294-1.799-3.294-1.799zm-4.941-2.698l3.294 1.799 3.294-1.799-3.294-1.799zm-4.941-2.698l3.294 1.799 3.294-1.799-3.294-1.799zm-4.941-2.698l3.294 1.799 3.294-1.799-3.294-1.799zm-4.941-2.698l3.294 1.799 3.294-1.799-3.294-1.799zm-8.235-4.497l6.588 3.597 3.294-1.799-6.588-3.597zm4.471-2.248l3.294 1.799 3.294-1.799-3.294-1.799zm4.941 2.698l3.294 1.799 3.294-1.799-3.294-1.799zm4.941 2.698l3.294 1.799 3.294-1.799-3.294-1.799zm4.941 2.698l3.294 1.799 3.294-1.799-3.294-1.799zm4.941 2.698l3.294 1.799 3.294-1.799-3.294-1.799zm4.941 2.698l3.294 1.799 3.294-1.799-3.294-1.799zm9.882 5.396l3.294 1.799 3.294-1.799-3.294-1.799zm-4.941-2.698l3.294 1.799 3.294-1.799-3.294-1.799zM33.495 38.879l3.294 1.799 1.647-.899-3.294-1.799zm4.941 2.698l3.294 1.799 1.647-.899-3.294-1.799zm4.941 2.698l3.294 1.799 1.647-.899-3.294-1.799zm4.941 2.698l3.294 1.799 1.647-.899-3.294-1.799zm4.941 2.698l3.294 1.799 1.647-.899-3.294-1.799zm4.941 2.698l3.294 1.799 1.647-.899-3.294-1.799zm4.941 2.698l3.294 1.799 1.647-.899-3.294-1.799zM17.26 45.175l6.588 3.597-3.294 1.799-6.588-3.597z" fill="#fafafa"/><ellipse cx="47.239" cy="13.082" fill="#4caf50" rx="1.498" ry="1.415"/><ellipse cx="43.307" cy="11.225" fill="#ffeb3b" rx="1.498" ry="1.415"/><ellipse cx="39.469" cy="9.368" fill="#f44336" rx="1.498" ry="1.415"/><path d="M46.481 24.842l-1.35.638 4.726 7.652-4.726 2.55 1.35 1.913 6.076-3.188zm18.256 19.532v2.812l-11.683-6.328v-2.813z" fill="#fafafa"/></g></symbol></svg>