<svg xmlns="http://www.w3.org/2000/svg" xmlns:xlink="http://www.w3.org/1999/xlink" viewBox="0 0 71 81" fill="#fff" fill-rule="evenodd" stroke="#000" stroke-linecap="round" stroke-linejoin="round"><use xlink:href="#G" x=".5" y=".5"/><defs><linearGradient id="A" x1="83%" y1="0%" x2="17%" y2="100%"><stop offset="0%" stop-color="#1565c0"/><stop offset="100%" stop-color="#1e88e5"/></linearGradient><linearGradient id="B" x1="0%" y1="78%" x2="100%" y2="22%"><stop offset="0%" stop-color="#1565c0"/><stop offset="100%" stop-color="#1e88e5"/></linearGradient><linearGradient id="C" x1="0%" y1="50%" x2="100%" y2="50%"><stop offset="0%" stop-color="#d6d6d6"/><stop offset="100%" stop-color="#c9c9c9"/></linearGradient><linearGradient id="D" x1="100%" y1="0%" x2="0%" y2="100%"><stop offset="0%" stop-color="#00387f"/><stop offset="100%" stop-color="#0af"/></linearGradient><path id="E" d="M14.156 27.782l-5.786-3.31v-.883l5.786 3.31z"/><path id="F" d="M11.228 40.076q-.861-.408-.965.521-.069 1.084.918 1.546.758.265.885-.419.126-1.084-.838-1.648z"/></defs><symbol id="G" overflow="visible"><g stroke="none"><path d="M7.368 20.831v22.068l7.789 4.414V25.245z" fill="#1976d2"/><path d="M22.947 12.003l7.789 4.414-15.579 8.827-7.789-4.414z" fill="#1e88e5"/><path d="M30.737 16.417v22.068l-15.579 8.827V25.244z" fill="#1565c0"/><g fill="#eee"><use xlink:href="#E"/><use xlink:href="#E" y="1.435"/><use xlink:href="#E" y="2.869"/></g><g fill="url(#A)"><path d="M47.037 44.781l-6.124 1.86q-2.107.618-.366 1.589l5.771 3.178q1.466.794 2.931-.706l3.044-3.157z"/><path d="M52.294 47.545l-3.044 3.157q-.904.925-1.808.978v.748q.904-.053 1.808-.989l3.044-3.157z"/></g><path d="M39.765 47.361q-.074.392.781.869l5.771 3.178q.562.305 1.124.272v.748q-.562.033-1.124-.283l-5.771-3.178q-.855-.477-.781-.869l-.005-.737" fill="url(#B)"/><path d="M60.783 54.638q1.112-.184 1.112-1.106V33.265q0-.465-.232-.813l-1.587.813.708 21.373" fill="url(#C)"/><path d="M32.886 18.341q.708-.737 1.617-.276l26.482 13.818q.45.228.677.568l-1.587.813-27.189-14.924" fill="#e3e3e3"/><path d="M60.985 51.23L32.684 36.49v2.948q0 .737.708 1.105l26.886 14.003q.708.368.708-.369z" fill="#eee"/><path d="M32.684 36.49V18.802q0-.737.708-.369l26.886 14.003q.708.368.708 1.105V51.23L32.684 36.49" fill="#262626"/><path d="M60.076 49.848V33.266L33.594 19.447v16.582l26.482 13.819" fill="url(#D)"/><path d="M54.603 63.082q.054-.041.058.231" fill="#c1c1c1" fill-opacity=".56"/></g><path d="M57.168 61.748c0 0 .008.09.008.09" fill="none" stroke="#cfd8dc" stroke-linecap="square" stroke-linejoin="miter"/><g stroke="none"><path d="M50.008 64.154q-.085.766.355 1.017l1.842.851q.61.236 1.251-.254l5.195-3.634c.61-.415.047-.546.179-.558z" fill="#bdbdbd"/><path d="M51.106 65.452c.538.278 1.196.636 2.141.355 1.25-.706 2.239-2.22 2.453-2.383.283-.242 1.332-1.291 2.935-1.431.296-.098.352-.32.113-.444-.522-.316-1.897-1.153-3.072-1.104-1.761.299-2.333.71-2.767.965-2.627 1.477-2.94 2.462-2.909 2.82.039.448.104.641.239.774.318.261.428.216.866.448z" fill="#1976d2"/><path d="M51.057 65.33c.679.374 1.383.602 2.174.298 1.184-.591 2.187-2.161 2.401-2.324.283-.242 1.428-1.281 3.031-1.421.296-.098.242-.274.003-.398-.522-.316-1.776-1.182-2.951-1.133-1.761.299-2.26.711-2.731.944-2.627 1.477-2.94 2.462-2.909 2.82.039.448.143.573.253.744.292.3.466.295.728.471z" fill="#1e88e5"/><path d="M55.871 61.09c.049.048.104.083.179.075.115-.024.274-.09.296-.099.03-.014.182-.06.252-.105.011-.008.035-.006.01-.027-.037-.039-.124-.142-.226-.165-.157-.015-.212.007-.255.018-.258.067-.307.144-.313.176-.007.039-.003.055.003.072.02.03.035.034.053.055zm-1.476 2.615c.872-.896 1.826-1.606 2.755-1.77-.868-.03-1.626.562-1.967.805-.665.576-.541.737-.789.964z" fill="#eee"/><path d="M11.241 39.972q-.926-.439-1.037.56-.074 1.166.987 1.662.815.285.951-.45.136-1.166-.901-1.772z" fill="#cfd8dc"/><use xlink:href="#F" fill="#42a5f5"/><use xlink:href="#F" x="-0.12" y="0.056" fill="#eee"/><path d="M37.337 61.809L18.55 51.62l7.906-4.216 18.787 10.101z" fill="#eceff1"/><path d="M45.5 57.596l-8.085 4.402v.719l8.085-4.402z" fill="#1976d2"/><path d="M37.415 62.717v-.719L18.2 51.578v.719l19.215 10.42" fill="#1e88e5"/><path d="M37.415 61.998L18.2 51.578l8.085-4.312L45.5 57.596zM25.62 55.171l6.468 3.503 1.141-.629-6.468-3.503zm17.312 2.156l1.141.629.666-.359-1.141-.629zm-1.332-.719l1.141.629.666-.359-1.141-.629zm-1.332-.719l1.141.629.666-.359-1.141-.629zm-1.332-.719l1.141.629.666-.359-1.141-.629zm-1.332-.719l1.141.629.666-.359-1.141-.629zm-1.332-.719l1.141.629.666-.359-1.141-.629zm-1.332-.719l1.141.629.666-.359-1.141-.629zm-1.332-.719l1.141.629.666-.359-1.141-.629zm-1.332-.719l1.141.629.666-.359-1.141-.629zm-1.332-.719l1.141.629.666-.359-1.141-.629zm-1.332-.719l1.141.629.666-.359-1.141-.629zm-1.332-.719l1.141.629.666-.359-1.141-.629zm-1.332-.719l1.141.629.666-.359-1.141-.629zm-1.332-.719l1.141.629.666-.359-1.141-.629zm15.124 9.612l1.998 1.078 1.141-.629-1.998-1.078zm-1.332-.719l1.141.629 1.141-.629-1.141-.629zm-1.332-.719l1.141.629 1.141-.629-1.141-.629zm-1.332-.719l1.141.629 1.141-.629-1.141-.629zm-1.332-.719l1.141.629 1.141-.629-1.141-.629zm-1.332-.719l1.141.629 1.141-.629-1.141-.629zm-1.332-.719l1.141.629 1.141-.629-1.141-.629zm-1.332-.719l1.141.629 1.141-.629-1.141-.629zm-1.332-.719l1.141.629 1.141-.629-1.141-.629zm-1.332-.719l1.141.629 1.141-.629L29.9 50.5zm-1.332-.719l1.141.629 1.141-.629-1.141-.629zm-1.332-.719l1.141.629 1.141-.629-1.141-.629zm-1.807-.988l1.617.898 1.141-.629-1.617-.898zm15.79 9.971l1.332.719 1.141-.629-1.332-.719zm-1.332-.719l1.141.629 1.141-.629-1.141-.629zm-1.332-.719l1.141.629 1.141-.629-1.141-.629zm-1.332-.719l1.141.629 1.141-.629-1.141-.629zm-1.332-.719l1.141.629 1.141-.629-1.141-.629zm-1.332-.719l1.141.629 1.141-.629-1.141-.629zm-1.332-.719l1.141.629 1.141-.629-1.141-.629zm-1.332-.719l1.141.629 1.141-.629-1.141-.629zm-1.332-.719l1.141.629 1.141-.629-1.141-.629zm-1.332-.719l1.141.629 1.141-.629-1.141-.629zm-1.332-.719l1.141.629 1.141-.629-1.141-.629zm-1.332-.719l1.141.629 1.141-.629-1.141-.629zm-1.332-.719l1.141.629 1.141-.629-1.141-.629zm-1.141-.629l.951.539 1.141-.629-.951-.539zm13.793 8.893l1.141.629 1.141-.629-1.141-.629zm1.332.719l1.998 1.078 1.141-.629-1.998-1.078zm-2.663-1.437l1.141.629 1.141-.629-1.141-.629zm-1.332-.719l1.141.629 1.141-.629-1.141-.629zm-2.663-1.437l1.141.629 1.141-.629-1.141-.629zm1.332.719l1.141.629 1.141-.629-1.141-.629zm-3.995-2.156l1.141.629 1.141-.629-1.141-.629zm1.332.719l1.141.629 1.141-.629-1.141-.629zm-3.995-2.156l1.141.629 1.141-.629-1.141-.629zm1.332.719l1.141.629 1.141-.629-1.141-.629zm-3.995-2.156l1.141.629 1.141-.629-1.141-.629zm1.332.719l1.141.629 1.141-.629-1.141-.629zm-3.139-1.707l1.617.898 1.141-.629-1.617-.898zm14.649 9.342l2.473 1.347 1.141-.629-2.473-1.347zm-1.332-.719l1.141.629 1.141-.629-1.141-.629zm-1.332-.719l1.141.629 1.141-.629-1.141-.629zm-1.332-.719l1.141.629 1.141-.629-1.141-.629zm-1.332-.719l1.141.629 1.141-.629-1.141-.629zm-1.332-.719l1.141.629 1.141-.629-1.141-.629zm-1.332-.719l1.141.629 1.141-.629-1.141-.629zm-1.332-.719l1.141.629 1.141-.629-1.141-.629zm-1.332-.719l1.141.629 1.141-.629-1.141-.629zm-1.332-.719l1.141.629 1.141-.629-1.141-.629zm-1.332-.719l1.141.629 1.141-.629-1.141-.629zm-2.663-1.437l2.473 1.347 1.141-.629-2.473-1.347zm-1.332.719l1.141.629 1.141-.629-1.141-.629zm1.332.719l1.141.629 1.141-.629-1.141-.629zm1.332.719l1.141.629 1.141-.629-1.141-.629zm1.332.719l1.141.629 1.141-.629-1.141-.629zm1.332.719l1.141.629 1.141-.629-1.141-.629zm7.99 4.312l1.141.629 1.141-.629-1.141-.629zm3.329 1.078l1.141.629.476-.27-1.141-.629zm-.666.359l1.141.629.476-.27-1.141-.629zm1.332.719l1.141.629.476-.27-1.141-.629zm-2.663-1.437l1.141.629.476-.27-1.141-.629z" fill="url(#A)"/></g><g fill="#e3f2fd" stroke="#fff" stroke-dasharray="2 3" stroke-linecap="butt"><path d="M0 19.934L35 0l35 20.062-35 19.934z" fill-opacity=".5"/><path d="M70 20.07v39.868L35 80V40.004z" fill-opacity=".5"/><path d="M0 20.07v39.868L35 80V40.004z" fill-opacity=".5"/></g></symbol></svg>